<?xml version="1.0" encoding="utf-8"?>
<!-- Generator: Adobe Illustrator 24.0.2, SVG Export Plug-In . SVG Version: 6.00 Build 0)  -->
<svg version="1.1" id="Capa_1" xmlns="http://www.w3.org/2000/svg" xmlns:xlink="http://www.w3.org/1999/xlink" x="0px" y="0px"
	 viewBox="0 0 512 512" style="enable-background:new 0 0 512 512;" xml:space="preserve">
<style type="text/css">
	.st0{opacity:0.8;fill-rule:evenodd;clip-rule:evenodd;}
	.st1{fill:none;stroke:#BCBDC0;stroke-width:0.5669;stroke-miterlimit:22.9256;}
	.st2{fill-rule:evenodd;clip-rule:evenodd;fill:#FFFFFF;}
</style>
<g>
	<path class="st0" d="M186.1,273.5h-17.2v-4.3h15.3h1.9v1.3V273.5z M154.9,266v34.3h14v-12.8h17.2v12.8h14.1v-21.5v-10.9V266
		c0-6-5-10.9-10.9-10.9h-7.3h-15.7h-0.4C159.8,255.1,154.9,260,154.9,266z M230.7,269.1h17.2v17.1v0.1h-17.2v-4.4V269.1z
		 M216.8,255.1v21.5v9.9v13.9H251c3.3,0,6.3-1.5,8.4-3.9c1.6-1.9,2.6-4.3,2.6-7V288v-22c0-6-5-10.9-10.9-10.9H216.8z M292.2,269.1
		h17.2V283v3.3h-14.3h-2.9V269.1z M289.1,255.1c-6,0-10.9,4.9-10.9,10.9v22.2v1.2c0,2.8,1,5.3,2.8,7.2c2,2.2,4.9,3.7,8.1,3.7h23.5
		c5.9,0,10.9-4.9,10.9-10.9v-1.7V278V266c0-6-4.9-10.9-10.9-10.9H289.1z M353.6,284.7h17.2v1.6h-17.2V284.7z M353.6,269.1h6h11.2
		v1.6h-13.6h-3.6V269.1z M350.5,255.1c-6,0-10.9,4.9-10.9,10.9v4.2v3.6c0,2,0.5,3.8,1.5,5.5c0.1,0.2,0.2,0.4,0.3,0.5
		c0.9,1.3,2,2.3,3.3,3.1h-5.1v6.4c0,6,4.9,10.9,10.9,10.9H374c5.9,0,10.9-4.9,10.9-10.9v-7.9c0-3.8-1.9-7.2-5.1-9.2h5.1V266
		c0-4.9-3.3-9.1-7.8-10.4c-1-0.3-2-0.4-3-0.4h-12.2H350.5z M401.2,255.1v45.2h14v-15.6h18.1v15.6h14v-45.2h-14v15.6h-18.1v-15.6
		H401.2z M166.2,266.4h14.1h8.4v5.7v4h-22.6V266.4z M165.8,257.8c-4.5,0-8.2,3.7-8.2,8.2v31.7h8.6v-12.8h22.6v12.8h8.7v-20.3v-11.1
		V266c0-4.5-3.7-8.2-8.2-8.2h-3.9h-16.1H165.8z M228,266.4h22.6v20.2v2.4H228v-8V266.4z M219.5,257.8v19.9v9.8v10.2H251
		c1.8,0,3.4-0.6,4.8-1.5c2.1-1.5,3.5-3.9,3.5-6.7v-1.7V266c0-4.5-3.7-8.2-8.2-8.2H219.5z M289.5,266.4h22.6v15.7v6.8h-22.6v-1.8
		V266.4z M289.1,257.8c-4.5,0-8.2,3.7-8.2,8.2V288v1.4c0,2.9,1.6,5.5,3.9,7c1.3,0.8,2.7,1.2,4.3,1.2h23.5c4.5,0,8.2-3.7,8.2-8.2
		v-0.7v-9.6V266c0-4.5-3.7-8.2-8.2-8.2H289.1z M403.9,257.8v39.8h8.6V282H436v15.6h8.6v-39.8H436v15.6h-23.5v-15.6H403.9z
		 M350.5,257.8c-4.5,0-8.2,3.7-8.2,8.2v2.7v5.2c0,1.8,0.6,3.4,1.5,4.8c1.5,2.1,3.9,3.4,6.6,3.4h23v7h-22.6v-3.3h-8.6v3.7
		c0,4.5,3.7,8.2,8.2,8.2H374c4.5,0,8.2-3.7,8.2-8.2v-7.9c0-4.5-3.7-8.2-8.2-8.2h-21h-2.1v-7h12.5h10.1v3.3h8.7V266
		c0-4.3-3.5-8-7.8-8.2l-16,0L350.5,257.8z M123.4,277.7l14.2-16.9v-3h-9l-13.1,15.6h-7.8v-15.6h-8.6v39.8h8.6V282h7.8l13.1,15.6h9
		v-3L123.4,277.7z M126.9,277.7l13.4-16v-6.7h-12.9l-13.1,15.6h-3.8v-15.6h-14v45.2h14v-15.6h3.8l13.1,15.6h12.9v-6.7L126.9,277.7z"
		/>
	<g>
		<path d="M185.4,244.3v-28.4h6v28.4H185.4z"/>
		<path d="M200.7,244.3c-1.1,0-2-0.3-2.9-0.8c-0.9-0.5-1.6-1.2-2.1-2.1c-0.5-0.9-0.8-1.9-0.8-2.9v-16.8c0-1.1,0.3-2.1,0.8-2.9
			c0.5-0.9,1.2-1.6,2.1-2.1c0.9-0.5,1.9-0.8,2.9-0.8h16.7c1.1,0,2.1,0.3,2.9,0.8c0.9,0.5,1.6,1.2,2.1,2.1c0.5,0.9,0.8,1.9,0.8,2.9
			v2.7h-6.2V222h-16.1v16.1h16.1v-4.3h-6.2v-6.2h12.4v10.7c0,1.1-0.3,2-0.8,2.9c-0.5,0.9-1.3,1.6-2.1,2.1c-0.9,0.5-1.9,0.8-2.9,0.8
			H200.7z"/>
		<path d="M227.6,244.3v-28.5h6.1v22.3h22.3v6.2H227.6z"/>
		<path d="M258.5,244.3v-28.4h26.3v6.2h-20.1v5h16.2v6.2h-16.2v5h20.1v6.2H258.5z"/>
		<path d="M294.4,244.3c-1.1,0-2-0.3-2.9-0.8s-1.6-1.2-2.1-2.1c-0.5-0.9-0.8-1.9-0.8-2.9v-2.6h6.1v2.3h16.1v-5h-16.4
			c-1.1,0-2-0.3-2.9-0.8s-1.6-1.2-2.1-2.1c-0.5-0.9-0.8-1.9-0.8-2.9v-5.6c0-1.1,0.3-2.1,0.8-2.9c0.5-0.9,1.2-1.6,2.1-2.1
			s1.9-0.8,2.9-0.8h16.8c1.1,0,2,0.3,2.9,0.8s1.6,1.2,2.1,2.1c0.5,0.9,0.8,1.9,0.8,2.9v2.6h-6.2V222h-16.1v5h16.5
			c1.1,0,2,0.3,2.9,0.8s1.6,1.2,2.1,2.1c0.5,0.9,0.8,1.9,0.8,2.9v5.6c0,1.1-0.3,2-0.8,2.9s-1.3,1.6-2.1,2.1s-1.9,0.8-2.9,0.8H294.4z
			"/>
		<path d="M320.4,244.3v-28.4h6v28.4H320.4z"/>
		<path d="M329.9,221.7c0-1.1,0.3-2.1,0.8-2.9c0.5-0.9,1.2-1.6,2.1-2.1s1.9-0.8,2.9-0.8h16.7c1.1,0,2.1,0.3,2.9,0.8s1.6,1.2,2.1,2.1
			c0.5,0.9,0.8,1.9,0.8,2.9v22.6h-6.2v-9.2H336v9.2h-6.1V221.7z M352.2,229v-7H336v7H352.2z"/>
	</g>
	<path class="st1" d="M470.1,298.2c0-14.8,15.2-18.4,18.7-5.9c9.7-4.2,11.3-10.9,8.2-18.7c-2,1.8-4.2,2.5-6.8,2.4
		c5.6-13.9-1.7-18.6-10.5-21.9"/>
	<path class="st1" d="M470.9,298.2c0-14.8,15.2-18.4,18.7-5.9c9.7-4.2,11.3-10.9,8.2-18.7c-2,1.8-4.2,2.5-6.8,2.4
		c5.6-13.9-1.7-18.6-10.5-21.9"/>
	<path class="st1" d="M471.8,298.2c0-14.8,15.2-18.4,18.7-5.9c9.7-4.2,11.3-10.9,8.2-18.7c-2,1.8-4.2,2.5-6.8,2.4
		c5.6-13.9-1.7-18.6-10.5-21.9"/>
	<path class="st1" d="M472.6,298.2c0-14.8,15.2-18.4,18.7-5.9c9.7-4.2,11.3-10.9,8.2-18.7c-2,1.8-4.2,2.5-6.8,2.4
		c5.6-13.9-1.7-18.6-10.5-21.9"/>
	<path class="st1" d="M473.5,298.2c0-14.8,15.2-18.4,18.7-5.9c9.7-4.2,11.3-10.9,8.2-18.7c-2,1.8-4.2,2.5-6.8,2.4
		c5.6-13.9-1.7-18.6-10.5-21.9"/>
	<path class="st1" d="M474.3,298.2c0-14.8,15.2-18.4,18.7-5.9c9.7-4.2,11.3-10.9,8.2-18.7c-2,1.8-4.2,2.5-6.8,2.4
		c5.6-13.9-1.7-18.6-10.5-21.9"/>
	<path class="st1" d="M475.2,298.2c0-14.8,15.2-18.4,18.7-5.9c9.7-4.2,11.3-10.9,8.2-18.7c-2,1.8-4.2,2.5-6.8,2.4
		c5.6-13.9-1.7-18.6-10.5-21.9"/>
	<path class="st1" d="M476,298.2c0-14.8,15.2-18.4,18.7-5.9c9.7-4.2,11.3-10.9,8.2-18.7c-2,1.8-4.2,2.5-6.8,2.4
		c5.6-13.9-1.7-18.6-10.5-21.9"/>
	<path class="st1" d="M476.9,298.2c0-14.8,15.2-18.4,18.7-5.9c9.7-4.2,11.3-10.9,8.2-18.7c-2,1.8-4.2,2.5-6.8,2.4
		c5.6-13.9-1.7-18.6-10.5-21.9"/>
	<path class="st1" d="M477.7,298.2c0-14.8,15.2-18.4,18.7-5.9c9.7-4.2,11.3-10.9,8.2-18.7c-2,1.8-4.2,2.5-6.8,2.4
		c5.6-13.9-1.7-18.6-10.5-21.9"/>
	<path class="st2" d="M469.4,298.2c0-14.8,15.2-18.4,18.7-5.9c9.7-4.2,11.3-10.9,8.2-18.7c-2,1.8-4.2,2.5-6.8,2.4
		c5.6-13.9-1.7-18.6-10.5-21.9c3.2,9.2,1.6,15.1-7.1,16.7c-4.6-1.1-8-0.1-9.7,4.2c3.5,0,5.4,0.6,5,2.2
		C460.5,286.8,461.3,293.9,469.4,298.2z"/>
	<path class="st1" d="M469.4,298.2c0-14.8,15.2-18.4,18.7-5.9c9.7-4.2,11.3-10.9,8.2-18.7c-2,1.8-4.2,2.5-6.8,2.4
		c5.6-13.9-1.7-18.6-10.5-21.9c3.2,9.2,1.6,15.1-7.1,16.7c-4.6-1.1-8-0.1-9.7,4.2c3.5,0,5.4,0.6,5,2.2
		C460.5,286.8,461.3,293.9,469.4,298.2z"/>
	<path class="st1" d="M74.8,300.4C74.8,272,45.7,265.1,39,289c-18.5-8-21.7-20.8-15.7-35.9c3.8,3.5,8,4.9,13.1,4.6
		c-10.8-26.5,3.2-35.6,20.1-41.9"/>
	<path class="st1" d="M73.2,300.4C73.2,272,44,265.1,37.4,289c-18.5-8-21.7-20.8-15.7-35.9c3.8,3.5,8,4.9,13.1,4.6
		C24,231.2,38,222.1,54.9,215.8"/>
	<path class="st1" d="M71.5,300.4c0.1-28.3-29.1-35.2-35.7-11.3c-18.5-8-21.7-20.8-15.7-35.9c3.8,3.5,8,4.9,13.1,4.6
		c-10.8-26.5,3.2-35.6,20.1-41.9"/>
	<path class="st1" d="M69.9,300.4C70,272,40.8,265.1,34.2,289c-18.5-8-21.7-20.8-15.7-35.9c3.8,3.5,8,4.9,13,4.6
		c-10.8-26.5,3.2-35.6,20.1-41.9"/>
	<path class="st1" d="M68.3,300.4c0.1-28.3-29.1-35.2-35.7-11.3c-18.5-8-21.7-20.8-15.7-35.9c3.8,3.5,8,4.9,13,4.6
		c-10.8-26.5,3.2-35.6,20.1-41.9"/>
	<path class="st1" d="M66.7,300.4c0.1-28.3-29.1-35.2-35.7-11.3c-18.5-8-21.7-20.8-15.7-35.9c3.8,3.5,8,4.9,13.1,4.6
		c-10.8-26.5,3.2-35.6,20.1-41.9"/>
	<path class="st1" d="M65,300.4c0.1-28.3-29.1-35.2-35.7-11.3c-18.5-8-21.7-20.8-15.7-35.9c3.8,3.5,8,4.9,13.1,4.6
		c-10.8-26.5,3.2-35.6,20.1-41.9"/>
	<path class="st1" d="M63.4,300.4c0.1-28.3-29.1-35.2-35.7-11.3C9.2,281,6,268.2,12,253.1c3.8,3.5,8,4.9,13.1,4.6
		c-10.8-26.5,3.2-35.6,20.1-41.9"/>
	<path class="st1" d="M61.8,300.4C61.8,272,32.7,265.1,26,289c-18.5-8-21.7-20.8-15.7-35.9c3.8,3.5,8,4.9,13,4.6
		c-10.8-26.5,3.2-35.6,20.1-41.9"/>
	<path class="st1" d="M60.2,300.4c0.1-28.3-29.1-35.2-35.7-11.3c-18.5-8-21.7-20.8-15.7-35.9c3.8,3.5,8,4.9,13.1,4.6
		C11.1,231.2,25,222.1,42,215.8"/>
	<path class="st2" d="M76.1,300.4C76.1,272,47,265.1,40.3,289c-18.5-8-21.7-20.8-15.7-35.9c3.8,3.5,8,4.9,13.1,4.6
		c-10.8-26.5,3.2-35.6,20.1-41.9c-6.1,17.7-3,29,13.7,32c8.8-2.2,15.3-0.1,18.7,8.1c-6.7-0.1-10.4,1.1-9.5,4.2
		C93.1,278.6,91.6,292,76.1,300.4z"/>
	<path class="st1" d="M76.1,300.4C76.1,272,47,265.1,40.3,289c-18.5-8-21.7-20.8-15.7-35.9c3.8,3.5,8,4.9,13.1,4.6
		c-10.8-26.5,3.2-35.6,20.1-41.9c-6.1,17.7-3,29,13.7,32c8.8-2.2,15.3-0.1,18.7,8.1c-6.7-0.1-10.4,1.1-9.5,4.2
		C93.1,278.6,91.6,292,76.1,300.4z"/>
</g>
</svg>
