<?xml version="1.0" encoding="utf-8"?>
<!-- Generator: Adobe Illustrator 24.0.2, SVG Export Plug-In . SVG Version: 6.00 Build 0)  -->
<svg version="1.1" id="Capa_1" xmlns="http://www.w3.org/2000/svg" xmlns:xlink="http://www.w3.org/1999/xlink" x="0px" y="0px"
	 viewBox="0 0 512 512" style="enable-background:new 0 0 512 512;" xml:space="preserve">
<style type="text/css">
	.st0{opacity:1;fill-rule:evenodd;clip-rule:evenodd;fill:#000;}
	.st1{fill-rule:evenodd;clip-rule:evenodd;fill:#DBC060;}
	.st2{fill-rule:evenodd;clip-rule:evenodd;fill:#FFFFFF;}
	.st13{fill:none;stroke:#000;stroke-width:0.6;}
	

	.a01,.a02,.a03,.a04,.a05,.a06,.a07,.a08,.a09,.a10{fill:none;stroke:#DBC060;stroke-width:0.5;stroke-dasharray: 170px;opacity: 0;}
	.b11,.b12,.b13,.b14,.b15,.b16,.b17,.b18,.b19,.b20{fill:none;stroke:#DBC060;stroke-width:0.5;stroke-dasharray: 90px;opacity: 0;}

	.a01{	animation: mundoLine 5s infinite	}
	.a02{	animation: mundoLine2 5s infinite	}
	.a03{	animation: mundoLine3 5s infinite	}
	.a04{	animation: mundoLine4 5s infinite	}
	.a05{	animation: mundoLine5 5s infinite	}
	.a06{	animation: mundoLine6 5s infinite	}
	.a07{	animation: mundoLine7 5s infinite	}
	.a08{	animation: mundoLine8 5s infinite	}
	.a09{	animation: mundoLine9 5s infinite	}
	.a10{	animation: mundoLine10 5s infinite	}
	@keyframes mundoLine{
		0%{stroke-dashoffset:170px;opacity:1;}
		5%{stroke-dashoffset:0px;opacity:1;}
		55%{stroke-dashoffset:-170px;opacity:1;}
		100%{stroke-dashoffset:-170px;opacity:1;}
	}
	@keyframes mundoLine2{
		0%{stroke-dashoffset:-170px;opacity:1;}
		10%{stroke-dashoffset:0px;opacity:1;}
		55%{stroke-dashoffset:170px;opacity:1;}
		100%{stroke-dashoffset:170px;opacity:1;}
	}
	@keyframes mundoLine3{
		0%{stroke-dashoffset:170px;opacity:1;}
		15%{stroke-dashoffset:0px;opacity:1;}
		55%{stroke-dashoffset:-170px;opacity:1;}
		100%{stroke-dashoffset:-170px;opacity:1;}
	}
	@keyframes mundoLine4{
		0%{stroke-dashoffset:-170px;opacity:1;}
		20%{stroke-dashoffset:0px;opacity:1;}
		55%{stroke-dashoffset:170px;opacity:1;}
		100%{stroke-dashoffset:170px;opacity:1;}
	}
	@keyframes mundoLine5{
		0%{stroke-dashoffset:170px;opacity:1;}
		25%{stroke-dashoffset:0px;opacity:1;}
		55%{stroke-dashoffset:-170px;opacity:1;}
		100%{stroke-dashoffset:-170px;opacity:1;}
	}
	@keyframes mundoLine6{
		0%{stroke-dashoffset:-170px;opacity:1;}
		30%{stroke-dashoffset:0px;opacity:1;}
		55%{stroke-dashoffset:170px;opacity:1;}
		100%{stroke-dashoffset:170px;opacity:1;}
	}
	@keyframes mundoLine7{
		0%{stroke-dashoffset:170px;opacity:1;}
		35%{stroke-dashoffset:0px;opacity:1;}
		55%{stroke-dashoffset:-170px;opacity:1;}
		100%{stroke-dashoffset:-170px;opacity:1;}
	}
	@keyframes mundoLine8{
		0%{stroke-dashoffset:-170px;opacity:1;}
		40%{stroke-dashoffset:0px;opacity:1;}
		55%{stroke-dashoffset:170px;opacity:1;}
		100%{stroke-dashoffset:170px;opacity:1;}
	}
	@keyframes mundoLine9{
		0%{stroke-dashoffset:170px;opacity:1;}
		45%{stroke-dashoffset:0px;opacity:1;}
		55%{stroke-dashoffset:-170px;opacity:1;}
		100%{stroke-dashoffset:-170px;opacity:1;}
	}
	@keyframes mundoLine10{
		0%{stroke-dashoffset:-170px;opacity:1;}
		50%{stroke-dashoffset:0px;opacity:1;}
		55%{stroke-dashoffset:170px;opacity:1;}
		100%{stroke-dashoffset:170px;opacity:1;}
	}

	/* 
	.b11{	animation: mundoLine03 0.5s infinite}
	.b12{	animation: mundoLine4 0.5s infinite	0.5s}
	.b13{	animation: mundoLine03 0.5s infinite 1s	}
	.b14{	animation: mundoLine4 0.5s infinite	1.5s}
	.b15{	animation: mundoLine03 0.5s infinite 2s	}
	.b16{	animation: mundoLine4 0.5s infinite	2.5s}
	.b17{	animation: mundoLine03 0.5s infinite 3s	}
	.b18{	animation: mundoLine 0.5s infinite	3.5s}
	.b19{	animation: mundoLine03 0.5s infinite 4s	}
	.b20{	animation: mundoLine4 0.5s infinite	4.5s}
	*/
	/* @keyframes mundoLine03{0%{stroke-dashoffset:90px;opacity:1;}100%{stroke-dashoffset:0px;opacity:1;}}
	@keyframes mundoLine4{0%{stroke-dashoffset:-90px;opacity:1;}100%{stroke-dashoffset:0px;opacity:1;}} */

	.b11{	animation: mundoLine11 5s infinite}
	.b12{	animation: mundoLine12 5s infinite}
	.b13{	animation: mundoLine13 5s infinite}
	.b14{	animation: mundoLine14 5s infinite}
	.b15{	animation: mundoLine15 5s infinite}
	.b16{	animation: mundoLine16 5s infinite}
	.b17{	animation: mundoLine17 5s infinite}
	.b18{	animation: mundoLine18 5s infinite}
	.b19{	animation: mundoLine19 5s infinite}
	.b20{	animation: mundoLine20 5s infinite}

	@keyframes mundoLine11{
		0%{stroke-dashoffset:90px;opacity:1;}
		5%{stroke-dashoffset:0px;opacity:1;}
		55%{stroke-dashoffset:-90px;opacity:1;}
		100%{stroke-dashoffset:-90px;opacity:1;}
	}
	@keyframes mundoLine12{
		0%{stroke-dashoffset:-90px;opacity:1;}
		10%{stroke-dashoffset:0px;opacity:1;}
		55%{stroke-dashoffset:90px;opacity:1;}
		100%{stroke-dashoffset:90px;opacity:1;}
	}
	@keyframes mundoLine13{
		0%{stroke-dashoffset:90px;opacity:1;}
		15%{stroke-dashoffset:0px;opacity:1;}
		55%{stroke-dashoffset:-90px;opacity:1;}
		100%{stroke-dashoffset:-90px;opacity:1;}
	}
	@keyframes mundoLine14{
		0%{stroke-dashoffset:-90px;opacity:1;}
		20%{stroke-dashoffset:0px;opacity:1;}
		55%{stroke-dashoffset:90px;opacity:1;}
		100%{stroke-dashoffset:90px;opacity:1;}
	}
	@keyframes mundoLine15{
		0%{stroke-dashoffset:90px;opacity:1;}
		25%{stroke-dashoffset:0px;opacity:1;}
		55%{stroke-dashoffset:-90px;opacity:1;}
		100%{stroke-dashoffset:-90px;opacity:1;}
	}
	@keyframes mundoLine16{
		0%{stroke-dashoffset:-90px;opacity:1;}
		30%{stroke-dashoffset:0px;opacity:1;}
		55%{stroke-dashoffset:90px;opacity:1;}
		100%{stroke-dashoffset:90px;opacity:1;}
	}
	@keyframes mundoLine17{
		0%{stroke-dashoffset:90px;opacity:1;}
		35%{stroke-dashoffset:0px;opacity:1;}
		55%{stroke-dashoffset:-90px;opacity:1;}
		100%{stroke-dashoffset:-90px;opacity:1;}
	}
	@keyframes mundoLine18{
		0%{stroke-dashoffset:-90px;opacity:1;}
		40%{stroke-dashoffset:0px;opacity:1;}
		55%{stroke-dashoffset:90px;opacity:1;}
		100%{stroke-dashoffset:90px;opacity:1;}
	}
	@keyframes mundoLine19{
		0%{stroke-dashoffset:90px;opacity:1;}
		45%{stroke-dashoffset:0px;opacity:1;}
		55%{stroke-dashoffset:-90px;opacity:1;}
		100%{stroke-dashoffset:-90px;opacity:1;}
	}
	@keyframes mundoLine20{
		0%{stroke-dashoffset:-90px;opacity:1;}
		50%{stroke-dashoffset:0px;opacity:1;}
		55%{stroke-dashoffset:90px;opacity:1;}
		100%{stroke-dashoffset:90px;opacity:1;}
	}
</style>
<g>
	<path class="st0" d="M129.9,275.1l13.1-15.6V253h-12.6l-12.8,15.2h-3.7V253h-13.7v44.1l13.7,0v-15.2h3.7l12.8,15.2H143v-6.5
		L129.9,275.1z M126.5,275.1l13.9-16.5v-2.9h-8.8l-12.8,15.2h-7.6v-15.2h-8.4v38.9h8.4v-15.2h7.6l12.8,15.2h8.8v-2.9L126.5,275.1z
		 M348.2,255.7c-4.4,0-8,3.6-8,8v2.6v5.1c0,1.8,0.6,3.3,1.5,4.7c1.5,2.1,3.8,3.3,6.4,3.3l22.5,0v6.8h-22.1v-3.2h-8.4v3.6
		c0,4.4,3.6,8,8,8l23,0c4.4,0,8-3.6,8-8v-7.7c0-4.4-3.6-8-8-8l-20.5,0h-2.1v-6.8h12.2h9.9v3.2h8.5v-3.6c0-4.2-3.4-7.8-7.6-8H356
		H348.2z M400.4,255.7v38.9h8.4v-15.2h22.9v15.2h8.4v-38.9h-8.4v15.2h-22.9v-15.2H400.4z M288.3,255.7c-4.4,0-8,3.6-8,8v21.5v1.4
		c0,2.8,1.6,5.4,3.8,6.8c1.3,0.8,2.6,1.2,4.2,1.2h22.9c4.4,0,8-3.6,8-8v-0.7v-9.4v-12.8c0-4.4-3.6-8-8-8H288.3z M288.7,264.1h22.1
		v15.3v6.6h-22.1v-1.8V264.1z M220.3,255.7v19.4v9.6v10h30.8c1.8,0,3.3-0.6,4.7-1.5c2.1-1.5,3.4-3.8,3.4-6.5V285v-21.3
		c0-4.4-3.6-8-8-8H220.3z M228.6,264.1h22.1v19.7v2.3h-22.1v-7.8V264.1z M167.9,255.7c-4.4,0-8,3.6-8,8v31h8.4v-12.5h22.1v12.5h8.5
		v-19.8V264v-0.3c0-4.4-3.6-8-8-8H187h-15.7H167.9z M168.3,264.1H182h8.2v5.6v3.9h-22.1L168.3,264.1L168.3,264.1z M397.8,253.1v44.1
		h13.7V282h17.7v15.2h13.7v-44.1h-13.7v15.2h-17.7v-15.2H397.8z M348.2,253.1c-5.9,0-10.6,4.8-10.6,10.6v4.1v3.5
		c0,2,0.5,3.7,1.5,5.4c0.1,0.2,0.2,0.4,0.3,0.5c0.9,1.3,2,2.2,3.2,3l-5,0v6.3c0,5.9,4.8,10.6,10.6,10.6h22.9
		c5.8,0,10.6-4.8,10.6-10.6v-7.7c0-3.7-1.9-7-5-9h5v-6.1c0-4.8-3.2-8.9-7.6-10.2c-1-0.3-2-0.4-2.9-0.4h-11.9L348.2,253.1
		L348.2,253.1z M351.3,266.7h5.9h10.9v1.6h-13.3h-3.5V266.7z M351.3,282h16.8v1.6h-16.8V282z M288.3,253.1
		c-5.9,0-10.6,4.8-10.6,10.6v21.7v1.2c0,2.7,1,5.2,2.7,7c2,2.1,4.8,3.6,7.9,3.6l22.9,0c5.8,0,10.6-4.8,10.6-10.6v-1.7v-9.5v-11.7
		c0-5.9-4.8-10.6-10.6-10.6H288.3z M291.3,266.7h16.8v13.6v3.2h-14h-2.8V266.7z M217.7,253.1v21v9.7v13.6h33.4
		c3.2,0,6.2-1.5,8.2-3.8c1.6-1.9,2.5-4.2,2.5-6.8v-1.5v-21.5c0-5.9-4.9-10.6-10.6-10.6L217.7,253.1z M231.3,266.7h16.8v16.7v0.1
		h-16.8v-4.3V266.7z M157.2,263.7v33.5l13.7,0v-12.5h16.8v12.5h13.8v-21v-10.6v-1.9c0-5.9-4.9-10.6-10.6-10.6h-7.1h-15.3H168
		C162,253.1,157.2,257.9,157.2,263.7z M187.7,271h-16.8v-4.2h14.9h1.9v1.3V271z"/>
	<rect x="187" y="214.8" class="st1" width="5.9" height="27.7"/>
	<path class="st1" d="M202,242.5c-1.1,0-2-0.3-2.8-0.8c-0.9-0.5-1.6-1.2-2.1-2.1c-0.5-0.9-0.8-1.9-0.8-2.8v-16.4
		c0-1.1,0.3-2.1,0.8-2.8c0.5-0.9,1.2-1.6,2.1-2.1c0.9-0.5,1.9-0.8,2.8-0.8l16.3,0c1.1,0,2.1,0.3,2.8,0.8c0.9,0.5,1.6,1.2,2.1,2.1
		c0.5,0.9,0.8,1.9,0.8,2.8v2.6h-6.1v-2.3h-15.7v15.7l15.7,0v-4.2h-6.1v-6.1h12.1v10.4c0,1.1-0.3,2-0.8,2.8c-0.5,0.9-1.3,1.6-2.1,2.1
		c-0.9,0.5-1.9,0.8-2.8,0.8l-16.3,0V242.5z"/>
	<polygon class="st1" points="228.2,242.5 228.2,214.7 234.2,214.7 234.2,236.5 256,236.5 256,242.5 	"/>
	<polygon class="st1" points="258.4,242.5 258.4,214.8 284.1,214.8 284.1,220.8 264.5,220.8 264.5,225.7 280.3,225.7 280.3,231.8 
		264.5,231.8 264.5,236.7 284.1,236.7 284.1,242.7 258.4,242.7 	"/>
	<path class="st1" d="M293.5,242.5c-1.1,0-2-0.3-2.8-0.8c-0.9-0.5-1.6-1.2-2.1-2.1c-0.5-0.9-0.8-1.9-0.8-2.8v-2.5l6,0v2.2h15.7v-4.9
		h-16c-1.1,0-2-0.3-2.8-0.8c-0.9-0.5-1.6-1.2-2.1-2.1c-0.5-0.9-0.8-1.9-0.8-2.8v-5.5c0-1.1,0.3-2.1,0.8-2.8c0.5-0.9,1.2-1.6,2.1-2.1
		c0.9-0.5,1.9-0.8,2.8-0.8l16.4,0c1.1,0,2,0.3,2.8,0.8c0.9,0.5,1.6,1.2,2.1,2.1c0.5,0.9,0.8,1.9,0.8,2.8v2.5l-6.1,0v-2.3h-15.7v4.9
		l16.1,0c1.1,0,2,0.3,2.8,0.8c0.9,0.5,1.6,1.2,2.1,2.1c0.5,0.9,0.8,1.9,0.8,2.8v5.5c0,1.1-0.3,2-0.8,2.8c-0.5,0.9-1.3,1.6-2.1,2.1
		c-0.8,0.5-1.9,0.8-2.8,0.8L293.5,242.5L293.5,242.5z"/>
	<rect x="318.9" y="214.8" class="st1" width="5.9" height="27.7"/>
	<path class="st1" d="M349.9,227.6v-6.8h-15.8v6.8H349.9z M328.1,220.5c0-1.1,0.3-2.1,0.8-2.8c0.5-0.9,1.2-1.6,2.1-2.1
		c0.9-0.5,1.9-0.8,2.8-0.8h16.3c1.1,0,2.1,0.3,2.8,0.8c0.8,0.5,1.6,1.2,2.1,2.1c0.5,0.9,0.8,1.9,0.8,2.8v22.1h-6.1v-9h-15.6v9h-6
		V220.5z"/>
	<path class="st2" d="M464.4,295.2c0-14.5,14.8-18,18.3-5.8c9.5-4.1,11-10.6,8-18.3c-2,1.8-4.1,2.4-6.6,2.3
		c5.5-13.6-1.7-18.2-10.3-21.4c3.1,9,1.6,14.7-6.9,16.3c-4.5-1.1-7.8-0.1-9.5,4.1c3.4,0,5.3,0.6,4.9,2.1
		C455.7,284,456.4,291,464.4,295.2"/>
	<path class="b20" d="M472.5,295.2c0-14.5,14.8-18,18.3-5.8c9.5-4.1,11-10.6,8-18.3c-2,1.8-4.1,2.4-6.6,2.3
		c5.5-13.6-1.7-18.2-10.3-21.4"/>
	<path class="b19" d="M471.7,295.2c0-14.5,14.8-18,18.3-5.8c9.5-4.1,11-10.6,8-18.3c-2,1.8-4.1,2.4-6.6,2.3
		c5.5-13.6-1.7-18.2-10.3-21.4"/>
	<path class="b18" d="M470.8,295.2c0-14.5,14.8-18,18.3-5.8c9.5-4.1,11-10.6,8-18.3c-2,1.8-4.1,2.4-6.6,2.3
		c5.5-13.6-1.7-18.2-10.3-21.4"/>
	<path class="b17" d="M470,295.2c0-14.5,14.8-18,18.3-5.8c9.5-4.1,11-10.6,8-18.3c-2,1.8-4.1,2.4-6.6,2.3
		c5.5-13.6-1.7-18.2-10.3-21.4"/>
	<path class="b16" d="M469.1,295.2c0-14.5,14.8-18,18.3-5.8c9.5-4.1,11-10.6,8-18.3c-2,1.8-4.1,2.4-6.6,2.3
		c5.5-13.6-1.7-18.2-10.3-21.4"/>
	<path class="b15" d="M468.4,295.2c0-14.5,14.8-18,18.3-5.8c9.5-4.1,11-10.6,8-18.3c-2,1.8-4.1,2.4-6.6,2.3
		c5.5-13.6-1.7-18.2-10.3-21.4"/>
	<path class="b14" d="M467.5,295.2c0-14.5,14.8-18,18.3-5.8c9.5-4.1,11-10.6,8-18.3c-2,1.8-4.1,2.4-6.6,2.3
		c5.5-13.6-1.7-18.2-10.3-21.4"/>
	<path class="b13" d="M466.7,295.2c0-14.5,14.8-18,18.3-5.8c9.5-4.1,11-10.6,8-18.3c-2,1.8-4.1,2.4-6.6,2.3
		c5.5-13.6-1.7-18.2-10.3-21.4"/>
	<path class="b12" d="M465.8,295.2c0-14.5,14.8-18,18.3-5.8c9.5-4.1,11-10.6,8-18.3c-2,1.8-4.1,2.4-6.6,2.3
		c5.5-13.6-1.7-18.2-10.3-21.4"/>
	<path class="b11" d="M465,295.2c0-14.5,14.8-18,18.3-5.8c9.5-4.1,11-10.6,8-18.3c-2,1.8-4.1,2.4-6.6,2.3
		c5.5-13.6-1.7-18.2-10.3-21.4"/>
	<path class="st2" d="M464.4,295.2c0-14.5,14.8-18,18.3-5.8c9.5-4.1,11-10.6,8-18.3c-2,1.8-4.1,2.4-6.6,2.3
		c5.5-13.6-1.7-18.2-10.3-21.4c3.1,9,1.6,14.7-6.9,16.3c-4.5-1.1-7.8-0.1-9.5,4.1c3.4,0,5.3,0.6,4.9,2.1
		C455.7,284,456.4,291,464.4,295.2z"/>
	<path class="st13" d="M464.4,295.2c0-14.5,14.8-18,18.3-5.8c9.5-4.1,11-10.6,8-18.3c-2,1.8-4.1,2.4-6.6,2.3
		c5.5-13.6-1.7-18.2-10.3-21.4c3.1,9,1.6,14.7-6.9,16.3c-4.5-1.1-7.8-0.1-9.5,4.1c3.4,0,5.3,0.6,4.9,2.1
		C455.7,284,456.4,291,464.4,295.2z"/>
	<path class="st2" d="M80.5,297.3c0-27.7-28.5-34.5-35-11.1c-18.2-7.9-21.2-20.4-15.4-35c3.7,3.4,7.9,4.7,12.7,4.5
		c-10.5-26,3.2-34.8,19.7-41c-6,17.2-3,28.3,13.3,31.3c8.6-2.1,15-0.2,18.2,7.9c-6.6,0-10.1,1.1-9.4,4.1
		C97.2,276,95.7,289.3,80.5,297.3"/>
	<path class="a10" d="M65,297.3c0-27.7-28.5-34.5-35-11.1c-18.2-7.9-21.2-20.4-15.4-35c3.7,3.4,7.9,4.7,12.7,4.5
		c-10.5-26,3.2-34.8,19.7-41"/>
	<path class="a09" d="M66.5,297.3c0-27.7-28.5-34.5-35-11.1c-18.2-7.9-21.2-20.4-15.4-35c3.7,3.4,7.9,4.7,12.7,4.5
		c-10.5-26,3.2-34.8,19.7-41"/>
	<path class="a08" d="M68.2,297.3c0-27.7-28.5-34.5-35-11.1c-18.2-7.9-21.2-20.4-15.4-35c3.7,3.4,7.9,4.7,12.7,4.5
		c-10.5-26,3.2-34.8,19.7-41"/>
	<path class="a07" d="M69.7,297.3c0-27.7-28.5-34.5-35-11.1c-18.2-7.9-21.2-20.4-15.4-35c3.7,3.4,7.9,4.7,12.7,4.5
		c-10.5-26,3.2-34.8,19.7-41"/>
	<path class="a06" d="M71.3,297.3c0-27.7-28.5-34.5-35-11.1c-18.2-7.9-21.2-20.4-15.4-35c3.7,3.4,7.9,4.7,12.7,4.5
		c-10.5-26,3.2-34.8,19.7-41"/>
	<path class="a05" d="M72.8,297.3c0-27.7-28.5-34.5-35-11.1c-18.2-7.9-21.2-20.4-15.4-35c3.7,3.4,7.9,4.7,12.7,4.5
		c-10.5-26,3.2-34.8,19.7-41"/>
	<path class="a04" d="M74.5,297.3c0-27.7-28.5-34.5-35-11.1c-18.2-7.9-21.2-20.4-15.4-35c3.7,3.4,7.9,4.7,12.7,4.5
		c-10.5-26,3.2-34.8,19.7-41"/>
	<path class="a03" d="M76,297.3c0-27.7-28.5-34.5-35-11.1c-18.2-7.9-21.2-20.4-15.4-35c3.7,3.4,7.9,4.7,12.7,4.5
		c-10.5-26,3.2-34.8,19.7-41"/>
	<path class="a02" d="M77.7,297.3c0-27.7-28.5-34.5-35-11.1c-18.2-7.9-21.2-20.4-15.4-35c3.7,3.4,7.9,4.7,12.7,4.5
		c-10.5-26,3.2-34.8,19.7-41"/>
	<path class="a01" d="M79.2,297.3c0-27.7-28.5-34.5-35-11.1c-18.2-7.9-21.2-20.4-15.4-35c3.7,3.4,7.9,4.7,12.7,4.5
		c-10.5-26,3.2-34.8,19.7-41"/>
	<path class="st2" d="M80.5,297.3c0-27.7-28.5-34.5-35-11.1c-18.2-7.9-21.2-20.4-15.4-35c3.7,3.4,7.9,4.7,12.7,4.5
		c-10.5-26,3.2-34.8,19.7-41c-6,17.2-3,28.3,13.3,31.3c8.6-2.1,15-0.2,18.2,7.9c-6.6,0-10.1,1.1-9.4,4.1
		C97.2,276,95.7,289.3,80.5,297.3z"/>
	<path class="st13" d="M80.5,297.3c0-27.7-28.5-34.5-35-11.1c-18.2-7.9-21.2-20.4-15.4-35c3.7,3.4,7.9,4.7,12.7,4.5
		c-10.5-26,3.2-34.8,19.7-41c-6,17.2-3,28.3,13.3,31.3c8.6-2.1,15-0.2,18.2,7.9c-6.6,0-10.1,1.1-9.4,4.1
		C97.2,276,95.7,289.3,80.5,297.3z"/>
</g>
</svg>
