<?xml version="1.0" encoding="utf-8"?>
<!-- Generator: Adobe Illustrator 24.0.2, SVG Export Plug-In . SVG Version: 6.00 Build 0)  -->
<svg version="1.1" id="Capa_1" xmlns="http://www.w3.org/2000/svg" xmlns:xlink="http://www.w3.org/1999/xlink" x="0px" y="0px"
	 viewBox="0 0 512 512" style="enable-background:new 0 0 512 512;" xml:space="preserve">
<style type="text/css">
	.st0{fill-rule:evenodd;clip-rule:evenodd;fill:#0071B9;}
	.st1{fill-rule:evenodd;clip-rule:evenodd;fill:#FFFFFF;}
	.st2{fill:#FFFFFF;}
</style>
<path class="st0" d="M512,512V25C406,226.5,246.5,393.4,12,512H512z"/>
<path class="st1" d="M364.6,299.4c-4.7,0.6-9.1,3.1-12,7c-3.1,4.1-3.3,9.9-3.3,16c0,12.7,0,25.4,0,38.1c0,17.1-4.4,39.3,13.1,43.8
	c3.6,0.9,66.8,0.9,75.5,0.5c6.2-0.3,9.8-3,12.9-6.4c6-6.7,3.9-23.7,3.9-34.1c0-5.1,1.4-13.7-2.1-16.6c-1.9-1.6-4.7-1.9-6.8-0.6
	c-2.5,1.5-2.8,3.9-2.9,7.1c0,6.3,1.4,33.6-1.3,36.9c-3.1,3.7-29.5,1.9-36.2,1.9c-44.3,0-44.4,4.3-44.4-12.5V323
	c0-7.1-1-11.6,6.9-11.9c5.8-0.2,34.1,1.1,37.2-0.9c4.8-3,3.2-10.3-2.8-10.8C395.4,298.7,371.1,298.7,364.6,299.4"/>
<path class="st1" d="M434.4,311c-1.8,3.2-7.6,8.1-10.5,11c-3.7,3.7-6.9,6.9-10.6,10.6c-3.7,3.7-7,6.9-10.6,10.6
	c-2,2-10.2,7.6-4.7,12.9c5.3,5.2,10.6-2.6,12.8-4.8c3.7-3.7,6.9-6.9,10.6-10.6c4-3.9,18.3-19.2,21.7-21.1c0,4.4-0.8,10.7,1.8,13.3
	c3.5,3.3,9,1.2,9.8-3.3c0.6-3.1,0.1-11.2,0.1-14.8c0-16.2,1-15.5-14.9-15.5c-3.8,0-12.2-0.4-15.4,0.1c-4.1,0.7-6.6,5.7-3.6,9.4
	C423.2,311.9,429.7,311.1,434.4,311"/>
<path class="st2" d="M484.6,448.9v-4.7h4.7v4.7H484.6z M474.9,448.9v-4.7h4.7v4.7H474.9z M464.6,449.2c-0.7,0-1.5,0-2.3-0.1
	c-0.8-0.1-1.6-0.2-2.3-0.4c-0.7-0.2-1.4-0.4-1.9-0.6l0.5-3.2c1,0.4,1.9,0.6,2.9,0.8c0.9,0.2,1.8,0.3,2.7,0.3c1,0,1.8-0.1,2.3-0.4
	c0.5-0.3,0.7-0.7,0.7-1.2c0-0.3-0.1-0.6-0.2-0.8s-0.5-0.4-0.9-0.6c-0.4-0.2-1-0.3-1.8-0.5c-1.3-0.3-2.4-0.7-3.4-1.2
	c-0.9-0.4-1.6-1-2.1-1.7c-0.5-0.7-0.7-1.5-0.7-2.4c0-1.5,0.6-2.7,1.7-3.5c1.2-0.8,2.8-1.2,5-1.2c1,0,2.1,0.1,3.1,0.2
	c1.1,0.2,2.1,0.4,3,0.7l-0.5,3.2c-0.9-0.3-1.8-0.5-2.6-0.7c-0.8-0.1-1.7-0.2-2.5-0.2c-1,0-1.8,0.1-2.3,0.4c-0.5,0.2-0.7,0.6-0.7,1.1
	c0,0.3,0.1,0.5,0.2,0.7c0.2,0.2,0.5,0.4,0.9,0.6c0.4,0.2,1,0.3,1.7,0.5c1,0.2,1.8,0.5,2.6,0.8c0.8,0.3,1.4,0.7,2,1.1
	c0.6,0.4,1,0.9,1.3,1.5c0.3,0.6,0.4,1.2,0.4,1.9c0,1-0.3,1.8-0.8,2.6c-0.6,0.7-1.3,1.3-2.4,1.7C467.3,449,466,449.2,464.6,449.2z
	 M447.1,446c0.7,0,1.4-0.1,1.9-0.4c0.6-0.2,1-0.6,1.4-1c0.3-0.4,0.5-0.9,0.5-1.5v-1.8h-1.5c-1.7,0-2.9,0.2-3.7,0.6
	c-0.8,0.4-1.2,1.1-1.2,2c0,0.7,0.2,1.2,0.7,1.5C445.6,445.8,446.3,446,447.1,446z M445.6,449.2c-1.6,0-2.8-0.4-3.8-1.3
	c-0.9-0.9-1.4-2.1-1.4-3.5c0-1.9,0.7-3.3,2.2-4.3c1.5-1,3.5-1.5,6.2-1.5h2.1c0-0.7-0.1-1.3-0.3-1.7c-0.2-0.4-0.5-0.7-0.9-0.8
	c-0.4-0.2-1-0.2-1.8-0.2c-1,0-2.1,0.1-3.2,0.3c-1.1,0.2-2.2,0.5-3.2,0.9l-0.5-3.3c1.1-0.4,2.3-0.7,3.6-0.9c1.3-0.2,2.6-0.3,3.9-0.3
	c1.6,0,2.9,0.2,3.9,0.6c0.9,0.4,1.6,1,2.1,2c0.4,0.9,0.6,2.1,0.6,3.7v10.1h-4l-0.1-1.9h0c-0.6,0.7-1.4,1.2-2.4,1.6
	C447.7,449,446.6,449.2,445.6,449.2z M414.9,448.9v-16.1h3.9l0.1,1.9h0.1c0.6-0.7,1.3-1.3,2.1-1.6c0.8-0.4,1.7-0.6,2.7-0.6
	c1,0,1.9,0.2,2.6,0.6c0.7,0.4,1.2,0.9,1.5,1.6h0.1c0.6-0.8,1.4-1.3,2.2-1.7c0.8-0.3,1.7-0.5,2.8-0.5c1.7,0,2.9,0.5,3.7,1.4
	c0.8,0.9,1.2,2.3,1.2,4.3v10.7h-4.1v-9.7c0-1.1-0.2-1.9-0.5-2.4c-0.3-0.5-0.9-0.8-1.7-0.8c-0.9,0-1.7,0.3-2.2,0.9
	c-0.5,0.6-0.8,1.5-0.8,2.5v9.4h-4.2V439c0-1-0.2-1.7-0.6-2.2c-0.4-0.5-0.9-0.8-1.7-0.8c-0.6,0-1.1,0.2-1.5,0.4
	c-0.5,0.3-0.8,0.7-1.1,1.2c-0.3,0.5-0.4,1.1-0.4,1.8v9.4H414.9z M392.6,448.9v-16.1h4.1l0,3h0.1c0.5-0.7,1.2-1.3,1.9-1.8
	c0.7-0.5,1.5-0.9,2.4-1.1c0.9-0.3,1.8-0.4,2.7-0.4v3.6c-1.3,0-2.4,0.2-3.5,0.7c-1,0.5-1.9,1.1-2.5,1.9c-0.6,0.8-0.9,1.7-0.9,2.7v7.4
	H392.6z M382.9,449.2c-2.9,0-5.1-0.7-6.7-2.2c-1.6-1.4-2.3-3.5-2.3-6.2c0-2.6,0.7-4.6,2.1-6.1c1.4-1.5,3.4-2.2,5.9-2.2
	c2.4,0,4.3,0.7,5.6,2.1c1.3,1.4,2,3.4,2,6c0,0.3,0,0.6,0,1c0,0.4,0,0.6,0,0.8h-13.1v-2.9h9.8l-0.6,0.9c0-1.6-0.3-2.8-0.9-3.6
	c-0.6-0.8-1.5-1.2-2.7-1.2c-1.3,0-2.2,0.4-2.9,1.2c-0.6,0.8-1,2-1,3.6v1.2c0,1.4,0.4,2.5,1.1,3.2c0.8,0.7,1.9,1,3.5,1
	c0.9,0,1.8-0.1,2.8-0.2c1-0.2,1.9-0.4,2.6-0.7l0.5,3.2c-0.8,0.3-1.7,0.6-2.7,0.7C384.9,449.1,383.9,449.2,382.9,449.2z M365,449.2
	c-2.9,0-5.1-0.7-6.7-2.2c-1.6-1.4-2.3-3.5-2.3-6.2c0-2.6,0.7-4.6,2.1-6.1c1.4-1.5,3.4-2.2,5.9-2.2c2.4,0,4.3,0.7,5.6,2.1
	c1.3,1.4,2,3.4,2,6c0,0.3,0,0.6,0,1c0,0.4,0,0.6,0,0.8h-13.1v-2.9h9.8l-0.6,0.9c0-1.6-0.3-2.8-0.9-3.6c-0.6-0.8-1.5-1.2-2.7-1.2
	c-1.3,0-2.2,0.4-2.9,1.2c-0.6,0.8-1,2-1,3.6v1.2c0,1.4,0.4,2.5,1.1,3.2c0.8,0.7,1.9,1,3.5,1c0.9,0,1.8-0.1,2.8-0.2
	c1-0.2,1.9-0.4,2.6-0.7l0.5,3.2c-0.8,0.3-1.7,0.6-2.7,0.7C367.1,449.1,366.1,449.2,365,449.2z M338.9,448.9v-22.5h4.4v18.7H355v3.8
	H338.9z"/>
</svg>
