<?xml version="1.0" encoding="utf-8"?>
<!-- Generator: Adobe Illustrator 24.0.2, SVG Export Plug-In . SVG Version: 6.00 Build 0)  -->
<svg version="1.1" id="Capa_1" xmlns="http://www.w3.org/2000/svg" xmlns:xlink="http://www.w3.org/1999/xlink" x="0px" y="0px"
	 viewBox="0 0 512 512" style="enable-background:new 0 0 512 512;" xml:space="preserve">
<style type="text/css">
	.st0{fill-rule:evenodd;clip-rule:evenodd;fill:#877E6A;}
	.st1{fill:none;stroke:#63635B;stroke-width:3.2394;stroke-miterlimit:22.9256;}
	.st2{fill-rule:evenodd;clip-rule:evenodd;fill:#DBC060;}
	.st3{fill-rule:evenodd;clip-rule:evenodd;fill:#FFFFFF;}
	.st4{fill-rule:evenodd;clip-rule:evenodd;fill:#231F20;}
</style>
<path class="st0" d="M154.7,281.1c-0.4-1.1-1.1-2.6-1.9-4.9c0,0.4,0.4,0.8,0.4,1.1c0.8,1.5,1.1,3.4,1.5,5.3
	C154.7,281.8,154.7,281.5,154.7,281.1 M159.3,269.8c0.4-3,0.8-7.5,1.1-10.9c0.4-4.5-1.5-4.5-1.5-4.5s-0.4,0-1.1,0
	c0.4,1.5,0.8,3.4,1.1,5.7C158.9,262.2,159.3,266,159.3,269.8z M152.5,264.1c0,0.4,0,1.1,0.4,1.5c0-0.4,0-0.4,0-0.8
	C152.5,264.5,152.5,264.5,152.5,264.1z M143.8,248.3c1.5,2.6,4.9,8.7,7.2,14C149.8,258.5,147.6,253.5,143.8,248.3z M146.8,262.2
	c0,0,0,0.4,0.4,0.4c-0.8-1.1-1.1-2.6-1.9-3.8C145.7,260.3,146.4,261.5,146.8,262.2z M137.4,246.8L137.4,246.8c0,0,0-0.4,0-0.8
	C137,246.4,137.4,246.4,137.4,246.8z M135.9,249h-0.4H135.9z M135.1,254.7C135.1,254.7,135.5,254.7,135.1,254.7
	c0.8,0.8,1.5,0.8,2.3,0.8c0.4,0,0.8-0.4,1.1-0.4c0.8-1.1,1.9-4.1-3-5.7c-0.4,0-0.8,0-1.1,0c-0.4,0.4-0.8,0.4-0.8,0.8
	c0,0.4-0.4,1.1-0.4,1.9C133.6,252.8,134.4,253.9,135.1,254.7z M131.4,229.8c1.1,1.5,3.8,5.7,6.4,9.4
	C135.9,235.8,134,233.2,131.4,229.8z M119.7,216.6c4.1,4.5,9.1,9.8,10.6,11.7c-0.8-1.1-1.9-2.3-3-3.4c-1.5-1.9-3.4-3.4-4.9-5.3
	C121.5,218.5,120.4,217.7,119.7,216.6z M109.5,204.5c0.8,1.5,1.9,2.6,2.6,3.4c0.8,0.8,2.3,2.3,4.1,4.5c-1.5-1.5-3.4-3.8-5.3-6
	C110.6,206,109.9,205.3,109.5,204.5z M102.7,186L102.7,186c0.4,0,0.4,0,0.8,0.4h0.4C103.4,186,103.1,186,102.7,186z M98.9,185.7
	L98.9,185.7z M105.7,190.6c0,0.8,0,1.1,0,1.9c0-0.4,0.4-0.8,0.4-1.5c0-0.4,0-0.8,0-1.1C105.7,189.8,105.7,190.2,105.7,190.6z
	 M98.2,184.2C98.2,184.5,98.2,184.5,98.2,184.2c0,0-0.4-1.1-0.8-1.1c0,0-0.8-0.8-1.5-1.1c0.8,0.4,1.1,1.1,1.5,1.5
	c0.4,0.8,0.8,1.9,0.8,2.3C98.2,185.7,98.2,184.9,98.2,184.2z M158.9,241.9c0.4-0.4,0.8-0.8,0.8-0.8c0-0.4,0-0.4,0-0.8l-0.4-0.4
	c-0.8-0.4-1.9-0.8-2.6-1.1c0,1.9-0.4,3.8-0.4,5.3c0,0.8,0,1.5,0,1.9c0.4-1.1,1.1-2.3,1.9-3C158.5,242.6,158.9,242.2,158.9,241.9z
	 M114,229.8l0.4,0.4c0,0,0,0.4,0.4,0.4c0,0.4,0,1.1-0.4,1.5c-0.8,1.5-3,3-3,3s-0.4,2.6,0,3.8c0.4,1.1,1.5,5.3,7.2,7.2
	c0,0,0.8-3.4,1.1-5.7c0-0.8,0-1.5,0-1.9c-0.4-0.8-0.8-0.8-0.8-0.8s0,0,0.4,0l-0.4-0.4c0,0,1.9,0,3.8,1.5h0.4c0,0,0,0,0.4,0
	c1.9,0,5.7,0,6.8,0.4c0.4,0,0.8,0,1.1,0.4c0.4,0,0.4,0,0.8,0c0.8,0,1.1,0.4,1.5,0.8c0.4,0.4,0.8,0.8,1.1,1.1c-0.8-1.1-1.9-3-3.4-5.3
	c2.6,3.4,4.1,6,4.9,7.2c0,0,0,0.4,0.4,0.4c0.4,0.4,0.8,0.8,0.8,1.1c0.4,0.8,1.5,2.6,3,4.9c-3.4-6-6.8-11.7-9.8-14.7
	c0.4,0.4,0.4,0.8,0.8,0.8c-0.4-0.8-1.1-1.1-1.5-1.9c-3-3.4-5.7-6-8.7-8.3c0,0-0.4,0-0.4-0.4c-0.8-0.4-1.5-1.1-2.3-1.5
	c0,0.8,0,1.1,0,1.5c0,0.4-0.4,1.1-0.8,1.1c-0.4,0.8-1.9,1.1-1.9,1.1s0,0-0.4,0.4c0,0.4-0.4,0.4-0.8,0.4L114,229.8
	C114.4,229.8,114,229.8,114,229.8z M86.5,196.2c0,0,0-0.4,0.4-0.4c0-0.4,0.4-0.4,0.4-0.8c0-0.4,0.4-0.4,0.4-0.8
	c0.4-0.4,0.8-0.8,0.8-1.1c0-0.4,0-0.4,0.4-0.8c0,0,0,0,0,0.4c0,0,0-0.4-0.4-0.4c-0.4-0.4-0.4-1.1-1.1-1.9c-0.4-0.4-0.4-1.1-0.8-1.5
	c-0.8-2.3-1.5-4.9-1.5-7.2c-0.4-2.6-0.8-5.3-0.8-7.2c0-0.8,0-1.5-0.4-2.6c0-1.5,0-2.6,0-2.6c0.4,0.8,3,5.3,4.1,6.4
	c1.1,1.1,3,3,4.1,4.1c0,0,0,0,0-0.4c0,0,0,0,0.4-0.4c0-0.4,0.4-0.4,0.8-0.4c0.4,0,0.8,0,0.8,0c-0.4-0.8-3-7.2-2.6-12.8
	c0-1.1,0.4-1.9,0.4-2.6c0.8-3,1.9-3.8,3.8-4.1c0.8-0.4,1.9-0.4,2.3,0c-3.4-3.4-3-10.6-1.1-12.8c1.9-2.3,4.1-3,6-1.9
	c0,0,0-5.7,3.4-9.1c3.8-3.4,6-7.5,17-8.3c10.6-1.1,14,3.4,16.6,8.7c0.4,0.4,0.4,1.1,0.8,1.5v0.4c1.1,3.8,0.4,6.8-0.4,7.9
	c-0.4,1.1-0.8,1.9-1.9,2.6c-0.4,0.4-0.8,0.8-1.1,1.1c0,0,0,0-0.4,0.4c-0.8,0.8-1.9,1.1-3,1.1c-0.8,0-1.1,0.4-1.9,0.4
	c0,0-1.9,0-4.1-1.1c0,0-0.4,0-0.4-0.4c-2.3-1.1-4.1-4.5-4.5-5.7c0,0,0-0.4-0.4-0.8c0,0-0.8-2.6-3.4-2.3c-2.6,0.8-3.8,1.1-4.5,3.4
	c-0.8,1.9-1.9,6-1.9,6l-0.4,0.8c0,0,1.9-1.5,3-1.1c0,0.4,0,0.4,0.4,0.8c0,0.4,0.4,0.8,0.4,1.1c0.4,1.9,0,2.6-0.4,3.4
	c-0.4,0.8-1.9,0.8-3.4,3.4c0,0,0,0.4-0.4,0.4c0,0.4,0,0.4,0,0.8c0.4,1.5,0.8,1.9,0.8,1.9s0.8-2.6,2.3-3.8c1.5-1.1,2.6-1.1,2.6-1.1
	s1.1,0.4,2.6,3c1.5,3,1.9,3.8,2.3,7.2c0,0,1.1,0.8,0.8,2.6c-0.4,1.5-1.1,2.6-1.9,4.1c0,0,0,0.4-0.4,0.4c-1.1,1.5-3,3.4-3.8,4.5
	c0,0,0,0,0,0.4c0,0,0,0,0,0.4c0,0-0.8,2.6-0.4,7.2c0.4,1.5,0.8,3,1.1,4.5c1.1,3,2.3,6,3.4,8.7c0.8,0.4,4.5,2.6,7.5,5.7
	c3.4,3.8,9.1,12.1,11.3,16.6c4.5,7.9,7.9,18.1,9.8,25.6c-0.4-4.1-0.8-8.3-0.8-10.2c0-4.9,0.8-10.9,3.8-21.5
	c3-10.6,9.4-20.4,13.2-24.9c3.8-4.5,7.5-11.3,7.5-11.3s0,0,0,0.4c0.4,2.3,0.4,4.1,0.8,5.7c0,1.1,0,2.3,0,3.4
	c-0.4,2.6-0.8,3.8-0.8,3.8s0.4,0.4,0.4,1.9c0,1.5-1.5,3-1.5,3c0.4,0.8,0.8,3.8,0.8,4.9c-0.4,1.1-2.3,3-3,3.8c0,0-0.4,0-0.4,0.4
	c0,0,0.4,0,0.8-0.4c1.5-0.8,2.3-0.8,3,0.4c0.4,0,0.4,0.4,0.4,0.4c1.5,2.6-0.8,7.2-0.8,7.2c0,0.4,0,0.8,0,1.1
	c0.4,3.4-0.8,5.7-1.5,6.8l-0.4,0.4c-0.4,0.8-0.8,1.1-0.8,1.1c-1.5,2.6-3.8,3-5.3,3.4c-1.1,0.4-3-1.1-3.4-1.9
	c-0.4-0.8,1.1-2.3,1.1-2.3s-1.1,0.4-3.8,2.6c-1.1,1.1-1.9,3.4-2.3,6c1.9,1.1,3.8,2.3,5.7,3.4c3.4,1.9,10.6,6,14,11.7l0.4,0.4
	c0.4,0.8,4.5,9.1,1.5,15.5c-1.9,4.5-4.5,7.9-7.2,9.4c-0.4,0-0.4,0.4-0.8,0.4h-0.4c-0.8,0.4-1.5,0.4-2.3,0.8c-1.9,0-3.4-0.4-4.1-1.5
	c-0.4-0.4-0.4-0.8-0.4-0.8c-0.4-0.8-0.8-1.5-0.8-2.6c-0.8,0.8-1.1,1.9-1.5,2.6c-0.4,1.5-0.8,3.4-1.1,5.7c-0.4,3.8,0,10.9,0,10.9
	s0-0.8-0.4-1.9c0,0.8,0,1.1,0,1.9c0-1.1,0-1.9-0.4-3c0,0,0,0,0-0.4c0.4,7.9,0.4,14.7,0.4,16.2c0,1.9-0.4,5.7-0.8,10.6
	c0.8-1.9,1.9-3.8,3.4-4.9c7.9-7.9,22.3-13.6,22.3-13.6c1.1,3.4-0.4,4.9-2.3,6.8c-1.9,1.9-4.5,7.9-6,10.9c-1.5,3-4.5,4.9-9.4,7.9
	c-4.5,3-6.8,5.7-8.7,8.7c-0.8,1.5-4.1,7.2-7.5,12.8c-1.1,1.9-2.3,3.8-3.4,5.7c-1.5,2.6-2.6,4.9-2.6,4.9c0.4-0.8,0.8-1.5,1.5-2.6
	c-0.8,1.1-1.5,2.3-2.3,3.4c-3.8,5.3-5.3,6.4-6,6.8c0,0.4-0.4,0.4-0.4,0.4s0,0,0-0.4c0,0,0.4-0.8,1.1-2.3c0,0,0-0.4,0.4-0.4
	c1.9-3.4,4.5-8.7,7.2-13.6c1.1-2.6,2.3-5.7,3.4-9.4c3-9.4,5.3-20.7,4.1-33.6c-0.4-4.1-1.1-7.5-1.5-9.8c0-0.4,0-0.4-0.4-0.8
	c-0.8-2.3-2.6-5.7-6.4-6.8c0,0-0.8-0.4-1.1-0.4c-0.8-0.4-1.1-0.4-1.5-0.4c-0.8,0-2.3-0.4-2.3-0.4s0.4-0.4,0.4-0.8c0,0,0-0.4-0.4-0.4
	c-0.4-0.4-1.1,0-1.5-0.4c0,0,0-0.4-0.4-0.4c-0.4-0.4-0.4-0.4,0-1.1c0-0.4,0.4-0.4,0.4-0.8c0.8-0.4,1.9-1.1,1.9-1.1s-0.8,0-1.5-0.4
	c-0.8,0-1.9,0-3,0.4c-0.8,0.4-1.9,0.8-2.6,1.5c-0.4,0.4-1.1,0.8-1.5,1.5c-0.8,0.8-1.1,1.9-1.9,2.3c-0.4,0.4-0.4,0.8-0.8,1.5
	c-0.4,0.8-0.8,2.6-1.1,3c0,0-0.4,0.4-0.8,0.4c-0.4,0-0.8,0.4-1.1,0.4c-1.1,0.4-3,0.8-4.1,0.8c-2.3,0.4-5.3,0.8-7.2,0.8
	c-0.4,0-1.1,0-1.9-0.4c-3.4-0.8-7.2-3-10.2-6.8c0,0-2.3-1.9-2.6-3.8c0-0.4,0-0.8-0.4-1.1c-0.4-0.8-0.4-1.5-0.8-1.9
	c-0.4-0.4-1.1-1.5-1.5-3c-0.4-0.8-0.4-1.5,0-2.3c0.4-0.8,0.8-1.1,0.8-1.5c0.8-1.1,1.9-1.9,1.9-1.9s-0.4,0-0.8-0.4
	c-0.4,0-0.4,0-0.8-0.4c-3-1.5-5.7-3.8-5.7-8.3c0-4.5,3.4-5.3,5.3-5.3c0,0-1.1-2.6,0.4-4.1c0.4-0.4,0.4-0.4,0.8-0.8
	c1.1-1.1,2.3-1.1,2.3-1.1s0-1.5,0-3c0-1.9,0.8-4.5,2.6-6c2.6-1.9,3.8-2.6,4.5-3c0.4-0.4,0.4-0.8,0.4-0.8s-0.4,0-1.1,0
	c-0.8,0-1.9,0-3.4-0.8c-3-1.1-3.8-1.5-4.5-2.6c-0.8-0.4-3-3-3-3s-1.1-0.8-1.9-1.5c-0.4-0.4-0.8-0.8-0.8-1.1v-0.4
	c-0.4-0.4-0.4-0.8-0.4-1.1c-0.4,0-0.8-0.4-0.8-0.4c-0.4,0-0.4,0-0.8-0.4c-0.8-0.4-1.1-0.4-1.5-0.8c-0.4-0.4-0.8-1.1-1.1-1.9
	c-0.8-1.1-1.9-2.6-2.3-3.4c-0.4-0.4-0.4-0.8-0.8-1.1c-0.4-0.4-0.8-1.1-0.8-1.5c0-0.4,0-0.4-0.4-1.1c0-0.4,0-0.4,0-0.4
	c0-0.4-0.4-2.6-0.8-4.9c0-1.5-0.4-2.6-0.4-3c0-0.8,0-1.5,0-1.9c0-0.4,0-0.8,0-1.1C86.1,197,86.1,196.6,86.5,196.2"/>
<path class="st0" d="M146.1,313.1c-1.1-0.4-2.6-1.1-4.9-1.9c0.4,0,0.8,0.4,0.8,0.4c1.5,0.8,3.4,1.5,4.9,2.3
	C146.4,313.5,146.1,313.5,146.1,313.1 M140.4,301.8c-1.9-2.3-4.9-5.7-7.5-8.3c-3.4-3-4.5-1.9-4.5-1.9s-0.4,0.4-0.8,1.1
	c1.1,0.8,3,1.9,4.9,3C134.7,297.3,137.4,299.6,140.4,301.8z M131.7,303.3c0.4,0.4,0.8,0.4,1.1,0.8c-0.4,0-0.4-0.4-0.4-0.4
	C132.1,303.7,131.7,303.3,131.7,303.3z M114.4,299.2c3,0.8,9.8,1.9,15.1,3.8C125.7,301.4,120.4,299.9,114.4,299.2z M126.8,306.3h0.4
	c-1.5-0.4-2.6-0.8-3.8-1.1C124.6,305.6,125.7,306,126.8,306.3z M108.7,303L108.7,303c0,0-0.4-0.4-0.8-0.4
	C108.3,302.6,108.3,303,108.7,303z M109.5,305.2c0,0,0,0.4-0.4,0.4C109.5,306,109.5,305.6,109.5,305.2z M113.3,309.7L113.3,309.7
	c1.1-0.4,1.9-0.8,2.3-1.1c0.4-0.4,0.4-0.8,0.4-1.1c-0.4-1.5-1.9-4.1-6.4-1.5c0,0.4-0.4,0.8-0.4,0.8c0,0.4,0,0.8,0,1.1
	c0.4,0.4,0.8,0.8,1.1,1.5C111,309.7,112.1,309.7,113.3,309.7z M92.1,295.8c1.9,0.4,6.8,0.8,11.3,1.5
	C99.7,296.5,96.7,296.2,92.1,295.8z M74.8,295.8c6.4,0,13.2,0,15.8,0c-1.5,0-3,0-4.5,0c-2.3,0-4.9,0-7.2,0
	C77.4,295.8,75.9,295.8,74.8,295.8z M58.9,295c1.5,0.4,3,0.4,4.1,0.4c1.1,0,3.4,0,6,0c-2.3,0-4.9,0-7.9-0.4
	C60.5,295.4,59.7,295.4,58.9,295z M40.5,287.5L40.5,287.5c0.4,0,0.4-0.4,0.8-0.4c0,0,0.4,0,0.4-0.4
	C41.2,287.1,40.8,287.5,40.5,287.5C40.5,287.9,40.5,287.9,40.5,287.5z M37.8,290.5L37.8,290.5z M45.7,288.2c0.4,0.4,0.8,0.8,1.1,1.1
	C46.9,289.4,46.5,289,45.7,288.2l-0.4-0.4L45.7,288.2z M35.9,289.8C36.3,290.1,36.3,290.1,35.9,289.8c-0.4,0-1.1-0.4-1.1-0.4
	s-0.8,0-1.9,0.4c0.8,0,1.5-0.4,2.3,0c1.1,0,1.9,0.8,2.3,1.1C37.1,290.5,36.7,290.1,35.9,289.8z M119.7,283.3c0-0.4,0-0.8,0-1.1
	c0-0.4-0.4-0.4-0.4-0.4s-0.4,0-0.8,0c-0.8,0.4-1.9,0.8-2.6,1.5c1.1,1.5,2.6,2.6,3.4,3.8c0.4,0.8,1.1,1.1,1.5,1.5
	c-0.4-1.1-0.8-2.6-1.1-3.8C119.7,284.5,119.7,283.7,119.7,283.3z M80.4,309c0,0,0.4,0,0.8,0c0,0,0.4,0,0.8,0.4
	c0.4,0.4,0.8,0.8,1.1,1.1c0.4,1.5,0.4,4.1,0.4,4.1s1.5,1.9,2.6,2.6c1.1,0.4,4.9,2.3,10.2-0.4c0,0-1.9-3-3.4-4.5
	c-0.4-0.8-1.1-1.1-1.5-1.1c-0.8-0.4-1.1,0-1.1,0s0,0,0-0.4h-0.4c0,0,1.5-1.5,3.8-1.5c0,0,0-0.4,0.4-0.4c0,0,0,0,0.4-0.4
	c1.1-1.5,3.8-4.1,4.9-4.9c0.4-0.4,0.4-0.4,0.8-0.4c0.4,0,0.4-0.4,0.8-0.4c0.8-0.4,1.1-0.8,1.5-0.8c0.4,0,1.1-0.4,1.5-0.4
	c-1.5-0.4-3.8-0.4-6.4-1.1c4.1,0.4,7.5,1.1,8.7,1.1h0.4c0.4,0,1.1,0,1.5,0.4c0.8,0,3,0.4,5.7,1.1c-6.8-1.5-13.2-2.6-17.3-2.6
	c0.4,0,0.8,0,1.1,0c-0.8,0-1.5,0-2.3,0c-4.5,0-8.3,0-11.7,0.8h-0.4c-1.1,0.4-1.9,0.4-2.6,0.8c0.4,0.4,0.8,0.8,1.1,1.1
	c0.4,0.4,0.4,0.8,0.4,1.5c0.4,0.8-0.4,2.3-0.4,2.3s0,0,0,0.4c0,0.4,0,0.8,0,0.8C80.8,308.6,80.8,308.6,80.4,309z M37.1,306.7v-0.4
	c0-0.4,0-0.4-0.4-0.8c0-0.4,0-0.4-0.4-0.8c0-0.4-0.4-1.1-0.4-1.5c0-0.4-0.4-0.4-0.4-0.8c0,0,0,0,0.4,0h-0.4c-0.4,0-1.1-0.4-2.3-0.8
	c-0.4,0-1.1-0.4-1.5-0.8c-2.3-0.8-4.5-2.3-6.4-3.4c-2.3-1.5-4.1-3-6-4.1c-0.8-0.4-1.5-1.1-1.9-1.5c-1.1-1.1-1.9-1.5-1.9-1.5
	s0,0,0.4,0c1.1,0.4,5.7,1.1,7.5,1.5c1.5,0,4.1,0,6-0.4c0,0,0,0,0-0.4s0-0.4,0.4-0.8c0-0.4,0.4-0.4,0.4-0.8
	c-0.8-0.4-7.2-2.6-11.3-6.8c-0.8-0.8-1.1-1.5-1.5-1.9c-1.5-2.6-1.5-4.1-0.8-5.7c0.4-0.8,1.1-1.5,1.5-1.9C13.7,273.9,8,268.6,8,266
	c-0.4-3,0.4-4.9,2.6-5.7c0,0-4.1-3.8-4.5-8.7c0-4.9-1.5-9.4,5.3-18.1c6.4-8.7,12.1-7.9,17.3-6.4c0.4,0,1.1,0.4,1.5,0.4h0.4
	c3.4,1.5,4.9,4.1,5.7,5.7c0.4,1.1,0.8,1.9,0.8,3.4c0,0.4,0,1.1,0,1.5v0.4c0,1.1-0.4,2.3-1.1,3c-0.4,0.4-0.8,1.1-1.1,1.5
	c0,0-1.1,1.5-3.4,2.3c0,0-0.4,0-0.4,0.4c-2.3,1.1-6,0-7.2-0.8c0,0-0.4,0-0.8-0.4c0,0-2.6-1.1-4.1,1.1c-1.5,2.3-1.5,3.4-0.8,5.7
	c0.8,1.9,3,5.7,3,5.7l0.4,0.8c0,0,0-2.6,1.1-3c0,0,0,0,0.4,0c0.4,0,0.4,0.4,0.8,0.4c0.4,0,0.8,0.4,1.1,0.8c1.9,1.1,1.9,1.9,2.3,2.6
	c0.4,0.8-0.8,1.9,0,4.5v0.4l0.4,0.4c1.1,1.5,1.5,1.5,1.5,1.5s-1.5-2.3-1.1-4.1c0.4-1.9,1.1-2.6,1.1-2.6s1.1-0.8,4.1,0
	c3,0.8,4.1,1.1,6.8,3.4c0,0,1.5-0.4,2.3,1.1c0.8,1.1,1.5,2.6,1.9,4.1v0.4c0.4,1.9,0.4,4.5,1.1,5.7c0,0,0,0,0,0.4c0,0,0,0,0,0.4
	c0,0,1.5,2.6,5.3,4.9c1.1,0.8,2.6,1.5,4.1,1.9c3,1.1,6,2.3,8.7,3c1.1-0.4,4.9-1.9,9.1-1.9c4.9,0,15.1,1.5,20,2.6
	c8.7,1.9,18.5,6.4,25.6,10.2c-3.4-2.3-6.8-4.9-8.3-6.4c-3.8-3.4-7.9-7.9-13.2-17.3c-5.7-9.4-9.1-20.7-9.4-26.4
	c-0.8-5.7-3.4-13.2-3.4-13.2s0,0,0.4,0.4c1.9,1.1,3.4,2.3,4.5,3.4c0.8,0.8,1.5,1.5,2.3,2.3c1.9,1.9,2.3,3.4,2.3,3.4s0.4,0,1.5,0.8
	c1.1,1.1,1.1,3,1.1,3c0.8,0.4,3.4,1.9,4.1,3c0.8,0.8,0.8,3.8,0.4,4.9v0.4c0,0,0-0.4,0.4-0.8c0.8-1.5,1.1-2.3,2.3-1.9
	c0.4,0,0.4,0,0.8,0c3,0.8,4.9,5.3,4.9,5.3c0.4,0.4,0.8,0.4,0.8,0.8c2.6,2.3,3.8,4.1,4.1,5.7c0,0.4,0,0.4,0,0.8c0,0.8,0,1.1,0,1.1
	c0.8,3-0.4,4.9-1.1,6c-0.8,1.1-2.6,1.1-3.4,1.1c-0.8,0-1.1-2.3-1.1-2.3s-0.4,0.8-0.4,4.5c0,1.5,1.1,3.4,3,5.7
	c1.9-0.4,4.5-1.1,6.4-1.9c3.8-1.1,11.7-3.8,18.1-2.3c0.4,0,0.4,0,0.4,0c0.8,0,9.4,2.6,12.4,9.4c2.3,4.5,2.6,8.7,2.3,11.3
	c0,0.4,0,0.4,0,0.8v0.4c-0.4,0.8-0.8,1.5-1.1,1.9c-1.1,1.5-2.6,2.3-4.1,2.3c-0.8,0-1.1,0-1.1,0s0,0,0.4,0c-0.8-0.4-1.5-0.8-2.3-1.1
	c0,1.1,0.4,1.9,1.1,3c0.8,1.5,1.9,3,3.4,4.5c2.6,2.6,7.9,7.2,7.9,7.2s-0.4-1.5-1.1-1.9c0.4,0.4,0.8,0.8,1.5,1.1
	c-0.8-0.8-1.5-1.1-2.3-1.9c6,5.3,11.3,9.8,12.4,10.6c1.5,1.1,4.1,3.8,7.2,7.5c-0.8-1.9-1.5-4.1-1.5-6c-0.4-10.9,4.9-25.6,4.9-25.6
	c3.4,1.5,3.4,3.8,3.4,6.4c0.4,2.6,2.6,9.1,4.1,11.7c1.1,3,0.8,6.8-0.4,12.1c-1.1,5.3-0.4,8.7,0.8,12.1c0.4,1.5,2.6,8.3,4.5,14.3
	c0.8,1.9,1.5,4.1,1.9,6.4c1.1,3,1.5,5.3,1.5,5.3c-0.4-0.8-0.4-1.5-1.1-2.6c0.4,1.1,0.8,2.6,1.1,3.8c1.5,6.4,1.1,8.3,1.1,9.1
	c0,0.4,0,0.4,0,0.8c0,0,0,0-0.4-0.4h-0.4c0,0-0.4-1.1-0.8-2.6c0,0,0-0.4-0.4-0.4c-1.1-3.4-3.4-9.4-5.3-14.7
	c-1.1-2.6-2.6-5.7-4.5-9.1c-4.9-8.3-11.7-18.1-21.9-25.3c-3.4-2.6-6-4.1-8.3-5.3c-0.4,0-0.4-0.4-0.8-0.4c-2.3-0.8-6-1.9-9.4,0
	c0,0-0.8,0.4-1.1,0.4c-0.8,0.4-1.1,0.8-1.5,0.8c-0.8,0.4-1.5,1.5-1.5,1.5s0-0.4-0.4-0.8h-0.4c-0.8,0-0.8,0.8-1.5,0.8h-0.4
	c-0.4,0-0.8,0-0.8-0.8c0-0.4-0.4-0.4,0-0.8c0-0.8,0.4-2.3,0.4-2.3s-0.4,0.4-1.1,0.8c-0.4,0.8-1.1,1.5-1.9,2.3
	c-0.4,0.8-0.8,1.9-0.8,3c0,0.8,0,1.5,0,1.9c0,1.1,0.4,2.3,0.4,3c0,0.4,0.4,1.1,0.8,1.5c0.4,0.8,1.5,2.3,1.5,3c0,0.4,0,0.4-0.4,0.8
	c0,0.4-0.4,0.8-0.4,1.1c-0.8,1.1-1.5,2.6-2.3,3.8c-1.1,2.3-3,4.5-4.5,6c-0.4,0.4-0.8,0.8-1.5,1.1c-2.6,1.9-7.2,3.4-12.1,3
	c0,0-2.6,0.4-4.5-0.4c-0.4-0.4-0.8-0.4-1.1-0.8c-0.8-0.4-1.1-0.4-1.9-0.8c-0.8,0-1.9,0-3-0.8c-0.8-0.4-1.5-0.8-1.9-1.5
	c-0.4-0.8-0.4-1.1-0.8-1.9c-0.4-1.5,0-2.6,0-2.6s-0.4,0-0.8,0.4c-0.4,0-0.4,0.4-0.8,0.4c-3,1.5-6.8,1.5-9.8-1.5
	c-3.4-3-1.5-6-0.4-7.5c0,0-2.6-1.1-3-3c0-0.4,0-0.8,0-1.1c0-1.9,0.8-2.6,0.8-2.6s-1.1-0.8-2.3-2.3c-1.5-1.5-3-3.4-2.6-6
	c0.4-3,0.8-4.5,0.8-5.3c0-0.4-0.4-0.8-0.4-0.8s0,0.4-0.8,0.8c-0.4,0.4-1.1,1.1-2.6,1.9c-3,1.5-3.4,1.5-5.3,1.5
	c-0.8,0-4.5,0.4-4.5,0.4s-1.1,0.4-2.3,0.4c-0.4,0-0.8,0-1.5,0H62c-0.4,0-0.8-0.4-1.1-0.4c-0.4,0-0.8,0.4-0.8,0.4
	c-0.4-0.4-0.4,0-0.8,0c-0.4,0.4-1.1,0.4-1.5,0.4c-0.4,0-1.1,0-2.3-0.4c-1.5,0-3.4,0-4.1,0c-0.4,0-0.8,0-1.5-0.4
	c-0.8,0-1.1-0.4-1.9-0.4c-0.4,0-0.4-0.4-0.8-0.4c-0.4,0-0.4,0-0.4-0.4c-0.4-0.4-2.3-1.5-4.1-3c-1.1-0.8-1.9-1.5-2.3-1.9
	c-0.8-0.8-1.5-1.1-1.5-1.1c-0.4-0.4-0.8-0.4-0.8-0.8C37.4,307.5,37.1,306.7,37.1,306.7"/>
<path class="st0" d="M356.9,281.1c0.4-1.1,1.1-2.6,1.9-4.9c0,0.4-0.4,0.8-0.4,1.1c-0.8,1.5-1.1,3.4-1.5,5.3
	C356.9,281.8,356.9,281.5,356.9,281.1 M352.4,269.8c-0.4-3-0.8-7.5-1.1-10.9c-0.4-4.5,1.5-4.5,1.5-4.5s0.4,0,1.1,0
	c-0.4,1.5-0.8,3.4-1.1,5.7C352.7,262.2,352.4,266,352.4,269.8z M359.1,264.1c0,0.4,0,1.1-0.4,1.5c0-0.4,0-0.4,0-0.8
	C359.1,264.5,359.1,264.5,359.1,264.1z M367.8,248.3c-1.5,2.6-4.9,8.7-7.2,14C361.8,258.5,364.1,253.5,367.8,248.3z M364.8,262.2
	c0,0,0,0.4-0.4,0.4c0.8-1.1,1.1-2.6,1.9-3.8C365.9,260.3,365.2,261.5,364.8,262.2z M374.2,246.8L374.2,246.8c0,0,0-0.4,0-0.8
	C374.6,246.4,374.2,246.4,374.2,246.8z M375.7,249h0.4H375.7z M376.5,254.7C376.5,254.7,376.1,254.7,376.5,254.7
	c-0.8,0.8-1.5,0.8-2.3,0.8c-0.4,0-0.8-0.4-1.1-0.4c-0.8-1.1-1.9-4.1,3-5.7c0.4,0,0.8,0,1.1,0c0.4,0.4,0.8,0.4,0.8,0.8
	c0,0.4,0.4,1.1,0.4,1.9C378,252.8,377.3,253.9,376.5,254.7z M380.3,229.8c-1.1,1.5-3.8,5.7-6.4,9.4
	C375.7,235.8,377.6,233.2,380.3,229.8z M392,216.6c-4.1,4.5-9.1,9.8-10.6,11.7c0.8-1.1,1.9-2.3,3-3.4c1.5-1.9,3.4-3.4,4.9-5.3
	C390.1,218.5,391.2,217.7,392,216.6z M402.1,204.5c-0.8,1.5-1.9,2.6-2.6,3.4c-0.8,0.8-2.3,2.3-4.1,4.5c1.5-1.5,3.4-3.8,5.3-6
	C401,206,401.8,205.3,402.1,204.5z M408.9,186L408.9,186c-0.4,0-0.4,0-0.8,0.4h-0.4C408.2,186,408.6,186,408.9,186z M412.7,185.7
	L412.7,185.7z M405.9,190.6c0,0.8,0,1.1,0,1.9c0-0.4-0.4-0.8-0.4-1.5c0-0.4,0-0.8,0-1.1C405.9,189.8,405.9,190.2,405.9,190.6z
	 M413.5,184.2C413.5,184.5,413.5,184.5,413.5,184.2l0.4-1.1c0,0,0.8-0.8,1.5-1.1c-0.8,0.4-1.1,1.1-1.5,1.5c-0.4,0.8-0.8,1.9-0.8,2.3
	C413.5,185.7,413.5,184.9,413.5,184.2z M352.7,241.9c-0.4-0.4-0.8-0.8-0.8-0.8c0-0.4,0-0.4,0-0.8l0.4-0.4c0.8-0.4,1.9-0.8,2.6-1.1
	c0,1.9,0.4,3.8,0.4,5.3c0,0.8,0,1.5,0,1.9c-0.4-1.1-1.1-2.3-1.9-3C353.1,242.6,352.7,242.2,352.7,241.9z M397.6,229.8l-0.4,0.4
	c0,0,0,0.4-0.4,0.4c0,0.4,0,1.1,0.4,1.5c0.8,1.5,3,3,3,3s0.4,2.6,0,3.8c-0.4,1.1-1.5,5.3-7.2,7.2c0,0-0.8-3.4-1.1-5.7
	c0-0.8,0-1.5,0-1.9c0.4-0.8,0.8-0.8,0.8-0.8s0,0-0.4,0l0.4-0.4c0,0-1.9,0-3.8,1.5h-0.4c0,0,0,0-0.4,0c-1.9,0-5.7,0-6.8,0.4
	c-0.4,0-0.8,0-1.1,0.4c-0.4,0-0.4,0-0.8,0c-0.8,0-1.1,0.4-1.5,0.8c-0.4,0.4-0.8,0.8-1.1,1.1c0.8-1.1,1.9-3,3.4-5.3
	c-2.6,3.4-4.1,6-4.9,7.2c0,0,0,0.4-0.4,0.4c-0.4,0.4-0.8,0.8-0.8,1.1c-0.4,0.8-1.5,2.6-3,4.9c3.4-6,6.8-11.7,9.8-14.7
	c-0.4,0.4-0.4,0.8-0.8,0.8c0.4-0.8,1.1-1.1,1.5-1.9c3-3.4,5.7-6,8.7-8.3c0,0,0.4,0,0.4-0.4c0.8-0.4,1.5-1.1,2.3-1.5
	c0,0.8,0,1.1,0,1.5c0,0.4,0.4,1.1,0.8,1.1c0.4,0.8,1.9,1.1,1.9,1.1s0,0,0.4,0.4c0,0.4,0.4,0.4,0.8,0.4L397.6,229.8
	C397.2,229.8,397.6,229.8,397.6,229.8z M425.1,196.2c0,0,0-0.4-0.4-0.4c0-0.4-0.4-0.4-0.4-0.8c0-0.4-0.4-0.4-0.4-0.8
	c-0.4-0.4-0.8-0.8-0.8-1.1c0-0.4,0-0.4-0.4-0.8c0,0,0,0,0,0.4c0,0,0-0.4,0.4-0.4c0.4-0.4,0.4-1.1,1.1-1.9c0.4-0.4,0.4-1.1,0.8-1.5
	c0.8-2.3,1.5-4.9,1.5-7.2c0.4-2.6,0.8-5.3,0.8-7.2c0-0.8,0-1.5,0.4-2.6c0-1.5,0-2.6,0-2.6c-0.4,0.8-3,5.3-4.1,6.4
	c-1.1,1.1-3,3-4.1,4.1c0,0,0,0,0-0.4c0,0,0,0-0.4-0.4c0-0.4-0.4-0.4-0.8-0.4c-0.4,0-0.8,0-0.8,0c0.4-0.8,3-7.2,2.6-12.8
	c0-1.1-0.4-1.9-0.4-2.6c-0.8-3-1.9-3.8-3.8-4.1c-0.8-0.4-1.9-0.4-2.3,0c3.4-3.4,3-10.6,1.1-12.8c-1.9-2.3-4.1-3-6-1.9
	c0,0,0-5.7-3.4-9.1c-3.8-3.4-6-7.5-17-8.3c-10.6-1.1-14,3.4-16.6,8.7c-0.4,0.4-0.4,1.1-0.8,1.5v0.4c-1.1,3.8-0.4,6.8,0.4,7.9
	c0.4,1.1,0.8,1.9,1.9,2.6c0.4,0.4,0.8,0.8,1.1,1.1c0,0,0,0,0.4,0.4c0.8,0.8,1.9,1.1,3,1.1c0.8,0,1.1,0.4,1.9,0.4c0,0,1.9,0,4.1-1.1
	c0,0,0.4,0,0.4-0.4c2.3-1.1,4.1-4.5,4.5-5.7c0,0,0-0.4,0.4-0.8c0,0,0.8-2.6,3.4-2.3c2.6,0.8,3.8,1.1,4.5,3.4c0.8,1.9,1.9,6,1.9,6
	l0.4,0.8c0,0-1.9-1.5-3-1.1c0,0.4,0,0.4-0.4,0.8c0,0.4-0.4,0.8-0.4,1.1c-0.4,1.9,0,2.6,0.4,3.4c0.4,0.8,1.9,0.8,3.4,3.4
	c0,0,0,0.4,0.4,0.4c0,0.4,0,0.4,0,0.8c0.4,1.9,0.4,2.3,0.4,2.3s-0.8-2.6-2.3-3.8c-1.5-1.1-2.6-1.1-2.6-1.1s-1.1,0.4-2.6,3
	c-1.5,3-1.9,3.8-2.3,7.2c0,0-1.1,0.8-0.8,2.6c0.4,1.5,1.1,2.6,1.9,4.1c0,0,0,0.4,0.4,0.4c1.1,1.5,3,3.4,3.8,4.5c0,0,0,0,0,0.4
	c0,0,0,0,0,0.4c0,0,0.8,2.6,0.4,7.2c-0.4,1.5-0.8,3-1.1,4.5c-1.1,3-2.3,6-3.4,8.7c-0.8,0.4-4.5,2.6-7.5,5.7
	c-3.4,3.8-9.1,12.1-11.3,16.6c-4.5,7.9-7.9,18.1-9.8,25.6c0.4-4.1,0.8-8.3,0.8-10.2c0-4.9-0.8-10.9-3.8-21.5
	c-3-10.6-9.4-20.4-13.2-24.9c-3.8-4.5-7.5-11.3-7.5-11.3s0,0,0,0.4c-0.4,2.3-0.4,4.1-0.8,5.7c0,1.1,0,2.3,0,3.4
	c0.4,2.6,0.8,3.8,0.8,3.8s-0.4,0.4-0.4,1.9s1.5,3,1.5,3c-0.4,0.8-0.8,3.8-0.8,4.9c0.4,1.1,2.3,3,3,3.8c0,0,0.4,0,0.4,0.4
	c0,0-0.4,0-0.8-0.4c-1.5-0.8-2.3-0.8-3,0.4c-0.4,0-0.4,0.4-0.4,0.4c-1.5,2.6,0.8,7.2,0.8,7.2c0,0.4,0,0.8,0,1.1
	c-0.4,3.4,0.8,5.7,1.5,6.8l0.4,0.4c0.4,0.8,0.8,1.1,0.8,1.1c1.5,2.6,3.8,3,5.3,3.4c1.1,0.4,3-1.1,3.4-1.9c0.4-0.8-1.1-2.3-1.1-2.3
	s1.1,0.4,3.8,2.6c1.1,1.1,1.9,3.4,2.3,6c-1.9,1.1-3.8,2.3-5.7,3.4c-3.4,1.9-10.6,6-14,11.7l-0.4,0.4c-0.4,0.8-4.5,9.1-1.5,15.5
	c1.9,4.5,4.5,7.9,7.2,9.4c0.4,0,0.4,0.4,0.8,0.4h0.4c0.8,0.4,1.5,0.4,2.3,0.8c1.9,0,3.4-0.4,4.1-1.5c0.4-0.4,0.4-0.8,0.4-0.8
	c0.4-0.8,0.8-1.5,0.8-2.6c0.8,0.8,1.1,1.9,1.5,2.6c0.4,1.5,0.8,3.4,1.1,5.7c0.4,3.8,0,10.9,0,10.9s0-0.8,0.4-1.9c0,0.8,0,1.1,0,1.9
	c0-1.1,0-1.9,0.4-3c0,0,0,0,0-0.4c-0.4,7.9-0.4,14.7-0.4,16.2c0,1.9,0.4,5.7,0.8,10.6c-0.8-1.9-1.9-3.8-3.4-4.9
	c-7.9-7.9-22.3-13.6-22.3-13.6c-1.1,3.4,0.4,4.9,2.3,6.8c1.9,1.9,4.5,7.9,6,10.9c1.5,3,4.5,4.9,9.4,7.9c4.5,3,6.8,5.7,8.7,8.7
	c0.8,1.5,4.1,7.2,7.5,12.8c1.1,1.9,2.3,3.8,3.4,5.7c1.5,2.6,2.6,4.9,2.6,4.9c-0.4-0.8-0.8-1.5-1.5-2.6c0.8,1.1,1.5,2.3,2.3,3.4
	c3.8,5.3,5.3,6.4,6,6.8c0,0.4,0.4,0.4,0.4,0.4s0,0,0-0.4c0,0-0.4-0.8-1.1-2.3c0,0,0-0.4-0.4-0.4c-1.9-3.4-4.5-8.7-7.2-13.6
	c-1.1-2.6-2.3-5.7-3.4-9.4c-3-9.4-5.3-20.7-4.1-33.6c0.4-4.1,1.1-7.5,1.5-9.8c0-0.4,0-0.4,0.4-0.8c0.8-2.3,2.6-5.7,6.4-6.8
	c0,0,0.8-0.4,1.1-0.4c0.8-0.4,1.1-0.4,1.5-0.4c0.8,0,2.3-0.4,2.3-0.4s-0.4-0.4-0.4-0.8c0,0,0-0.4,0.4-0.4c0.4-0.4,1.1,0,1.5-0.4
	c0,0,0-0.4,0.4-0.4c0.4-0.4,0.4-0.4,0-1.1c0-0.4-0.4-0.4-0.4-0.8c-0.8-0.4-1.9-1.1-1.9-1.1s0.8,0,1.5-0.4c0.8,0,1.9,0,3,0.4
	c0.8,0.4,1.9,0.8,2.6,1.5c0.4,0.4,1.1,0.8,1.5,1.5c0.8,0.8,1.1,1.9,1.9,2.3c0.4,0.4,0.4,0.8,0.8,1.5c0.4,0.8,0.8,2.6,1.1,3
	c0,0,0.4,0.4,0.8,0.4c0.4,0,0.8,0.4,1.1,0.4c1.1,0.4,3,0.8,4.1,0.8c2.3,0.4,5.3,0.8,7.2,0.8c0.8,0,1.1,0,1.9-0.4
	c3.4-0.8,7.2-3,10.2-6.8c0,0,2.3-1.9,2.6-3.8c0-0.4,0-0.8,0.4-1.1c0.4-0.8,0.4-1.5,0.8-1.9c0.4-0.4,1.1-1.5,1.5-3
	c0.4-0.8,0.4-1.5,0-2.3c-0.4-0.8-0.8-1.1-0.8-1.5c-0.8-1.1-1.9-1.9-1.9-1.9s0.4,0,0.8-0.4c0.4,0,0.4,0,0.8-0.4
	c3-1.5,5.7-3.8,5.7-8.3c0-4.5-3.4-5.3-5.3-5.3c0,0,1.1-2.6-0.4-4.1c-0.4-0.4-0.4-0.4-0.8-0.8c-1.1-1.1-2.3-1.1-2.3-1.1s0-1.5,0-3
	c0-1.9-0.8-4.5-2.6-6c-2.6-1.9-3.8-2.6-4.5-3c-0.4-0.4-0.4-0.8-0.4-0.8s0.4,0,1.1,0c0.8,0,1.9,0,3.4-0.8c3-1.1,3.8-1.5,4.5-2.6
	c0.8-0.4,3-3,3-3s1.1-0.8,1.9-1.5c0.4-0.4,0.8-0.8,0.8-1.1v-0.4c0.4-0.4,0.4-0.8,0.4-1.1c0.4,0,0.8-0.4,0.8-0.4c0.4,0,0.4,0,0.8-0.4
	c0.8-0.4,1.1-0.4,1.5-0.8c0.4-0.4,0.8-1.1,1.1-1.9c0.8-1.1,1.9-2.6,2.3-3.4c0.4-0.4,0.4-0.8,0.8-1.1c0.4-0.4,0.8-1.1,0.8-1.5
	c0-0.4,0-0.4,0.4-1.1c0-0.4,0-0.4,0-0.4c0-0.4,0.4-2.6,0.8-4.9c0-1.5,0.4-2.6,0.4-3c0-0.8,0-1.5,0-1.9c0-0.4,0-0.8,0-1.1
	C425.5,197,425.5,196.6,425.1,196.2"/>
<path class="st0" d="M365.6,313.1c1.1-0.4,2.6-1.1,4.9-1.9c-0.4,0-0.8,0.4-0.8,0.4c-1.5,0.8-3.4,1.5-4.9,2.3
	C365.2,313.5,365.6,313.5,365.6,313.1 M371.2,301.8c1.9-2.3,4.9-5.7,7.5-8.3c3.4-3,4.5-1.9,4.5-1.9s0.4,0.4,0.8,1.1
	c-1.1,0.8-3,1.9-4.9,3C376.9,297.3,374.2,299.6,371.2,301.8z M379.9,303.3c-0.4,0.4-0.8,0.4-1.1,0.8c0.4,0,0.4-0.4,0.4-0.4
	C379.5,303.7,379.9,303.3,379.9,303.3z M397.2,299.2c-3,0.8-9.8,1.9-15.1,3.8C385.9,301.4,391.2,299.9,397.2,299.2z M384.8,306.3
	h-0.4c1.5-0.4,2.6-0.8,3.8-1.1C387.4,305.6,385.9,306,384.8,306.3z M402.9,303L402.9,303c0,0,0.4-0.4,0.8-0.4
	C403.3,302.6,403.3,303,402.9,303z M402.1,305.2c0,0,0,0.4,0.4,0.4C402.1,306,402.1,305.6,402.1,305.2z M398.4,309.7L398.4,309.7
	c-1.1-0.4-1.9-0.8-2.3-1.1c-0.4-0.4-0.4-0.8-0.4-1.1c0.4-1.5,1.9-4.1,6.4-1.5c0,0.4,0.4,0.8,0.4,0.8c0,0.4,0,0.8,0,1.1
	c-0.4,0.4-0.8,0.8-1.1,1.5C400.6,309.7,399.5,309.7,398.4,309.7z M419.5,295.8c-1.9,0.4-6.8,0.8-11.3,1.5
	C411.9,296.5,415,296.2,419.5,295.8z M436.8,295.8c-6.4,0-13.2,0-15.8,0c1.5,0,3,0,4.5,0c2.3,0,4.9,0,7.2,0
	C434.2,295.8,435.7,295.8,436.8,295.8z M452.7,295c-1.5,0.4-3,0.4-4.1,0.4c-1.1,0-3.4,0-6,0c2.3,0,4.9,0,7.9-0.4
	C451.2,295.4,451.9,295.4,452.7,295z M471.2,287.5L471.2,287.5c-0.4,0-0.4-0.4-0.8-0.4c0,0-0.4,0-0.4-0.4
	C470.4,287.1,470.8,287.5,471.2,287.5C471.2,287.9,471.2,287.9,471.2,287.5z M473.8,290.5L473.8,290.5z M465.9,288.2
	c-0.4,0.4-0.8,0.8-1.1,1.1C464.7,289.4,465.1,289,465.9,288.2l0.4-0.4L465.9,288.2z M475.7,289.8
	C475.3,290.1,475.3,290.1,475.7,289.8c0.4,0,1.1-0.4,1.1-0.4s0.8,0,1.9,0.4c-0.8,0-1.5-0.4-2.3,0c-1.1,0-1.9,0.8-2.3,1.1
	C474.6,290.5,474.9,290.1,475.7,289.8z M392,283.3c0-0.4,0-0.8,0-1.1c0-0.4,0.4-0.4,0.4-0.4s0.4,0,0.8,0c0.8,0.4,1.9,0.8,2.6,1.5
	c-1.1,1.5-2.6,2.6-3.4,3.8c-0.4,0.8-1.1,1.1-1.5,1.5c0.4-1.1,0.8-2.6,1.1-3.8C392,284.5,392,283.7,392,283.3z M431.2,309
	c0,0-0.4,0-0.8,0c0,0-0.4,0-0.8,0.4c-0.4,0.4-0.8,0.8-1.1,1.1c-0.4,1.5-0.4,4.1-0.4,4.1s-1.5,1.9-2.6,2.6c-1.1,0.4-4.9,2.3-10.2-0.4
	c0,0,1.9-3,3.4-4.5c0.4-0.8,1.1-1.1,1.5-1.1c0.8-0.4,1.1,0,1.1,0s0,0,0-0.4h0.4c0,0-1.5-1.5-3.8-1.5c0,0,0-0.4-0.4-0.4
	c0,0,0,0-0.4-0.4c-1.1-1.5-3.8-4.1-4.9-4.9c-0.4-0.4-0.4-0.4-0.8-0.4c-0.4,0-0.4-0.4-0.8-0.4c-0.8-0.4-1.1-0.8-1.5-0.8
	c-0.4,0-1.1-0.4-1.5-0.4c1.5-0.4,3.8-0.4,6.4-1.1c-4.1,0.4-7.5,1.1-8.7,1.1h-0.4c-0.4,0-1.1,0-1.5,0.4c-0.8,0-3,0.4-5.7,1.1
	c6.8-1.5,13.2-2.6,17.3-2.6c-0.4,0-0.8,0-1.1,0c0.8,0,1.5,0,2.3,0c4.5,0,8.3,0,11.7,0.8h0.4c1.1,0.4,1.9,0.4,2.6,0.8
	c-0.4,0.4-0.8,0.8-1.1,1.1c-0.4,0.4-0.4,0.8-0.4,1.5c-0.4,0.8,0.4,2.3,0.4,2.3s0,0,0,0.4c0,0.4,0,0.8,0,0.8
	C430.8,308.6,430.8,308.6,431.2,309z M474.6,306.7v-0.4c0-0.4,0-0.4,0.4-0.8c0-0.4,0-0.4,0.4-0.8c0-0.4,0.4-1.1,0.4-1.5
	c0-0.4,0.4-0.4,0.4-0.8c0,0,0,0-0.4,0h0.4c0.4,0,1.1-0.4,2.3-0.8c0.4,0,1.1-0.4,1.9-0.8c2.3-0.8,4.5-2.3,6.4-3.4
	c2.3-1.5,4.1-3,6-4.1c0.8-0.4,1.5-1.1,1.9-1.5c1.1-1.1,1.9-1.5,1.9-1.5s0,0-0.4,0c-1.1,0.4-5.7,1.1-7.5,1.5c-1.5,0-4.1,0-6-0.4
	c0,0,0,0,0-0.4s0-0.4-0.4-0.8c0-0.4-0.4-0.4-0.4-0.8c0.8-0.4,7.2-2.6,11.3-6.8c0.8-0.8,1.1-1.5,1.5-1.9c1.5-2.6,1.5-4.1,0.8-5.7
	c-0.4-0.8-1.1-1.5-1.5-1.9c4.5,0.4,10.2-4.9,10.2-7.5c0.4-3-0.4-4.9-2.6-5.7c0,0,4.1-3.8,4.5-8.7c0-4.9,1.5-9.4-5.3-18.1
	c-6.4-8.7-12.1-7.9-17.3-6.4c-0.4,0-1.1,0.4-1.5,0.4h-0.4c-3.4,1.5-4.9,4.1-5.7,5.7c-0.4,1.1-0.8,1.9-0.8,3.4c0,0.4,0,1.1,0,1.5v0.4
	c0,1.1,0.4,2.3,1.1,3c0.4,0.4,0.8,1.1,1.1,1.5c0,0,1.1,1.5,3.4,2.3c0,0,0.4,0,0.4,0.4c2.3,1.1,6,0,7.2-0.8c0,0,0.4,0,0.8-0.4
	c0,0,2.6-1.1,4.1,1.1c1.5,2.3,1.5,3.4,0.8,5.7c-0.8,1.9-3,5.7-3,5.7l-0.4,0.8c0,0,0-2.6-1.1-3c0,0,0,0-0.4,0c-0.4,0-0.4,0.4-0.8,0.4
	c-0.4,0-0.8,0.4-1.1,0.8c-1.9,1.1-1.9,1.9-2.3,2.6c-0.4,0.8,0.8,1.9,0,4.5v0.4l-0.4,0.4c-1.1,1.5-1.5,1.5-1.5,1.5s1.5-2.3,1.1-4.1
	c-0.4-1.9-1.1-2.6-1.1-2.6s-1.1-0.8-4.1,0c-3,0.8-4.1,1.1-6.8,3.4c0,0-1.5-0.4-2.3,1.1c-0.8,1.1-1.5,2.6-1.9,4.1v0.4
	c-0.4,1.9-0.4,4.5-1.1,5.7c0,0,0,0,0,0.4c0,0,0,0,0,0.4c0,0-1.5,2.6-5.3,4.9c-1.1,0.8-2.6,1.5-4.1,1.9c-3,1.1-6,2.3-8.7,3
	c-1.1-0.4-4.9-1.9-9.1-1.9c-4.9,0-15.1,1.5-20,2.6c-8.7,1.9-18.5,6.4-25.6,10.2c3.4-2.3,6.8-4.9,8.3-6.4c3.8-3.4,7.9-7.9,13.2-17.3
	c5.7-9.4,9.1-20.7,9.4-26.4c0.8-5.7,3.4-13.2,3.4-13.2s0,0-0.4,0.4c-1.9,1.1-3.4,2.3-4.5,3.4c-0.8,0.8-1.5,1.5-2.3,2.3
	c-1.9,1.9-2.3,3.4-2.3,3.4s-0.4,0-1.5,0.8c-1.1,1.1-1.1,3-1.1,3c-0.8,0.4-3.4,1.9-4.1,3c-0.8,0.8-0.8,3.8-0.4,4.9v0.4
	c0,0,0-0.4-0.4-0.8c-0.8-1.5-1.1-2.3-2.3-1.9c-0.4,0-0.4,0-0.8,0c-3,0.8-4.9,5.3-4.9,5.3c-0.4,0.4-0.8,0.4-0.8,0.8
	c-2.6,2.3-3.8,4.1-4.1,5.7c0,0.4,0,0.4,0,0.8c0,0.8,0,1.1,0,1.1c-0.8,3,0.4,4.9,1.1,6c0.8,1.1,2.6,1.1,3.4,1.1
	c0.8,0,1.1-2.3,1.1-2.3s0.4,0.8,0.4,4.5c0,1.5-1.1,3.4-3,5.7c-1.9-0.4-4.5-1.1-6.4-1.9c-3.8-1.1-11.7-3.8-18.1-2.3
	c-0.4,0-0.4,0-0.4,0c-0.8,0-9.4,2.6-12.4,9.4c-2.3,4.5-2.6,8.7-2.3,11.3c0,0.4,0,0.4,0,0.8v0.4c0.4,0.8,0.8,1.5,1.1,1.9
	c1.1,1.5,2.6,2.3,4.1,2.3c0.8,0,1.1,0,1.1,0s0,0-0.4,0c0.8-0.4,1.5-0.8,2.3-1.1c0,1.1-0.4,1.9-1.1,3c-0.8,1.5-1.9,3-3.4,4.5
	c-2.6,2.6-7.9,7.2-7.9,7.2s0.8-0.4,1.5-1.1c-0.4,0.4-0.8,0.8-1.5,1.1c0.8-0.8,1.5-1.1,2.3-1.9c-6,5.3-11.3,9.8-12.4,10.6
	c-1.5,1.1-4.1,3.8-7.2,7.5c0.8-1.9,1.5-4.1,1.5-6c0.4-10.9-4.9-25.6-4.9-25.6c-3.4,1.5-3.4,3.8-3.4,6.4c-0.4,2.6-2.6,9.1-4.1,11.7
	c-1.1,3-0.8,6.8,0.4,12.1c1.1,5.3,0.4,8.7-0.8,12.1c-0.4,1.5-2.6,8.3-4.5,14.3c-0.8,1.9-1.5,4.1-1.9,6.4c-1.1,3-1.5,5.3-1.5,5.3
	c0.4-0.8,0.4-1.5,1.1-2.6c-0.4,1.1-0.8,2.6-1.1,3.8c-1.5,6.4-1.1,8.3-1.1,9.1c0,0.4,0,0.4,0,0.8c0,0,0,0,0.4-0.4h0.4
	c0,0,0.4-1.1,0.8-2.6c0,0,0-0.4,0.4-0.4c1.1-3.4,3.4-9.4,5.3-14.7c1.1-2.6,2.6-5.7,4.5-9.1c4.9-8.3,11.7-18.1,21.9-25.3
	c3.4-2.6,6-4.1,8.3-5.3c0.4,0,0.4-0.4,0.8-0.4c2.3-0.8,6-1.9,9.4,0c0,0,0.8,0.4,1.1,0.4c0.8,0.4,1.1,0.8,1.5,0.8
	c0.8,0.4,1.5,1.5,1.5,1.5s0-0.4,0.4-0.8h0.4c0.8,0,0.8,0.8,1.5,0.8h0.4c0.4,0,0.8,0,0.8-0.8c0-0.4,0.4-0.4,0-0.8
	c0-0.8-0.4-2.3-0.4-2.3s0.4,0.4,1.1,0.8c0.4,0.8,1.1,1.5,1.9,2.3c0.4,0.8,0.8,1.9,0.8,3c0,0.8,0,1.5,0,1.9c0,1.1-0.4,2.3-0.4,3
	c0,0.4-0.4,1.1-0.8,1.5c-0.4,0.8-1.5,2.3-1.5,3c0,0.4,0,0.4,0.4,0.8c0,0.4,0.4,0.8,0.4,1.1c0.8,1.1,1.5,2.6,2.3,3.8
	c1.1,2.3,3,4.5,4.5,6c0.4,0.4,0.8,0.8,1.5,1.1c2.6,1.9,7.2,3.4,12.1,3c0,0,2.6,0.4,4.5-0.4c0.4-0.4,0.8-0.4,1.1-0.8
	c0.8-0.4,1.1-0.4,1.9-0.8c0.8,0,1.9,0,3-0.8c0.8-0.4,1.5-0.8,1.9-1.5c0.4-0.8,0.4-1.1,0.8-1.9c0.4-1.5,0-2.6,0-2.6s0.4,0,0.8,0.4
	c0.4,0,0.4,0.4,0.8,0.4c3,1.5,6.8,1.5,9.8-1.5c3.4-3,1.5-6,0.4-7.5c0,0,2.6-1.1,3-3c0-0.4,0-0.8,0-1.1c0-1.9-0.8-2.6-0.8-2.6
	s1.1-0.8,2.3-2.3c1.5-1.5,3-3.4,2.6-6c-0.4-3-0.8-4.5-0.8-5.3c0-0.4,0.4-0.8,0.4-0.8s0,0.4,0.8,0.8c0.4,0.4,1.1,1.1,2.6,1.9
	c3,1.5,3.4,1.5,5.3,1.5c0.8,0,4.5,0.4,4.5,0.4s1.1,0.4,2.3,0.4c0.4,0,0.8,0,1.5,0h0.4c0.4,0,0.8-0.4,1.1-0.4c0.4,0,0.8,0.4,0.8,0.4
	c0.4,0,0.4,0.4,0.8,0.4c0.4,0.4,1.1,0.4,1.5,0.4c0.4,0,1.1,0,2.3-0.4c1.5,0,3-0.4,4.1-0.4c0.4,0,0.8,0,1.5-0.4
	c0.8,0,1.1-0.4,1.9-0.4c0.4,0,0.4-0.4,0.8-0.4c0.4,0,0.4,0,0.4-0.4c0.4-0.4,2.3-1.5,4.1-3c1.1-0.8,1.9-1.5,2.3-1.9
	c0.8-0.8,1.5-1.1,1.5-1.1c0.4-0.4,0.8-0.4,0.8-0.8C474.2,307.5,474.6,306.7,474.6,306.7"/>
<ellipse class="st1" cx="255.8" cy="270.9" rx="100.7" ry="97.7"/>
<path class="st0" d="M255.8,173.2c55.4,0,100.7,43.7,100.7,97.7c0,53.9-44.9,97.7-100.7,97.7c-55.4,0-100.7-43.7-100.7-97.7
	C155.1,217,200.4,173.2,255.8,173.2"/>
<path class="st2" d="M303,227.1c0,4.9-2.6,9.8-8.3,15.1c-3.4,3.4-9.8,10.6-19.2,22.3c-1.5,0-2.3-1.1-2.6-2.3
	c2.6-4.1,3.8-8.7,3.8-13.2c0-4.9-2.3-9.8-6-14.7c-3.8-4.9-7.9-8.3-12.1-9.8c-2.6,0-6.8-0.8-11.7-1.5c-15.8,5.3-23.8,14.7-23.8,27.9
	c0,6.8,2.6,13.2,7.9,18.5c4.9,5.7,10.6,8.3,17,7.9c5.3,0,7.9-4.5,7.9-13.6c0-7.2-0.4-11.7-0.8-13.6c-0.8-6-3-9.1-6.4-9.1
	c-1.1,0-2.3,0.8-3.4,1.9c1.5,1.1,3,2.6,4.1,5.3c0,2.6-1.1,4.1-3.4,4.1c-3,0-4.9-1.9-4.9-5.3c0-5.3,2.3-7.9,7.2-7.9
	c2.3,0,4.1,0.8,6,2.6c1.9,1.9,3,4.1,3,6.4v25.6c0,3,2.6,5.7,7.9,7.9c3.8,1.1,7.5,2.6,11.3,4.1c5.3,2.6,10.2,6.8,14.3,12.8
	c4.5,6,6.4,12.1,6.4,18.1c0,1.9,0,4.5,0.4,7.5c-1.9,12.1-6.8,21.5-14.3,27.9c-7.9,6.4-17.3,9.8-28.3,10.2c-6,0-14.3-3-24.9-9.1
	c-10.6-6-16.2-9.1-16.6-9.1c-3.4,0-8.3,4.5-15.1,13.2c-9.4,12.4-16.2,20.7-20.4,24.9c-9.4,9.1-19.2,13.6-29.8,13.6
	c-5.7,0-12.4-2.6-19.6-7.5c1.1-1.5,3-3.4,6-6.4c3-2.6,4.9-5.3,6-7.2c4.1,6,10.6,9.1,18.5,8.7c8.3,0,17.7-6,28.3-18.5
	c7.2-8.3,14-18.5,20.4-30.5c5.7-10.6,9.1-18.9,9.8-25.6c0-1.9,0.4-3.8,0.4-5.7c0.4-2.3,1.1-3.4,2.6-3.4c2.3,0,3.4,1.1,3.4,3.4
	c0,1.1,0,2.3-0.8,4.1c-0.8,1.9-1.1,3.4-1.1,4.1l0.4,8.7c0,3,2.6,9.1,7.5,18.1c3,5.3,7.2,9.4,12.4,12.4c5.7,3,10.9,4.9,16.6,4.9
	c7.9,0,14.7-3,20.7-8.7c6.4-6,9.8-13.2,9.8-21.5c0-7.5-2.6-14.3-7.5-20.4c-4.9-6-10.9-9.1-17.7-9.1c-4.9,0-7.2,5.7-7.2,17
	c0,14.3,3,21.5,8.7,21.5c3.8,0,5.3-1.5,5.3-4.1c0-1.1-0.4-1.5-1.1-1.5c-0.4,0-0.8,0-1.5,0.4c-0.8,0.4-1.1,0.4-1.5,0.4
	c-3,0-4.1-1.5-4.1-4.1c0-1.1,0.4-2.6,1.5-3.4c1.1-1.1,2.3-1.5,3.4-1.5c1.9,0,3.4,0.8,4.5,2.6c1.1,1.5,1.9,3.4,1.9,5.3
	c0,2.3-0.8,4.1-2.6,6.4c-1.9,1.9-3.8,3-5.7,3c-7.2,0-10.6-6.4-10.6-19.2c0-1.1,0-2.3,0.4-4.5c0-1.9,0.4-3.4,0.4-4.5
	c0-9.8-1.1-15.5-3.8-17c-4.5-1.9-10.9-4.9-19.6-8.7c-4.1-2.3-7.9-6-11.3-11.7c-3-5.7-4.9-11.3-4.9-16.6c0-12.1,3.4-21.5,11.3-28.3
	c7.2-6,16.2-9.4,27.2-9.4c6.8,0,14.3,3,23,9.1c8.7,6,14,8.7,15.8,8.7c2.3,0,4.1-0.8,5.7-2.6c1.5-1.5,2.6-3.8,2.6-6
	c0-3.8-1.1-5.7-3-5.7c-1.1,0-1.9,1.1-1.9,3c-0.4,1.9-1.5,3-3.4,3c-2.6,0-3.8-1.5-3.8-4.9c0-3.8,1.9-5.7,5.3-5.7
	c2.6,0,4.9,0.8,6.4,2.6C301.8,222.2,303,224.5,303,227.1"/>
<path class="st2" d="M181.5,128c-0.4-1.1-0.8-1.9-1.5-2.6c-0.4-0.4-1.1-1.1-1.9-1.5c0,0-0.4,0-0.4-0.4c0,0,0,0,0,0.4
	c0.4,0.4,1.1,1.9,1.5,2.6c0.4,0.8,0.4,1.5,0.8,2.6c0.4,1.1,0.4,1.5,0,1.5c0,0-0.4-0.4-0.8-1.1c-1.9-3-3.4-5.3-4.9-7.2
	c-0.4-0.4-0.8-0.8-0.8-0.8s0,0,0.8,0c0.4,0,0.8,0.4,1.1,0.4c0.4,0,1.1,0.4,1.5,0.8c1.9,0.8,2.3,0.8,3,1.5c0.4,0.4,1.1,1.1,1.1,1.5
	c0.4,0.8,0.4,1.9,0.8,2.6c0,0.4,0,0.8,0,1.1c0,0.4,0,1.9,0,1.9v0.4c0,0,0,0,0-0.4c0,0,0-0.4-0.4-0.4s-0.4-0.8-0.4-1.1
	C181.9,129.1,181.9,128.3,181.5,128 M219.6,152.5c-0.4-0.4-0.8-1.1-0.8-1.9c-0.4-0.8-0.4-1.9,0-2.6c0,0,0-0.4,0.4-0.4
	c0.4,0,1.1-0.4,1.1-0.4c0.4,0,1.1-0.4,1.9-0.4c1.1-0.4,3-0.8,4.1-0.8c-0.4,0.4-0.4,1.1-0.4,1.5c-0.4,0-0.4,0-0.8,0
	c-1.1,0.4-2.3,0.4-3,0.8c-0.4,0-1.1,0.4-1.1,0.4c-0.4,0-0.4,0-0.4,0s-0.4,0-1.1,0.4h-0.4c0,0.4,0,0.8,0,1.1
	C219.2,151,219.6,151.7,219.6,152.5z M276.6,149.1c-1.1,0-2.3-0.4-3.4-0.4c-1.5-0.4-3-0.4-4.9-0.8c-0.8,0-2.3-0.4-2.6-0.4
	c-1.1,0-2.6-0.4-4.1-0.4c-0.4,0-1.1,0-1.5,0c-0.8,0-2.6,0-3.4,0c-0.4,0-1.1,0-1.5,0c-0.4,0-0.8,0-1.1,0c-0.4,0-0.8,0-1.1,0
	s-1.1,0-1.5,0c-0.4,0-1.5,0-2.6,0c-0.8,0-2.6,0.4-3.4,0.4c-1.1,0-2.3,0.4-2.6,0.4c-1.1,0-3.8,0.4-4.9,0.8c-0.4,0-1.5,0.4-2.3,0.4
	c-1.1,0-1.9,0.4-1.5,0c0,0,2.6-0.8,4.9-1.1c1.5-0.4,1.1-0.4,4.1-0.8c0.8,0,1.1-0.4,1.5-0.4c0.4,0,1.5-0.4,1.9-0.4
	c0.8,0,1.5,0,2.6-0.4c0.8,0,2.6-0.4,4.1-0.4c0.8,0,4.1,0,5.3,0c0.8,0,3.4,0.4,4.5,0.4c0.8,0,1.5,0,1.9,0c0.4,0,0.8,0,1.1,0
	c0.4,0,1.1,0,1.9,0c2.6,0.4,3,0.4,3.8,0.4c0.4,0,1.1,0.4,1.5,0.4c0.4,0,1.1,0,1.1,0.4c0.4,0,1.1,0.4,1.5,0.4c0.4,0,1.1,0.4,1.1,0.4
	c0.8,0,2.6,0.8,4.1,0.8c1.1,0.4,3.4,1.1,3.4,1.1s-0.4,0-1.5-0.4C280.7,149.8,279.2,149.5,276.6,149.1z M313.1,169.4
	c0.4-0.8,0.8-1.1,1.9-0.8c0.4,0,0.4,0.4,0.8,0.4c0.8,1.1,0.8,1.1,0.8,1.9c-0.4,0.8-0.8,1.1-1.5,1.1c-0.4,0-0.8,0-1.1-0.4
	C313.1,171,313.1,169.8,313.1,169.4z M316.9,173.2c-0.4,0.4-0.8,1.1-1.1,1.5h-0.4c-0.4,0-0.4,0-0.8,0s-0.8,0-0.8,0
	c-0.8-0.4-1.5-1.1-1.5-1.9c0-0.4,0-0.8,0-0.8s0,0.4,0.4,0.4c0.4,0.8,0.8,1.1,1.1,1.1c0.4,0,1.1,0.4,1.5,0.4
	C315.4,174,316.2,173.6,316.9,173.2C316.9,172.8,316.9,172.8,316.9,173.2z M308.6,184.2L308.6,184.2c0-0.4,0-0.8,0-0.8
	c0-0.4,0-0.8,0-1.1c0.4,0,0.4,0.4,0.8,0.4v0.8C308.6,183.8,308.6,184.2,308.6,184.2z M278.1,169.4
	C278.1,169.1,278.1,169.1,278.1,169.4c0-0.4,0.4-0.4,0.4-0.4c0.8,0,1.9,0.4,2.3,0.8c0.4,0,0.4,0-1.5,0
	C278.8,169.4,278.4,169.4,278.1,169.4z M273.5,168.7c0,0,0.4-0.4,0.4-0.8l1.9,0.4c0.4,0,0.8,0,1.1,0.4c0.4-0.8,0.4-1.5,0.4-2.6
	c-1.1-0.4-1.9-0.4-3-0.4c0-0.8-0.4-1.1-0.4-1.9c1.1,0.4,2.3,0.4,3,0.4h0.4h0.4c0,0.4,0,0.4,0,0.8c0.4,1.5-0.8,3.8-1.5,4.5
	c0,0-0.4,0,0,0c0-0.4,0.4-0.8,0.4-0.8C275.4,169.1,274.7,168.7,273.5,168.7z M202.6,182.3L202.6,182.3z M295.8,177.4
	c0,0,0,0-0.8-0.8c-0.4-0.4-0.8-1.1-1.1-1.5c0.4,0,0.4,0.4,0.8,0.4C295.4,176.2,295.8,177,295.8,177.4z M315.4,181.9
	c0,0.4,0,0.8-0.4,0.8c-0.4,0.4-0.8,0.8-0.8,0.8c-0.4,0-0.4,0-0.8,0c-0.8-0.4-1.9-0.8-3.4-1.9c-1.5-0.8-2.3-1.5-3-1.9
	c-0.8-0.4-1.5-0.8-1.9-1.1c-1.1-0.8-4.1-2.3-6-3c-0.8-0.4-0.8-0.4-0.8-0.4s1.9,0.4,2.6,0.8c1.5,0.4,4.1,1.9,4.5,2.3
	c0,0,0.4,0.4,1.1,0.4c1.1,0.4,0.8,0.4,1.9,1.1c0.4,0.4,1.1,0.8,1.5,1.1c0.4,0,0.8,0.4,1.1,0.8c0.8,0.4,0.8,0.4,1.1,0.4
	c0.4,0,0.8,0,1.1,0c0.4,0,0.4-0.4,0.4-0.8c0-0.4,0-1.1-0.8-1.9c-0.4-0.4-0.8-0.8-0.8-0.8s0,0,0,0.4c0,0.4,0,0.4,0,0.4
	s-0.8-0.4-1.9-1.1c-0.8-0.8-1.9-1.5-2.6-1.5c-3-1.9-3.4-2.3-5.3-3c-1.5-0.8-1.9-0.8-2.6-1.1c-0.4,0-0.8-0.4-1.1-0.4
	c-0.4,0-0.8-0.4-1.5-0.4c-0.8-0.4-1.1-0.4-1.9-0.8c-1.5-0.8-3-1.1-5.7-1.9c-2.3-0.4-3.4-0.8-5.7-1.1c-0.8,0-1.5-0.4-2.3-0.4
	c-0.8,0-1.1-0.4-1.5-0.4c-0.4,0-1.1,0-1.5-0.4c0-0.8,0-1.1,0-1.9c0.4,0,1.1,0.4,1.5,0.4c0.4,0,0.8,0,1.1,0.4c0.4,0,1.1,0,1.1,0.4
	c1.1,0,8.3,1.9,10.2,2.6c0.8,0,1.5,0.4,1.9,0.8c2.3,0.8,5.7,1.9,8.3,3c2.6,1.1,3,1.5,6,3c2.6,1.5,4.5,3,5.3,3.8
	c0,0.4,0.4,0.4,0.4,0.8c0.4,0.4,0.4,0.8,0.8,1.5C315.4,181.5,315.4,181.5,315.4,181.9z M319.2,164.9c-0.4,0.4-0.8,0.4-1.1,0
	c-0.4,0-1.1-0.4-1.9-1.1c-1.9-1.5-3.4-2.6-4.5-3.4c-1.1-0.8-3.8-2.3-4.9-2.6c-1.1-0.4-3.4-1.5-4.9-2.3c-1.5-0.8-1.5-0.8-2.6-1.1
	c-0.4,0-1.1-0.4-1.1-0.4h-0.4h0.4c0.8,0,3,0.8,6,1.9c2.6,1.1,3,1.1,4.9,2.3c1.9,1.1,4.9,3,6.8,4.5c1.1,0.8,1.1,1.1,1.9,1.1
	c0.8,0.4,0.8,0.4,1.1-0.4c0-0.4,0.4-0.8,0-1.1c0-0.4-0.4-1.1-0.8-1.5c-0.4-0.4-1.1-1.1-1.1-1.1s0,0,0,0.4c0,0.4,0.4,0.8,0.4,0.8
	s-0.4-0.4-0.8-0.8c-2.6-1.9-4.9-3.4-7.9-4.9c-0.4,0-0.8-0.4-1.1-0.4c-0.8-0.4-3.4-1.9-5.7-2.6c-0.4,0-2.3-0.8-3.4-1.1
	c-0.4,0-1.1-0.4-1.5-0.4c-1.5-0.4-3-0.8-4.5-1.5c0-0.4,0-1.1,0-1.5c2.3,0.8,3,0.8,4.1,1.1c3.8,1.1,7.2,2.6,12.4,5.3
	c0.8,0.4,1.5,0.8,1.5,0.8s0.4,0,0.4,0.4c0.8,0.4,3.8,2.3,4.9,3c1.9,1.1,3,2.6,3.4,3.8C319.9,163,319.5,164.5,319.2,164.9z
	 M323.3,139.3c0.4,0,1.1,0.4,1.5,0.8c0.4,0,0.4,0.4,0.8,0.4c0.4,0.4,0.4,0.4,0.4,0.4v0.4c0,0-0.4,0-0.8-0.4c-0.4,0-0.8-0.4-1.1-0.8
	C323.7,139.7,323.3,139.7,323.3,139.3C323.3,139.3,323.3,138.9,323.3,139.3z M327.5,139.7C327.5,139.7,327.1,139.7,327.5,139.7
	c-0.4,0-2.6-1.5-3-1.5c0,0,0,0,0-0.4c0,0,0-0.4,0.4-0.4c0,0,0.4,0.4,0.8,0.4c0.4,0.4,1.1,0.8,1.1,0.8c0.4,0.4,0.8,0.4,0.8,0.4
	C327.5,139.3,327.5,139.3,327.5,139.7z M332.7,123.4c0.8-0.4,4.5-1.5,4.5-1.5s0,0-0.4,0.8c-0.8,1.1-1.1,1.5-1.9,2.6
	c-1.1,1.9-2.3,3.8-4.1,6.4c-0.4,0.8-0.8,1.1-0.8,1.1c0-0.4,0-1.1,0-1.5c0,0,0-0.4,0-0.8c0-0.8,0.4-2.6,0.8-3c0.8-1.5,1.1-1.9,2.3-3
	l0.4-0.4c0,0-1.5,0.8-2.3,1.1c-0.8,0.8-1.5,1.9-1.9,3c0,0.4-0.4,0.8-0.4,0.8c0,0.4-0.4,0.8-0.4,0.8c0,0.4-0.4,0.4-0.4,0.4v-0.4
	c0-1.1,0-1.9,0.4-2.6c0.4-1.1,0.4-1.5,0.8-1.9C331.2,124.6,331.6,123.8,332.7,123.4z M322.9,132.5l0.8-0.8c0.8-0.4,1.5-0.4,2.3,0
	c0.4,0,0.8,0.4,1.1,0.8c0,0,0.4,0.4,0.4,0.8c0.4,0.8,0.4,1.1,0.4,1.5v0.4c0,0.4,0,1.5-0.4,1.9c0,0,0,0,0-0.4c0-0.4,0-1.1-0.4-1.9
	c-0.4-0.8-0.4-0.8-0.8-1.1c-0.4-0.4-1.1-1.1-1.1-1.1s0,0.4,0.4,0.8c0,0.4,0.4,0.8,0.4,1.1c0,0.8,0,1.9,0,1.9l-0.4-0.4
	c0-1.1-0.4-1.9-1.1-2.6C324.1,132.9,323.7,132.5,322.9,132.5z M302.2,115.5C302.2,115.1,302.2,115.1,302.2,115.5
	C302.2,115.1,302.2,115.1,302.2,115.5c0,0.4,0,0.8,0,0.8c0,0.4-0.4,2.3-0.8,2.3c0,0,0,0-0.4,0.4c0,0.4-0.4,0.8-0.8,0.8
	c-0.4,0.4-0.4,0,0-0.4s0.4-0.4,0.8-0.8c0,0,0,0,0-0.4C301.4,118.5,302.2,115.9,302.2,115.5z M298.8,128c0,0,0,0-0.4,0
	c-0.4,0-1.1-0.4-1.9-0.8c-1.5-0.8-1.5-0.8-1.5-1.1c0,0,0,0,0.4,0c0.4,0,0.4,0,0.8,0c0,0,0.8,0.4,1.1,0.4c0.8,0.4,1.5,0.8,1.9,1.1
	C298.8,127.6,298.8,128,298.8,128z M298.8,126.1c-1.1-0.4-2.6-1.1-3-1.5v-0.4c0,0,0.8,0,1.1,0.4c0,0,0.4,0.4,1.1,0.4
	c1.1,0.4,1.5,0.8,1.9,0.8c0,0,0,0,0,0.4c0,0,0,0.4-0.4,0.4C299.6,126.1,299.6,126.1,298.8,126.1z M304.1,125.3c0,0.4,0,0.4,0,0.4
	s0-0.4-0.4-0.4c-0.4-0.8-0.8-1.1-1.5-1.1c-0.4,0-0.4,0-0.8,0s-0.4,0-0.8,0c-0.4,0-0.4-0.4,0-0.4c0.4-0.4,0.8-0.4,1.1-0.4
	c0.4,0,0.4,0,0.8,0c0.4,0,0.4,0,0.4,0c-0.4-0.4-0.8-0.4-1.5-0.8c-0.8-0.4-0.8-0.4-0.4-0.4c0,0,0,0,0.4,0h0.4c0.4,0,0.4,0,0.8,0
	c1.1,0.4,1.5,0.8,1.9,1.1C304.1,124.2,304.1,124.6,304.1,125.3z M303,111.4c0,0,0.4,0.4,0.4,1.1c1.1,3,1.1,3.4,0.8,4.5
	c0,0.8-0.4,0.8-0.4,1.1c0,0.4-0.4,0.8-0.8,0.8c-0.4,0.4-1.9,1.9-1.9,1.9s0-0.4,0.4-0.4c0-0.4,0.4-0.8,0.8-1.1
	c0.4-0.4,0.4-0.8,0.4-1.5c0.4-1.1,0.4-1.9,0-2.6c0-0.4,0-0.4,0-0.4c0-0.4,0-0.8,0-0.8s0,0-0.4,0.8c-0.4,1.1-0.8,1.5-1.1,2.6
	c-0.4,0.8-0.8,1.1-0.8,1.5l-0.4,0.8c-0.4,0.8-0.4,0.8-0.4,0c-0.4-1.5-0.4-2.3,0-3.4c0-0.4,0.4-0.8,0.8-1.1c0.4-0.4,0.4-0.4,0.8-0.8
	c0,0-0.8,0.4-1.1,0.8c-0.4,0.4-0.8,0.8-0.8,1.1c-0.4,0.8-0.4,1.9-0.8,3.4v0.4c0,0,0-0.4,0-0.8s0-0.8,0-1.1c0-1.5,0-2.6,0.4-3
	c0.4-0.8,0.8-1.1,1.5-1.5c1.5-0.8,2.3-1.5,2.6-1.5C303,111.4,303,111.4,303,111.4z M292.8,120.8c0,0,0.4-0.4,0.8-0.8
	c0,0,0.4-0.4,0.8-0.4c0.4,0,0.4,0,1.1,0c0.8,0.4,1.9,0.8,1.9,1.1c0.4,0.4,0.4,1.5,0.4,1.5s0,0-0.4-0.4c-0.4-0.8-1.1-1.1-2.3-1.5
	h-0.4h0.4c0,0,0.4,0,0.4,0.4c0.4,0.4,0.8,1.1,0.8,1.1s0,0-0.4,0h-0.4c-0.4,0-0.4,0-0.4-0.4l-0.4-0.4c-0.4-0.4-0.8-0.8-1.5-0.8
	C293.1,120.8,292.8,120.8,292.8,120.8z M256.2,106.5c0.4,0,1.5,0,1.9,0c0.4,0,0.8,0.4,0.4,0.4c0,0.4-0.4,0.4-1.1,0.4
	c-0.4,0-0.8,0-1.1,0c-0.4,0-0.4,0-0.8,0c0,0-0.4,0-0.8,0c-0.4,0-0.8,0-0.8,0l-0.4-0.4C253.9,106.5,254.3,106.5,256.2,106.5z
	 M258.1,98.5C258.1,98.5,257.7,98.9,258.1,98.5C257.7,98.5,257.7,98.5,258.1,98.5c-0.4,0,0-0.4,0-0.4s0-0.4,0-0.8c0-0.8,0-1.5,0-2.3
	c0,0,0-0.4,0-1.1c0-0.8-0.4-1.1-0.4-1.1l-0.4-1.1v-0.4l0.4,0.8c0,0,0,0.4,0.4,0.8c0,0,0,0.4,0.4,0.8c0,0.4,0,0.8,0.4,1.1
	c0,0.4,0.4,0.8,0.4,0.8s0,0.8,0,1.1c0,0,0,0.4,0,0.8C258.5,97,258.1,98.2,258.1,98.5z M253.9,109.1c0,0,0.4,0,0.8,0
	c0.4,0,0.8,0,0.8,0s0.4,0,0.8,0h0.8c0.8,0,1.1,0,0.8,0.4c0,0.4,0,0.4-0.4,0.4c-0.4,0-1.5,0-2.3,0c-0.8,0-1.1,0-1.1,0
	C253.9,109.5,253.9,109.1,253.9,109.1z M261.1,101.2c1.1,0.4,2.3,1.5,3,2.6c0.4,0.4,0.4,1.1,0.4,1.1s0,0-0.4,0
	c-0.4-0.4-2.3-0.8-2.3-0.8c-1.1,0-1.9,0-2.6,0.4h-0.4c-0.4,0,1.1-0.8,1.5-0.8c0.8-0.4,1.9,0,2.6,0c0.4,0,0.4,0,0.4,0
	s-0.8-0.4-1.1-0.8c-1.1-0.4-1.9-0.8-2.6-0.8c-0.4,0-1.1,0-1.5,0.4h-0.4c0,0,0.4-0.8,0.8-1.1c0.8,0,1.5-0.4,1.9-0.4
	C260.7,101.2,260.7,101.2,261.1,101.2z M249.4,103.8c0.4,0,0.4,0,0.8,0h0.4c0.4,0,1.1,0,1.5,0.4c0.4,0.4,1.1,0.4,0.8,0.8
	c0,0,0,0-0.4,0c-0.4,0-1.5,0-2.3,0c-0.8,0-1.5,0.4-2.3,0.4c-0.4,0.4-0.4,0.4-0.4,0c0,0,0.4-0.8,0.8-1.1c0.8-1.1,2.3-2.3,3-2.3
	c0.4,0,1.1-0.4,1.5-0.4s0.4,0,2.3,0.4c0.4,0,0.4,0,0.4,0s-0.8-1.5-1.9-2.3c-0.4-0.4-0.4-0.4-0.4-0.8c0,0-0.4-0.4-0.4-0.8
	c-0.4-0.8-0.8-1.1-0.8-1.5c-0.4-0.4-0.4-0.8-0.4-1.5s0-0.8,0.4-1.5l0.4-1.1l0.4-1.1c0.4-1.1,1.1-1.9,1.5-3c0.4-0.4,0.8-1.1,0.8-1.5
	c0.8-0.8,0.8-0.8,1.1-0.8c0,0,0.4,0.4,0.8,0.8c0,0.4,0.8,1.1,1.1,2.3c0.8,1.5,1.5,3,1.9,3.8c0.4,0.4,0.4,1.5,0.4,2.3s0,1.5-0.4,1.9
	c-0.4,0.4-1.1,1.5-1.5,1.9c-0.4,0.4-0.4,0,0-0.8c0.8-1.9,0.8-3.4,0-5.3c-0.4-0.4-0.4-0.8-0.8-1.9c-0.4-0.4-0.4-1.1-0.8-1.1
	c-0.4-1.1-1.1-1.9-1.1-1.5v0.4v0.4c0,0,0,0.8,0,1.5c0,0.8,0,1.5,0,1.9c0,1.1,0,3.4,0,4.1c0,0.4,0,1.1,0,1.5c0,0.4,0,0.8,0,0.8
	s-1.5-1.1-1.9-1.9c-0.4-0.4-0.8-1.1-0.8-1.9c0-0.4,0-0.8,0-1.1c0-0.8,0-0.8,0-1.5c0-0.8,0-0.8,0-0.4c0,0,0,0,0,0.4
	c0,0-0.4,1.1-0.8,1.9c-0.4,0.8-0.4,1.1,0,1.9c0,0.4,0,0.4,0.8,1.5c0.4,0.8,0.8,1.1,1.1,1.9c1.1,0.4,1.5,0.4,1.5,0.8
	c0.4,0.8,0.4,1.1,0.4,1.1c0,0.4,0,2.3-0.4,2.3c-0.4-0.4-1.5-1.1-1.9-1.1c-0.4-0.4-1.5-0.4-1.9-0.4c-0.4,0-1.1,0-1.9,0.4
	c-0.8,0.4-1.5,0.8-1.5,1.1C249,103.8,249,103.8,249.4,103.8z M213.2,127.6c0,0,1.1-0.8,1.9-0.8c0.4,0,0.8-0.4,1.1-0.4
	c0.8-0.4,0.8-0.4,1.1-0.4c0,0,0,0-0.8,0.4c-0.8,0.4-2.3,1.1-2.6,1.1C213.6,128,213.2,128,213.2,127.6z M214.3,121.5
	c0.4-0.8,1.1-1.5,1.5-1.5c0,0,0.4,0,0.4-0.4c0.8-0.4,1.1-0.4,1.9,0c0.4,0,0.8,0.4,0.8,0.8c0,0.4,0,0.4,0,0.4c-0.8,0-1.9,0.8-2.3,1.1
	c0,0.4,0,0.4-0.4,0.4h-0.4c-0.4,0-0.4,0,0-0.4c0.4-0.4,0.4-0.8,0.8-1.1c0,0,0.4,0,0.4-0.4c0,0,0,0-0.4,0
	C215.8,120.8,215.1,121.2,214.3,121.5C214.7,121.5,214.3,121.9,214.3,121.5C214.3,121.9,214.3,121.5,214.3,121.5z M212.1,120
	c0,0,0,0-0.8-0.4c-1.5-1.9-2.3-3-2.3-4.1v-0.4c0-0.4,0-0.8,0.4-0.8c0,0,0,0,0,0.4c0,0.4,0,0.4,0,0.4s0,0,0,0.4v0.4
	c0,0.4,0,0.8,0.4,1.1c0.4,0.8,1.1,1.9,1.5,2.3C212.1,119.3,212.4,120,212.1,120z M207.9,116.6c0-0.4-0.4-0.8-0.4-1.5
	c0-0.4,0-1.1,0-1.1s0.4-0.8,0.4-1.1c0.4-1.1,0.8-2.3,0.8-2.3c0.4,0.4,1.5,0.8,2.3,1.1c1.5,0.8,1.9,1.1,2.3,1.9
	c0.4,0.4,0.4,1.1,0.4,1.9c0,0.4,0,0.8,0,0.8c0,1.1,0,2.6,0,3s0,0.4,0-0.4c0-1.1-0.4-2.3-0.4-3c-0.4-0.8-1.1-2.3-1.5-2.6
	c0,0,0-0.4-0.4-0.4c-0.4-0.4-0.4,0,0,0.4c0.8,1.1,1.1,1.9,1.1,2.6c0,0.4,0,2.3,0,2.3s0,0-0.4-1.1c-0.4-1.1-1.5-3-1.5-3
	s-0.4-0.4-0.4-0.8c-0.4-0.8-0.8-1.1-0.8-1.1s-0.8,1.5-0.8,2.3c0,0.8,0,0.8,0,1.5c0,0.4,0.4,1.1,1.1,1.9c0.8,0.8,0.8,1.1,1.5,1.9
	c0.4,0.4,0.4,0.4,0.4,0.4s-0.4-0.4-1.1-0.8c-0.4-0.4-0.8-0.8-0.8-0.8C209,118.2,208.3,117.4,207.9,116.6z M209.8,123.1
	c0.8,0,1.1,0,1.5,0c0.8,0,0.8,0.4,0.4,0.4c-0.4,0-0.4,0.4-0.8,0c-0.4,0-1.1,0-1.9,0.4c-0.4,0.4-0.8,0.8-0.8,1.1c0,0.4-0.4,0.4-0.4,0
	c-0.4-0.8,0-1.5,0.4-2.3c0.4-0.4,1.5-1.1,2.3-1.1c0.8,0,1.9,0,2.3,0.4c0.4,0.4,0.4,0.4-0.4,0.4C211.7,122.3,210.9,122.3,209.8,123.1
	C209.4,123.1,209.4,123.1,209.8,123.1z M212.1,125.3c0,0,0.8-0.4,1.1-0.8c1.9-0.8,2.6-1.1,3-0.8l0.4,0.4c0,0.4-1.9,1.1-3.4,1.5
	c-0.4,0-0.4,0-0.8,0C212.1,125.7,212.1,125.3,212.1,125.3z M186.4,132.5c-0.4,0-0.8,0.4-1.5,1.1c-0.4,0.4-0.8,1.1-0.8,1.1v0.4
	c0,0,0-0.4,0-1.9c0-1.1,0.4-1.1,0.8-1.9c0.4-0.4,0.4-0.4,1.1-0.8c0,0,0.4,0,0.8,0c0.4,0,1.1,0,1.5,0.4c0.4,0.4,0.4,0.4,0.4,0.4h-0.4
	c-1.5,0.4-2.6,1.9-2.6,3.4v0.4l-0.4,0.4c-0.4,0.4-0.4,0.4-0.4,0c0-0.8,0-1.1,0.4-1.5c0-0.8,0.4-0.8,0.4-1.1
	C186,132.9,186.4,132.5,186.4,132.5C186.8,132.5,186.8,132.5,186.4,132.5z M184.5,138.9C184.5,138.5,184.5,138.5,184.5,138.9
	c0-0.4,0.8-0.8,0.8-0.8s0.4-0.4,0.8-0.4c0.4-0.4,0.8-0.4,0.8-0.4c0.4-0.4,0.8,0,0.4,0.4c0,0-1.1,0.8-2.3,1.5
	C184.9,138.9,184.5,138.9,184.5,138.9z M185.7,140.8v-0.4c0-0.4,0-0.4,0.8-0.8c0.8-0.4,1.9-1.1,1.9-0.8c0,0.4-0.4,0.8-0.8,0.8
	c-0.4,0-0.8,0.4-1.1,0.8C186.4,140.4,186,140.4,185.7,140.8C186,140.8,185.7,140.8,185.7,140.8z M192.8,158.1c0,0-0.4-0.4-0.4-1.1
	c-0.8-1.9-1.9-4.9-2.6-7.2c-0.4-0.4-0.8-1.5-0.8-2.3c-0.4-0.8-0.8-1.9-1.1-3c-0.8-1.9-1.1-3-1.1-3l2.3-1.5c0,0,0.4,0.4,1.1,0.8
	c1.1,0.8,1.9,1.1,3,1.5c1.1,0.4,1.9,0.8,2.6,0.8c0.4,0,0.8,0,1.1,0.4c2.3,0.4,2.6,0.4,4.1,0.4c2.3-0.4,3.8-0.8,5.7-1.9
	c3-1.9,5.3-4.5,6.4-7.5c0.4-0.8,0.8-2.6,0.8-3.4c0-0.4,0-0.8,0-1.1c0-0.4,0-0.8,0-0.8s0,0,0-0.4c0,0,0.4,1.5,0,1.9v0.4
	c0,0.4-0.8,3.8-0.8,4.5c-0.4,0.8-0.8,1.5-0.8,1.5s0,0,0,0.4v0.4c0,0,0,0,0,0.4v0.4c0,0,0,0,0-0.4c0,0,0-0.4,0.4-0.4
	c0,0,0-0.4,0.4-0.4l0.4-0.4c0-0.4,0.4-0.8,0.8-1.9c0,0,0.4-1.1,0.4-1.9c0.4-0.8,0.4-1.5,0.4-1.5s0.4,0.8,0.8,1.9
	c0.4,1.1,0.8,1.9,0.8,1.9c0,0.4,0.4,1.1,1.1,2.3c0,0.4,0.4,0.8,0.4,1.1c0,0.4,0,0.4,0,0.4s0,0,0,0.4c0,0,0,0,0-0.4v-0.4
	c0,0,0,0,0-0.4c0,0,0-0.4-0.4-1.5v-0.4c0,0,0-0.4,0-0.8c0-0.8-0.4-2.3-0.8-2.6c0-0.4-0.4-1.1-0.4-1.9c-0.4-1.5-0.8-3-0.8-3
	s0.4,0,0.4,0.4c0.8,0.4,2.3,1.9,3,2.3c1.1,0.8,2.3,1.1,4.1,1.9c0.4,0,0.8,0.4,0.8,0.4c1.5,0.8,4.5,1.5,6.4,1.5c1.5,0,3,0,4.1,0
	c1.5-0.4,3.4-1.1,4.5-1.5c1.5-0.8,3-1.5,4.1-2.6c1.5-1.1,2.6-2.3,3.4-3.4c1.5-1.9,2.3-3.4,3.4-6c0.8-2.3,1.1-3.4,1.5-5.3
	c0-0.4,0.4-1.1,0.4-1.5c0.4-1.1,0.4-1.9,0.4-2.6v-0.4h0.4c0.4,0,0.4,0,0.4,0.4c0,0.4,0,1.5,0,1.9c0,1.1,0,1.9,0,3c0,0.8,0,1.5,0,1.9
	c0,0.4,0,1.1,0,1.9c0,3.4,0,4.1,0,6c0,0.4,0,1.1,0,1.1c0,0.4,0,0.8,0,0.8s0,0,0.4-0.8c0-0.4,0-0.8,0-0.8v-0.4c0-0.4,0-0.8,0-1.5
	c0-0.4,0-0.4,0-0.4s0-2.3,0.4-4.5c0-0.8,0-1.5,0.4-1.9c0-1.1,0-1.5,0-1.9c0.4-1.1,0.8-4.5,0.8-4.9c0-0.4,0-0.4,0.4-0.4h0.4
	c0,0,0,0.4,0,0.8c0,0.4,0,0.8,0.4,2.6c0.4,1.5,0.8,3.8,1.1,4.1c0.4,0.8,1.1,2.6,1.5,3.8c1.1,2.3,2.6,4.5,4.1,6
	c0.8,0.8,2.3,1.9,3,2.6c1.1,0.8,2.6,1.5,3.8,2.3c1.1,0.4,2.3,0.8,3.4,1.1c1.1,0.4,1.5,0.4,1.9,0.4c1.1,0,2.6,0,3.8-0.4
	c2.3-0.4,3.4-0.8,4.5-1.1c0.4,0,0.8-0.4,1.1-0.4c1.9-0.8,3-1.1,4.1-1.9c0.8-0.4,2.3-1.5,3-2.3c0.4-0.4,0.8-0.4,0.8-0.4
	s0.4,0.4,1.1,0.4c0.8,0.4,1.1,0.4,1.1,0.8v0.4c0,0.4,0,0.8,0,0.8c0,1.9,0.8,4.1,1.9,5.7c0.8,1.9,2.6,3.4,4.1,4.9
	c2.3,1.9,4.5,2.6,7.5,3c1.5,0,2.3,0,4.5-0.4c2.3-0.4,2.3-0.4,3.8-1.1c1.1-0.4,1.9-0.8,2.6-1.5c0.4-0.4,0.8-0.8,1.1-0.8
	c0,0,0.4,0,0.8,0.4c0.4,0,0.8,0.4,1.1,0.8c0.8,0.4,0.8,0.4,0.8,0.8c-0.4,0.8-0.4,1.1-0.8,2.3c-0.8,1.5-0.8,1.9-1.1,3.4
	c-0.4,0.8-0.8,1.5-0.8,2.3c-0.8,1.9-2.3,5.7-2.6,7.2c0,0.4-0.4,0.8-0.4,0.8s-0.4,0-0.8-0.4c-0.4-0.4-1.5-1.1-2.3-1.9
	c-0.8-0.4-3-1.9-4.5-2.6c-1.5-0.8-5.3-2.6-6.8-3c-1.5-0.8-3.4-1.5-4.9-1.9c-1.1-0.4-3.4-1.1-5.3-1.5c-2.6-0.8-7.5-1.9-10.2-2.3
	c-0.4,0-1.5-0.4-2.6-0.4c-0.8,0-2.3-0.4-2.6-0.4c-0.8,0-1.5-0.4-2.3-0.4c-1.9-0.4-5.7-0.8-7.5-1.1c-0.8,0-1.5,0-1.9-0.4
	c-0.4,0-1.1,0-1.5,0c-0.4,0-1.5,0-2.3,0c-2.3,0-4.1-0.4-3.4,0c1.5,0.4,1.9,0.4,3,0.4c0.8,0,1.5,0.4,2.3,0.4c0.8,0,1.5,0.4,1.9,0.4
	c0.4,0,1.1,0.4,1.5,0.4c1.9,0.4,2.6,0.4,3.8,0.8c2.6,0.4,2.6,0.4,6.4,1.1c0.8,0,1.9,0.4,2.6,0.4c0.8,0,1.5,0.4,2.3,0.4
	c2.3,0.4,2.6,0.4,3.8,0.8c0.8,0,2.6,0.4,4.9,1.1c0,0.4,0,0.4,0,0.8c0.4,1.5-0.4,3.4-1.5,4.1c0.4-1.1,1.1-1.9,1.1-3
	c-1.1-0.4-1.9-0.4-3-0.8c-3.4-0.8-6.4-1.5-8.3-1.9c-0.4,0-1.1,0-1.5-0.4c-0.4,0-0.8,0-1.1,0c-0.4,0-1.1,0-1.5,0
	c-0.4,0-1.1,0-1.5-0.4c-1.1-0.4-3-0.4-3.8-0.8c-0.4,0-0.8,0-1.1,0c-0.8,0-2.6-0.4-4.1-0.4c-0.4,0-1.1,0-1.5,0c-1.5,0-3,0-4.5,0
	c-0.8,0-1.9,0-2.6,0c-1.1,0-3,0-3.8,0c-7.9,0.4-10.2,0.8-14,1.5c-0.4,0-1.1,0.4-1.5,0.4c-0.8,0-2.6,0.4-3.4,0.4c-0.4,0-0.8,0-1.1,0
	c-0.4,0-0.8,0-1.1,0c-0.4,0-0.8,0-1.1,0.4c-0.4,0-1.1,0.4-1.5,0.4h-0.4c0,0.4,0,0.8,0,1.1c0,0.8,0.4,1.1,0.8,1.5c0,0,0.4,0,0.4,0.4
	c-0.4,0-0.8-0.4-0.8-0.4c-0.4-0.4-0.4-0.8-0.8-1.1c-0.4-0.8-0.4-1.1,0-1.5c0-0.4,0-0.8,0.4-1.1c0.8,0,1.5-0.4,3-0.8
	c1.5-0.4,2.6-0.8,3.8-0.8c0.4,0,0.8,0,1.1-0.4c0.8-0.4,3.8-0.8,4.9-1.1c0.8,0,1.9-0.4,2.6-0.4c1.5-0.4,2.3-0.4,2.3-0.4s-0.4,0-1.1,0
	c-0.4,0-1.5,0-2.3,0.4c-0.8,0-1.9,0.4-2.3,0.4c-0.4,0-1.1,0-1.1,0c-0.4,0-2.6,0.4-3,0.4c0,0-0.8,0-1.5,0.4c-0.8,0-1.1,0.4-1.5,0.4
	c-0.4,0-0.4,0-0.4,0s-1.9,0.4-5.3,0.8c-1.1,0.4-3.8,0.8-4.5,0.8c-0.4,0-1.1,0.4-1.5,0.4c-1.9-1.1-2.3-0.8-3-0.8
	c-0.4,0-1.1,0.4-1.5,0.4c-1.9,0.4-4.5,1.5-6.4,2.3c-2.3,0.8-5.3,2.3-8.7,3.8c-3.8,1.5-6.4,3.4-8.3,4.9L192.8,158.1z M193.6,164.5
	L193.6,164.5c-0.4,0-0.8,0-1.1-0.4c-0.4-0.4-0.8-1.1-0.8-1.9c0-1.1,0.8-2.3,1.9-3.4c0.8-0.8,1.9-1.5,3-2.3c0.8-0.4,2.6-1.5,3.4-1.9
	c6.4-3,10.6-4.9,14.7-6c0.8-0.4,1.5-0.4,2.3-0.8c0,0.4-0.4,1.1,0,1.5c-1.5,0.4-3.4,1.1-4.5,1.5c-0.4,0-1.1,0.4-1.5,0.4
	c-0.4,0-1.1,0.4-1.5,0.4c-0.4,0-0.8,0.4-1.5,0.4c-2.3,0.8-4.1,1.5-6,2.6c-0.4,0-0.8,0.4-1.1,0.4c-1.1,0.4-1.9,0.8-3,1.5
	c-0.8,0.4-3,2.3-4.1,3c-0.4,0.4-0.4,0.4-0.4,0.4s0.4-0.8,0.4-1.1c0,0-0.8,0.8-1.1,1.1c-0.4,0.4-0.8,1.1-0.8,1.5c0,0.8,0,1.1,0.4,1.5
	c0.4,0.4,0.4,0.4,1.1,0c0.8-0.4,1.1-0.4,1.9-1.1c1.1-1.1,1.5-1.5,2.6-1.9c0.8-0.8,3.4-2.3,3.8-2.3c0,0,0.4-0.4,0.8-0.4
	c1.9-1.1,3-1.5,4.9-2.3c3-1.1,6.4-1.9,6.8-1.9c0,0-0.8,0.4-1.9,0.8c-0.8,0.4-1.9,0.8-2.3,0.8c-0.4,0-1.1,0.4-1.5,0.4
	c-1.1,0.4-3.4,1.5-4.5,1.9c-0.4,0-0.8,0.4-1.1,0.8c-1.1,0.8-3,1.9-4.1,2.3c-1.1,0.8-2.3,1.9-3.8,3
	C195.1,164.2,194,164.5,193.6,164.5z M197.7,174.7c0.8,0,1.1-0.4,1.5-0.8c0.4-0.4,0.4-0.4,2.3-1.5c2.6-1.5,4.9-2.6,6-3.4
	c0.8-0.4,1.1-0.8,1.5-0.8h0.4l-0.4-0.8c0-0.4-0.4-1.5-0.4-1.9c-0.4-1.1-0.4-1.9-0.8-3.4c0-0.8-0.4-1.5-0.8-2.3
	c0-0.8-0.4-1.1-0.4-1.1s-3.8,1.9-4.9,2.6c-1.1,0.8-3,2.3-3.8,3c-0.4,0.4-0.4,0.4-0.4,0.8l0.8,0.4c0.8,0.4,1.1,0.4,1.9,0.8
	c0.8,0.8,1.5,1.9,1.5,3c0,0.4,0,1.1,0,1.1s0-0.4,0-0.8c-0.4-1.5-0.8-2.3-1.5-3c-0.4-0.4-1.1-0.4-1.9-0.4c-0.4,0-1.1,0.4-1.5,0.8
	c-0.4,0-0.4,0-0.4-0.4c0-0.4,0-0.4,0-0.8v-0.4l0.4-0.4c0.4,0,0.8-0.4,1.1-0.8c1.1-0.8,2.6-1.9,3.4-2.6c1.1-0.8,3.4-1.9,5.7-3.4
	c0.4,0,1.1-0.4,1.9-0.8c1.1-0.4,1.9-0.8,3.8-1.5c0.8-0.4,3.4-1.1,4.1-1.5c1.1-0.4,3-0.8,3.8-1.1c0.4,0,1.5-0.4,1.9-0.4
	c1.9-0.4,3.8-1.1,7.2-1.5c3-0.8,3.4-0.8,4.5-0.8c0.8,0,2.3-0.4,3.8-0.4c0.4,0,1.1,0,1.9-0.4c1.1,0,3.8-0.4,7.2-1.1
	c1.1,0,2.6-0.4,3.4-0.4c2.6-0.4,4.1-0.4,5.3-0.4c0.4,0,1.1,0,1.5,0c0.4,0,0.8,0,1.1,0c0.4,0,0.8,0,0.8,0c0.4,0,1.5,0,2.6,0
	c0.4,0,1.1,0,1.5,0c1.1,0,3,0.4,4.5,0.4c0.8,0,1.9,0.4,2.3,0.4c0.4,0,1.1,0,1.5,0.4c0.4,0,1.1,0,1.9,0.4c0.8,0,1.5,0.4,2.3,0.4
	c0.8,0,1.5,0.4,1.9,0.4c3.4,0.4,3.8,0.4,6.8,1.1c0.8,0.4,2.6,0.4,3.4,0.8c1.5,0.4,8.7,2.3,10.2,2.6c1.1,0.4,3.4,1.1,4.9,1.5
	c2.3,1.1,3.8,1.5,5.7,2.6c3.4,1.9,4.5,2.6,7.9,5.3c0.4,0.4,1.1,0.8,1.5,1.1c0.4,0,0.4,0.4,0.4,0.4s0,0.4,0,0.8
	c0,0.8-0.4,0.8-0.4,0.8s-0.4,0-0.4-0.4c-0.4,0-0.4-0.4-0.8-0.4c-0.8-0.4-1.5-0.4-2.3,0.4c-0.4,0.4-0.8,0.8-1.1,1.1
	c-0.4,0.4-0.8,1.9-0.8,2.3c0,0.4,0,0.8-0.4,0.4c0-0.8,0-0.8,0-1.9c0.4-0.8,0.4-1.1,0.4-1.1c0.4-0.8,1.1-1.1,1.9-1.5
	c0.8-0.4,0.8-0.4,1.5-0.4c0.4,0,0.4,0,0.4,0s-0.4-0.4-0.8-0.8c-0.4-0.4-0.4-0.4-1.1-0.8c-1.9-1.5-1.9-1.5-3.8-2.6
	c-1.5-1.1-3.8-1.9-5.7-2.6c-0.4-0.4-0.8-0.4-0.8-0.4s0,0.4,0,0.8c0,0.4-0.4,1.5-0.8,3.8c-0.4,1.9-0.8,3.4-0.8,3.8c0,0.4,0,0.8,0,1.1
	c0,0.4,0,0.4,0,0.4s0.4,0,0.8,0.4c0.4,0,0.8,0.4,1.1,0.4c0.4,0,1.1,0.4,1.5,0.8c1.9,0.8,2.6,1.1,4.5,2.3c0.4,0.4,1.1,0.8,1.5,1.1
	c0.4,0.4,0.8,0.4,1.1,0.8c0.8,0.8,1.1,0.8,1.9,1.1l0.8,0.4c0,0,0,0,0,0.4v0.4c0,0.4,0,0.4,0,0.4s-0.4,0-0.4-0.4
	c-1.1-1.1-2.6-1.9-5.7-3.8c-1.9-1.1-4.5-2.3-8.3-3.8c-1.1-0.4-2.3-0.8-2.6-1.1c-2.3-0.8-8.3-2.6-9.8-3c-0.4,0-1.1-0.4-1.9-0.4
	c-0.8,0-1.5-0.4-2.3-0.4c-0.8,0-1.5-0.4-2.3-0.4c-0.8,0-1.5-0.4-2.3-0.4c-0.4,0-1.1,0-1.9-0.4c-0.4,0-1.5-0.4-1.9-0.4
	c-0.4,0-1.5-0.4-2.3-0.4c-2.3-0.4-4.1-0.4-8.7-0.8c-3-0.4-4.9-0.4-4.9-0.4s0.4,0,1.1,0c0.4,0,0.8,0,1.1,0c0.4,0,1.1,0.4,1.9,0.4
	c1.5,0,3,0.4,3.8,0.8c0.4,0,1.1,0,1.5,0.4c1.1,0,1.9,0.4,3.4,0.4c0,0.4,0,0.8,0.4,0.8c0.4,1.1,0,2.6-0.8,3.8c0,0.4-0.4,0.4-0.8,0.8
	c0,0-0.4,0,0,0c0,0,0-0.4,0.4-0.4c-0.4,0-1.1,0-1.5,0c-0.8,0-1.9,0-2.3-0.4c-0.4,0-1.1,0-1.5,0c-0.8,0-3.8-0.4-4.5-0.4
	c-1.1,0-2.6,0-5.7,0c-0.4,0-1.9,0-3,0c-3,0-4.1,0-7.5,0.4c-0.8,0-1.9,0-2.6,0.4c-2.3,0.4-5.7,0.4-6.8,0.8c-0.4,0-1.1,0-1.5,0.4
	c-0.4,0-0.8,0-1.5,0.4c-1.1,0.4-2.3,0.4-2.3,0.4s1.5-0.4,3.4-1.1c1.5-0.4,1.9-0.4,3.4-0.8c1.5,0,3.4-0.4,4.1-0.4
	c0.4,0,3.4-0.4,3.8-0.4c1.9,0,6.4-0.4,7.5-0.4c0.4,0,0.8,0,1.5,0c0.4,0,1.1,0,1.5,0c0.4,0,0.4,0,0.8,0c0.8,0,4.1,0,6.8,0.4
	c1.1,0,1.9,0,3.4,0.4c2.3,0.4,3,0.4,4.5,0.8c0-0.4,0.4-0.8,0.4-1.1c0-0.4,0-0.8,0-1.5c-2.6-0.4-3-0.4-3.4-0.4c-0.4,0-0.8,0-1.1,0
	c-0.4,0-1.5,0-2.6,0c-1.1,0-2.3,0-2.6,0c-0.8,0-1.9,0-3.8,0c-0.4,0-1.5,0-1.9,0c-0.8,0-1.5,0-1.5,0c-1.5,0-4.5,0-6.4,0.4
	c-1.1,0-2.6,0-2.6,0c-0.4,0-0.8,0-1.1,0c-0.4,0-1.5,0-2.3,0.4c-1.9,0-2.6,0.4-3.4,0.4c-0.4,0-1.1,0-1.5,0c-1.1,0-2.6,0.4-5.3,0.8
	c-1.1,0-4.1,0.8-5.3,1.1c-0.4,0-1.1,0.4-1.5,0.4c-0.8,0-1.5,0.4-4.5,1.1c-0.4,0-0.8,0.4-1.1,0.4c0,1.1,0.4,2.3,1.1,3c0,0,0,0.4,0,0
	c-1.1-0.4-1.9-2.3-1.9-3.8c0-0.4,0-0.8,0-1.1c0.4,0,0.8-0.4,1.1-0.4c0.8-0.4,3.8-1.1,5.3-1.5c0.4,0,0.8,0,0.8,0s1.1-0.4,1.5-0.4
	c0.8-0.4,3-0.8,4.5-0.8c0.4,0,0.4,0,0.8,0c0.4,0,0.4,0,0.8,0c0.4,0,0.8,0,1.1,0c0.4,0,0.8,0,1.5-0.4c0.4,0,1.1-0.4,1.9-0.4
	c1.1-0.4,2.6-0.4,4.1-0.8c0.8,0,1.1-0.4,1.1-0.4s-1.5,0-3,0.4c-1.1,0-1.1,0-3,0.4c-0.8,0-1.5,0.4-1.9,0.4c-0.4,0-1.1,0-1.9,0.4
	c-0.4,0-1.5,0.4-2.3,0.4c-0.8,0-1.5,0.4-2.3,0.4c-0.4,0-1.5,0.4-1.9,0.4c-0.8,0-1.5,0.4-1.9,0.4c-0.4,0-1.1,0.4-1.9,0.4
	c-1.1,0.4-4.1,1.1-6.8,1.9c-3.8,1.1-7.9,2.6-10.9,4.1c-2.6,1.1-6.4,3.4-8.3,4.9c-0.4,0.4-0.4,0.4-0.4,0.4l-0.4-1.5
	C197,174.7,197.4,174.7,197.7,174.7z M195.5,172.8L195.5,172.8c0.8,0.4,1.5,0.4,1.9,0.4c0,0,0.4,0,0.8-0.4c0.8-0.4,1.5-1.1,1.5-1.5
	V171c0,0,0,0.4,0,0.8c0,0.4,0,0.4-0.4,0.8c-0.4,0.8-1.1,1.1-1.9,1.5c-0.4,0-0.8,0-1.1,0C195.8,173.6,195.5,173.2,195.5,172.8
	C195.1,172.8,195.1,172.8,195.5,172.8z M196.2,167.9c0.4,0,1.1-0.4,1.1-0.8c0.4,0,1.1,0.4,1.5,0.8c0.4,0.4,0.4,0.8,0,1.1
	c0,0.4,0,0.4-0.4,0.8c-0.4,0.4-0.8,0.8-1.1,0.8c-0.4,0-0.4,0-0.8,0c-0.8,0-0.8-0.4-0.8-0.4c0-0.4-0.4-0.4,0-0.8
	C195.1,169.1,195.5,168.3,196.2,167.9z M198.5,183L198.5,183c-0.4,0-0.4,0-0.8,0c-0.4,0-0.8-0.4-1.1-0.8c-0.4-0.4-0.4-1.1-0.4-1.5
	c0-0.8,0.4-1.1,0.8-1.5l0.4-0.4c0.4-0.4,1.5-1.5,3-2.6c1.1-0.8,4.5-2.6,5.7-3.4c2.3-1.1,5.7-2.3,9.1-3.8c0.4,0,1.1-0.4,1.5-0.8
	c0.8-0.4,1.1-0.4,1.9-0.8c0,0.4,0,0.4,0,0.8c0,0.4,0,0.8,0,1.1c-0.4,0-0.8,0-0.8,0.4c-2.6,1.1-8.3,3.4-11.7,5.7
	c-0.8,0.4-2.3,1.5-3,1.9c-0.4,0.4-0.8,0.8-1.1,0.8c-0.4,0.4-0.8,0.4-1.1,0.8c-0.4,0-0.8,0.4-0.8,0.8c-0.8,0.4-0.8,0.4-1.1,0v-0.4
	v-0.4c-0.4,0-1.1,1.1-1.5,1.5c-0.4,0.4-0.4,0.8,0,1.5c0,0.4,0.4,0.4,0.8,0.8c0.4,0,0.4,0,0.8,0c0.4,0,0.4,0,1.9-0.8
	c0.8-0.4,1.5-0.8,1.9-1.1c0.4,0,0.4-0.4,0.4-0.4s0.4-0.4,0.8-0.4c0.4-0.4,1.5-0.8,2.6-1.5c2.6-1.5,3.4-1.9,6.8-3
	c0.8-0.4,2.3-0.8,2.3-0.4c0,0-1.5,0.8-3,1.1c-1.5,0.8-3.8,1.9-4.9,2.3c-1.1,0.4-4.1,2.6-5.3,3C200.4,181.9,199.2,182.6,198.5,183"/>
<path class="st3" d="M194.7,221.1c-0.4,0.8-1.1,1.1-1.9,1.5c-0.8,0.4-1.1,0.8-1.9,1.1l-1.1-1.9c0.4,0,0.8-0.4,1.1-0.8
	c0.4-0.4,0.8-0.4,1.1-0.8c0.4-0.4,0.8-0.8,1.1-1.1c0.4-0.4,0.8-1.1,0.8-1.5c0-0.4,0-0.8-0.4-1.1c-0.4,0-0.4-0.4-0.8-0.4
	c-0.4,0-0.4,0-0.8,0c-0.4,0-0.8,0.4-0.8,0.4c-0.4,0.4-0.8,0.4-1.1,0.8c-0.4,0.4-1.1,0.8-1.5,0.8c-0.4,0.4-1.1,0.4-1.5,0.4
	c-0.4,0-0.8,0-1.1,0c-0.4,0-0.8-0.4-1.1-0.8c-0.8-0.8-1.1-1.5-1.1-2.6c0-1.1,0.8-2.3,1.9-3.4c0.4-0.8,1.1-1.1,1.9-1.5
	c0.8-0.4,1.1-0.8,1.9-1.1l1.1,1.9c-0.4,0.4-1.1,0.4-1.5,1.1c-0.4,0.4-1.1,0.8-1.5,1.1c-0.4,0.8-0.8,1.1-0.8,1.5c0,0.4,0,0.8,0.4,1.1
	c0.4,0,0.4,0.4,0.8,0.4c0.4,0,0.4,0,0.8,0c0.4,0,0.4-0.4,0.8-0.4c0.4,0,0.8-0.4,1.1-0.8c0.8-0.4,1.1-0.8,1.5-0.8
	c0.4-0.4,1.1-0.4,1.5-0.4c0.4,0,0.8,0,1.1,0c0.4,0,0.8,0.4,1.1,0.8c0.8,0.8,1.1,1.5,1.1,2.6C196.6,218.9,195.8,220,194.7,221.1
	 M204.1,212.1c-1.1,0.8-1.9,1.5-3,1.5c-1.1,0.4-2.3,0-3-0.4c-1.1-0.4-1.9-1.1-2.6-2.3c-0.8-1.1-1.5-1.9-1.5-3c-0.4-1.1,0-2.3,0.4-3
	c0.4-1.1,1.1-1.9,2.3-2.6c1.1-0.8,1.9-1.5,3-1.5c1.1-0.4,2.3,0,3,0.4c1.1,0.4,1.9,1.1,2.6,2.3c0.8,1.1,1.5,1.9,1.5,3
	c0.4,1.1,0,2.3-0.4,3C205.7,210.6,204.9,211.3,204.1,212.1z M202.6,210.6c0.8-0.4,1.1-1.1,1.1-1.9c0.4-0.8,0.4-1.1,0-1.9
	c0-0.8-0.4-1.5-1.1-1.9c-0.8-0.8-1.1-1.1-1.9-1.5c-0.4-0.4-1.1-0.4-1.9-0.4c-0.8,0-1.5,0.4-1.9,1.1c-0.8,0.4-1.1,1.1-1.1,1.9
	c-0.4,0.8-0.4,1.1,0,1.9c0,0.8,0.4,1.5,1.1,1.9c0.8,0.8,1.1,1.1,1.9,1.5c0.8,0.4,1.5,0.4,1.9,0.4
	C201.5,211.3,201.9,211.3,202.6,210.6z M210.6,206.8l-6-10.9l3.4-1.9c1.5-0.8,2.6-1.1,3.8-1.1c1.1,0,1.9,0.4,2.3,1.5
	c0.4,0.4,0.4,1.1,0.4,1.9c0,0.8-0.4,1.1-1.1,1.9c0.8-0.4,1.5-0.4,2.3-0.4c0.8,0.4,1.1,0.8,1.5,1.5c0.8,1.1,0.8,1.9,0,3
	c-0.4,1.1-1.5,1.9-3,2.6L210.6,206.8z M213.2,203c0.8-0.4,1.5-1.1,1.9-1.5c0.4-0.4,0.4-1.1,0-1.5c-0.4-0.4-0.8-0.8-1.1-0.8
	c-0.4,0-1.1,0.4-2.3,0.8l-2.6,1.5l-1.1-1.5l2.6-1.5c0.8-0.4,1.1-0.8,1.5-1.1c0.4-0.4,0.4-0.8,0-1.1c-0.4-0.4-0.8-0.8-1.1-0.8
	c-0.4,0-1.1,0.4-1.9,0.8l-1.5,0.8l4.1,7.5L213.2,203z M220.4,201.1l-4.1-11.7l3.8-1.5c1.9-0.8,3-0.8,4.1-0.4
	c1.1,0.4,1.9,1.1,2.3,2.3c0.4,1.1,0.4,2.3,0,3c-0.4,0.8-1.5,1.5-3,2.3l-3,1.1l-0.8-1.9l2.6-1.1c0.8-0.4,1.5-0.8,1.9-1.1
	c0.4-0.4,0.4-1.1,0-1.5c-0.4-0.8-0.8-1.1-1.1-1.1c-0.4,0-1.1,0-2.3,0.4l-1.5,0.4l3.4,9.8L220.4,201.1z M227.1,198.9l-6.8-3.4
	l2.6-1.1l6.8,3.4L227.1,198.9z M231.7,197l-3-12.1l8.3-1.9l0.4,1.9l-6,1.5l0.8,3l5.7-1.1l0.4,1.9l-5.7,1.1l0.8,3.4l6-1.5l0.4,1.9
	L231.7,197z M242.2,194.7l-1.5-12.4l2.6-0.4l6.4,7.9l-1.5-8.7l2.3-0.4l1.5,12.4l-2.6,0.4l-6.4-7.9l1.1,8.3L242.2,194.7z
	 M253.9,193.6l4.5-12.4h3.4l4.1,12.4h-2.6l-3-10.6l-3.4,10.6H253.9z M256.6,190.9v-2.3h6.8v2.3H256.6z M268.6,194.7l1.9-10.2
	l-3.8-0.8l0.4-1.9l10.2,1.9l-0.4,1.9l-3.8-0.8l-1.9,10.2L268.6,194.7z M281.5,197.7c-1.5-0.4-2.6-1.1-3.4-2.3
	c-0.8-1.1-0.8-2.3,0-3.8l2.6-7.5l2.3,0.8l-2.6,7.2c-0.4,1.1-0.4,1.9,0,2.3c0.4,0.4,0.8,1.1,1.9,1.1c0.8,0.4,1.5,0.4,2.3,0
	c0.4-0.4,1.1-0.8,1.1-1.9l2.6-7.2l2.3,0.8l-2.6,7.5c-0.4,1.5-1.1,2.3-2.3,2.6C284.5,198.5,283,198.5,281.5,197.7z M288.6,200.4
	l5.7-11.3l3.4,1.9c1.5,0.8,2.6,1.9,3.4,2.6c0.4,1.1,0.4,1.9,0,3c-0.8,1.1-1.5,1.9-2.3,1.9c-1.1,0.4-2.3,0-3.8-0.8l-3-1.5l0.8-1.9
	l2.6,1.1c0.8,0.4,1.5,0.8,2.3,0.8c0.4,0,1.1-0.4,1.1-1.1c0.4-0.8,0.4-1.1,0-1.5c-0.4-0.4-0.8-0.8-1.9-1.5l-1.5-0.8l-4.9,9.4
	L288.6,200.4z M295,203.4l-2.3-7.5l2.6,1.1l2.3,7.5L295,203.4z M298.4,205.3l10.6-7.9l2.6,1.9l-3.4,12.8l-2.3-1.5l3.4-10.6l-9.1,6.8
	L298.4,205.3z M302.2,204.1l1.1-1.9l5.7,3.8l-1.1,1.9L302.2,204.1z M309,213.2l8.3-9.4l1.9,1.5l-6.8,7.5l4.9,4.5l-1.5,1.5L309,213.2
	z"/>
<path class="st4" d="M85.3,372.7l-2.3,3.8c0.4-1.5,0.4-2.6,0-3.8c-0.4-1.1-1.1-1.9-2.3-2.6c-0.8-0.4-1.5-0.8-2.3-0.8
	c-0.8,0-1.5,0-2.3,0c-0.8,0-1.5,0.4-2.3,1.1c-0.8,0.4-1.5,1.1-1.9,2.3c-0.4,0.8-0.8,1.5-1.1,2.3c0,0.8,0,1.5,0,2.3
	c0,0.8,0.4,1.5,0.8,1.9c0.4,0.8,1.1,1.1,1.9,1.9c0.8,0.4,1.9,0.8,2.6,1.1c0.8,0,1.9,0,3.4-0.4l0.4,0.4c-1.5,0.4-2.6,0.8-3.8,0.8
	c-1.1,0-2.3-0.8-3.8-1.5c-1.1-0.8-1.9-1.5-2.3-2.3c-0.8-0.8-1.1-1.5-1.1-2.6c-0.4-0.8-0.4-1.9,0-2.6c0-0.8,0.4-1.9,1.1-2.6
	c0.8-1.1,1.5-1.9,3-2.6c1.1-0.4,2.6-0.8,3.8-0.4c1.5,0,2.6,0.8,4.1,1.5c1.1,0.8,1.9,1.5,2.6,2.6c0.4,0.4,0.4,0.4,0.4,0.4
	c0.4,0,0.4,0,0.8,0C84.6,372.7,85,372.7,85.3,372.7z M98.2,379.9c0.8,0.4,1.9,1.1,2.3,1.9c0.8,0.8,1.1,1.5,1.5,2.3
	c0.4,0.8,0.4,1.9,0.8,2.6c0,0.8-0.4,1.9-0.8,2.6c-0.4,0.8-1.1,1.5-1.9,2.3c-0.8,0.8-1.5,1.1-2.6,1.1c-0.8,0.4-1.9,0.4-3,0.4
	c-1.1,0-1.9-0.4-3-0.8c-1.1-0.4-1.9-1.1-2.6-1.9c-0.8-0.8-1.1-1.5-1.5-2.3c-0.4-0.8-0.4-1.9-0.4-2.6c0-1.1,0.4-1.9,0.8-2.6
	c0.4-0.8,1.1-1.5,1.9-2.3c0.8-0.8,1.5-1.1,2.6-1.1c0.8-0.4,1.9-0.4,3-0.4C96.3,379.1,97.4,379.1,98.2,379.9z M97.8,380.3
	c-0.8-0.4-1.5-0.4-2.3-0.4c-0.8,0-1.5,0-1.9,0.4c-0.8,0.4-1.1,0.8-1.9,1.1c-0.4,0.8-1.1,1.1-1.5,2.3c-0.4,0.8-0.8,1.5-0.8,2.6
	c0,0.8,0,1.5,0,2.3c0,0.8,0.4,1.1,0.8,1.9c0.4,0.4,1.1,1.1,1.9,1.5c0.8,0.4,1.5,0.4,1.9,0.8c0.8,0,1.5,0,1.9-0.4
	c0.8-0.4,1.1-0.8,1.9-1.1c0.8-0.8,1.1-1.5,1.5-2.3c0.4-0.8,0.8-1.9,0.8-2.6c0-0.8,0-1.5,0-2.3c0-0.8-0.4-1.1-0.8-1.9
	C99.3,381,98.5,380.6,97.8,380.3z M110.2,385.9l4.1,1.5l5.3,12.8l3-7.2c0-0.4,0.4-0.8,0.4-1.1c0-0.4,0-0.4,0-0.8l-0.4-0.4
	c0,0-0.4-0.4-0.8-0.4l-0.4-0.4v-0.4l5.3,2.3v0.4l-0.4-0.4c-0.4,0-0.4,0-0.8-0.4c-0.4,0-0.4,0-0.8,0l-0.4,0.4c0,0.4-0.4,0.4-0.4,0.8
	l-4.1,10.6h-0.4l-5.7-14l-3,7.5c0,0.4-0.4,0.8-0.4,1.1s0,0.4,0,0.8l0.4,0.4c0,0,0.4,0.4,0.8,0.4l0.4,0.4v0.4l-5.3-2.3v-0.4l0.4,0.4
	c0.4,0,0.4,0,0.8,0.4c0.4,0,0.4,0,0.8,0l0.4-0.4c0-0.4,0.4-0.4,0.4-0.8l3.4-8.7c0-0.4-0.4-0.4-0.4-0.8l-0.4-0.4l-0.4-0.4l-0.4-0.4
	C111,386.3,110.6,386.3,110.2,385.9z M142.3,396.9l-1.1,4.5h-0.4c0-1.1,0-2.3-0.8-3c-0.8-0.8-1.5-1.5-2.6-1.9c-0.4,0-0.8,0-1.1,0
	c-0.4,0-0.8,0-1.1,0.4c-0.4,0-0.4,0.4-0.8,0.4c-0.4,0.4-0.4,0.4-0.4,0.8s0,0.4,0,0.8c0,0.4,0.4,0.8,0.8,1.1c0.8,0.8,1.5,1.5,2.3,1.9
	c0.8,0.4,1.5,1.5,2.6,2.3c0.4,0.4,0.8,1.1,0.8,1.5c0,0.4,0,1.1,0,1.5c0,0.4-0.4,0.8-0.8,1.1c-0.4,0.4-0.8,0.8-1.5,0.8
	c-0.4,0.4-1.1,0.4-1.9,0.4c-0.8,0-1.5,0-1.9-0.4c-0.4,0-0.8-0.4-1.1-0.4c0,0-0.4,0-0.4-0.4c-0.4,0-0.4-0.4-0.8-0.4s-0.8-0.4-0.8-0.4
	c-0.4,0-0.4-0.4-0.4-0.4h-0.4l-0.4,0.4h-0.4l1.1-4.5h0.4c0,1.1,0,1.9,0,2.3c0,0.4,0.4,0.4,0.4,0.8c0.4,0.4,0.4,0.4,0.8,0.8
	c0.4,0.4,0.8,0.4,1.1,0.8c0.4,0.4,0.8,0.4,1.1,0.4c0.4,0,0.8,0.4,1.5,0.4c0.4,0,0.8,0,1.1,0c0.4,0,0.8-0.4,0.8-0.4
	c0.4-0.4,0.4-0.4,0.4-0.8c0-0.4,0-0.8,0-1.1c0-0.4-0.4-0.8-0.8-1.1c-0.4-0.4-0.8-0.8-1.5-1.5c-1.1-1.1-1.9-1.9-3-2.6
	c-0.4-0.4-0.8-1.1-0.8-1.5c0-0.4,0-1.1,0-1.5c0-0.4,0.4-0.8,0.8-1.1c0.4-0.4,0.8-0.8,1.1-0.8c0.4,0,1.1-0.4,1.5-0.4
	c0.8,0,1.1,0,1.9,0.4c0.8,0.4,1.5,0.8,2.6,1.1c0.4,0,0.4,0.4,0.4,0.4h0.4c0.4,0,0.4,0,0.4,0l0.4-0.4H142.3z M163.4,402.5l-0.8,3
	h-0.4c0-0.8,0-1.5-0.4-1.9c-0.4-0.4-1.1-0.8-1.9-1.1l-2.3-0.8l-2.3,9.8c0,0.4,0,0.8,0,1.1c0,0.4,0,0.4,0.4,0.8l0.4,0.4
	c0.4,0,0.4,0,0.8,0.4h0.4v0.4l-6.8-1.5v-0.4h0.4c0.4,0,0.4,0,0.8,0c0.4,0,0.4,0,0.8,0l0.4-0.4c0-0.4,0.4-0.4,0.4-1.1l2.3-9.8
	l-1.9-0.4c-0.4,0-0.8,0-1.1-0.4c-0.4,0-0.8,0-1.1,0c-0.4,0-0.4,0.4-0.8,0.4c-0.4,0.8-0.4,1.1-0.4,1.5h-0.4l0.4-3.4L163.4,402.5z
	 M183,419.9l-4.1-0.8l-4.1-7.2c-0.4,0-0.4,0-0.4,0H174h-0.4h-0.4l-0.8,3.8c0,0.4,0,0.8,0,1.1c0,0.4,0,0.4,0.4,0.8l0.4,0.4
	c0.4,0,0.4,0,0.8,0h0.8v0.4l-6.8-1.1v-0.4h0.8c0.8,0,1.1,0,1.5-0.4c0.4,0,0.4-0.8,0.4-1.5l1.5-8.3c0-0.8,0-1.5,0-1.5
	c-0.4-0.4-0.8-0.8-1.1-0.8h-0.8V404l5.7,1.1c0.8,0,1.5,0.4,2.3,0.4c0.8,0,1.1,0.4,1.5,0.4c0.4,0,0.8,0.4,1.1,0.8
	c0.4,0.4,0.8,0.4,0.8,0.8c0.4,0.4,0.4,0.8,0.4,1.1c0,0.4,0,0.8,0,1.1c0,0.8-0.8,1.5-1.5,1.9c-0.8,0.4-1.9,0.8-3,0.8l2.6,4.5
	c0.4,0.4,0.8,0.8,0.8,1.1c0.4,0.4,0.4,0.8,0.8,0.8c0.4,0.4,0.4,0.4,0.8,0.4C182.3,419.1,182.6,419.1,183,419.9z M172.8,410.8h0.4
	h0.4c0.8,0,1.5,0,1.9,0c0.8,0,1.1,0,1.5-0.4c0.4,0,0.8-0.4,1.1-0.8c0.4-0.4,0.4-0.8,0.4-1.1c0-0.4,0-0.8,0-1.1
	c0-0.4-0.4-0.8-0.4-1.1c-0.4-0.4-0.8-0.4-1.1-0.8c-0.4-0.4-0.8-0.4-1.5-0.4c-0.4,0-1.1,0-1.9,0L172.8,410.8z M201.9,409.3
	L201.9,409.3l5.7,0.4v0.4h-0.8c-0.8,0-1.1,0-1.5,0.4c0,0-0.4,0.8-0.4,1.5l-0.8,5.3c0,1.1-0.4,2.3-0.8,3c-0.4,0.4-0.4,0.8-0.8,0.8
	c-0.4,0.4-0.8,0.4-1.1,0.8c-0.4,0-1.1,0.4-1.9,0.4c-0.8,0-1.5,0-2.3,0c-0.8,0-1.5-0.4-2.3-0.4c-0.8-0.4-1.1-0.4-1.5-0.8
	c-0.4-0.4-0.8-0.8-1.1-1.1c-0.4-0.4-0.4-0.8-0.8-1.1c0-0.8,0-1.9,0-3.4l0.8-5.3c0-0.4,0-0.8,0-1.1c0-0.4,0-0.4-0.4-0.8l-0.4-0.4
	c-0.4,0-0.4,0-0.8,0h-0.8v-0.4l6.8,0.8v0.4h-0.8c-0.4,0-0.4,0-0.8,0c-0.4,0-0.4,0-0.4,0.4l-0.4,0.4c0,0.4-0.4,0.8-0.4,1.1l-0.8,5.7
	c0,0.8,0,1.1,0,1.9c0,0.4,0,1.1,0.4,1.5c0.4,0.4,0.8,0.8,1.1,1.1c0.4,0.4,1.1,0.4,2.3,0.8c0.4,0,1.1,0,1.5,0c0.4,0,0.8,0,1.5-0.4
	c0.4,0,0.8-0.4,1.1-0.4c0.4-0.4,0.8-0.4,0.8-0.8c0.4-0.4,0.8-1.5,0.8-3l0.8-5.3c0-0.8,0-1.5,0-1.5c-0.4-0.4-0.8-0.4-1.1-0.8H201.9z
	 M224.9,411.2l5.7,0.4v0.4h-0.4c-0.4,0-0.8,0-1.5,0.4c-0.4,0.4-1.1,0.8-1.9,1.5l-4.1,4.9l-0.4,3c0,0.4,0,0.8,0,1.1
	c0,0.4,0,0.4,0.4,0.8l0.4,0.4c0.4,0,0.4,0,0.8,0h0.4v0.4l-6.8-0.4v-0.4h0.8c0.4,0,0.4,0,0.8,0c0.4,0,0.4,0,0.4-0.4l0.4-0.4
	c0-0.4,0-0.8,0.4-1.1l0.4-3l-3.8-6c-0.4-0.4-0.4-0.8-0.8-0.8c0-0.4-0.4-0.4-0.4-0.4s0,0-0.4-0.4c0,0-0.4,0-0.4-0.4
	c0,0-0.4,0-0.4-0.4c-0.4,0-0.4,0-0.8,0v-0.4l6.8,0.4v0.4H220h-0.4h-0.4c0,0-0.4,0-0.4,0.4v0.4v0.4c0,0.4,0.4,0.4,0.4,0.8l3,4.5
	l3.4-3.8c0.4-0.4,0.8-1.1,0.8-1.1v-0.4c0,0,0-0.4-0.4-0.4c0,0-0.4,0-0.4-0.4C225.3,411.6,224.9,411.6,224.9,411.2z M241.1,412.7v5.3
	h3.4c0.4,0,0.8,0,1.1,0c0.4,0,0.8,0,0.8-0.4c0.4,0,0.4-0.4,0.4-0.8c0-0.4,0-0.4,0-0.8h0.4v4.5h-0.4c0-0.4,0-0.8,0-1.1
	c0-0.4,0-0.4-0.4-0.8c0,0-0.4-0.4-0.8-0.4c-0.4,0-0.8,0-1.1,0h-3.4v4.5c0,0.4,0,0.8,0,0.8c0,0.4,0,0.4,0,0.4s0.4,0,0.4,0.4
	c0,0,0.4,0,0.8,0h2.6c0.4,0,0.8,0,1.1,0c0.4,0,0.8,0,0.8,0c0.4,0,0.4,0,0.8-0.4c0,0,0.4-0.4,0.8-0.4c0.4-0.4,1.1-1.1,1.5-1.9h0.4
	l-1.5,3.8l-12.4-0.4v-0.4h0.4h0.4h0.4c0,0,0.4,0,0.4-0.4c0,0,0.4,0,0.4-0.4c0-0.4,0-0.8,0-1.1l0.4-8.7c0-0.8,0-1.5-0.4-1.5
	c-0.4-0.4-0.8-0.4-1.5-0.4h-0.4v-0.4l12.4,0.4v3h-0.4c0-0.4-0.4-0.8-0.4-1.1c0-0.4-0.4-0.4-0.4-0.8c0-0.4-0.4-0.4-0.8-0.4
	c-0.4,0-0.8,0-1.5,0L241.1,412.7z M256.2,412.3h4.5l9.8,9.8v-7.5c0-0.4,0-0.8,0-1.1c0-0.4-0.4-0.4-0.4-0.8l-0.4-0.4
	c-0.4,0-0.4,0-0.8,0h-0.8v-0.4h5.7v0.4h-0.8c-0.4,0-0.4,0-0.8,0c-0.4,0-0.4,0-0.4,0.4c0,0-0.4,0.4-0.4,0.8c0,0.4,0,0.8,0,1.1v11.3
	l-0.8-0.4L260.3,415v8.3c0,0.4,0,0.8,0,1.1s0.4,0.4,0.4,0.8l0.4,0.4c0.4,0,0.4,0,0.8,0h0.8v0.4h-5.7v-0.4h0.4c0.4,0,0.4,0,0.8,0
	c0.4,0,0.4,0,0.4-0.4c0,0,0.4-0.4,0.4-0.8s0-0.8,0-1.1v-9.4c-0.4-0.4-0.4-0.4-0.8-0.4l-0.4-0.4c0,0-0.4,0-0.4-0.4c0,0-0.4,0-0.8,0
	C256.9,412.7,256.6,412.7,256.2,412.3z M280.3,424.8L280.3,424.8l0.8-0.4c0.4,0,0.4,0,0.8,0c0.4,0,0.4,0,0.4-0.4
	c0,0,0.4-0.4,0.4-0.8c0-0.4,0-0.8,0-1.1l-0.4-8.3c0-0.8-0.4-1.5-0.4-1.5c-0.4-0.4-0.8-0.4-1.5-0.4h-0.8v-0.4l6.4-0.4
	c2.3,0,4.1,0,5.7,0.4c1.1,0.4,2.3,1.1,3,2.3c0.8,1.1,1.1,2.3,1.5,3.4c0,1.1,0,1.9-0.4,2.6c-0.4,0.8-0.8,1.5-1.5,2.3
	c-0.8,0.8-1.5,1.1-2.6,1.5c-1.1,0.4-2.3,0.8-3.8,0.8L280.3,424.8z M284.9,423.6c1.1,0,1.9,0,2.6,0c0.8,0,1.9-0.4,2.6-0.8
	c0.8-0.4,1.5-0.8,1.9-1.1c0.4-0.4,1.1-1.1,1.1-1.9c0.4-0.8,0.4-1.5,0.4-2.6c0-0.8-0.4-1.9-0.8-2.3c-0.4-0.8-0.8-1.1-1.5-1.9
	c-0.8-0.4-1.1-0.8-2.3-1.1c-0.8-0.4-1.5-0.4-2.6-0.4c-0.8,0-1.5,0-2.3,0.4L284.9,423.6z M310.9,408.6c1.1,0,1.9,0,3,0.4
	c1.1,0.4,1.9,0.8,2.6,1.1c0.8,0.4,1.5,1.1,1.9,1.9c0.4,0.8,0.8,1.5,0.8,2.6c0,1.1,0,1.9-0.4,3c-0.4,0.8-0.8,1.9-1.5,2.3
	c-0.8,0.8-1.5,1.1-2.3,1.9c-0.8,0.4-1.9,0.8-3,0.8c-1.1,0-2.3,0-3,0c-1.1-0.4-1.9-0.8-2.6-1.1c-0.8-0.4-1.5-1.1-1.9-1.9
	c-0.4-0.8-0.8-1.9-0.8-2.6c0-1.1,0-1.9,0.4-2.6c0.4-0.8,0.8-1.5,1.5-2.3c0.8-0.8,1.5-1.1,2.3-1.9
	C308.6,408.9,309.7,408.9,310.9,408.6z M310.9,409.3c-0.8,0-1.5,0.4-2.3,0.8c-0.8,0.4-1.1,0.8-1.5,1.5c-0.4,0.8-0.8,1.1-0.8,1.9
	c0,0.8,0,1.5,0,2.6c0,0.8,0.4,1.9,0.8,2.6c0.4,0.8,0.8,1.5,1.1,1.9c0.4,0.4,1.1,0.8,1.9,1.1c0.8,0.4,1.5,0.4,2.3,0.4
	c0.8,0,1.5-0.4,1.9-0.4c0.8-0.4,1.1-0.8,1.5-1.1c0.4-0.4,0.8-1.1,0.8-1.9c0-0.8,0.4-1.9,0-2.6c0-1.1-0.4-1.9-0.8-2.6
	c-0.4-0.8-0.8-1.5-1.1-1.9c-0.4-0.4-1.1-0.8-1.9-1.1C312.4,409.3,311.6,409.3,310.9,409.3z M342.2,404.4L342.2,404.4l5.7-1.5v0.4
	h-0.8c-0.8,0-1.1,0.4-1.1,0.8c0,0.4,0,0.8,0,1.5l1.1,5.3c0.4,1.1,0.4,2.3,0,3c0,0.4-0.4,0.8-0.4,1.1c0,0.4-0.8,0.8-1.1,1.1
	c-0.4,0.4-0.8,0.8-1.5,0.8c-0.8,0.4-1.1,0.4-2.3,0.8c-0.8,0-1.5,0.4-2.3,0.4c-0.8,0-1.1,0-1.9-0.4c-0.4,0-1.1-0.4-1.1-0.8
	c-0.4-0.4-0.8-0.8-0.8-1.1c-0.4-0.4-0.8-1.5-1.1-3l-0.8-5.3c0-0.4,0-0.8-0.4-1.1c0-0.4-0.4-0.4-0.4-0.4s-0.4,0-0.8-0.4
	c-0.4,0-0.4,0-0.8,0h-0.8v-0.4l6.8-1.1v0.4h-0.8c-0.4,0-0.4,0-0.8,0.4c-0.4,0-0.4,0.4-0.4,0.4s0,0.4-0.4,0.8c0,0.4,0,0.8,0,1.1
	l1.1,5.7c0,0.8,0.4,1.1,0.4,1.5c0.4,0.4,0.4,1.1,0.8,1.5c0.4,0.4,0.8,0.8,1.5,0.8c0.8,0,1.5,0,2.3,0c0.4,0,1.1-0.4,1.5-0.4
	c0.4,0,0.8-0.4,1.1-0.8c0.4-0.4,0.8-0.4,0.8-0.8c0.4-0.4,0.4-0.8,0.4-0.8c0.4-0.8,0-1.5,0-3l-1.1-5.3c0-0.8-0.4-1.1-0.8-1.5
	c-0.4-0.4-0.8-0.4-1.5-0.4L342.2,404.4z M352.4,402.1l4.1-1.1l12.1,7.2l-1.9-7.5c0-0.4-0.4-0.8-0.4-1.1c0-0.4-0.4-0.4-0.4-0.4
	s-0.4,0-0.8,0c-0.4,0-0.4,0-0.8,0h-0.4v-0.4l5.3-1.5v0.4H369c-0.4,0-0.4,0-0.8,0.4c-0.4,0-0.4,0.4-0.4,0.4s0,0.4,0,0.8
	c0,0.4,0,0.8,0,1.1l3,10.9h-0.4l-12.8-7.5l2.3,7.9c0,0.4,0.4,0.8,0.4,1.1c0,0.4,0.4,0.4,0.4,0.4s0.4,0,0.8,0c0.4,0,0.4,0,0.8,0h0.4
	v0.4l-5.3,1.5v-0.4h0.4c0.4,0,0.4,0,0.8-0.4c0.4,0,0.4-0.4,0.4-0.4s0-0.4,0-0.8c0-0.4,0-0.8,0-1.1l-2.3-9.1c-0.4,0-0.4-0.4-0.8-0.4
	c0,0-0.4,0-0.4-0.4H355c0,0-0.4,0-0.8,0C353.5,402.1,353.1,402.1,352.4,402.1z M400.3,401.4l-4.1,1.5l-7.2-4.1c0,0-0.4,0-0.4,0.4
	h-0.4h-0.4h-0.4l1.5,3.8c0,0.4,0.4,0.8,0.4,1.1c0,0.4,0.4,0.4,0.4,0.4s0.4,0,0.8,0c0.4,0,0.4,0,0.8-0.4l0.8-0.4v0.4l-6.4,2.3v-0.4
	l0.8-0.4c0.8-0.4,1.1-0.4,1.1-1.1c0-0.4,0-0.8-0.4-1.5l-3-7.9c-0.4-0.8-0.4-1.1-0.8-1.5c-0.4,0-0.8,0-1.5,0l-0.8,0.4v-0.4l5.7-1.9
	c0.8-0.4,1.5-0.4,2.3-0.8c0.8,0,1.1-0.4,1.5-0.4c0.4,0,0.8,0,1.1,0c0.4,0,0.8,0,1.1,0.4c0.4,0,0.8,0.4,0.8,0.8
	c0.4,0.4,0.4,0.8,0.8,0.8c0.4,0.8,0.4,1.5,0,2.3c-0.4,0.8-1.1,1.5-2.3,2.3l4.5,2.6c0.4,0.4,1.1,0.4,1.5,0.8c0.4,0,0.8,0.4,1.1,0.4
	c0.4,0,0.8,0,1.1,0C399.1,401.4,399.5,401,400.3,401.4z M387.1,398.7h0.4h0.4c0.8-0.4,1.5-0.4,1.9-0.8c0.4-0.4,0.8-0.8,1.1-1.1
	c0.4-0.4,0.4-0.8,0.4-1.1c0-0.4,0-0.8,0-1.1c0-0.4-0.4-0.8-0.8-1.1c-0.4-0.4-0.8-0.4-1.1-0.8c-0.4,0-0.8,0-1.1,0s-0.8,0-1.5,0.4
	c-0.4,0-1.1,0.4-1.5,0.8L387.1,398.7z M405.2,385.5l2.3,4.9l3.4-1.5c0.4-0.4,0.8-0.4,1.1-0.8c0.4-0.4,0.4-0.4,0.4-0.8
	c0-0.4,0-0.4,0-0.8s0-0.4-0.4-0.8h0.4l1.9,4.1h-0.4c-0.4-0.4-0.4-0.8-0.8-0.8c0-0.4-0.4-0.4-0.8-0.4c-0.4,0-0.4,0-0.8,0
	c-0.4,0-0.8,0.4-1.1,0.4l-3.4,1.5l1.9,4.1c0,0.4,0.4,0.4,0.4,0.8l0.4,0.4h0.4c0,0,0.4,0,0.8-0.4l2.6-1.1c0.4,0,0.8-0.4,1.1-0.4
	c0.4,0,0.4-0.4,0.8-0.4l0.4-0.4c0,0,0.4-0.4,0.4-0.8c0.4-0.4,0.4-1.1,0.8-2.3l0.4-0.4v3.8l-11.3,4.9v-0.4l0.4-0.4c0,0,0.4,0,0.4-0.4
	l0.4-0.4l0.4-0.4v-0.4c0-0.4,0-0.8-0.4-1.1l-3.4-7.9c-0.4-0.8-0.8-1.1-0.8-1.1c-0.4,0-0.8,0-1.5,0.4l-0.4,0.4v-0.4l11.3-4.9l1.1,2.6
	h-0.4c-0.4-0.4-0.8-0.8-0.8-0.8c-0.4-0.4-0.4-0.4-0.8-0.4c-0.4,0-0.8,0-0.8,0c-0.4,0-0.8,0.4-1.1,0.4L405.2,385.5z M430.8,386.3
	L430.8,386.3l-6,3.4v-0.4l0.4-0.4c0.4,0,0.4-0.4,0.8-0.4l0.4-0.4c0,0,0-0.4,0-0.8c0-0.4-0.4-0.8-0.4-1.1l-4.1-7.5
	c0-0.4-0.4-0.4-0.4-0.8l-0.4-0.4h-0.4h-0.4c-0.4,0-0.8,0-1.1,0.4l-0.4,0.4V378l6-3.4v0.4l-0.4,0.4c-0.4,0-0.4,0.4-0.8,0.4l-0.4,0.4
	c0,0,0,0.4,0,0.8c0,0.4,0.4,0.8,0.4,1.1l4.1,7.5c0,0.4,0.4,0.4,0.4,0.8l0.4,0.4h0.4h0.4c0.4,0,0.8,0,1.1-0.4H430.8z M428.9,372.7
	l3.4-2.6l14,2.3l-4.5-6.4c-0.4-0.4-0.4-0.8-0.8-0.8c-0.4,0-0.4-0.4-0.8-0.4c-0.4,0-0.4,0-0.8,0c-0.4,0-0.4,0.4-0.8,0.4l-0.4,0.4
	l-0.4-0.4l4.5-3.4l0.4,0.4l-0.4,0.4c-0.4,0-0.4,0.4-0.4,0.4l-0.4,0.4c0,0.4,0,0.4,0,0.8c0,0.4,0.4,0.4,0.4,0.8l6.4,9.1l-0.4,0.4
	l-14.7-2.6l4.9,6.8c0.4,0.4,0.4,0.8,0.8,0.8c0.4,0,0.4,0.4,0.8,0.4c0.4,0,0.4,0,0.4,0c0.4,0,0.4-0.4,0.8-0.4l0.4-0.4l0.4,0.4
	l-4.5,3.4l-0.4-0.4l0.4-0.4c0.4,0,0.4-0.4,0.4-0.4l0.4-0.4c0-0.4,0-0.4,0-0.8c0-0.4-0.4-0.4-0.4-0.8l-5.3-7.5c-0.4,0-0.8,0-0.8,0
	c-0.4,0-0.4,0-0.4,0h-0.4c0,0-0.4,0-0.8,0.4C429.7,372.7,429.3,372.7,428.9,372.7z"/>
<path class="st4" d="M451.9,353.5c0.8-0.8,1.5-1.1,2.3-1.9c0.8-0.4,1.9-0.8,2.6-0.8c0.8,0,1.9,0,2.6,0.4c0.8,0.4,1.5,0.8,2.3,1.5
	c0.8,0.8,1.1,1.5,1.5,2.3c0.4,0.8,0.4,1.9,0.4,2.6c0,1.1-0.4,1.9-0.8,3c-0.4,0.8-1.1,1.9-1.9,2.6c-0.8,0.8-1.5,1.5-2.6,1.9
	c-0.8,0.4-1.9,0.8-2.6,0.8c-0.8,0-1.9,0-2.6-0.4c-0.8-0.4-1.9-0.8-2.6-1.5c-0.8-0.8-1.1-1.5-1.5-2.3c-0.4-0.8-0.4-1.9-0.4-2.6
	c0-0.8,0.4-1.9,0.8-3C450.8,355,451.2,354.2,451.9,353.5 M452.3,353.9c-0.8,0.8-1.1,1.1-1.1,1.9c-0.4,0.8-0.4,1.1-0.4,1.9
	c0,0.8,0.4,1.5,0.8,1.9c0.4,0.8,0.8,1.5,1.5,1.9c0.8,0.8,1.5,1.1,1.9,1.5c0.8,0.4,1.5,0.8,2.3,0.8c0.8,0,1.5,0,1.9-0.4
	c0.8-0.4,1.1-0.8,1.9-1.1c0.4-0.4,0.8-1.1,1.1-1.9c0.4-0.8,0.4-1.1,0.4-1.9c0-0.8-0.4-1.5-0.8-2.3c-0.4-0.8-0.8-1.5-1.5-2.3
	c-0.8-0.8-1.5-1.1-2.3-1.5c-0.8-0.4-1.5-0.8-2.3-0.8c-0.8,0-1.5,0-1.9,0.4C453.8,353.1,453.1,353.5,452.3,353.9"/>
</svg>
