<?xml version="1.0" encoding="utf-8"?>
<!-- Generator: Adobe Illustrator 24.0.2, SVG Export Plug-In . SVG Version: 6.00 Build 0)  -->
<svg version="1.1" id="Capa_1" xmlns="http://www.w3.org/2000/svg" xmlns:xlink="http://www.w3.org/1999/xlink" x="0px" y="0px"
	 width="320px" height="600.1px" viewBox="0 0 320 600.1" style="enable-background:new 0 0 320 600.1;" xml:space="preserve">
<defs>
	<linearGradient id="MyGradient">
		<stop offset="5%" stop-color="#F3D863" />
		<stop offset="95%" stop-color="#D8AC00" />
	</linearGradient>
</defs>
<style type="text/css">
	:root{
		--widthLine : 1;
		--colorLine : url(#MyGradient);
		--colorLine2 : #fff;
		--time : 0.1s;
	}
	.fondo{fill-rule:evenodd;clip-rule:evenodd;fill:#000;}
		@keyframes a4{0%{stroke-dashoffset:4px;opacity:1;}100%{stroke-dashoffset:0px;opacity:1;}}
		@keyframes f4{0%{stroke-dashoffset:4px;opacity:1;}100%{stroke-dashoffset:0px;opacity:1;}}
		@keyframes a24{0%{stroke-dashoffset:24px;opacity:1;}100%{stroke-dashoffset:0px;opacity:1;}}
		@keyframes f24{0%{stroke-dashoffset:24px;opacity:1;}100%{stroke-dashoffset:0px;opacity:1;}}
		@keyframes f21{0%{stroke-dashoffset:21px;opacity:1;}100%{stroke-dashoffset:0px;opacity:1;}}
		@keyframes a28{0%{stroke-dashoffset:28px;opacity:1;}100%{stroke-dashoffset:0px;opacity:1;}}
		@keyframes f28{0%{stroke-dashoffset:28px;opacity:1;}100%{stroke-dashoffset:0px;opacity:1;}}
		@keyframes a31{0%{stroke-dashoffset:31px;opacity:1;}100%{stroke-dashoffset:0px;opacity:1;}}
		@keyframes f31{0%{stroke-dashoffset:31px;opacity:1;}100%{stroke-dashoffset:0px;opacity:1;}}
		@keyframes a33{0%{stroke-dashoffset:33px;opacity:1;}100%{stroke-dashoffset:0px;opacity:1;}}
		@keyframes f36{0%{stroke-dashoffset:36px;opacity:1;}100%{stroke-dashoffset:0px;opacity:1;}}
		@keyframes a38{0%{stroke-dashoffset:38px;opacity:1;}100%{stroke-dashoffset:0px;opacity:1;}}
		@keyframes f38{0%{stroke-dashoffset:38px;opacity:1;}100%{stroke-dashoffset:0px;opacity:1;}}
		@keyframes a41{0%{stroke-dashoffset:41px;opacity:1;}100%{stroke-dashoffset:0px;opacity:1;}}
		@keyframes a44{0%{stroke-dashoffset:44px;opacity:1;}100%{stroke-dashoffset:0px;opacity:1;}}
		@keyframes f67{0%{stroke-dashoffset:67px;opacity:1;}100%{stroke-dashoffset:0px;opacity:1;}}
		@keyframes a74{0%{stroke-dashoffset:74px;opacity:1;}100%{stroke-dashoffset:0px;opacity:1;}}
		@keyframes f78{0%{stroke-dashoffset:78px;opacity:1;}100%{stroke-dashoffset:0px;opacity:1;}}
		@keyframes a80{0%{stroke-dashoffset:80px;opacity:1;}100%{stroke-dashoffset:0px;opacity:1;}}
		@keyframes f80{0%{stroke-dashoffset:80px;opacity:1;}100%{stroke-dashoffset:0px;opacity:1;}}
		@keyframes f83{0%{stroke-dashoffset:83px;opacity:1;}100%{stroke-dashoffset:0px;opacity:1;}}
		@keyframes a89{0%{stroke-dashoffset:89px;opacity:1;}100%{stroke-dashoffset:0px;opacity:1;}}
		@keyframes a105{0%{stroke-dashoffset:105px;opacity:1;}100%{stroke-dashoffset:0px;opacity:1;}}
		@keyframes f201{0%{stroke-dashoffset:201px;opacity:1;}100%{stroke-dashoffset:0px;opacity:1;}}
		@keyframes opacity{0%{opacity: 0;}100%{opacity: 1;}}
		@keyframes translateX{0%{transform: translateX(-600px);}50%{transform: translateX(20px);}100%{transform: translateX(0px);}}
/* *********************************** */
	.a01n,.a02o,.a03s,.a04o,.a05t,.a06t,.a07r,.a08o,.a09s,.a10n,.a11o{fill:none; stroke-width: var(--widthLine) ; stroke:var(--colorLine);opacity: 0;}
	.a01n{stroke-dasharray: 105px;animation: a105 var(--time) forwards;}
	.a02o{stroke-dasharray: 28px;  animation: a28 var(--time) forwards calc( var(--time) * 1 ) ;}
	.a03s{stroke-dasharray: 31px;  animation: a31 var(--time) forwards calc( var(--time) * 2 ) ;}
	.a04o{stroke-dasharray: 28px;  animation: a28 var(--time) forwards calc( var(--time) * 3 ) ;}
	.a05t{stroke-dasharray: 44px;  animation: a44 var(--time) forwards calc( var(--time) * 4 ) ;}
	.a06t{stroke-dasharray: 24px;  animation: a24 var(--time) forwards calc( var(--time) * 5 ) ;}
	.a07r{stroke-dasharray: 24px;  animation: a24 var(--time) forwards calc( var(--time) * 6 ) ;}
	.a08o{stroke-dasharray: 28px;  animation: a28 var(--time) forwards calc( var(--time) * 7 ) ;}
	.a09s{stroke-dasharray: 31px;  animation: a31 var(--time) forwards calc( var(--time) * 8 ) ;}
	.a10n{stroke-dasharray: 31px;  animation: a31 var(--time) forwards calc( var(--time) * 10 ) ;}
	.a11o{stroke-dasharray: 28px;  animation: a28 var(--time) forwards calc( var(--time) * 11 ) ;}
/* *********************************** */
	.b01d,.b02e,.b03p,.b04e,.b05n,.b06d,.b07e,.b08m,.b09o,.b10s,.b11d,.b12e,.b13l,.b14a{fill:none; stroke-width: var(--widthLine) ; stroke:var(--colorLine);opacity: 0;}
	.b01d{stroke-dasharray: 80px;  animation: a80 var(--time) forwards calc( var(--time) * 13 ) ;}
	.b02e{stroke-dasharray: 28px;  animation: a28 var(--time) forwards calc( var(--time) * 14 ) ;}
	.b03p{stroke-dasharray: 80px;  animation: a80 var(--time) forwards calc( var(--time) * 15 ) ;}
	.b04e{stroke-dasharray: 28px;  animation: a28 var(--time) forwards calc( var(--time) * 16 ) ;}
	.b05n{stroke-dasharray: 31px;  animation: a31 var(--time) forwards calc( var(--time) * 17 ) ;}
	.b06d{stroke-dasharray: 80px;  animation: a80 var(--time) forwards calc( var(--time) * 18 ) ;}
	.b07e{stroke-dasharray: 28px;  animation: a28 var(--time) forwards calc( var(--time) * 19 ) ;}
	.b08m{stroke-dasharray: 44px;  animation: a44 var(--time) forwards calc( var(--time) * 20 ) ;}
	.b09o{stroke-dasharray: 28px;  animation: a28 var(--time) forwards calc( var(--time) * 21 ) ;}
	.b10s{stroke-dasharray: 31px;  animation: a31 var(--time) forwards calc( var(--time) * 22 ) ;}
	.b11d{stroke-dasharray: 80px;  animation: a80 var(--time) forwards calc( var(--time) * 24 ) ;}
	.b12e{stroke-dasharray: 28px;  animation: a28 var(--time) forwards calc( var(--time) * 25 ) ;}
	.b13l{stroke-dasharray: 38px;  animation: a38 var(--time) forwards calc( var(--time) * 27 ) ;}
	.b14a{stroke-dasharray: 33px;  animation: a33 var(--time) forwards calc( var(--time) * 28 ) ;}
/* *********************************** */
	.c01m,.c02a,.c03l,.c04a,.c05o,.c06b,.c07u,.c08e,.c09n,.c10a,.c11s,.c12u,.c13e,.c14r,.c15t,.c16t,.c17e{fill:none; stroke-width: var(--widthLine) ; stroke:var(--colorLine);opacity: 0;}
	.c01m{stroke-dasharray: 44px;  animation: a44 var(--time) forwards calc( var(--time) * 30 ) ;}
	.c02a{stroke-dasharray: 33px;  animation: a33 var(--time) forwards calc( var(--time) * 31 ) ;}
	.c03l{stroke-dasharray: 38px;  animation: a38 var(--time) forwards calc( var(--time) * 32 ) ;}
	.c04a{stroke-dasharray: 33px;  animation: a33 var(--time) forwards calc( var(--time) * 33 ) ;}
	.c05o{stroke-dasharray: 28px;  animation: a28 var(--time) forwards calc( var(--time) * 35 ) ;}
	.c06b{stroke-dasharray: 74px;  animation: a74 var(--time) forwards calc( var(--time) * 37 ) ;}
	.c07u{stroke-dasharray: 33px;  animation: a33 var(--time) forwards calc( var(--time) * 38 ) ;}
	.c08e{stroke-dasharray: 28px;  animation: a28 var(--time) forwards calc( var(--time) * 39 ) ;}
	.c09n{stroke-dasharray: 31px;  animation: a31 var(--time) forwards calc( var(--time) * 40 ) ;}
	.c10a{stroke-dasharray: 33px;  animation: a33 var(--time) forwards calc( var(--time) * 41 ) ;}
	.c11s{stroke-dasharray: 31px;  animation: a31 var(--time) forwards calc( var(--time) * 43 ) ;}
	.c12u{stroke-dasharray: 33px;  animation: a33 var(--time) forwards calc( var(--time) * 44 ) ;}
	.c13e{stroke-dasharray: 28px;  animation: a28 var(--time) forwards calc( var(--time) * 45 ) ;}
	.c14r{stroke-dasharray: 24px;  animation: a24 var(--time) forwards calc( var(--time) * 46 ) ;}
	.c15t{stroke-dasharray: 44px;  animation: a44 var(--time) forwards calc( var(--time) * 47 ) ;}
	.c16t{stroke-dasharray: 24px;  animation: a24 var(--time) forwards calc( var(--time) * 48 ) ;}
	.c17e{stroke-dasharray: 28px;  animation: a28 var(--time) forwards calc( var(--time) * 49 ) ;}
/* *********************************** */
	.d01s,.d02i,.d03i,.d04n,.d05o,.d06d,.d07e,.d08l,.d09a,.d11e,.d10f,.d11f,.d12f{fill:none; stroke-width: var(--widthLine) ; stroke:var(--colorLine);opacity: 0;}
	.d01s{stroke-dasharray: 31px;  animation: a31 var(--time) forwards calc( var(--time) * 55 ) ;}
	.d02i{stroke-dasharray: 24px;  animation: a24 var(--time) forwards calc( var(--time) * 56 ) ;}
	.d03i{stroke-dasharray: 4px;   animation: a4  var(--time) forwards calc( var(--time) * 57 ) ;}
	.d04n{stroke-dasharray: 31px;  animation: a31 var(--time) forwards calc( var(--time) * 58 ) ;}
	.d05o{stroke-dasharray: 28px;  animation: a28 var(--time) forwards calc( var(--time) * 59 ) ;}
	.d06d{stroke-dasharray: 80px;  animation: a80 var(--time) forwards calc( var(--time) * 64 ) ;}
	.d07e{stroke-dasharray: 28px;  animation: a28 var(--time) forwards calc( var(--time) * 65 ) ;}
	.d08l{stroke-dasharray: 38px;  animation: a38 var(--time) forwards calc( var(--time) * 67 ) ;}
	.d09a{stroke-dasharray: 28px;  animation: a28 var(--time) forwards calc( var(--time) * 68 ) ;}
	.d10f{stroke-dasharray: 41px;  animation: a41 var(--time) forwards calc( var(--time) * 72 ) ;stroke:#fff;}
	.d11f{stroke-dasharray: 33px;  animation: a33 var(--time) forwards calc( var(--time) * 73 ) ;stroke:#fff;}
	.d12f{stroke-dasharray: 24px;  animation: a24 var(--time) forwards calc( var(--time) * 74 ) ;stroke:#fff;}
	.d11e{stroke-dasharray: 44px;  animation: a44 var(--time) forwards calc( var(--time) * 75 ) ;stroke:#fff;}
/* *********************************** */
	.fir01a,.fir02a,.fir03p,.fir04x,.fir05a,.fir06a,.fir07n,.fir08g,.fir09e,.fir10l,.fir11b,.fir12b,.fir13e,.fir14r,.fir15i,.fir16i,.fir17a,.fir18n,.fir19z{fill:none; stroke-width: var(--widthLine) ; stroke:var(--colorLine2);opacity: 0;}
	.fir01a{stroke-dasharray: 67px;  animation: f67 var(--time) forwards calc( var(--time) * 78 ) ;}
	.fir02a{stroke-dasharray: 36px;  animation: f36 var(--time) forwards calc( var(--time) * 79 ) ;}
	.fir03p{stroke-dasharray: 78px;  animation: f78 var(--time) forwards calc( var(--time) * 80 ) ;}
	.fir04x{stroke-dasharray: 4px;  animation:  f4  var(--time) forwards calc( var(--time) * 81 ) ;}
	.fir05a{stroke-dasharray: 67px;  animation: f67 var(--time) forwards calc( var(--time) * 82 ) ;}
	.fir06a{stroke-dasharray: 36px;  animation: f36 var(--time) forwards calc( var(--time) * 83 ) ;}
	.fir07n{stroke-dasharray: 31px;  animation: f31 var(--time) forwards calc( var(--time) * 84 ) ;}
	.fir08g{stroke-dasharray: 80px;  animation: f80 var(--time) forwards calc( var(--time) * 85 ) ;}
	.fir09e{stroke-dasharray: 28px;  animation: f28 var(--time) forwards calc( var(--time) * 86 ) ;}
	.fir10l{stroke-dasharray: 38px;  animation: f38 var(--time) forwards calc( var(--time) * 87 ) ;}
	.fir11b{stroke-dasharray: 83px;  animation: f83 var(--time) forwards calc( var(--time) * 88 ) ;}
	.fir12b{stroke-dasharray: 21px;  animation: f21 var(--time) forwards calc( var(--time) * 89 ) ;}
	.fir13e{stroke-dasharray: 28px;  animation: f28 var(--time) forwards calc( var(--time) * 90 ) ;}
	.fir14r{stroke-dasharray: 24px;  animation: f24 var(--time) forwards calc( var(--time) * 91 ) ;}
	.fir15i{stroke-dasharray: 24px;  animation: f24 var(--time) forwards calc( var(--time) * 92 ) ;}
	.fir16i{stroke-dasharray: 4px;  animation:  f4  var(--time) forwards calc( var(--time) * 93 ) ;}
	.fir17a{stroke-dasharray: 36px;  animation: f36 var(--time) forwards calc( var(--time) * 94 ) ;}
	.fir18n{stroke-dasharray: 31px;  animation: f31 var(--time) forwards calc( var(--time) * 95 ) ;}
	.fir19z{stroke-dasharray: 201px;  animation: f201 0.5s forwards calc( var(--time) * 99 ) ; stroke:var(--colorLine)}
/******************/
	.logo01{fill-rule:evenodd;clip-rule:evenodd;fill:#7C232E;}
	.logo02{fill-rule:evenodd;clip-rule:evenodd;fill:#FFFFFF;}
	.logo03{fill:none;stroke:#000000;stroke-width:7.737457e-02;stroke-miterlimit:22.9256;}
	.logo04{fill-rule:evenodd;clip-rule:evenodd;fill:#304574;}
	.logo05{fill-rule:evenodd;clip-rule:evenodd;fill:#BDBEC0;}
	.logo06{fill-rule:evenodd;clip-rule:evenodd;fill:#F05523;}
	.logo07{fill-rule:evenodd;clip-rule:evenodd;fill:#F48534;}
	.logo02,.logo03,.logo04,.logo05,.logo06,.logo07{opacity: 0;animation: opacity 1s forwards calc( var(--time) * 105 ) ;}
	.link01{fill:#fff;transform: translateX(-600px);animation: translateX 1s forwards calc( var(--time) * 110 ) ;}
</style>
<rect x="0" y="0" class="fondo" width="320" height="600"/>
<g id="uno">
	<path class="a11o" d="M223.6,98c-6.6,9.7,4.2,9.5,2.7,1.7c-0.3-1.3-2.7,0,0,0.7c2.6,0.7,5.1-0.1,7.7-2.1"/>
	<path class="a10n" d="M207.7,97.7c-1.1,2.2-3,11.1,1.6,4.2c2.9-5.1,4.6-4.8,5.6-1.7c1,3.4,4.2,1.9,8.6-2.3"/>
	<path class="a09s" d="M188.9,95.7c-9.3,0.3-3.6,5.8-2.1,7.7c0.9,1.1-2.4,2.8-3.2,2.6c-3.9-0.4,6.4-5.1,9.7-7.9"/>
	<path class="a08o" d="M173.2,98c-6.6,9.7,4.2,9.5,2.7,1.7c-0.3-1.3-2.7,0,0,0.7c2.6,0.7,5.1-0.1,7.7-2.1"/>
	<path class="a07r" d="M161.3,98.2c-5,18.6,2.9-5.4,5.1-0.7c0.6,1.2,1.5,3.4,3.7,0.9"/>
	<path class="a06t" d="M141,90.4c1-3.1,12.6-4.2,22.1-5.7"/>
	<path class="a05t" d="M155.2,77.7c-4.8,14.3-13.2,42.6,6,20.5"/>
	<path class="a04o" d="M138.4,98c-6.6,9.7,4.2,9.5,2.7,1.7c-0.3-1.3-2.7,0,0,0.7c2.6,0.7,5.1-0.1,7.7-2.1"/>
	<path class="a03s" d="M133.4,95.7c-9.3,0.3-3.6,5.8-2.1,7.7c0.9,1.1-2.4,2.8-3.2,2.6c-3.9-0.4,6.4-5.1,9.7-7.9"/>
	<path class="a02o" d="M117.6,98c-6.6,9.7,4.2,9.5,2.7,1.7c-0.3-1.3-2.7,0,0,0.7c2.6,0.7,5.1-0.1,7.7-2.1"/>
	<path class="a01n" d="M87.3,95c-8.8-2.3,17.2-24.6,8.9-0.2c-5.4,16.5-2.4,14.7,4,0.3c8.8-19.7,12.9-17.2,8.4,0.1
		c-3.2,12.8-1.7,15.4,1.5,12.9"/>
</g>
<g id="dos">
	<path class="b01d" d="M46.2,148.8c-11.7,3.2-8.1,15.8-0.7,1.6c2.7-5.2,4.9-10.4,6.8-15.7c0.4-1.2,2.6-5.8,1.7-1.4
		c-0.2,0.8-0.5,2-0.9,3.4c-7.7,26.3-0.3,21.5,6.8,14.5"/>
	<path class="b02e" d="M60,151.6c9-1.9,3.4-5,0.6-1.1c-4.8,6.9,6.4,4.1,11.8,0.3"/>
	<path class="b03p" d="M72.4,150.8c0.2,3.6-0.8,10.2-2.2,17.4c-3,9.4-1.9,0.3,0.2-5c1.6-3.9,3-8,5-11.6c4.3-6.1,6.7-2,5,2.5
		c-2.9,7.3-11.7,4.4-0.1-0.7c2.2-1,4.6-1.8,7-2.6"/>
	<path class="b04e" d="M88,151.6c9-1.9,3.4-5,0.6-1.1c-4.8,6.9,6.4,4.1,11.8,0.3"/>
	<path class="b05n" d="M100.8,150.2c-1.1,2.2-3,11.1,1.6,4.2c2.9-5.1,4.6-4.8,5.6-1.7c1,3.4,4.2,1.9,8.6-2.3"/>
	<path class="b06d" d="M121.1,148.8c-11.7,3.2-8.1,15.8-0.7,1.6c2.7-5.2,4.9-10.4,6.8-15.7c0.4-1.2,2.6-5.8,1.7-1.4
		c-0.2,0.8-0.5,2-0.9,3.4c-7.7,26.3-0.3,21.5,6.8,14.5"/>
	<path class="b07e" d="M135.1,151.6c9-1.9,3.4-5,0.6-1.1c-4.8,6.9,6.4,4.1,11.8,0.3"/>
	<path class="b08m" d="M148.3,150.6c-2.7,8.2-2.9,10.4,3.1,0.8c6.9-11.2-0.1,10.1,7.6,0.5c5.2-7.7,0.3,6.4,10.2-0.6"/>
	<path class="b09o" d="M169.3,150.6c-6.6,9.7,4.2,9.5,2.7,1.7c-0.3-1.3-2.7,0,0,0.7c2.6,0.7,5.1-0.1,7.7-2.1"/>
	<path class="b10s" d="M185.7,148.3c-9.3,0.3-3.6,5.8-2.1,7.7c0.9,1.1-2.4,2.8-3.2,2.6c-3.9-0.4,6.4-5.1,9.7-7.9"/>
	<path class="b11d" d="M208.5,148.8c-11.7,3.2-8.1,15.8-0.7,1.6c2.7-5.2,4.9-10.4,6.8-15.7c0.4-1.2,2.6-5.8,1.7-1.4
		c-0.2,0.8-0.5,2-0.9,3.4c-7.7,26.3-0.3,21.5,6.8,14.5"/>
	<path class="b12e" d="M222.5,151.6c9-1.9,3.4-5,0.6-1.1c-4.8,6.9,6.4,4.1,11.8,0.3"/>
	<path class="b13l" d="M253.3,133.6c-6.5,20.3-9.1,34.1,5.4,18.9"/>
	<path class="b14a" d="M264.6,149.7c-6-2.5-8.6,11.7-1.5,1.9c3.6-5,2.1,0.2,2.7,2.3c1.1,3.6,5.5,0.5,8.8-3.3"/>
</g>
<g id="tres">
	<path class="c01m" d="M25.2,200.2c-2.7,8.2-2.9,10.4,3.1,0.8c6.9-11.2-0.1,10.1,7.6,0.5c5.2-7.7,0.3,6.4,10.2-0.6"/>
	<path class="c02a" d="M50.6,199.4c-6-2.5-8.6,11.7-1.5,1.9c3.6-5,2.1,0.2,2.7,2.3c1.1,3.6,5.5,0.5,8.8-3.3"/>
	<path class="c03l" d="M66,183.2c-6.5,20.3-9.1,34.1,5.4,18.9"/>
	<path class="c04a" d="M77.4,199.4c-6-2.5-8.6,11.7-1.5,1.9c3.6-5,2.1,0.2,2.7,2.3c1.1,3.6,5.5,0.5,8.8-3.3"/>
	<path class="c05o" d="M101.1,200.2c-6.6,9.7,4.2,9.5,2.7,1.7c-0.3-1.3-2.7,0,0,0.7c2.6,0.7,5.1-0.1,7.7-2.1"/>
	<path class="c06b" d="M132.1,182.2c-4.1,7.8-7.2,15.6-8.2,23.5c-0.7,9.5,2.7-4.4,7.1-7c2.6-1.5,4,0.7,2.2,4.8
		c-4.6,11-12.9,1.2,8.2-3.2"/>
	<path class="c07u" d="M141.9,200.1c-3.1,10,2.7,4.5,5.3-0.2c1.7-3.2,2.2-1.8,0.9,2.7c-0.9,4.7,2.8,3.3,8.9-1.6"/>
	<path class="c08e" d="M157.4,201.2c9-1.9,3.4-5,0.6-1.1c-4.8,6.9,6.4,4.1,11.8,0.3"/>
	<path class="c09n" d="M170.2,199.8c-1.1,2.2-3,11.1,1.6,4.2c2.9-5.1,4.6-4.8,5.6-1.7c1,3.4,4.2,1.9,8.6-2.3"/>
	<path class="c10a" d="M190.7,199.4c-6-2.5-8.6,11.7-1.5,1.9c3.6-5,2.1,0.2,2.7,2.3c1.1,3.6,5.5,0.5,8.8-3.3"/>
	<path class="c11s" d="M219.6,197.9c-9.3,0.3-3.6,5.8-2.1,7.7c0.9,1.1-2.4,2.8-3.2,2.6c-3.9-0.4,6.4-5.1,9.7-7.9"/>
	<path class="c12u" d="M224.4,200.1c-3.1,10,2.7,4.5,5.3-0.2c1.7-3.2,2.2-1.8,0.9,2.7c-0.9,4.7,2.8,3.3,8.9-1.6"/>
	<path class="c13e" d="M240.1,201.2c9-1.9,3.4-5,0.6-1.1c-4.8,6.9,6.4,4.1,11.8,0.3"/>
	<path class="c14r" d="M252.5,200.4c-5,18.6,2.9-5.4,5.1-0.7c0.6,1.2,1.5,3.4,3.7,0.9"/>
	<path class="c15t" d="M269.7,179.9c-4.8,14.3-13.2,42.6,6,20.5"/>
	<path class="c16t" d="M255.5,192.6c1-3.1,12.6-4.2,22.1-5.7"/>
	<path class="c17e" d="M275.3,201.2c9-1.9,3.4-5,0.6-1.1c-4.8,6.9,6.4,4.1,11.8,0.3"/>
</g>
<g id="cuatro">
	<path class="d01s" d="M78.8,248.5c-9.3,0.3-3.6,5.8-2.1,7.7c0.9,1.1-2.4,2.8-3.2,2.6c-3.9-0.4,6.4-5.1,9.7-7.9"/>
	<path class="d02i" d="M84.9,250.7c-6.5,19.7,12.4-13.3,9.8-0.3"/>
	<path class="d04n" d="M94.6,250.4c-1.1,2.2-3,11.1,1.6,4.2c2.9-5.1,4.6-4.8,5.6-1.7c1,3.4,4.2,1.9,8.6-2.3"/>
	<path class="d05o" d="M112.1,250.8c-6.6,9.7,4.2,9.5,2.7,1.7c-0.3-1.3-2.7,0,0,0.7c2.6,0.7,5.1-0.1,7.7-2.1"/>
	<path class="d03i" d="M86.4,247.1c0.2,0.2,0.2,0.6,0,0.9c-0.2,0.3-0.6,0.4-0.8,0.3c-0.2-0.2-0.2-0.6,0-0.9
		C85.8,247,86.2,246.9,86.4,247.1z"/>
	<path class="d06d" d="M139.9,249c-11.7,3.2-8.1,15.8-0.7,1.6c2.7-5.2,4.9-10.4,6.8-15.7c0.4-1.2,2.6-5.8,1.7-1.4
		c-0.2,0.8-0.5,2-0.9,3.4c-7.7,26.3-0.3,21.5,6.8,14.5"/>
	<path class="d07e" d="M153.9,251.8c9-1.9,3.4-5,0.6-1.1c-4.8,6.9,6.4,4.1,11.8,0.3"/>
	<path class="d08l" d="M184.7,233.8c-6.5,20.3-9.1,34.1,5.4,18.9"/>
	<path class="d09a" d="M196,250c-6-2.5-8.6,11.7-1.5,1.9c3.6-5,2.1,0.2,2.7,2.3c1.1,3.6,5.5,0.5,8.8-3.3"/>
	<!-- ***************** -->
	<path class="d10f" d="M213.5,265.7c11.1-1.4,11.1-23.6,13.9-35.9"/>
	<path class="d11f" d="M213.9,231.9c6.4-3.1,35.1-8.5,29.7-0.3"/>
	<path class="d12f" d="M213.7,246.9c7.4-2.8,15.5-7.1,20-4.3"/>
	<!-- ***************** -->
	<path class="d11e" d="M234,249.1c13.7-2.9,5.1-7.7,0.9-1.6c-7.2,10.4,9.6,6.3,17.9,0.5"/>
</g>
<g id="firma">
	<path class="fir01a" d="M57,340.5c-5.7-2.2-1.7-17.1,0.4-21.9c10.3-23.8,3.9,20.4,8.2,26.9"/>
	<path class="fir02a" d="M46.9,339.6c-8-5.5,16.5-17.2,26-16.9"/>
	<path class="fir03p" d="M69.7,328.7c0.8,3.4,0.8,10.1,0.7,17.4c-1.4,9.7-1.9,0.6-0.7-5c0.9-4.1,1.6-8.3,3-12.1c3.2-6.7,6.3-3,5.3,1.6
		c-1.6,7.6-10.7,6.3-0.3-0.7c2-1.3,4.1-2.6,6.4-3.7"/>
	<path class="fir04x" d="M87.7,328.9c0.2,0.1,0.3,0.5,0.1,0.8c-0.2,0.3-0.5,0.5-0.8,0.4c-0.2-0.1-0.3-0.5-0.1-0.8
		C87.1,329,87.4,328.8,87.7,328.9z"/>
	<path class="fir05a" d="M116.2,330.8c-5.7-2.2-1.7-17.1,0.4-21.9c10.3-23.8,3.9,20.4,8.2,26.9"/>
	<path class="fir06a" d="M106.1,329.9c-8-5.5,16.5-17.2,26-16.9"/>
	<path class="fir07n" d="M130,318.1c-0.7,2.3-1.1,11.4,2.2,3.9c2-5.4,3.7-5.5,5.2-2.6c1.5,3.2,4.4,1.2,8-3.6"/>
	<path class="fir08g" d="M149.6,312.9c-8.3,3.1-4.7,12.3,0.7,0.8c4.2-8.9,3.8,8.2,2.9,12c-1,4.2-2.2,7-5.2,10.2
		c-6.1,6.4-3.8-3.5-0.4-7.8c3.5-4.5,8.1-8.9,12.9-13.2"/>
	<path class="fir09e" d="M161.2,314.1c8.5-3.3,2.5-5.5,0.4-1.1c-3.5,7.5,6.9,3,11.6-1.6"/>
	<path class="fir10l" d="M175.2,293.6c-3,21-3.3,34.9,8.4,17.6"/>
	<path class="fir11b" d="M200,301.6c-7.5-1.9,4.9-12.2,8.4-13.8c9.9-4.5,17.4,0.9-0.1,18.1c21.8-9-4.3,19.6-5.4,8.6"/>
	<path class="fir12b" d="M211.6,291.1c-3.3,7.5-5,14.4-4.1,20.4"/>
	<path class="fir13e" d="M222,304c8.5-3.3,2.5-5.5,0.4-1.1c-3.5,7.5,6.9,3,11.6-1.6"/>
	<path class="fir14r" d="M234.7,300.9c-1.8,19,2-5.7,4.9-1.6c0.8,1.1,2,3.1,3.8,0.2"/>
	<path class="fir15i" d="M247,298.9c-3.2,20.4,9.9-15,9.5-1.9"/>
	<path class="fir16i" d="M247.2,295.2c0.2,0.1,0.3,0.5,0.1,0.8c-0.2,0.3-0.5,0.5-0.8,0.4c-0.2-0.1-0.3-0.5-0.1-0.8
		C246.6,295.3,246.9,295.1,247.2,295.2z"/>
	<path class="fir17a" d="M259.4,295.7c-6.3-1.5-6.5,12.8-1.2,2.1c2.7-5.5,2.1-0.1,3.1,1.8c1.6,3.3,5.5-0.4,8.1-4.7"/>
	<path class="fir18n" d="M270.8,295c-1.4,10.3,3.4,3.9,5.1-1.1c1.2-3.4,1.8-2.2,1.3,2.5c-0.1,4.7,3.2,2.7,8.4-3"/>
	<path class="fir19z" d="M106,370.9c5.3-52.2,84.2-0.5,180.5-62.2"/>
</g>

<g>
	<ellipse class="logo02" cx="160.3" cy="449.8" rx="59.4" ry="73.3"/>
	<ellipse class="logo03" cx="160.3" cy="449.8" rx="59.4" ry="73.3"/>
	<path class="logo04" d="M160.3,379.4c30.4,0,55.1,31.5,55.1,70.4c0,38.9-24.7,70.4-55.1,70.4c-30.4,0-55.1-31.5-55.1-70.4
		C105.3,410.9,129.9,379.4,160.3,379.4"/>
	<path class="logo05" d="M160.3,393c25.4,0,46,25.4,46,56.8s-20.6,56.8-46,56.8s-46-25.4-46-56.8S134.9,393,160.3,393"/>
	<path class="logo06" d="M130.2,486.6c0.5-0.3,0.6-1,0.3-1.5l-2.2-3.1c-0.1-0.1,0-0.2,0-0.3l1-0.7c0.1-0.1,0.2,0,0.3,0l2.2,3.1
		c0.1,0.1,0,0.2-0.1,0.3l-0.3,0.2l0.5,0.7l0.3-0.2c0.5-0.3,0.6-1,0.3-1.5l-2.2-3.1c-0.3-0.5-1-0.6-1.5-0.3l-1,0.7
		c-0.5,0.3-0.6,1-0.3,1.5l2.2,3.1c0.1,0.1,0.1,0.2,0,0.3l-1,0.7c-0.1,0.1-0.2,0-0.3-0.1l-2.2-3.1c-0.1-0.1,0-0.2,0.1-0.3l0.3-0.2
		l-0.5-0.7l-0.3,0.2c-0.5,0.3-0.6,1-0.3,1.5l2.2,3.1c0.3,0.5,1,0.6,1.5,0.3L130.2,486.6z"/>
	
		<rect x="122.5" y="477.6" transform="matrix(0.8875 -0.4609 0.4609 0.8875 -206.2244 111.6192)" class="logo06" width="6" height="0.9"/>
	<polygon class="logo06" points="121,476 126.6,473.7 126.2,472.9 121.8,474.7 124.7,469.2 124.3,468.2 118.8,470.5 119.1,471.3 
		123.5,469.5 120.6,475 	"/>
	<path class="logo06" d="M119.7,458.5l1.2-0.2c0.1,0,0.2,0,0.2,0.2l0.7,3.7c0,0.1-0.1,0.2-0.2,0.2l-0.3,0.1l0.2,0.9l0.3-0.1
		c0.6-0.1,1-0.7,0.9-1.3l-0.7-3.7c-0.1-0.6-0.7-1-1.3-0.9l-1.3,0.2c-0.6,0.1-1,0.7-0.9,1.3l0.7,3.7c0,0.1,0,0.2-0.2,0.2l-1.2,0.2
		c-0.1,0-0.2-0.1-0.2-0.2l-0.7-3.7c0-0.1,0.1-0.2,0.2-0.2l0.3-0.1l-0.2-0.9l-0.3,0.1c-0.6,0.1-1,0.7-0.9,1.3l0.7,3.7
		c0.1,0.6,0.7,1,1.3,0.9l1.3-0.2c0.6-0.1,1-0.7,0.9-1.3l-0.7-3.7C119.5,458.6,119.6,458.5,119.7,458.5"/>
	<path class="logo06" d="M118.5,449.3l0.1,4.2l-1.9,0c-0.1,0-0.2-0.1-0.2-0.2l-0.1-3.8c0-0.1,0.1-0.2,0.2-0.2L118.5,449.3z
		 M116.7,454.4l4.9-0.1l0-0.9l-2.1,0l-0.1-4.2l2.1,0l0-0.9l-4.9,0.1c-0.6,0-1.1,0.5-1.1,1.1l0.1,3.8
		C115.6,453.9,116.1,454.4,116.7,454.4z"/>
	<polygon class="logo06" points="115.6,444.5 121.6,445.3 121.7,444.5 117,443.8 122.3,440.5 122.4,439.4 116.5,438.6 116.4,439.5 
		121.1,440.2 115.8,443.4 	"/>
	<polygon class="logo06" points="118.7,433.1 123.6,434.4 123.8,433.5 118.9,432.2 119.6,429.8 118.8,429.5 117.2,435.3 118,435.5 	"/>
	
		<rect x="122.5" y="424.2" transform="matrix(0.3831 -0.9237 0.9237 0.3831 -318.706 377.0872)" class="logo06" width="0.9" height="6"/>
	<path class="logo06" d="M121.8,422.2l5.2,3l2.4-4.2c0.3-0.5,0.1-1.2-0.4-1.5l-3.3-1.9c-0.5-0.3-1.2-0.1-1.5,0.4L121.8,422.2z
		 M128.6,420.5l-1.9,3.3c-0.1,0.1-0.2,0.1-0.3,0.1l-3.3-1.9c-0.1-0.1-0.1-0.2-0.1-0.3l1.9-3.3c0.1-0.1,0.2-0.1,0.3-0.1l3.3,1.9
		C128.7,420.3,128.7,420.4,128.6,420.5z"/>
	<path class="logo06" d="M132.6,411.7l-2.7,3.2l-1.4-1.2c-0.1-0.1-0.1-0.2,0-0.3l2.4-2.9c0.1-0.1,0.2-0.1,0.3,0L132.6,411.7z
		 M130.6,415.5l2.7-3.2l1.6,1.4l0.6-0.7l-3.7-3.2c-0.5-0.4-1.1-0.3-1.5,0.1l-2.5,2.9c-0.4,0.5-0.3,1.1,0.1,1.5l3.7,3.2l0.6-0.7
		L130.6,415.5z"/>
	<path class="logo06" d="M140.9,407.2l-2.9,2.3c-0.1,0.1-0.2,0-0.3,0l-2.3-2.9c-0.1-0.1-0.1-0.2,0-0.3l2.9-2.3c0.1-0.1,0.2-0.1,0.3,0
		l2.3,3C141.1,407,141,407.2,140.9,407.2 M134,406.3l3.7,4.7l3.8-3c0.5-0.4,0.6-1,0.2-1.5l-2.4-3c-0.4-0.5-1-0.5-1.5-0.2L134,406.3z
		"/>
	<polygon class="logo06" points="149.9,397.5 151.5,402 146.2,398.8 145.2,399.1 147.1,404.8 148,404.5 146.4,400 151.8,403.2 
		152.8,402.8 150.8,397.2 	"/>
	<path class="logo06" d="M155.5,397.3l0.2,4.9l0.9,0l-0.1-2.1l4.2-0.1l0.1,2.1l0.9,0l-0.2-4.9c0-0.6-0.5-1.1-1.1-1l-3.8,0.1
		C156,396.2,155.5,396.7,155.5,397.3 M156.6,397.1l3.8-0.1c0.1,0,0.2,0.1,0.2,0.2l0.1,1.9l-4.2,0.1l-0.1-1.9
		C156.4,397.2,156.5,397.1,156.6,397.1z"/>
	<path class="logo06" d="M166.8,397.5l3.7,0.8c0.1,0,0.2,0.1,0.2,0.2l-0.8,3.7c0,0.1-0.1,0.2-0.2,0.2l-3.7-0.8c-0.1,0-0.2-0.1-0.1-0.2
		l0.8-3.7C166.6,397.6,166.7,397.5,166.8,397.5 M165.9,396.4l-1.3,5.8l4.8,1.1c0.6,0.1,1.2-0.2,1.3-0.8l0.8-3.7
		c0.1-0.6-0.2-1.2-0.8-1.3L165.9,396.4z"/>
	
		<rect x="171.7" y="401.7" transform="matrix(0.3853 -0.9228 0.9228 0.3853 -263.7054 408.4036)" class="logo06" width="6" height="0.9"/>
	<polygon class="logo06" points="180.1,401.4 176.7,406.3 181.1,409.4 181.6,408.7 177.9,406.1 178.9,404.7 181.9,406.9 182.4,406.1 
		179.4,404 180.3,402.7 184.1,405.3 184.6,404.6 	"/>
	<polygon class="logo06" points="189.5,408.9 187.2,415.4 187.8,416.1 194.6,414.9 193.9,414.1 188.3,415.1 190.2,409.7 	"/>
	<polygon class="logo06" points="196.7,418.3 191.5,421.1 194,425.9 194.8,425.5 192.7,421.5 194.1,420.7 195.8,424 196.6,423.6 
		194.9,420.3 196.4,419.5 198.5,423.6 199.3,423.2 	"/>
	<path class="logo06" d="M200.4,428l1.1,3.6c0,0.1,0,0.2-0.1,0.3l-1.5,0.5c-0.1,0-0.2,0-0.3-0.1l-1.1-3.6c0-0.1,0-0.2,0.1-0.3l1.5-0.5
		C200.2,427.9,200.4,427.9,200.4,428 M200.9,426.7l-5.7,1.8l0.3,0.9l2-0.6l0.6,1.9l-1.4,2.6l0.4,1.1l1.5-2.3l0.2,0.5
		c0.2,0.6,0.8,0.9,1.4,0.7l1.6-0.5c0.6-0.2,0.9-0.8,0.7-1.4L200.9,426.7z"/>
	<path class="logo06" d="M203,437.2l0.7,3.7c0,0.1-0.1,0.2-0.2,0.2l-1.8,0.3l-0.8-4.1l1.8-0.3C202.8,437,202.9,437.1,203,437.2
		 M203.8,437c-0.1-0.6-0.7-1-1.3-0.9l-4.8,0.9l0.2,0.9l2.1-0.4l0.8,4.1l-2.1,0.4l0.2,0.9l4.8-0.9c0.6-0.1,1-0.7,0.9-1.3L203.8,437z"
		/>
	<path class="logo06" d="M202.2,449.2l1.9,0c0.1,0,0.2,0.1,0.2,0.2l-0.1,3.8c0,0.1-0.1,0.2-0.2,0.2l-1.9,0L202.2,449.2z M205.1,449.5
		c0-0.6-0.5-1.1-1.1-1.1l-4.9-0.1l0,0.9l2.1,0l-0.1,4.2l-2.1,0l0,0.9l4.9,0.1c0.6,0,1.1-0.5,1.1-1.1L205.1,449.5z"/>
	<path class="logo06" d="M203,461.5c0.1,0,0.2,0.1,0.2,0.2l-0.8,3.7c0,0.1-0.1,0.2-0.2,0.2l-3.7-0.8c-0.1,0-0.2-0.1-0.2-0.2l0.8-3.7
		c0-0.1,0.1-0.2,0.2-0.1L203,461.5z M204.3,460.9l-5.8-1.3l-1.1,4.8c-0.1,0.6,0.2,1.2,0.8,1.3l3.7,0.9c0.6,0.1,1.2-0.2,1.3-0.8
		L204.3,460.9z"/>
	
		<rect x="198.5" y="466.5" transform="matrix(0.3044 -0.9526 0.9526 0.3044 -308.8232 516.1339)" class="logo06" width="0.9" height="6"/>
	<path class="logo06" d="M195.6,473l3.4,1.6c0,0,0.1,0.1,0.1,0.1c0,0.1,0,0.1,0,0.2l-1.6,3.4c0,0.1-0.2,0.1-0.3,0.1l-3.4-1.6
		c-0.1,0-0.1-0.2-0.1-0.3l1.6-3.4C195.4,473,195.5,473,195.6,473 M199.4,473.8l-3.5-1.6c-0.5-0.3-1.2,0-1.4,0.5l-1.6,3.5
		c-0.3,0.5,0,1.2,0.5,1.4l3.5,1.6c0.5,0.3,1.2,0,1.4-0.5l1.6-3.5C200.2,474.7,200,474.1,199.4,473.8z"/>
	<path class="logo06" d="M195.2,483.9c0.3-0.5,0.2-1.2-0.3-1.5l-1-0.7c-0.5-0.3-1.2-0.2-1.5,0.3l-2.2,3.1c-0.1,0.1-0.2,0.1-0.3,0
		l-1-0.7c-0.1-0.1-0.1-0.2-0.1-0.3l2.2-3.1c0.1-0.1,0.2-0.1,0.3-0.1l0.3,0.2l0.5-0.7l-0.3-0.2c-0.5-0.3-1.2-0.2-1.5,0.3l-2.2,3.1
		c-0.3,0.5-0.2,1.2,0.3,1.5l1,0.7c0.5,0.3,1.2,0.2,1.5-0.3l2.2-3.1c0.1-0.1,0.2-0.1,0.3-0.1l1,0.7c0.1,0.1,0.1,0.2,0.1,0.3l-2.2,3.1
		c-0.1,0.1-0.2,0.1-0.3,0l-0.3-0.2l-0.5,0.7l0.3,0.2c0.5,0.3,1.2,0.2,1.5-0.3L195.2,483.9z"/>
	<polygon class="logo02" points="112.9,516.8 117.3,511.6 117.3,509.4 113.1,509.4 108.8,514.5 107.6,514.5 107.6,509.4 103,509.4 
		103,524.2 107.6,524.2 107.6,519.1 108.8,519.1 113.1,524.2 117.3,524.2 117.3,522 	"/>
	<path class="logo02" d="M132.3,515.4h-5.6V514h5h0.6v0.4V515.4z M122.1,512.9v11.2h4.6V520h5.6v4.2h4.6v-7v-3.6v-0.6
		c0-2-1.6-3.6-3.6-3.6h-2.4h-5.2h-0.1C123.7,509.4,122.1,511,122.1,512.9z"/>
	<path class="logo02" d="M146.9,514h5.6v5.6v0h-5.6v-1.5V514z M142.3,509.4v7v3.2v4.5h11.2c1.1,0,2.1-0.5,2.7-1.3
		c0.5-0.6,0.8-1.4,0.8-2.3v-0.5v-7.2c0-2-1.6-3.6-3.6-3.6H142.3z"/>
	<path class="logo02" d="M167,514h5.6v4.5v1.1h-4.7h-1V514z M166,509.4c-2,0-3.6,1.6-3.6,3.6v7.3v0.4c0,0.9,0.3,1.7,0.9,2.4
		c0.7,0.7,1.6,1.2,2.7,1.2h7.7c1.9,0,3.6-1.6,3.6-3.6v-0.5v-3.2v-3.9c0-1.9-1.6-3.6-3.6-3.6H166z"/>
	<path class="logo02" d="M187.1,519.1h5.6v0.5h-5.6V519.1z M187.1,514h1.9h3.7v0.5h-4.4h-1.2V514z M186.1,509.4c-2,0-3.6,1.6-3.6,3.6
		v1.4v1.2c0,0.6,0.2,1.2,0.5,1.8c0,0.1,0.1,0.1,0.1,0.2c0.3,0.4,0.6,0.8,1.1,1h-1.7v2.1c0,2,1.6,3.6,3.6,3.6h7.7
		c1.9,0,3.6-1.6,3.6-3.6V518c0-1.2-0.6-2.3-1.7-3h1.7v-2.1c0-1.6-1.1-3-2.6-3.4c-0.3-0.1-0.7-0.1-1-0.1h-4H186.1z"/>
	<polygon class="logo02" points="202.6,509.4 202.6,524.2 207.2,524.2 207.2,519.1 213.1,519.1 213.1,524.2 217.7,524.2 217.7,509.4 
		213.1,509.4 213.1,514.5 207.2,514.5 207.2,509.4 	"/>
	<path class="logo02" d="M160.3,403.2c20.2,0,36.6,20.9,36.6,46.6s-16.4,46.6-36.6,46.6c-20.2,0-36.6-20.9-36.6-46.6
		S140.1,403.2,160.3,403.2"/>
	<path class="logo07" d="M160.3,405.8c19.1,0,34.5,19.7,34.5,44s-15.5,44-34.5,44c-19.1,0-34.5-19.7-34.5-44S141.3,405.8,160.3,405.8"
		/>
	<path class="logo02" d="M159,418.2c12.6,4.7,23.1,11.5,15,31.3c3.8,0.2,6.9-0.8,9.8-3.4c4.5,11.3,2.1,20.9-11.7,26.8
		c-5-17.8-26.8-12.7-26.7,8.5c-11.6-6.2-12.8-16.3-3.5-30.1c0.7-2.3-2.1-3.2-7.1-3.1c2.5-6.1,7.4-7.7,13.9-6
		C161.2,439.9,163.5,431.4,159,418.2"/>
	<polygon class="logo04" points="111.8,516.8 116.4,511.2 116.4,510.3 113.5,510.3 109.2,515.4 106.7,515.4 106.7,510.3 103.9,510.3 
		103.9,523.3 106.7,523.3 106.7,518.2 109.2,518.2 113.5,523.3 116.4,523.3 116.4,522.3 	"/>
	<path class="logo04" d="M125.8,513.1h4.6h2.8v1.9v1.3h-7.4V513.1z M125.6,510.3c-1.5,0-2.7,1.2-2.7,2.7v10.4h2.8v-4.2h7.4v4.2h2.8
		v-6.6V513v-0.1c0-1.5-1.2-2.7-2.7-2.7H132h-5.3H125.6z"/>
	<path class="logo04" d="M146,513.1h7.4v6.6v0.8H146v-2.6V513.1z M143.2,510.3v6.5v3.2v3.3h10.3c0.6,0,1.1-0.2,1.6-0.5
		c0.7-0.5,1.1-1.3,1.1-2.2v-0.6v-7.1c0-1.5-1.2-2.7-2.7-2.7H143.2z"/>
	<path class="logo04" d="M166.1,513.1h7.4v5.1v2.2h-7.4v-0.6V513.1z M166,510.3c-1.5,0-2.7,1.2-2.7,2.7v7.2v0.5c0,1,0.5,1.8,1.3,2.3
		c0.4,0.3,0.9,0.4,1.4,0.4h7.7c1.5,0,2.7-1.2,2.7-2.7v-0.2v-3.1v-4.3c0-1.5-1.2-2.7-2.7-2.7H166z"/>
	<polygon class="logo04" points="203.5,510.3 203.5,523.3 206.3,523.3 206.3,518.2 214,518.2 214,523.3 216.8,523.3 216.8,510.3 
		214,510.3 214,515.4 206.3,515.4 206.3,510.3 	"/>
	<path class="logo04" d="M186.1,510.3c-1.5,0-2.7,1.2-2.7,2.7v0.9v1.7c0,0.6,0.2,1.1,0.5,1.6c0.5,0.7,1.3,1.1,2.2,1.1h7.5v2.3h-7.4
		v-1.1h-2.8v1.2c0,1.5,1.2,2.7,2.7,2.7h7.7c1.5,0,2.7-1.2,2.7-2.7V518c0-1.5-1.2-2.7-2.7-2.7h-6.9h-0.7v-2.3h4.1h3.3v1.1h2.8v-1.2
		c0-1.4-1.1-2.6-2.5-2.7l-5.2,0L186.1,510.3z"/>
</g>
<path class="link01" d="M279.2,563.3c0,1.7,0.3,3,1,3.8c0.7,0.8,1.5,1.2,2.6,1.2c1,0,1.9-0.4,2.6-1.2c0.7-0.8,1-2,1-3.7
	c0-1.6-0.4-2.8-1.1-3.6c-0.7-0.8-1.6-1.2-2.6-1.2c-1,0-1.8,0.4-2.5,1.2C279.6,560.5,279.2,561.7,279.2,563.3 M277.4,571.2l2.2,0.3
	c0.1,0.7,0.3,1.2,0.8,1.5c0.6,0.4,1.3,0.6,2.3,0.6c1,0,1.8-0.2,2.4-0.6c0.6-0.4,0.9-1,1.1-1.7c0.1-0.5,0.2-1.4,0.2-2.9
	c-1,1.2-2.2,1.7-3.7,1.7c-1.8,0-3.2-0.7-4.2-2c-1-1.3-1.5-2.9-1.5-4.7c0-1.3,0.2-2.4,0.7-3.5c0.5-1.1,1.1-1.9,2-2.5
	c0.9-0.6,1.9-0.9,3.1-0.9c1.6,0,2.8,0.6,3.8,1.9v-1.6h2.1v11.4c0,2.1-0.2,3.5-0.6,4.4c-0.4,0.9-1.1,1.5-2,2c-0.9,0.5-2,0.7-3.3,0.7
	c-1.6,0-2.8-0.4-3.8-1.1C277.8,573.7,277.4,572.6,277.4,571.2z M269.3,570.1v-13.2h2v2c0.5-0.9,1-1.6,1.4-1.9
	c0.4-0.3,0.9-0.4,1.4-0.4c0.8,0,1.5,0.2,2.3,0.7l-0.8,2.1c-0.5-0.3-1.1-0.5-1.6-0.5c-0.5,0-0.9,0.1-1.3,0.4
	c-0.4,0.3-0.7,0.7-0.8,1.2c-0.2,0.8-0.4,1.7-0.4,2.6v6.9H269.3z M256.7,563.5c0,1.7,0.4,2.9,1.1,3.8c0.7,0.8,1.7,1.3,2.8,1.3
	c1.1,0,2-0.4,2.8-1.3c0.7-0.8,1.1-2.1,1.1-3.9c0-1.6-0.4-2.9-1.1-3.7c-0.7-0.8-1.7-1.3-2.8-1.3c-1.1,0-2,0.4-2.8,1.2
	C257,560.6,256.7,561.8,256.7,563.5z M254.4,563.5c0-2.4,0.7-4.2,2-5.4c1.1-1,2.5-1.5,4.1-1.5c1.8,0,3.3,0.6,4.4,1.8
	c1.1,1.2,1.7,2.8,1.7,4.9c0,1.7-0.3,3-0.8,4c-0.5,1-1.2,1.7-2.2,2.3c-1,0.5-2,0.8-3.2,0.8c-1.8,0-3.3-0.6-4.5-1.8
	C255,567.4,254.4,565.7,254.4,563.5z M248.8,570.1v-2.5h2.5v2.5H248.8z M234,570.1v-18.2h2.2v6.5c1-1.2,2.3-1.8,3.9-1.8
	c1,0,1.8,0.2,2.5,0.6c0.7,0.4,1.2,0.9,1.5,1.6c0.3,0.7,0.5,1.7,0.5,3v8.3h-2.2v-8.3c0-1.1-0.2-1.9-0.7-2.4c-0.5-0.5-1.2-0.8-2-0.8
	c-0.7,0-1.3,0.2-1.9,0.5c-0.6,0.3-1,0.8-1.2,1.4c-0.2,0.6-0.4,1.4-0.4,2.4v7.2H234z M220.4,566.2l2.2-0.4c0.1,0.9,0.5,1.6,1,2
	c0.6,0.5,1.4,0.7,2.4,0.7c1,0,1.8-0.2,2.3-0.6c0.5-0.4,0.7-0.9,0.7-1.5c0-0.5-0.2-0.9-0.7-1.2c-0.3-0.2-1.1-0.4-2.3-0.8
	c-1.6-0.4-2.8-0.8-3.4-1.1c-0.6-0.3-1.1-0.7-1.4-1.3c-0.3-0.5-0.5-1.1-0.5-1.8c0-0.6,0.1-1.1,0.4-1.6c0.3-0.5,0.6-0.9,1.1-1.2
	c0.3-0.3,0.8-0.5,1.4-0.6c0.6-0.2,1.2-0.3,1.9-0.3c1,0,1.9,0.1,2.7,0.4c0.8,0.3,1.4,0.7,1.7,1.2c0.4,0.5,0.6,1.2,0.8,2.1l-2.2,0.3
	c-0.1-0.7-0.4-1.2-0.9-1.6c-0.5-0.4-1.1-0.6-2-0.6c-1,0-1.8,0.2-2.2,0.5c-0.4,0.3-0.7,0.7-0.7,1.2c0,0.3,0.1,0.6,0.3,0.8
	c0.2,0.2,0.5,0.4,0.9,0.6c0.2,0.1,0.9,0.3,2,0.6c1.6,0.4,2.7,0.8,3.3,1c0.6,0.3,1.1,0.7,1.5,1.2c0.4,0.5,0.5,1.1,0.5,1.9
	c0,0.7-0.2,1.4-0.7,2.1c-0.4,0.7-1.1,1.2-1.9,1.5c-0.8,0.4-1.7,0.5-2.8,0.5c-1.7,0-3-0.4-3.9-1.1
	C221.3,568.6,220.7,567.6,220.4,566.2z M208.6,563.5c0,1.7,0.4,2.9,1.1,3.8c0.7,0.8,1.7,1.3,2.8,1.3c1.1,0,2-0.4,2.8-1.3
	c0.7-0.8,1.1-2.1,1.1-3.9c0-1.6-0.4-2.9-1.1-3.7c-0.7-0.8-1.7-1.3-2.8-1.3c-1.1,0-2,0.4-2.8,1.2C209,560.6,208.6,561.8,208.6,563.5z
	 M206.3,563.5c0-2.4,0.7-4.2,2-5.4c1.1-1,2.5-1.5,4.1-1.5c1.8,0,3.3,0.6,4.4,1.8c1.1,1.2,1.7,2.8,1.7,4.9c0,1.7-0.3,3-0.8,4
	c-0.5,1-1.2,1.7-2.2,2.3c-1,0.5-2,0.8-3.2,0.8c-1.8,0-3.3-0.6-4.5-1.8C206.9,567.4,206.3,565.7,206.3,563.5z M194.5,563.5
	c0,1.7,0.4,2.9,1.1,3.8c0.7,0.8,1.6,1.2,2.5,1.2c1,0,1.8-0.4,2.5-1.2c0.7-0.8,1-2,1-3.6c0-1.8-0.3-3.1-1-4c-0.7-0.8-1.6-1.3-2.6-1.3
	c-1,0-1.8,0.4-2.5,1.2C194.8,560.5,194.5,561.8,194.5,563.5z M201.6,570.1v-1.7c-0.8,1.3-2.1,2-3.7,2c-1,0-2-0.3-2.9-0.9
	c-0.9-0.6-1.6-1.4-2-2.4c-0.5-1-0.7-2.2-0.7-3.6c0-1.3,0.2-2.5,0.7-3.6c0.4-1.1,1.1-1.9,2-2.5c0.9-0.6,1.9-0.9,2.9-0.9
	c0.8,0,1.5,0.2,2.1,0.5c0.6,0.3,1.1,0.8,1.5,1.3v-6.5h2.2v18.2H201.6z M187.4,563.5c-0.8,0.3-2,0.6-3.7,0.8c-0.9,0.1-1.6,0.3-2,0.4
	c-0.4,0.2-0.7,0.4-0.9,0.7c-0.2,0.3-0.3,0.7-0.3,1.1c0,0.6,0.2,1.1,0.7,1.5c0.5,0.4,1.1,0.6,2,0.6c0.9,0,1.6-0.2,2.3-0.6
	c0.7-0.4,1.2-0.9,1.5-1.5c0.2-0.5,0.4-1.2,0.4-2.2L187.4,563.5z M187.5,568.5c-0.8,0.7-1.6,1.2-2.4,1.5c-0.8,0.3-1.6,0.4-2.5,0.4
	c-1.4,0-2.6-0.4-3.3-1.1c-0.8-0.7-1.2-1.6-1.2-2.7c0-0.6,0.1-1.2,0.4-1.8c0.3-0.5,0.7-1,1.2-1.3c0.5-0.3,1-0.6,1.6-0.7
	c0.4-0.1,1.1-0.2,2-0.3c1.8-0.2,3.1-0.5,4-0.8c0-0.3,0-0.5,0-0.6c0-0.9-0.2-1.5-0.6-1.9c-0.6-0.5-1.4-0.8-2.5-0.8
	c-1.1,0-1.8,0.2-2.3,0.6c-0.5,0.4-0.9,1-1.1,2l-2.2-0.3c0.2-0.9,0.5-1.7,1-2.3c0.5-0.6,1.1-1,2-1.3c0.9-0.3,1.9-0.5,3-0.5
	c1.1,0,2,0.1,2.8,0.4c0.7,0.3,1.2,0.6,1.6,1c0.3,0.4,0.6,0.9,0.7,1.5c0.1,0.4,0.1,1.1,0.1,2.1v3c0,2.1,0,3.4,0.1,3.9
	c0.1,0.6,0.3,1.1,0.5,1.6H188C187.7,569.6,187.6,569.1,187.5,568.5z M166.2,570.1v-18.2h2.2v10.4l5.3-5.4h2.9l-5,4.9l5.5,8.3h-2.8
	l-4.4-6.7l-1.6,1.5v5.2H166.2z M160.5,563.5c-0.8,0.3-2,0.6-3.7,0.8c-0.9,0.1-1.6,0.3-2,0.4c-0.4,0.2-0.7,0.4-0.9,0.7
	c-0.2,0.3-0.3,0.7-0.3,1.1c0,0.6,0.2,1.1,0.7,1.5c0.5,0.4,1.1,0.6,2,0.6c0.9,0,1.6-0.2,2.3-0.6c0.7-0.4,1.2-0.9,1.5-1.5
	c0.2-0.5,0.4-1.2,0.4-2.2L160.5,563.5z M160.7,568.5c-0.8,0.7-1.6,1.2-2.4,1.5c-0.8,0.3-1.6,0.4-2.5,0.4c-1.4,0-2.6-0.4-3.3-1.1
	c-0.8-0.7-1.2-1.6-1.2-2.7c0-0.6,0.1-1.2,0.4-1.8c0.3-0.5,0.7-1,1.2-1.3c0.5-0.3,1-0.6,1.6-0.7c0.4-0.1,1.1-0.2,2-0.3
	c1.8-0.2,3.1-0.5,4-0.8c0-0.3,0-0.5,0-0.6c0-0.9-0.2-1.5-0.6-1.9c-0.6-0.5-1.4-0.8-2.5-0.8c-1.1,0-1.8,0.2-2.3,0.6
	c-0.5,0.4-0.9,1-1.1,2l-2.2-0.3c0.2-0.9,0.5-1.7,1-2.3c0.5-0.6,1.1-1,2-1.3c0.9-0.3,1.9-0.5,3-0.5c1.1,0,2,0.1,2.8,0.4
	c0.7,0.3,1.2,0.6,1.6,1c0.3,0.4,0.6,0.9,0.7,1.5c0.1,0.4,0.1,1.1,0.1,2.1v3c0,2.1,0,3.4,0.1,3.9c0.1,0.6,0.3,1.1,0.5,1.6h-2.3
	C160.9,569.6,160.8,569.1,160.7,568.5z M146.4,570.1v-13.2h2.2v13.2H146.4z M146.4,554.4v-2.5h2.2v2.5H146.4z M132.8,566.2l2.2-0.4
	c0.1,0.9,0.5,1.6,1,2c0.6,0.5,1.4,0.7,2.4,0.7c1,0,1.8-0.2,2.3-0.6c0.5-0.4,0.7-0.9,0.7-1.5c0-0.5-0.2-0.9-0.7-1.2
	c-0.3-0.2-1.1-0.4-2.3-0.8c-1.6-0.4-2.8-0.8-3.4-1.1c-0.6-0.3-1.1-0.7-1.4-1.3c-0.3-0.5-0.5-1.1-0.5-1.8c0-0.6,0.1-1.1,0.4-1.6
	c0.3-0.5,0.6-0.9,1.1-1.2c0.3-0.3,0.8-0.5,1.4-0.6c0.6-0.2,1.2-0.3,1.9-0.3c1,0,1.9,0.1,2.7,0.4c0.8,0.3,1.4,0.7,1.7,1.2
	c0.4,0.5,0.6,1.2,0.8,2.1l-2.2,0.3c-0.1-0.7-0.4-1.2-0.9-1.6c-0.5-0.4-1.1-0.6-2-0.6c-1,0-1.8,0.2-2.2,0.5c-0.4,0.3-0.7,0.7-0.7,1.2
	c0,0.3,0.1,0.6,0.3,0.8c0.2,0.2,0.5,0.4,0.9,0.6c0.2,0.1,0.9,0.3,2,0.6c1.6,0.4,2.7,0.8,3.3,1c0.6,0.3,1.1,0.7,1.5,1.2
	c0.4,0.5,0.5,1.1,0.5,1.9c0,0.7-0.2,1.4-0.7,2.1c-0.4,0.7-1.1,1.2-1.9,1.5c-0.8,0.4-1.7,0.5-2.8,0.5c-1.7,0-3-0.4-3.9-1.1
	C133.7,568.6,133.1,567.6,132.8,566.2z M121.3,562.2h7.3c-0.1-1.1-0.4-1.9-0.8-2.5c-0.7-0.9-1.6-1.3-2.8-1.3c-1,0-1.9,0.3-2.6,1
	C121.7,560.2,121.3,561.1,121.3,562.2z M128.6,565.8l2.3,0.3c-0.4,1.3-1,2.4-2,3.1c-1,0.7-2.2,1.1-3.8,1.1c-1.9,0-3.4-0.6-4.6-1.8
	c-1.1-1.2-1.7-2.8-1.7-5c0-2.2,0.6-3.9,1.7-5.2c1.1-1.2,2.6-1.8,4.4-1.8c1.8,0,3.2,0.6,4.3,1.8c1.1,1.2,1.7,2.9,1.7,5.1
	c0,0.1,0,0.3,0,0.6h-9.8c0.1,1.4,0.5,2.6,1.2,3.3c0.7,0.8,1.7,1.2,2.7,1.2c0.8,0,1.5-0.2,2.1-0.6
	C127.8,567.5,128.2,566.8,128.6,565.8z M113.9,570.1v-18.2h2.2v18.2H113.9z M101.2,563.3c0,1.7,0.3,3,1,3.8c0.7,0.8,1.5,1.2,2.6,1.2
	c1,0,1.9-0.4,2.6-1.2c0.7-0.8,1-2,1-3.7c0-1.6-0.4-2.8-1.1-3.6c-0.7-0.8-1.6-1.2-2.6-1.2c-1,0-1.8,0.4-2.5,1.2
	C101.6,560.5,101.2,561.7,101.2,563.3z M99.4,571.2l2.2,0.3c0.1,0.7,0.3,1.2,0.8,1.5c0.6,0.4,1.3,0.6,2.3,0.6c1,0,1.8-0.2,2.4-0.6
	c0.6-0.4,0.9-1,1.1-1.7c0.1-0.5,0.2-1.4,0.2-2.9c-1,1.2-2.2,1.7-3.7,1.7c-1.8,0-3.2-0.7-4.2-2c-1-1.3-1.5-2.9-1.5-4.7
	c0-1.3,0.2-2.4,0.7-3.5c0.5-1.1,1.1-1.9,2-2.5c0.9-0.6,1.9-0.9,3.1-0.9c1.6,0,2.8,0.6,3.8,1.9v-1.6h2.1v11.4c0,2.1-0.2,3.5-0.6,4.4
	c-0.4,0.9-1.1,1.5-2,2c-0.9,0.5-2,0.7-3.3,0.7c-1.6,0-2.8-0.4-3.8-1.1C99.8,573.7,99.4,572.6,99.4,571.2z M94.2,570.1v-13.2h2.2
	v13.2H94.2z M94.2,554.4v-2.5h2.2v2.5H94.2z M87.7,570.1v-2.5h2.5v2.5H87.7z M72.5,570.1l-4-13.2h2.3l2.1,7.6l0.7,2.8
	c0-0.1,0.3-1,0.7-2.7l2.1-7.7h2.3l2,7.7l0.6,2.5l0.8-2.5l2.3-7.6h2.2l-4.1,13.2h-2.3l-2.1-7.9l-0.5-2.3l-2.7,10.1H72.5z M54.2,570.1
	l-4-13.2h2.3l2.1,7.6l0.7,2.8c0-0.1,0.3-1,0.7-2.7l2.1-7.7h2.3l2,7.7l0.6,2.5l0.8-2.5l2.3-7.6h2.2l-4.1,13.2h-2.3l-2.1-7.9l-0.5-2.3
	l-2.7,10.1H54.2z M35.8,570.1l-4-13.2h2.3l2.1,7.6l0.7,2.8c0-0.1,0.3-1,0.7-2.7l2.1-7.7h2.3l2,7.7l0.6,2.5l0.8-2.5l2.3-7.6h2.2
	l-4.1,13.2h-2.3l-2.1-7.9l-0.5-2.3l-2.7,10.1H35.8z"/>

</svg>
