<?xml version="1.0" encoding="utf-8"?>
<!-- Generator: Adobe Illustrator 24.0.2, SVG Export Plug-In . SVG Version: 6.00 Build 0)  -->
<svg version="1.1" id="Capa_1" xmlns="http://www.w3.org/2000/svg" xmlns:xlink="http://www.w3.org/1999/xlink" x="0px" y="0px"
	 viewBox="0 0 512 512" style="enable-background:new 0 0 512 512;" xml:space="preserve">
<style type="text/css">
	*{
		transform-origin: 256px 256px;
	}
	.fondoIcon{fill-rule:evenodd;clip-rule:evenodd;fill:#7A2158;
		transform-origin: 256px 256px;
		animation: mundoLine 3s forwards ease-in-out;
	}
	@keyframes mundoLine{
		0%{transform: scale(0) rotate(0);opacity: 0;}
		25%{transform: scale(1.35) rotate(45deg);opacity: 1;}
		50%{transform: scale(0.5) rotate(-360deg);opacity: 1;}
		75%{transform: scale(1.35) rotate(360deg);opacity: 1;}
		100%{transform: scale(1) rotate(0);opacity: 1;}
	}
	@keyframes mundoLine2{
		0%{transform: scale(0) rotate(0);opacity: 0;}
		25%{transform: scale(0.5) rotate(-45deg);opacity: 1;}
		50%{transform: scale(1.35) rotate(360deg);opacity: 1;}
		75%{transform: scale(0.5) rotate(-360deg);opacity: 1;}
		100%{transform: scale(1) rotate(0);opacity: 1;}
	}

	.sombraK{fill-rule:evenodd;clip-rule:evenodd;fill:#fff;}
	.colorK{fill-rule:evenodd;clip-rule:evenodd;fill:#C2590E;}
	.sombraK,.colorK{opacity: 0;
		animation: mundoLine 2s forwards ease-in-out 3s;

	}
	.sombraA{fill-rule:evenodd;clip-rule:evenodd;fill:#fff;}
	.colorA{fill-rule:evenodd;clip-rule:evenodd;fill:#FCBD00;}
	.sombraA,.colorA{opacity: 0;
		animation: mundoLine2 2s forwards ease-in-out 3s;
	}
	.sombraD{fill-rule:evenodd;clip-rule:evenodd;fill:#fff;}
	.colorD{fill-rule:evenodd;clip-rule:evenodd;fill:#D30090;}
	.sombraD,.colorD{opacity: 0;
		animation: mundoLine 2s forwards ease-in-out 3s;
	}
	.sombraO{fill-rule:evenodd;clip-rule:evenodd;fill:#fff;}
	.colorO{fill-rule:evenodd;clip-rule:evenodd;fill:#00AFED;}
	.sombraO,.colorO{opacity: 0;
		animation: mundoLine2 2s forwards ease-in-out 3s;
	}
	.sombraS{fill-rule:evenodd;clip-rule:evenodd;fill:#fff;}
	.colorS{fill-rule:evenodd;clip-rule:evenodd;fill:#6D2E9D;}
	.sombraS,.colorS{opacity: 0;
		animation: mundoLine 2s forwards ease-in-out 3s;
	}
	.sombraH{fill-rule:evenodd;clip-rule:evenodd;fill:#fff;}
	.colorH{fill-rule:evenodd;clip-rule:evenodd;fill:#518032;}
	.sombraH,.colorH{opacity: 0;
		animation: mundoLine2 2s forwards ease-in-out 3s;
	}

	.sombraKids{fill-rule:evenodd;clip-rule:evenodd;fill:#000;}
	.colorKids{fill-rule:evenodd;clip-rule:evenodd;fill:#fff;}
	.sombraKids,.colorKids{
		opacity: 0;
		animation: mundoLine3 1s forwards ease-in-out 5s;
	}
	@keyframes mundoLine3{
		0%{transform: translateX(-100px);opacity:0;}
		33%{transform: rotateX(50px);opacity:1;}
		66%{transform: rotateX(-10px);opacity:1;}
		100%{transform: rotateX(0);opacity:1;}
	}
</style>
<path class="fondoIcon" d="M256,81c110.5,0,200,78.2,200,175c0,96.8-89.5,175-200,175S56,352.8,56,256C56,159.2,145.5,81,256,81"/>
<polygon class="sombraK" points="129.6,266.8 129.6,287.7 89.3,287.7 89.3,174.3 129.6,174.3 129.6,208 133,201.1 172.1,201.1 
	172.1,209.4 159.3,234.8 181.9,287.7 137.1,287.7 "/>
<path class="colorK" d="M123.2,180.7v100.6l-27.5,0V180.7H123.2z M165.7,207.9l-13.4,26.8l19.9,46.7h-30.6l-17.2-48.2l12.6-25.6h28.7
	V207.9z"/>
<path class="sombraH" d="M376.3,228.5c2.5-0.7,5-1.1,7.8-1.1c8.8,0,16.1,3.2,21.7,9.9c5.9,6.9,7.6,15.9,7.6,24.8v53.1
	c-25.8,0-51.6,0-77.4,0V201.5h40.3V228.5z"/>
<path class="colorH" d="M369.9,207.9v31c4.6-3.4,9.2-5,14.1-5c7.3,0,12.6,2.7,16.8,7.6c4.2,5,6.1,11.9,6.1,20.7v46.7h-27.5v-39
	c0-3.1-0.4-5.4-1.1-6.5c-0.8-1.1-1.9-1.5-3.8-1.5c-3.1,0-4.6,2.3-4.6,6.9v40.2l-27.5,0v-101H369.9z"/>
<path class="sombraA" d="M192.9,269.1v-0.4c0-1.8-0.4-4.1-1.6-5.5c-0.7-0.9-1.6-1.1-2.7-1.1c-1.4,0-2.2,0.6-3.1,1.6
	c-1,1-1.2,1.7-1.2,3.1c0,1.2,0.4,2.3,1.2,3.1c0.8,0.8,2,1.2,3.1,1.2c0.7,0,1.9,0,2.5-0.5L192.9,269.1z M201.5,310.2v0.2l-5.4,0.9
	c-2.5,0.4-5,0.5-7.5,0.5c-12.5,0-23.9-4.1-32.8-13c-9.1-9.1-13.3-20-13.3-32.8c0-12.6,4.4-23.5,13.3-32.4
	c8.9-8.9,19.8-13.3,32.4-13.3c12.8,0,24.4,3.4,33.6,12.6l0.1,0.1c8.9,9.4,12.5,21.1,12.5,33.8v43.5H201.5z"/>
<path class="colorA" d="M195.1,275.5V305c-2.3,0.4-4.6,0.4-6.5,0.4c-11.5,0-21-3.8-28.3-11.1c-7.6-7.6-11.5-16.8-11.5-28.3
	c0-11.1,3.8-20.3,11.5-27.9c7.6-7.6,16.8-11.5,27.9-11.5c12.2,0,21.8,3.4,29.1,10.7c6.9,7.3,10.7,16.8,10.7,29.4v37.1h-28.7v-35.2
	c0-3.8-1.1-7.3-3.1-9.6c-1.9-2.3-4.6-3.4-7.6-3.4c-3.1,0-5.4,1.1-7.6,3.4c-2.3,2.3-3.1,4.6-3.1,7.6c0,3.1,1.1,5.7,3.1,7.6
	c1.9,1.9,4.6,3.1,7.6,3.1C190.9,277.5,193.2,277.1,195.1,275.5"/>
<path class="sombraD" d="M244.3,245.5l-1.3-1.3c-0.5-0.5-2-1.9-2.5-2c-1.1-0.2-2.3-0.1-3.2,0.5c-0.9,0.6-1.3,1.3-1.4,2.4l0,0.1
	c-0.1,0.9-0.1,1.9,0.5,2.6l0.2,0.3l0.2,0.3c0.6,0.9,1.3,1.3,2.4,1.4l0.1,0l0.1,0c0.7,0.1,1.8,0.2,2.4-0.1
	C242.9,249.1,243.8,247.2,244.3,245.5 M268.2,279.2c-4.7,4.2-10.6,6.9-16.6,8.6c-6.2,1.8-12.4,1.8-18.7,0.9l-0.1,0l-0.1,0
	c-12.1-2.2-21.7-8.3-28.9-18.2c-7.2-9.8-9.5-21.3-7.2-33.2c2.2-11.9,8.4-21.2,18.2-28.1c9.7-7.1,20.7-9.5,32.5-7.2l0.2,0l0.2,0
	c1.6,0.4,3,0.7,4.5,1.1l4.5-25.3l39.4,7.3l-12.3,65.6C281.6,261.7,276.8,272,268.2,279.2z"/>
<path class="colorD" d="M261.7,185.3l26.8,5l-11.1,59.3c-1.9,10.7-6.5,19.1-13.4,24.9c-3.8,3.4-8.8,5.7-14.1,7.3
	c-5.4,1.5-10.7,1.5-16.1,0.8c-10.7-1.9-18.7-7.3-24.9-15.7c-6.1-8.4-8-18-6.1-28.3c1.9-9.9,6.9-18,15.7-24.1
	c8.4-6.1,17.6-8,27.5-6.1c1.5,0.4,3.8,0.8,6.9,1.9l-5.4,29.4c-1.9-1.9-3.8-3.4-6.1-3.8c-2.7-0.4-5.4,0-7.6,1.5
	c-2.3,1.5-3.8,3.8-4.2,6.9c-0.4,2.7,0,5.4,1.9,7.6c1.5,2.3,3.8,3.8,6.9,4.2c6.9,1.1,11.1-2.7,13-12.2L261.7,185.3z"/>
<path class="sombraO" d="M292.7,276v-0.4c0-1.8-0.4-4.1-1.6-5.5c-0.7-0.9-1.6-1.1-2.7-1.1c-1.4,0-2.2,0.6-3.1,1.6c-1,1-1.2,1.7-1.2,3.1
	c0,1.2,0.4,2.3,1.2,3.1c0.8,0.8,2,1.2,3.1,1.2c0.7,0,1.9,0,2.5-0.5L292.7,276z M289.2,230.1c11.8,0,22.2,4.2,30.5,12.6
	c8.4,8.4,12.6,18.7,12.6,30.5c0,12-4.5,22.4-13,30.9c-8.5,8.5-18.9,12.6-30.9,12.6c-12,0-22.4-4.1-30.9-12.6
	c-8.3-8.3-13-18.7-13-30.5c0-12,4.5-22.4,13-30.9l0.1-0.1C266.5,234.2,277,230.1,289.2,230.1z"/>
<path class="colorO" d="M289.2,236.5c9.9,0,18.7,3.4,26,10.7c7.3,7.3,10.7,16.1,10.7,26c0,10.3-3.8,19.1-11.1,26.4
	c-7.3,7.3-16.1,10.7-26.4,10.7c-10.3,0-19.1-3.4-26.4-10.7c-7.3-7.3-11.1-16.1-11.1-26c0-10.3,3.8-19.1,11.1-26.4
	C269.3,240.4,278.1,236.5,289.2,236.5 M288.4,262.9c-3.1,0-5.4,1.1-7.3,3.1c-1.9,1.9-3.1,4.6-3.1,7.6c0,3.1,1.1,5.4,3.1,7.6
	c1.9,1.9,4.6,3.1,7.3,3.1c2.7,0,5.4-1.1,7.3-3.1c1.9-2.3,3.1-4.6,3.1-7.6c0-3.1-1.1-5.4-3.1-7.6
	C293.8,264.1,291.1,262.9,288.4,262.9"/>
<path class="sombraS" d="M352.9,246.2c-0.5,1.5-0.5,3.8-0.3,5.1l0,0.2c0.8,15-3,29.4-14.9,39.3l-0.1,0.1l-0.1,0.1
	c-7.2,5.5-16.2,8.2-25.1,9.3l-10.1,2l-6.4-42.2l6.7-2.2l0.5-0.1c1.7-0.3,4.1-0.9,5.6-2c0.8-1.7,0.7-4.5,0.6-6
	c-0.6-5.8-1-12.3-0.4-18.1l0-0.3l0.1-0.3c1.1-4.7,3.2-9,6.1-12.8c6.6-8.5,15.8-12.7,26.2-14.3l15.2-2.6L363,244l-6.1,1.1
	C356,245.3,354,245.7,352.9,246.2"/>
<path class="colorS" d="M351.2,208.6l4.6,30.2c-4.2,0.8-6.9,1.9-8,3.4c-1.1,1.9-1.9,5-1.5,9.6c0.8,14.9-3.4,26.4-12.6,34
	c-5,3.8-12.2,6.9-22.2,8l-3.8,0.8l-4.6-30.2l1.1-0.4c4.6-0.8,7.6-2.3,9.6-4.2c1.5-2.3,2.3-5.7,1.9-10.7c-0.8-8-0.8-13.4-0.4-16.8
	c0.8-3.4,2.3-6.9,5-10.3c5-6.5,12.2-10.3,22.2-11.9L351.2,208.6z"/>
<path class="sombraKids" d="M266,279.3c2.2-6.7,7.1-10.8,14.3-10.7l0.3,0l0.3,0c7.9,1.2,9.4,8,7.4,14.8c-1.7,5.9-7,8.1-12.8,7.6l-0.3,0
	l-0.3-0.1C269.1,289.8,263.8,286.1,266,279.3 M327.4,311c-4.1,4.8-7.6,10.1-9.9,16c4.3-2.9,7.9-6.5,10.8-10.9
	c-0.3-0.5-0.5-1.1-0.7-1.6l-0.2-0.6L327.4,311z M259.1,317.9c0.1-3.7,0.6-7.3,1.2-10.9l0-0.1c0.6-3,2.7-5.6,5.1-7.4
	c8-6,17.6-2.6,15.9,8.4l0,0.2l-0.1,0.2c-1.7,6.8-3.2,14.9-0.9,21.8c0.7-0.3,1.5-0.7,2-0.9c7.5-4.9,14.9-10.4,20.6-17.3
	c2.2-3.9,5.1-7.8,8.1-11.1c4.9-5.3,12.3-11.4,20-10.1c1.5,0.2,2.8,0.7,4,1.4c0.2-2.8,0.3-5.6,0.6-8.5c0.2-2.6,0.6-5.2,1.1-7.7
	l0.1-0.5l0.2-0.4c4.8-11.8,21.7-6,20.6,2.7c-0.1,0.5-0.2,1-0.4,1.4c-3.4,13.3-7,29.8-5.7,43.8c2.7-1.9,6.5-5.5,7.7-6.6
	c2.6-2.4,5.6-5.2,8.6-7.3c1.4-6.5,5.2-11.3,11-14.9l0.4-0.3l0.4-0.2c4.3-1.6,9.4-1.7,12.5,2.1c2.7,3.3,2.5,7.7,0.8,11.4
	c-1.4,3-3.6,5.5-6.2,7.4c1,2.3,3,5.9,4.7,8.9c5.9-3.9,11.4-8.4,16.6-13.3c7.3-8.6,19.4-1.1,12.3,8.3l-0.1,0.1l-0.1,0.1
	c-10,12.2-21.8,22.9-35,31.6c-5.8,3.8-10.1,7.7-17.5,7.4c-3.6-0.1-7.2-1.6-8.7-5.2c-2.1-5,1.7-9.9,5.6-12.7l0.1-0.1l0.1-0.1
	c1.9-1.2,8.4-3.9,10.7-5.5l-3.2-5.2c-1.6,1.6-3.1,3.3-4.8,4.8c-5.3,5.1-13,11.4-20.9,10.3l-0.2,0l-0.2-0.1c-5.4-1.3-8.4-5.4-10-10.3
	c-1.5,1.7-3.1,3.3-4.7,4.8c-6.7,6-19.5,14.6-28.7,9.7c-2.9-1.5-4.7-4-5.8-6.8c-7.6,6-17.4,10.7-25.9,7.1c-2.5-1-4.5-2.7-6.1-4.8
	l-0.1-0.2l-0.1-0.2c-1.6-2.5-2.8-5.1-3.7-7.8c-3.8,3.8-7.9,7.3-12.3,10.4l-0.1,0.1c-8,5.2-16.4,5.6-24.5,0.4l-0.1-0.1
	c-3.7-2.5-6.9-6.1-10.1-9.4c-1.6,2.7,0.3,3.7-1.6,8.3c-1.9,7.4-14.7,8.3-17.6,1.1l-0.4-0.9l0-0.9c0.1-9.8,1.8-20.2,3.3-30
	c1.7-11.3,3.3-22.6,3.6-34.1l0-0.7l0.2-0.7c4.2-12.1,18.7-10.8,20,0.3l0.1,0.5l-0.1,0.5c-0.9,8.4-2.1,16.7-3.4,25.1
	c3.3-4,6.7-7.8,10.5-11.2l0.4-0.4l0.5-0.3c4.8-2.5,11-3.4,14.8,1.5c2.5,3.2,2.8,8.6-0.3,11.5c-5.2,5.3-10.8,10.4-15.8,15.9
	c3,2.9,6.3,5.7,9.6,8.3c5.2,1.5,13.5-6.8,17-10C256.5,319.3,257.8,318.3,259.1,317.9z"/>
<path class="colorKids" d="M205.1,278.8c2.7-7.8,10-6.3,10.7-0.7c-1.4,12.9-3.7,27.4-6.5,42.8c7.1-8.3,13.7-17.9,21.6-24.8
	c9.4-4.9,10.9,3.5,8.9,5.3c-6.6,6.8-13.3,12.7-19.1,19.5c4.2,4.4,8.8,8.5,13.9,12.3c8.3,3.4,17.9-6.6,22.7-10.9
	c3.2-4,5.3-0.4,4.2,2.5c-4.6,5.6-10.1,10.8-16.6,15.4c-6.6,4.3-13,4.4-19.3,0.3c-4.3-2.9-8-7.9-13-12.4c-7.9,7.2-4,9.2-6,13.8
	c-0.5,3.2-7.4,3.6-8.5,0.8C198.3,326.1,204.4,302.5,205.1,278.8"/>
<path class="colorKids" d="M324.8,303.6c4.1-2.9,6.1,1.8,6.1,2.3l0.1,5.5c0.3,1.1,1,2,1.9,2.7c-4.3,7.9-10.5,13.6-18.1,17.8
	c-4.3,2.6-5.3,1.9-5.2-1C311.7,321,317,311.9,324.8,303.6 M263.8,306c1.1-5.5,13.1-11.1,11.6-0.6c-2.3,9-3.4,17.6-0.5,25.2
	c1,3.8,4.4,3.3,8.7,0.9c8.5-5.5,16.2-11.5,22.2-18.7c5.8-10.8,23.9-30.8,31.4-10.7c2-5,1.2-17.3,3.2-27.1c3-7.2,12.8-2.2,11.2,0.7
	c-4.5,17.8-7.6,34.8-5.5,48.9c2.2,9.1,16.8-9.7,25.1-14.5c0.8-6.8,4.4-10.8,9.2-13.8c10.2-3.9,11.2,8.1,0,14.1
	c-0.2,4.5,5.6,12,8.4,18c8-4.8,15.2-10.5,21.8-16.8c3.1-3.9,8.5-2.5,5,2.1c-10.4,12.7-22.1,22.8-33.9,30.6
	c-4.8,3.1-8.7,6.9-14.7,6.7c-6.1-0.3-6-5.2-0.5-9.1c4.9-3,15.5-5.7,13.1-10.7l-7.3-11.9c-6.6,7-17.3,19.5-25.8,18.3
	c-5.4-1.3-7.9-7.9-8.4-18.3c-7,16.2-39.8,38.3-38.5,10.5c-10.5,11.4-25,18.1-31.7,9.2C262.9,331.1,261.3,320.4,263.8,306z"/>
<path class="colorKids" d="M269.3,279c1.6-4.9,4.7-7.4,9.6-7.3c3.9,0.6,5,3.5,3.5,8.7c-0.9,3.1-3.5,4.5-7.8,4.2
	C270.7,283.7,268.3,282.2,269.3,279"/>
</svg>
