<?xml version="1.0" standalone="no"?>
<!DOCTYPE svg PUBLIC "-//W3C//DTD SVG 1.1//EN" "http://www.w3.org/Graphics/SVG/1.1/DTD/svg11.dtd">
<svg xmlns="http://www.w3.org/2000/svg">
<metadata>Generated by Fontastic.me</metadata>
<defs>
<font id="logo" horiz-adv-x="512">
<font-face font-family="logo" units-per-em="512" ascent="480" descent="-32"/>
<missing-glyph horiz-adv-x="512" />

<glyph glyph-name="kadosh-sy" unicode="&#97;" d="M119 135l19 11-1 3-20-11z m-7 15l20 9-1 3-17-7 11 21-2 4-20-9 1-3 16 7-10-21z m-5 68l4 1c0 0 1 0 1-1l2-14c1 0 0-1 0-1l-1 0 0-3 2 0c2 0 3 2 3 5l-3 14c0 3-2 4-4 4l-5-1c-2-1-4-3-3-5l2-15c0 0 0 0 0 0l-5-1c0 0 0 0-1 0l-2 15c0 0 0 0 1 1l1 0-1 3-1 0c-2 0-4-3-3-5l2-15c1-2 3-3 5-3l4 1c3 0 4 3 4 5l-3 14c0 1 0 1 1 1z m-5 36l1-16-7 0c-1 0-1 0-1 1l0 14c0 1 0 1 0 1z m-6-20l18 1-1 3-7 0-1 16 8 1 0 3-18 0c-2 0-4-2-4-5l0-15c1-2 2-4 5-4z m-4 39l21-3 1 3-17 3 19 13 1 4-22 3-1-4 18-2-20-13z m11 44l18-5 1 4-18 5 2 9-3 1-6-22 4-1z m5 26l20-8 1 3-20 9z m6 17l19-12 9 17c2 2 1 5-1 6l-12 7c-2 1-4 1-5-1z m25 7l-6-13c-1-1-1-1-1 0l-12 7c-1 0-1 1-1 1l7 13c0 0 1 0 1 0l12-7c1-1 1-1 0-1z m15 34l-10-13-5 5c0 0 0 1 0 1l9 11c0 1 1 1 1 1z m-7-15l10 12 6-5 2 3-14 12c-2 2-4 2-6 0l-9-12c-1-1-1-4 1-5l14-13 2 3z m38 32l-11-9c0 0-1 0-1 0l-9 12c0 0 0 1 0 1l11 9c1 0 1 0 1 0l9-12c0 0 0 0 0-1z m-26 4l14-18 14 12c2 1 2 4 1 5l-9 12c-2 2-4 2-6 1z m59 34l6-17-20 12-4-1 8-22 3 1-6 18 20-13 3 2-7 22z m20 1l1-19 3 0 0 8 15 1 1-8 3 0-1 19c0 2-2 4-4 4l-14-1c-2 0-4-2-4-4z m4 1l14 0c1 0 1 0 1 0l0-8-15 0 0 7c0 1 0 1 0 1z m38-2l13-3c1 0 1 0 1-1l-3-14c0-1-1-1-1-1l-13 3c-1 0-1 1-1 1l3 15c0 0 0 0 1 0z m-3 5l-5-23 17-4c3-1 5 1 5 3l3 14c1 3-1 5-3 5z m35-11l-9-22 3-1 9 21z m17-9l-13-19 16-12 2 2-13 11 3 5 11-8 2 3-11 8 4 5 13-10 2 3z m34-29l-8-26 2-2 25 5-3 3-20-4 7 21z m27-37l-20-11 10-19 3 2-8 16 5 3 6-13 3 2-6 12 6 3 7-16 3 2z m13-38l5-14c0 0-1-1-1-1l-6-2c0 0 0 0-1 1l-4 14c0 0 0 1 1 1l5 2c1 0 1 0 1-1z m2 5l-21-7 1-3 8 2 2-7-5-10 1-5 6 9 0-2c1-2 3-3 5-2l6 2c2 0 3 3 3 5z m8-41l2-14c0 0 0-1 0-1l-7-1-3 16 7 1c0 0 1 0 1-1z m3 1c0 2-3 4-5 4l-17-4 0-3 8 1 3-16-8-1 1-4 17 4c3 0 4 2 4 5z m-6-48l7 0c0 0 1 0 0 0l0-15c0-1 0-1-1-1l-7 0z m11-1c0 3-2 5-4 5l-18 0 0-3 8-1-1-16-7 0-1-3 18-1c3 0 4 2 4 5z m-8-47c0 0 1 0 1-1l-3-14c-1 0-1-1-1 0l-14 3c0 0-1 0 0 1l3 14c0 1 0 1 1 1z m5 3l-22 5-4-19c0-2 1-4 3-5l14-3c2-1 4 1 5 3z m-9-36l-21 7-1-3 21-7z m-23-11l12-7c0 0 1 0 1 0 0 0 0-1 0-1l-6-13c0 0-1-1-1 0l-13 6c0 0 0 0 0 1l6 13c0 1 0 1 1 1z m14-4l-13 7c-2 1-4 0-5-2l-6-14c-1-2 0-4 2-5l12-7c2-1 5 0 6 2l6 14c1 2 0 4-2 5z m-16-39c1 2 1 5-1 6l-4 3c-1 1-4 1-5-1l-8-12c0-1-1-1-1 0l-4 2c0 0 0 1 0 1l8 12c0 1 1 1 1 1l1-1 2 3-1 1c-2 1-4 0-6-1l-8-13c-1-2-1-4 1-6l4-2c2-2 4-1 6 1l8 12c0 0 0 0 1 0l3-3c1 0 1-1 0-1l-7-12c-1 0-1 0-1 0l-1 1-2-3 1-1c1-1 4-1 5 1z m-239-10c2 1 3 4 1 6l-8 12c0 0 0 1 1 1l3 3c1 0 1 0 1-1l8-12c0 0 0-1 0-1l-1 0 2-3 1 0c2 2 2 4 1 6l-8 13c-2 1-4 2-6 1l-4-3c-1-2-2-4-1-6l8-12c1-1 1-1 0-1l-3-3c-1 0-1 0-2 0l-7 12c-1 0-1 1 0 1l1 1-2 3-1-1c-2-1-2-4-1-6l8-12c1-2 4-3 5-1z m-6-67l25 0 0-10-25 0 0 10z m0 10c-5 0-9-4-9-9l0-35 9 0 0 14 25 0 0-14 10 0 0 35c0 5-4 9-9 9l-26 0z m69-10l25 0 0-25-25 0z m-10 10l0-44 35 0c2 0 4 1 5 2 3 1 4 4 4 7l0 26c0 5-4 9-9 9l-35 0z m78-10l25 0 0-25-25 0z m-1 10c-5 0-9-4-9-9l0-26c0-3 2-6 4-8 2-1 3-1 5-1l26 0c5 0 9 4 9 9l0 26c0 5-4 9-9 9l-26 0z m127 0l0-44 10 0 0 17 26 0 0-17 9 0 0 44-9 0 0-17-26 0 0 17z m-59 0c-5 0-9-4-9-9l0-9c0-2 1-4 2-5 1-2 4-4 7-4l25 0 0-8-25 0 0 4-9 0 0-4c0-5 4-9 9-9l26 0c5 0 9 4 9 9l0 9c0 4-4 9-9 9l-26 0 0 7 25 0 0-3 10 0 0 4c0 5-4 9-9 9z m-251-22l16 19 0 3-10 0-15-17-8 0 0 17-10 0 0-44 10 0 0 17 8 0 15-17 10 0 0 3z m164 474c111 0 201-111 201-248 0-67-22-128-57-173l-16 0c36 44 58 105 58 173 0 132-83 238-186 238-103 0-186-106-186-238 0-68 22-129 58-173l-16 0c-35 45-57 106-57 173 0 137 90 248 201 248m46-247c28 67-8 90-51 106 16-44 8-73-34-81-22 6-39 1-47-20 17 0 26-3 24-11-32-46-28-80 11-101 0 71 74 89 91 28 46 20 55 53 39 91-9-9-20-12-33-12"/>
<glyph glyph-name="whatsapp-sy" unicode="&#98;" d="M156 249c4-4 43-69 106-93 53-21 63-17 75-16 11 1 36 15 41 30 6 14 6 26 4 29-2 3-6 4-12 7-6 3-37 18-42 20-6 2-10 3-14-3-4-6-16-20-20-24-3-4-7-5-13-2-6 3-26 10-50 31-18 16-31 37-34 43-4 6-1 9 2 12 3 3 6 8 10 11 3 4 4 6 6 11 2 4 1 7-1 10-1 3-13 34-19 46-4 11-9 11-14 11-3 0-7 0-12 0-4 0-10-1-16-8-6-6-22-21-22-51 0-30 22-60 25-64m-114-115l-35-128 132 34c160-87 366 26 366 218 0 137-111 248-248 248-192 0-309-209-215-372m215 330c114 0 206-92 206-206 0-166-177-257-318-173l-78-20 20 76c-89 142 1 323 170 323z"/>
<glyph glyph-name="facebookmess-sy" unicode="&#99;" d="M53 272c0 107 90 193 203 193 113 0 203-86 203-193 0-106-90-192-203-192-24 0-48 4-69 12l-8 2-45-22 0 46-7 6c-45 36-74 89-74 148m203 234c-134 0-244-104-244-234 0-68 32-130 82-172l0-94 90 45c23-7 47-12 72-12 134 0 244 104 244 233 0 130-110 234-244 234z m-23-169l-122-130 109 61 59-63 121 132-107-61z"/>
<glyph glyph-name="youtube-sy" unicode="&#100;" d="M496 372c-7 27-28 48-55 55-52 14-318 14-370 0-27-7-48-28-55-55-13-50-13-182 0-232 7-27 28-48 55-55 51-14 319-14 370 0 27 7 48 28 55 55 13 50 13 182 0 232m-414 16c44 12 305 12 349 0 12-3 22-14 26-26 12-45 12-168 0-212-3-13-14-23-26-26-44-12-305-12-349 0-13 3-23 13-27 26-11 44-11 167 0 212 4 13 14 23 27 26z m124-57l0-150 130 75z"/>
<glyph glyph-name="facebook-sy" unicode="&#101;" d="M256 506c-329 0-329-500 0-500 329 0 329 500 0 500m-34-251l-57 0 0-60 57 0 0-144c-249 41-220 413 34 413 256 0 282-376 31-414l0 145 59 0 10 61-69 0c0 76-2 80 69 80l0 52c-119 16-134-23-134-133z"/>
<glyph glyph-name="twitter-sy" unicode="&#102;" d="M175 277c-8 1-15 3-21 6 0-22 15-41 36-46-4-1-15-2-20 0 6-19 23-31 43-32-18-14-46-23-68-19 85-55 199 6 199 109l0 6c10 7 17 15 23 24-8-4-17-6-26-7 10 6 17 14 20 25-10-6-19-9-29-11-33 36-91-2-77-41-38 1-70 17-94 47-13-22-7-47 14-61m328-21c0 138-111 250-247 250-136 0-246-112-246-250 0-138 110-250 246-250 136 0 247 112 247 250m-451 0c0 114 91 207 204 207 113 0 204-93 204-207 0-114-91-207-204-207-113 0-204 93-204 207z"/>
<glyph glyph-name="instagram-sy" unicode="&#103;" d="M503 256c0 138-111 250-247 250-136 0-246-112-246-250 0-138 110-250 246-250 136 0 247 112 247 250m-451 0c0 114 91 207 204 207 113 0 204-93 204-207 0-114-91-207-204-207-113 0-204 93-204 207z m106 98c9 9 24 15 41 15l114 0c18 0 32-5 42-15 10-11 15-24 15-41l0-115c0-17-5-32-16-41-9-10-24-15-41-15l-113 0c-17 0-31 5-41 15-10 10-16 25-16 42l0 114c0 17 6 32 15 41m41 40c-49 0-81-33-81-81l0-114c0-25 7-45 23-60 15-14 35-21 59-21l112 0c24 0 44 6 59 21 15 15 23 35 23 60l0 0 0 113c0 24-6 44-21 59-15 15-35 23-59 23z m57-91c26 0 46-21 46-46 0-25-20-45-46-45-25 0-45 20-45 45 0 25 20 46 45 46m0 25c-38 0-70-32-70-71 0-38 31-70 70-70 40 0 72 31 72 70 0 39-33 71-72 71z m57 3c0-10 8-17 17-17 9 0 17 7 17 17 0 9-8 17-17 17-9 0-17-8-17-17"/>
<glyph glyph-name="menu-sy" unicode="&#104;" d="M503 256c0 138-111 250-247 250-136 0-246-112-246-250 0-138 110-250 246-250 136 0 247 112 247 250m-451 0c0 114 91 207 204 207 113 0 204-93 204-207 0-114-91-207-204-207-113 0-204 93-204 207z m101 22l206 0c12 0 22-10 22-22 0-12-10-22-22-22l-206 0c-12 0-21 10-21 22 0 12 9 22 21 22m0 94l206 0c12 0 22-10 22-22 0-12-10-22-22-22l-206 0c-12 0-21 10-21 22 0 12 9 22 21 22m0-188l206 0c12 0 22-10 22-22 0-12-10-22-22-22l-206 0c-12 0-21 10-21 22 0 12 9 22 21 22"/>
<glyph glyph-name="close-sy" unicode="&#105;" d="M503 256c0 138-111 250-247 250-136 0-246-112-246-250 0-138 110-250 246-250 136 0 247 112 247 250m-451 0c0 114 91 207 204 207 113 0 204-93 204-207 0-114-91-207-204-207-113 0-204 93-204 207z m299-80l-65 80 65 80c7 9 6 23-4 31-9 7-23 6-30-3l-59-73-60 73c-7 9-21 10-30 3-10-8-11-22-3-31l64-80-64-80c-8-9-7-23 3-31 9-7 23-6 30 3l60 73 59-73c7-9 21-10 30-3 10 8 11 22 4 31"/>
<glyph glyph-name="calendarclock" unicode="&#106;" d="M69 490l0-62c0-9 7-16 15-16 9 0 16 7 16 16l0 62c0 9-7 16-16 16-8 0-15-7-15-16m250 0l0-62c0-9 7-16 15-16 9 0 16 7 16 16l0 62c0 9-7 16-16 16-8 0-15-7-15-16m-16-47l-188 0 0-15c0-17-14-31-31-31-17 0-31 14-31 31l0 15-13 0c-19 0-34-15-34-34l0-275c0-19 15-34 34-34l185 0 0 31-185 0c-1 0-3 1-3 3l0 216 344 0 0-63 31 0 0 122c0 19-15 34-33 34l-13 0 0-15c0-17-14-31-32-31-17 0-31 14-31 31l0 15z m-234-125l62 0 0-62-62 0z m93 0l63 0 0-62-63 0z m94 0l63 0 0-62-63 0z m-94-93l63 0 0-63-63 0z m-93 0l62 0 0-63-62 0z m218-94c0 52 42 94 94 94 52 0 94-42 94-94 0-52-42-94-94-94-52 0-94 42-94 94m94 125c-69 0-125-56-125-125 0-69 56-125 125-125 69 0 125 56 125 125 0 69-56 125-125 125z m-16-63c-8 0-15-7-15-15l0-63c0-8 7-15 15-15l63 0c9 0 16 7 16 15 0 9-7 16-16 16l-47 0 0 47c0 8-7 15-16 15"/>
<glyph glyph-name="phone" unicode="&#107;" d="M506 256c0 138-112 250-250 250-138 0-250-112-250-250 0-138 112-250 250-250 138 0 250 112 250 250m-176 21c-8 30-33 51-62 55-2 2-4 4-5 8 0 5 4 10 9 12 36-6 67-32 77-69 1-3 2-7 2-10-1-4-4-7-9-8-4 0-8 2-10 5-1 2-1 5-2 7z m82-7c-1 10-2 19-5 28-18 66-75 110-140 114-3 2-5 6-5 11 0 4 3 8 7 9 2 0 3 0 5 0 86-8 151-77 158-160-1-4-5-7-9-7-5-1-9 2-11 5z m-30-1c-4-1-8 1-11 5 0 5-1 9-2 14-13 47-53 79-99 84-2 2-4 4-5 8 0 5 3 10 9 12 53-7 99-44 114-99 1-5 3-11 3-17-1-4-4-7-9-7z m-18-167c-147 0-267 119-267 266 0 7 5 12 11 14l60 14c6 1 13-2 16-8l27-65c3-5 1-12-4-16l-35-28c21-44 57-81 102-102l29 35c4 4 10 6 16 4l64-28c7-3 10-9 8-16l-13-60c-2-6-7-10-14-10z"/>
<glyph glyph-name="whatsapp" unicode="&#108;" d="M137 189c-56 98 14 223 129 223 82 0 148-67 148-149 0-115-123-182-219-130l-79-21z m369 67c0 138-112 250-250 250-138 0-250-112-250-250 0-138 112-250 250-250 138 0 250 112 250 250z m-206-13c2 3 5 3 8 1 0 0 31-13 32-16 1-2 1-9-2-18-3-8-18-16-25-17-48-8-123 61-123 103 0 12 9 36 23 36 3 0 5 0 7 0 3 0 6 1 9-7 3-7 10-25 11-27 1-2 2-4 0-7-2-4-5-9-9-12-2-2-4-4-2-8 14-23 27-32 51-44 3-2 6-2 8 1 2 2 9 11 12 15m89 20c0 68-55 124-123 124-103 0-154-111-102-194l-12-45 46 12c85-50 191 4 191 103z"/>
<glyph glyph-name="facebookmess" unicode="&#109;" d="M256 6c138 0 250 112 250 250 0 138-112 250-250 250-138 0-250-112-250-250 0-138 112-250 250-250m-151 253c0 78 68 141 151 141 84 0 152-63 152-141 0-78-68-141-152-141-15 0-29 2-43 6l-52-28 0 54c-34 25-56 65-56 109z m135 40l-82-89 75 42 38-42 83 89-74-42z"/>
<glyph glyph-name="mail" unicode="&#110;" d="M113 348l287 0 0-184-287 0z m393-92c0 138-112 250-250 250-138 0-250-112-250-250 0-138 112-250 250-250 138 0 250 112 250 250z m-389 85l87-84-88-85 1-7 101 82 38-31 39 31 100-82 0 7 1 0-88 85 87 84 0 5-139-120-139 120z"/>
<glyph glyph-name="ubicacion" unicode="&#111;" d="M428 166c-9 3-18-2-21-10-3-9 2-19 10-22 0 0 0 0 1 0 38-12 55-27 55-36 0-24-87-59-217-59-130 0-217 35-217 59 0 9 17 24 56 36 8 3 13 12 10 21-2 9-12 14-20 11-1 0-1 0-1 0-64-21-78-48-78-68l0-1c0-59 125-91 249-91l2 0c124 0 249 32 249 92 0 19-14 47-78 68m-182-90c6-5 14-5 20 0 7 5 150 121 150 270 0 89-72 160-160 160-88 0-159-71-159-160 0-149 143-265 149-270m-47 270c0 32 26 58 57 58 32 0 57-26 57-58 0-31-25-57-57-57-32 0-57 26-57 57z"/>
<glyph glyph-name="facebookka" unicode="&#112;" d="M317 359l0 1c0-1 0-2 0-1m-75-245c-1-6-6-12-13-11-6 0-11 5-11 12 1 53 0 105-1 127l0 1-8 0c-13-1-25-2-32 4-1 1-2 3-3 4l0 1c-3 5-4 16-5 27 0 11 1 23 7 28 1 1 2 2 3 3 6 3 16 2 26 2 7-1 14-1 14-1 5 3-5-2-5 1 0 10-1 25 2 41 8 37 33 74 116 57 2 0 3-1 4-1l0 0c4-3 6-7 6-11 1-6 1-14 1-22-1-12-3-25-5-28l-1-2c-4-6-11-6-19-5-8 0-20 0-26-4 0-1-1-1-1-2-3-4-4-10-3-16l0 0c0-3 0-6 0-8 2 0 6 2 12 1 15 0 32 0 37-6l0 0c2-2 3-5 3-7 1-7 2-16 2-25 0-13-2-26-6-30-6-5-20-3-34-2-10 1-17 4-19 4-3-3 6-27 8-57 3-37 5-75 1-81-7-10-21-10-32-10l-3 0c-7 0-12 5-12 12-1 6 5 12 11 12l3 0c6 0 14 0 14 0 0 1-3 33-5 65-2 25-4 49-3 64-1 5 0 11 4 14l1 0c6 4 20 2 34 1 9-1 13-6 16-4 1 1-2 5-2 12 0 9 1 16 1 16-2 2-9-2-19-2-8 1-16 1-21 2-2 0-4 1-6 2-1 1-2 2-3 3-3 3-6 12-6 23l0 0c0 10 1 22 7 30 2 3 4 5 7 7 12 10 29 9 40 9 1 3 1 8 1 13 1 6 5 8 5 10-61 12-79-14-84-39-3-13-2-27-2-36 0-10 0-18-6-22-7-4-18-3-29-2l-11 0c1-2 1-5 1-9 0-6 1-13 2-16 2 0 6 2 12 3 6 0 12 1 16 1 11-1 18-5 18-15l0-10c0-22 2-73 1-128z m17-102c-7 0-12 5-12 11 0 7 5 12 11 13 3 0 6 0 9 0 62 4 116 32 155 74 39 41 62 96 60 154l0 8c-4 58-32 110-74 147-43 37-100 59-159 57-60-2-116-28-156-69-39-40-64-95-63-154 0-24 3-46 9-65 18-63 59-101 98-123 38-22 72-29 80-29 6 1 11-3 13-8 2-7-2-13-8-15-1 0-3-1-4-1l0 0c-9 0-50 7-93 32-43 25-89 68-109 138-6 21-10 44-10 71-1 66 26 126 70 170 44 46 106 75 172 77 66 2 129-22 176-64 46-40 77-98 82-163 0-2 0-5 0-9 2-64-24-125-66-170-43-46-103-77-171-82-3 0-6 0-10 0"/>
<glyph glyph-name="instagramka" unicode="&#113;" d="M387 506l-261 0c-66 0-120-54-120-120l0-219 36 0 0 219c0 47 37 84 83 84l262 0c46 0 83-37 83-84l0-261c0-46-37-83-83-83l-261 0c-47 0-84 37-84 83l-36 0c0-65 54-119 120-119l261 0c65 0 119 54 119 119l0 261c0 66-54 120-119 120m-6-250c0-69-56-125-125-125-69 0-125 56-125 125 0 69 56 125 125 125 69 0 125-56 125-125m-286 0c0-89 72-161 161-161 89 0 161 72 161 161 0 89-72 161-161 161-89 0-161-72-161-161z m340 161c0 19-16 35-36 35-20 0-36-16-36-35 0-20 16-36 36-36 20 0 36 16 36 36"/>
<glyph glyph-name="twitterka" unicode="&#114;" d="M212 186c6 1 12-4 13-10 2-6-3-12-9-13-3-1-14-1-27 4-7 2-14 6-22 12l-2 2c-9 8-15 17-17 24-3 7-6 21 3 26-14 12-38 62-13 65-8 16-8 32-5 49l0 1c3 12 8 22 14 24l1 0c1 0 2 0 3 0 7 0 13-6 21-14 9-10 24-25 39-34 14-7 29-14 42-18 7-3 11-6 12-5l0 0c1 1-2 0-2 3 0 17 0 44 30 64l2 1c37 21 70 0 83-8 1 0-1 0 0 0l1 0c1-1 4 3 10 6 13 6 25 12 31 1l0 0c1-1 1-2 1-2 1-3 0-6-1-8-1-3-3-7-5-10l1 0c8 0 13-3 13-12 0-7-6-13-14-19l-11-9c0-1 0-2 1-5 1-17 3-58-27-103l-1-1c-18-22-39-40-60-54-34-21-70-32-102-34-34-2-63 6-82 21-6 5-11 10-15 16-3 6-1 13 4 16 5 4 12 2 16-3 2-4 5-8 9-11 15-11 39-17 66-16 29 2 61 12 91 31 20 12 38 28 55 49 25 37 23 73 22 88 0 5 0 9 0 12 1 3 4 6 6 9-1 1-1 2-2 2-4 4-4 9-2 14-2 0-3-1-4-1-2 0-4-1-6 0-2 0-5 2-8 4-9 5-34 21-59 7l0 0c-20-14-20-33-20-45 0-8 0-13-4-18l-1-1c-6-7-19-6-36-1-13 4-30 11-45 20-19 10-34 26-45 37-3-22 1-33 15-50 7-8 12-13 6-22-6-8-13-5-22 0 9-24 45-34 42-51-3-9-13-9-24-8 2-3 4-6 8-9l1-2c6-4 11-6 16-8 8-3 14-4 15-3m-200 61c0 6 5 12 11 12 7 0 12-5 12-11 1-3 1-6 1-9 6-62 35-116 78-154 42-37 98-59 156-56l8 1c59 5 109 35 145 78 37 44 57 101 54 161-4 60-32 115-74 154-41 39-96 62-156 60-24-2-45-5-64-11-63-20-100-63-121-102-21-39-27-73-27-81 1-5-3-11-8-13-6-2-13 1-15 8 0 1 0 2 0 4-1 8 6 49 29 93 24 44 65 91 135 113 21 6 44 11 71 12l0 0c65 2 126-23 172-66 46-43 77-103 81-170 4-65-19-129-59-177-39-47-96-80-161-86-3 0-6-1-9-1-64-3-125 21-172 62-47 42-80 101-86 169 0 3-1 7-1 10"/>
<glyph glyph-name="whatsappka" unicode="&#115;" d="M217 282c-5-2-11 0-14 4-2 4-1 9 2 12 0 10-24 63-27 64-5 2-20-8-23-12-77-74 139-291 223-167-1 2-48 28-54 28-1 0-15-32-31-33-29-2-113 68-108 95 0 6 5 9 11 8 5 0 9-5 8-11-2-13 71-73 88-72 2 0 17 34 33 33 13-1 68-31 72-41 6-15-19-42-31-51-110-78-312 141-225 226 9 9 29 21 43 16 14-4 45-72 40-90-1-4-4-7-7-9m-115-216c-4 3-5 10-1 14 3 4 10 5 14 1 7-6 17-13 29-19 37-18 90-32 143-30 52 2 105 20 142 64 9 10 17 22 24 36 4 7 7 15 10 22 28 68 29 132 10 185-18 54-56 97-105 121-4 3-9 5-14 7-58 24-122 23-178 1-54-21-101-62-126-118l0 0c-57-132 3-204 21-226 5-5 7-8 8-12 0-1 0-2 0-3-1-6-5-17-9-30-8-22-19-53-19-53 6-4 58 20 58 20 5 2 11 0 13-5 2-5 0-11-5-14 0 0-61-27-76-18-14 9 0 48 10 77 4 12 8 22 8 23 0 2-1 0-3 2-20 25-86 103-24 246l0 1c27 62 78 106 137 129 61 23 130 24 193-2 5-2 10-4 15-7 54-27 95-74 115-132 20-58 20-127-10-199-3-8-7-16-11-24-8-15-17-29-26-40-42-49-100-68-157-71-57-2-114 13-153 33-13 6-24 13-33 21"/>
<glyph glyph-name="youtubeka" unicode="&#116;" d="M206 176c-5 0-9 3-11 7-4 6-2 13 4 17l110 63-91 54 0-69c0-7-6-13-12-13-7 0-13 6-13 13l0 90c0 5 2 9 6 11 4 2 9 2 13 0l128-76c3-2 6-6 6-11 0-4-3-8-7-10l-127-74c-2-1-4-2-6-2m230-98l-365 0c-7 0-13 6-13 13 0 7 6 12 13 12l365 0c25 0 45 21 45 46l0 214c0 25-20 46-45 46l-359 0c-25 0-46-21-46-46l0-208c0-7-6-13-13-13-6 0-12 6-12 13l0 208c0 39 32 71 71 71l359 0c38 0 70-32 70-71l0-214c0-39-31-71-70-71"/>
<glyph glyph-name="conection" unicode="&#117;" d="M256 506c-138 0-250-112-250-250 0-138 112-250 250-250 138 0 250 112 250 250 0 138-112 250-250 250m-61-217l109 64c-1 4-1 7-1 11 0 26 20 47 46 47 26 0 47-21 47-47 0-26-21-47-47-47-12 0-23 5-31 13l-110-64c1-3 2-7 2-11 0-3-1-7-2-11l111-64c8 7 18 12 30 12 25 0 46-20 46-45 0-25-21-46-46-46-25 0-45 21-45 46 0 3 0 6 1 10l-110 64c-9-8-20-12-32-12-26 0-47 20-47 46 0 26 21 47 47 47 12 0 23-5 32-13z"/>
<glyph glyph-name="credo" unicode="&#118;" d="M506 256c0 138-112 250-250 250-138 0-250-112-250-250 0-138 112-250 250-250 138 0 250 112 250 250m-479 0c0 127 102 229 229 229 127 0 229-102 229-229 0-127-102-229-229-229-127 0-229 102-229 229z m287 104c-5 0-9-7-5-13 6-9 6-12 5-25 0-6 7-10 12-6 9 7 3 44-12 44m-17 7c4 0 6-2 6-6 0-3-2-6-6-6-3 0-6 3-6 6 0 4 3 6 6 6z m-43-9c-23 37-82 23-82-27 0-34 50-70 75-84 12-7 9-7 20 0 25 14 76 50 76 84 0 50-59 64-83 27-4-7-2-7-6 0z m-77-249l58 0c1 0 3 1 3 3l-2 73c0 8 0 14-4 20l-20 31c-3 4-8 8-13 11l-27 15-34 32c-9 7-26-3-15-18l55-70c4-5-2-10-6-4l-56 71c-8 13-2 25 9 29l-8 42c-1 21-28 18-28-1l2-59c-1-7 2-15 5-21l26-55c2-5 4-9 8-13l36-37c7-6 11-13 10-24l-2-22c0-2 1-3 3-3m158 0l-58 0c-1 0-3 1-3 3l2 73c0 8 0 14 4 20l20 31c4 4 8 8 13 11l27 15 34 32c9 7 27-3 16-18l-56-70c-3-5 2-10 6-4l56 71c8 13 2 25-9 29l8 42c1 21 28 18 28-1l-2-59c1-7-2-15-5-21l-26-55c-2-5-3-9-8-13l-36-37c-6-6-11-13-10-24l2-22c0-2-1-3-3-3"/>
<glyph glyph-name="valores" unicode="&#119;" d="M506 256c0 138-112 250-250 250-138 0-250-112-250-250 0-138 112-250 250-250 138 0 250 112 250 250m-479 0c0 127 102 229 229 229 127 0 229-102 229-229 0-127-102-229-229-229-127 0-229 102-229 229z m232 27c27 108 273 62 17-191-19-1-59 20-69 22 17-18 54-41 78-52 23-10 83 72 116 150 95 223-155 181-142 71m-4-131c-178-53-173 219 9 174-25 32-94 30-127 8-81-52-52-177 39-205 90-28 176 71 189 148-24-40-71-77-114-33 2-6 40-74 8-89-43 19-46 51-20 89-42-34-62-10-90 26-4-52 41-126 103-116 2 0 4-1 3-2m-70 269c15 0 28-13 28-29 0-15-13-28-28-28-16 0-29 13-29 28 0 16 13 29 29 29m135 29c19 0 35-15 35-35 0-19-16-35-35-35-20 0-35 16-35 35 0 20 15 35 35 35m-125-180c9 0 16-7 16-16 0-9-7-16-16-16-9 0-16 7-16 16 0 9 7 16 16 16m105 5c10 0 19-9 19-19 0-11-9-19-19-19-10 0-19 8-19 19 0 10 8 19 19 19"/>
<glyph glyph-name="vision" unicode="&#120;" d="M442 293c0 28-27 49-60 49-16 0-31-5-41-13 16-8 30-21 40-36z m-196 33c-11 10-27 16-45 16-33 0-60-21-60-49l71 0c8 14 20 25 34 33m131-74c0 38-36 67-81 67-45 0-81-29-81-67z m-81 155c21 0 38-16 38-38 0-21-17-37-38-37-21 0-38 16-38 37 0 22 17 38 38 38m86 0c15 0 28-12 28-28 0-15-13-28-28-28-16 0-28 13-28 28 0 16 12 28 28 28m-181 0c15 0 28-12 28-28 0-15-13-28-28-28-15 0-28 13-28 28 0 16 13 28 28 28m-174-145c3 124 105 223 229 223 127 0 229-102 229-229 0-127-102-229-229-229-97 0-180 60-213 145 79-1 100-34 170-62 82-32 205 88 230 96 6 18-6 28-24 24-34-17-113-64-142-74-5-2-11-2-19 3-27 14-56 29-82 45-4 2-3 7 4 3l87-44c4-5 35 8 23 22-14 26-157 96-193 99-17 1-54-14-70-22m479-6c0 138-112 250-250 250-138 0-250-112-250-250 0-138 112-250 250-250 138 0 250 112 250 250z"/>
<glyph glyph-name="suscribite" unicode="&#121;" d="M405 443l-184-185-17-44 45 17 184 185z m38 38l27-28-23-23-28 27z m-393-42l320 0 64 64c4 4 11 4 15 0l43-43c5-4 5-11 0-16l-94-94 0-82-27 0 0 54c-37-37-72-72-107-107l-90-32-85 1c-9 0-9 14 0 14l84 0c2 0 4-1 5-2l21 58-110 0c-9 0-9 15 0 15l115 0 1 5 52 51-168 0c-9 0-9 15 0 15l182 0 68 68-285 0c-6 0-10-4-10-10l0-351c0-5 4-10 10-10l214 0 0-31-218 0c-18 0-33 15-33 33l0 367c0 18 15 33 33 33z m331-226c-34-6-60-34-60-67l0-57-26-34c-4-5-3-10 4-10l190 0c7 0 8 5 5 10l-27 34 0 57c0 33-26 61-59 67l0 9c0 16-27 16-27 0l0-9z m49-176l-72 0c2-18 17-31 36-31 19 0 35 13 36 31"/>
<glyph glyph-name="dedo" unicode="&#122;" d="M168 426l-49 40-10-13 49-39z m253-193c0 12-11 23-23 23-13 0-24-11-24-23l0-8-15 0 0 39c0 12-11 23-24 23-12 0-23-11-23-23l0-24-16 0 0 39c0 13-11 24-23 24-13 0-24-11-24-24l0-54-15 0 0 164c0 12-11 23-24 23-12 0-23-11-23-23l0-177c-33 35-75 72-92 55-16-17 28-64 87-167 28-45 63-78 122-78 64 0 117 56 117 117l0 94z m16 0l0-94c0-74-60-133-133-133-50 0-100 23-136 87-50 93-116 154-84 185 22 22 56 0 87-28l0 139c0 22 17 39 39 39 22 0 39-17 39-39l0-78c6 4 14 7 24 7 15 0 29-9 35-25 8 7 18 10 27 10 22 0 39-17 39-39 6 5 14 8 23 8 22 0 40-18 40-39z m-285 126l-3 15-61-14 3-15z m161 95l-10 12-48-39 9-13z m-95 52l-16 0 0-63 16 0z m55-132l60-14-3-15-61 14z"/>
</font>
</defs>
</svg>
