<?xml version="1.0" encoding="utf-8"?>
<!-- Generator: Adobe Illustrator 24.0.2, SVG Export Plug-In . SVG Version: 6.00 Build 0)  -->
<svg version="1.1" id="Capa_1" xmlns="http://www.w3.org/2000/svg" xmlns:xlink="http://www.w3.org/1999/xlink" x="0px" y="0px"
	 viewBox="0 0 512 512" style="enable-background:new 0 0 512 512;" xml:space="preserve">
<style type="text/css">
	.st0{fill-rule:evenodd;clip-rule:evenodd;fill: #fff;}
</style>
<path class="st0" d="M502.5,256C502.5,117.9,392.1,6,256,6C119.9,6,9.5,117.9,9.5,256S119.9,506,256,506
	C392.1,506,502.5,394.1,502.5,256 M51.8,256c0-114.4,91.4-207.1,204.2-207.1S460.2,141.6,460.2,256c0,114.4-91.4,207.1-204.2,207.1
	S51.8,370.4,51.8,256z"/>
<path class="st0" d="M350.6,336.1L285.6,256l64.9-80.1c7.6-9.3,6.1-23.1-3.2-30.7c-9.3-7.5-23.1-6.1-30.7,3.2l-59.1,72.9l-59.1-72.9
	c-7.6-9.3-21.3-10.8-30.7-3.2c-9.3,7.5-10.8,21.4-3.2,30.7l64.9,80.1l-64.9,80.1c-7.6,9.3-6.1,23.1,3.2,30.7
	c9.3,7.6,23.1,6.1,30.7-3.2l59.1-72.9l59.1,72.9c7.6,9.3,21.3,10.8,30.7,3.2C356.7,359.2,358.1,345.4,350.6,336.1"/>
</svg>
