<?xml version="1.0" encoding="utf-8"?>
<!-- Generator: Adobe Illustrator 24.0.2, SVG Export Plug-In . SVG Version: 6.00 Build 0)  -->
<svg version="1.1" id="Capa_1" xmlns="http://www.w3.org/2000/svg" xmlns:xlink="http://www.w3.org/1999/xlink" x="0px" y="0px"
	 viewBox="0 0 512 512" style="enable-background:new 0 0 512 512;" xml:space="preserve">
<style type="text/css">
	.st0{display:none;fill-rule:evenodd;clip-rule:evenodd;}
	.st1{fill-rule:evenodd;clip-rule:evenodd;fill: #fff;}
</style>
<path class="st0" d="M502.5,256C502.5,117.9,392.1,6,256,6C119.9,6,9.5,117.9,9.5,256S119.9,506,256,506
	C392.1,506,502.5,394.1,502.5,256 M51.8,256c0-114.4,91.4-207.1,204.2-207.1S460.2,141.6,460.2,256c0,114.4-91.4,207.1-204.2,207.1
	S51.8,370.4,51.8,256z"/>
<path class="st1" d="M49.8,212.2h412.4c24.1,0,43.8,19.7,43.8,43.8c0,24.1-19.7,43.8-43.8,43.8H49.8C25.7,299.8,6,280.1,6,256
	C6,231.9,25.7,212.2,49.8,212.2"/>
<path class="st1" d="M49.8,23.4h412.4c24.1,0,43.8,19.7,43.8,43.8c0,24.1-19.7,43.8-43.8,43.8H49.8C25.7,111,6,91.3,6,67.2
	C6,43.1,25.7,23.4,49.8,23.4"/>
<path class="st1" d="M49.8,401h412.4c24.1,0,43.8,19.7,43.8,43.8c0,24.1-19.7,43.8-43.8,43.8H49.8C25.7,488.6,6,468.9,6,444.8
	C6,420.7,25.7,401,49.8,401"/>
</svg>
