<?xml version="1.0" encoding="utf-8"?>
<!-- Generator: Adobe Illustrator 24.0.2, SVG Export Plug-In . SVG Version: 6.00 Build 0)  -->
<svg version="1.1" id="Capa_1" xmlns="http://www.w3.org/2000/svg" xmlns:xlink="http://www.w3.org/1999/xlink" x="0px" y="0px"
	 viewBox="0 0 512 512" style="enable-background:new 0 0 512 512;" xml:space="preserve">
<style type="text/css">
	.fondo{fill-rule:evenodd;clip-rule:evenodd;fill:#000;}
	.aa1,.aa2,.aa3,.aa4,.aa5,.aa6{fill:none;stroke:#ff0;stroke-width:3;stroke-dasharray: 300px;opacity: 0;}
		/* stroke-dasharray: 270px; */
		@keyframes move{
			0%{transform: translateX(-100px);}
			100%{transform: translateX(600px);}
		}
	@keyframes uno{
		0%{  	opacity:1;stroke-dashoffset: 300px;}
		5%{ 	opacity:1;stroke-dashoffset: 0px;}
		10%{ 	opacity:1;stroke-dashoffset: 0px;}
		15%{ 	opacity:1;stroke-dashoffset: -300px;}
		20%{ 	opacity:1;stroke-dashoffset: -300px;}
		25%{ 	opacity:1;stroke-dashoffset: -300px;}
		30%{ 	opacity:1;stroke-dashoffset: -300px;}
		35%{	opacity:1;stroke-dashoffset: -300px;}
		40%{	opacity:1;stroke-dashoffset: -300px;}
		45%{	opacity:1;stroke-dashoffset: -300px;}
		50%{ 	opacity:1;stroke-dashoffset: -300px;}
		55%{ 	opacity:1;stroke-dashoffset: -300px;}
		60%{	opacity:1;stroke-dashoffset: -300px;}
		65%{	opacity:1;stroke-dashoffset: -300px;}
		70%{	opacity:1;stroke-dashoffset: -300px;}
		75%{ 	opacity:1;stroke-dashoffset: -300px;}
		80%{ 	opacity:1;stroke-dashoffset: -300px;}
		85%{	opacity:1;stroke-dashoffset: -300px;}
		90%{	opacity:1;stroke-dashoffset: -300px;}
		95%{	opacity:1;stroke-dashoffset: -300px;}
		100%{	opacity:1;stroke-dashoffset: -300px;}
	}
	@keyframes dos{
		0%{  	opacity:1;stroke-dashoffset: 300px;}
		5%{ 	opacity:1;stroke-dashoffset: 300px;}
		10%{ 	opacity:1;stroke-dashoffset: 0px;}
		15%{ 	opacity:1;stroke-dashoffset: 0px;}
		20%{ 	opacity:1;stroke-dashoffset: -300px;}
		25%{ 	opacity:1;stroke-dashoffset: -300px;}
		30%{ 	opacity:1;stroke-dashoffset: -300px;}
		35%{	opacity:1;stroke-dashoffset: -300px;}
		40%{	opacity:1;stroke-dashoffset: -300px;}
		45%{	opacity:1;stroke-dashoffset: -300px;}
		50%{ 	opacity:1;stroke-dashoffset: -300px;}
		55%{ 	opacity:1;stroke-dashoffset: -300px;}
		60%{	opacity:1;stroke-dashoffset: -300px;}
		65%{	opacity:1;stroke-dashoffset: -300px;}
		70%{	opacity:1;stroke-dashoffset: -300px;}
		75%{ 	opacity:1;stroke-dashoffset: -300px;}
		80%{ 	opacity:1;stroke-dashoffset: -300px;}
		85%{	opacity:1;stroke-dashoffset: -300px;}
		90%{	opacity:1;stroke-dashoffset: -300px;}
		95%{	opacity:1;stroke-dashoffset: -300px;}
		100%{	opacity:1;stroke-dashoffset: -300px;}
	}
	@keyframes tres{
		0%{  	opacity:1;stroke-dashoffset: 300px;}
		5%{ 	opacity:1;stroke-dashoffset: 300px;}
		10%{ 	opacity:1;stroke-dashoffset: 300px;}
		15%{ 	opacity:1;stroke-dashoffset: 0px;}
		20%{ 	opacity:1;stroke-dashoffset: 0px;}
		25%{ 	opacity:1;stroke-dashoffset: -300px;}
		30%{ 	opacity:1;stroke-dashoffset: -300px;}
		35%{	opacity:1;stroke-dashoffset: -300px;}
		40%{	opacity:1;stroke-dashoffset: -300px;}
		45%{	opacity:1;stroke-dashoffset: -300px;}
		50%{ 	opacity:1;stroke-dashoffset: -300px;}
		55%{ 	opacity:1;stroke-dashoffset: -300px;}
		60%{	opacity:1;stroke-dashoffset: -300px;}
		65%{	opacity:1;stroke-dashoffset: -300px;}
		70%{	opacity:1;stroke-dashoffset: -300px;}
		75%{ 	opacity:1;stroke-dashoffset: -300px;}
		80%{ 	opacity:1;stroke-dashoffset: -300px;}
		85%{	opacity:1;stroke-dashoffset: -300px;}
		90%{	opacity:1;stroke-dashoffset: -300px;}
		95%{	opacity:1;stroke-dashoffset: -300px;}
		100%{	opacity:1;stroke-dashoffset: -300px;}
	}
	@keyframes cuatro{
		0%{  	opacity:1;stroke-dashoffset: 300px;}
		5%{ 	opacity:1;stroke-dashoffset: 300px;}
		10%{ 	opacity:1;stroke-dashoffset: 300px;}
		15%{ 	opacity:1;stroke-dashoffset: 300px;}
		20%{ 	opacity:1;stroke-dashoffset: 0px;}
		25%{ 	opacity:1;stroke-dashoffset: 0px;}
		30%{ 	opacity:1;stroke-dashoffset: -300px;}
		35%{	opacity:1;stroke-dashoffset: -300px;}
		40%{	opacity:1;stroke-dashoffset: -300px;}
		45%{	opacity:1;stroke-dashoffset: -300px;}
		50%{ 	opacity:1;stroke-dashoffset: -300px;}
		55%{ 	opacity:1;stroke-dashoffset: -300px;}
		60%{	opacity:1;stroke-dashoffset: -300px;}
		65%{	opacity:1;stroke-dashoffset: -300px;}
		70%{	opacity:1;stroke-dashoffset: -300px;}
		75%{ 	opacity:1;stroke-dashoffset: -300px;}
		80%{ 	opacity:1;stroke-dashoffset: -300px;}
		85%{	opacity:1;stroke-dashoffset: -300px;}
		90%{	opacity:1;stroke-dashoffset: -300px;}
		95%{	opacity:1;stroke-dashoffset: -300px;}
		100%{	opacity:1;stroke-dashoffset: -300px;}
	}
	@keyframes cinco{
		0%{  	opacity:1;stroke-dashoffset: 300px;}
		5%{ 	opacity:1;stroke-dashoffset: 300px;}
		10%{ 	opacity:1;stroke-dashoffset: 300px;}
		15%{ 	opacity:1;stroke-dashoffset: 300px;}
		20%{ 	opacity:1;stroke-dashoffset: 300px;}
		25%{ 	opacity:1;stroke-dashoffset: 0px;}
		30%{ 	opacity:1;stroke-dashoffset: 0px;}
		35%{	opacity:1;stroke-dashoffset: -300px;}
		40%{	opacity:1;stroke-dashoffset: -300px;}
		45%{	opacity:1;stroke-dashoffset: -300px;}
		50%{ 	opacity:1;stroke-dashoffset: -300px;}
		55%{ 	opacity:1;stroke-dashoffset: -300px;}
		60%{	opacity:1;stroke-dashoffset: -300px;}
		65%{	opacity:1;stroke-dashoffset: -300px;}
		70%{	opacity:1;stroke-dashoffset: -300px;}
		75%{ 	opacity:1;stroke-dashoffset: -300px;}
		80%{ 	opacity:1;stroke-dashoffset: -300px;}
		85%{	opacity:1;stroke-dashoffset: -300px;}
		90%{	opacity:1;stroke-dashoffset: -300px;}
		95%{	opacity:1;stroke-dashoffset: -300px;}
		100%{	opacity:1;stroke-dashoffset: -300px;}
	}
	@keyframes seis{
		0%{  	opacity:1;stroke-dashoffset: 300px;}
		5%{ 	opacity:1;stroke-dashoffset: 300px;}
		10%{ 	opacity:1;stroke-dashoffset: 300px;}
		15%{ 	opacity:1;stroke-dashoffset: 300px;}
		20%{ 	opacity:1;stroke-dashoffset: 300px;}
		25%{ 	opacity:1;stroke-dashoffset: 300px;}
		30%{ 	opacity:1;stroke-dashoffset: 0px;}
		35%{	opacity:1;stroke-dashoffset: 0px;}
		40%{	opacity:1;stroke-dashoffset: -300px;}
		45%{	opacity:1;stroke-dashoffset: -300px;}
		50%{ 	opacity:1;stroke-dashoffset: -300px;}
		55%{ 	opacity:1;stroke-dashoffset: -300px;}
		60%{	opacity:1;stroke-dashoffset: -300px;}
		65%{	opacity:1;stroke-dashoffset: -300px;}
		70%{	opacity:1;stroke-dashoffset: -300px;}
		75%{ 	opacity:1;stroke-dashoffset: -300px;}
		80%{ 	opacity:1;stroke-dashoffset: -300px;}
		85%{	opacity:1;stroke-dashoffset: -300px;}
		90%{	opacity:1;stroke-dashoffset: -300px;}
		95%{	opacity:1;stroke-dashoffset: -300px;}
		100%{	opacity:1;stroke-dashoffset: -300px;}
	}

	.aa1{animation: uno 5s linear infinite 3s, move 5s linear infinite 3s;
	}
	.aa2{animation: dos 5s linear infinite 3s, move 5s linear infinite 3s;
	}
	.aa3{animation: tres 5s linear infinite 3s, move 5s linear infinite 3s;
	}
	.aa4{animation: cuatro 5s linear infinite 3s, move 5s linear infinite 3s;
	}
	.aa5{animation: cinco 5s linear infinite 3s, move 5s linear infinite 3s;
	}
	.aa6{animation: seis 5s linear infinite 3s, move 5s linear infinite 3s;
	}
	.sombra{fill-rule:evenodd;clip-rule:evenodd;fill:#fff;opacity: 1;}
	.txt{fill:#304574;opacity: 1;}
</style>
<rect x="0" y="0" class="st0" width="512" height="512"/>
<path class="aa1" d="M84.1,333.4l32.7,26.2c56.7-27.3,140-112,99.9-179.6"/>
<path class="aa3" d="M184.5,333.4l32.7,26.2c56.7-27.3,140-112,99.9-179.6"/>
<path class="aa5" d="M284.8,333.4l32.7,26.2c56.7-27.3,140-112,99.9-179.6"/>
<path class="sombra" d="M285,268.2h24.5v-24.5H285V268.2z M197.3,268.2h24.6v-24.5h-24.6V268.2z M109.2,250h24.5v-6.2h-24.5V250z
	 M460.3,246h25.8v-22.2H506v64.5h-19.9V266h-25.8v22.2h-19.9v-64.5h19.9V246z M397,246v-2.3h-24.5v2.3H397z M372.5,268.2H397V266
	h-24.5V268.2z M359.9,263.6c-2.1-1.3-3.8-3.1-5.1-5.3c-1.4-2.4-2.1-5.1-2.1-7.8v-11.2c0-2.8,0.7-5.4,2.1-7.8
	c1.4-2.3,3.3-4.2,5.6-5.6c2.4-1.4,5-2.1,7.8-2.1h33.4c2.8,0,5.4,0.7,7.8,2.1c2.3,1.4,4.2,3.2,5.6,5.5c1.5,2.4,2.2,5.1,2.2,7.9v9.1
	h-7.3c2.1,1.3,3.8,3.1,5.1,5.2c1.5,2.4,2.2,5.1,2.2,7.9v11.2c0,2.8-0.7,5.4-2.2,7.8c-1.4,2.3-3.3,4.2-5.6,5.6
	c-2.4,1.4-5,2.1-7.8,2.1h-33.4c-2.8,0-5.4-0.7-7.8-2.1c-2.3-1.4-4.2-3.3-5.6-5.6c-1.4-2.4-2.1-5-2.1-7.8v-9.1H359.9z M280.6,288.2
	c-2.8,0-5.4-0.7-7.8-2.1c-2.3-1.4-4.2-3.3-5.6-5.6c-1.4-2.4-2.1-5-2.1-7.8v-33.4c0-2.8,0.7-5.4,2.1-7.8c1.4-2.3,3.3-4.2,5.6-5.6
	c2.4-1.4,5-2.1,7.8-2.1h33.4c2.8,0,5.4,0.7,7.8,2.1c2.3,1.4,4.2,3.2,5.6,5.5c1.5,2.4,2.2,5.1,2.2,7.9v33.4c0,2.8-0.7,5.4-2.2,7.8
	c-1.4,2.3-3.3,4.2-5.6,5.6c-2.4,1.4-5,2.1-7.8,2.1H280.6z M177.5,288.2v-64.5h48.9c2.8,0,5.4,0.7,7.8,2.1c2.3,1.4,4.2,3.2,5.6,5.5
	c1.5,2.4,2.2,5.1,2.2,7.9v33.4c0,2.8-0.7,5.4-2.2,7.8c-1.4,2.3-3.3,4.2-5.6,5.6c-2.4,1.4-5.1,2.1-7.8,2.1H177.5z M133.7,269.9h-24.5
	v18.3H89.3v-49c0-2.8,0.7-5.4,2.1-7.8c1.4-2.3,3.3-4.2,5.6-5.6c2.4-1.4,5-2.1,7.8-2.1h33.4c2.8,0,5.4,0.7,7.8,2.1
	c2.3,1.4,4.2,3.2,5.6,5.5c1.5,2.4,2.2,5.1,2.2,7.9v49h-20.1V269.9z M26,246h5.5l18.6-22.2h18.4v9.5L49.4,256l19.1,22.7v9.5H50.1
	L31.5,266H26v22.2H6v-64.5h20V246z"/>
<path class="txt" d="M444.2,284.4v-56.8h12.2v22.2h33.5v-22.2h12.2v56.8h-12.2v-22.2h-33.5v22.2H444.2z M368.1,284.4
	c-2.1,0-4-0.5-5.8-1.6c-1.8-1.1-3.2-2.5-4.3-4.3c-1.1-1.8-1.6-3.7-1.6-5.8v-5.3h12.2v4.7h32.2v-9.9h-32.7c-2.1,0-4-0.5-5.8-1.6
	c-1.8-1.1-3.2-2.5-4.3-4.2c-1.1-1.8-1.6-3.7-1.6-5.9v-11.2c0-2.2,0.5-4.1,1.6-5.9c1.1-1.8,2.5-3.2,4.3-4.2c1.8-1.1,3.7-1.6,5.8-1.6
	h33.4c2.1,0,4,0.5,5.8,1.6c1.8,1.1,3.2,2.5,4.3,4.2c1.1,1.8,1.6,3.7,1.6,5.9v5.3h-12.4v-4.7h-32.2v9.9h32.9c2.1,0,4,0.5,5.8,1.6
	c1.8,1.1,3.2,2.5,4.3,4.2c1.1,1.8,1.6,3.7,1.6,5.9v11.2c0,2.1-0.5,4-1.6,5.8c-1.1,1.8-2.5,3.2-4.3,4.3c-1.8,1.1-3.7,1.6-5.8,1.6
	H368.1z M281.2,272.1h32.2v-32.2h-32.2V272.1z M280.6,284.4c-2.1,0-4-0.5-5.8-1.6c-1.8-1.1-3.2-2.5-4.3-4.3
	c-1.1-1.8-1.6-3.7-1.6-5.8v-33.4c0-2.2,0.5-4.1,1.6-5.9c1.1-1.8,2.5-3.2,4.3-4.2c1.8-1.1,3.7-1.6,5.8-1.6h33.4c2.1,0,4,0.5,5.8,1.6
	c1.8,1.1,3.2,2.5,4.3,4.2c1.1,1.8,1.6,3.7,1.6,5.9v33.4c0,2.1-0.5,4-1.6,5.8c-1.1,1.8-2.5,3.2-4.3,4.3c-1.8,1.1-3.7,1.6-5.8,1.6
	H280.6z M193.4,272.1h32.3v-32.2h-32.3V272.1z M181.3,284.4v-56.8h45c2.2,0,4.1,0.5,5.9,1.6c1.8,1.1,3.2,2.5,4.3,4.2
	c1.1,1.8,1.6,3.7,1.6,5.9v33.4c0,2.1-0.5,4-1.6,5.8c-1.1,1.8-2.5,3.2-4.3,4.3c-1.8,1.1-3.7,1.6-5.9,1.6H181.3z M105.4,253.8h32.2
	v-13.9h-32.2V253.8z M93.2,284.4v-45.1c0-2.2,0.5-4.1,1.6-5.9c1.1-1.8,2.5-3.2,4.3-4.2c1.8-1.1,3.7-1.6,5.8-1.6h33.4
	c2.2,0,4.1,0.5,5.9,1.6c1.8,1.1,3.2,2.5,4.3,4.2c1.1,1.8,1.6,3.7,1.6,5.9v45.1h-12.4v-18.3h-32.2v18.3H93.2z M9.8,284.4v-56.8h12.3
	v22.2h11.1l18.6-22.2h12.8v4.3L44.4,256l20.3,24.1v4.3H51.9l-18.6-22.2H22.1v22.2H9.8z"/>
<path class="aa2" d="M216.6,180C167.4,97.2,32,215.6,184.5,333.4"/>
<path class="aa4" d="M317,180c-49.2-82.9-184.6,35.6-32.1,153.4"/>
<path class="aa6" d="M417.4,180c-49.2-82.9-184.6,35.6-32.1,153.4"/>
</svg>
