<?xml version="1.0" encoding="utf-8"?>
<!-- Generator: Adobe Illustrator 24.0.2, SVG Export Plug-In . SVG Version: 6.00 Build 0)  -->
<svg version="1.1" id="Capa_1" xmlns="http://www.w3.org/2000/svg" xmlns:xlink="http://www.w3.org/1999/xlink" x="0px" y="0px"
	 width="64px" height="64px" viewBox="0 0 64 64" style="enable-background:new 0 0 64 64;" xml:space="preserve">
<style type="text/css">
	.st0{fill-rule:evenodd;clip-rule:evenodd;fill:#F48534;}
	.st1{fill-rule:evenodd;clip-rule:evenodd;fill:#FFFFFF;}
</style>
<path class="st0" d="M32,1.1c13.4,0,24.2,13.8,24.2,30.9S45.4,62.9,32,62.9S7.8,49.1,7.8,32S18.6,1.1,32,1.1"/>
<path class="st1" d="M31.1,9.8c8.9,3.3,16.2,8.1,10.6,22c2.6,0.1,4.9-0.6,6.8-2.4c3.2,7.9,1.5,14.6-8.2,18.8
	c-3.5-12.5-18.8-8.9-18.7,5.9c-8.2-4.4-9-11.4-2.4-21.2c0.5-1.6-1.5-2.2-5-2.2c1.7-4.3,5.2-5.4,9.8-4.2C32.6,25,34.2,19.1,31.1,9.8"
	/>
</svg>
