<?xml version="1.0" encoding="utf-8"?>
<!-- Generator: Adobe Illustrator 24.0.2, SVG Export Plug-In . SVG Version: 6.00 Build 0)  -->
<svg version="1.1" id="Capa_1" xmlns="http://www.w3.org/2000/svg" xmlns:xlink="http://www.w3.org/1999/xlink" x="0px" y="0px"
	 viewBox="0 0 512 512" style="enable-background:new 0 0 512 512;" xml:space="preserve">
<style type="text/css">
	.st0{stroke:#000000;stroke-miterlimit:10;}
	.st1{fill:none;stroke:#669999;stroke-width:0.5669;stroke-miterlimit:22.9256;}
	.st2{fill:none;stroke:#666699;stroke-width:0.5669;stroke-miterlimit:22.9256;}
	.st3{fill:none;stroke:#996699;stroke-width:0.5669;stroke-miterlimit:22.9256;}
	.st4{fill:none;stroke:#993366;stroke-width:0.5669;stroke-miterlimit:22.9256;}
	.st5{fill:none;stroke:#FF9900;stroke-width:0.5669;stroke-miterlimit:22.9256;}
	.st6{fill:none;stroke:#FFFF00;stroke-width:0.5669;stroke-miterlimit:22.9256;}
	.st7{fill:none;stroke:#00FF33;stroke-width:0.5669;stroke-miterlimit:22.9256;}
	.st8{fill:none;stroke:#00FFFF;stroke-width:0.5669;stroke-miterlimit:22.9256;}
	.st9{fill:none;stroke:#0000FF;stroke-width:0.5669;stroke-miterlimit:22.9256;}
	.st10{fill:none;stroke:#CC00FF;stroke-width:0.5669;stroke-miterlimit:22.9256;}
	.st11{fill-rule:evenodd;clip-rule:evenodd;fill:#F58633;}
	.st12{fill:none;stroke:#FF0000;stroke-width:0.5669;stroke-miterlimit:22.9256;}
</style>
<rect class="st0" width="512" height="512"/>
<g>
	<path class="st1" d="M150.8,365.8c0.1-73.6-75.6-91.4-92.8-29.4c-48-20.7-56.3-54.1-40.6-93.2c9.8,9.2,20.8,12.7,33.9,11.9
		c-27.9-68.9,8.4-92.5,52.3-108.9"/>
	<path class="st2" d="M155,365.8c0.1-73.6-75.6-91.4-92.8-29.4c-48-20.7-56.3-54.1-40.6-93.2c9.8,9.2,20.8,12.7,33.9,11.9
		c-27.9-68.9,8.4-92.5,52.3-108.9"/>
	<path class="st3" d="M159.2,365.8c0.1-73.6-75.6-91.4-92.8-29.4c-48-20.7-56.3-54.1-40.6-93.2c9.8,9.2,20.8,12.7,33.9,11.9
		c-27.9-68.9,8.4-92.5,52.3-108.9"/>
	<path class="st4" d="M163.5,365.8c0.1-73.6-75.6-91.4-92.8-29.4c-48-20.7-56.3-54.1-40.6-93.2c9.8,9.2,20.8,12.7,33.9,11.9
		c-27.9-68.9,8.4-92.5,52.3-108.9"/>
	<path class="st5" d="M167.7,365.8c0.1-73.6-75.6-91.4-92.8-29.4c-48-20.7-56.3-54.1-40.6-93.2c9.8,9.2,20.8,12.7,33.9,11.9
		c-27.9-68.9,8.4-92.5,52.3-108.9"/>
	<path class="st6" d="M171.9,365.8c0.1-73.6-75.6-91.4-92.8-29.4c-48-20.7-56.3-54.1-40.6-93.2c9.8,9.2,20.8,12.7,33.9,11.9
		c-27.9-68.9,8.4-92.5,52.3-108.9"/>
	<path class="st7" d="M176.1,365.8c0.1-73.6-75.6-91.4-92.8-29.4c-48-20.7-56.3-54.1-40.6-93.2c9.8,9.2,20.8,12.7,33.9,11.9
		c-27.9-68.9,8.4-92.5,52.3-108.9"/>
	<path class="st8" d="M180.3,365.8c0.1-73.6-75.6-91.4-92.8-29.4c-48-20.7-56.3-54.1-40.6-93.2c9.8,9.2,20.8,12.7,33.9,11.9
		c-27.9-68.9,8.4-92.5,52.3-108.9"/>
	<path class="st9" d="M184.5,365.8c0.1-73.6-75.6-91.4-92.8-29.4c-48-20.7-56.3-54.1-40.6-93.2c9.8,9.2,20.8,12.7,33.9,11.9
		c-27.9-68.9,8.4-92.5,52.3-108.9"/>
	<path class="st10" d="M188.7,365.8c0.1-73.6-75.6-91.4-92.8-29.4c-48-20.7-56.3-54.1-40.6-93.2c9.8,9.2,20.8,12.7,33.9,11.9
		c-27.9-68.9,8.4-92.5,52.3-108.9"/>
	<path class="st11" d="M192.1,365.8c0.1-73.6-75.6-91.4-92.8-29.4c-48-20.7-56.3-54.1-40.6-93.2c9.8,9.2,20.8,12.7,33.9,11.9
		c-27.9-68.9,8.4-92.5,52.3-108.9c-15.7,45.9-7.7,75.2,35.5,83.1c22.8-5.7,39.8-0.3,48.4,21c-17.4-0.2-26.9,2.8-24.6,10.8
		C236.4,309.2,232.4,344.1,192.1,365.8z"/>
	<path class="st12" d="M192.1,365.8c0.1-73.6-75.6-91.4-92.8-29.4c-48-20.7-56.3-54.1-40.6-93.2c9.8,9.2,20.8,12.7,33.9,11.9
		c-27.9-68.9,8.4-92.5,52.3-108.9c-15.7,45.9-7.7,75.2,35.5,83.1c22.8-5.7,39.8-0.3,48.4,21c-17.4-0.2-26.9,2.8-24.6,10.8
		C236.4,309.2,232.4,344.1,192.1,365.8z"/>
</g>
<g>
	<path class="st1" d="M365.9,365.8c-0.1-73.6,75.4-91.4,92.6-29.4c47.9-20.7,56.2-54.1,40.5-93.2c-9.8,9.2-20.8,12.7-33.8,11.9
		c27.8-68.9-8.4-92.5-52.2-108.9"/>
	<path class="st2" d="M361.7,365.8c-0.1-73.6,75.4-91.4,92.6-29.4c47.9-20.7,56.2-54.1,40.5-93.2c-9.8,9.2-20.8,12.7-33.8,11.9
		c27.8-68.9-8.4-92.5-52.2-108.9"/>
	<path class="st3" d="M357.5,365.8c-0.1-73.6,75.4-91.4,92.6-29.4c47.9-20.7,56.2-54.1,40.5-93.2c-9.8,9.2-20.8,12.7-33.8,11.9
		c27.8-68.9-8.4-92.5-52.2-108.9"/>
	<path class="st4" d="M353.2,365.8c-0.1-73.6,75.4-91.4,92.6-29.4c47.9-20.7,56.2-54.1,40.5-93.2c-9.8,9.2-20.8,12.7-33.8,11.9
		c27.8-68.9-8.4-92.5-52.2-108.9"/>
	<path class="st5" d="M349,365.8c-0.1-73.6,75.4-91.4,92.6-29.4c47.9-20.7,56.2-54.1,40.5-93.2c-9.8,9.2-20.8,12.7-33.8,11.9
		c27.8-68.9-8.4-92.5-52.2-108.9"/>
	<path class="st6" d="M344.8,365.8c-0.1-73.6,75.4-91.4,92.6-29.4c47.9-20.7,56.2-54.1,40.5-93.2c-9.8,9.2-20.8,12.7-33.8,11.9
		c27.8-68.9-8.4-92.5-52.2-108.9"/>
	<path class="st7" d="M340.6,365.8c-0.1-73.6,75.4-91.4,92.6-29.4c47.9-20.7,56.2-54.1,40.5-93.2c-9.8,9.2-20.8,12.7-33.8,11.9
		c27.8-68.9-8.4-92.5-52.2-108.9"/>
	<path class="st8" d="M336.4,365.8c-0.1-73.6,75.4-91.4,92.6-29.4c47.9-20.7,56.2-54.1,40.5-93.2c-9.8,9.2-20.8,12.7-33.8,11.9
		c27.8-68.9-8.4-92.5-52.2-108.9"/>
	<path class="st9" d="M332.2,365.8c-0.1-73.6,75.4-91.4,92.6-29.4c47.9-20.7,56.2-54.1,40.5-93.2c-9.8,9.2-20.8,12.7-33.8,11.9
		c27.8-68.9-8.4-92.5-52.2-108.9"/>
	<path class="st10" d="M328.1,365.8c-0.1-73.6,75.4-91.4,92.6-29.4c47.9-20.7,56.2-54.1,40.5-93.2c-9.8,9.2-20.8,12.7-33.8,11.9
		c27.8-68.9-8.4-92.5-52.2-108.9"/>
	<path class="st11" d="M324.7,365.8c-0.1-73.6,75.4-91.4,92.6-29.4c47.9-20.7,56.2-54.1,40.5-93.2c-9.8,9.2-20.8,12.7-33.8,11.9
		c27.8-68.9-8.4-92.5-52.2-108.9c15.7,45.9,7.7,75.2-35.4,83.1c-22.7-5.7-39.7-0.3-48.3,21c17.4-0.2,26.8,2.8,24.5,10.8
		C280.5,309.2,284.4,344.1,324.7,365.8z"/>
	<path class="st12" d="M324.7,365.8c-0.1-73.6,75.4-91.4,92.6-29.4c47.9-20.7,56.2-54.1,40.5-93.2c-9.8,9.2-20.8,12.7-33.8,11.9
		c27.8-68.9-8.4-92.5-52.2-108.9c15.7,45.9,7.7,75.2-35.4,83.1c-22.7-5.7-39.7-0.3-48.3,21c17.4-0.2,26.8,2.8,24.5,10.8
		C280.5,309.2,284.4,344.1,324.7,365.8z"/>
</g>
</svg>
