<?xml version="1.0" encoding="utf-8"?>
<!-- Generator: Adobe Illustrator 24.0.2, SVG Export Plug-In . SVG Version: 6.00 Build 0)  -->
<svg version="1.1" id="Capa_1" xmlns="http://www.w3.org/2000/svg" xmlns:xlink="http://www.w3.org/1999/xlink" x="0px" y="0px"
	 viewBox="0 0 512 512" style="enable-background:new 0 0 512 512;" xml:space="preserve">
<style type="text/css">
	.st0{fill-rule:evenodd;clip-rule:evenodd;fill:#FFFFFF;}
	.st1{fill:none;stroke:#000000;stroke-width:2;stroke-miterlimit:22.9256;}
	.st2{fill-rule:evenodd;clip-rule:evenodd;fill:#304574;}
	.st3{fill-rule:evenodd;clip-rule:evenodd;fill:#BDBEC0;}
	.st4{fill-rule:evenodd;clip-rule:evenodd;fill:#F48534;}
	.st5{fill:#304574;}
</style>
<ellipse class="st0" cx="256" cy="256" rx="181.4" ry="223.9"/>
<ellipse class="st1" cx="256" cy="256" rx="181.4" ry="223.9"/>
<path class="st2" d="M256,40.7c93,0,168.3,96.4,168.3,215.3c0,118.9-75.4,215.3-168.3,215.3S87.7,374.9,87.7,256
	C87.7,137.1,163,40.7,256,40.7"/>
<path class="st3" d="M256,82.4c77.7,0,140.7,77.7,140.7,173.6c0,95.9-63,173.6-140.7,173.6c-77.7,0-140.7-77.7-140.7-173.6
	C115.3,160.1,178.3,82.4,256,82.4"/>
<path class="st0" d="M256,113.6c61.7,0,111.7,63.7,111.7,142.4s-50,142.4-111.7,142.4c-61.7,0-111.7-63.7-111.7-142.4
	S194.3,113.6,256,113.6"/>
<path class="st4" d="M256,121.4c58.3,0,105.6,60.3,105.6,134.6c0,74.3-47.3,134.6-105.6,134.6c-58.3,0-105.6-60.3-105.6-134.6
	C150.4,181.7,197.7,121.4,256,121.4"/>
<path class="st0" d="M251.9,159.4c38.6,14.4,70.6,35.2,46,95.8c11.5,0.6,21.2-2.5,29.8-10.5c13.8,34.4,6.5,63.8-35.8,82
	c-15.1-54.5-81.8-38.8-81.6,25.9c-35.5-19-39-49.8-10.6-92.1c2-7-6.4-9.7-21.7-9.5c7.6-18.7,22.5-23.4,42.6-18.4
	C258.7,225.6,265.7,199.8,251.9,159.4"/>
<path class="st5" d="M347.5,349.7c1-1.5,3.1-1.8,4.6-0.8l0.9,0.6l-1.6,2.2l-0.8-0.6c-0.3-0.2-0.7-0.1-0.9,0.2l-6.6,9.4
	c-0.2,0.3-0.1,0.7,0.2,0.9l3.1,2.2c0.3,0.2,0.6,0.1,0.8-0.1l6.6-9.5c1-1.5,3.1-1.8,4.6-0.8l3.2,2.2c1.5,1,1.8,3.1,0.8,4.6l-6.7,9.5
	c-1,1.5-3.1,1.8-4.6,0.8l-0.9-0.6l1.6-2.3l0.8,0.6c0.3,0.2,0.7,0.1,0.9-0.1l6.6-9.4c0.2-0.3,0.1-0.7-0.2-0.9l-3.1-2.2
	c-0.3-0.2-0.7-0.1-0.9,0.2l-6.6,9.5c-1,1.5-3.1,1.8-4.6,0.8l-3.2-2.2c-1.5-1-1.8-3.1-0.8-4.6L347.5,349.7z M363,327.2l-4.8,10.4
	c-0.2,0.3,0,0.7,0.3,0.8l10.4,4.9c0.3,0.1,0.7,0,0.8-0.3l4.8-10.4c0.1-0.2,0.1-0.3,0-0.5c-0.1-0.2-0.2-0.3-0.3-0.4l-10.4-4.9
	C363.5,326.8,363.1,326.9,363,327.2z M360.5,326c0.8-1.7,2.7-2.4,4.4-1.6l10.6,4.9c1.7,0.8,2.4,2.7,1.6,4.4l-4.9,10.6
	c-0.8,1.6-2.7,2.4-4.4,1.6l-10.6-4.9c-1.7-0.8-2.4-2.7-1.6-4.4L360.5,326z M365.8,312.1l17.4,5.5l-0.8,2.6l-17.4-5.5L365.8,312.1z
	 M374.5,289.7l-2.6,11.2c-0.1,0.3,0.1,0.7,0.5,0.8l11.2,2.6c0.3,0.1,0.7-0.1,0.8-0.5l2.6-11.2c0.1-0.3-0.2-0.7-0.5-0.7l-11.2-2.6
	C375,289.2,374.6,289.4,374.5,289.7z M372.6,285.9l17.8,4.1l-3.3,14.5c-0.4,1.8-2.2,2.9-4,2.5l-11.3-2.6c-1.8-0.4-2.9-2.2-2.5-4
	L372.6,285.9z M383.9,254.2l-0.3,12.7l5.7,0.1c0.4,0,0.6-0.3,0.6-0.6l0.2-11.5c0-0.3-0.3-0.6-0.6-0.6L383.9,254.2z M374.8,251.3
	l14.9,0.3c1.8,0,3.3,1.5,3.2,3.4l-0.2,11.6c0,1.8-1.5,3.3-3.4,3.2l-14.9-0.3l0.1-2.8l6.4,0.1l0.3-12.7l-6.4-0.1L374.8,251.3z
	 M379.9,217.9l2.3,12.5l5.6-1.1c0.4-0.1,0.6-0.4,0.5-0.7l-2.1-11.3c-0.1-0.3-0.4-0.6-0.7-0.5L379.9,217.9z M370.4,216.9l14.7-2.7
	c1.8-0.3,3.5,0.8,3.8,2.6l2.1,11.4c0.3,1.8-0.8,3.5-2.6,3.9l-14.7,2.7l-0.5-2.7l6.3-1.2l-2.3-12.5l-6.3,1.2L370.4,216.9z
	 M372.5,191.3l3.5,10.9c0.1,0.3,0.4,0.5,0.8,0.4l4.7-1.5c0.3-0.1,0.5-0.5,0.4-0.8l-3.5-10.9c-0.1-0.3-0.5-0.5-0.8-0.4l-4.7,1.5
	C372.6,190.7,372.4,191,372.5,191.3z M362.6,191l17.3-5.5l4.5,14.2c0.5,1.7-0.4,3.6-2.1,4.2l-4.9,1.6c-1.8,0.6-3.6-0.4-4.1-2.2
	l-0.5-1.6l-4.6,7.1l-1.1-3.5l4.3-7.8l-1.9-5.8l-6.2,2L362.6,191z M351.1,168.2l16.2-8.4l7.7,14.8l-2.4,1.3l-6.4-12.4l-4.4,2.3
	l5.2,10l-2.5,1.3l-5.2-10l-4.4,2.3l6.4,12.4l-2.4,1.3L351.1,168.2z M338.2,150.9l7.1-19.8l2.1,2.4l-5.9,16.5l17.2-3.2l2.1,2.4
	l-20.7,3.8L338.2,150.9z M305.9,123l10.5-14.9l13.6,9.7l-1.6,2.2l-11.4-8.1l-2.9,4.1l9.1,6.5l-1.6,2.3l-9.1-6.5l-2.9,4.1l11.4,8.1
	l-1.6,2.2L305.9,123z M295.2,118.2l7-16.8l2.5,1.1l-7,16.8L295.2,118.2z M273,108.7l11.2,2.5c0.4,0.1,0.7-0.1,0.8-0.5l2.5-11.2
	c0.1-0.3-0.1-0.7-0.5-0.8l-11.2-2.5c-0.3-0.1-0.7,0.2-0.7,0.5l-2.5,11.2C272.5,108.2,272.7,108.6,273,108.7z M269.2,110.6l3.9-17.8
	l14.6,3.2c1.8,0.4,2.9,2.1,2.5,3.9l-2.5,11.4c-0.4,1.8-2.2,2.9-3.9,2.5L269.2,110.6z M244.3,101.2l12.7-0.4l-0.2-5.7
	c0-0.4-0.3-0.6-0.7-0.6l-11.5,0.4c-0.3,0-0.6,0.3-0.6,0.7L244.3,101.2z M241.8,110.4l-0.5-14.9c-0.1-1.8,1.4-3.3,3.2-3.4l11.6-0.4
	c1.8-0.1,3.4,1.3,3.4,3.2l0.5,14.9l-2.8,0.1l-0.2-6.4l-12.7,0.4l0.2,6.4L241.8,110.4z M215.7,118.3l-6-17.2l3.1-1.1l16.3,9.7
	L224.2,96l2.6-0.9l6,17.2l-3.1,1.1l-16.4-9.7l4.8,13.7L215.7,118.3z M187.7,133l9-7.1c0.3-0.2,0.3-0.6,0.1-0.9l-7.1-9
	c-0.2-0.3-0.6-0.3-0.9-0.1l-9,7.1c-0.3,0.2-0.3,0.6-0.1,0.9l7.1,9C187.1,133.2,187.5,133.2,187.7,133z M186.8,137.2L175.5,123
	l11.7-9.3c1.4-1.1,3.5-0.9,4.6,0.5l7.2,9.1c1.1,1.4,0.9,3.5-0.6,4.6L186.8,137.2z M163.1,149.3l8.2-9.7l-4.4-3.7
	c-0.3-0.2-0.7-0.2-0.9,0.1l-7.4,8.7c-0.2,0.3-0.2,0.7,0.1,0.9L163.1,149.3z M168.3,157.3l-11.4-9.7c-1.4-1.2-1.6-3.2-0.4-4.6
	l7.5-8.9c1.2-1.4,3.3-1.6,4.7-0.4l11.4,9.7l-1.8,2.1l-4.9-4.1l-8.2,9.7l4.9,4.1L168.3,157.3z M153.4,176.3l5.7-10
	c0.2-0.3,0.1-0.7-0.2-0.9l-10-5.7c-0.3-0.2-0.7-0.1-0.9,0.2l-5.7,10c-0.2,0.3,0,0.7,0.2,0.8l10,5.7
	C152.8,176.7,153.2,176.6,153.4,176.3z M154.1,180.6l-15.8-9.1l7.4-12.9c0.9-1.6,2.9-2.1,4.5-1.2l10.1,5.8c1.6,0.9,2.1,2.9,1.2,4.5
	L154.1,180.6z M149.6,191.4l-16.8-7l1-2.5l16.8,7L149.6,191.4z M143.7,208.9l-14.9-4.1l-2,7.5l-2.6-0.7l4.8-17.6l2.6,0.7l-2,7.4
	l14.9,4.1L143.7,208.9z M137.5,242.3l-18-2.6l0.5-3.2l16.1-10l-14.4-2.1l0.4-2.7l18,2.6l-0.5,3.2l-16.2,10l14.4,2.1L137.5,242.3z
	 M128.4,267.1l-0.3-12.7l-5.7,0.1c-0.4,0-0.6,0.3-0.6,0.6l0.2,11.5c0,0.3,0.3,0.6,0.6,0.6L128.4,267.1z M137.6,269.6l-14.9,0.3
	c-1.8,0-3.3-1.4-3.4-3.2l-0.2-11.6c0-1.8,1.4-3.3,3.2-3.4l14.9-0.3l0.1,2.8l-6.4,0.1l0.3,12.7l6.4-0.1L137.6,269.6z M141.1,293.3
	c0.3,1.8-0.8,3.5-2.6,3.8l-1,0.2l-0.5-2.7l1-0.2c0.3-0.1,0.6-0.4,0.5-0.7l-2.1-11.3c-0.1-0.3-0.4-0.5-0.7-0.5l-3.7,0.7
	c-0.4,0.1-0.6,0.4-0.5,0.7l2.1,11.4c0.3,1.8-0.9,3.5-2.7,3.8l-3.8,0.7c-1.8,0.3-3.5-0.8-3.8-2.6l-2.1-11.4c-0.3-1.8,0.8-3.5,2.6-3.8
	l1-0.2l0.5,2.7l-1,0.2c-0.3,0.1-0.6,0.4-0.5,0.7l2.1,11.3c0.1,0.3,0.4,0.6,0.7,0.5l3.7-0.7c0.4-0.1,0.5-0.4,0.5-0.7l-2.1-11.4
	c-0.3-1.8,0.9-3.5,2.7-3.8l3.8-0.7c1.8-0.3,3.5,0.8,3.8,2.6L141.1,293.3z M152.8,329.1l-16.8,7l-1.3-3l8.7-16.8l-13.4,5.6l-1.1-2.5
	l16.8-7l1.3,3l-8.8,16.9l13.4-5.6L152.8,329.1z M158.1,339.4l-16.2,8.4l-1.3-2.4l16.2-8.4L158.1,339.4z M171.1,359.3
	c1,1.5,0.7,3.5-0.8,4.6l-0.9,0.6l-1.6-2.2l0.8-0.6c0.3-0.2,0.3-0.6,0.2-0.9l-6.6-9.4c-0.2-0.3-0.6-0.3-0.9-0.1l-3.1,2.2
	c-0.3,0.2-0.4,0.6-0.1,0.8l6.6,9.5c1,1.5,0.7,3.6-0.8,4.6l-3.2,2.2c-1.5,1-3.5,0.7-4.6-0.8l-6.7-9.5c-1-1.5-0.7-3.5,0.8-4.6l0.9-0.6
	l1.6,2.3l-0.8,0.6c-0.3,0.2-0.4,0.6-0.2,0.9l6.6,9.4c0.2,0.3,0.6,0.3,0.9,0.2l3.1-2.2c0.3-0.2,0.3-0.6,0.1-0.9l-6.6-9.5
	c-1-1.5-0.7-3.6,0.8-4.6l3.2-2.2c1.5-1,3.5-0.7,4.6,0.8L171.1,359.3z"/>
<path class="st0" d="M276.3,469.2h17.2V452h-17.2V469.2z M214.8,469.2h17.2V452h-17.2V469.2z M153.1,456.4h17.2V452h-17.2V456.4z
	 M399.2,453.6h18.1V438h14v45.2h-14v-15.6h-18.1v15.6h-14V438h14V453.6z M354.9,453.6V452h-17.2v1.6H354.9z M337.7,469.2h17.2v-1.6
	h-17.2V469.2z M328.8,466c-1.5-0.9-2.7-2.2-3.6-3.7c-1-1.7-1.5-3.5-1.5-5.5v-7.9c0-6,4.9-10.9,10.9-10.9h23.4
	c6,0,10.9,4.9,10.9,10.9v6.4h-5.1c3.2,2,5.1,5.4,5.1,9.2v7.9c0,5.9-4.9,10.9-10.9,10.9h-23.4c-6,0-10.9-4.9-10.9-10.9V466H328.8z
	 M273.3,483.2c-6,0-10.9-4.9-10.9-10.9v-23.4c0-6,4.9-10.9,10.9-10.9h23.4c6,0,10.9,4.9,10.9,10.9v23.4c0,5.9-4.9,10.9-10.9,10.9
	H273.3z M200.9,483.2V438h34.3c6,0,10.9,4.9,10.9,10.9v23.4c0,6-5,10.9-10.9,10.9H200.9z M170.3,470.4h-17.2v12.8h-14v-34.3
	c0-6,4.9-10.9,10.9-10.9h23.4c6,0,10.9,4.9,10.9,10.9v34.3h-14.1V470.4z M94.7,453.6h3.8l13.1-15.6h12.9v6.7l-13.4,15.9l13.4,15.9
	v6.7h-12.9l-13.1-15.6h-3.8v15.6h-14V438h14V453.6z"/>
<path class="st5" d="M388,480.5v-39.8h8.6v15.6H420v-15.6h8.6v39.8H420v-15.6h-23.5v15.6H388z M296.2,471.9v-22.6h-22.6v22.6H296.2z
	 M273.3,480.5c-4.5,0-8.2-3.7-8.2-8.2v-23.4c0-4.5,3.7-8.2,8.2-8.2h23.4c4.5,0,8.2,3.7,8.2,8.2v23.4c0,4.5-3.7,8.2-8.2,8.2H273.3z
	 M234.8,471.9v-22.6h-22.6v22.6H234.8z M203.6,480.5v-39.8h31.6c4.5,0,8.2,3.7,8.2,8.2v23.4c0,4.5-3.8,8.2-8.2,8.2H203.6z
	 M150.4,459.1H173v-9.7h-22.6V459.1z M141.8,480.5v-31.6c0-4.5,3.7-8.2,8.2-8.2h23.4c4.5,0,8.2,3.7,8.2,8.2v31.6H173v-12.8h-22.6
	v12.8H141.8z M83.4,480.5v-39.8H92v15.6h7.8l13.1-15.6h9v3l-14.2,16.9l14.2,16.9v3h-9l-13.1-15.6H92v15.6H83.4z"/>
<path class="st2" d="M334.6,440.7c-4.5,0-8.2,3.7-8.2,8.2v7.9c0,4.5,3.7,8.2,8.2,8.2h23v7H335v-3.3h-8.6v3.7c0,4.5,3.7,8.2,8.2,8.2
	h23.4c4.5,0,8.2-3.7,8.2-8.2v-7.9c0-4.5-3.7-8.2-8.2-8.2H335v-7h22.6v3.3h8.7v-3.7c0-4.3-3.5-7.9-7.8-8.2L334.6,440.7z"/>
</svg>
