<?xml version="1.0" encoding="utf-8"?>
<!-- Generator: Adobe Illustrator 24.0.2, SVG Export Plug-In . SVG Version: 6.00 Build 0)  -->
<svg version="1.1" id="Capa_1" xmlns="http://www.w3.org/2000/svg" xmlns:xlink="http://www.w3.org/1999/xlink" x="0px" y="0px"
	 viewBox="0 0 512 512" style="enable-background:new 0 0 512 512;" xml:space="preserve">
<style type="text/css">
	.st0{fill:none;stroke:#FFFFFF;stroke-width:0.5669;stroke-miterlimit:22.9256;}
	.st1{fill-rule:evenodd;clip-rule:evenodd;fill:#F58633;}
</style>
<path class="st0" d="M327.5,365.8c-0.1-73.6,75.6-91.4,92.8-29.4c48-20.7,56.3-54.1,40.6-93.2c-9.8,9.2-20.8,12.7-33.9,11.9
	c27.9-68.9-8.4-92.5-52.3-108.9"/>
<path class="st0" d="M331.7,365.8c-0.1-73.6,75.6-91.4,92.8-29.4c48-20.7,56.3-54.1,40.6-93.2c-9.8,9.2-20.8,12.7-33.9,11.9
	c27.9-68.9-8.4-92.5-52.3-108.9"/>
<path class="st0" d="M335.9,365.8c-0.1-73.6,75.6-91.4,92.8-29.4c48-20.7,56.3-54.1,40.6-93.2c-9.8,9.2-20.8,12.7-33.9,11.9
	c27.9-68.9-8.4-92.5-52.3-108.9"/>
<path class="st0" d="M340.1,365.8c-0.1-73.6,75.6-91.4,92.8-29.4c48-20.7,56.3-54.1,40.6-93.2c-9.8,9.2-20.8,12.7-33.9,11.9
	c27.9-68.9-8.4-92.5-52.3-108.9"/>
<path class="st0" d="M344.3,365.8c-0.1-73.6,75.6-91.4,92.8-29.4c48-20.7,56.3-54.1,40.6-93.2c-9.8,9.2-20.8,12.7-33.9,11.9
	c27.9-68.9-8.4-92.5-52.3-108.9"/>
<path class="st0" d="M348.5,365.8c-0.1-73.6,75.6-91.4,92.8-29.4c48-20.7,56.3-54.1,40.6-93.2c-9.8,9.2-20.8,12.7-33.9,11.9
	c27.9-68.9-8.4-92.5-52.3-108.9"/>
<path class="st0" d="M352.7,365.8c-0.1-73.6,75.6-91.4,92.8-29.4c48-20.7,56.3-54.1,40.6-93.2c-9.8,9.2-20.8,12.7-33.9,11.9
	c27.9-68.9-8.4-92.5-52.3-108.9"/>
<path class="st0" d="M357,365.8c-0.1-73.6,75.6-91.4,92.8-29.4c48-20.7,56.3-54.1,40.6-93.2c-9.8,9.2-20.8,12.7-33.9,11.9
	c27.9-68.9-8.4-92.5-52.3-108.9"/>
<path class="st0" d="M361.2,365.8c-0.1-73.6,75.6-91.4,92.8-29.4c48-20.7,56.3-54.1,40.6-93.2c-9.8,9.2-20.8,12.7-33.9,11.9
	c27.9-68.9-8.4-92.5-52.3-108.9"/>
<path class="st0" d="M365.4,365.8c-0.1-73.6,75.6-91.4,92.8-29.4c48-20.7,56.3-54.1,40.6-93.2c-9.8,9.2-20.8,12.7-33.9,11.9
	c27.9-68.9-8.4-92.5-52.3-108.9"/>
<path class="st1" d="M324.1,365.8c-0.1-73.6,75.6-91.4,92.8-29.4c48-20.7,56.3-54.1,40.6-93.2c-9.8,9.2-20.8,12.7-33.9,11.9
	c27.9-68.9-8.4-92.5-52.3-108.9c15.7,45.9,7.7,75.2-35.5,83.1c-22.8-5.7-39.8-0.3-48.4,21c17.4-0.2,26.9,2.8,24.6,10.8
	C279.8,309.2,283.8,344.1,324.1,365.8z"/>
<path class="st0" d="M324.1,365.8c-0.1-73.6,75.6-91.4,92.8-29.4c48-20.7,56.3-54.1,40.6-93.2c-9.8,9.2-20.8,12.7-33.9,11.9
	c27.9-68.9-8.4-92.5-52.3-108.9c15.7,45.9,7.7,75.2-35.5,83.1c-22.8-5.7-39.8-0.3-48.4,21c17.4-0.2,26.9,2.8,24.6,10.8
	C279.8,309.2,283.8,344.1,324.1,365.8z"/>
<path class="st0" d="M184.5,365.8c0.1-73.6-75.6-91.4-92.8-29.4c-48-20.7-56.3-54.1-40.6-93.2c9.8,9.2,20.8,12.7,33.9,11.9
	c-27.9-68.9,8.4-92.5,52.3-108.9"/>
<path class="st0" d="M180.3,365.8c0.1-73.6-75.6-91.4-92.8-29.4c-48-20.7-56.3-54.1-40.6-93.2c9.8,9.2,20.8,12.7,33.9,11.9
	c-27.9-68.9,8.4-92.5,52.3-108.9"/>
<path class="st0" d="M176.1,365.8c0.1-73.6-75.6-91.4-92.8-29.4c-48-20.7-56.3-54.1-40.6-93.2c9.8,9.2,20.8,12.7,33.9,11.9
	c-27.9-68.9,8.4-92.5,52.3-108.9"/>
<path class="st0" d="M171.9,365.8c0.1-73.6-75.6-91.4-92.8-29.4c-48-20.7-56.3-54.1-40.6-93.2c9.8,9.2,20.8,12.7,33.9,11.9
	c-27.9-68.9,8.4-92.5,52.3-108.9"/>
<path class="st0" d="M167.7,365.8c0.1-73.6-75.6-91.4-92.8-29.4c-48-20.7-56.3-54.1-40.6-93.2c9.8,9.2,20.8,12.7,33.9,11.9
	c-27.9-68.9,8.4-92.5,52.3-108.9"/>
<path class="st0" d="M163.5,365.8c0.1-73.6-75.6-91.4-92.8-29.4c-48-20.7-56.3-54.1-40.6-93.2c9.8,9.2,20.8,12.7,33.9,11.9
	c-27.9-68.9,8.4-92.5,52.3-108.9"/>
<path class="st0" d="M159.3,365.8c0.1-73.6-75.6-91.4-92.8-29.4c-48-20.7-56.3-54.1-40.6-93.2c9.8,9.2,20.8,12.7,33.9,11.9
	c-27.9-68.9,8.4-92.5,52.3-108.9"/>
<path class="st0" d="M155,365.8c0.1-73.6-75.6-91.4-92.8-29.4c-48-20.7-56.3-54.1-40.6-93.2c9.8,9.2,20.8,12.7,33.9,11.9
	c-27.9-68.9,8.4-92.5,52.3-108.9"/>
<path class="st0" d="M150.8,365.8c0.1-73.6-75.6-91.4-92.8-29.4c-48-20.7-56.3-54.1-40.6-93.2c9.8,9.2,20.8,12.7,33.9,11.9
	c-27.9-68.9,8.4-92.5,52.3-108.9"/>
<path class="st0" d="M146.6,365.8c0.1-73.6-75.6-91.4-92.8-29.4c-48-20.7-56.3-54.1-40.6-93.2c9.8,9.2,20.8,12.7,33.9,11.9
	c-27.9-68.9,8.4-92.5,52.3-108.9"/>
<path class="st1" d="M187.9,365.8c0.1-73.6-75.6-91.4-92.8-29.4c-48-20.7-56.3-54.1-40.6-93.2c9.8,9.2,20.8,12.7,33.9,11.9
	c-27.9-68.9,8.4-92.5,52.3-108.9c-15.7,45.9-7.7,75.2,35.5,83.1c22.8-5.7,39.8-0.3,48.4,21c-17.4-0.2-26.9,2.8-24.6,10.8
	C232.2,309.2,228.2,344.1,187.9,365.8z"/>
<path class="st0" d="M187.9,365.8c0.1-73.6-75.6-91.4-92.8-29.4c-48-20.7-56.3-54.1-40.6-93.2c9.8,9.2,20.8,12.7,33.9,11.9
	c-27.9-68.9,8.4-92.5,52.3-108.9c-15.7,45.9-7.7,75.2,35.5,83.1c22.8-5.7,39.8-0.3,48.4,21c-17.4-0.2-26.9,2.8-24.6,10.8
	C232.2,309.2,228.2,344.1,187.9,365.8z"/>
</svg>
