<?xml version="1.0" encoding="utf-8"?>
<!-- Generator: Adobe Illustrator 24.0.2, SVG Export Plug-In . SVG Version: 6.00 Build 0)  -->
<svg version="1.1" id="Capa_1" xmlns="http://www.w3.org/2000/svg" xmlns:xlink="http://www.w3.org/1999/xlink" x="0px" y="0px"
	 viewBox="0 0 512 512" style="enable-background:new 0 0 512 512;" xml:space="preserve">
<style type="text/css">
	.fndFND{fill:url(#SVGID_1_);}
	.verticalFND{fill:none;stroke:#373E91;stroke-width:0.2;opacity: 0;
		stroke-dasharray: 260px;
		animation: mundoLine 1s forwards;
	}
	.horizontalFND{fill:none;stroke:#373E91;stroke-width:0.216;stroke-miterlimit:22.9256;
		stroke-dasharray: 260px;
		animation: mundoLine 1s forwards;
	}
	@keyframes mundoLine{0%{stroke-dashoffset:260px;opacity:1;}100%{stroke-dashoffset:0px;opacity:1;}}
	.verticalGrados{fill:none;stroke:#fff;stroke-width:0.3;opacity: 0;
		stroke-dasharray: 530px;
		animation: mundoLine2 1s forwards 1s;
	}
	.horizontalGrados{fill:none;stroke:#BCBDC0;stroke-width:0.5;opacity: 0;
		stroke-dasharray: 530px;
		animation: mundoLine2 1s forwards 1s;
	}
	@keyframes mundoLine2{0%{stroke-dashoffset:530px;opacity:1;}100%{ stroke-dashoffset:0px;opacity:0.5;}}
	.vericalLineGrados{fill:none;stroke:#BCBDC0;stroke-width:0.5;opacity: 0;
		stroke-dasharray: 530px;
		animation: mundoLine2 1s forwards 1s;
	}
	.gradosHorizontalTXT{fill:#fff;opacity: 0;
		animation: traslateYGrados 1s forwards 2s;
	}
	@keyframes traslateYGrados{0%{opacity:1;transform: translateY(-10px);
		}100%{opacity:1;transform: translateY(0);}}
	.gradosVerticalTXT{fill:#fff;opacity: 0;
		animation: traslateXGrados 1s forwards 2s;
	}
	@keyframes traslateXGrados{0%{opacity:1;transform: translateX(-10px);
		}100%{opacity:1;transform: translateX(0);}}
	.pyLine{fill:none;stroke:#fff;stroke-width:2;opacity: 0;transform-origin: 256px 256px;
		stroke-dasharray: 1650px;
		animation: pyLine 1s forwards 2s,
					pyScale 2s forwards ease-in 10000s;
	}
	.pyColor{fill-rule:evenodd;clip-rule:evenodd;fill:#fff;opacity: 0;transform-origin: 256px 256px;
		animation: color30 1s forwards 2.5s,
					pyScale 2s forwards ease-in 10000s;
	}
	@keyframes pyLine{0%{stroke-dashoffset:1650px;opacity:1;}100%{ stroke-dashoffset:0px;opacity:0.5;}}
	@keyframes color30{0%{opacity:0;}100%{opacity:0.3;}}
	@keyframes pyScale{0%{transform: scale(1);}100%{transform: scale(6); opacity: 0;}}
	.rastreoLine{fill:none;stroke:#fff;stroke-width:1;opacity: 0;
		animation: rastreo 2.5s forwards 3s;
	}
	.rastreoSombra{fill:url(#SVGID_Sombra_);opacity: 0;
		animation: rastreo 2.5s forwards 3s;
	}
	@keyframes rastreo{
		0%{transform: translateX(-300px);opacity: 1;
		}100%{transform: translateX(250px);opacity: 1;
	}}
	.pyTxt{fill:#fff;opacity: 0;
		animation: traslateXGrados 1s forwards 4.5s;
	}

	.verticalArr,.verticalAbaj,.horiIz,.horiDr{fill:none;stroke:#fff;stroke-width:1;}
	.verticalArr{stroke-dasharray: 340px;opacity: 0;
		animation: verticalArr 0.5s forwards 5s,
					verticalArr2 0.5s forwards 7.5s;
	}
	@keyframes verticalArr{0%{stroke-dashoffset:340px;opacity:1;}100%{stroke-dashoffset:0px;opacity:1;}}
	@keyframes verticalArr2{0%{stroke-dashoffset:0px;opacity:1;}100%{stroke-dashoffset:-340px;opacity:1;}}
	.verticalAbaj{stroke-dasharray: 125px;opacity: 0;
		animation: verticalAbaj 0.5s forwards 5s,
					verticalAbaj2 0.5s forwards 7.5s;
	}
	@keyframes verticalAbaj{0%{stroke-dashoffset:125px;opacity:1;}100%{stroke-dashoffset:0px;opacity:1;}}
	@keyframes verticalAbaj2{0%{stroke-dashoffset:0px;opacity:1;}100%{stroke-dashoffset:-125px;opacity:1;}}
	.horiIz{stroke-dasharray: 280px;opacity: 0;
		animation: horiIz 0.5s forwards 5s,
					horiIz2 0.5s forwards 7.5s;
	}
	@keyframes horiIz{0%{stroke-dashoffset:280px;opacity:1;}100%{stroke-dashoffset:0px;opacity:1;}}
	@keyframes horiIz2{0%{stroke-dashoffset:0px;opacity:1;}100%{stroke-dashoffset:-280px;opacity:1;}}
	.horiDr{stroke-dasharray: 190px;opacity: 0;
		animation: horiDr 0.5s forwards 5s,
					horiDr2 0.5s forwards 7.5s;
	}
	@keyframes horiDr{0%{stroke-dashoffset:190px;opacity:1;}100%{stroke-dashoffset:0px;opacity:1;}}
	@keyframes horiDr2{0%{stroke-dashoffset:0px;opacity:1;}100%{stroke-dashoffset:-190px;opacity:1;}}
	.ubiIconOut,.ubiIconLin1,.ubiIconLin2,.ubiIconLin3{transform-origin: 299px 363px; opacity: 0;}
	.ubiIconOut{fill:none;stroke:#fff;stroke-width:2;
		animation: ubiIconOut 1s forwards 5.5s;
	}
	@keyframes ubiIconOut{
		0%{opacity:1;transform: scale(1);
		}50%{opacity:1;transform: scale(1.3);
		}100%{opacity:0;transform: scale(1);
	}}
	.ubiIconLin1,.ubiIconLin2,.ubiIconLin3{fill:none;stroke:#fff;stroke-width:1;
		animation: ubiIconLi 1s 2 5.5s;
	}
	@keyframes ubiIconLi{
		0%{opacity:1;transform: rotate(0);
		}50%{opacity:1;transform: rotate(360);
		}100%{opacity:0;transform: rotate(-360deg);
	}}
	.ubiIconCentro{fill-rule:evenodd;clip-rule:evenodd;fill:#fff;opacity: 0;
		animation: noVer 2s forwards 5.5s;
	}
	@keyframes noVer{
		0%{opacity:1;
		}99%{opacity:1;
		}100%{opacity:0.8;fill:#888;
	}}
	.dptoCentral{fill-rule:evenodd;clip-rule:evenodd;fill:#fff;transform: translateX(13px);opacity: 0;
		animation: dptoCentral 1s forwards 8s;
	}
	@keyframes dptoCentral{
		0%{opacity:0;}100%{opacity:0.3;
	}}
	.dptoCentralLine{fill:none;stroke:#fff;stroke-width:2;transform: translateX(13px);opacity: 0;
		stroke-dasharray: 210px;
		animation: dptoCentralLine 1s forwards 7.5s;
	}
	@keyframes dptoCentralLine{0%{stroke-dashoffset:210px;opacity:1;}100%{stroke-dashoffset:0px;opacity:0.8;}}
	.dptoCentralFlecha{fill:none;stroke:#000;stroke-width:1;transform: translate(2px, -13px);opacity: 0;
		stroke-dasharray: 160px;
		animation: dptoCentralFlecha 0.5s forwards 8.5s;
	}
	@keyframes dptoCentralFlecha{0%{stroke-dashoffset:160px;opacity:1;}100%{stroke-dashoffset:0px;opacity:1;}}


	.dptotxtt{fill:#fff;transform: translateY(-20px);opacity: 0;
		animation: dptotxtt 1s forwards 9s;
	}
	@keyframes dptotxtt{0%{opacity:1;transform: translate(-10px, -20px);
		}100%{opacity:1;transform: translate(0, -20px);}}
	.recuadroColor{fill-rule:evenodd;clip-rule:evenodd;fill:#fff;opacity: 0;}
	.recuadroLine{fill:none;stroke:#fff;stroke-width:2;opacity: 0;}
	.lambareTxt{fill:#000;opacity: 0;}
	.recuadroLine,.lambareTxt{
		animation: lambareTxt 1s forwards 9.5s;
	}
	@keyframes lambareTxt{0%{opacity:1;transform: translate(-10px, -10px);
		}100%{opacity:1;transform: translate(0, -10px);}}
	.recuadroColor{fill-rule:evenodd;clip-rule:evenodd;fill:#fff;opacity: 0;
		animation: recuadroColor 1s forwards 9.5s;
	}
	@keyframes recuadroColor{0%{opacity:0;transform: translate(-10px, -10px);
		}100%{opacity:0.3;transform: translate(0, -10px);}}

</style>
<radialGradient id="SVGID_1_" cx="256" cy="256" r="256" gradientUnits="userSpaceOnUse">
	<stop  offset="0" style="stop-color:#373E91;stop-opacity:0.5"/>
	<stop  offset="1" style="stop-color:#373E91"/>
</radialGradient>
<rect class="fndFND" width="512" height="512"/>
<g>
	<path class="verticalFND" d="M253.7-3c-7.3,85.3-10.7,170.7-10.5,256"/>
	<path class="verticalFND" d="M233.3-3c-7.3,85.3-10.7,170.7-10.5,256"/>
	<path class="verticalFND" d="M212.8-3c-7.3,85.3-10.7,170.7-10.5,256"/>
	<path class="verticalFND" d="M192.3-3c-7.3,85.3-10.7,170.7-10.5,256"/>
	<path class="verticalFND" d="M171.9-3c-7.3,85.3-10.7,170.7-10.5,256"/>
	<path class="verticalFND" d="M151.4-3c-7.3,85.3-10.7,170.7-10.5,256"/>
	<path class="verticalFND" d="M131-3c-7.3,85.3-10.7,170.7-10.5,256"/>
	<path class="verticalFND" d="M110.5-3c-7.3,85.3-10.7,170.7-10.5,256"/>
	<path class="verticalFND" d="M90-3c-7.3,85.3-10.7,170.7-10.5,256"/>
	<path class="verticalFND" d="M69.6-3c-7.3,85.3-10.7,170.7-10.5,256"/>
	<path class="verticalFND" d="M49.1-3c-7.3,85.3-10.7,170.7-10.5,256"/>
	<path class="verticalFND" d="M28.7-3C21.3,82.3,18,167.7,18.2,253"/>
	<path class="verticalFND" d="M8.2-3C0.9,82.3-2.5,167.7-2.3,253"/>
	<path class="horizontalFND" d="M-2.3,253c85.3-7.3,170.7-10.7,256-10.5"/>
	<path class="horizontalFND" d="M-2.3,232.5c85.3-7.3,170.7-10.7,256-10.5"/>
	<path class="horizontalFND" d="M-2.3,212.1c85.3-7.3,170.7-10.7,256-10.5"/>
	<path class="horizontalFND" d="M-2.3,191.6c85.3-7.3,170.7-10.7,256-10.5"/>
	<path class="horizontalFND" d="M-2.3,171.2c85.3-7.3,170.7-10.7,256-10.5"/>
	<path class="horizontalFND" d="M-2.3,150.7c85.3-7.3,170.7-10.7,256-10.5"/>
	<path class="horizontalFND" d="M-2.3,130.2c85.3-7.3,170.7-10.7,256-10.5"/>
	<path class="horizontalFND" d="M-2.3,109.8c85.3-7.3,170.7-10.7,256-10.5"/>
	<path class="horizontalFND" d="M-2.3,89.3C83,82,168.4,78.7,253.7,78.8"/>
	<path class="horizontalFND" d="M-2.3,68.9c85.3-7.3,170.7-10.7,256-10.5"/>
	<path class="horizontalFND" d="M-2.3,48.4c85.3-7.3,170.7-10.7,256-10.5"/>
	<path class="horizontalFND" d="M-2.3,27.9c85.3-7.3,170.7-10.7,256-10.5"/>
	<path class="horizontalFND" d="M-2.3,7.5C83,0.1,168.4-3.2,253.7-3"/>
	<path class="verticalFND" d="M253.7-3c7.3,85.3,10.7,170.7,10.5,256"/>
	<path class="verticalFND" d="M274.2-3c7.3,85.3,10.7,170.7,10.5,256"/>
	<path class="verticalFND" d="M294.6-3c7.3,85.3,10.7,170.7,10.5,256"/>
	<path class="verticalFND" d="M315.1-3c7.3,85.3,10.7,170.7,10.5,256"/>
	<path class="verticalFND" d="M335.6-3c7.3,85.3,10.7,170.7,10.5,256"/>
	<path class="verticalFND" d="M356-3c7.3,85.3,10.7,170.7,10.5,256"/>
	<path class="verticalFND" d="M376.5-3c7.3,85.3,10.7,170.7,10.5,256"/>
	<path class="verticalFND" d="M396.9-3c7.3,85.3,10.7,170.7,10.5,256"/>
	<path class="verticalFND" d="M417.4-3c7.3,85.3,10.7,170.7,10.5,256"/>
	<path class="verticalFND" d="M437.8-3c7.3,85.3,10.7,170.7,10.5,256"/>
	<path class="verticalFND" d="M458.3-3c7.3,85.3,10.7,170.7,10.5,256"/>
	<path class="verticalFND" d="M478.8-3c7.3,85.3,10.7,170.7,10.5,256"/>
	<path class="verticalFND" d="M499.2-3c7.3,85.3,10.7,170.7,10.5,256"/>
	<path class="horizontalFND" d="M509.7,253c-85.3-7.3-170.7-10.7-256-10.5"/>
	<path class="horizontalFND" d="M509.7,232.5c-85.3-7.3-170.7-10.7-256-10.5"/>
	<path class="horizontalFND" d="M509.7,212.1c-85.3-7.3-170.7-10.7-256-10.5"/>
	<path class="horizontalFND" d="M509.7,191.6c-85.3-7.3-170.7-10.7-256-10.5"/>
	<path class="horizontalFND" d="M509.7,171.2c-85.3-7.3-170.7-10.7-256-10.5"/>
	<path class="horizontalFND" d="M509.7,150.7c-85.3-7.3-170.7-10.7-256-10.5"/>
	<path class="horizontalFND" d="M509.7,130.2c-85.3-7.3-170.7-10.7-256-10.5"/>
	<path class="horizontalFND" d="M509.7,109.8c-85.3-7.3-170.7-10.7-256-10.5"/>
	<path class="horizontalFND" d="M509.7,89.3C424.4,82,339,78.7,253.7,78.8"/>
	<path class="horizontalFND" d="M509.7,68.9c-85.3-7.3-170.7-10.7-256-10.5"/>
	<path class="horizontalFND" d="M509.7,48.4c-85.3-7.3-170.7-10.7-256-10.5"/>
	<path class="horizontalFND" d="M509.7,27.9c-85.3-7.3-170.7-10.7-256-10.5"/>
	<path class="horizontalFND" d="M509.7,7.5C424.4,0.1,339-3.2,253.7-3"/>
	<path class="verticalFND" d="M253.7,509c-7.3-85.3-10.7-170.7-10.5-256"/>
	<path class="verticalFND" d="M233.3,509c-7.3-85.3-10.7-170.7-10.5-256"/>
	<path class="verticalFND" d="M212.8,509c-7.3-85.3-10.7-170.7-10.5-256"/>
	<path class="verticalFND" d="M192.3,509c-7.3-85.3-10.7-170.7-10.5-256"/>
	<path class="verticalFND" d="M171.9,509c-7.3-85.3-10.7-170.7-10.5-256"/>
	<path class="verticalFND" d="M151.4,509c-7.3-85.3-10.7-170.7-10.5-256"/>
	<path class="verticalFND" d="M131,509c-7.3-85.3-10.7-170.7-10.5-256"/>
	<path class="verticalFND" d="M110.5,509c-7.3-85.3-10.7-170.7-10.5-256"/>
	<path class="verticalFND" d="M90,509c-7.3-85.3-10.7-170.7-10.5-256"/>
	<path class="verticalFND" d="M69.6,509c-7.3-85.3-10.7-170.7-10.5-256"/>
	<path class="verticalFND" d="M49.1,509c-7.3-85.3-10.7-170.7-10.5-256"/>
	<path class="verticalFND" d="M28.7,509C21.3,423.7,18,338.3,18.2,253"/>
	<path class="verticalFND" d="M8.2,509C0.9,423.7-2.5,338.3-2.3,253"/>
	<path class="horizontalFND" d="M-2.3,253c85.3,7.3,170.7,10.7,256,10.5"/>
	<path class="horizontalFND" d="M-2.3,273.4c85.3,7.3,170.7,10.7,256,10.5"/>
	<path class="horizontalFND" d="M-2.3,293.9c85.3,7.3,170.7,10.7,256,10.5"/>
	<path class="horizontalFND" d="M-2.3,314.4c85.3,7.3,170.7,10.7,256,10.5"/>
	<path class="horizontalFND" d="M-2.3,334.8c85.3,7.3,170.7,10.7,256,10.5"/>
	<path class="horizontalFND" d="M-2.3,355.3c85.3,7.3,170.7,10.7,256,10.5"/>
	<path class="horizontalFND" d="M-2.3,375.7c85.3,7.3,170.7,10.7,256,10.5"/>
	<path class="horizontalFND" d="M-2.3,396.2c85.3,7.3,170.7,10.7,256,10.5"/>
	<path class="horizontalFND" d="M-2.3,416.7c85.3,7.3,170.7,10.7,256,10.5"/>
	<path class="horizontalFND" d="M-2.3,437.1c85.3,7.3,170.7,10.7,256,10.5"/>
	<path class="horizontalFND" d="M-2.3,457.6c85.3,7.3,170.7,10.7,256,10.5"/>
	<path class="horizontalFND" d="M-2.3,478c85.3,7.3,170.7,10.7,256,10.5"/>
	<path class="horizontalFND" d="M-2.3,498.5c85.3,7.3,170.7,10.7,256,10.5"/>
	<path class="verticalFND" d="M253.7,509c7.3-85.3,10.7-170.7,10.5-256"/>
	<path class="verticalFND" d="M274.2,509c7.3-85.3,10.7-170.7,10.5-256"/>
	<path class="verticalFND" d="M294.6,509c7.3-85.3,10.7-170.7,10.5-256"/>
	<path class="verticalFND" d="M315.1,509c7.3-85.3,10.7-170.7,10.5-256"/>
	<path class="verticalFND" d="M335.6,509c7.3-85.3,10.7-170.7,10.5-256"/>
	<path class="verticalFND" d="M356,509c7.3-85.3,10.7-170.7,10.5-256"/>
	<path class="verticalFND" d="M376.5,509c7.3-85.3,10.7-170.7,10.5-256"/>
	<path class="verticalFND" d="M396.9,509c7.3-85.3,10.7-170.7,10.5-256"/>
	<path class="verticalFND" d="M417.4,509c7.3-85.3,10.7-170.7,10.5-256"/>
	<path class="verticalFND" d="M437.8,509c7.3-85.3,10.7-170.7,10.5-256"/>
	<path class="verticalFND" d="M458.3,509c7.3-85.3,10.7-170.7,10.5-256"/>
	<path class="verticalFND" d="M478.8,509c7.3-85.3,10.7-170.7,10.5-256"/>
	<path class="verticalFND" d="M499.2,509c7.3-85.3,10.7-170.7,10.5-256"/>
	<path class="horizontalFND" d="M509.7,253c-85.3,7.3-170.7,10.7-256,10.5"/>
	<path class="horizontalFND" d="M509.7,273.4c-85.3,7.3-170.7,10.7-256,10.5"/>
	<path class="horizontalFND" d="M509.7,293.9c-85.3,7.3-170.7,10.7-256,10.5"/>
	<path class="horizontalFND" d="M509.7,314.4c-85.3,7.3-170.7,10.7-256,10.5"/>
	<path class="horizontalFND" d="M509.7,334.8c-85.3,7.3-170.7,10.7-256,10.5"/>
	<path class="horizontalFND" d="M509.7,355.3c-85.3,7.3-170.7,10.7-256,10.5"/>
	<path class="horizontalFND" d="M509.7,375.7c-85.3,7.3-170.7,10.7-256,10.5"/>
	<path class="horizontalFND" d="M509.7,396.2c-85.3,7.3-170.7,10.7-256,10.5"/>
	<path class="horizontalFND" d="M509.7,416.7c-85.3,7.3-170.7,10.7-256,10.5"/>
	<path class="horizontalFND" d="M509.7,437.1c-85.3,7.3-170.7,10.7-256,10.5"/>
	<path class="horizontalFND" d="M509.7,457.6c-85.3,7.3-170.7,10.7-256,10.5"/>
	<path class="horizontalFND" d="M509.7,478c-85.3,7.3-170.7,10.7-256,10.5"/>
	<path class="horizontalFND" d="M509.7,498.5c-85.3,7.3-170.7,10.7-256,10.5"/>
</g>



<line class="verticalGrados" x1="51.5" y1="0" x2="0" y2="501.5"/>
<line class="verticalGrados" x1="512" y1="0" x2="470.6" y2="512"/>
<line class="verticalGrados" x1="307.2" y1="0" x2="265.8" y2="512"/>
<line class="verticalGrados" x1="205" y1="0" x2="160.3" y2="512"/>
<line class="verticalGrados" x1="102.4" y1="0" x2="57.7" y2="512"/>
<line class="verticalGrados" x1="153.9" y1="0" x2="109.2" y2="512"/>
<line class="verticalGrados" x1="256.2" y1="0" x2="214.8" y2="512"/>
<line class="verticalGrados" x1="358.7" y1="0" x2="317.3" y2="512"/>
<line class="verticalGrados" x1="409.9" y1="0" x2="368.5" y2="512"/>
<line class="verticalGrados" x1="460.9" y1="0" x2="419.5" y2="512"/>


<line class="vericalLineGrados" x1="0" y1="460.8" x2="512" y2="460.8"/>
<line class="vericalLineGrados" x1="0" y1="256" x2="512" y2="256"/>
<line class="vericalLineGrados" x1="0" y1="102.4" x2="512" y2="102.4"/>
<line class="vericalLineGrados" x1="0" y1="51.2" x2="512" y2="51.2"/>
<line class="vericalLineGrados" x1="0" y1="153.6" x2="512" y2="153.6"/>
<line class="vericalLineGrados" x1="0" y1="204.8" x2="512" y2="204.8"/>
<line class="vericalLineGrados" x1="0" y1="307.2" x2="512" y2="307.2"/>
<line class="vericalLineGrados" x1="0" y1="358.4" x2="512" y2="358.4"/>
<line class="vericalLineGrados" x1="0" y1="409.6" x2="512" y2="409.6"/>





<path class="gradosHorizontalTXT" d="M307.8,502.3l-1.4-6h1.2l0.9,4.1l1.1-4.1h1.4l1,4.2l0.9-4.2h1.2l-1.4,6h-1.3l-1.2-4.5l-1.2,4.5H307.8z
	 M304.3,497.8c0,0.3,0.1,0.5,0.2,0.6c0.1,0.1,0.2,0.2,0.4,0.2c0.2,0,0.3-0.1,0.4-0.2c0.1-0.1,0.2-0.3,0.2-0.6s-0.1-0.5-0.2-0.6
	c-0.1-0.1-0.2-0.2-0.4-0.2c-0.2,0-0.3,0.1-0.4,0.2C304.3,497.3,304.3,497.5,304.3,497.8z M303.4,497.8c0-0.5,0.1-0.9,0.4-1.1
	c0.3-0.3,0.6-0.4,1-0.4c0.4,0,0.8,0.1,1,0.4c0.3,0.3,0.4,0.6,0.4,1.1s-0.1,0.9-0.4,1.1c-0.3,0.3-0.6,0.4-1,0.4c-0.4,0-0.8-0.1-1-0.4
	C303.5,498.6,303.4,498.3,303.4,497.8z M299,497.5v-1.1h3.9v0.8c-0.3,0.3-0.7,0.8-1,1.4c-0.3,0.6-0.6,1.2-0.8,1.9
	c-0.2,0.7-0.3,1.3-0.3,1.8h-1.1c0-0.8,0.2-1.7,0.5-2.5c0.3-0.9,0.8-1.6,1.3-2.3H299z M294.4,500.8l1.1-0.1c0,0.3,0.1,0.5,0.3,0.6
	c0.2,0.2,0.3,0.2,0.6,0.2c0.2,0,0.4-0.1,0.6-0.3c0.2-0.2,0.2-0.5,0.2-0.9c0-0.4-0.1-0.6-0.2-0.8c-0.2-0.2-0.4-0.3-0.6-0.3
	c-0.3,0-0.6,0.1-0.9,0.4l-0.9-0.1l0.6-3.1h3v1.1H296l-0.2,1c0.3-0.1,0.5-0.2,0.8-0.2c0.5,0,0.9,0.2,1.3,0.6c0.4,0.4,0.5,0.8,0.5,1.4
	c0,0.5-0.1,0.9-0.4,1.3c-0.4,0.5-0.9,0.8-1.6,0.8c-0.6,0-1-0.1-1.3-0.4C294.7,501.7,294.5,501.3,294.4,500.8z"/>
<path class="gradosHorizontalTXT" d="M256.6,502.3l-1.4-6h1.2l0.9,4.1l1.1-4.1h1.4l1,4.2l0.9-4.2h1.2l-1.4,6h-1.3l-1.2-4.5l-1.2,4.5H256.6z
	 M253.1,497.8c0,0.3,0.1,0.5,0.2,0.6c0.1,0.1,0.2,0.2,0.4,0.2c0.2,0,0.3-0.1,0.4-0.2c0.1-0.1,0.2-0.3,0.2-0.6s-0.1-0.5-0.2-0.6
	c-0.1-0.1-0.2-0.2-0.4-0.2c-0.2,0-0.3,0.1-0.4,0.2C253.1,497.3,253.1,497.5,253.1,497.8z M252.2,497.8c0-0.5,0.1-0.9,0.4-1.1
	c0.3-0.3,0.6-0.4,1-0.4c0.4,0,0.8,0.1,1,0.4c0.3,0.3,0.4,0.6,0.4,1.1s-0.1,0.9-0.4,1.1c-0.3,0.3-0.6,0.4-1,0.4c-0.4,0-0.8-0.1-1-0.4
	C252.3,498.6,252.2,498.3,252.2,497.8z M248.9,500.5c0,0.3,0.1,0.6,0.2,0.7c0.2,0.2,0.4,0.3,0.6,0.3c0.2,0,0.4-0.1,0.6-0.3
	c0.2-0.2,0.2-0.4,0.2-0.7c0-0.3-0.1-0.5-0.2-0.7c-0.2-0.2-0.4-0.3-0.6-0.3c-0.3,0-0.5,0.1-0.6,0.3
	C249,500.1,248.9,500.3,248.9,500.5z M249,497.9c0,0.2,0.1,0.4,0.2,0.5c0.1,0.1,0.3,0.2,0.5,0.2c0.2,0,0.4-0.1,0.5-0.2
	c0.1-0.1,0.2-0.3,0.2-0.5c0-0.2-0.1-0.4-0.2-0.5c-0.1-0.1-0.3-0.2-0.5-0.2c-0.2,0-0.4,0.1-0.5,0.2C249.1,497.6,249,497.7,249,497.9z
	 M248.8,499.1c-0.3-0.1-0.5-0.3-0.6-0.5c-0.1-0.2-0.2-0.5-0.2-0.7c0-0.4,0.2-0.8,0.5-1.1c0.3-0.3,0.8-0.4,1.3-0.4
	c0.6,0,1,0.1,1.3,0.4c0.3,0.3,0.5,0.7,0.5,1.1c0,0.3-0.1,0.5-0.2,0.7c-0.1,0.2-0.3,0.4-0.6,0.5c0.3,0.1,0.6,0.3,0.8,0.6
	c0.2,0.3,0.3,0.6,0.3,0.9c0,0.6-0.2,1-0.5,1.3c-0.3,0.3-0.8,0.5-1.4,0.5c-0.5,0-1-0.1-1.4-0.4c-0.4-0.3-0.6-0.8-0.6-1.4
	c0-0.3,0.1-0.6,0.2-0.9C248.2,499.4,248.5,499.2,248.8,499.1z M243.2,500.8l1.1-0.1c0,0.3,0.1,0.5,0.3,0.6c0.2,0.2,0.3,0.2,0.6,0.2
	c0.2,0,0.4-0.1,0.6-0.3c0.2-0.2,0.2-0.5,0.2-0.9c0-0.4-0.1-0.6-0.2-0.8c-0.2-0.2-0.4-0.3-0.6-0.3c-0.3,0-0.6,0.1-0.9,0.4l-0.9-0.1
	l0.6-3.1h3v1.1h-2.2l-0.2,1c0.3-0.1,0.5-0.2,0.8-0.2c0.5,0,0.9,0.2,1.3,0.6c0.4,0.4,0.5,0.8,0.5,1.4c0,0.5-0.1,0.9-0.4,1.3
	c-0.4,0.5-0.9,0.8-1.6,0.8c-0.6,0-1-0.1-1.3-0.4C243.5,501.7,243.3,501.3,243.2,500.8z"/>
<path class="gradosHorizontalTXT" d="M205.4,502.3l-1.4-6h1.2l0.9,4.1l1.1-4.1h1.4l1,4.2l0.9-4.2h1.2l-1.4,6h-1.3l-1.2-4.5l-1.2,4.5H205.4z
	 M201.9,497.8c0,0.3,0.1,0.5,0.2,0.6c0.1,0.1,0.2,0.2,0.4,0.2c0.2,0,0.3-0.1,0.4-0.2c0.1-0.1,0.2-0.3,0.2-0.6s-0.1-0.5-0.2-0.6
	c-0.1-0.1-0.2-0.2-0.4-0.2c-0.2,0-0.3,0.1-0.4,0.2C201.9,497.3,201.9,497.5,201.9,497.8z M201,497.8c0-0.5,0.1-0.9,0.4-1.1
	c0.3-0.3,0.6-0.4,1-0.4c0.4,0,0.8,0.1,1,0.4c0.3,0.3,0.4,0.6,0.4,1.1s-0.1,0.9-0.4,1.1c-0.3,0.3-0.6,0.4-1,0.4c-0.4,0-0.8-0.1-1-0.4
	C201.1,498.6,201,498.3,201,497.8z M199.2,498.4c0-0.4-0.1-0.7-0.3-0.9c-0.2-0.2-0.4-0.3-0.6-0.3c-0.2,0-0.4,0.1-0.5,0.3
	c-0.1,0.2-0.2,0.4-0.2,0.8c0,0.4,0.1,0.7,0.2,0.8c0.2,0.2,0.3,0.3,0.6,0.3c0.2,0,0.4-0.1,0.6-0.3C199.2,499,199.2,498.8,199.2,498.4
	z M196.7,500.9l1.1-0.1c0,0.2,0.1,0.4,0.2,0.5c0.1,0.1,0.3,0.2,0.4,0.2c0.2,0,0.4-0.1,0.6-0.3c0.2-0.2,0.3-0.7,0.3-1.4
	c-0.3,0.3-0.6,0.5-1.1,0.5c-0.5,0-0.9-0.2-1.2-0.5c-0.3-0.4-0.5-0.8-0.5-1.4c0-0.6,0.2-1.1,0.5-1.5c0.4-0.4,0.8-0.6,1.4-0.6
	c0.6,0,1.1,0.2,1.5,0.7c0.4,0.5,0.6,1.2,0.6,2.3c0,1.1-0.2,1.9-0.6,2.4c-0.4,0.5-0.9,0.7-1.6,0.7c-0.5,0-0.8-0.1-1.1-0.4
	C196.9,501.8,196.7,501.4,196.7,500.9z M192,500.8l1.1-0.1c0,0.3,0.1,0.5,0.3,0.6c0.2,0.2,0.3,0.2,0.6,0.2c0.2,0,0.4-0.1,0.6-0.3
	c0.2-0.2,0.2-0.5,0.2-0.9c0-0.4-0.1-0.6-0.2-0.8c-0.2-0.2-0.4-0.3-0.6-0.3c-0.3,0-0.6,0.1-0.9,0.4l-0.9-0.1l0.6-3.1h3v1.1h-2.2
	l-0.2,1c0.3-0.1,0.5-0.2,0.8-0.2c0.5,0,0.9,0.2,1.3,0.6c0.4,0.4,0.5,0.8,0.5,1.4c0,0.5-0.1,0.9-0.4,1.3c-0.4,0.5-0.9,0.8-1.6,0.8
	c-0.6,0-1-0.1-1.3-0.4C192.3,501.7,192.1,501.3,192,500.8z"/>
<path class="gradosHorizontalTXT" d="M359,502.3l-1.4-6h1.2l0.9,4.1l1.1-4.1h1.4l1,4.2l0.9-4.2h1.2l-1.4,6h-1.3l-1.2-4.5l-1.2,4.5H359z M355.5,497.8
	c0,0.3,0.1,0.5,0.2,0.6c0.1,0.1,0.2,0.2,0.4,0.2c0.2,0,0.3-0.1,0.4-0.2c0.1-0.1,0.2-0.3,0.2-0.6s-0.1-0.5-0.2-0.6
	c-0.1-0.1-0.2-0.2-0.4-0.2c-0.2,0-0.3,0.1-0.4,0.2C355.5,497.3,355.5,497.5,355.5,497.8z M354.6,497.8c0-0.5,0.1-0.9,0.4-1.1
	c0.3-0.3,0.6-0.4,1-0.4c0.4,0,0.8,0.1,1,0.4c0.3,0.3,0.4,0.6,0.4,1.1s-0.1,0.9-0.4,1.1c-0.3,0.3-0.6,0.4-1,0.4c-0.4,0-0.8-0.1-1-0.4
	C354.7,498.6,354.6,498.3,354.6,497.8z M351.5,500.3c0,0.4,0.1,0.7,0.3,0.9c0.2,0.2,0.4,0.3,0.6,0.3c0.2,0,0.4-0.1,0.5-0.2
	c0.1-0.2,0.2-0.4,0.2-0.8c0-0.4-0.1-0.7-0.2-0.9c-0.2-0.2-0.3-0.3-0.6-0.3c-0.2,0-0.4,0.1-0.6,0.3
	C351.6,499.7,351.5,500,351.5,500.3z M354.1,497.8l-1.1,0.1c0-0.2-0.1-0.4-0.2-0.5c-0.1-0.1-0.3-0.2-0.4-0.2c-0.2,0-0.4,0.1-0.6,0.3
	c-0.2,0.2-0.3,0.7-0.3,1.4c0.3-0.3,0.6-0.5,1.1-0.5c0.5,0,0.9,0.2,1.2,0.5c0.3,0.4,0.5,0.8,0.5,1.4c0,0.6-0.2,1.1-0.5,1.5
	c-0.4,0.4-0.8,0.6-1.4,0.6c-0.6,0-1.1-0.2-1.5-0.7c-0.4-0.5-0.6-1.2-0.6-2.3c0-1.1,0.2-1.9,0.6-2.4c0.4-0.5,0.9-0.7,1.6-0.7
	c0.5,0,0.8,0.1,1.1,0.4C353.8,497,354,497.3,354.1,497.8z M345.6,500.8l1.1-0.1c0,0.3,0.1,0.5,0.3,0.6c0.2,0.2,0.3,0.2,0.6,0.2
	c0.2,0,0.4-0.1,0.6-0.3c0.2-0.2,0.2-0.5,0.2-0.9c0-0.4-0.1-0.6-0.2-0.8c-0.2-0.2-0.4-0.3-0.6-0.3c-0.3,0-0.6,0.1-0.9,0.4l-0.9-0.1
	l0.6-3.1h3v1.1h-2.2l-0.2,1c0.3-0.1,0.5-0.2,0.8-0.2c0.5,0,0.9,0.2,1.3,0.6c0.4,0.4,0.5,0.8,0.5,1.4c0,0.5-0.1,0.9-0.4,1.3
	c-0.4,0.5-0.9,0.8-1.6,0.8c-0.6,0-1-0.1-1.3-0.4C345.9,501.7,345.7,501.3,345.6,500.8z"/>
<path class="gradosHorizontalTXT" d="M410.2,502.3l-1.4-6h1.2l0.9,4.1l1.1-4.1h1.4l1,4.2l0.9-4.2h1.2l-1.4,6h-1.3l-1.2-4.5l-1.2,4.5H410.2z
	 M406.7,497.8c0,0.3,0.1,0.5,0.2,0.6c0.1,0.1,0.2,0.2,0.4,0.2c0.2,0,0.3-0.1,0.4-0.2c0.1-0.1,0.2-0.3,0.2-0.6s-0.1-0.5-0.2-0.6
	c-0.1-0.1-0.2-0.2-0.4-0.2c-0.2,0-0.3,0.1-0.4,0.2C406.7,497.3,406.7,497.5,406.7,497.8z M405.8,497.8c0-0.5,0.1-0.9,0.4-1.1
	c0.3-0.3,0.6-0.4,1-0.4c0.4,0,0.8,0.1,1,0.4c0.3,0.3,0.4,0.6,0.4,1.1s-0.1,0.9-0.4,1.1c-0.3,0.3-0.6,0.4-1,0.4c-0.4,0-0.8-0.1-1-0.4
	C405.9,498.6,405.8,498.3,405.8,497.8z M401.4,500.8l1.1-0.1c0,0.3,0.1,0.5,0.3,0.6c0.2,0.2,0.3,0.2,0.6,0.2c0.2,0,0.4-0.1,0.6-0.3
	c0.2-0.2,0.2-0.5,0.2-0.9c0-0.4-0.1-0.6-0.2-0.8c-0.2-0.2-0.4-0.3-0.6-0.3c-0.3,0-0.6,0.1-0.9,0.4l-0.9-0.1l0.6-3.1h3v1.1H403
	l-0.2,1c0.3-0.1,0.5-0.2,0.8-0.2c0.5,0,0.9,0.2,1.3,0.6c0.4,0.4,0.5,0.8,0.5,1.4c0,0.5-0.1,0.9-0.4,1.3c-0.4,0.5-0.9,0.8-1.6,0.8
	c-0.6,0-1-0.1-1.3-0.4C401.7,501.7,401.5,501.3,401.4,500.8z M396.8,500.8l1.1-0.1c0,0.3,0.1,0.5,0.3,0.6c0.2,0.2,0.3,0.2,0.6,0.2
	c0.2,0,0.4-0.1,0.6-0.3c0.2-0.2,0.2-0.5,0.2-0.9c0-0.4-0.1-0.6-0.2-0.8c-0.2-0.2-0.4-0.3-0.6-0.3c-0.3,0-0.6,0.1-0.9,0.4l-0.9-0.1
	l0.6-3.1h3v1.1h-2.2l-0.2,1c0.3-0.1,0.5-0.2,0.8-0.2c0.5,0,0.9,0.2,1.3,0.6c0.4,0.4,0.5,0.8,0.5,1.4c0,0.5-0.1,0.9-0.4,1.3
	c-0.4,0.5-0.9,0.8-1.6,0.8c-0.6,0-1-0.1-1.3-0.4C397.1,501.7,396.9,501.3,396.8,500.8z"/>
<path class="gradosHorizontalTXT" d="M461.4,502.3l-1.4-6h1.2l0.9,4.1l1.1-4.1h1.4l1,4.2l0.9-4.2h1.2l-1.4,6h-1.3l-1.2-4.5l-1.2,4.5H461.4z
	 M457.9,497.8c0,0.3,0.1,0.5,0.2,0.6c0.1,0.1,0.2,0.2,0.4,0.2c0.2,0,0.3-0.1,0.4-0.2c0.1-0.1,0.2-0.3,0.2-0.6s-0.1-0.5-0.2-0.6
	c-0.1-0.1-0.2-0.2-0.4-0.2c-0.2,0-0.3,0.1-0.4,0.2C457.9,497.3,457.9,497.5,457.9,497.8z M457,497.8c0-0.5,0.1-0.9,0.4-1.1
	c0.3-0.3,0.6-0.4,1-0.4c0.4,0,0.8,0.1,1,0.4c0.3,0.3,0.4,0.6,0.4,1.1s-0.1,0.9-0.4,1.1c-0.3,0.3-0.6,0.4-1,0.4s-0.8-0.1-1-0.4
	C457.1,498.6,457,498.3,457,497.8z M454.9,500.1v-2l-1.4,2H454.9z M454.9,502.3v-1.2h-2.4v-1l2.6-3.8h1v3.8h0.7v1H456v1.2H454.9z
	 M448,500.8l1.1-0.1c0,0.3,0.1,0.5,0.3,0.6c0.2,0.2,0.3,0.2,0.6,0.2c0.2,0,0.4-0.1,0.6-0.3c0.2-0.2,0.2-0.5,0.2-0.9
	c0-0.4-0.1-0.6-0.2-0.8c-0.2-0.2-0.4-0.3-0.6-0.3c-0.3,0-0.6,0.1-0.9,0.4l-0.9-0.1l0.6-3.1h3v1.1h-2.2l-0.2,1
	c0.3-0.1,0.5-0.2,0.8-0.2c0.5,0,0.9,0.2,1.3,0.6c0.4,0.4,0.5,0.8,0.5,1.4c0,0.5-0.1,0.9-0.4,1.3c-0.4,0.5-0.9,0.8-1.6,0.8
	c-0.6,0-1-0.1-1.3-0.4C448.3,501.7,448.1,501.3,448,500.8z"/>
<path class="gradosHorizontalTXT" d="M154.2,502.3l-1.4-6h1.2l0.9,4.1l1.1-4.1h1.4l1,4.2l0.9-4.2h1.2l-1.4,6h-1.3l-1.2-4.5l-1.2,4.5H154.2z
	 M150.7,497.8c0,0.3,0.1,0.5,0.2,0.6c0.1,0.1,0.2,0.2,0.4,0.2c0.2,0,0.3-0.1,0.4-0.2c0.1-0.1,0.2-0.3,0.2-0.6s-0.1-0.5-0.2-0.6
	c-0.1-0.1-0.2-0.2-0.4-0.2c-0.2,0-0.3,0.1-0.4,0.2C150.7,497.3,150.7,497.5,150.7,497.8z M149.8,497.8c0-0.5,0.1-0.9,0.4-1.1
	c0.3-0.3,0.6-0.4,1-0.4c0.4,0,0.8,0.1,1,0.4c0.3,0.3,0.4,0.6,0.4,1.1s-0.1,0.9-0.4,1.1c-0.3,0.3-0.6,0.4-1,0.4c-0.4,0-0.8-0.1-1-0.4
	C149.9,498.6,149.8,498.3,149.8,497.8z M147.4,497.3c-0.1,0-0.3,0-0.4,0.1c-0.1,0.1-0.2,0.2-0.2,0.5c-0.1,0.3-0.1,0.8-0.1,1.5
	c0,0.7,0,1.2,0.1,1.4c0.1,0.3,0.2,0.4,0.3,0.5c0.1,0.1,0.2,0.1,0.4,0.1c0.1,0,0.3,0,0.4-0.1c0.1-0.1,0.2-0.2,0.2-0.5
	c0.1-0.3,0.1-0.8,0.1-1.5c0-0.7,0-1.2-0.1-1.4c-0.1-0.3-0.2-0.4-0.3-0.5C147.6,497.3,147.5,497.3,147.4,497.3z M147.4,496.3
	c0.6,0,1,0.2,1.4,0.6c0.4,0.5,0.6,1.3,0.6,2.4c0,1.1-0.2,1.9-0.6,2.4c-0.3,0.4-0.8,0.6-1.4,0.6c-0.6,0-1-0.2-1.4-0.7
	c-0.4-0.4-0.5-1.2-0.5-2.4c0-1.1,0.2-1.9,0.6-2.4C146.3,496.5,146.8,496.3,147.4,496.3z M142.1,500.3c0,0.4,0.1,0.7,0.3,0.9
	c0.2,0.2,0.4,0.3,0.6,0.3c0.2,0,0.4-0.1,0.5-0.2c0.1-0.2,0.2-0.4,0.2-0.8c0-0.4-0.1-0.7-0.2-0.9c-0.2-0.2-0.3-0.3-0.6-0.3
	c-0.2,0-0.4,0.1-0.6,0.3C142.1,499.7,142.1,500,142.1,500.3z M144.7,497.8l-1.1,0.1c0-0.2-0.1-0.4-0.2-0.5c-0.1-0.1-0.3-0.2-0.4-0.2
	c-0.2,0-0.4,0.1-0.6,0.3c-0.2,0.2-0.3,0.7-0.3,1.4c0.3-0.3,0.6-0.5,1.1-0.5c0.5,0,0.9,0.2,1.2,0.5c0.3,0.4,0.5,0.8,0.5,1.4
	c0,0.6-0.2,1.1-0.5,1.5c-0.4,0.4-0.8,0.6-1.4,0.6c-0.6,0-1.1-0.2-1.5-0.7c-0.4-0.5-0.6-1.2-0.6-2.3c0-1.1,0.2-1.9,0.6-2.4
	c0.4-0.5,0.9-0.7,1.6-0.7c0.5,0,0.8,0.1,1.1,0.4C144.4,497,144.6,497.3,144.7,497.8z"/>
<path class="gradosHorizontalTXT" d="M103,502.3l-1.4-6h1.2l0.9,4.1l1.1-4.1h1.4l1,4.2l0.9-4.2h1.2l-1.4,6h-1.3l-1.2-4.5l-1.2,4.5H103z M99.5,497.8
	c0,0.3,0.1,0.5,0.2,0.6c0.1,0.1,0.2,0.2,0.4,0.2c0.2,0,0.3-0.1,0.4-0.2c0.1-0.1,0.2-0.3,0.2-0.6s-0.1-0.5-0.2-0.6
	c-0.1-0.1-0.2-0.2-0.4-0.2c-0.2,0-0.3,0.1-0.4,0.2C99.5,497.3,99.5,497.5,99.5,497.8z M98.6,497.8c0-0.5,0.1-0.9,0.4-1.1
	c0.3-0.3,0.6-0.4,1-0.4c0.4,0,0.8,0.1,1,0.4c0.3,0.3,0.4,0.6,0.4,1.1s-0.1,0.9-0.4,1.1c-0.3,0.3-0.6,0.4-1,0.4c-0.4,0-0.8-0.1-1-0.4
	C98.7,498.6,98.6,498.3,98.6,497.8z M97.1,502.3H96V498c-0.4,0.4-0.9,0.7-1.5,0.9v-1c0.3-0.1,0.6-0.3,1-0.6c0.4-0.3,0.6-0.6,0.7-1
	h0.9V502.3z M90.9,500.3c0,0.4,0.1,0.7,0.3,0.9c0.2,0.2,0.4,0.3,0.6,0.3c0.2,0,0.4-0.1,0.5-0.2c0.1-0.2,0.2-0.4,0.2-0.8
	c0-0.4-0.1-0.7-0.2-0.9c-0.2-0.2-0.3-0.3-0.6-0.3c-0.2,0-0.4,0.1-0.6,0.3C90.9,499.7,90.9,500,90.9,500.3z M93.5,497.8l-1.1,0.1
	c0-0.2-0.1-0.4-0.2-0.5c-0.1-0.1-0.3-0.2-0.4-0.2c-0.2,0-0.4,0.1-0.6,0.3c-0.2,0.2-0.3,0.7-0.3,1.4c0.3-0.3,0.6-0.5,1.1-0.5
	c0.5,0,0.9,0.2,1.2,0.5c0.3,0.4,0.5,0.8,0.5,1.4c0,0.6-0.2,1.1-0.5,1.5c-0.4,0.4-0.8,0.6-1.4,0.6c-0.6,0-1.1-0.2-1.5-0.7
	c-0.4-0.5-0.6-1.2-0.6-2.3c0-1.1,0.2-1.9,0.6-2.4c0.4-0.5,0.9-0.7,1.6-0.7c0.5,0,0.8,0.1,1.1,0.4C93.2,497,93.4,497.3,93.5,497.8z"
	/>
<path class="gradosHorizontalTXT" d="M51.8,502.3l-1.4-6h1.2l0.9,4.1l1.1-4.1H55l1,4.2l0.9-4.2h1.2l-1.4,6h-1.3l-1.2-4.5l-1.2,4.5H51.8z M48.3,497.8
	c0,0.3,0.1,0.5,0.2,0.6c0.1,0.1,0.2,0.2,0.4,0.2c0.2,0,0.3-0.1,0.4-0.2c0.1-0.1,0.2-0.3,0.2-0.6s-0.1-0.5-0.2-0.6
	c-0.1-0.1-0.2-0.2-0.4-0.2c-0.2,0-0.3,0.1-0.4,0.2C48.3,497.3,48.3,497.5,48.3,497.8z M47.4,497.8c0-0.5,0.1-0.9,0.4-1.1
	c0.3-0.3,0.6-0.4,1-0.4c0.4,0,0.8,0.1,1,0.4c0.3,0.3,0.4,0.6,0.4,1.1s-0.1,0.9-0.4,1.1c-0.3,0.3-0.6,0.4-1,0.4c-0.4,0-0.8-0.1-1-0.4
	C47.5,498.6,47.4,498.3,47.4,497.8z M46.9,501.3v1.1h-4c0-0.4,0.2-0.8,0.4-1.1c0.2-0.4,0.6-0.8,1.3-1.4c0.5-0.5,0.8-0.8,0.9-1
	c0.2-0.2,0.2-0.5,0.2-0.7c0-0.3-0.1-0.5-0.2-0.6c-0.1-0.1-0.3-0.2-0.6-0.2c-0.2,0-0.4,0.1-0.6,0.2c-0.1,0.1-0.2,0.4-0.2,0.7
	l-1.1-0.1c0.1-0.6,0.3-1.1,0.6-1.4c0.4-0.3,0.8-0.4,1.3-0.4c0.6,0,1.1,0.2,1.4,0.5c0.3,0.3,0.5,0.7,0.5,1.2c0,0.3,0,0.5-0.1,0.8
	c-0.1,0.2-0.2,0.5-0.5,0.8c-0.1,0.2-0.4,0.4-0.8,0.8c-0.4,0.3-0.6,0.6-0.7,0.7c-0.1,0.1-0.2,0.2-0.2,0.3H46.9z M39.7,500.3
	c0,0.4,0.1,0.7,0.3,0.9c0.2,0.2,0.4,0.3,0.6,0.3c0.2,0,0.4-0.1,0.5-0.2c0.1-0.2,0.2-0.4,0.2-0.8c0-0.4-0.1-0.7-0.2-0.9
	c-0.2-0.2-0.3-0.3-0.6-0.3c-0.2,0-0.4,0.1-0.6,0.3C39.7,499.7,39.7,500,39.7,500.3z M42.3,497.8l-1.1,0.1c0-0.2-0.1-0.4-0.2-0.5
	c-0.1-0.1-0.3-0.2-0.4-0.2c-0.2,0-0.4,0.1-0.6,0.3c-0.2,0.2-0.3,0.7-0.3,1.4c0.3-0.3,0.6-0.5,1.1-0.5c0.5,0,0.9,0.2,1.2,0.5
	c0.3,0.4,0.5,0.8,0.5,1.4c0,0.6-0.2,1.1-0.5,1.5c-0.4,0.4-0.8,0.6-1.4,0.6c-0.6,0-1.1-0.2-1.5-0.7c-0.4-0.5-0.6-1.2-0.6-2.3
	c0-1.1,0.2-1.9,0.6-2.4c0.4-0.5,0.9-0.7,1.6-0.7c0.5,0,0.8,0.1,1.1,0.4C42,497,42.2,497.3,42.3,497.8z"/>
<path class="gradosVerticalTXT" d="M22.3,303l1.1-0.1c0,0.3,0.1,0.5,0.3,0.6c0.2,0.2,0.3,0.2,0.6,0.2c0.2,0,0.4-0.1,0.6-0.3
	c0.2-0.2,0.2-0.5,0.2-0.9c0-0.4-0.1-0.6-0.2-0.8c-0.2-0.2-0.4-0.3-0.6-0.3c-0.3,0-0.6,0.1-0.9,0.4l-0.9-0.1l0.6-3.1h3v1.1h-2.2
	l-0.2,1c0.3-0.1,0.5-0.2,0.8-0.2c0.5,0,0.9,0.2,1.3,0.6c0.4,0.4,0.5,0.8,0.5,1.4c0,0.5-0.1,0.9-0.4,1.3c-0.4,0.5-0.9,0.8-1.6,0.8
	c-0.6,0-1-0.1-1.3-0.4C22.6,303.9,22.4,303.5,22.3,303 M19.9,300c0,0.3,0.1,0.5,0.2,0.6c0.1,0.1,0.2,0.2,0.4,0.2
	c0.2,0,0.3-0.1,0.4-0.2c0.1-0.1,0.2-0.3,0.2-0.6c0-0.3-0.1-0.5-0.2-0.6c-0.1-0.1-0.2-0.2-0.4-0.2c-0.2,0-0.3,0.1-0.4,0.2
	C19.9,299.5,19.9,299.7,19.9,300z M19,300c0-0.5,0.1-0.9,0.4-1.1c0.3-0.3,0.6-0.4,1-0.4c0.4,0,0.8,0.1,1,0.4
	c0.3,0.3,0.4,0.6,0.4,1.1c0,0.5-0.1,0.9-0.4,1.1c-0.3,0.3-0.6,0.4-1,0.4c-0.4,0-0.8-0.1-1-0.4C19.2,300.8,19,300.4,19,300z
	 M14.7,303l1.1-0.1c0,0.3,0.1,0.5,0.3,0.6c0.2,0.2,0.3,0.2,0.6,0.2c0.2,0,0.4-0.1,0.6-0.3c0.2-0.2,0.2-0.5,0.2-0.9
	c0-0.4-0.1-0.6-0.2-0.8c-0.2-0.2-0.4-0.3-0.6-0.3c-0.3,0-0.6,0.1-0.9,0.4l-0.9-0.1l0.6-3.1h3v1.1h-2.2l-0.2,1
	c0.3-0.1,0.5-0.2,0.8-0.2c0.5,0,0.9,0.2,1.3,0.6c0.4,0.4,0.5,0.8,0.5,1.4c0,0.5-0.1,0.9-0.4,1.3c-0.4,0.5-0.9,0.8-1.6,0.8
	c-0.6,0-1-0.1-1.3-0.4C14.9,303.9,14.7,303.5,14.7,303z M13.9,303.4v1.1h-4c0-0.4,0.2-0.8,0.4-1.1c0.2-0.4,0.6-0.8,1.3-1.4
	c0.5-0.5,0.8-0.8,0.9-1c0.2-0.2,0.2-0.5,0.2-0.7c0-0.3-0.1-0.5-0.2-0.6c-0.1-0.1-0.3-0.2-0.6-0.2c-0.2,0-0.4,0.1-0.6,0.2
	c-0.1,0.1-0.2,0.4-0.2,0.7l-1.1-0.1c0.1-0.6,0.3-1.1,0.6-1.4c0.4-0.3,0.8-0.4,1.3-0.4c0.6,0,1.1,0.2,1.4,0.5
	c0.3,0.3,0.5,0.7,0.5,1.2c0,0.3,0,0.5-0.1,0.8c-0.1,0.2-0.2,0.5-0.5,0.8c-0.1,0.2-0.4,0.4-0.8,0.8c-0.4,0.3-0.6,0.6-0.7,0.7
	c-0.1,0.1-0.2,0.2-0.2,0.3H13.9z"/>
<path class="gradosVerticalTXT" d="M22.3,354.2l1.1-0.1c0,0.3,0.1,0.5,0.3,0.6c0.2,0.2,0.3,0.2,0.6,0.2c0.2,0,0.4-0.1,0.6-0.3
	c0.2-0.2,0.2-0.5,0.2-0.9c0-0.4-0.1-0.6-0.2-0.8c-0.2-0.2-0.4-0.3-0.6-0.3c-0.3,0-0.6,0.1-0.9,0.4l-0.9-0.1l0.6-3.1h3v1.1h-2.2
	l-0.2,1c0.3-0.1,0.5-0.2,0.8-0.2c0.5,0,0.9,0.2,1.3,0.6c0.4,0.4,0.5,0.8,0.5,1.4c0,0.5-0.1,0.9-0.4,1.3c-0.4,0.5-0.9,0.8-1.6,0.8
	c-0.6,0-1-0.1-1.3-0.4C22.6,355.1,22.4,354.7,22.3,354.2 M19.9,351.2c0,0.3,0.1,0.5,0.2,0.6c0.1,0.1,0.2,0.2,0.4,0.2
	c0.2,0,0.3-0.1,0.4-0.2c0.1-0.1,0.2-0.3,0.2-0.6s-0.1-0.5-0.2-0.6c-0.1-0.1-0.2-0.2-0.4-0.2c-0.2,0-0.3,0.1-0.4,0.2
	C19.9,350.7,19.9,350.9,19.9,351.2z M19,351.2c0-0.5,0.1-0.9,0.4-1.1c0.3-0.3,0.6-0.4,1-0.4c0.4,0,0.8,0.1,1,0.4
	c0.3,0.3,0.4,0.6,0.4,1.1c0,0.5-0.1,0.9-0.4,1.1c-0.3,0.3-0.6,0.4-1,0.4c-0.4,0-0.8-0.1-1-0.4C19.2,352,19,351.6,19,351.2z
	 M15.9,353.7c0,0.4,0.1,0.7,0.3,0.9c0.2,0.2,0.4,0.3,0.6,0.3c0.2,0,0.4-0.1,0.5-0.2c0.1-0.2,0.2-0.4,0.2-0.8c0-0.4-0.1-0.7-0.2-0.9
	c-0.2-0.2-0.3-0.3-0.6-0.3c-0.2,0-0.4,0.1-0.6,0.3C16,353.1,15.9,353.4,15.9,353.7z M18.5,351.2l-1.1,0.1c0-0.2-0.1-0.4-0.2-0.5
	c-0.1-0.1-0.3-0.2-0.4-0.2c-0.2,0-0.4,0.1-0.6,0.3c-0.2,0.2-0.3,0.7-0.3,1.4c0.3-0.3,0.6-0.5,1.1-0.5c0.5,0,0.9,0.2,1.2,0.5
	c0.3,0.4,0.5,0.8,0.5,1.4c0,0.6-0.2,1.1-0.5,1.5c-0.4,0.4-0.8,0.6-1.4,0.6c-0.6,0-1.1-0.2-1.5-0.7c-0.4-0.5-0.6-1.2-0.6-2.3
	c0-1.1,0.2-1.9,0.6-2.4c0.4-0.5,0.9-0.7,1.6-0.7c0.5,0,0.8,0.1,1.1,0.4C18.2,350.3,18.4,350.7,18.5,351.2z M13.9,354.6v1.1h-4
	c0-0.4,0.2-0.8,0.4-1.1c0.2-0.4,0.6-0.8,1.3-1.4c0.5-0.5,0.8-0.8,0.9-1c0.2-0.2,0.2-0.5,0.2-0.7c0-0.3-0.1-0.5-0.2-0.6
	c-0.1-0.1-0.3-0.2-0.6-0.2c-0.2,0-0.4,0.1-0.6,0.2c-0.1,0.1-0.2,0.4-0.2,0.7l-1.1-0.1c0.1-0.6,0.3-1.1,0.6-1.4
	c0.4-0.3,0.8-0.4,1.3-0.4c0.6,0,1.1,0.2,1.4,0.5c0.3,0.3,0.5,0.7,0.5,1.2c0,0.3,0,0.5-0.1,0.8c-0.1,0.2-0.2,0.5-0.5,0.8
	c-0.1,0.2-0.4,0.4-0.8,0.8c-0.4,0.3-0.6,0.6-0.7,0.7c-0.1,0.1-0.2,0.2-0.2,0.3H13.9z"/>
<path class="gradosVerticalTXT" d="M22.3,405.4l1.1-0.1c0,0.3,0.1,0.5,0.3,0.6c0.2,0.2,0.3,0.2,0.6,0.2c0.2,0,0.4-0.1,0.6-0.3
	c0.2-0.2,0.2-0.5,0.2-0.9c0-0.4-0.1-0.6-0.2-0.8c-0.2-0.2-0.4-0.3-0.6-0.3c-0.3,0-0.6,0.1-0.9,0.4l-0.9-0.1l0.6-3.1h3v1.1h-2.2
	l-0.2,1c0.3-0.1,0.5-0.2,0.8-0.2c0.5,0,0.9,0.2,1.3,0.6c0.4,0.4,0.5,0.8,0.5,1.4c0,0.5-0.1,0.9-0.4,1.3c-0.4,0.5-0.9,0.8-1.6,0.8
	c-0.6,0-1-0.1-1.3-0.4C22.6,406.3,22.4,405.9,22.3,405.4 M19.9,402.4c0,0.3,0.1,0.5,0.2,0.6c0.1,0.1,0.2,0.2,0.4,0.2
	c0.2,0,0.3-0.1,0.4-0.2c0.1-0.1,0.2-0.3,0.2-0.6c0-0.3-0.1-0.5-0.2-0.6c-0.1-0.1-0.2-0.2-0.4-0.2c-0.2,0-0.3,0.1-0.4,0.2
	C19.9,401.9,19.9,402.1,19.9,402.4z M19,402.4c0-0.5,0.1-0.9,0.4-1.1c0.3-0.3,0.6-0.4,1-0.4c0.4,0,0.8,0.1,1,0.4
	c0.3,0.3,0.4,0.6,0.4,1.1c0,0.5-0.1,0.9-0.4,1.1c-0.3,0.3-0.6,0.4-1,0.4c-0.4,0-0.8-0.1-1-0.4C19.2,403.2,19,402.8,19,402.4z
	 M14.6,402.1V401h3.9v0.8c-0.3,0.3-0.7,0.8-1,1.4c-0.3,0.6-0.6,1.2-0.8,1.9c-0.2,0.7-0.3,1.3-0.3,1.8h-1.1c0-0.8,0.2-1.7,0.5-2.5
	c0.3-0.9,0.8-1.6,1.3-2.3H14.6z M13.9,405.8v1.1h-4c0-0.4,0.2-0.8,0.4-1.1c0.2-0.4,0.6-0.8,1.3-1.4c0.5-0.5,0.8-0.8,0.9-1
	c0.2-0.2,0.2-0.5,0.2-0.7c0-0.3-0.1-0.5-0.2-0.6c-0.1-0.1-0.3-0.2-0.6-0.2c-0.2,0-0.4,0.1-0.6,0.2c-0.1,0.1-0.2,0.4-0.2,0.7
	l-1.1-0.1c0.1-0.6,0.3-1.1,0.6-1.4c0.4-0.3,0.8-0.4,1.3-0.4c0.6,0,1.1,0.2,1.4,0.5c0.3,0.3,0.5,0.7,0.5,1.2c0,0.3,0,0.5-0.1,0.8
	c-0.1,0.2-0.2,0.5-0.5,0.8c-0.1,0.2-0.4,0.4-0.8,0.8c-0.4,0.3-0.6,0.6-0.7,0.7c-0.1,0.1-0.2,0.2-0.2,0.3H13.9z"/>
<path class="gradosVerticalTXT" d="M22.3,251.8l1.1-0.1c0,0.3,0.1,0.5,0.3,0.6c0.2,0.2,0.3,0.2,0.6,0.2c0.2,0,0.4-0.1,0.6-0.3
	c0.2-0.2,0.2-0.5,0.2-0.9c0-0.4-0.1-0.6-0.2-0.8c-0.2-0.2-0.4-0.3-0.6-0.3c-0.3,0-0.6,0.1-0.9,0.4l-0.9-0.1l0.6-3.1h3v1.1h-2.2
	l-0.2,1c0.3-0.1,0.5-0.2,0.8-0.2c0.5,0,0.9,0.2,1.3,0.6c0.4,0.4,0.5,0.8,0.5,1.4c0,0.5-0.1,0.9-0.4,1.3c-0.4,0.5-0.9,0.8-1.6,0.8
	c-0.6,0-1-0.1-1.3-0.4C22.6,252.7,22.4,252.3,22.3,251.8 M19.9,248.8c0,0.3,0.1,0.5,0.2,0.6c0.1,0.1,0.2,0.2,0.4,0.2
	c0.2,0,0.3-0.1,0.4-0.2c0.1-0.1,0.2-0.3,0.2-0.6c0-0.3-0.1-0.5-0.2-0.6c-0.1-0.1-0.2-0.2-0.4-0.2c-0.2,0-0.3,0.1-0.4,0.2
	C19.9,248.3,19.9,248.5,19.9,248.8z M19,248.8c0-0.5,0.1-0.9,0.4-1.1c0.3-0.3,0.6-0.4,1-0.4c0.4,0,0.8,0.1,1,0.4
	c0.3,0.3,0.4,0.6,0.4,1.1c0,0.5-0.1,0.9-0.4,1.1c-0.3,0.3-0.6,0.4-1,0.4c-0.4,0-0.8-0.1-1-0.4C19.2,249.6,19,249.2,19,248.8z
	 M16.9,251.1v-2l-1.4,2H16.9z M16.9,253.3v-1.2h-2.4v-1l2.6-3.8h1v3.8h0.7v1H18v1.2H16.9z M13.9,252.2v1.1h-4c0-0.4,0.2-0.8,0.4-1.1
	c0.2-0.4,0.6-0.8,1.3-1.4c0.5-0.5,0.8-0.8,0.9-1c0.2-0.2,0.2-0.5,0.2-0.7c0-0.3-0.1-0.5-0.2-0.6c-0.1-0.1-0.3-0.2-0.6-0.2
	c-0.2,0-0.4,0.1-0.6,0.2c-0.1,0.1-0.2,0.4-0.2,0.7l-1.1-0.1c0.1-0.6,0.3-1.1,0.6-1.4c0.4-0.3,0.8-0.4,1.3-0.4c0.6,0,1.1,0.2,1.4,0.5
	c0.3,0.3,0.5,0.7,0.5,1.2c0,0.3,0,0.5-0.1,0.8c-0.1,0.2-0.2,0.5-0.5,0.8c-0.1,0.2-0.4,0.4-0.8,0.8c-0.4,0.3-0.6,0.6-0.7,0.7
	c-0.1,0.1-0.2,0.2-0.2,0.3H13.9z"/>
<path class="gradosVerticalTXT" d="M22.3,200.6l1.1-0.1c0,0.3,0.1,0.5,0.3,0.6c0.2,0.2,0.3,0.2,0.6,0.2c0.2,0,0.4-0.1,0.6-0.3
	c0.2-0.2,0.2-0.5,0.2-0.9c0-0.4-0.1-0.6-0.2-0.8c-0.2-0.2-0.4-0.3-0.6-0.3c-0.3,0-0.6,0.1-0.9,0.4l-0.9-0.1l0.6-3.1h3v1.1h-2.2
	l-0.2,1c0.3-0.1,0.5-0.2,0.8-0.2c0.5,0,0.9,0.2,1.3,0.6c0.4,0.4,0.5,0.8,0.5,1.4c0,0.5-0.1,0.9-0.4,1.3c-0.4,0.5-0.9,0.8-1.6,0.8
	c-0.6,0-1-0.1-1.3-0.4C22.6,201.5,22.4,201.1,22.3,200.6 M19.9,197.6c0,0.3,0.1,0.5,0.2,0.6c0.1,0.1,0.2,0.2,0.4,0.2
	c0.2,0,0.3-0.1,0.4-0.2c0.1-0.1,0.2-0.3,0.2-0.6c0-0.3-0.1-0.5-0.2-0.6c-0.1-0.1-0.2-0.2-0.4-0.2c-0.2,0-0.3,0.1-0.4,0.2
	C19.9,197.1,19.9,197.3,19.9,197.6z M19,197.6c0-0.5,0.1-0.9,0.4-1.1c0.3-0.3,0.6-0.4,1-0.4c0.4,0,0.8,0.1,1,0.4
	c0.3,0.3,0.4,0.6,0.4,1.1c0,0.5-0.1,0.9-0.4,1.1c-0.3,0.3-0.6,0.4-1,0.4c-0.4,0-0.8-0.1-1-0.4C19.2,198.4,19,198,19,197.6z
	 M14.6,200.5l1.1-0.1c0,0.3,0.1,0.5,0.3,0.7c0.2,0.2,0.3,0.2,0.6,0.2c0.2,0,0.4-0.1,0.6-0.3c0.2-0.2,0.2-0.4,0.2-0.7
	c0-0.3-0.1-0.5-0.2-0.7c-0.2-0.2-0.3-0.3-0.6-0.3c-0.1,0-0.3,0-0.5,0.1l0.1-0.9c0.3,0,0.5-0.1,0.7-0.2c0.2-0.1,0.2-0.3,0.2-0.6
	c0-0.2-0.1-0.4-0.2-0.5c-0.1-0.1-0.3-0.2-0.5-0.2c-0.2,0-0.4,0.1-0.5,0.2c-0.1,0.1-0.2,0.3-0.3,0.6l-1.1-0.2
	c0.1-0.4,0.2-0.7,0.3-0.9c0.1-0.2,0.4-0.4,0.6-0.5c0.3-0.1,0.6-0.2,0.9-0.2c0.6,0,1,0.2,1.4,0.5c0.3,0.3,0.4,0.6,0.4,1
	c0,0.5-0.3,0.9-0.9,1.3c0.3,0.1,0.6,0.2,0.8,0.5c0.2,0.3,0.3,0.6,0.3,0.9c0,0.5-0.2,1-0.6,1.3c-0.4,0.4-0.9,0.6-1.4,0.6
	c-0.5,0-1-0.2-1.3-0.5C14.9,201.4,14.7,201,14.6,200.5z M13.9,201v1.1h-4c0-0.4,0.2-0.8,0.4-1.1c0.2-0.4,0.6-0.8,1.3-1.4
	c0.5-0.5,0.8-0.8,0.9-1c0.2-0.2,0.2-0.5,0.2-0.7c0-0.3-0.1-0.5-0.2-0.6c-0.1-0.1-0.3-0.2-0.6-0.2c-0.2,0-0.4,0.1-0.6,0.2
	c-0.1,0.1-0.2,0.4-0.2,0.7l-1.1-0.1c0.1-0.6,0.3-1.1,0.6-1.4c0.4-0.3,0.8-0.4,1.3-0.4c0.6,0,1.1,0.2,1.4,0.5
	c0.3,0.3,0.5,0.7,0.5,1.2c0,0.3,0,0.5-0.1,0.8c-0.1,0.2-0.2,0.5-0.5,0.8c-0.1,0.2-0.4,0.4-0.8,0.8c-0.4,0.3-0.6,0.6-0.7,0.7
	c-0.1,0.1-0.2,0.2-0.2,0.3H13.9z"/>
<path class="gradosVerticalTXT" d="M22.3,149.4l1.1-0.1c0,0.3,0.1,0.5,0.3,0.6c0.2,0.2,0.3,0.2,0.6,0.2c0.2,0,0.4-0.1,0.6-0.3
	c0.2-0.2,0.2-0.5,0.2-0.9c0-0.4-0.1-0.6-0.2-0.8c-0.2-0.2-0.4-0.3-0.6-0.3c-0.3,0-0.6,0.1-0.9,0.4l-0.9-0.1l0.6-3.1h3v1.1h-2.2
	l-0.2,1c0.3-0.1,0.5-0.2,0.8-0.2c0.5,0,0.9,0.2,1.3,0.6c0.4,0.4,0.5,0.8,0.5,1.4c0,0.5-0.1,0.9-0.4,1.3c-0.4,0.5-0.9,0.8-1.6,0.8
	c-0.6,0-1-0.1-1.3-0.4C22.6,150.3,22.4,149.9,22.3,149.4 M19.9,146.4c0,0.3,0.1,0.5,0.2,0.6c0.1,0.1,0.2,0.2,0.4,0.2
	c0.2,0,0.3-0.1,0.4-0.2c0.1-0.1,0.2-0.3,0.2-0.6c0-0.3-0.1-0.5-0.2-0.6c-0.1-0.1-0.2-0.2-0.4-0.2c-0.2,0-0.3,0.1-0.4,0.2
	C19.9,145.9,19.9,146.1,19.9,146.4z M19,146.4c0-0.5,0.1-0.9,0.4-1.1c0.3-0.3,0.6-0.4,1-0.4c0.4,0,0.8,0.1,1,0.4
	c0.3,0.3,0.4,0.6,0.4,1.1c0,0.5-0.1,0.9-0.4,1.1c-0.3,0.3-0.6,0.4-1,0.4c-0.4,0-0.8-0.1-1-0.4C19.2,147.2,19,146.8,19,146.4z
	 M18.5,149.8v1.1h-4c0-0.4,0.2-0.8,0.4-1.1c0.2-0.4,0.6-0.8,1.3-1.4c0.5-0.5,0.8-0.8,0.9-1c0.2-0.2,0.2-0.5,0.2-0.7
	c0-0.3-0.1-0.5-0.2-0.6c-0.1-0.1-0.3-0.2-0.6-0.2c-0.2,0-0.4,0.1-0.6,0.2c-0.1,0.1-0.2,0.4-0.2,0.7l-1.1-0.1
	c0.1-0.6,0.3-1.1,0.6-1.4c0.4-0.3,0.8-0.4,1.3-0.4c0.6,0,1.1,0.2,1.4,0.5c0.3,0.3,0.5,0.7,0.5,1.2c0,0.3,0,0.5-0.1,0.8
	c-0.1,0.2-0.2,0.5-0.5,0.8c-0.1,0.2-0.4,0.4-0.8,0.8c-0.4,0.3-0.6,0.6-0.7,0.7c-0.1,0.1-0.2,0.2-0.2,0.3H18.5z M13.9,149.8v1.1h-4
	c0-0.4,0.2-0.8,0.4-1.1c0.2-0.4,0.6-0.8,1.3-1.4c0.5-0.5,0.8-0.8,0.9-1c0.2-0.2,0.2-0.5,0.2-0.7c0-0.3-0.1-0.5-0.2-0.6
	c-0.1-0.1-0.3-0.2-0.6-0.2c-0.2,0-0.4,0.1-0.6,0.2c-0.1,0.1-0.2,0.4-0.2,0.7l-1.1-0.1c0.1-0.6,0.3-1.1,0.6-1.4
	c0.4-0.3,0.8-0.4,1.3-0.4c0.6,0,1.1,0.2,1.4,0.5c0.3,0.3,0.5,0.7,0.5,1.2c0,0.3,0,0.5-0.1,0.8c-0.1,0.2-0.2,0.5-0.5,0.8
	c-0.1,0.2-0.4,0.4-0.8,0.8c-0.4,0.3-0.6,0.6-0.7,0.7c-0.1,0.1-0.2,0.2-0.2,0.3H13.9z"/>
<path class="gradosVerticalTXT" d="M22.3,98.2l1.1-0.1c0,0.3,0.1,0.5,0.3,0.6c0.2,0.2,0.3,0.2,0.6,0.2c0.2,0,0.4-0.1,0.6-0.3
	c0.2-0.2,0.2-0.5,0.2-0.9c0-0.4-0.1-0.6-0.2-0.8c-0.2-0.2-0.4-0.3-0.6-0.3c-0.3,0-0.6,0.1-0.9,0.4l-0.9-0.1l0.6-3.1h3v1.1h-2.2
	l-0.2,1c0.3-0.1,0.5-0.2,0.8-0.2c0.5,0,0.9,0.2,1.3,0.6c0.4,0.4,0.5,0.8,0.5,1.4c0,0.5-0.1,0.9-0.4,1.3c-0.4,0.5-0.9,0.8-1.6,0.8
	c-0.6,0-1-0.1-1.3-0.4C22.6,99.1,22.4,98.7,22.3,98.2 M19.9,95.2c0,0.3,0.1,0.5,0.2,0.6c0.1,0.1,0.2,0.2,0.4,0.2
	c0.2,0,0.3-0.1,0.4-0.2c0.1-0.1,0.2-0.3,0.2-0.6c0-0.3-0.1-0.5-0.2-0.6c-0.1-0.1-0.2-0.2-0.4-0.2c-0.2,0-0.3,0.1-0.4,0.2
	C19.9,94.7,19.9,94.9,19.9,95.2z M19,95.2c0-0.5,0.1-0.9,0.4-1.1c0.3-0.3,0.6-0.4,1-0.4c0.4,0,0.8,0.1,1,0.4
	c0.3,0.3,0.4,0.6,0.4,1.1c0,0.5-0.1,0.9-0.4,1.1c-0.3,0.3-0.6,0.4-1,0.4c-0.4,0-0.8-0.1-1-0.4C19.2,96,19,95.6,19,95.2z M17.6,99.7
	h-1.1v-4.3c-0.4,0.4-0.9,0.7-1.5,0.9v-1c0.3-0.1,0.6-0.3,1-0.6c0.4-0.3,0.6-0.6,0.7-1h0.9V99.7z M13.9,98.6v1.1h-4
	c0-0.4,0.2-0.8,0.4-1.1c0.2-0.4,0.6-0.8,1.3-1.4c0.5-0.5,0.8-0.8,0.9-1c0.2-0.2,0.2-0.5,0.2-0.7c0-0.3-0.1-0.5-0.2-0.6
	c-0.1-0.1-0.3-0.2-0.6-0.2c-0.2,0-0.4,0.1-0.6,0.2c-0.1,0.1-0.2,0.4-0.2,0.7L10,95.5c0.1-0.6,0.3-1.1,0.6-1.4
	c0.4-0.3,0.8-0.4,1.3-0.4c0.6,0,1.1,0.2,1.4,0.5c0.3,0.3,0.5,0.7,0.5,1.2c0,0.3,0,0.5-0.1,0.8c-0.1,0.2-0.2,0.5-0.5,0.8
	c-0.1,0.2-0.4,0.4-0.8,0.8c-0.4,0.3-0.6,0.6-0.7,0.7c-0.1,0.1-0.2,0.2-0.2,0.3H13.9z"/>
<path class="gradosVerticalTXT" d="M22.3,47l1.1-0.1c0,0.3,0.1,0.5,0.3,0.6c0.2,0.2,0.3,0.2,0.6,0.2c0.2,0,0.4-0.1,0.6-0.3
	c0.2-0.2,0.2-0.5,0.2-0.9c0-0.4-0.1-0.6-0.2-0.8c-0.2-0.2-0.4-0.3-0.6-0.3c-0.3,0-0.6,0.1-0.9,0.4l-0.9-0.1l0.6-3.1h3v1.1h-2.2
	l-0.2,1c0.3-0.1,0.5-0.2,0.8-0.2c0.5,0,0.9,0.2,1.3,0.6c0.4,0.4,0.5,0.8,0.5,1.4c0,0.5-0.1,0.9-0.4,1.3c-0.4,0.5-0.9,0.8-1.6,0.8
	c-0.6,0-1-0.1-1.3-0.4C22.6,47.9,22.4,47.5,22.3,47 M19.9,44c0,0.3,0.1,0.5,0.2,0.6c0.1,0.1,0.2,0.2,0.4,0.2c0.2,0,0.3-0.1,0.4-0.2
	c0.1-0.1,0.2-0.3,0.2-0.6c0-0.3-0.1-0.5-0.2-0.6c-0.1-0.1-0.2-0.2-0.4-0.2c-0.2,0-0.3,0.1-0.4,0.2C19.9,43.5,19.9,43.7,19.9,44z
	 M19,44c0-0.5,0.1-0.9,0.4-1.1c0.3-0.3,0.6-0.4,1-0.4c0.4,0,0.8,0.1,1,0.4c0.3,0.3,0.4,0.6,0.4,1.1c0,0.5-0.1,0.9-0.4,1.1
	c-0.3,0.3-0.6,0.4-1,0.4c-0.4,0-0.8-0.1-1-0.4C19.2,44.8,19,44.4,19,44z M16.6,43.5c-0.1,0-0.3,0-0.4,0.1c-0.1,0.1-0.2,0.2-0.2,0.5
	c-0.1,0.3-0.1,0.8-0.1,1.5c0,0.7,0,1.2,0.1,1.4c0.1,0.3,0.2,0.4,0.3,0.5c0.1,0.1,0.2,0.1,0.4,0.1c0.1,0,0.3,0,0.4-0.1
	c0.1-0.1,0.2-0.2,0.2-0.5c0.1-0.3,0.1-0.8,0.1-1.5c0-0.7,0-1.2-0.1-1.4c-0.1-0.3-0.2-0.4-0.3-0.5C16.8,43.5,16.7,43.5,16.6,43.5z
	 M16.6,42.5c0.6,0,1,0.2,1.4,0.6c0.4,0.5,0.6,1.3,0.6,2.4c0,1.1-0.2,1.9-0.6,2.4c-0.3,0.4-0.8,0.6-1.4,0.6c-0.6,0-1-0.2-1.4-0.7
	c-0.4-0.4-0.5-1.2-0.5-2.4c0-1.1,0.2-1.9,0.6-2.4C15.6,42.7,16,42.5,16.6,42.5z M13.9,47.4v1.1h-4c0-0.4,0.2-0.8,0.4-1.1
	c0.2-0.4,0.6-0.8,1.3-1.4c0.5-0.5,0.8-0.8,0.9-1c0.2-0.2,0.2-0.5,0.2-0.7c0-0.3-0.1-0.5-0.2-0.6c-0.1-0.1-0.3-0.2-0.6-0.2
	c-0.2,0-0.4,0.1-0.6,0.2c-0.1,0.1-0.2,0.4-0.2,0.7L10,44.3c0.1-0.6,0.3-1.1,0.6-1.4c0.4-0.3,0.8-0.4,1.3-0.4c0.6,0,1.1,0.2,1.4,0.5
	c0.3,0.3,0.5,0.7,0.5,1.2c0,0.3,0,0.5-0.1,0.8c-0.1,0.2-0.2,0.5-0.5,0.8c-0.1,0.2-0.4,0.4-0.8,0.8c-0.4,0.3-0.6,0.6-0.7,0.7
	c-0.1,0.1-0.2,0.2-0.2,0.3H13.9z"/>
<path class="gradosVerticalTXT" d="M22.3,456.6l1.1-0.1c0,0.3,0.1,0.5,0.3,0.6c0.2,0.2,0.3,0.2,0.6,0.2c0.2,0,0.4-0.1,0.6-0.3
	c0.2-0.2,0.2-0.5,0.2-0.9c0-0.4-0.1-0.6-0.2-0.8c-0.2-0.2-0.4-0.3-0.6-0.3c-0.3,0-0.6,0.1-0.9,0.4l-0.9-0.1l0.6-3.1h3v1.1h-2.2
	l-0.2,1c0.3-0.1,0.5-0.2,0.8-0.2c0.5,0,0.9,0.2,1.3,0.6c0.4,0.4,0.5,0.8,0.5,1.4c0,0.5-0.1,0.9-0.4,1.3c-0.4,0.5-0.9,0.8-1.6,0.8
	c-0.6,0-1-0.1-1.3-0.4C22.6,457.5,22.4,457.1,22.3,456.6 M19.9,453.6c0,0.3,0.1,0.5,0.2,0.6c0.1,0.1,0.2,0.2,0.4,0.2
	c0.2,0,0.3-0.1,0.4-0.2c0.1-0.1,0.2-0.3,0.2-0.6c0-0.3-0.1-0.5-0.2-0.6c-0.1-0.1-0.2-0.2-0.4-0.2c-0.2,0-0.3,0.1-0.4,0.2
	C19.9,453.1,19.9,453.3,19.9,453.6z M19,453.6c0-0.5,0.1-0.9,0.4-1.1c0.3-0.3,0.6-0.4,1-0.4c0.4,0,0.8,0.1,1,0.4
	c0.3,0.3,0.4,0.6,0.4,1.1c0,0.5-0.1,0.9-0.4,1.1c-0.3,0.3-0.6,0.4-1,0.4c-0.4,0-0.8-0.1-1-0.4C19.2,454.4,19,454,19,453.6z
	 M15.8,456.3c0,0.3,0.1,0.6,0.2,0.7c0.2,0.2,0.4,0.3,0.6,0.3c0.2,0,0.4-0.1,0.6-0.3c0.2-0.2,0.2-0.4,0.2-0.7c0-0.3-0.1-0.5-0.2-0.7
	c-0.2-0.2-0.4-0.3-0.6-0.3c-0.3,0-0.5,0.1-0.6,0.3C15.8,455.8,15.8,456.1,15.8,456.3z M15.9,453.7c0,0.2,0.1,0.4,0.2,0.5
	c0.1,0.1,0.3,0.2,0.5,0.2c0.2,0,0.4-0.1,0.5-0.2c0.1-0.1,0.2-0.3,0.2-0.5c0-0.2-0.1-0.4-0.2-0.5c-0.1-0.1-0.3-0.2-0.5-0.2
	c-0.2,0-0.4,0.1-0.5,0.2C15.9,453.3,15.9,453.5,15.9,453.7z M15.6,454.9c-0.3-0.1-0.5-0.3-0.6-0.5c-0.1-0.2-0.2-0.5-0.2-0.7
	c0-0.4,0.2-0.8,0.5-1.1c0.3-0.3,0.8-0.4,1.3-0.4c0.6,0,1,0.1,1.3,0.4c0.3,0.3,0.5,0.7,0.5,1.1c0,0.3-0.1,0.5-0.2,0.7
	c-0.1,0.2-0.3,0.4-0.6,0.5c0.3,0.1,0.6,0.3,0.8,0.6c0.2,0.3,0.3,0.6,0.3,0.9c0,0.6-0.2,1-0.5,1.3c-0.3,0.3-0.8,0.5-1.4,0.5
	c-0.5,0-1-0.1-1.4-0.4c-0.4-0.3-0.6-0.8-0.6-1.4c0-0.3,0.1-0.6,0.2-0.9C15,455.2,15.3,455,15.6,454.9z M13.9,457v1.1h-4
	c0-0.4,0.2-0.8,0.4-1.1c0.2-0.4,0.6-0.8,1.3-1.4c0.5-0.5,0.8-0.8,0.9-1c0.2-0.2,0.2-0.5,0.2-0.7c0-0.3-0.1-0.5-0.2-0.6
	c-0.1-0.1-0.3-0.2-0.6-0.2c-0.2,0-0.4,0.1-0.6,0.2c-0.1,0.1-0.2,0.4-0.2,0.7l-1.1-0.1c0.1-0.6,0.3-1.1,0.6-1.4
	c0.4-0.3,0.8-0.4,1.3-0.4c0.6,0,1.1,0.2,1.4,0.5c0.3,0.3,0.5,0.7,0.5,1.2c0,0.3,0,0.5-0.1,0.8c-0.1,0.2-0.2,0.5-0.5,0.8
	c-0.1,0.2-0.4,0.4-0.8,0.8c-0.4,0.3-0.6,0.6-0.7,0.7c-0.1,0.1-0.2,0.2-0.2,0.3H13.9z"/>






<path class="pyColor" d="M242.9,482.2l116.9,15.6l36.4-7.9l52.4-52.2l10-46.3l18.8-103.1l-19.8-14l-22.3,10.1l-20-0.5l-18.8-85.9
	l-6-12.2l-27.5-15.4l-25.3,15.3l-60.1-11.5c3.6-37.2,10.8-71.2-8.5-107.6l-1.4-13.9l-50.8-38.8l-57.4,2.4L74.5,34.2l-23.1,44l-24,99
	l90.2,97.4l58.2,17.7l106.6,57l16.2,27.3l-29.7,41.9l-8.2,32.7L242.9,482.2z"/>
<path class="pyLine" d="M242.9,482.2l116.9,15.6l36.4-7.9l52.4-52.2l10-46.3l18.8-103.1l-19.8-14l-22.3,10.1l-20-0.5l-18.8-85.9
	l-6-12.2l-27.5-15.4l-25.3,15.3l-60.1-11.5c3.6-37.2,10.8-71.2-8.5-107.6l-1.4-13.9l-50.8-38.8l-57.4,2.4L74.5,34.2l-23.1,44l-24,99
	l90.2,97.4l58.2,17.7l106.6,57l16.2,27.3l-29.7,41.9l-8.2,32.7L242.9,482.2z"/>





<line class="rastreoLine" x1="298.9" y1="512" x2="298.9" y2="0"/>
<linearGradient id="SVGID_Sombra_" gradientUnits="userSpaceOnUse" x1="275.4592" y1="256" x2="298.4592" y2="256">
	<stop  offset="0" style="stop-color:#fff;stop-opacity:0"/>
	<stop  offset="1" style="stop-color:#fff;stop-opacity:0.3"/>
</linearGradient>
<rect x="275.5" class="rastreoSombra" width="23" height="512"/>



<line class="verticalArr" x1="298.9" y1="0" x2="298.9" y2="338.5"/>
<line class="verticalAbaj" x1="298.9" y1="512" x2="298.9" y2="388"/>
<line class="horiIz" x1="0" y1="363.2" x2="274.1" y2="363.3"/>
<line class="horiDr" x1="512" y1="363.2" x2="323.6" y2="363.3"/>





<polygon class="dptoCentral" points="270.8,349.1 278.7,343.1 292.1,325.8 300.4,326.1 320.4,355.6 326.4,355.6 329.9,361.2 311.2,381.2 
	302.2,396 304.5,407.8 294.6,424.9 287.9,413.4 275.9,403.4 265.7,406.3 287,376.4 "/>
<polyline class="dptoCentralLine" points="270.8,349.1 278.7,343.1 292.1,325.8 300.4,326.1 320.4,355.6 326.4,355.6 329.9,361.2 310.8,381.7 
	302.2,396 304.5,407.8 294.6,424.9 287.9,413.4 275.9,403.4 265.7,406.3 "/>
<path class="pyTxt" d="M474.8,83.1v-9.2l-9.1-17.8h8.1l4.8,11.5h0.1l4.8-11.5h8.1l-9.1,17.8v9.2H474.8z M448.6,78.1V72H463v6.1H448.6z
	 M442.5,83.1l8.3-27h10l8.3,27h-8.1l-5.1-20.7h-0.1l-5.1,20.7H442.5z M429.5,83.4c-3.8,0-6.7-0.8-8.6-2.5c-1.9-1.7-2.9-4.2-2.9-7.5
	V56.1h7.4V72c0,2,0.3,3.3,0.9,4.1c0.6,0.7,1.6,1.1,3.2,1.1c1.6,0,2.6-0.4,3.2-1.1c0.6-0.7,0.9-2.1,0.9-4.1V56.1h7.4v17.4
	c0,3.3-1,5.8-2.9,7.5C436.2,82.6,433.3,83.4,429.5,83.4z M404.1,83.4c-3.2,0-5.9-0.5-8.1-1.6c-2.3-1.1-4-2.7-5.2-4.8
	c-1.2-2.1-1.8-4.6-1.8-7.5c0-2.9,0.6-5.4,1.8-7.5c1.2-2.1,2.9-3.6,5-4.8c2.2-1.1,4.8-1.7,7.9-1.7c1.7,0,3.3,0.2,4.8,0.5
	c1.5,0.3,2.8,0.9,4,1.6l-1.6,5.9c-0.9-0.6-2-1-3.3-1.4c-1.3-0.3-2.6-0.5-3.8-0.5c-1.5,0-2.8,0.3-3.8,0.9c-1,0.6-1.8,1.5-2.3,2.6
	c-0.5,1.1-0.8,2.6-0.8,4.3c0,1.7,0.3,3.2,0.8,4.3c0.5,1.1,1.4,2,2.4,2.6c1.1,0.6,2.4,0.9,4.1,0.9c0.7,0,1.3-0.1,1.9-0.2
	c0.5-0.1,1.1-0.3,1.6-0.6l-0.9,1.7v-5.5h-5.9v-6.1h13.3v14.6c-1.4,0.7-2.9,1.3-4.7,1.6C407.8,83.2,406,83.4,404.1,83.4z M368.3,78.1
	V72h14.4v6.1H368.3z M362.2,83.1l8.3-27h10l8.3,27h-8.1l-5.1-20.7h-0.1l-5.1,20.7H362.2z M352.9,83.1L343.3,71h7.8l9.9,12.1H352.9z
	 M337.8,83.1v-27h9.3c4.1,0,7.2,0.7,9.2,2.1c2,1.4,3,3.6,3,6.5c0,2.9-0.9,5.1-2.7,6.6c-1.8,1.5-4.4,2.3-7.9,2.3h-7.1v-5.4h6
	c1.5,0,2.5-0.3,3.2-0.8c0.7-0.5,1-1.3,1-2.4c0-1.1-0.3-1.9-1-2.4c-0.7-0.5-1.7-0.8-3.2-0.8h-2.3v21.1H337.8z M314.8,78.1V72h14.4
	v6.1H314.8z M308.7,83.1l8.3-27h10l8.3,27h-8.1L322,62.3H322l-5.1,20.7H308.7z M288.9,83.1v-27h9c4.2,0,7.3,0.8,9.4,2.5
	c2.1,1.6,3.1,4.1,3.1,7.3c0,3.2-1,5.6-2.9,7.3c-1.9,1.7-4.8,2.5-8.4,2.5h-6.4v-5.9h5.4c1.6,0,2.8-0.3,3.6-0.9
	c0.8-0.6,1.1-1.6,1.1-2.9c0-1.3-0.4-2.3-1.1-2.9c-0.8-0.6-2-0.9-3.6-0.9h-1.7v21.1H288.9z"/>



<path class="ubiIconOut" d="M298.9,345.8c9.7,0,17.5,7.8,17.5,17.5c0,9.7-7.8,17.5-17.5,17.5c-9.7,0-17.5-7.8-17.5-17.5
	C281.4,353.6,289.2,345.8,298.9,345.8z"/>
<line class="ubiIconLin1" x1="298.9" y1="349.4" x2="298.9" y2="356.6"/>
<line class="ubiIconLin3" x1="312.8" y1="363.3" x2="305.6" y2="363.3"/>
<line class="ubiIconLin2" x1="308.8" y1="353.4" x2="303.6" y2="358.6"/>
<path class="ubiIconCentro" d="M298.9,356.8c3.6,0,6.5,2.9,6.5,6.5c0,3.6-2.9,6.5-6.5,6.5c-3.6,0-6.5-2.9-6.5-6.5
	C292.4,359.7,295.3,356.8,298.9,356.8z"/>

<polyline class="dptoCentralFlecha" points="297.8,375.4 348.6,316.5 428.1,316.6 "/>





<path class="dptotxtt" d="M492.3,305.6v-17.5h4.8v17.5H492.3z M483.3,302.6c0.4,0,0.7-0.1,1-0.2c0.3-0.1,0.5-0.3,0.6-0.5
	c0.2-0.2,0.2-0.5,0.2-0.8v-1h-0.6c-0.9,0-1.6,0.1-2.1,0.3c-0.4,0.2-0.7,0.5-0.7,1c0,0.4,0.1,0.6,0.4,0.8
	C482.5,302.5,482.8,302.6,483.3,302.6z M481.4,305.8c-1.2,0-2.1-0.3-2.8-1c-0.7-0.7-1-1.6-1-2.8c0-1.4,0.5-2.4,1.6-3.2
	c1.1-0.8,2.6-1.1,4.6-1.1h1.3c0-0.4,0-0.7-0.1-0.9c-0.1-0.2-0.2-0.3-0.4-0.4c-0.2-0.1-0.5-0.1-0.9-0.1c-0.8,0-1.6,0.1-2.6,0.2
	c-0.9,0.2-1.8,0.4-2.6,0.6l-0.5-3.4c0.9-0.3,1.8-0.5,2.9-0.7c1.1-0.2,2.2-0.2,3.3-0.2c1.3,0,2.4,0.2,3.2,0.5
	c0.8,0.3,1.4,0.8,1.7,1.5c0.4,0.7,0.5,1.6,0.5,2.8v7.9h-4.5l0-1.4h0c-0.5,0.5-1,0.9-1.7,1.2C482.9,305.7,482.2,305.8,481.4,305.8z
	 M467,305.6v-12.5h4.5l0,2.2h0c0.5-0.5,1-1,1.5-1.3c0.6-0.4,1.1-0.6,1.8-0.8c0.6-0.2,1.3-0.3,1.9-0.3v3.8c-0.9,0-1.8,0.2-2.6,0.5
	c-0.8,0.3-1.4,0.8-1.8,1.3c-0.5,0.5-0.7,1.1-0.7,1.8v5.3H467z M461.1,305.8c-1.6,0-2.8-0.3-3.6-0.9c-0.7-0.6-1.1-1.7-1.1-3.1v-5.3
	h-2.3v-3.4h2.3v-4.1h4.7v4.1h3.5v3.4h-3.5v4.3c0,0.6,0.1,0.9,0.2,1.1c0.1,0.2,0.4,0.3,0.8,0.3c0.3,0,0.6,0,1-0.1
	c0.4-0.1,0.7-0.2,1.1-0.3l0.4,3.5c-0.6,0.2-1.2,0.3-1.8,0.4C462.3,305.8,461.7,305.8,461.1,305.8z M440.2,305.6v-12.5h4.5l0,1.4h0
	c0.6-0.6,1.1-1,1.8-1.3c0.6-0.3,1.4-0.4,2.2-0.4c1.5,0,2.5,0.4,3.2,1.2c0.7,0.8,1,2.1,1,3.8v7.7h-4.7v-6.7c0-0.8-0.1-1.3-0.3-1.7
	c-0.2-0.3-0.6-0.5-1.1-0.5c-0.4,0-0.7,0.1-1,0.2c-0.3,0.1-0.5,0.3-0.7,0.6c-0.2,0.2-0.2,0.5-0.2,0.9v7.2H440.2z M433,305.8
	c-2.4,0-4.2-0.6-5.5-1.7c-1.3-1.1-1.9-2.7-1.9-4.8c0-2,0.6-3.6,1.7-4.7c1.1-1.1,2.7-1.7,4.7-1.7c2,0,3.5,0.5,4.6,1.6
	s1.6,2.6,1.6,4.6c0,0.3,0,0.6,0,1c0,0.4,0,0.6-0.1,0.7h-10v-2.8h6.3l-0.6,0.8c0-1-0.1-1.8-0.4-2.3c-0.3-0.5-0.8-0.7-1.4-0.7
	c-0.6,0-1.1,0.2-1.4,0.7c-0.3,0.5-0.5,1.2-0.5,2.3v1.4c0,0.8,0.2,1.3,0.6,1.7c0.4,0.3,1.1,0.5,2,0.5c0.7,0,1.4-0.1,2.2-0.2
	c0.8-0.1,1.5-0.3,2-0.5l0.5,3.4c-0.6,0.2-1.2,0.4-2.1,0.5C434.7,305.8,433.9,305.8,433,305.8z M418.9,305.8c-2,0-3.7-0.3-5.1-1
	c-1.4-0.7-2.5-1.7-3.2-3.1c-0.7-1.3-1.1-3-1.1-4.9c0-1.9,0.4-3.6,1.1-4.9c0.7-1.3,1.8-2.3,3.2-3c1.4-0.7,3.1-1,5.1-1
	c2.3,0,4.2,0.4,6,1.3l-1,4.1c-1.7-0.9-3.3-1.3-4.7-1.3c-1,0-1.8,0.2-2.5,0.6c-0.7,0.4-1.2,0.9-1.6,1.7c-0.4,0.7-0.5,1.6-0.5,2.7
	c0,1,0.2,1.9,0.5,2.7c0.4,0.7,0.9,1.3,1.6,1.7c0.7,0.4,1.5,0.6,2.5,0.6c1.5,0,3-0.4,4.7-1.3l1,4.1
	C423.1,305.4,421.1,305.8,418.9,305.8z M396.2,305.6v-4.8h4.8v4.8H396.2z M387.7,302.5c0.7,0,1.2-0.3,1.5-0.8
	c0.3-0.5,0.5-1.3,0.5-2.4c0-1.1-0.2-1.9-0.5-2.4c-0.3-0.5-0.8-0.7-1.5-0.7c-0.7,0-1.2,0.2-1.5,0.7c-0.3,0.5-0.5,1.3-0.5,2.4
	c0,1.1,0.2,1.9,0.5,2.4C386.5,302.2,387,302.5,387.7,302.5z M387.7,305.8c-2.2,0-3.8-0.6-5-1.7c-1.2-1.1-1.7-2.7-1.7-4.8
	s0.6-3.7,1.7-4.8c1.1-1.1,2.8-1.7,5-1.7c2.2,0,3.9,0.6,5,1.7c1.1,1.1,1.7,2.7,1.7,4.8s-0.6,3.7-1.7,4.8
	C391.6,305.3,389.9,305.8,387.7,305.8z M376,305.8c-1.6,0-2.8-0.3-3.6-0.9s-1.1-1.7-1.1-3.1v-5.3H369v-3.4h2.3v-4.1h4.7v4.1h3.5v3.4
	h-3.5v4.3c0,0.6,0.1,0.9,0.2,1.1s0.4,0.3,0.8,0.3c0.3,0,0.6,0,1-0.1c0.4-0.1,0.7-0.2,1.1-0.3l0.4,3.5c-0.6,0.2-1.2,0.3-1.8,0.4
	C377.2,305.8,376.6,305.8,376,305.8z M361.4,296.5c-0.4,0-0.8,0.1-1.1,0.2c-0.3,0.2-0.5,0.4-0.7,0.7c-0.2,0.3-0.3,0.6-0.3,1v1.9
	c0,0.4,0.1,0.7,0.3,1c0.2,0.3,0.4,0.5,0.7,0.7c0.3,0.2,0.7,0.2,1.1,0.2c0.7,0,1.2-0.2,1.6-0.7c0.4-0.5,0.5-1.2,0.5-2.1
	c0-0.9-0.2-1.7-0.5-2.1C362.6,296.7,362.1,296.5,361.4,296.5z M363.1,292.9c1.6,0,2.8,0.6,3.7,1.7c0.9,1.1,1.3,2.7,1.3,4.8
	c0,2.1-0.4,3.7-1.3,4.8c-0.9,1.1-2.1,1.7-3.7,1.7c-0.7,0-1.4-0.1-2-0.4c-0.6-0.3-1.1-0.7-1.7-1.3h0v6.5h-4.7v-17.5h4.5l0,1.4h0
	c0.6-0.6,1.2-1,1.8-1.3C361.6,293,362.3,292.9,363.1,292.9z M344.1,301.8c0.9,0,1.7-0.1,2.2-0.4c0.5-0.3,0.9-0.8,1.1-1.5
	c0.2-0.7,0.3-1.7,0.3-3c0-1.3-0.1-2.2-0.3-3c-0.2-0.7-0.6-1.2-1.1-1.5c-0.5-0.3-1.3-0.4-2.2-0.4h-1.5v9.8H344.1z M337.8,305.6v-17.5
	h6c3.1,0,5.4,0.7,6.8,2.1c1.4,1.4,2.1,3.6,2.1,6.7c0,3.1-0.7,5.3-2.1,6.7c-1.4,1.4-3.7,2.1-6.8,2.1H337.8z"/>
<path class="recuadroColor" d="M403.5,325.3h85.1c4.7,0,8.6,3.8,8.6,8.6v27c0,4.7-3.8,8.6-8.6,8.6h-85.1c-4.7,0-8.6-3.8-8.6-8.6v-27
	C394.9,329.2,398.8,325.3,403.5,325.3z"/>
<path class="recuadroLine" d="M403.5,325.3h85.1c4.7,0,8.6,3.8,8.6,8.6v27c0,4.7-3.8,8.6-8.6,8.6h-85.1c-4.7,0-8.6-3.8-8.6-8.6v-27
	C394.9,329.2,398.8,325.3,403.5,325.3z"/>
<path class="lambareTxt" d="M477.3,353.9h-2l1.4-3.7h2.6L477.3,353.9z M476.9,363.5c-1.5,0-2.7-0.4-3.5-1.2c-0.8-0.8-1.2-1.9-1.2-3.3
	c0-1.4,0.4-2.5,1.1-3.3c0.8-0.8,1.8-1.2,3.1-1.2c1.3,0,2.3,0.4,3,1.1c0.7,0.8,1,1.8,1,3.2c0,0.2,0,0.3,0,0.5c0,0.2,0,0.3,0,0.4h-7.1
	v-1.5h5.5l-0.3,0.5c0-0.9-0.2-1.6-0.5-2c-0.3-0.4-0.9-0.7-1.6-0.7c-0.7,0-1.3,0.2-1.7,0.7c-0.4,0.5-0.6,1.1-0.6,2v0.6
	c0,0.8,0.2,1.5,0.7,1.9c0.4,0.4,1.1,0.6,2,0.6c0.5,0,1,0,1.5-0.1c0.5-0.1,1-0.2,1.4-0.4l0.2,1.6c-0.4,0.2-0.9,0.3-1.4,0.4
	C477.9,363.5,477.4,363.5,476.9,363.5z M465.9,363.4v-8.7h2l0,1.6h0c0.3-0.4,0.6-0.7,1-1c0.4-0.3,0.8-0.5,1.3-0.6
	c0.5-0.1,1-0.2,1.5-0.2v1.8c-0.7,0-1.3,0.1-1.9,0.4c-0.6,0.3-1,0.6-1.4,1.1c-0.3,0.4-0.5,1-0.5,1.5v4.1H465.9z M459.4,361.9
	c0.4,0,0.8-0.1,1.1-0.2c0.3-0.1,0.6-0.4,0.8-0.6c0.2-0.3,0.3-0.5,0.3-0.9v-1.1h-0.9c-1,0-1.7,0.1-2.2,0.4c-0.5,0.2-0.7,0.6-0.7,1.1
	c0,0.4,0.1,0.7,0.4,0.9C458.5,361.8,458.9,361.9,459.4,361.9z M458.6,363.5c-0.9,0-1.5-0.2-2-0.7c-0.5-0.5-0.7-1.1-0.7-1.9
	c0-1,0.4-1.8,1.2-2.3c0.8-0.5,1.9-0.8,3.4-0.8h1.2c0-0.4-0.1-0.7-0.2-1c-0.1-0.2-0.3-0.4-0.5-0.5c-0.3-0.1-0.6-0.1-1.1-0.1
	c-0.6,0-1.1,0.1-1.7,0.2c-0.6,0.1-1.2,0.3-1.7,0.5l-0.3-1.6c0.6-0.2,1.2-0.4,1.9-0.5c0.7-0.1,1.4-0.2,2.1-0.2c0.9,0,1.6,0.1,2.1,0.3
	c0.5,0.2,0.9,0.6,1.1,1.1c0.2,0.5,0.3,1.2,0.3,2v5.5h-2l0-1h0c-0.3,0.3-0.7,0.6-1.3,0.8C459.8,363.4,459.2,363.5,458.6,363.5z
	 M450.5,361.9c0.7,0,1.3-0.2,1.6-0.7c0.4-0.5,0.6-1.2,0.6-2.1c0-0.9-0.2-1.6-0.6-2.1c-0.4-0.5-0.9-0.7-1.6-0.7
	c-0.4,0-0.8,0.1-1.2,0.3c-0.3,0.2-0.6,0.4-0.8,0.7c-0.2,0.3-0.3,0.7-0.3,1.1v1.6c0,0.4,0.1,0.7,0.3,1c0.2,0.3,0.5,0.6,0.8,0.7
	C449.6,361.8,450,361.9,450.5,361.9z M451,363.5c-0.6,0-1.1-0.1-1.6-0.3c-0.5-0.2-0.9-0.5-1.2-0.9h0l0,1h-1.9v-12.2h2.1v4.5h0
	c0.3-0.4,0.7-0.7,1.2-0.9c0.5-0.2,1-0.3,1.6-0.3c1.2,0,2.1,0.4,2.7,1.2c0.6,0.8,1,1.9,1,3.3s-0.3,2.5-1,3.3
	C453,363.1,452.1,363.5,451,363.5z M431.7,363.4v-8.7h1.9l0,1h0c0.3-0.4,0.7-0.7,1.1-0.9c0.4-0.2,0.9-0.3,1.5-0.3
	c0.6,0,1,0.1,1.4,0.3c0.4,0.2,0.7,0.5,0.8,0.9h0c0.3-0.4,0.7-0.7,1.2-0.9c0.4-0.2,0.9-0.3,1.5-0.3c0.9,0,1.6,0.2,2,0.7
	c0.4,0.5,0.6,1.3,0.6,2.3v5.8h-2v-5.3c0-0.7-0.1-1.1-0.3-1.4c-0.2-0.3-0.5-0.5-1-0.5c-0.6,0-1,0.2-1.3,0.6c-0.3,0.4-0.5,0.9-0.5,1.5
	v5.1h-2v-5.4c0-0.6-0.1-1-0.3-1.3c-0.2-0.3-0.6-0.4-1-0.4c-0.3,0-0.6,0.1-0.9,0.3c-0.3,0.2-0.5,0.4-0.6,0.7c-0.2,0.3-0.2,0.6-0.2,1
	v5.1H431.7z M425.2,361.9c0.4,0,0.8-0.1,1.1-0.2c0.3-0.1,0.6-0.4,0.8-0.6c0.2-0.3,0.3-0.5,0.3-0.9v-1.1h-0.9c-1,0-1.7,0.1-2.2,0.4
	c-0.5,0.2-0.7,0.6-0.7,1.1c0,0.4,0.1,0.7,0.4,0.9C424.3,361.8,424.7,361.9,425.2,361.9z M424.5,363.5c-0.9,0-1.5-0.2-2-0.7
	c-0.5-0.5-0.7-1.1-0.7-1.9c0-1,0.4-1.8,1.2-2.3c0.8-0.5,1.9-0.8,3.4-0.8h1.2c0-0.4-0.1-0.7-0.2-1c-0.1-0.2-0.3-0.4-0.5-0.5
	c-0.3-0.1-0.6-0.1-1.1-0.1c-0.6,0-1.1,0.1-1.7,0.2c-0.6,0.1-1.2,0.3-1.7,0.5l-0.3-1.6c0.6-0.2,1.2-0.4,1.9-0.5
	c0.7-0.1,1.4-0.2,2.1-0.2c0.9,0,1.6,0.1,2.1,0.3c0.5,0.2,0.9,0.6,1.1,1.1c0.2,0.5,0.3,1.2,0.3,2v5.5h-2l0-1h0
	c-0.3,0.3-0.7,0.6-1.3,0.8C425.6,363.4,425,363.5,424.5,363.5z M412.3,363.4v-12.2h2.1v10.3h6.5v1.9H412.3z M482.4,343.8
	c-1.5,0-2.7-0.4-3.5-1.2c-0.8-0.8-1.2-1.9-1.2-3.3c0-1.4,0.4-2.5,1.1-3.3c0.8-0.8,1.8-1.2,3.1-1.2c1.3,0,2.3,0.4,3,1.1
	c0.7,0.8,1.1,1.8,1.1,3.2c0,0.2,0,0.3,0,0.5c0,0.2,0,0.3,0,0.4h-7.1v-1.5h5.5L484,339c0-0.9-0.2-1.6-0.5-2c-0.3-0.4-0.9-0.7-1.6-0.7
	c-0.7,0-1.3,0.2-1.7,0.7c-0.4,0.5-0.6,1.1-0.6,2v0.6c0,0.8,0.2,1.5,0.7,1.9c0.4,0.4,1.1,0.6,2,0.6c0.5,0,1,0,1.5-0.1
	c0.5-0.1,1-0.2,1.4-0.4l0.2,1.6c-0.4,0.2-0.9,0.3-1.4,0.4C483.5,343.7,483,343.8,482.4,343.8z M471.5,342.1c0.4,0,0.8-0.1,1.2-0.3
	c0.3-0.2,0.6-0.4,0.8-0.7c0.2-0.3,0.3-0.7,0.3-1.1v-1.6c0-0.4-0.1-0.8-0.3-1.1c-0.2-0.3-0.5-0.5-0.8-0.7c-0.3-0.2-0.7-0.3-1.2-0.3
	c-0.7,0-1.2,0.2-1.6,0.7c-0.4,0.5-0.6,1.2-0.6,2.1c0,0.9,0.2,1.6,0.6,2.1C470.3,341.9,470.8,342.1,471.5,342.1z M471,343.8
	c-1.2,0-2.1-0.4-2.7-1.2c-0.6-0.8-1-1.9-1-3.3s0.3-2.5,1-3.3c0.6-0.8,1.5-1.2,2.7-1.2c0.6,0,1.1,0.1,1.6,0.3
	c0.5,0.2,0.9,0.5,1.2,0.9h0v-4.5h2v12.2h-1.9l0-1h0c-0.3,0.4-0.7,0.7-1.2,0.9C472.1,343.7,471.6,343.8,471,343.8z M456.6,342.1
	c0.4,0,0.8-0.1,1.2-0.3c0.3-0.2,0.6-0.4,0.8-0.7c0.2-0.3,0.3-0.7,0.3-1.1v-1.6c0-0.4-0.1-0.8-0.3-1.1c-0.2-0.3-0.5-0.5-0.8-0.7
	c-0.3-0.2-0.7-0.3-1.2-0.3c-0.7,0-1.2,0.2-1.6,0.7c-0.4,0.5-0.6,1.2-0.6,2.1c0,0.9,0.2,1.6,0.6,2.1
	C455.3,341.9,455.9,342.1,456.6,342.1z M456.1,343.8c-1.2,0-2.1-0.4-2.7-1.2c-0.6-0.8-1-1.9-1-3.3s0.3-2.5,1-3.3
	c0.6-0.8,1.5-1.2,2.7-1.2c0.6,0,1.1,0.1,1.6,0.3c0.5,0.2,0.9,0.5,1.2,0.9h0v-4.5h2v12.2H459l0-1h0c-0.3,0.4-0.7,0.7-1.2,0.9
	C457.2,343.7,456.6,343.8,456.1,343.8z M446.5,342.2c0.4,0,0.8-0.1,1.1-0.2c0.3-0.1,0.6-0.4,0.8-0.6c0.2-0.3,0.3-0.5,0.3-0.9v-1.1
	h-0.9c-1,0-1.7,0.1-2.2,0.4c-0.5,0.2-0.7,0.6-0.7,1.1c0,0.4,0.1,0.7,0.4,0.9C445.6,342.1,446,342.2,446.5,342.2z M445.8,343.8
	c-0.9,0-1.5-0.2-2-0.7c-0.5-0.5-0.7-1.1-0.7-1.9c0-1,0.4-1.8,1.2-2.3c0.8-0.5,1.9-0.8,3.4-0.8h1.2c0-0.4-0.1-0.7-0.2-1
	c-0.1-0.2-0.3-0.4-0.5-0.5c-0.3-0.1-0.6-0.1-1.1-0.1c-0.6,0-1.1,0.1-1.7,0.2c-0.6,0.1-1.2,0.3-1.7,0.5l-0.3-1.6
	c0.6-0.2,1.2-0.4,1.9-0.5c0.7-0.1,1.4-0.2,2.1-0.2c0.9,0,1.6,0.1,2.1,0.3c0.5,0.2,0.9,0.6,1.1,1.1c0.2,0.5,0.3,1.2,0.3,2v5.5h-2l0-1
	h0c-0.3,0.3-0.7,0.6-1.3,0.8C446.9,343.7,446.3,343.8,445.8,343.8z M437,342.1c0.4,0,0.8-0.1,1.2-0.3c0.3-0.2,0.6-0.4,0.8-0.7
	c0.2-0.3,0.3-0.7,0.3-1.1v-1.6c0-0.4-0.1-0.8-0.3-1.1c-0.2-0.3-0.5-0.5-0.8-0.7c-0.3-0.2-0.7-0.3-1.2-0.3c-0.7,0-1.2,0.2-1.6,0.7
	c-0.4,0.5-0.6,1.2-0.6,2.1c0,0.9,0.2,1.6,0.6,2.1C435.7,341.9,436.3,342.1,437,342.1z M436.4,343.8c-1.2,0-2.1-0.4-2.7-1.2
	c-0.6-0.8-1-1.9-1-3.3s0.3-2.5,1-3.3c0.6-0.8,1.5-1.2,2.7-1.2c0.6,0,1.1,0.1,1.6,0.3c0.5,0.2,0.9,0.5,1.2,0.9h0v-4.5h2v12.2h-1.9
	l0-1h0c-0.3,0.4-0.7,0.7-1.2,0.9C437.6,343.7,437,343.8,436.4,343.8z M426.1,343.8c-1,0-1.8-0.3-2.3-0.9c-0.5-0.6-0.7-1.4-0.7-2.6
	v-5.3h2v5c0,0.8,0.1,1.3,0.4,1.7c0.2,0.4,0.7,0.5,1.2,0.5c0.4,0,0.8-0.1,1.1-0.3c0.3-0.2,0.6-0.4,0.8-0.7c0.2-0.3,0.3-0.6,0.3-1
	v-5.1h2.1v8.7h-2l0-1h0c-0.3,0.4-0.7,0.7-1.2,0.9C427.3,343.7,426.7,343.8,426.1,343.8z M418.7,343.6V335h2.1v8.6H418.7z
	 M418.7,333.4v-2h2.1v2H418.7z M412.4,343.8c-1.3,0-2.5-0.3-3.4-0.8c-1-0.5-1.7-1.2-2.2-2.1c-0.5-0.9-0.8-2.1-0.8-3.4
	c0-1.3,0.3-2.4,0.8-3.4c0.5-0.9,1.2-1.6,2.2-2.1c1-0.5,2.1-0.8,3.4-0.8c1.5,0,2.9,0.3,4,1l-0.5,1.8c-1.1-0.6-2.3-1-3.5-1
	c-0.9,0-1.6,0.2-2.3,0.5c-0.6,0.3-1.1,0.9-1.5,1.5c-0.3,0.7-0.5,1.4-0.5,2.4c0,0.9,0.2,1.7,0.5,2.4c0.3,0.7,0.8,1.2,1.5,1.5
	c0.6,0.4,1.4,0.5,2.3,0.5c1.1,0,2.3-0.3,3.5-1l0.5,1.8C415.2,343.4,413.9,343.8,412.4,343.8z"/>








</svg>
