<?xml version="1.0" encoding="utf-8"?>
<!-- Generator: Adobe Illustrator 24.0.2, SVG Export Plug-In . SVG Version: 6.00 Build 0)  -->
<svg version="1.1" id="Capa_1" xmlns="http://www.w3.org/2000/svg" xmlns:xlink="http://www.w3.org/1999/xlink" x="0px" y="0px"
	 viewBox="0 0 160 170" style="enable-background:new 0 0 160 170;" xml:space="preserve">
<style type="text/css">
	.st0{fill-rule:evenodd;clip-rule:evenodd;fill:#0D71B7;}
	.st1{fill:#FFFFFF;}
</style>
<path class="st0" d="M8.9,105.1h142.2c1.4,0,2.6,1.1,2.6,2.6v54.8c0,1.4-1.1,2.6-2.6,2.6H8.9c-1.4,0-2.6-1.2-2.6-2.6v-54.8
	C6.4,106.2,7.5,105.1,8.9,105.1"/>
<path class="st1" d="M101,149.7v-7.8h2l0,0.9h0c0.3-0.4,0.7-0.6,1.1-0.8c0.4-0.2,0.9-0.3,1.5-0.3c0.9,0,1.6,0.3,2.1,0.8
	c0.4,0.5,0.7,1.3,0.7,2.4v4.8h-2v-4.4c0-0.6-0.1-1.1-0.3-1.4c-0.2-0.3-0.6-0.4-1-0.4c-0.4,0-0.7,0.1-1,0.2c-0.3,0.1-0.5,0.3-0.7,0.6
	c-0.2,0.2-0.2,0.5-0.2,0.9v4.6H101z M96.5,141.2h-1.9l1.2-3.3h2.5L96.5,141.2z M95.5,148.3c0.6,0,1.1-0.2,1.4-0.6
	c0.3-0.4,0.5-1,0.5-1.8c0-0.8-0.2-1.4-0.5-1.8c-0.3-0.4-0.8-0.6-1.4-0.6c-0.6,0-1.1,0.2-1.4,0.6c-0.3,0.4-0.5,1-0.5,1.8
	c0,0.8,0.2,1.4,0.5,1.8C94.4,148.1,94.9,148.3,95.5,148.3z M95.5,149.9c-1.3,0-2.3-0.3-3-1c-0.7-0.7-1-1.7-1-3c0-1.3,0.3-2.3,1-3
	c0.7-0.7,1.7-1,3-1c1.3,0,2.3,0.3,2.9,1c0.7,0.7,1,1.7,1,3c0,1.3-0.3,2.3-1,3C97.8,149.5,96.8,149.9,95.5,149.9z M87.7,149.7V142
	h2.1v7.7H87.7z M87.7,140.7v-1.9h2.1v1.9H87.7z M83.3,149.9c-0.9,0-1.7-0.2-2.3-0.5c-0.6-0.3-1.1-0.8-1.5-1.4
	c-0.3-0.6-0.5-1.3-0.5-2.2c0-0.9,0.2-1.6,0.5-2.2c0.3-0.6,0.8-1.1,1.5-1.4c0.6-0.3,1.4-0.5,2.3-0.5c0.5,0,0.9,0,1.3,0.1
	c0.4,0.1,0.8,0.2,1.2,0.4l-0.3,1.6c-0.3-0.2-0.7-0.3-1-0.4c-0.3-0.1-0.6-0.1-1-0.1c-0.8,0-1.3,0.2-1.8,0.6c-0.4,0.4-0.6,1-0.6,1.8
	c0,0.8,0.2,1.4,0.6,1.8c0.4,0.4,1,0.6,1.8,0.6c0.3,0,0.6,0,1-0.1c0.3-0.1,0.7-0.2,1-0.4l0.3,1.6c-0.4,0.2-0.8,0.3-1.2,0.4
	C84.2,149.8,83.8,149.9,83.3,149.9z M73.7,148.3c0.3,0,0.7-0.1,0.9-0.2c0.3-0.1,0.5-0.3,0.7-0.5c0.2-0.2,0.2-0.5,0.2-0.7V146h-0.7
	c-0.8,0-1.4,0.1-1.8,0.3c-0.4,0.2-0.6,0.5-0.6,0.9c0,0.3,0.1,0.6,0.3,0.7C73,148.2,73.3,148.3,73.7,148.3z M73,149.9
	c-0.8,0-1.4-0.2-1.8-0.6c-0.4-0.4-0.7-1-0.7-1.7c0-0.9,0.4-1.6,1.1-2.1c0.7-0.5,1.7-0.7,3-0.7h1c0-0.3,0-0.6-0.1-0.8
	c-0.1-0.2-0.2-0.3-0.4-0.4c-0.2-0.1-0.5-0.1-0.9-0.1c-0.5,0-1,0.1-1.6,0.2c-0.5,0.1-1,0.3-1.5,0.4l-0.3-1.6c0.5-0.2,1.1-0.3,1.7-0.4
	c0.6-0.1,1.3-0.2,1.9-0.2c0.8,0,1.4,0.1,1.9,0.3c0.5,0.2,0.8,0.5,1,0.9c0.2,0.4,0.3,1,0.3,1.8v4.9h-2l0-0.9h0
	c-0.3,0.3-0.7,0.6-1.2,0.8C74,149.8,73.5,149.9,73,149.9z M64.5,149.7v-7.8h2l0,1.5h0c0.3-0.3,0.6-0.6,0.9-0.9
	c0.4-0.2,0.7-0.4,1.2-0.5c0.4-0.1,0.9-0.2,1.3-0.2v1.7c-0.6,0-1.2,0.1-1.7,0.3c-0.5,0.2-0.9,0.5-1.2,0.9c-0.3,0.4-0.4,0.8-0.4,1.3
	v3.6H64.5z M57.2,148c0.7,0,1.4-0.1,1.9-0.4c0.5-0.3,0.9-0.7,1.2-1.3c0.3-0.6,0.4-1.2,0.4-2c0-0.8-0.1-1.5-0.4-2
	c-0.3-0.6-0.7-1-1.2-1.3c-0.5-0.3-1.1-0.4-1.9-0.4c-0.7,0-1.4,0.1-1.9,0.4c-0.5,0.3-0.9,0.7-1.2,1.3c-0.3,0.6-0.4,1.2-0.4,2
	c0,0.8,0.1,1.5,0.4,2c0.3,0.6,0.7,1,1.2,1.3C55.9,147.9,56.5,148,57.2,148z M57.2,149.9c-1.1,0-2.1-0.2-3-0.7
	c-0.8-0.5-1.5-1.1-2-1.9c-0.5-0.8-0.7-1.8-0.7-3c0-1.2,0.2-2.2,0.7-3c0.5-0.8,1.1-1.5,2-1.9c0.8-0.5,1.8-0.7,3-0.7
	c1.2,0,2.2,0.2,3,0.7c0.8,0.5,1.5,1.1,1.9,1.9c0.5,0.8,0.7,1.8,0.7,3c0,1.1-0.2,2.1-0.7,3c-0.5,0.8-1.1,1.5-1.9,1.9
	C59.4,149.6,58.4,149.9,57.2,149.9z M104.9,131.7c-1.4,0-2.5-0.3-3.2-1c-0.8-0.7-1.1-1.7-1.1-3c0-1.3,0.3-2.2,1-3
	c0.7-0.7,1.6-1.1,2.8-1.1c1.2,0,2.1,0.3,2.7,1c0.6,0.7,0.9,1.6,0.9,2.9c0,0.1,0,0.3,0,0.5c0,0.2,0,0.3,0,0.4h-6.3V127h4.7l-0.3,0.4
	c0-0.8-0.1-1.4-0.4-1.7c-0.3-0.4-0.7-0.6-1.3-0.6c-0.6,0-1.1,0.2-1.4,0.6c-0.3,0.4-0.5,1-0.5,1.8v0.6c0,0.7,0.2,1.2,0.6,1.5
	c0.4,0.3,0.9,0.5,1.7,0.5c0.4,0,0.9,0,1.4-0.1c0.5-0.1,0.9-0.2,1.3-0.3l0.2,1.6c-0.4,0.1-0.8,0.3-1.3,0.4
	C105.9,131.6,105.4,131.7,104.9,131.7z M95.1,130c0.4,0,0.7-0.1,1-0.2c0.3-0.1,0.5-0.4,0.7-0.6c0.2-0.3,0.2-0.5,0.2-0.9v-1.4
	c0-0.3-0.1-0.6-0.2-0.9c-0.2-0.3-0.4-0.5-0.7-0.6c-0.3-0.1-0.6-0.2-1-0.2c-0.6,0-1,0.2-1.4,0.6c-0.3,0.4-0.5,1-0.5,1.8
	c0,0.8,0.2,1.4,0.5,1.8C94,129.8,94.5,130,95.1,130z M94.5,131.7c-1,0-1.8-0.4-2.4-1.1c-0.6-0.7-0.9-1.7-0.9-3c0-1.3,0.3-2.3,0.9-3
	c0.6-0.7,1.4-1.1,2.4-1.1c0.5,0,1,0.1,1.4,0.3c0.4,0.2,0.8,0.4,1.1,0.8h0v-4.1h2v10.9h-1.9l0-0.9h0c-0.3,0.3-0.7,0.6-1.1,0.8
	C95.5,131.6,95,131.7,94.5,131.7z M81.9,130.1c0.3,0,0.7-0.1,0.9-0.2c0.3-0.1,0.5-0.3,0.7-0.5c0.2-0.2,0.2-0.5,0.2-0.7v-0.9H83
	c-0.8,0-1.4,0.1-1.8,0.3c-0.4,0.2-0.6,0.5-0.6,0.9c0,0.3,0.1,0.6,0.3,0.7C81.2,130,81.5,130.1,81.9,130.1z M81.1,131.7
	c-0.8,0-1.4-0.2-1.8-0.6c-0.4-0.4-0.7-1-0.7-1.7c0-0.9,0.4-1.6,1.1-2.1c0.7-0.5,1.7-0.7,3-0.7h1c0-0.3,0-0.6-0.1-0.8
	c-0.1-0.2-0.2-0.3-0.4-0.4c-0.2-0.1-0.5-0.1-0.9-0.1c-0.5,0-1,0.1-1.6,0.2c-0.5,0.1-1,0.3-1.5,0.4l-0.3-1.6c0.5-0.2,1.1-0.3,1.7-0.4
	c0.6-0.1,1.3-0.2,1.9-0.2c0.8,0,1.4,0.1,1.9,0.3c0.5,0.2,0.8,0.5,1,0.9c0.2,0.4,0.3,1,0.3,1.8v4.9h-2l0-0.9h0
	c-0.3,0.3-0.7,0.6-1.2,0.8C82.1,131.6,81.6,131.7,81.1,131.7z M74.3,131.7c-0.3,0-0.7,0-1.1-0.1c-0.4,0-0.8-0.1-1.1-0.2
	c-0.4-0.1-0.7-0.2-0.9-0.3l0.3-1.6c0.5,0.2,0.9,0.3,1.4,0.4c0.4,0.1,0.9,0.1,1.3,0.1c0.5,0,0.9-0.1,1.1-0.2c0.2-0.1,0.3-0.3,0.3-0.6
	c0-0.2,0-0.3-0.1-0.4c-0.1-0.1-0.2-0.2-0.4-0.3c-0.2-0.1-0.5-0.2-0.9-0.2c-0.6-0.2-1.2-0.3-1.6-0.6c-0.5-0.2-0.8-0.5-1-0.8
	c-0.2-0.3-0.4-0.7-0.4-1.2c0-0.7,0.3-1.3,0.8-1.7c0.6-0.4,1.4-0.6,2.4-0.6c0.5,0,1,0,1.5,0.1c0.5,0.1,1,0.2,1.5,0.3l-0.3,1.6
	c-0.4-0.1-0.9-0.3-1.3-0.3c-0.4-0.1-0.8-0.1-1.2-0.1c-0.5,0-0.9,0.1-1.1,0.2c-0.2,0.1-0.4,0.3-0.4,0.5c0,0.1,0,0.3,0.1,0.4
	c0.1,0.1,0.2,0.2,0.4,0.3c0.2,0.1,0.5,0.2,0.8,0.2c0.5,0.1,0.9,0.2,1.3,0.4c0.4,0.1,0.7,0.3,1,0.5c0.3,0.2,0.5,0.4,0.6,0.7
	c0.1,0.3,0.2,0.6,0.2,0.9c0,0.5-0.1,0.9-0.4,1.2c-0.3,0.4-0.6,0.6-1.1,0.8C75.6,131.6,75,131.7,74.3,131.7z M65.8,130.1
	c0.3,0,0.7-0.1,0.9-0.2c0.3-0.1,0.5-0.3,0.7-0.5c0.2-0.2,0.2-0.5,0.2-0.7v-0.9h-0.7c-0.8,0-1.4,0.1-1.8,0.3
	c-0.4,0.2-0.6,0.5-0.6,0.9c0,0.3,0.1,0.6,0.3,0.7C65.1,130,65.4,130.1,65.8,130.1z M65.1,131.7c-0.8,0-1.4-0.2-1.8-0.6
	c-0.4-0.4-0.7-1-0.7-1.7c0-0.9,0.4-1.6,1.1-2.1c0.7-0.5,1.7-0.7,3-0.7h1c0-0.3,0-0.6-0.1-0.8c-0.1-0.2-0.2-0.3-0.4-0.4
	c-0.2-0.1-0.5-0.1-0.9-0.1c-0.5,0-1,0.1-1.6,0.2c-0.5,0.1-1,0.3-1.5,0.4l-0.3-1.6c0.5-0.2,1.1-0.3,1.7-0.4c0.6-0.1,1.3-0.2,1.9-0.2
	c0.8,0,1.4,0.1,1.9,0.3c0.5,0.2,0.8,0.5,1,0.9c0.2,0.4,0.3,1,0.3,1.8v4.9h-2l0-0.9h0c-0.3,0.3-0.7,0.6-1.2,0.8
	C66.1,131.6,65.6,131.7,65.1,131.7z M58,131.7c-1.2,0-2.2-0.2-3.1-0.7c-0.9-0.4-1.5-1.1-2-1.9c-0.5-0.8-0.7-1.8-0.7-3
	c0-1.2,0.2-2.2,0.7-3c0.5-0.8,1.1-1.5,2-1.9c0.9-0.4,1.9-0.7,3.1-0.7c1.4,0,2.6,0.3,3.6,0.9l-0.5,1.8c-1-0.6-2-0.9-3.1-0.9
	c-0.8,0-1.4,0.1-2,0.4c-0.5,0.3-1,0.7-1.3,1.3c-0.3,0.6-0.4,1.2-0.4,2c0,0.8,0.1,1.5,0.4,2c0.3,0.6,0.7,1,1.3,1.3
	c0.5,0.3,1.2,0.4,2,0.4c1,0,2-0.3,3.1-0.9l0.5,1.8C60.5,131.4,59.3,131.7,58,131.7z"/>
<path class="st0" d="M35.5,95.3h18.8L59,77.4l1-34.2c0.2-6.6-7.7-5-10.6,9.8c-0.3,1.6-0.3,3.9-2.3,3.3c-1.7-0.5-1.1-2.4-0.8-3.6
	c4.3-15.7,11.5-19,14.9-12.2c4.2-6,14.4-22.5,15.7-29.7c0.9-5.1-1.7-9-8.5-1.6C58.2,19.5,49.4,30,42.6,40.3
	c-6.2,9.6-4.6,8.4-4.3,19.5C38.6,72.3,37.9,84.2,35.5,95.3"/>
<path class="st0" d="M124.5,95.3h-18.8L101,77.4l-1-34.2c-0.2-6.6,7.7-5,10.6,9.8c0.3,1.6,0.3,3.9,2.3,3.3c1.7-0.5,1.1-2.4,0.8-3.6
	c-4.3-15.7-11.5-19-14.9-12.2c-4.2-6-14.4-22.5-15.7-29.7c-0.9-5.1,1.7-9,8.5-1.6c10.2,10.5,19.1,20.9,25.8,31.3
	c6.2,9.6,4.6,8.4,4.3,19.5C121.4,72.3,122.1,84.2,124.5,95.3"/>
<path class="st0" d="M101.2,95.3H60.6c-6.3-6.5,5.8-12,12.7-16.1l3.5-8.1c-8-3-11-8.3-11.9-14.7c0.2-7.6,2.5-10.1,4.6,1.2
	c1.3,2.7,3.5,4.7,6.4,6.1c3.5-1.6,4.7-4.2,4.3-7.5l0,0c-3.6-0.3-6.4-3.3-6.4-6.9c0-3.8,3.1-6.9,6.9-6.9c3.8,0,6.9,3.1,6.9,6.9
	c0,1.7-0.6,3.3-1.7,4.5c6.2,9.4,5.8,19.9-1.5,33.1c3.8,1.3,8.8,3.7,13.1,4.8C101.4,92.8,101.2,91.2,101.2,95.3"/>
</svg>
