<?xml version="1.0" encoding="utf-8"?>
<!-- Generator: Adobe Illustrator 24.0.2, SVG Export Plug-In . SVG Version: 6.00 Build 0)  -->
<svg version="1.1" id="Capa_1" xmlns="http://www.w3.org/2000/svg" xmlns:xlink="http://www.w3.org/1999/xlink" x="0px" y="0px"
	 viewBox="0 0 160 170" style="enable-background:new 0 0 160 170;" xml:space="preserve">
<style type="text/css">
	.st0{fill-rule:evenodd;clip-rule:evenodd;fill:#877E6A;}
	.st1{fill:#FFFFFF;}
	.st2{fill:#877E6A;}
	.st3{fill:none;stroke:#63635B;stroke-width:1.1248;stroke-miterlimit:22.9256;}
	.st4{fill:#DBC060;}
	.st5{fill:#231F20;}
</style>
<path class="st0" d="M8.8,105h142.4c1.4,0,2.6,1.2,2.6,2.6v54.9c0,1.4-1.2,2.6-2.6,2.6H8.8c-1.4,0-2.6-1.2-2.6-2.6v-54.9
	C6.3,106.2,7.4,105,8.8,105"/>
<path class="st1" d="M124.7,148.7v-10.9h2.1v10.9H124.7z M118.8,147.3c0.3,0,0.7-0.1,0.9-0.2c0.3-0.1,0.5-0.3,0.7-0.5
	c0.2-0.2,0.2-0.5,0.2-0.7V145h-0.7c-0.8,0-1.4,0.1-1.8,0.3c-0.4,0.2-0.6,0.5-0.6,1c0,0.3,0.1,0.6,0.3,0.7
	C118.1,147.2,118.4,147.3,118.8,147.3z M118.1,148.8c-0.8,0-1.4-0.2-1.8-0.6c-0.4-0.4-0.7-1-0.7-1.7c0-0.9,0.4-1.6,1.1-2.1
	c0.7-0.5,1.7-0.7,3-0.7h1c0-0.3,0-0.6-0.1-0.8c-0.1-0.2-0.2-0.3-0.4-0.4c-0.2-0.1-0.5-0.1-0.9-0.1c-0.5,0-1,0.1-1.6,0.2
	c-0.5,0.1-1,0.3-1.5,0.4l-0.3-1.6c0.5-0.2,1.1-0.3,1.7-0.4c0.6-0.1,1.3-0.2,1.9-0.2c0.8,0,1.4,0.1,1.9,0.3c0.5,0.2,0.8,0.5,1,1
	c0.2,0.4,0.3,1,0.3,1.8v4.9h-2l0-0.9h0c-0.3,0.3-0.7,0.6-1.2,0.8C119.1,148.7,118.6,148.8,118.1,148.8z M109.6,148.7v-7.8h2l0,1.5h0
	c0.3-0.3,0.6-0.6,0.9-0.9c0.4-0.2,0.7-0.4,1.2-0.5c0.4-0.1,0.9-0.2,1.3-0.2v1.8c-0.6,0-1.2,0.1-1.7,0.3c-0.5,0.2-0.9,0.5-1.2,0.9
	c-0.3,0.4-0.4,0.8-0.4,1.3v3.6H109.6z M103,148.8c-0.9,0-1.6-0.3-2-0.8c-0.4-0.5-0.6-1.3-0.6-2.4v-4.8h2.1v4.4
	c0,0.6,0.1,1.1,0.3,1.4c0.2,0.3,0.5,0.4,1,0.4c0.3,0,0.7-0.1,0.9-0.2c0.3-0.1,0.5-0.3,0.6-0.6c0.1-0.2,0.2-0.5,0.2-0.9v-4.6h2.1v7.8
	h-2l0-0.9h0c-0.3,0.4-0.7,0.6-1.1,0.8C104,148.7,103.5,148.8,103,148.8z M96.8,148.8c-0.9,0-1.6-0.2-2-0.6c-0.4-0.4-0.6-1-0.6-1.9
	v-3.9h-1.7v-1.6h1.7v-2.5h2.1v2.5h2.5v1.6h-2.5v3.4c0,0.5,0.1,0.8,0.2,1c0.1,0.2,0.4,0.3,0.8,0.3c0.2,0,0.4,0,0.7-0.1
	c0.2,0,0.5-0.1,0.7-0.2l0.2,1.6c-0.3,0.1-0.7,0.2-1,0.2C97.5,148.8,97.1,148.8,96.8,148.8z M87.7,147.3c0.3,0,0.7-0.1,0.9-0.2
	c0.3-0.1,0.5-0.3,0.7-0.5c0.2-0.2,0.2-0.5,0.2-0.7V145h-0.7c-0.8,0-1.4,0.1-1.8,0.3c-0.4,0.2-0.6,0.5-0.6,1c0,0.3,0.1,0.6,0.3,0.7
	C87,147.2,87.3,147.3,87.7,147.3z M87,148.8c-0.8,0-1.4-0.2-1.8-0.6c-0.4-0.4-0.7-1-0.7-1.7c0-0.9,0.4-1.6,1.1-2.1
	c0.7-0.5,1.7-0.7,3-0.7h1c0-0.3,0-0.6-0.1-0.8c-0.1-0.2-0.2-0.3-0.4-0.4c-0.2-0.1-0.5-0.1-0.9-0.1c-0.5,0-1,0.1-1.6,0.2
	c-0.5,0.1-1,0.3-1.5,0.4l-0.3-1.6c0.5-0.2,1.1-0.3,1.7-0.4c0.6-0.1,1.3-0.2,1.9-0.2c0.8,0,1.4,0.1,1.9,0.3c0.5,0.2,0.8,0.5,1,1
	c0.2,0.4,0.3,1,0.3,1.8v4.9h-2l0-0.9h0c-0.3,0.3-0.7,0.6-1.2,0.8C88,148.7,87.5,148.8,87,148.8z M75.9,148.7v-7.8h2l0,0.9h0
	c0.3-0.4,0.7-0.6,1.1-0.8c0.4-0.2,0.9-0.3,1.5-0.3c0.9,0,1.6,0.3,2.1,0.8c0.4,0.5,0.7,1.3,0.7,2.4v4.8h-2.1v-4.4
	c0-0.6-0.1-1.1-0.3-1.4c-0.2-0.3-0.6-0.4-1-0.4c-0.4,0-0.7,0.1-1,0.2c-0.3,0.1-0.5,0.3-0.7,0.6c-0.2,0.2-0.2,0.5-0.2,0.9v4.6H75.9z
	 M71.2,148.8c-1.4,0-2.5-0.3-3.2-1c-0.8-0.7-1.1-1.7-1.1-3c0-1.3,0.3-2.2,1-3c0.7-0.7,1.6-1.1,2.8-1.1c1.2,0,2.1,0.3,2.7,1
	c0.6,0.7,1,1.6,1,2.9c0,0.1,0,0.3,0,0.5c0,0.2,0,0.3,0,0.4H68v-1.4h4.7l-0.3,0.4c0-0.8-0.1-1.4-0.4-1.7c-0.3-0.4-0.7-0.6-1.3-0.6
	c-0.6,0-1.1,0.2-1.4,0.6c-0.3,0.4-0.5,1-0.5,1.8v0.6c0,0.7,0.2,1.2,0.6,1.5c0.4,0.3,0.9,0.5,1.7,0.5c0.4,0,0.9,0,1.4-0.1
	c0.5-0.1,0.9-0.2,1.3-0.3l0.2,1.6c-0.4,0.1-0.8,0.3-1.3,0.4C72.2,148.8,71.7,148.8,71.2,148.8z M61,148.7v-7.8h2l0,1.5h0
	c0.3-0.3,0.6-0.6,0.9-0.9c0.4-0.2,0.7-0.4,1.2-0.5c0.4-0.1,0.9-0.2,1.3-0.2v1.8c-0.6,0-1.2,0.1-1.7,0.3c-0.5,0.2-0.9,0.5-1.2,0.9
	c-0.3,0.4-0.4,0.8-0.4,1.3v3.6H61z M55.6,147.2c0.6,0,1.1-0.2,1.4-0.6c0.3-0.4,0.5-1,0.5-1.8c0-0.8-0.2-1.4-0.5-1.8
	c-0.3-0.4-0.8-0.6-1.4-0.6c-0.3,0-0.7,0.1-1,0.2c-0.3,0.1-0.5,0.4-0.7,0.6c-0.2,0.3-0.2,0.5-0.2,0.9v1.4c0,0.3,0.1,0.6,0.2,0.9
	c0.2,0.3,0.4,0.5,0.7,0.6C54.9,147.1,55.2,147.2,55.6,147.2z M56.2,148.8c-0.5,0-1-0.1-1.4-0.3c-0.4-0.2-0.8-0.4-1.1-0.8h0l0,0.9h-2
	v-10.9h2.1v4.1h0c0.3-0.4,0.7-0.6,1.1-0.8c0.4-0.2,0.9-0.3,1.4-0.3c1,0,1.8,0.4,2.4,1.1c0.6,0.7,0.9,1.7,0.9,3c0,1.3-0.3,2.3-0.9,3
	C58,148.5,57.2,148.8,56.2,148.8z M46.1,147.2c0.6,0,1.1-0.2,1.4-0.6c0.3-0.4,0.5-1,0.5-1.8c0-0.8-0.2-1.4-0.5-1.8
	c-0.3-0.4-0.8-0.6-1.4-0.6c-0.6,0-1.1,0.2-1.4,0.6c-0.3,0.4-0.5,1-0.5,1.8c0,0.8,0.2,1.4,0.5,1.8C45,147,45.5,147.2,46.1,147.2z
	 M46.1,148.8c-1.3,0-2.3-0.3-3-1c-0.7-0.7-1-1.7-1-3c0-1.3,0.3-2.3,1-3c0.7-0.7,1.7-1,3-1c1.3,0,2.3,0.3,2.9,1c0.7,0.7,1,1.7,1,3
	c0,1.3-0.3,2.3-1,3C48.4,148.5,47.4,148.8,46.1,148.8z M36.6,148.8c-0.7,0-1.5-0.1-2.2-0.2c-0.7-0.2-1.3-0.4-1.8-0.6l0.5-1.8
	c0.3,0.2,0.7,0.3,1.1,0.5c0.4,0.1,0.8,0.2,1.3,0.3c0.4,0.1,0.8,0.1,1.2,0.1c0.7,0,1.2-0.1,1.5-0.3c0.3-0.2,0.5-0.6,0.5-1
	c0-0.2-0.1-0.4-0.2-0.6c-0.1-0.2-0.3-0.3-0.5-0.4c-0.2-0.1-0.5-0.2-0.8-0.4c-0.3-0.1-0.7-0.2-1.2-0.3c-0.5-0.1-1-0.3-1.4-0.5
	c-0.4-0.2-0.8-0.4-1.1-0.7c-0.3-0.3-0.5-0.6-0.7-0.9c-0.2-0.3-0.2-0.7-0.2-1.2c0-1,0.4-1.7,1.1-2.3c0.7-0.5,1.8-0.8,3.2-0.8
	c0.7,0,1.4,0.1,2,0.2c0.7,0.1,1.3,0.3,1.7,0.5l-0.5,1.8c-0.5-0.2-1-0.4-1.6-0.5c-0.6-0.1-1.2-0.2-1.7-0.2c-0.7,0-1.2,0.1-1.5,0.3
	c-0.3,0.2-0.5,0.5-0.5,0.9c0,0.2,0,0.4,0.2,0.6c0.1,0.2,0.3,0.3,0.5,0.4c0.2,0.1,0.5,0.2,0.8,0.3c0.3,0.1,0.7,0.2,1.1,0.4
	c0.6,0.2,1.1,0.3,1.5,0.5c0.4,0.2,0.8,0.4,1.1,0.7c0.3,0.3,0.5,0.6,0.7,0.9c0.2,0.3,0.2,0.7,0.2,1.2c0,1-0.4,1.8-1.1,2.3
	C39.1,148.5,38,148.8,36.6,148.8z M137.7,129c0.6,0,1.1-0.2,1.4-0.6c0.3-0.4,0.5-1,0.5-1.8c0-0.8-0.2-1.4-0.5-1.8
	c-0.3-0.4-0.8-0.6-1.4-0.6c-0.6,0-1.1,0.2-1.4,0.6c-0.3,0.4-0.5,1-0.5,1.8c0,0.8,0.2,1.4,0.5,1.8C136.6,128.8,137,129,137.7,129z
	 M137.7,130.6c-1.3,0-2.3-0.3-3-1c-0.7-0.7-1-1.7-1-3c0-1.3,0.3-2.3,1-3c0.7-0.7,1.7-1,3-1s2.3,0.3,2.9,1c0.7,0.7,1,1.7,1,3
	c0,1.3-0.3,2.3-1,3C139.9,130.2,138.9,130.6,137.7,130.6z M129.9,130.4v-10.9h2.1v10.9H129.9z M121,130.6c-1.4,0-2.5-0.3-3.2-1
	c-0.8-0.7-1.1-1.7-1.1-3c0-1.3,0.3-2.2,1-3c0.7-0.7,1.6-1.1,2.8-1.1c1.2,0,2.1,0.3,2.7,1c0.6,0.7,1,1.6,1,2.9c0,0.1,0,0.3,0,0.5
	c0,0.2,0,0.3,0,0.4h-6.3v-1.4h4.7l-0.3,0.4c0-0.8-0.1-1.4-0.4-1.7c-0.3-0.4-0.7-0.6-1.3-0.6c-0.6,0-1.1,0.2-1.4,0.6
	c-0.3,0.4-0.5,1-0.5,1.8v0.6c0,0.7,0.2,1.2,0.6,1.5c0.4,0.3,0.9,0.5,1.7,0.5c0.4,0,0.9,0,1.4-0.1c0.5-0.1,0.9-0.2,1.3-0.3l0.2,1.6
	c-0.4,0.2-0.8,0.3-1.3,0.4C122,130.5,121.5,130.6,121,130.6z M111.1,128.9c0.4,0,0.7-0.1,1-0.2c0.3-0.2,0.5-0.4,0.7-0.6
	c0.2-0.3,0.2-0.5,0.2-0.9v-1.4c0-0.3-0.1-0.6-0.2-0.9c-0.2-0.3-0.4-0.5-0.7-0.6c-0.3-0.2-0.6-0.2-1-0.2c-0.6,0-1,0.2-1.4,0.6
	c-0.3,0.4-0.5,1-0.5,1.8c0,0.8,0.2,1.4,0.5,1.8C110.1,128.7,110.5,128.9,111.1,128.9z M110.5,130.6c-1,0-1.8-0.4-2.4-1.1
	c-0.6-0.7-0.9-1.7-0.9-3c0-1.3,0.3-2.3,0.9-3c0.6-0.7,1.4-1.1,2.4-1.1c0.5,0,1,0.1,1.4,0.3c0.4,0.2,0.8,0.4,1.1,0.8h0v-4.1h2.1v10.9
	h-1.9l0-0.9h0c-0.3,0.3-0.7,0.6-1.1,0.8C111.5,130.5,111,130.6,110.5,130.6z M94.5,130.4v-7.8h2l0,0.9h0c0.3-0.4,0.7-0.6,1.1-0.8
	c0.4-0.2,0.9-0.3,1.5-0.3c0.9,0,1.6,0.3,2.1,0.8c0.4,0.5,0.7,1.3,0.7,2.4v4.8h-2.1v-4.4c0-0.6-0.1-1.1-0.3-1.4
	c-0.2-0.3-0.6-0.4-1-0.4c-0.4,0-0.7,0.1-1,0.2c-0.3,0.1-0.5,0.3-0.7,0.6c-0.2,0.2-0.2,0.5-0.2,0.9v4.6H94.5z M89.9,121.9H88l1.2-3.3
	h2.5L89.9,121.9z M88.9,129c0.6,0,1.1-0.2,1.4-0.6c0.3-0.4,0.5-1,0.5-1.8c0-0.8-0.2-1.4-0.5-1.8c-0.3-0.4-0.8-0.6-1.4-0.6
	c-0.6,0-1.1,0.2-1.4,0.6c-0.3,0.4-0.5,1-0.5,1.8c0,0.8,0.2,1.4,0.5,1.8C87.8,128.8,88.3,129,88.9,129z M88.9,130.6
	c-1.3,0-2.3-0.3-3-1c-0.7-0.7-1-1.7-1-3c0-1.3,0.3-2.3,1-3c0.7-0.7,1.7-1,3-1s2.3,0.3,2.9,1c0.7,0.7,1,1.7,1,3c0,1.3-0.3,2.3-1,3
	C91.2,130.2,90.2,130.6,88.9,130.6z M81.2,130.4v-7.7h2.1v7.7H81.2z M81.2,121.4v-1.9h2.1v1.9H81.2z M76.7,130.6
	c-0.9,0-1.7-0.2-2.3-0.5c-0.6-0.3-1.1-0.8-1.5-1.4c-0.3-0.6-0.5-1.3-0.5-2.2c0-0.9,0.2-1.6,0.5-2.2c0.3-0.6,0.8-1.1,1.5-1.4
	c0.6-0.3,1.4-0.5,2.3-0.5c0.5,0,0.9,0,1.3,0.1c0.4,0.1,0.8,0.2,1.2,0.4l-0.3,1.6c-0.3-0.2-0.7-0.3-1-0.4c-0.3-0.1-0.6-0.1-1-0.1
	c-0.8,0-1.3,0.2-1.8,0.6c-0.4,0.4-0.6,1-0.6,1.8c0,0.8,0.2,1.4,0.6,1.8c0.4,0.4,1,0.6,1.8,0.6c0.3,0,0.6,0,1-0.1
	c0.3-0.1,0.7-0.2,1-0.4l0.3,1.6c-0.4,0.2-0.8,0.3-1.2,0.4C77.6,130.5,77.2,130.6,76.7,130.6z M68.6,130.4v-7.7h2.1v7.7H68.6z
	 M68.6,121.4v-1.9h2.1v1.9H68.6z M64.8,130.6c-0.9,0-1.6-0.2-2-0.6c-0.4-0.4-0.6-1-0.6-1.9v-3.9h-1.7v-1.6h1.7v-2.5h2.1v2.5h2.5v1.6
	h-2.5v3.4c0,0.5,0.1,0.8,0.2,1c0.2,0.2,0.4,0.3,0.8,0.3c0.2,0,0.4,0,0.7-0.1c0.2,0,0.5-0.1,0.7-0.2l0.2,1.6c-0.3,0.1-0.7,0.2-1,0.2
	C65.5,130.6,65.2,130.6,64.8,130.6z M54.3,130.4v-7.8h2l0,1.5h0c0.3-0.3,0.6-0.6,0.9-0.9c0.4-0.2,0.7-0.4,1.2-0.5
	c0.4-0.1,0.9-0.2,1.3-0.2v1.8c-0.6,0-1.2,0.1-1.7,0.3c-0.5,0.2-0.9,0.5-1.2,0.9c-0.3,0.4-0.4,0.8-0.4,1.3v3.6H54.3z M48.5,129
	c0.3,0,0.7-0.1,0.9-0.2c0.3-0.1,0.5-0.3,0.7-0.5c0.2-0.2,0.2-0.5,0.2-0.7v-0.9h-0.7c-0.8,0-1.4,0.1-1.8,0.3c-0.4,0.2-0.6,0.5-0.6,1
	c0,0.3,0.1,0.6,0.3,0.7S48.1,129,48.5,129z M47.8,130.6c-0.8,0-1.4-0.2-1.8-0.6c-0.4-0.4-0.7-1-0.7-1.7c0-0.9,0.4-1.6,1.1-2.1
	c0.7-0.5,1.7-0.7,3-0.7h1c0-0.3,0-0.6-0.1-0.8c-0.1-0.2-0.2-0.3-0.4-0.4c-0.2-0.1-0.5-0.1-0.9-0.1c-0.5,0-1,0.1-1.6,0.2
	c-0.5,0.1-1,0.3-1.5,0.4l-0.3-1.6c0.5-0.2,1.1-0.3,1.7-0.4c0.6-0.1,1.3-0.2,1.9-0.2c0.8,0,1.4,0.1,1.9,0.3c0.5,0.2,0.8,0.5,1,1
	c0.2,0.4,0.3,1,0.3,1.8v4.9h-2l0-0.9h0c-0.3,0.3-0.7,0.6-1.2,0.8C48.8,130.5,48.3,130.6,47.8,130.6z M40.4,124.2
	c-0.3,0-0.7,0.1-1,0.2c-0.3,0.2-0.5,0.4-0.7,0.6c-0.2,0.3-0.2,0.5-0.2,0.9v1.4c0,0.3,0.1,0.6,0.2,0.9c0.2,0.3,0.4,0.5,0.7,0.6
	c0.3,0.1,0.6,0.2,1,0.2c0.6,0,1.1-0.2,1.4-0.6c0.3-0.4,0.5-1,0.5-1.8c0-0.8-0.2-1.4-0.5-1.8C41.5,124.4,41,124.2,40.4,124.2z
	 M41,122.5c1,0,1.8,0.4,2.4,1.1c0.6,0.7,0.9,1.7,0.9,3c0,1.3-0.3,2.3-0.9,3c-0.6,0.7-1.4,1.1-2.4,1.1c-0.5,0-1-0.1-1.4-0.3
	s-0.8-0.4-1.1-0.8h0v4.1h-2.1v-10.9h2l0,0.9h0c0.3-0.4,0.7-0.6,1.1-0.8C40,122.6,40.5,122.5,41,122.5z M23.5,130.4v-7.8h1.9l0,0.9h0
	c0.3-0.3,0.6-0.6,1-0.8c0.4-0.2,0.8-0.3,1.3-0.3c0.5,0,0.9,0.1,1.3,0.3c0.3,0.2,0.6,0.4,0.7,0.8h0c0.3-0.4,0.7-0.6,1-0.8
	c0.4-0.2,0.8-0.3,1.4-0.3c0.8,0,1.4,0.2,1.8,0.7c0.4,0.4,0.6,1.1,0.6,2.1v5.2h-2v-4.7c0-0.5-0.1-0.9-0.3-1.2
	c-0.2-0.2-0.4-0.4-0.8-0.4c-0.4,0-0.8,0.2-1.1,0.5c-0.3,0.3-0.4,0.7-0.4,1.2v4.6h-2v-4.8c0-0.5-0.1-0.8-0.3-1.1
	c-0.2-0.2-0.5-0.4-0.8-0.4c-0.3,0-0.5,0.1-0.7,0.2c-0.2,0.1-0.4,0.3-0.5,0.6c-0.1,0.3-0.2,0.5-0.2,0.9v4.6H23.5z M19,130.4v-10.9
	h2.2v10.9H19z"/>
<path class="st2" d="M35.1,34.2c0,0,0-0.1,0.1-0.1c0-0.1,0.1-0.1,0.1-0.2c0-0.1,0.1-0.1,0.1-0.2c0.1-0.1,0.2-0.2,0.2-0.3
	c0-0.1,0-0.1,0.1-0.2c0,0,0,0,0,0.1l0,0c0,0,0-0.1-0.1-0.1c-0.1-0.1-0.1-0.3-0.3-0.5c-0.1-0.1-0.1-0.3-0.2-0.4
	c-0.2-0.6-0.4-1.3-0.4-1.9c-0.1-0.7-0.2-1.4-0.2-1.9c0-0.2,0-0.4-0.1-0.7c0-0.4,0-0.7,0-0.7l0,0c0,0,0,0,0,0
	c0.1,0.2,0.8,1.4,1.1,1.7c0.3,0.3,0.8,0.8,1.1,1.1c0,0,0,0,0-0.1l0,0c0,0,0,0,0.1-0.1c0-0.1,0.1-0.1,0.2-0.1c0.1,0,0.2,0,0.2,0
	c-0.1-0.2-0.8-1.9-0.7-3.4c0-0.3,0.1-0.5,0.1-0.7c0.2-0.8,0.5-1,1-1.1c0.2-0.1,0.5-0.1,0.6,0c0,0,0,0,0,0c-0.9-0.9-0.8-2.8-0.3-3.4
	c0.5-0.6,1.1-0.8,1.6-0.5c0,0,0-1.5,0.9-2.4c1-0.9,1.6-2,4.5-2.2c2.8-0.3,3.7,0.9,4.4,2.3c0.1,0.1,0.1,0.3,0.2,0.4l0,0
	c0,0,0,0.1,0,0.1c0.3,1,0.1,1.8-0.1,2.1c-0.1,0.3-0.2,0.5-0.5,0.7c-0.1,0.1-0.2,0.2-0.3,0.3c0,0,0,0-0.1,0.1
	c-0.2,0.2-0.5,0.3-0.8,0.3c-0.2,0-0.3,0.1-0.5,0.1c0,0-0.5,0-1.1-0.3c0,0-0.1,0-0.1-0.1c-0.6-0.3-1.1-1.2-1.2-1.5l0,0
	c0,0,0-0.1-0.1-0.2c0,0-0.2-0.7-0.9-0.6c-0.7,0.2-1,0.3-1.2,0.9c-0.2,0.5-0.5,1.6-0.5,1.6l-0.1,0.2c0,0,0.5-0.4,0.8-0.3c0,0,0,0,0,0
	l0,0c0,0.1,0,0.1,0.1,0.2c0,0.1,0.1,0.2,0.1,0.3c0.1,0.5,0,0.7-0.1,0.9c-0.1,0.2-0.5,0.2-0.9,0.9c0,0,0,0.1-0.1,0.1
	c0,0.1,0,0.1,0,0.2C41.9,25,42,25.1,42,25.1s0.2-0.7,0.6-1c0.4-0.3,0.7-0.3,0.7-0.3s0.3,0.1,0.7,0.8c0.4,0.8,0.5,1,0.6,1.9
	c0,0,0.3,0.2,0.2,0.7c-0.1,0.4-0.3,0.7-0.5,1.1c0,0,0,0.1-0.1,0.1c-0.3,0.4-0.8,0.9-1,1.2c0,0,0,0,0,0.1c0,0,0,0,0,0.1
	c0,0-0.2,0.7-0.1,1.9c0.1,0.4,0.2,0.8,0.3,1.2c0.3,0.8,0.6,1.6,0.9,2.3c0.2,0.1,1.2,0.7,2,1.5c0.9,1,2.4,3.2,3,4.4
	c1.2,2.1,2.1,4.8,2.6,6.8c-0.1-1.1-0.2-2.2-0.2-2.7c0-1.3,0.2-2.9,1-5.7c0.8-2.8,2.5-5.4,3.5-6.6c1-1.2,2-3,2-3s0,0,0,0.1
	c0,0,0,0,0,0c0.1,0.6,0.1,1.1,0.2,1.5c0,0.3,0,0.6,0,0.9c-0.1,0.7-0.2,1-0.2,1s0.1,0.1,0.1,0.5c0,0.4-0.4,0.8-0.4,0.8
	c0.1,0.2,0.2,1,0.2,1.3c-0.1,0.3-0.6,0.8-0.8,1c0,0-0.1,0-0.1,0.1c0,0,0.1,0,0.2-0.1c0.4-0.2,0.6-0.2,0.8,0.1c0.1,0,0.1,0.1,0.1,0.1
	c0.4,0.7-0.2,1.9-0.2,1.9c0,0.1,0,0.2,0,0.3c0.1,0.9-0.2,1.5-0.4,1.8c0,0-0.1,0.1-0.1,0.1c-0.1,0.2-0.2,0.3-0.2,0.3
	c-0.4,0.7-1,0.8-1.4,0.9c-0.3,0.1-0.8-0.3-0.9-0.5c-0.1-0.2,0.3-0.6,0.3-0.6s-0.3,0.1-1,0.7c-0.3,0.3-0.5,0.9-0.6,1.6
	c0.5,0.3,1,0.6,1.5,0.9c0.9,0.5,2.8,1.6,3.7,3.1c0,0,0.1,0.1,0.1,0.1c0.1,0.2,1.2,2.4,0.4,4.1c-0.5,1.2-1.2,2.1-1.9,2.5
	c-0.1,0-0.1,0.1-0.2,0.1c0,0-0.1,0-0.1,0c-0.2,0.1-0.4,0.1-0.6,0.2c-0.5,0-0.9-0.1-1.1-0.4c-0.1-0.1-0.1-0.2-0.1-0.2c0,0,0,0,0,0
	c-0.1-0.2-0.2-0.4-0.2-0.7c-0.2,0.2-0.3,0.5-0.4,0.7c-0.1,0.4-0.2,0.9-0.3,1.5c-0.1,1,0,2.9,0,2.9s0-0.2-0.1-0.5c0,0.2,0,0.3,0,0.5
	c0-0.3,0-0.5-0.1-0.8c0,0,0,0,0-0.1c0.1,2.1,0.1,3.9,0.1,4.3c0,0.5-0.1,1.5-0.2,2.8c0.2-0.5,0.5-1,0.9-1.3c2.1-2.1,5.9-3.6,5.9-3.6
	c0.3,0.9-0.1,1.3-0.6,1.8c-0.5,0.5-1.2,2.1-1.6,2.9c-0.4,0.8-1.2,1.3-2.5,2.1c-1.2,0.8-1.8,1.5-2.3,2.3c-0.2,0.4-1.1,1.9-2,3.4
	c-0.3,0.5-0.6,1-0.9,1.5c-0.4,0.7-0.7,1.3-0.7,1.3c0.1-0.2,0.2-0.4,0.4-0.7c-0.2,0.3-0.4,0.6-0.6,0.9c-1,1.4-1.4,1.7-1.6,1.8
	c0,0.1-0.1,0.1-0.1,0.1c0,0,0,0,0-0.1c0,0,0,0,0,0s0.1-0.2,0.3-0.6c0,0,0-0.1,0.1-0.1c0.5-0.9,1.2-2.3,1.9-3.6
	c0.3-0.7,0.6-1.5,0.9-2.5c0.8-2.5,1.4-5.5,1.1-8.9c-0.1-1.1-0.3-2-0.4-2.6c0-0.1,0-0.1-0.1-0.2c-0.2-0.6-0.7-1.5-1.7-1.8
	c0,0-0.2-0.1-0.3-0.1c-0.2-0.1-0.3-0.1-0.4-0.1c-0.2,0-0.6-0.1-0.6-0.1c0,0,0,0,0,0l0,0c0,0,0.1-0.1,0.1-0.2c0,0,0-0.1-0.1-0.1
	c-0.1-0.1-0.3,0-0.4-0.1c0,0,0-0.1-0.1-0.1c-0.1-0.1-0.1-0.1,0-0.3c0-0.1,0.1-0.1,0.1-0.2c0.2-0.1,0.5-0.3,0.5-0.3l0,0
	c0,0-0.2,0-0.4-0.1c-0.2,0-0.5,0-0.8,0.1c-0.2,0.1-0.5,0.2-0.7,0.4c-0.1,0.1-0.3,0.2-0.4,0.4c-0.2,0.2-0.3,0.5-0.5,0.6l0,0
	c-0.1,0.1-0.1,0.2-0.2,0.4c-0.1,0.2-0.2,0.7-0.3,0.8c0,0-0.1,0.1-0.2,0.1c-0.1,0-0.2,0.1-0.3,0.1c-0.3,0.1-0.8,0.2-1.1,0.2
	c-0.6,0.1-1.4,0.2-1.9,0.2c-0.1,0-0.3,0-0.5-0.1c-0.9-0.2-1.9-0.8-2.7-1.8c0,0-0.6-0.5-0.7-1c0-0.1,0-0.2-0.1-0.3
	c-0.1-0.2-0.1-0.4-0.2-0.5c-0.1-0.1-0.3-0.4-0.4-0.8c-0.1-0.2-0.1-0.4,0-0.6c0.1-0.2,0.2-0.3,0.2-0.4c0.2-0.3,0.5-0.5,0.5-0.5
	s-0.1,0-0.2-0.1c-0.1,0-0.1,0-0.2-0.1c-0.8-0.4-1.5-1-1.5-2.2c0-1.2,0.9-1.4,1.4-1.4c0,0-0.3-0.7,0.1-1.1c0.1-0.1,0.1-0.1,0.2-0.2
	c0.3-0.3,0.6-0.3,0.6-0.3s0-0.4,0-0.8c0-0.5,0.2-1.2,0.7-1.6c0.7-0.5,1-0.7,1.2-0.8c0.1-0.1,0.1-0.2,0.1-0.2l0,0h0c0,0,0,0,0,0
	c0,0,0,0,0,0c0,0-0.1,0-0.3,0c-0.2,0-0.5,0-0.9-0.2c-0.8-0.3-1-0.4-1.2-0.7c-0.2-0.1-0.8-0.8-0.8-0.8s-0.3-0.2-0.5-0.4
	c-0.1-0.1-0.2-0.2-0.2-0.3c0,0,0-0.1,0-0.1c-0.1-0.1-0.1-0.2-0.1-0.3c-0.1,0-0.2-0.1-0.2-0.1c-0.1,0-0.1,0-0.2-0.1
	c-0.2-0.1-0.3-0.1-0.4-0.2c-0.1-0.1-0.2-0.3-0.3-0.5c-0.2-0.3-0.5-0.7-0.6-0.9c-0.1-0.1-0.1-0.2-0.2-0.3c-0.1-0.1-0.2-0.3-0.2-0.4
	c0-0.1,0-0.1-0.1-0.3c0-0.1,0-0.1,0-0.1c0-0.1-0.1-0.7-0.2-1.3c0-0.4-0.1-0.7-0.1-0.8c0-0.2,0-0.4,0-0.5c0-0.1,0-0.2,0-0.3
	C35,34.4,35,34.3,35.1,34.2 M42.4,43.1c0,0,0.1,0.1,0.1,0.1c0,0,0,0.1,0.1,0.1c0,0.1,0,0.3-0.1,0.4c-0.2,0.4-0.8,0.8-0.8,0.8
	s-0.1,0.7,0,1c0.1,0.3,0.4,1.4,1.9,1.9c0,0,0.2-0.9,0.3-1.5c0-0.2,0-0.4,0-0.5c-0.1-0.2-0.2-0.2-0.2-0.2s0,0,0.1,0
	c0,0-0.1-0.1-0.1-0.1s0.5,0,1,0.4c0,0,0.1,0,0.1,0l0,0c0,0,0,0,0.1,0c0.5,0,1.5,0,1.8,0.1c0.1,0,0.2,0,0.3,0.1c0.1,0,0.1,0,0.2,0
	c0.2,0,0.3,0.1,0.4,0.2c0.1,0.1,0.2,0.2,0.3,0.3c-0.2-0.3-0.5-0.8-0.9-1.4c0.7,0.9,1.1,1.6,1.3,1.9c0,0,0,0.1,0.1,0.1
	c0.1,0.1,0.2,0.2,0.2,0.3c0.1,0.2,0.4,0.7,0.8,1.3c-0.9-1.6-1.8-3.1-2.6-3.9c0.1,0.1,0.1,0.2,0.2,0.2c-0.1-0.2-0.3-0.3-0.4-0.5
	c-0.8-0.9-1.5-1.6-2.3-2.2c0,0-0.1,0-0.1-0.1c-0.2-0.1-0.4-0.3-0.6-0.4c0,0.2,0,0.3,0,0.4l0,0c0,0.1-0.1,0.3-0.2,0.3
	c-0.1,0.2-0.5,0.3-0.5,0.3s0,0-0.1,0.1c0,0.1-0.1,0.1-0.2,0.1L42.4,43.1C42.5,43.1,42.4,43.1,42.4,43.1L42.4,43.1L42.4,43.1
	L42.4,43.1z M54.3,46.3c0.1-0.1,0.2-0.2,0.2-0.2c0-0.1,0-0.1,0-0.2c0,0-0.1-0.1-0.1-0.1c-0.2-0.1-0.5-0.2-0.7-0.3
	c0,0.5-0.1,1-0.1,1.4c0,0.2,0,0.4,0,0.5c0.1-0.3,0.3-0.6,0.5-0.8C54.2,46.5,54.3,46.4,54.3,46.3z M38.2,31
	C38.2,31.1,38.2,31.1,38.2,31c0,0-0.1-0.3-0.2-0.3c0,0-0.2-0.2-0.4-0.3c0.2,0.1,0.3,0.3,0.4,0.4c0.1,0.2,0.2,0.5,0.2,0.6l0,0
	C38.2,31.4,38.2,31.2,38.2,31z M40.2,32.7c0,0.2,0,0.3,0,0.5c0-0.1,0.1-0.2,0.1-0.4c0-0.1,0-0.2,0-0.3
	C40.2,32.5,40.2,32.6,40.2,32.7z M38.4,31.4L38.4,31.4L38.4,31.4L38.4,31.4z M39.4,31.5C39.4,31.5,39.4,31.5,39.4,31.5
	c0.1,0,0.1,0,0.2,0.1l0,0c0,0,0.1,0,0.1,0C39.6,31.5,39.5,31.5,39.4,31.5C39.4,31.5,39.4,31.5,39.4,31.5z M41.2,36.4
	c0.2,0.4,0.5,0.7,0.7,0.9c0.2,0.2,0.6,0.6,1.1,1.2c-0.4-0.4-0.9-1-1.4-1.6C41.5,36.8,41.3,36.6,41.2,36.4z M43.9,39.6
	c1.1,1.2,2.4,2.6,2.8,3.1c-0.2-0.3-0.5-0.6-0.8-0.9c-0.4-0.5-0.9-0.9-1.3-1.4C44.4,40.1,44.1,39.9,43.9,39.6z M47,43.1
	c0.3,0.4,1,1.5,1.7,2.5C48.2,44.7,47.7,44,47,43.1z M48,49.7C48,49.7,48.1,49.7,48,49.7c0.2,0.2,0.4,0.2,0.6,0.2
	c0.1,0,0.2-0.1,0.3-0.1c0.2-0.3,0.5-1.1-0.8-1.5c-0.1,0-0.2,0-0.3,0c-0.1,0.1-0.2,0.1-0.2,0.2c0,0.1-0.1,0.3-0.1,0.5
	C47.6,49.2,47.8,49.5,48,49.7z M48.2,48.2c0,0-0.1,0-0.1,0C48.1,48.2,48.2,48.2,48.2,48.2L48.2,48.2z M48.6,47.6
	C48.6,47.6,48.6,47.6,48.6,47.6c0,0,0-0.1,0-0.2C48.5,47.5,48.6,47.5,48.6,47.6z M51.1,51.7c0,0,0,0.1,0.1,0.1
	c-0.2-0.3-0.3-0.7-0.5-1C50.8,51.2,51,51.5,51.1,51.7z M43.6,47.5L43.6,47.5z M50.3,48c0.4,0.7,1.3,2.3,1.9,3.7
	C51.9,50.7,51.3,49.4,50.3,48z M52.6,52.2c0,0.1,0,0.3,0.1,0.4c0-0.1,0-0.1,0-0.2C52.6,52.3,52.6,52.3,52.6,52.2z M54.4,53.7
	c0.1-0.8,0.2-2,0.3-2.9c0.1-1.2-0.4-1.2-0.4-1.2s-0.1,0-0.3,0c0.1,0.4,0.2,0.9,0.3,1.5C54.3,51.7,54.4,52.7,54.4,53.7z M53.2,56.7
	c-0.1-0.3-0.3-0.7-0.5-1.3c0,0.1,0.1,0.2,0.1,0.3c0.2,0.4,0.3,0.9,0.4,1.4C53.2,56.9,53.2,56.8,53.2,56.7z"/>
<path class="st2" d="M22,63.5c0,0,0-0.1,0-0.1c0-0.1,0-0.1-0.1-0.2c0-0.1,0-0.1-0.1-0.2c0-0.1-0.1-0.3-0.1-0.4
	c0-0.1-0.1-0.1-0.1-0.2c0,0,0,0,0.1,0l0,0c0,0-0.1,0-0.1,0c-0.1,0-0.3-0.1-0.6-0.2c-0.1,0-0.3-0.1-0.4-0.2c-0.6-0.2-1.2-0.6-1.7-0.9
	c-0.6-0.4-1.1-0.8-1.6-1.1c-0.2-0.1-0.4-0.3-0.5-0.4c-0.3-0.3-0.5-0.4-0.5-0.4l0,0c0,0,0,0,0.1,0c0.3,0.1,1.5,0.3,2,0.4
	c0.4,0,1.1,0,1.6-0.1c0,0,0,0,0,0l0,0c0,0,0,0,0-0.1c0-0.1,0-0.1,0.1-0.2c0-0.1,0.1-0.1,0.1-0.2c-0.2-0.1-1.9-0.7-3-1.8
	c-0.2-0.2-0.3-0.4-0.4-0.5c-0.4-0.7-0.4-1.1-0.2-1.5c0.1-0.2,0.3-0.4,0.4-0.5c0,0,0,0,0,0c-1.2,0.1-2.7-1.3-2.7-2
	c-0.1-0.8,0.1-1.3,0.7-1.5c0,0-1.1-1-1.2-2.3c0-1.3-0.4-2.5,1.4-4.8c1.7-2.3,3.2-2.1,4.6-1.7c0.1,0,0.3,0.1,0.4,0.1l0,0
	c0,0,0.1,0,0.1,0c0.9,0.4,1.3,1.1,1.5,1.5c0.1,0.3,0.2,0.5,0.2,0.9c0,0.1,0,0.3,0,0.4c0,0,0,0.1,0,0.1c0,0.3-0.1,0.6-0.3,0.8
	c-0.1,0.1-0.2,0.3-0.3,0.4c0,0-0.3,0.4-0.9,0.6c0,0-0.1,0-0.1,0.1c-0.6,0.3-1.6,0-1.9-0.2l0,0c0,0-0.1,0-0.2-0.1
	c0,0-0.7-0.3-1.1,0.3c-0.4,0.6-0.4,0.9-0.2,1.5c0.2,0.5,0.8,1.5,0.8,1.5l0.1,0.2c0,0,0-0.7,0.3-0.8c0,0,0,0,0.1,0l0,0
	c0.1,0,0.1,0.1,0.2,0.1c0.1,0,0.2,0.1,0.3,0.2c0.5,0.3,0.5,0.5,0.6,0.7c0.1,0.2-0.2,0.5,0,1.2c0,0,0,0.1,0,0.1c0,0,0.1,0.1,0.1,0.1
	c0.3,0.4,0.4,0.4,0.4,0.4s-0.4-0.6-0.3-1.1c0.1-0.5,0.3-0.7,0.3-0.7s0.3-0.2,1.1,0c0.8,0.2,1.1,0.3,1.8,0.9c0,0,0.4-0.1,0.6,0.3
	c0.2,0.3,0.4,0.7,0.5,1.1c0,0,0,0.1,0,0.1c0.1,0.5,0.1,1.2,0.3,1.5c0,0,0,0,0,0.1c0,0,0,0,0,0.1c0,0,0.4,0.7,1.4,1.3
	c0.3,0.2,0.7,0.4,1.1,0.5c0.8,0.3,1.6,0.6,2.3,0.8c0.3-0.1,1.3-0.5,2.4-0.5c1.3,0,4,0.4,5.3,0.7c2.3,0.5,4.9,1.7,6.8,2.7
	c-0.9-0.6-1.8-1.3-2.2-1.7c-1-0.9-2.1-2.1-3.5-4.6c-1.5-2.5-2.4-5.5-2.5-7c-0.2-1.5-0.9-3.5-0.9-3.5s0,0,0.1,0.1c0,0,0,0,0,0
	c0.5,0.3,0.9,0.6,1.2,0.9c0.2,0.2,0.4,0.4,0.6,0.6c0.5,0.5,0.6,0.9,0.6,0.9s0.1,0,0.4,0.2c0.3,0.3,0.3,0.8,0.3,0.8
	c0.2,0.1,0.9,0.5,1.1,0.8c0.2,0.2,0.2,1,0.1,1.3c0,0,0,0.1,0,0.1c0,0,0-0.1,0.1-0.2c0.2-0.4,0.3-0.6,0.6-0.5c0.1,0,0.1,0,0.2,0
	c0.8,0.2,1.3,1.4,1.3,1.4c0.1,0.1,0.2,0.1,0.2,0.2c0.7,0.6,1,1.1,1.1,1.5c0,0.1,0,0.1,0,0.2c0,0.2,0,0.3,0,0.3
	c0.2,0.8-0.1,1.3-0.3,1.6c-0.2,0.3-0.7,0.3-0.9,0.3c-0.2,0-0.3-0.6-0.3-0.6s-0.1,0.2-0.1,1.2c0,0.4,0.3,0.9,0.8,1.5
	c0.5-0.1,1.2-0.3,1.7-0.5c1-0.3,3.1-1,4.8-0.6c0.1,0,0.1,0,0.1,0c0.2,0,2.5,0.7,3.3,2.5c0.6,1.2,0.7,2.3,0.6,3c0,0.1,0,0.1,0,0.2
	c0,0,0,0.1,0,0.1c-0.1,0.2-0.2,0.4-0.3,0.5c-0.3,0.4-0.7,0.6-1.1,0.6c-0.2,0-0.3,0-0.3,0c0,0,0,0,0.1,0c-0.2-0.1-0.4-0.2-0.6-0.3
	c0,0.3,0.1,0.5,0.3,0.8c0.2,0.4,0.5,0.8,0.9,1.2c0.7,0.7,2.1,1.9,2.1,1.9S53,65.1,52.8,65c0.1,0.1,0.2,0.2,0.4,0.3
	c-0.2-0.2-0.4-0.3-0.6-0.5c0,0,0,0,0,0c1.6,1.4,3,2.6,3.3,2.8c0.4,0.3,1.1,1,1.9,2c-0.2-0.5-0.4-1.1-0.4-1.6
	c-0.1-2.9,1.3-6.8,1.3-6.8c0.9,0.4,0.9,1,0.9,1.7c0.1,0.7,0.7,2.4,1.1,3.1c0.3,0.8,0.2,1.8-0.1,3.2c-0.3,1.4-0.1,2.3,0.2,3.2
	c0.1,0.4,0.7,2.2,1.2,3.8c0.2,0.5,0.4,1.1,0.5,1.7c0.3,0.8,0.4,1.4,0.4,1.4c-0.1-0.2-0.1-0.4-0.3-0.7c0.1,0.3,0.2,0.7,0.3,1
	c0.4,1.7,0.3,2.2,0.3,2.4c0,0.1,0,0.1,0,0.2c0,0,0,0-0.1-0.1c0,0-0.1,0-0.1,0s-0.1-0.3-0.2-0.7c0,0,0-0.1-0.1-0.1
	c-0.3-0.9-0.9-2.5-1.4-3.9c-0.3-0.7-0.7-1.5-1.2-2.4c-1.3-2.2-3.1-4.8-5.8-6.7c-0.9-0.7-1.6-1.1-2.2-1.4c-0.1,0-0.1-0.1-0.2-0.1
	c-0.6-0.2-1.6-0.5-2.5,0c0,0-0.2,0.1-0.3,0.1c-0.2,0.1-0.3,0.2-0.4,0.2c-0.2,0.1-0.4,0.4-0.4,0.4c0,0,0,0,0,0l0,0c0,0,0-0.1-0.1-0.2
	c0,0-0.1,0-0.1,0c-0.2,0-0.2,0.2-0.4,0.2c0,0-0.1,0-0.1,0c-0.1,0-0.2,0-0.2-0.2c0-0.1-0.1-0.1,0-0.2c0-0.2,0.1-0.6,0.1-0.6l0,0
	c0,0-0.1,0.1-0.3,0.2c-0.1,0.2-0.3,0.4-0.5,0.6c-0.1,0.2-0.2,0.5-0.2,0.8c0,0.2,0,0.4,0,0.5c0,0.3,0.1,0.6,0.1,0.8v0
	c0,0.1,0.1,0.3,0.2,0.4c0.1,0.2,0.4,0.6,0.4,0.8c0,0.1,0,0.1-0.1,0.2c0,0.1-0.1,0.2-0.1,0.3c-0.2,0.3-0.4,0.7-0.6,1
	c-0.3,0.6-0.8,1.2-1.2,1.6c-0.1,0.1-0.2,0.2-0.4,0.3c-0.7,0.5-1.9,0.9-3.2,0.8c0,0-0.7,0.1-1.2-0.1c-0.1-0.1-0.2-0.1-0.3-0.2
	c-0.2-0.1-0.3-0.1-0.5-0.2c-0.2,0-0.5,0-0.8-0.2c-0.2-0.1-0.4-0.2-0.5-0.4c-0.1-0.2-0.1-0.3-0.2-0.5c-0.1-0.4,0-0.7,0-0.7
	s-0.1,0-0.2,0.1c-0.1,0-0.1,0.1-0.2,0.1c-0.8,0.4-1.8,0.4-2.6-0.4c-0.9-0.8-0.4-1.6-0.1-2c0,0-0.7-0.3-0.8-0.8c0-0.1,0-0.2,0-0.3
	c0-0.5,0.2-0.7,0.2-0.7s-0.3-0.2-0.6-0.6c-0.4-0.4-0.8-0.9-0.7-1.6c0.1-0.8,0.2-1.2,0.2-1.4c0-0.1-0.1-0.2-0.1-0.2l0,0l0,0
	c0,0,0,0,0,0c0,0,0,0,0,0c0,0,0,0.1-0.2,0.2c-0.1,0.1-0.3,0.3-0.7,0.5c-0.8,0.4-0.9,0.4-1.4,0.4c-0.2,0-1.2,0.1-1.2,0.1
	s-0.3,0.1-0.6,0.1c-0.1,0-0.2,0-0.4,0c0,0-0.1,0-0.1,0c-0.1,0-0.2-0.1-0.3-0.1c-0.1,0-0.2,0.1-0.2,0.1C28,65.9,28,66,27.9,66
	c-0.1,0.1-0.3,0.1-0.4,0.1c-0.1,0-0.3,0-0.6-0.1C26.5,66,26,66,25.8,66c-0.1,0-0.2,0-0.4-0.1c-0.2,0-0.3-0.1-0.5-0.1
	c-0.1,0-0.1-0.1-0.2-0.1c-0.1,0-0.1,0-0.1-0.1c-0.1-0.1-0.6-0.4-1.1-0.8c-0.3-0.2-0.5-0.4-0.6-0.5c-0.2-0.2-0.4-0.3-0.4-0.3
	c-0.1-0.1-0.2-0.1-0.2-0.2C22.1,63.7,22,63.5,22,63.5 M33.5,64.1c0,0,0.1,0,0.2,0c0,0,0.1,0,0.2,0.1c0.1,0.1,0.2,0.2,0.3,0.3
	c0.1,0.4,0.1,1.1,0.1,1.1s0.4,0.5,0.7,0.7c0.3,0.1,1.3,0.6,2.7-0.1c0,0-0.5-0.8-0.9-1.2c-0.1-0.2-0.3-0.3-0.4-0.3
	c-0.2-0.1-0.3,0-0.3,0s0,0,0-0.1c0,0-0.1,0-0.1,0s0.4-0.4,1-0.4c0,0,0-0.1,0.1-0.1l0,0c0,0,0,0,0.1-0.1c0.3-0.4,1-1.1,1.3-1.3
	c0.1-0.1,0.1-0.1,0.2-0.1c0.1,0,0.1-0.1,0.2-0.1c0.2-0.1,0.3-0.2,0.4-0.2c0.1,0,0.3-0.1,0.4-0.1c-0.4-0.1-1-0.1-1.7-0.3
	c1.1,0.1,2,0.3,2.3,0.3c0,0,0.1,0,0.1,0c0.1,0,0.3,0,0.4,0.1c0.2,0,0.8,0.1,1.5,0.3c-1.8-0.4-3.5-0.7-4.6-0.7c0.1,0,0.2,0,0.3,0
	c-0.2,0-0.4,0-0.6,0c-1.2,0-2.2,0-3.1,0.2c0,0-0.1,0-0.1,0c-0.3,0.1-0.5,0.1-0.7,0.2c0.1,0.1,0.2,0.2,0.3,0.3l0,0
	c0.1,0.1,0.1,0.2,0.1,0.4c0.1,0.2-0.1,0.6-0.1,0.6s0,0,0,0.1c0,0.1,0,0.2,0,0.2l0,0C33.6,64,33.6,64,33.5,64.1L33.5,64.1L33.5,64.1
	L33.5,64.1z M43.9,57.3c0-0.1,0-0.2,0-0.3c0-0.1-0.1-0.1-0.1-0.1c0,0-0.1,0-0.2,0c-0.2,0.1-0.5,0.2-0.7,0.4c0.3,0.4,0.7,0.7,0.9,1
	c0.1,0.2,0.3,0.3,0.4,0.4c-0.1-0.3-0.2-0.7-0.3-1C43.9,57.6,43.9,57.4,43.9,57.3z M21.7,59C21.8,59.1,21.8,59.1,21.7,59
	c-0.1,0-0.3-0.1-0.3-0.1c0,0-0.2,0-0.5,0.1c0.2,0,0.4-0.1,0.6,0c0.3,0,0.5,0.2,0.6,0.3l0,0C22,59.2,21.9,59.1,21.7,59z M24.3,58.6
	c0.1,0.1,0.2,0.2,0.3,0.3C24.6,58.9,24.5,58.8,24.3,58.6c0,0-0.1-0.1-0.1-0.1C24.2,58.5,24.3,58.6,24.3,58.6z M22.2,59.2L22.2,59.2
	L22.2,59.2L22.2,59.2z M22.9,58.4C22.9,58.4,22.9,58.4,22.9,58.4c0.1,0,0.1-0.1,0.2-0.1l0,0c0,0,0.1,0,0.1-0.1
	C23.1,58.3,23,58.4,22.9,58.4C22.9,58.5,22.9,58.5,22.9,58.4z M27.8,60.4c0.4,0.1,0.8,0.1,1.1,0.1c0.3,0,0.9,0,1.6,0
	c-0.6,0-1.3,0-2.1-0.1C28.2,60.5,28,60.5,27.8,60.4z M32,60.6c1.7,0,3.5,0,4.2,0c-0.4,0-0.8,0-1.2,0c-0.6,0-1.3,0-1.9,0
	C32.7,60.6,32.3,60.6,32,60.6z M36.6,60.6c0.5,0.1,1.8,0.2,3,0.4C38.6,60.8,37.8,60.7,36.6,60.6z M42.2,64.3
	C42.2,64.3,42.2,64.3,42.2,64.3c0.3-0.1,0.5-0.2,0.6-0.3c0.1-0.1,0.1-0.2,0.1-0.3c-0.1-0.4-0.5-1.1-1.7-0.4c0,0.1-0.1,0.2-0.1,0.2
	c0,0.1,0,0.2,0,0.3c0.1,0.1,0.2,0.2,0.3,0.4C41.6,64.3,41.9,64.3,42.2,64.3z M41.2,63.1c0,0,0,0.1-0.1,0.1
	C41.2,63.3,41.2,63.2,41.2,63.1L41.2,63.1z M41,62.5C41,62.5,41,62.5,41,62.5c0,0-0.1-0.1-0.2-0.1C40.9,62.4,40.9,62.5,41,62.5z
	 M45.8,63.4c0,0,0.1,0,0.1,0c-0.4-0.1-0.7-0.2-1-0.3C45.2,63.2,45.5,63.3,45.8,63.4z M37.6,66.1L37.6,66.1z M42.5,61.5
	c0.8,0.2,2.6,0.5,4,1C45.5,62.1,44.1,61.7,42.5,61.5z M47.1,62.6c0.1,0.1,0.2,0.1,0.3,0.2c-0.1,0-0.1-0.1-0.1-0.1
	C47.2,62.7,47.1,62.6,47.1,62.6z M49.4,62.2c-0.5-0.6-1.3-1.5-2-2.2c-0.9-0.8-1.2-0.5-1.2-0.5s-0.1,0.1-0.2,0.3
	c0.3,0.2,0.8,0.5,1.3,0.8C47.9,61,48.6,61.6,49.4,62.2z M50.9,65.2c-0.3-0.1-0.7-0.3-1.3-0.5c0.1,0,0.2,0.1,0.2,0.1
	c0.4,0.2,0.9,0.4,1.3,0.6C51,65.3,50.9,65.3,50.9,65.2z"/>
<path class="st2" d="M124.9,34.2c0,0,0-0.1-0.1-0.1c0-0.1-0.1-0.1-0.1-0.2c0-0.1-0.1-0.1-0.1-0.2c-0.1-0.1-0.2-0.2-0.2-0.3
	c0-0.1,0-0.1-0.1-0.2c0,0,0,0,0,0.1l0,0c0,0,0-0.1,0.1-0.1c0.1-0.1,0.1-0.3,0.3-0.5c0.1-0.1,0.1-0.3,0.2-0.4
	c0.2-0.6,0.4-1.3,0.4-1.9c0.1-0.7,0.2-1.4,0.2-1.9c0-0.2,0-0.4,0.1-0.7c0-0.4,0-0.7,0-0.7l0,0c0,0,0,0,0,0c-0.1,0.2-0.8,1.4-1.1,1.7
	c-0.3,0.3-0.8,0.8-1.1,1.1c0,0,0,0,0-0.1l0,0c0,0,0,0-0.1-0.1c0-0.1-0.1-0.1-0.2-0.1c-0.1,0-0.2,0-0.2,0c0.1-0.2,0.8-1.9,0.7-3.4
	c0-0.3-0.1-0.5-0.1-0.7c-0.2-0.8-0.5-1-1-1.1c-0.2-0.1-0.5-0.1-0.6,0c0,0,0,0,0,0c0.9-0.9,0.8-2.8,0.3-3.4c-0.5-0.6-1.1-0.8-1.6-0.5
	c0,0,0-1.5-0.9-2.4c-1-0.9-1.6-2-4.5-2.2c-2.8-0.3-3.7,0.9-4.4,2.3c-0.1,0.1-0.1,0.3-0.2,0.4l0,0c0,0,0,0.1,0,0.1
	c-0.3,1-0.1,1.8,0.1,2.1c0.1,0.3,0.2,0.5,0.5,0.7c0.1,0.1,0.2,0.2,0.3,0.3c0,0,0,0,0.1,0.1c0.2,0.2,0.5,0.3,0.8,0.3
	c0.2,0,0.3,0.1,0.5,0.1c0,0,0.5,0,1.1-0.3c0,0,0.1,0,0.1-0.1c0.6-0.3,1.1-1.2,1.2-1.5l0,0c0,0,0-0.1,0.1-0.2c0,0,0.2-0.7,0.9-0.6
	c0.7,0.2,1,0.3,1.2,0.9c0.2,0.5,0.5,1.6,0.5,1.6l0.1,0.2c0,0-0.5-0.4-0.8-0.3c0,0,0,0,0,0l0,0c0,0.1,0,0.1-0.1,0.2
	c0,0.1-0.1,0.2-0.1,0.3c-0.1,0.5,0,0.7,0.1,0.9c0.1,0.2,0.5,0.2,0.9,0.9c0,0,0,0.1,0.1,0.1c0,0.1,0,0.1,0,0.2
	c0.1,0.5,0.1,0.6,0.1,0.6s-0.2-0.7-0.6-1c-0.4-0.3-0.7-0.3-0.7-0.3s-0.3,0.1-0.7,0.8c-0.4,0.8-0.5,1-0.6,1.9c0,0-0.3,0.2-0.2,0.7
	c0.1,0.4,0.3,0.7,0.5,1.1c0,0,0,0.1,0.1,0.1c0.3,0.4,0.8,0.9,1,1.2c0,0,0,0,0,0.1c0,0,0,0,0,0.1c0,0,0.2,0.7,0.1,1.9
	c-0.1,0.4-0.2,0.8-0.3,1.2c-0.3,0.8-0.6,1.6-0.9,2.3c-0.2,0.1-1.2,0.7-2,1.5c-0.9,1-2.4,3.2-3,4.4c-1.2,2.1-2.1,4.8-2.6,6.8
	c0.1-1.1,0.2-2.2,0.2-2.7c0-1.3-0.2-2.9-1-5.7c-0.8-2.8-2.5-5.4-3.5-6.6c-1-1.2-2-3-2-3s0,0,0,0.1c0,0,0,0,0,0
	c-0.1,0.6-0.1,1.1-0.2,1.5c0,0.3,0,0.6,0,0.9c0.1,0.7,0.2,1,0.2,1s-0.1,0.1-0.1,0.5c0,0.4,0.4,0.8,0.4,0.8c-0.1,0.2-0.2,1-0.2,1.3
	c0.1,0.3,0.6,0.8,0.8,1c0,0,0.1,0,0.1,0.1c0,0-0.1,0-0.2-0.1c-0.4-0.2-0.6-0.2-0.8,0.1c-0.1,0-0.1,0.1-0.1,0.1
	c-0.4,0.7,0.2,1.9,0.2,1.9c0,0.1,0,0.2,0,0.3c-0.1,0.9,0.2,1.5,0.4,1.8c0,0,0.1,0.1,0.1,0.1c0.1,0.2,0.2,0.3,0.2,0.3
	c0.4,0.7,1,0.8,1.4,0.9c0.3,0.1,0.8-0.3,0.9-0.5c0.1-0.2-0.3-0.6-0.3-0.6s0.3,0.1,1,0.7c0.3,0.3,0.5,0.9,0.6,1.6
	c-0.5,0.3-1,0.6-1.5,0.9c-0.9,0.5-2.8,1.6-3.7,3.1c0,0-0.1,0.1-0.1,0.1c-0.1,0.2-1.2,2.4-0.4,4.1c0.5,1.2,1.2,2.1,1.9,2.5
	c0.1,0,0.1,0.1,0.2,0.1c0,0,0.1,0,0.1,0c0.2,0.1,0.4,0.1,0.6,0.2c0.5,0,0.9-0.1,1.1-0.4c0.1-0.1,0.1-0.2,0.1-0.2c0,0,0,0,0,0
	c0.1-0.2,0.2-0.4,0.2-0.7c0.2,0.2,0.3,0.5,0.4,0.7c0.1,0.4,0.2,0.9,0.3,1.5c0.1,1,0,2.9,0,2.9s0-0.2,0.1-0.5c0,0.2,0,0.3,0,0.5
	c0-0.3,0-0.5,0.1-0.8c0,0,0,0,0-0.1c-0.1,2.1-0.1,3.9-0.1,4.3c0,0.5,0.1,1.5,0.2,2.8c-0.2-0.5-0.5-1-0.9-1.3
	c-2.1-2.1-5.9-3.6-5.9-3.6c-0.3,0.9,0.1,1.3,0.6,1.8c0.5,0.5,1.2,2.1,1.6,2.9c0.4,0.8,1.2,1.3,2.5,2.1c1.2,0.8,1.8,1.5,2.3,2.3
	c0.2,0.4,1.1,1.9,2,3.4c0.3,0.5,0.6,1,0.9,1.5c0.4,0.7,0.7,1.3,0.7,1.3c-0.1-0.2-0.2-0.4-0.4-0.7c0.2,0.3,0.4,0.6,0.6,0.9
	c1,1.4,1.4,1.7,1.6,1.8c0,0.1,0.1,0.1,0.1,0.1c0,0,0,0,0-0.1c0,0,0,0,0,0s-0.1-0.2-0.3-0.6c0,0,0-0.1-0.1-0.1
	c-0.5-0.9-1.2-2.3-1.9-3.6c-0.3-0.7-0.6-1.5-0.9-2.5c-0.8-2.5-1.4-5.5-1.1-8.9c0.1-1.1,0.3-2,0.4-2.6c0-0.1,0-0.1,0.1-0.2
	c0.2-0.6,0.7-1.5,1.7-1.8c0,0,0.2-0.1,0.3-0.1c0.2-0.1,0.3-0.1,0.4-0.1c0.2,0,0.6-0.1,0.6-0.1c0,0,0,0,0,0l0,0c0,0-0.1-0.1-0.1-0.2
	c0,0,0-0.1,0.1-0.1c0.1-0.1,0.3,0,0.4-0.1c0,0,0-0.1,0.1-0.1c0.1-0.1,0.1-0.1,0-0.3c0-0.1-0.1-0.1-0.1-0.2c-0.2-0.1-0.5-0.3-0.5-0.3
	l0,0c0,0,0.2,0,0.4-0.1c0.2,0,0.5,0,0.8,0.1c0.2,0.1,0.5,0.2,0.7,0.4c0.1,0.1,0.3,0.2,0.4,0.4c0.2,0.2,0.3,0.5,0.5,0.6l0,0
	c0.1,0.1,0.1,0.2,0.2,0.4c0.1,0.2,0.2,0.7,0.3,0.8c0,0,0.1,0.1,0.2,0.1c0.1,0,0.2,0.1,0.3,0.1c0.3,0.1,0.8,0.2,1.1,0.2
	c0.6,0.1,1.4,0.2,1.9,0.2c0.2,0,0.3,0,0.5-0.1c0.9-0.2,1.9-0.8,2.7-1.8c0,0,0.6-0.5,0.7-1c0-0.1,0-0.2,0.1-0.3
	c0.1-0.2,0.1-0.4,0.2-0.5c0.1-0.1,0.3-0.4,0.4-0.8c0.1-0.2,0.1-0.4,0-0.6c-0.1-0.2-0.2-0.3-0.2-0.4c-0.2-0.3-0.5-0.5-0.5-0.5
	s0.1,0,0.2-0.1c0.1,0,0.1,0,0.2-0.1c0.8-0.4,1.5-1,1.5-2.2c0-1.2-0.9-1.4-1.4-1.4c0,0,0.3-0.7-0.1-1.1c-0.1-0.1-0.1-0.1-0.2-0.2
	c-0.3-0.3-0.6-0.3-0.6-0.3s0-0.4,0-0.8c0-0.5-0.2-1.2-0.7-1.6c-0.7-0.5-1-0.7-1.2-0.8c-0.1-0.1-0.1-0.2-0.1-0.2l0,0h0c0,0,0,0,0,0
	c0,0,0,0,0,0c0,0,0.1,0,0.3,0c0.2,0,0.5,0,0.9-0.2c0.8-0.3,1-0.4,1.2-0.7c0.2-0.1,0.8-0.8,0.8-0.8s0.3-0.2,0.5-0.4
	c0.1-0.1,0.2-0.2,0.2-0.3c0,0,0-0.1,0-0.1c0.1-0.1,0.1-0.2,0.1-0.3c0.1,0,0.2-0.1,0.2-0.1c0.1,0,0.1,0,0.2-0.1
	c0.2-0.1,0.3-0.1,0.4-0.2c0.1-0.1,0.2-0.3,0.3-0.5c0.2-0.3,0.5-0.7,0.6-0.9c0.1-0.1,0.1-0.2,0.2-0.3c0.1-0.1,0.2-0.3,0.2-0.4
	c0-0.1,0-0.1,0.1-0.3c0-0.1,0-0.1,0-0.1c0-0.1,0.1-0.7,0.2-1.3c0-0.4,0.1-0.7,0.1-0.8c0-0.2,0-0.4,0-0.5c0-0.1,0-0.2,0-0.3
	C125,34.4,125,34.3,124.9,34.2 M117.6,43.1c0,0-0.1,0.1-0.1,0.1c0,0,0,0.1-0.1,0.1c0,0.1,0,0.3,0.1,0.4c0.2,0.4,0.8,0.8,0.8,0.8
	s0.1,0.7,0,1c-0.1,0.3-0.4,1.4-1.9,1.9c0,0-0.2-0.9-0.3-1.5c0-0.2,0-0.4,0-0.5c0.1-0.2,0.2-0.2,0.2-0.2s0,0-0.1,0
	c0,0,0.1-0.1,0.1-0.1s-0.5,0-1,0.4c0,0-0.1,0-0.1,0l0,0c0,0,0,0-0.1,0c-0.5,0-1.5,0-1.8,0.1c-0.1,0-0.2,0-0.3,0.1
	c-0.1,0-0.1,0-0.2,0c-0.2,0-0.3,0.1-0.4,0.2c-0.1,0.1-0.2,0.2-0.3,0.3c0.2-0.3,0.5-0.8,0.9-1.4c-0.7,0.9-1.1,1.6-1.3,1.9
	c0,0,0,0.1-0.1,0.1c-0.1,0.1-0.2,0.2-0.2,0.3c-0.1,0.2-0.4,0.7-0.8,1.3c0.9-1.6,1.8-3.1,2.6-3.9c-0.1,0.1-0.1,0.2-0.2,0.2
	c0.1-0.2,0.3-0.3,0.4-0.5c0.8-0.9,1.5-1.6,2.3-2.2c0,0,0.1,0,0.1-0.1c0.2-0.1,0.4-0.3,0.6-0.4c0,0.2,0,0.3,0,0.4l0,0
	c0,0.1,0.1,0.3,0.2,0.3c0.1,0.2,0.5,0.3,0.5,0.3s0,0,0.1,0.1c0,0.1,0.1,0.1,0.2,0.1L117.6,43.1C117.5,43.1,117.6,43.1,117.6,43.1
	L117.6,43.1L117.6,43.1L117.6,43.1z M105.7,46.3c-0.1-0.1-0.2-0.2-0.2-0.2c0-0.1,0-0.1,0-0.2c0,0,0.1-0.1,0.1-0.1
	c0.2-0.1,0.5-0.2,0.7-0.3c0,0.5,0.1,1,0.1,1.4c0,0.2,0,0.4,0,0.5c-0.1-0.3-0.3-0.6-0.5-0.8C105.8,46.5,105.7,46.4,105.7,46.3z
	 M121.8,31C121.8,31.1,121.8,31.1,121.8,31c0,0,0.1-0.3,0.1-0.3c0,0,0.2-0.2,0.4-0.3c-0.2,0.1-0.3,0.3-0.4,0.4
	c-0.1,0.2-0.2,0.5-0.2,0.6l0,0C121.8,31.4,121.8,31.2,121.8,31z M119.8,32.7c0,0.2,0,0.3,0,0.5c0-0.1-0.1-0.2-0.1-0.4
	c0-0.1,0-0.2,0-0.3C119.8,32.5,119.8,32.6,119.8,32.7z M121.6,31.4L121.6,31.4L121.6,31.4L121.6,31.4z M120.6,31.5
	C120.6,31.5,120.6,31.5,120.6,31.5c-0.1,0-0.1,0-0.2,0.1l0,0c0,0-0.1,0-0.1,0C120.4,31.5,120.5,31.5,120.6,31.5
	C120.6,31.5,120.6,31.5,120.6,31.5z M118.8,36.4c-0.2,0.4-0.5,0.7-0.7,0.9c-0.2,0.2-0.6,0.6-1.1,1.2c0.4-0.4,0.9-1,1.4-1.6
	C118.5,36.8,118.7,36.6,118.8,36.4z M116.1,39.6c-1.1,1.2-2.4,2.6-2.8,3.1c0.2-0.3,0.5-0.6,0.8-0.9c0.4-0.5,0.9-0.9,1.3-1.4
	C115.6,40.1,115.9,39.9,116.1,39.6z M113,43.1c-0.3,0.4-1,1.5-1.7,2.5C111.8,44.7,112.3,44,113,43.1z M112,49.7
	C112,49.7,111.9,49.7,112,49.7c-0.2,0.2-0.4,0.2-0.6,0.2c-0.1,0-0.2-0.1-0.3-0.1c-0.2-0.3-0.5-1.1,0.8-1.5c0.1,0,0.2,0,0.3,0
	c0.1,0.1,0.2,0.1,0.2,0.2c0,0.1,0.1,0.3,0.1,0.5C112.4,49.2,112.2,49.5,112,49.7z M111.8,48.2c0,0,0.1,0,0.1,0
	C111.9,48.2,111.8,48.2,111.8,48.2L111.8,48.2z M111.4,47.6C111.4,47.6,111.4,47.6,111.4,47.6c0,0,0-0.1,0-0.2
	C111.5,47.5,111.4,47.5,111.4,47.6z M108.9,51.7c0,0,0,0.1-0.1,0.1c0.2-0.3,0.3-0.7,0.5-1C109.2,51.2,109,51.5,108.9,51.7z
	 M116.4,47.5L116.4,47.5z M109.7,48c-0.4,0.7-1.3,2.3-1.9,3.7C108.1,50.7,108.7,49.4,109.7,48z M107.4,52.2c0,0.1,0,0.3-0.1,0.4
	c0-0.1,0-0.1,0-0.2C107.4,52.3,107.4,52.3,107.4,52.2z M105.6,53.7c-0.1-0.8-0.2-2-0.3-2.9c-0.1-1.2,0.4-1.2,0.4-1.2s0.1,0,0.3,0
	c-0.1,0.4-0.2,0.9-0.3,1.5C105.7,51.7,105.6,52.7,105.6,53.7z M106.8,56.7c0.1-0.3,0.3-0.7,0.5-1.3c0,0.1-0.1,0.2-0.1,0.3
	c-0.2,0.4-0.3,0.9-0.4,1.4C106.8,56.9,106.8,56.8,106.8,56.7z"/>
<path class="st2" d="M138,63.5c0,0,0-0.1,0-0.1c0-0.1,0-0.1,0.1-0.2c0-0.1,0-0.1,0.1-0.2c0-0.1,0.1-0.3,0.1-0.4
	c0-0.1,0.1-0.1,0.1-0.2c0,0,0,0-0.1,0l0,0c0,0,0.1,0,0.1,0c0.1,0,0.3-0.1,0.6-0.2c0.1,0,0.3-0.1,0.5-0.2c0.6-0.2,1.2-0.6,1.7-0.9
	c0.6-0.4,1.1-0.8,1.6-1.1c0.2-0.1,0.4-0.3,0.5-0.4c0.3-0.3,0.5-0.4,0.5-0.4l0,0c0,0,0,0-0.1,0c-0.3,0.1-1.5,0.3-2,0.4
	c-0.4,0-1.1,0-1.6-0.1c0,0,0,0,0,0l0,0c0,0,0,0,0-0.1c0-0.1,0-0.1-0.1-0.2c0-0.1-0.1-0.1-0.1-0.2c0.2-0.1,1.9-0.7,3-1.8
	c0.2-0.2,0.3-0.4,0.4-0.5c0.4-0.7,0.4-1.1,0.2-1.5c-0.1-0.2-0.3-0.4-0.4-0.5c0,0,0,0,0,0c1.2,0.1,2.7-1.3,2.7-2
	c0.1-0.8-0.1-1.3-0.7-1.5c0,0,1.1-1,1.2-2.3c0-1.3,0.4-2.5-1.4-4.8c-1.7-2.3-3.2-2.1-4.6-1.7c-0.1,0-0.3,0.1-0.4,0.1l0,0
	c0,0-0.1,0-0.1,0c-0.9,0.4-1.3,1.1-1.5,1.5c-0.1,0.3-0.2,0.5-0.2,0.9c0,0.1,0,0.3,0,0.4c0,0,0,0.1,0,0.1c0,0.3,0.1,0.6,0.3,0.8
	c0.1,0.1,0.2,0.3,0.3,0.4c0,0,0.3,0.4,0.9,0.6c0,0,0.1,0,0.1,0.1c0.6,0.3,1.6,0,1.9-0.2l0,0c0,0,0.1,0,0.2-0.1c0,0,0.7-0.3,1.1,0.3
	c0.4,0.6,0.4,0.9,0.2,1.5c-0.2,0.5-0.8,1.5-0.8,1.5l-0.1,0.2c0,0,0-0.7-0.3-0.8c0,0,0,0-0.1,0l0,0c-0.1,0-0.1,0.1-0.2,0.1
	c-0.1,0-0.2,0.1-0.3,0.2c-0.5,0.3-0.5,0.5-0.6,0.7c-0.1,0.2,0.2,0.5,0,1.2c0,0,0,0.1,0,0.1c0,0-0.1,0.1-0.1,0.1
	c-0.3,0.4-0.4,0.4-0.4,0.4s0.4-0.6,0.3-1.1c-0.1-0.5-0.3-0.7-0.3-0.7s-0.3-0.2-1.1,0c-0.8,0.2-1.1,0.3-1.8,0.9c0,0-0.4-0.1-0.6,0.3
	c-0.2,0.3-0.4,0.7-0.5,1.1c0,0,0,0.1,0,0.1c-0.1,0.5-0.1,1.2-0.3,1.5c0,0,0,0,0,0.1c0,0,0,0,0,0.1c0,0-0.4,0.7-1.4,1.3
	c-0.3,0.2-0.7,0.4-1.1,0.5c-0.8,0.3-1.6,0.6-2.3,0.8c-0.3-0.1-1.3-0.5-2.4-0.5c-1.3,0-4,0.4-5.3,0.7c-2.3,0.5-4.9,1.7-6.8,2.7
	c0.9-0.6,1.8-1.3,2.2-1.7c1-0.9,2.1-2.1,3.5-4.6c1.5-2.5,2.4-5.5,2.5-7c0.2-1.5,0.9-3.5,0.9-3.5s0,0-0.1,0.1c0,0,0,0,0,0
	c-0.5,0.3-0.9,0.6-1.2,0.9c-0.2,0.2-0.4,0.4-0.6,0.6c-0.5,0.5-0.6,0.9-0.6,0.9s-0.1,0-0.4,0.2c-0.3,0.3-0.3,0.8-0.3,0.8
	c-0.2,0.1-0.9,0.5-1.1,0.8c-0.2,0.2-0.2,1-0.1,1.3c0,0,0,0.1,0,0.1c0,0,0-0.1-0.1-0.2c-0.2-0.4-0.3-0.6-0.6-0.5c-0.1,0-0.1,0-0.2,0
	c-0.8,0.2-1.3,1.4-1.3,1.4c-0.1,0.1-0.2,0.1-0.2,0.2c-0.7,0.6-1,1.1-1.1,1.5c0,0.1,0,0.1,0,0.2c0,0.2,0,0.3,0,0.3
	c-0.2,0.8,0.1,1.3,0.3,1.6c0.2,0.3,0.7,0.3,0.9,0.3c0.2,0,0.3-0.6,0.3-0.6s0.1,0.2,0.1,1.2c0,0.4-0.3,0.9-0.8,1.5
	c-0.5-0.1-1.2-0.3-1.7-0.5c-1-0.3-3.1-1-4.8-0.6c-0.1,0-0.1,0-0.1,0c-0.2,0-2.5,0.7-3.3,2.5c-0.6,1.2-0.7,2.3-0.6,3
	c0,0.1,0,0.1,0,0.2c0,0,0,0.1,0,0.1c0.1,0.2,0.2,0.4,0.3,0.5c0.3,0.4,0.7,0.6,1.1,0.6c0.2,0,0.3,0,0.3,0c0,0,0,0-0.1,0
	c0.2-0.1,0.4-0.2,0.6-0.3c0,0.3-0.1,0.5-0.3,0.8c-0.2,0.4-0.5,0.8-0.9,1.2c-0.7,0.7-2.1,1.9-2.1,1.9s0.2-0.1,0.4-0.3
	c-0.1,0.1-0.2,0.2-0.4,0.3c0.2-0.2,0.4-0.3,0.6-0.5c0,0,0,0,0,0c-1.6,1.4-3,2.6-3.3,2.8c-0.4,0.3-1.1,1-1.9,2
	c0.2-0.5,0.4-1.1,0.4-1.6c0.1-2.9-1.3-6.8-1.3-6.8c-0.9,0.4-0.9,1-0.9,1.7c-0.1,0.7-0.7,2.4-1.1,3.1c-0.3,0.8-0.2,1.8,0.1,3.2
	c0.3,1.4,0.1,2.3-0.2,3.2c-0.1,0.4-0.7,2.2-1.2,3.8c-0.2,0.5-0.4,1.1-0.5,1.7c-0.3,0.8-0.4,1.4-0.4,1.4c0.1-0.2,0.1-0.4,0.3-0.7
	c-0.1,0.3-0.2,0.7-0.3,1c-0.4,1.7-0.3,2.2-0.3,2.4c0,0.1,0,0.1,0,0.2c0,0,0,0,0.1-0.1c0,0,0.1,0,0.1,0s0.1-0.3,0.2-0.7
	c0,0,0-0.1,0.1-0.1c0.3-0.9,0.9-2.5,1.4-3.9c0.3-0.7,0.7-1.5,1.2-2.4c1.3-2.2,3.1-4.8,5.8-6.7c0.9-0.7,1.6-1.1,2.2-1.4
	c0.1,0,0.1-0.1,0.2-0.1c0.6-0.2,1.6-0.5,2.5,0c0,0,0.2,0.1,0.3,0.1c0.2,0.1,0.3,0.2,0.4,0.2c0.2,0.1,0.4,0.4,0.4,0.4c0,0,0,0,0,0
	l0,0c0,0,0-0.1,0.1-0.2c0,0,0.1,0,0.1,0c0.2,0,0.2,0.2,0.4,0.2c0,0,0.1,0,0.1,0c0.1,0,0.2,0,0.2-0.2c0-0.1,0.1-0.1,0-0.2
	c0-0.2-0.1-0.6-0.1-0.6l0,0c0,0,0.1,0.1,0.3,0.2c0.1,0.2,0.3,0.4,0.5,0.6c0.1,0.2,0.2,0.5,0.2,0.8c0,0.2,0,0.4,0,0.5
	c0,0.3-0.1,0.6-0.1,0.8v0c0,0.1-0.1,0.3-0.2,0.4c-0.1,0.2-0.4,0.6-0.4,0.8c0,0.1,0,0.1,0.1,0.2c0,0.1,0.1,0.2,0.1,0.3
	c0.2,0.3,0.4,0.7,0.6,1c0.3,0.6,0.8,1.2,1.2,1.6c0.1,0.1,0.2,0.2,0.4,0.3c0.7,0.5,1.9,0.9,3.2,0.8c0,0,0.7,0.1,1.2-0.1
	c0.1-0.1,0.2-0.1,0.3-0.2c0.2-0.1,0.3-0.1,0.5-0.2c0.2,0,0.5,0,0.8-0.2c0.2-0.1,0.4-0.2,0.5-0.4c0.1-0.2,0.1-0.3,0.2-0.5
	c0.1-0.4,0-0.7,0-0.7s0.1,0,0.2,0.1c0.1,0,0.1,0.1,0.2,0.1c0.8,0.4,1.8,0.4,2.6-0.4c0.9-0.8,0.4-1.6,0.1-2c0,0,0.7-0.3,0.8-0.8
	c0-0.1,0-0.2,0-0.3c0-0.5-0.2-0.7-0.2-0.7s0.3-0.2,0.6-0.6c0.4-0.4,0.8-0.9,0.7-1.6c-0.1-0.8-0.2-1.2-0.2-1.4c0-0.1,0.1-0.2,0.1-0.2
	l0,0l0,0c0,0,0,0,0,0c0,0,0,0,0,0c0,0,0,0.1,0.2,0.2c0.1,0.1,0.3,0.3,0.7,0.5c0.8,0.4,0.9,0.4,1.4,0.4c0.2,0,1.2,0.1,1.2,0.1
	s0.3,0.1,0.6,0.1c0.1,0,0.2,0,0.4,0c0,0,0.1,0,0.1,0c0.1,0,0.2-0.1,0.3-0.1c0.1,0,0.2,0.1,0.2,0.1c0.1,0,0.1,0.1,0.2,0.1
	c0.1,0.1,0.3,0.1,0.4,0.1c0.1,0,0.3,0,0.6-0.1c0.4,0,0.8-0.1,1.1-0.1c0.1,0,0.2,0,0.4-0.1c0.2,0,0.3-0.1,0.5-0.1
	c0.1,0,0.1-0.1,0.2-0.1c0.1,0,0.1,0,0.1-0.1c0.1-0.1,0.6-0.4,1.1-0.8c0.3-0.2,0.5-0.4,0.6-0.5c0.2-0.2,0.4-0.3,0.4-0.3
	c0.1-0.1,0.2-0.1,0.2-0.2C137.9,63.7,138,63.5,138,63.5 M126.5,64.1c0,0-0.1,0-0.2,0c0,0-0.1,0-0.2,0.1c-0.1,0.1-0.2,0.2-0.3,0.3
	c-0.1,0.4-0.1,1.1-0.1,1.1s-0.4,0.5-0.7,0.7c-0.3,0.1-1.3,0.6-2.7-0.1c0,0,0.5-0.8,0.9-1.2c0.1-0.2,0.3-0.3,0.4-0.3
	c0.2-0.1,0.3,0,0.3,0s0,0,0-0.1c0,0,0.1,0,0.1,0s-0.4-0.4-1-0.4c0,0,0-0.1-0.1-0.1l0,0c0,0,0,0-0.1-0.1c-0.3-0.4-1-1.1-1.3-1.3
	c-0.1-0.1-0.1-0.1-0.2-0.1c-0.1,0-0.1-0.1-0.2-0.1c-0.2-0.1-0.3-0.2-0.4-0.2c-0.1,0-0.3-0.1-0.4-0.1c0.4-0.1,1-0.1,1.7-0.3
	c-1.1,0.1-2,0.3-2.3,0.3c0,0-0.1,0-0.1,0c-0.1,0-0.3,0-0.4,0.1c-0.2,0-0.8,0.1-1.5,0.3c1.8-0.4,3.5-0.7,4.6-0.7c-0.1,0-0.2,0-0.3,0
	c0.2,0,0.4,0,0.6,0c1.2,0,2.2,0,3.1,0.2c0,0,0.1,0,0.1,0c0.3,0.1,0.5,0.1,0.7,0.2c-0.1,0.1-0.2,0.2-0.3,0.3l0,0
	c-0.1,0.1-0.1,0.2-0.1,0.4c-0.1,0.2,0.1,0.6,0.1,0.6s0,0,0,0.1c0,0.1,0,0.2,0,0.2l0,0C126.4,64,126.4,64,126.5,64.1L126.5,64.1
	L126.5,64.1L126.5,64.1z M116.1,57.3c0-0.1,0-0.2,0-0.3c0-0.1,0.1-0.1,0.1-0.1c0,0,0.1,0,0.2,0c0.2,0.1,0.5,0.2,0.7,0.4
	c-0.3,0.4-0.7,0.7-0.9,1c-0.1,0.2-0.3,0.3-0.4,0.4c0.1-0.3,0.2-0.7,0.3-1C116.1,57.6,116.1,57.4,116.1,57.3z M138.3,59
	C138.2,59.1,138.2,59.1,138.3,59c0.1,0,0.3-0.1,0.3-0.1c0,0,0.2,0,0.5,0.1c-0.2,0-0.4-0.1-0.6,0c-0.3,0-0.5,0.2-0.6,0.3l0,0
	C138,59.2,138.1,59.1,138.3,59z M135.7,58.6c-0.1,0.1-0.2,0.2-0.3,0.3C135.4,58.9,135.5,58.8,135.7,58.6c0,0,0.1-0.1,0.1-0.1
	C135.8,58.5,135.7,58.6,135.7,58.6z M137.8,59.2L137.8,59.2L137.8,59.2L137.8,59.2z M137.1,58.4C137.1,58.4,137.1,58.4,137.1,58.4
	c-0.1,0-0.1-0.1-0.2-0.1l0,0c0,0-0.1,0-0.1-0.1C136.9,58.3,137,58.4,137.1,58.4C137.1,58.5,137.1,58.5,137.1,58.4z M132.2,60.4
	c-0.4,0.1-0.8,0.1-1.1,0.1c-0.3,0-0.9,0-1.6,0c0.6,0,1.3,0,2.1-0.1C131.8,60.5,132,60.5,132.2,60.4z M128,60.6c-1.7,0-3.5,0-4.2,0
	c0.4,0,0.8,0,1.2,0c0.6,0,1.3,0,1.9,0C127.3,60.6,127.7,60.6,128,60.6z M123.4,60.6c-0.5,0.1-1.8,0.2-3,0.4
	C121.4,60.8,122.2,60.7,123.4,60.6z M117.8,64.3C117.8,64.3,117.8,64.3,117.8,64.3c-0.3-0.1-0.5-0.2-0.6-0.3
	c-0.1-0.1-0.1-0.2-0.1-0.3c0.1-0.4,0.5-1.1,1.7-0.4c0,0.1,0.1,0.2,0.1,0.2c0,0.1,0,0.2,0,0.3c-0.1,0.1-0.2,0.2-0.3,0.4
	C118.4,64.3,118.1,64.3,117.8,64.3z M118.8,63.1c0,0,0,0.1,0.1,0.1C118.8,63.3,118.8,63.2,118.8,63.1L118.8,63.1z M119,62.5
	C119,62.5,119,62.5,119,62.5c0,0,0.1-0.1,0.2-0.1C119.1,62.4,119.1,62.5,119,62.5z M114.2,63.4c0,0-0.1,0-0.1,0
	c0.4-0.1,0.7-0.2,1-0.3C114.9,63.2,114.5,63.3,114.2,63.4z M122.4,66.1L122.4,66.1z M117.5,61.5c-0.8,0.2-2.6,0.5-4,1
	C114.5,62.1,115.9,61.7,117.5,61.5z M112.9,62.6c-0.1,0.1-0.2,0.1-0.3,0.2c0.1,0,0.1-0.1,0.1-0.1C112.8,62.7,112.9,62.6,112.9,62.6z
	 M110.6,62.2c0.5-0.6,1.3-1.5,2-2.2c0.9-0.8,1.2-0.5,1.2-0.5s0.1,0.1,0.2,0.3c-0.3,0.2-0.8,0.5-1.3,0.8
	C112.1,61,111.4,61.6,110.6,62.2z M109.1,65.2c0.3-0.1,0.7-0.3,1.3-0.5c-0.1,0-0.2,0.1-0.2,0.1c-0.4,0.2-0.9,0.4-1.3,0.6
	C109,65.3,109.1,65.3,109.1,65.2z"/>
<ellipse class="st3" cx="80" cy="54" rx="26.7" ry="25.9"/>
<path class="st0" d="M80,28.1c14.7,0,26.7,11.6,26.7,25.9c0,14.3-11.9,25.9-26.7,25.9c-14.7,0-26.7-11.6-26.7-25.9
	C53.3,39.7,65.3,28.1,80,28.1"/>
<path class="st4" d="M92.5,42.4c0,1.3-0.7,2.6-2.2,4c-0.9,0.9-2.6,2.8-5.1,5.9c-0.4,0-0.6-0.3-0.7-0.6c0.7-1.1,1-2.3,1-3.5
	c0-1.3-0.6-2.6-1.6-3.9c-1-1.3-2.1-2.2-3.2-2.6c-0.7,0-1.8-0.2-3.1-0.4c-4.2,1.4-6.3,3.9-6.3,7.4c0,1.8,0.7,3.5,2.1,4.9
	c1.3,1.5,2.8,2.2,4.5,2.1c1.4,0,2.1-1.2,2.1-3.6c0-1.9-0.1-3.1-0.2-3.6c-0.2-1.6-0.8-2.4-1.7-2.4c-0.3,0-0.6,0.2-0.9,0.5
	c0.4,0.3,0.8,0.7,1.1,1.4c0,0.7-0.3,1.1-0.9,1.1c-0.8,0-1.3-0.5-1.3-1.4c0-1.4,0.6-2.1,1.9-2.1c0.6,0,1.1,0.2,1.6,0.7
	c0.5,0.5,0.8,1.1,0.8,1.7v6.8c0,0.8,0.7,1.5,2.1,2.1c1,0.3,2,0.7,3,1.1c1.4,0.7,2.7,1.8,3.8,3.4c1.2,1.6,1.7,3.2,1.7,4.8
	c0,0.5,0,1.2,0.1,2c-0.5,3.2-1.8,5.7-3.8,7.4c-2.1,1.7-4.6,2.6-7.5,2.7c-1.6,0-3.8-0.8-6.6-2.4c-2.8-1.6-4.3-2.4-4.4-2.4
	c-0.9,0-2.2,1.2-4,3.5c-2.5,3.3-4.3,5.5-5.4,6.6c-2.5,2.4-5.1,3.6-7.9,3.6c-1.5,0-3.3-0.7-5.2-2c0.3-0.4,0.8-0.9,1.6-1.7
	c0.8-0.7,1.3-1.4,1.6-1.9c1.1,1.6,2.8,2.4,4.9,2.3c2.2,0,4.7-1.6,7.5-4.9c1.9-2.2,3.7-4.9,5.4-8.1c1.5-2.8,2.4-5,2.6-6.8
	c0-0.5,0.1-1,0.1-1.5c0.1-0.6,0.3-0.9,0.7-0.9c0.6,0,0.9,0.3,0.9,0.9c0,0.3,0,0.6-0.2,1.1c-0.2,0.5-0.3,0.9-0.3,1.1l0.1,2.3
	c0,0.8,0.7,2.4,2,4.8c0.8,1.4,1.9,2.5,3.3,3.3c1.5,0.8,2.9,1.3,4.4,1.3c2.1,0,3.9-0.8,5.5-2.3c1.7-1.6,2.6-3.5,2.6-5.7
	c0-2-0.7-3.8-2-5.4c-1.3-1.6-2.9-2.4-4.7-2.4c-1.3,0-1.9,1.5-1.9,4.5c0,3.8,0.8,5.7,2.3,5.7c1,0,1.4-0.4,1.4-1.1
	c0-0.3-0.1-0.4-0.3-0.4c-0.1,0-0.2,0-0.4,0.1c-0.2,0.1-0.3,0.1-0.4,0.1c-0.8,0-1.1-0.4-1.1-1.1c0-0.3,0.1-0.7,0.4-0.9
	c0.3-0.3,0.6-0.4,0.9-0.4c0.5,0,0.9,0.2,1.2,0.7c0.3,0.4,0.5,0.9,0.5,1.4c0,0.6-0.2,1.1-0.7,1.7c-0.5,0.5-1,0.8-1.5,0.8
	c-1.9,0-2.8-1.7-2.8-5.1c0-0.3,0-0.6,0.1-1.2c0-0.5,0.1-0.9,0.1-1.2c0-2.6-0.3-4.1-1-4.5c-1.2-0.5-2.9-1.3-5.2-2.3
	c-1.1-0.6-2.1-1.6-3-3.1c-0.8-1.5-1.3-3-1.3-4.4c0-3.2,0.9-5.7,3-7.5c1.9-1.6,4.3-2.5,7.2-2.5c1.8,0,3.8,0.8,6.1,2.4
	c2.3,1.6,3.7,2.3,4.2,2.3c0.6,0,1.1-0.2,1.5-0.7c0.4-0.4,0.7-1,0.7-1.6c0-1-0.3-1.5-0.8-1.5c-0.3,0-0.5,0.3-0.5,0.8
	c-0.1,0.5-0.4,0.8-0.9,0.8c-0.7,0-1-0.4-1-1.3c0-1,0.5-1.5,1.4-1.5c0.7,0,1.3,0.2,1.7,0.7C92.2,41.1,92.5,41.7,92.5,42.4"/>
<path class="st4" d="M64.8,30.7L64.8,30.7c-0.1,0-0.1,0-0.2,0c-0.1,0-0.2-0.1-0.3-0.2c-0.1-0.1-0.1-0.3-0.1-0.4
	c0-0.2,0.1-0.3,0.2-0.4c0,0,0.1-0.1,0.1-0.1c0.1-0.1,0.4-0.4,0.8-0.7c0.3-0.2,1.2-0.7,1.5-0.9c0.6-0.3,1.5-0.6,2.4-1
	c0.1,0,0.3-0.1,0.4-0.2c0.2-0.1,0.3-0.1,0.5-0.2c0,0.1,0,0.1,0,0.2c0,0.1,0,0.2,0,0.3c-0.1,0-0.2,0-0.2,0.1
	c-0.7,0.3-2.2,0.9-3.1,1.5c-0.2,0.1-0.6,0.4-0.8,0.5c-0.1,0.1-0.2,0.2-0.3,0.2c-0.1,0.1-0.2,0.1-0.3,0.2c-0.1,0-0.2,0.1-0.2,0.2
	c-0.2,0.1-0.2,0.1-0.3,0c0,0,0-0.1,0-0.1c0,0,0-0.1,0-0.1c0,0,0,0,0,0c0,0,0,0,0,0c0,0,0,0,0,0c-0.1,0-0.3,0.3-0.4,0.4
	c-0.1,0.1-0.1,0.2,0,0.4c0,0.1,0.1,0.1,0.2,0.2c0.1,0,0.1,0,0.2,0c0.1,0,0.1,0,0.5-0.2c0.2-0.1,0.4-0.2,0.5-0.3
	c0.1,0,0.1-0.1,0.1-0.1c0,0,0.1-0.1,0.2-0.1c0.1-0.1,0.4-0.2,0.7-0.4c0.7-0.4,0.9-0.5,1.8-0.8c0.2-0.1,0.6-0.2,0.6-0.1
	c0,0-0.4,0.2-0.8,0.3c-0.4,0.2-1,0.5-1.3,0.6c-0.3,0.1-1.1,0.7-1.4,0.8C65.3,30.4,65,30.6,64.8,30.7 M64.2,26.7
	c0.1,0,0.3-0.1,0.3-0.2c0.1,0,0.3,0.1,0.4,0.2c0.1,0.1,0.1,0.2,0,0.3c0,0.1,0,0.1-0.1,0.2c-0.1,0.1-0.2,0.2-0.3,0.2
	c-0.1,0-0.1,0-0.2,0c-0.2,0-0.2-0.1-0.2-0.1c0-0.1-0.1-0.1,0-0.2C63.9,27,64,26.8,64.2,26.7z M64,28C64,28,64,28,64,28
	c0.2,0.1,0.4,0.1,0.5,0.1c0,0,0.1,0,0.2-0.1c0.2-0.1,0.4-0.3,0.4-0.4c0,0,0-0.1,0-0.1c0,0,0,0.1,0,0.2c0,0.1,0,0.1-0.1,0.2
	c-0.1,0.2-0.3,0.3-0.5,0.4c-0.1,0-0.2,0-0.3,0C64.1,28.2,64,28.1,64,28C63.9,28,63.9,28,64,28z M64.6,28.5c0.2,0,0.3-0.1,0.4-0.2
	c0.1-0.1,0.1-0.1,0.6-0.4c0.7-0.4,1.3-0.7,1.6-0.9c0.2-0.1,0.3-0.2,0.4-0.2l0.1,0l-0.1-0.2c0-0.1-0.1-0.4-0.1-0.5
	c-0.1-0.3-0.1-0.5-0.2-0.9c0-0.2-0.1-0.4-0.2-0.6c0-0.2-0.1-0.3-0.1-0.3c0,0-1,0.5-1.3,0.7c-0.3,0.2-0.8,0.6-1,0.8
	c-0.1,0.1-0.1,0.1-0.1,0.2l0,0l0.2,0.1c0.2,0.1,0.3,0.1,0.5,0.2c0.2,0.2,0.4,0.5,0.4,0.8c0,0.1,0,0.3,0,0.3c0,0,0-0.1,0-0.2
	c-0.1-0.4-0.2-0.6-0.4-0.8c-0.1-0.1-0.3-0.1-0.5-0.1c-0.1,0-0.3,0.1-0.4,0.2c-0.1,0-0.1,0-0.1-0.1c0-0.1,0-0.1,0-0.2
	c0,0,0-0.1,0-0.1c0,0,0.1-0.1,0.1-0.1c0.1,0,0.2-0.1,0.3-0.2c0.3-0.2,0.7-0.5,0.9-0.7c0.3-0.2,0.9-0.5,1.5-0.9
	c0.1,0,0.3-0.1,0.5-0.2c0.3-0.1,0.5-0.2,1-0.4c0.2-0.1,0.9-0.3,1.1-0.4c0.3-0.1,0.8-0.2,1-0.3c0.1,0,0.4-0.1,0.5-0.1
	c0.5-0.1,1-0.3,1.9-0.4c0.8-0.2,0.9-0.2,1.2-0.2c0.2,0,0.6-0.1,1-0.1c0.1,0,0.3,0,0.5-0.1c0.3,0,1-0.1,1.9-0.3
	c0.3,0,0.7-0.1,0.9-0.1c0.7-0.1,1.1-0.1,1.4-0.1c0.1,0,0.3,0,0.4,0c0.1,0,0.2,0,0.3,0c0.1,0,0.2,0,0.2,0c0.1,0,0.4,0,0.7,0
	c0.1,0,0.3,0,0.4,0c0.3,0,0.8,0.1,1.2,0.1c0.2,0,0.5,0.1,0.6,0.1c0.1,0,0.3,0,0.4,0.1c0.1,0,0.3,0,0.5,0.1c0.2,0,0.4,0.1,0.6,0.1
	c0.2,0,0.4,0.1,0.5,0.1c0.9,0.1,1,0.1,1.8,0.3c0.2,0.1,0.7,0.1,0.9,0.2c0.4,0.1,2.3,0.6,2.7,0.7c0.3,0.1,0.9,0.3,1.3,0.4
	c0.6,0.3,1,0.4,1.5,0.7c0.9,0.5,1.2,0.7,2.1,1.4c0.1,0.1,0.3,0.2,0.4,0.3c0.1,0,0.1,0.1,0.1,0.1c0,0,0,0.1,0,0.2
	c0,0.2-0.1,0.2-0.1,0.2c0,0-0.1,0-0.1-0.1c-0.1,0-0.1-0.1-0.2-0.1c-0.2-0.1-0.4-0.1-0.6,0.1c-0.1,0.1-0.2,0.2-0.3,0.3
	c-0.1,0.1-0.2,0.5-0.2,0.6c0,0.1,0,0.2-0.1,0.1c0-0.2,0-0.2,0-0.5c0.1-0.2,0.1-0.3,0.1-0.3c0.1-0.2,0.3-0.3,0.5-0.4
	c0.2-0.1,0.2-0.1,0.4-0.1c0.1,0,0.1,0,0.1,0c0,0-0.1-0.1-0.2-0.2c-0.1-0.1-0.1-0.1-0.3-0.2c-0.5-0.4-0.5-0.4-1-0.7
	c-0.4-0.3-1-0.5-1.5-0.7c-0.1-0.1-0.2-0.1-0.2-0.1c0,0,0,0.1,0,0.2c0,0.1-0.1,0.4-0.2,1c-0.1,0.5-0.2,0.9-0.2,1c0,0.1,0,0.2,0,0.3
	c0,0.1,0,0.1,0,0.1c0,0,0.1,0,0.2,0.1c0.1,0,0.2,0.1,0.3,0.1c0.1,0,0.3,0.1,0.4,0.2c0.5,0.2,0.7,0.3,1.2,0.6
	c0.1,0.1,0.3,0.2,0.4,0.3c0.1,0.1,0.2,0.1,0.3,0.2c0.2,0.2,0.3,0.2,0.5,0.3l0.2,0.1l0,0c0,0,0,0,0,0.1c0,0,0,0.1,0,0.1
	c0,0.1,0,0.1,0,0.1c0,0-0.1,0-0.1-0.1c-0.3-0.3-0.7-0.5-1.5-1c-0.5-0.3-1.2-0.6-2.2-1c-0.3-0.1-0.6-0.2-0.7-0.3
	c-0.6-0.2-2.2-0.7-2.6-0.8c-0.1,0-0.3-0.1-0.5-0.1c-0.2,0-0.4-0.1-0.6-0.1c-0.2,0-0.4-0.1-0.6-0.1c-0.2,0-0.4-0.1-0.6-0.1
	c-0.1,0-0.3,0-0.5-0.1c-0.1,0-0.4-0.1-0.5-0.1c-0.1,0-0.4-0.1-0.6-0.1c-0.6-0.1-1.1-0.1-2.3-0.2c-0.8-0.1-1.3-0.1-1.3-0.1
	c0,0,0,0,0,0c0,0,0.1,0,0.3,0c0.1,0,0.2,0,0.3,0c0.1,0,0.3,0.1,0.5,0.1c0.4,0,0.8,0.1,1,0.2c0.1,0,0.3,0,0.4,0.1
	c0.3,0,0.5,0.1,0.9,0.1c0,0.1,0,0.2,0.1,0.2c0.1,0.3,0,0.7-0.2,1c0,0,0,0,0,0c0,0,0,0,0,0c0,0.1-0.1,0.1-0.2,0.2c0,0-0.1,0,0,0
	c0,0,0-0.1,0.1-0.1c-0.1,0-0.3,0-0.4,0c-0.2,0-0.5,0-0.6-0.1c-0.1,0-0.3,0-0.4,0c-0.2,0-1-0.1-1.2-0.1c-0.3,0-0.7,0-1.5,0
	c-0.1,0-0.5,0-0.8,0c-0.8,0-1.1,0-2,0.1c-0.2,0-0.5,0-0.7,0.1c-0.6,0.1-1.5,0.1-1.8,0.2c-0.1,0-0.3,0-0.4,0.1c-0.1,0-0.2,0-0.4,0.1
	c-0.3,0.1-0.6,0.1-0.6,0.1c0,0,0.4-0.1,0.9-0.3c0.4-0.1,0.5-0.1,0.9-0.2c0.4,0,0.9-0.1,1.1-0.1c0.1,0,0.9-0.1,1-0.1
	c0.5,0,1.7-0.1,2-0.1c0.1,0,0.2,0,0.4,0c0.1,0,0.3,0,0.4,0c0.1,0,0.1,0,0.2,0c0.2,0,1.1,0,1.8,0.1c0.3,0,0.5,0,0.9,0.1
	c0.6,0.1,0.8,0.1,1.2,0.2l0,0c0-0.1,0.1-0.2,0.1-0.3c0-0.1,0-0.2,0-0.4c-0.7-0.1-0.8-0.1-0.9-0.1c-0.1,0-0.2,0-0.3,0
	c-0.1,0-0.4,0-0.7,0c-0.3,0-0.6,0-0.7,0c-0.2,0-0.5,0-1,0c-0.1,0-0.4,0-0.5,0c-0.2,0-0.4,0-0.4,0c-0.4,0-1.2,0-1.7,0.1
	c-0.3,0-0.7,0-0.7,0c-0.1,0-0.2,0-0.3,0c-0.1,0-0.4,0-0.6,0.1c-0.5,0-0.7,0.1-0.9,0.1c-0.1,0-0.3,0-0.4,0c-0.3,0-0.7,0.1-1.4,0.2
	c-0.3,0-1.1,0.2-1.4,0.3c-0.1,0-0.3,0.1-0.4,0.1c-0.2,0-0.4,0.1-1.2,0.3c-0.1,0-0.2,0.1-0.3,0.1c0,0.3,0.1,0.6,0.3,0.8
	c0,0,0,0.1,0,0c-0.3-0.1-0.5-0.6-0.5-1c0-0.1,0-0.2,0-0.3c0.1,0,0.2-0.1,0.3-0.1c0.2-0.1,1-0.3,1.4-0.4c0.1,0,0.2,0,0.2,0
	c0,0,0.3-0.1,0.4-0.1c0.2-0.1,0.8-0.2,1.2-0.2c0.1,0,0.1,0,0.2,0c0.1,0,0.1,0,0.2,0c0.1,0,0.2,0,0.3,0c0.1,0,0.2,0,0.4-0.1
	c0.1,0,0.3-0.1,0.5-0.1c0.3-0.1,0.7-0.1,1.1-0.2c0.2,0,0.3-0.1,0.3-0.1c0,0-0.4,0-0.8,0.1c-0.3,0-0.3,0-0.8,0.1
	c-0.2,0-0.4,0.1-0.5,0.1c-0.1,0-0.3,0-0.5,0.1c-0.1,0-0.4,0.1-0.6,0.1c-0.2,0-0.4,0.1-0.6,0.1c-0.1,0-0.4,0.1-0.5,0.1
	c-0.2,0-0.4,0.1-0.5,0.1c-0.1,0-0.3,0.1-0.5,0.1c-0.3,0.1-1.1,0.3-1.8,0.5c-1,0.3-2.1,0.7-2.9,1.1c-0.7,0.3-1.7,0.9-2.2,1.3
	c-0.1,0.1-0.1,0.1-0.1,0.1c0,0-0.1-0.4-0.1-0.4C64.4,28.5,64.5,28.5,64.6,28.5z M63.5,25.8L63.5,25.8c-0.1,0-0.2,0-0.3-0.1
	c-0.1-0.1-0.2-0.3-0.2-0.5c0-0.3,0.2-0.6,0.5-0.9c0.2-0.2,0.5-0.4,0.8-0.6c0.2-0.1,0.7-0.4,0.9-0.5c1.7-0.8,2.8-1.3,3.9-1.6
	c0.2-0.1,0.4-0.1,0.6-0.2c0,0.1-0.1,0.3,0,0.4c-0.4,0.1-0.9,0.3-1.2,0.4c-0.1,0-0.3,0.1-0.4,0.1c-0.1,0-0.3,0.1-0.4,0.1
	c-0.1,0-0.2,0.1-0.4,0.1c-0.6,0.2-1.1,0.4-1.6,0.7c-0.1,0-0.2,0.1-0.3,0.1c-0.3,0.1-0.5,0.2-0.8,0.4c-0.2,0.1-0.8,0.6-1.1,0.8
	c-0.1,0.1-0.1,0.1-0.1,0.1c0,0,0.1-0.2,0.1-0.3l0,0l0,0c0,0-0.2,0.2-0.3,0.3c-0.1,0.1-0.2,0.3-0.2,0.4c0,0.2,0,0.3,0.1,0.4
	c0.1,0.1,0.1,0.1,0.3,0c0.2-0.1,0.3-0.1,0.5-0.3c0.3-0.3,0.4-0.4,0.7-0.5c0.2-0.2,0.9-0.6,1-0.6c0,0,0.1-0.1,0.2-0.1
	c0.5-0.3,0.8-0.4,1.3-0.6c0.8-0.3,1.7-0.5,1.8-0.5c0,0,0,0,0,0c0,0-0.2,0.1-0.5,0.2c-0.2,0.1-0.5,0.2-0.6,0.2
	c-0.1,0-0.3,0.1-0.4,0.1c-0.3,0.1-0.9,0.4-1.2,0.5c-0.1,0-0.2,0.1-0.3,0.2c-0.3,0.2-0.8,0.5-1.1,0.6c-0.3,0.2-0.6,0.5-1,0.8
	C63.9,25.7,63.6,25.8,63.5,25.8z M63.3,24.1c0,0-0.1-0.1-0.1-0.3c-0.2-0.5-0.5-1.3-0.7-1.9c-0.1-0.1-0.2-0.4-0.2-0.6
	c-0.1-0.2-0.2-0.5-0.3-0.8c-0.2-0.5-0.3-0.8-0.3-0.8c0,0,0.6-0.4,0.6-0.4c0,0,0.1,0.1,0.3,0.2c0.3,0.2,0.5,0.3,0.8,0.4
	c0.3,0.1,0.5,0.2,0.7,0.2c0.1,0,0.2,0,0.3,0.1c0.6,0.1,0.7,0.1,1.1,0.1c0.6-0.1,1-0.2,1.5-0.5c0.8-0.5,1.4-1.2,1.7-2
	c0.1-0.2,0.2-0.7,0.2-0.9c0-0.1,0-0.2,0-0.3c0-0.1,0-0.2,0-0.2c0,0,0,0,0-0.1c0,0,0,0,0,0c0,0,0.1,0.4,0,0.5c0,0,0,0.1,0,0.1
	c0,0.1-0.2,1-0.2,1.2c-0.1,0.2-0.2,0.4-0.2,0.4c0,0,0,0,0,0.1c0,0,0,0.1,0,0.1c0,0,0,0,0,0.1c0,0,0,0.1,0,0.1c0,0,0,0,0,0
	c0,0,0,0,0,0c0,0,0,0,0,0c0,0,0,0,0-0.1c0,0,0-0.1,0.1-0.1c0,0,0-0.1,0.1-0.1c0,0,0.1-0.1,0.1-0.1c0-0.1,0.1-0.2,0.2-0.5
	c0,0,0.1-0.3,0.1-0.5c0.1-0.2,0.1-0.4,0.1-0.4c0,0,0.1,0.2,0.2,0.5c0.1,0.3,0.2,0.5,0.2,0.5c0,0.1,0.1,0.3,0.3,0.6
	c0,0.1,0.1,0.2,0.1,0.3c0,0.1,0,0.1,0,0.1c0,0,0,0,0,0.1c0,0,0,0,0,0c0,0,0,0,0-0.1c0,0,0-0.1,0-0.1c0,0,0,0,0-0.1
	c0,0,0-0.1-0.1-0.4c0,0,0-0.1,0-0.1c0,0,0-0.1,0-0.2c0-0.2-0.1-0.6-0.2-0.7c0-0.1-0.1-0.3-0.1-0.5c-0.1-0.4-0.2-0.8-0.2-0.8
	c0,0,0.1,0,0.1,0.1c0.2,0.1,0.6,0.5,0.8,0.6c0.3,0.2,0.6,0.3,1.1,0.5c0.1,0,0.2,0.1,0.2,0.1c0.4,0.2,1.2,0.4,1.7,0.4
	c0.4,0,0.8,0,1.1,0c0.4-0.1,0.9-0.3,1.2-0.4c0.4-0.2,0.8-0.4,1.1-0.7c0.4-0.3,0.7-0.6,0.9-0.9c0.4-0.5,0.6-0.9,0.9-1.6
	c0.2-0.6,0.3-0.9,0.4-1.4c0-0.1,0.1-0.3,0.1-0.4c0.1-0.3,0.1-0.5,0.1-0.7c0,0,0-0.1,0-0.1c0,0,0.1,0,0.1,0c0.1,0,0.1,0,0.1,0.1
	c0,0.1,0,0.4,0,0.5c0,0.3,0,0.5,0,0.8c0,0.2,0,0.4,0,0.5c0,0.1,0,0.3,0,0.5c0,0.9,0,1.1,0,1.6c0,0.1,0,0.3,0,0.3c0,0.1,0,0.2,0,0.2
	c0,0,0,0,0.1-0.2c0-0.1,0-0.2,0-0.2c0,0,0-0.1,0-0.1c0-0.1,0-0.2,0-0.4c0-0.1,0-0.1,0-0.1c0,0,0-0.6,0.1-1.2c0-0.2,0-0.4,0.1-0.5
	c0-0.3,0-0.4,0-0.5c0.1-0.3,0.2-1.2,0.2-1.3c0-0.1,0-0.1,0.1-0.1c0,0,0.1,0,0.1,0c0,0,0,0.1,0,0.2c0,0.1,0,0.2,0.1,0.7
	c0.1,0.4,0.2,1,0.3,1.1c0.1,0.2,0.3,0.7,0.4,1c0.3,0.6,0.7,1.2,1.1,1.6c0.2,0.2,0.6,0.5,0.8,0.7c0.3,0.2,0.7,0.4,1,0.6
	c0.3,0.1,0.6,0.2,0.9,0.3c0.3,0.1,0.4,0.1,0.5,0.1c0.3,0,0.7,0,1-0.1c0.6-0.1,0.9-0.2,1.2-0.3c0.1,0,0.2-0.1,0.3-0.1
	c0.5-0.2,0.8-0.3,1.1-0.5c0.2-0.1,0.6-0.4,0.8-0.6c0.1-0.1,0.2-0.1,0.2-0.1c0,0,0.1,0.1,0.3,0.1c0.2,0.1,0.3,0.1,0.3,0.2
	c0,0,0,0.1,0,0.1c0,0.1,0,0.2,0,0.2c0,0.5,0.2,1.1,0.5,1.5c0.2,0.5,0.7,0.9,1.1,1.3c0.6,0.5,1.2,0.7,2,0.8c0.4,0,0.6,0,1.2-0.1
	c0.6-0.1,0.6-0.1,1-0.3c0.3-0.1,0.5-0.2,0.7-0.4c0.1-0.1,0.2-0.2,0.3-0.2c0,0,0.1,0,0.2,0.1c0.1,0,0.2,0.1,0.3,0.2
	c0.2,0.1,0.2,0.1,0.2,0.2c-0.1,0.2-0.1,0.3-0.2,0.6c-0.2,0.4-0.2,0.5-0.3,0.9c-0.1,0.2-0.2,0.4-0.2,0.6c-0.2,0.5-0.6,1.5-0.7,1.9
	c0,0.1-0.1,0.2-0.1,0.2c0,0-0.1,0-0.2-0.1c-0.1-0.1-0.4-0.3-0.6-0.5c-0.2-0.1-0.8-0.5-1.2-0.7c-0.4-0.2-1.4-0.7-1.8-0.8
	c-0.4-0.2-0.9-0.4-1.3-0.5c-0.3-0.1-0.9-0.3-1.4-0.4c-0.7-0.2-2-0.5-2.7-0.6c-0.1,0-0.4-0.1-0.7-0.1c-0.2,0-0.6-0.1-0.7-0.1
	c-0.2,0-0.4-0.1-0.6-0.1c-0.5-0.1-1.5-0.2-2-0.3c-0.2,0-0.4,0-0.5-0.1c-0.1,0-0.3,0-0.4,0c-0.1,0-0.4,0-0.6,0c-0.6,0-1.1-0.1-0.9,0
	c0.4,0.1,0.5,0.1,0.8,0.1c0.2,0,0.4,0.1,0.6,0.1c0.2,0,0.4,0.1,0.5,0.1c0.1,0,0.3,0.1,0.4,0.1c0.5,0.1,0.7,0.1,1,0.2
	c0.7,0.1,0.7,0.1,1.7,0.3c0.2,0,0.5,0.1,0.7,0.1c0.2,0,0.4,0.1,0.6,0.1c0.6,0.1,0.7,0.1,1,0.2c0.2,0,0.7,0.1,1.3,0.3l0,0
	c0,0.1,0,0.1,0,0.2c0.1,0.4-0.1,0.9-0.4,1.1c0,0,0,0,0,0c0.1-0.3,0.3-0.5,0.3-0.8c-0.3-0.1-0.5-0.1-0.8-0.2
	c-0.9-0.2-1.7-0.4-2.2-0.5c-0.1,0-0.3,0-0.4-0.1c-0.1,0-0.2,0-0.3,0c-0.1,0-0.3,0-0.4,0c-0.1,0-0.3,0-0.4-0.1
	c-0.3-0.1-0.8-0.1-1-0.2c-0.1,0-0.2,0-0.3,0c-0.2,0-0.7-0.1-1.1-0.1c-0.1,0-0.3,0-0.4,0c-0.4,0-0.8,0-1.2,0c-0.2,0-0.5,0-0.7,0
	c-0.3,0-0.8,0-1,0c-2.1,0.1-2.7,0.2-3.7,0.4c-0.1,0-0.3,0.1-0.4,0.1c-0.2,0-0.7,0.1-0.9,0.1c-0.1,0-0.2,0-0.3,0c-0.1,0-0.2,0-0.3,0
	c-0.1,0-0.2,0-0.3,0.1c-0.1,0-0.3,0.1-0.4,0.1c0,0-0.1,0-0.1,0c0,0.1,0,0.2,0,0.3c0,0.2,0.1,0.3,0.2,0.4c0,0,0,0,0,0c0,0,0,0,0,0
	c0,0,0.1,0,0.1,0.1c0,0,0,0,0,0c-0.1,0-0.2-0.1-0.2-0.1c-0.1-0.1-0.1-0.2-0.2-0.3c0,0,0,0,0,0c-0.1-0.2-0.1-0.3,0-0.4
	c0-0.1,0-0.2,0.1-0.3c0.2,0,0.4-0.1,0.8-0.2c0.4-0.1,0.7-0.2,1-0.2c0.1,0,0.2,0,0.3-0.1c0.2-0.1,1-0.2,1.3-0.3
	c0.2,0,0.5-0.1,0.7-0.1c0.4-0.1,0.6-0.1,0.6-0.1l0,0l0,0c0,0-0.1,0-0.3,0c-0.1,0-0.4,0-0.6,0.1c-0.2,0-0.5,0.1-0.6,0.1
	c-0.1,0-0.3,0-0.3,0c-0.1,0-0.7,0.1-0.8,0.1c0,0-0.2,0-0.4,0.1c-0.2,0-0.3,0.1-0.4,0.1c-0.1,0-0.1,0-0.1,0c0,0-0.5,0.1-1.4,0.2
	c-0.3,0.1-1,0.2-1.2,0.2c-0.1,0-0.3,0.1-0.4,0.1C70.3,20.9,70.2,21,70,21c-0.1,0-0.3,0.1-0.4,0.1c-0.5,0.1-1.2,0.4-1.7,0.6
	c-0.6,0.2-1.4,0.6-2.3,1c-1,0.4-1.7,0.9-2.2,1.3C63.4,24,63.3,24.1,63.3,24.1z M61.4,19.5c0,0,0-0.1,0-0.1c0-0.1,0-0.1,0.2-0.2
	c0.2-0.1,0.5-0.3,0.5-0.2c0,0,0,0,0,0c0,0.1-0.1,0.2-0.2,0.2c-0.1,0-0.2,0.1-0.3,0.2C61.6,19.4,61.5,19.4,61.4,19.5
	C61.5,19.5,61.4,19.5,61.4,19.5z M61.1,19C61.1,18.9,61.1,18.9,61.1,19c0-0.1,0.2-0.2,0.2-0.2c0,0,0,0,0,0c0,0,0.1-0.1,0.2-0.1
	c0.1-0.1,0.2-0.1,0.2-0.1c0.1-0.1,0.2,0,0.1,0.1c0,0-0.3,0.2-0.6,0.4C61.2,19,61.1,19,61.1,19C61.1,19,61.1,19,61.1,19z M61.6,17.3
	c-0.1,0-0.2,0.1-0.4,0.3c-0.1,0.1-0.2,0.3-0.2,0.3c0,0,0,0.1,0,0.1c0,0,0-0.1,0-0.5c0-0.3,0.1-0.3,0.2-0.5c0.1-0.1,0.1-0.1,0.3-0.2
	c0,0,0.1,0,0.2,0c0.1,0,0.3,0,0.4,0.1c0.1,0.1,0.1,0.1,0.1,0.1c0,0-0.1,0-0.1,0c-0.4,0.1-0.7,0.5-0.7,0.9l0,0.1l-0.1,0.1
	c-0.1,0.1-0.1,0.1-0.1,0c0-0.2,0-0.3,0.1-0.4c0-0.2,0.1-0.2,0.1-0.3C61.5,17.4,61.6,17.3,61.6,17.3C61.7,17.3,61.7,17.3,61.6,17.3z
	 M68.4,15.4c0,0,0.2-0.1,0.3-0.2c0.5-0.2,0.7-0.3,0.8-0.2c0,0,0.1,0.1,0.1,0.1c0,0.1-0.5,0.3-0.9,0.4c-0.1,0-0.1,0-0.2,0
	C68.4,15.5,68.4,15.4,68.4,15.4z M67.8,14.8c0.2,0,0.3,0,0.4,0c0.2,0,0.2,0.1,0.1,0.1c-0.1,0-0.1,0.1-0.2,0c-0.1,0-0.3,0-0.5,0.1
	c-0.1,0.1-0.2,0.2-0.2,0.3c0,0.1-0.1,0.1-0.1,0c-0.1-0.2,0-0.4,0.1-0.6c0.1-0.1,0.4-0.3,0.6-0.3c0.2,0,0.5,0,0.6,0.1
	c0.1,0.1,0.1,0.1-0.1,0.1C68.3,14.6,68.1,14.6,67.8,14.8C67.7,14.8,67.7,14.8,67.8,14.8z M67.3,13.1c0-0.1-0.1-0.2-0.1-0.4
	c0-0.1,0-0.3,0-0.3c0,0,0.1-0.2,0.1-0.3c0.1-0.3,0.2-0.6,0.2-0.6c0,0,0,0,0,0c0.1,0.1,0.4,0.2,0.6,0.3c0.4,0.2,0.5,0.3,0.6,0.5
	c0.1,0.1,0.1,0.3,0.1,0.5c0,0.1,0,0.2,0,0.2c0,0.3,0,0.7,0,0.8c0,0.1,0,0.1,0-0.1c0-0.3-0.1-0.6-0.1-0.8c-0.1-0.2-0.3-0.6-0.4-0.7
	c0,0,0-0.1-0.1-0.1c-0.1-0.1-0.1,0,0,0.1c0.2,0.3,0.3,0.5,0.3,0.7c0,0.1,0,0.6,0,0.6c0,0,0,0-0.1-0.3c-0.1-0.3-0.4-0.8-0.4-0.8
	c0,0-0.1-0.1-0.1-0.2c-0.1-0.2-0.2-0.3-0.2-0.3c0,0-0.2,0.4-0.2,0.6c0,0.2,0,0.2,0,0.4c0,0.1,0.1,0.3,0.3,0.5
	c0.2,0.2,0.2,0.3,0.4,0.5c0.1,0.1,0.1,0.1,0.1,0.1c0,0-0.1-0.1-0.3-0.2c-0.1-0.1-0.2-0.2-0.2-0.2C67.6,13.5,67.4,13.3,67.3,13.1z
	 M68.4,14c0,0,0,0-0.2-0.1c-0.4-0.5-0.6-0.8-0.6-1.1c0,0,0-0.1,0-0.1c0-0.1,0-0.2,0.1-0.2c0,0,0,0,0,0.1c0,0.1,0,0.1,0,0.1
	c0,0,0,0,0,0c0,0,0,0,0,0.1c0,0,0,0.1,0,0.1c0,0.1,0,0.2,0.1,0.3c0.1,0.2,0.3,0.5,0.4,0.6C68.4,13.8,68.5,14,68.4,14z M69,14.4
	c0.1-0.2,0.3-0.4,0.4-0.4c0,0,0.1,0,0.1-0.1c0.2-0.1,0.3-0.1,0.5,0c0.1,0,0.2,0.1,0.2,0.2c0,0.1,0,0.1,0,0.1c-0.2,0-0.5,0.2-0.6,0.3
	c0,0.1,0,0.1-0.1,0.1c0,0-0.1,0-0.1,0c-0.1,0-0.1,0,0-0.1c0.1-0.1,0.1-0.2,0.2-0.3c0,0,0.1,0,0.1-0.1c0,0,0,0-0.1,0
	C69.4,14.2,69.2,14.3,69,14.4C69.1,14.4,69,14.5,69,14.4C69,14.5,69,14.4,69,14.4z M68.7,16c0,0,0.3-0.2,0.5-0.2
	c0.1,0,0.2-0.1,0.3-0.1c0.2-0.1,0.2-0.1,0.3-0.1c0,0,0,0,0,0c0,0,0,0-0.2,0.1C69.4,15.8,69,16,68.9,16C68.8,16.1,68.7,16.1,68.7,16
	C68.7,16,68.7,16,68.7,16z M78.3,9.7c0.1,0,0.1,0,0.2,0c0,0,0.1,0,0.1,0c0.1,0,0.3,0,0.4,0.1c0.1,0.1,0.3,0.1,0.2,0.2c0,0,0,0-0.1,0
	c-0.1,0-0.4,0-0.6,0c-0.2,0-0.4,0.1-0.6,0.1c-0.1,0.1-0.1,0.1-0.1,0c0,0,0.1-0.2,0.2-0.3c0.2-0.3,0.6-0.6,0.8-0.6
	c0.1,0,0.3-0.1,0.4-0.1c0.1,0,0.1,0,0.6,0.1c0.1,0,0.1,0,0.1,0c0,0-0.2-0.4-0.5-0.6c-0.1-0.1-0.1-0.1-0.1-0.2c0,0-0.1-0.1-0.1-0.2
	C79.1,8,79,7.9,79,7.8c-0.1-0.1-0.1-0.2-0.1-0.4c0-0.2,0-0.2,0.1-0.4l0.1-0.3l0.1-0.3c0.1-0.3,0.3-0.5,0.4-0.8
	c0.1-0.1,0.2-0.3,0.2-0.4C80,5,80,5,80.1,5c0,0,0.1,0.1,0.2,0.2c0,0.1,0.2,0.3,0.3,0.6c0.2,0.4,0.4,0.8,0.5,1
	c0.1,0.1,0.1,0.4,0.1,0.6c0,0.2,0,0.4-0.1,0.5c-0.1,0.1-0.3,0.4-0.4,0.5c-0.1,0.1-0.1,0,0-0.2c0.2-0.5,0.2-0.9,0-1.4
	c-0.1-0.1-0.1-0.2-0.2-0.5c-0.1-0.1-0.1-0.3-0.2-0.3c-0.1-0.3-0.3-0.5-0.3-0.4c0,0,0,0.1,0,0.1c0,0,0,0.1,0,0.1c0,0,0,0.2,0,0.4
	c0,0.2,0,0.4,0,0.5c0,0.3,0,0.9,0,1.1c0,0.1,0,0.3,0,0.4c0,0.1,0,0.2,0,0.2c0,0-0.4-0.3-0.5-0.5c-0.1-0.1-0.2-0.3-0.2-0.5
	c0-0.1,0-0.2,0-0.3c0-0.2,0-0.2,0-0.4c0-0.2,0-0.2,0-0.1c0,0,0,0,0,0.1c0,0-0.1,0.3-0.2,0.5c-0.1,0.2-0.1,0.3,0,0.5
	c0,0.1,0,0.1,0.2,0.4c0.1,0.2,0.2,0.3,0.3,0.5C79.9,8.7,80,8.7,80,8.8c0.1,0.2,0.1,0.3,0.1,0.3c0,0.1,0,0.6-0.1,0.6c0,0,0,0,0,0
	c-0.1-0.1-0.4-0.3-0.5-0.3c-0.1-0.1-0.4-0.1-0.5-0.1c-0.1,0-0.3,0-0.5,0.1c-0.2,0.1-0.4,0.2-0.4,0.3C78.2,9.7,78.2,9.7,78.3,9.7z
	 M81.4,9c0.3,0.1,0.6,0.4,0.8,0.7c0.1,0.1,0.1,0.3,0.1,0.3c0,0,0,0-0.1,0c-0.1-0.1-0.6-0.2-0.6-0.2c-0.3,0-0.5,0-0.7,0.1
	c0,0-0.1,0-0.1,0c-0.1,0,0.3-0.2,0.4-0.2c0.2-0.1,0.5,0,0.7,0c0.1,0,0.1,0,0.1,0c0,0-0.2-0.1-0.3-0.2c-0.3-0.1-0.5-0.2-0.7-0.2
	c-0.1,0-0.3,0-0.4,0.1c0,0-0.1,0-0.1,0c0,0,0.1-0.2,0.2-0.3C80.9,9.1,81.1,9,81.2,9C81.3,9,81.3,9,81.4,9z M79.5,11.1
	c0,0,0.1,0,0.2,0c0.1,0,0.2,0,0.2,0c0,0,0.1,0,0.2,0c0,0,0.2,0,0.2,0c0.2,0,0.3,0,0.2,0.1c0,0.1,0,0.1-0.1,0.1c-0.1,0-0.4,0-0.6,0
	c-0.2,0-0.3,0-0.3,0C79.5,11.2,79.5,11.1,79.5,11.1z M80.6,8.3C80.6,8.3,80.5,8.4,80.6,8.3C80.5,8.3,80.5,8.3,80.6,8.3
	c-0.1,0,0-0.1,0-0.1c0,0,0-0.1,0-0.2c0-0.2,0-0.4,0-0.6c0,0,0-0.1,0-0.3c0-0.2-0.1-0.3-0.1-0.3c0,0,0,0,0,0c0,0,0,0,0,0
	c0,0-0.1-0.3-0.1-0.3c0,0,0-0.1,0-0.1c0,0,0,0,0,0c0,0,0.1,0.2,0.1,0.2c0,0,0,0.1,0.1,0.2c0,0,0,0.1,0.1,0.2c0,0.1,0,0.2,0.1,0.3
	c0,0.1,0.1,0.2,0.1,0.2c0,0,0,0.2,0,0.3c0,0,0,0.1,0,0.2C80.7,7.9,80.6,8.2,80.6,8.3z M80.1,10.4c0.1,0,0.4,0,0.5,0
	c0.1,0,0.2,0.1,0.1,0.1c0,0.1-0.1,0.1-0.3,0.1c-0.1,0-0.2,0-0.3,0c-0.1,0-0.1,0-0.2,0c0,0-0.1,0-0.2,0c-0.1,0-0.2,0-0.2,0
	c0,0-0.1-0.1-0.1-0.1C79.5,10.4,79.6,10.4,80.1,10.4z M89.8,14.2c0,0,0.1-0.1,0.2-0.2c0,0,0.1-0.1,0.2-0.1c0.1,0,0.1,0,0.3,0
	c0.2,0.1,0.5,0.2,0.5,0.3c0.1,0.1,0.1,0.4,0.1,0.4c0,0,0,0-0.1-0.1c-0.1-0.2-0.3-0.3-0.6-0.4l-0.1,0l0,0c0,0,0.1,0,0.1,0
	c0,0,0.1,0,0.1,0.1c0.1,0.1,0.2,0.3,0.2,0.3c0,0,0,0-0.1,0c0,0-0.1,0-0.1,0c-0.1,0-0.1,0-0.1-0.1c0,0-0.1-0.1-0.1-0.1
	c-0.1-0.1-0.2-0.2-0.4-0.2C89.9,14.2,89.8,14.2,89.8,14.2z M92.5,11.7c0,0,0.1,0.1,0.1,0.3c0.3,0.8,0.3,0.9,0.2,1.2
	c0,0.2-0.1,0.2-0.1,0.3c0,0.1-0.1,0.2-0.2,0.2c-0.1,0.1-0.5,0.5-0.5,0.5c0,0,0-0.1,0.1-0.1c0-0.1,0.1-0.2,0.2-0.3
	c0.1-0.1,0.1-0.2,0.1-0.4c0.1-0.3,0.1-0.5,0-0.7c0-0.1,0-0.1,0-0.1c0-0.1,0-0.2,0-0.2c0,0,0,0-0.1,0.2c-0.1,0.3-0.2,0.4-0.3,0.7
	c-0.1,0.2-0.2,0.3-0.2,0.4c0,0-0.1,0.2-0.1,0.2c-0.1,0.2-0.1,0.2-0.1,0c-0.1-0.4-0.1-0.6,0-0.9c0-0.1,0.1-0.2,0.2-0.3
	c0.1-0.1,0.1-0.1,0.2-0.2c0,0,0,0,0,0c0,0-0.2,0.1-0.3,0.2c-0.1,0.1-0.2,0.2-0.2,0.3c-0.1,0.2-0.1,0.5-0.2,0.9c0,0,0,0.1,0,0.1
	c0,0,0-0.1,0-0.2c0-0.1,0-0.2,0-0.3c0-0.4,0-0.7,0.1-0.8c0.1-0.2,0.2-0.3,0.4-0.4c0.4-0.2,0.6-0.4,0.7-0.4
	C92.5,11.7,92.5,11.7,92.5,11.7z M92.8,15.4c0,0.1,0,0.1,0,0.1c0,0,0,0,0,0c0,0,0-0.1-0.1-0.1c-0.1-0.2-0.2-0.3-0.4-0.3
	c-0.1,0-0.1,0-0.2,0c-0.1,0-0.1,0-0.2,0c-0.1,0-0.1-0.1,0-0.1c0.1-0.1,0.2-0.1,0.3-0.1c0.1,0,0.1,0,0.2,0c0.1,0,0.1,0,0.1,0
	c0,0,0,0,0,0c-0.1-0.1-0.2-0.1-0.4-0.2c-0.2-0.1-0.2-0.1-0.1-0.1c0,0,0,0,0.1,0c0,0,0.1,0,0.1,0c0.1,0,0.1,0,0.2,0
	c0.3,0.1,0.4,0.2,0.5,0.3C92.8,15.1,92.8,15.2,92.8,15.4z M91.4,15.6c-0.3-0.1-0.7-0.3-0.8-0.4c0,0,0-0.1,0-0.1c0,0,0.2,0,0.3,0.1
	c0,0,0.1,0.1,0.3,0.1c0.3,0.1,0.4,0.2,0.5,0.2c0,0,0,0,0,0.1c0,0,0,0.1-0.1,0.1C91.6,15.6,91.6,15.6,91.4,15.6z M91.4,16.1
	c0,0,0,0-0.1,0c-0.1,0-0.3-0.1-0.5-0.2c-0.4-0.2-0.4-0.2-0.4-0.3c0,0,0,0,0.1,0c0.1,0,0.1,0,0.2,0c0,0,0.2,0.1,0.3,0.1
	c0.2,0.1,0.4,0.2,0.5,0.3C91.4,16,91.4,16.1,91.4,16.1z M92.3,12.8C92.3,12.7,92.3,12.7,92.3,12.8C92.3,12.7,92.3,12.7,92.3,12.8
	c0,0.1,0,0.2,0,0.2c0,0.1-0.1,0.6-0.2,0.6c0,0,0,0-0.1,0.1c0,0.1-0.1,0.2-0.2,0.2c-0.1,0.1-0.1,0,0-0.1c0.1-0.1,0.1-0.1,0.2-0.2
	c0,0,0,0,0-0.1C92.1,13.6,92.3,12.9,92.3,12.8z M97.8,17.3c0,0,0.2-0.2,0.2-0.2c0.2-0.1,0.4-0.1,0.6,0c0.1,0,0.2,0.1,0.3,0.2
	c0,0,0.1,0.1,0.1,0.2c0.1,0.2,0.1,0.3,0.1,0.4c0,0,0,0.1,0,0.1c0,0.1,0,0.4-0.1,0.5c0,0,0,0,0,0c0,0,0,0,0-0.1c0-0.1,0-0.3-0.1-0.5
	c-0.1-0.2-0.1-0.2-0.2-0.3c-0.1-0.1-0.3-0.3-0.3-0.3c0,0,0,0.1,0.1,0.2c0,0.1,0.1,0.2,0.1,0.3c0,0.2,0,0.5,0,0.5
	c0,0-0.1-0.1-0.1-0.1c0-0.3-0.1-0.5-0.3-0.7c-0.1-0.1-0.2-0.2-0.4-0.2C97.8,17.3,97.8,17.3,97.8,17.3z M100.4,14.9
	c0.2-0.1,1.2-0.4,1.2-0.4c0,0,0,0-0.1,0.2c-0.2,0.3-0.3,0.4-0.5,0.7c-0.3,0.5-0.6,1-1.1,1.7c-0.1,0.2-0.2,0.3-0.2,0.3c0,0,0,0,0,0
	c0-0.1,0-0.3,0-0.4c0,0,0-0.1,0-0.2c0-0.2,0.1-0.7,0.2-0.8c0.2-0.4,0.3-0.5,0.6-0.8c0,0,0.1-0.1,0.1-0.1c0,0-0.4,0.2-0.6,0.3
	c-0.2,0.2-0.4,0.5-0.5,0.8c0,0.1-0.1,0.2-0.1,0.2c0,0.1-0.1,0.2-0.1,0.2c0,0.1-0.1,0.1-0.1,0.1c0,0,0-0.1,0-0.1c0-0.3,0-0.5,0.1-0.7
	c0.1-0.3,0.1-0.4,0.2-0.5C100,15.2,100.1,15,100.4,14.9z M99,19.2C99,19.2,98.9,19.2,99,19.2c-0.1,0-0.7-0.4-0.8-0.4c0,0,0,0,0-0.1
	c0,0,0-0.1,0.1-0.1c0,0,0.1,0.1,0.2,0.1c0.1,0.1,0.3,0.2,0.3,0.2C98.9,19,99,19,99,19C99,19.1,99,19.1,99,19.2z M97.9,19.1
	c0.1,0,0.3,0.1,0.4,0.2c0.1,0,0.1,0.1,0.2,0.1c0.1,0.1,0.1,0.1,0.1,0.1c0,0,0,0.1,0,0.1c0,0-0.1,0-0.2-0.1c-0.1,0-0.2-0.1-0.3-0.2
	c-0.1-0.1-0.2-0.1-0.2-0.2C97.9,19.1,97.9,19,97.9,19.1z M96.8,25.9c-0.1,0.1-0.2,0.1-0.3,0c-0.1,0-0.3-0.1-0.5-0.3
	c-0.5-0.4-0.9-0.7-1.2-0.9c-0.3-0.2-1-0.6-1.3-0.7c-0.3-0.1-0.9-0.4-1.3-0.6c-0.4-0.2-0.4-0.2-0.7-0.3c-0.1,0-0.3-0.1-0.3-0.1
	l-0.1,0l0.1,0c0.2,0,0.8,0.2,1.6,0.5c0.7,0.3,0.8,0.3,1.3,0.6c0.5,0.3,1.3,0.8,1.8,1.2c0.3,0.2,0.3,0.3,0.5,0.3
	c0.2,0.1,0.2,0.1,0.3-0.1c0-0.1,0.1-0.2,0-0.3c0-0.1-0.1-0.3-0.2-0.4c-0.1-0.1-0.3-0.3-0.3-0.3c0,0,0,0,0,0.1c0,0.1,0.1,0.2,0.1,0.2
	c0,0-0.1-0.1-0.2-0.2c-0.7-0.5-1.3-0.9-2.1-1.3c-0.1,0-0.2-0.1-0.3-0.1c-0.2-0.1-0.9-0.5-1.5-0.7c-0.1,0-0.6-0.2-0.9-0.3
	c-0.1,0-0.3-0.1-0.4-0.1c-0.4-0.1-0.8-0.2-1.2-0.4c0-0.1,0-0.3,0-0.4c0.6,0.2,0.8,0.2,1.1,0.3c1,0.3,1.9,0.7,3.3,1.4
	c0.2,0.1,0.4,0.2,0.4,0.2c0,0,0.1,0,0.1,0.1c0.2,0.1,1,0.6,1.3,0.8c0.5,0.3,0.8,0.7,0.9,1C97,25.4,96.9,25.8,96.8,25.9z M95.8,30.4
	c0,0.1,0,0.2-0.1,0.2c-0.1,0.1-0.2,0.2-0.2,0.2c-0.1,0-0.1,0-0.2,0c-0.2-0.1-0.5-0.2-0.9-0.5c-0.4-0.2-0.6-0.4-0.8-0.5
	c-0.2-0.1-0.4-0.2-0.5-0.3c-0.3-0.2-1.1-0.6-1.6-0.8c-0.2-0.1-0.2-0.1-0.2-0.1c0,0,0.5,0.1,0.7,0.2c0.4,0.1,1.1,0.5,1.2,0.6
	c0,0,0.1,0.1,0.3,0.1c0.3,0.1,0.2,0.1,0.5,0.3c0.1,0.1,0.3,0.2,0.4,0.3c0.1,0,0.2,0.1,0.3,0.2c0.2,0.1,0.2,0.1,0.3,0.1
	c0.1,0,0.2,0,0.3,0c0.1,0,0.1-0.1,0.1-0.2c0-0.1,0-0.3-0.2-0.5c-0.1-0.1-0.2-0.2-0.2-0.2c0,0,0,0,0,0.1c0,0.1,0,0.1,0,0.1
	c0,0-0.2-0.1-0.5-0.3c-0.2-0.2-0.5-0.4-0.7-0.4c-0.8-0.5-0.9-0.6-1.4-0.8c-0.4-0.2-0.5-0.2-0.7-0.3c-0.1,0-0.2-0.1-0.3-0.1
	c-0.1,0-0.2-0.1-0.4-0.1c-0.2-0.1-0.3-0.1-0.5-0.2c-0.4-0.2-0.8-0.3-1.5-0.5c-0.6-0.1-0.9-0.2-1.5-0.3c-0.2,0-0.4-0.1-0.6-0.1
	c-0.2,0-0.3-0.1-0.4-0.1c-0.1,0-0.3,0-0.4-0.1c0,0,0,0,0,0c0-0.2,0-0.3,0-0.5c0.1,0,0.3,0.1,0.4,0.1c0.1,0,0.2,0,0.3,0.1
	c0.1,0,0.3,0,0.3,0.1c0.3,0,2.2,0.5,2.7,0.7c0.2,0,0.4,0.1,0.5,0.2c0.6,0.2,1.5,0.5,2.2,0.8c0.7,0.3,0.8,0.4,1.6,0.8
	c0.7,0.4,1.2,0.8,1.4,1c0,0.1,0.1,0.1,0.1,0.2c0.1,0.1,0.1,0.2,0.2,0.4C95.8,30.3,95.8,30.3,95.8,30.4z M90.6,29.2c0,0,0,0-0.2-0.2
	c-0.1-0.1-0.2-0.3-0.3-0.4c0.1,0,0.1,0.1,0.2,0.1C90.5,28.9,90.6,29.1,90.6,29.2z M65.9,30.5C65.9,30.5,65.9,30.5,65.9,30.5
	C65.9,30.5,65.9,30.5,65.9,30.5z M84.7,26.9c0,0,0.1-0.1,0.1-0.2l0.5,0.1c0.1,0,0.2,0,0.3,0.1c0.1-0.2,0.1-0.4,0.1-0.7
	c-0.3-0.1-0.5-0.1-0.8-0.1c0-0.2-0.1-0.3-0.1-0.5c0.3,0.1,0.6,0.1,0.8,0.1c0,0,0.1,0,0.1,0c0,0,0,0,0,0c0,0,0.1,0,0.1,0
	c0,0.1,0,0.1,0,0.2c0.1,0.4-0.2,1-0.4,1.2c0,0-0.1,0,0,0c0-0.1,0.1-0.2,0.1-0.2C85.2,27,85,26.9,84.7,26.9z M85.9,27.1
	C85.9,27,85.9,27,85.9,27.1C85.9,27,86,27,86,27c0.2,0,0.5,0.1,0.6,0.2c0.1,0,0.1,0-0.4,0C86.1,27.1,86,27.1,85.9,27.1z M94,31
	L94,31L94,31c0-0.1,0-0.2,0-0.2c0-0.1,0-0.2,0-0.3c0,0,0,0,0,0c0.1,0,0.1,0.1,0.2,0.1l0,0.2C94,30.9,94,31,94,31z M96.2,28.1
	c-0.1,0.1-0.2,0.3-0.3,0.4c0,0-0.1,0-0.1,0c-0.1,0-0.1,0-0.2,0c-0.1,0-0.2,0-0.2,0c-0.2-0.1-0.4-0.3-0.4-0.5c0-0.1,0-0.2,0-0.2
	c0,0,0,0.1,0.1,0.1c0.1,0.2,0.2,0.3,0.3,0.3c0.1,0,0.3,0.1,0.4,0.1C95.8,28.3,96,28.2,96.2,28.1C96.2,28,96.2,28,96.2,28.1z
	 M95.2,27.1c0.1-0.2,0.2-0.3,0.5-0.2c0.1,0,0.1,0.1,0.2,0.1c0.2,0.3,0.2,0.3,0.2,0.5c-0.1,0.2-0.2,0.3-0.4,0.3c-0.1,0-0.2,0-0.3-0.1
	C95.2,27.5,95.2,27.2,95.2,27.1z M85.5,21.7c-0.3,0-0.6-0.1-0.9-0.1c-0.4-0.1-0.8-0.1-1.3-0.2c-0.2,0-0.6-0.1-0.7-0.1
	c-0.3,0-0.7-0.1-1.1-0.1c-0.1,0-0.3,0-0.4,0c-0.2,0-0.7,0-0.9,0c-0.1,0-0.3,0-0.4,0c-0.1,0-0.2,0-0.3,0c-0.1,0-0.2,0-0.3,0
	c-0.1,0-0.3,0-0.4,0c-0.1,0-0.4,0-0.7,0c-0.2,0-0.7,0.1-0.9,0.1c-0.3,0-0.6,0.1-0.7,0.1c-0.3,0-1,0.1-1.3,0.2
	c-0.1,0-0.4,0.1-0.6,0.1c-0.3,0-0.5,0.1-0.4,0c0,0,0.7-0.2,1.3-0.3c0.4-0.1,0.3-0.1,1.1-0.2c0.2,0,0.3-0.1,0.4-0.1
	c0.1,0,0.4-0.1,0.5-0.1c0.2,0,0.4,0,0.7-0.1c0.2,0,0.7-0.1,1.1-0.1c0.2,0,1.1,0,1.4,0c0.2,0,0.9,0.1,1.2,0.1c0.2,0,0.4,0,0.5,0
	c0.1,0,0.2,0,0.3,0c0.1,0,0.3,0,0.5,0c0.7,0.1,0.8,0.1,1,0.1c0.1,0,0.3,0.1,0.4,0.1c0.1,0,0.3,0,0.3,0.1c0.1,0,0.3,0.1,0.4,0.1
	c0.1,0,0.3,0.1,0.3,0.1c0.2,0,0.7,0.2,1.1,0.2c0.3,0.1,0.9,0.3,0.9,0.3c0,0-0.1,0-0.4-0.1C86.6,21.9,86.2,21.8,85.5,21.7z
	 M70.4,22.6c-0.1-0.1-0.2-0.3-0.2-0.5c-0.1-0.2-0.1-0.5,0-0.7c0,0,0-0.1,0.1-0.1c0.1,0,0.3-0.1,0.3-0.1c0.1,0,0.3-0.1,0.5-0.1
	c0.3-0.1,0.8-0.2,1.1-0.2c-0.1,0.1-0.1,0.3-0.1,0.4c-0.1,0-0.1,0-0.2,0c-0.3,0.1-0.6,0.1-0.8,0.2c-0.1,0-0.3,0.1-0.3,0.1
	c-0.1,0-0.1,0-0.1,0c0,0-0.1,0-0.3,0.1c0,0-0.1,0-0.1,0c0,0.1,0,0.2,0,0.3C70.3,22.2,70.4,22.4,70.4,22.6
	C70.4,22.6,70.4,22.6,70.4,22.6z M60.3,16.1c-0.1-0.3-0.2-0.5-0.4-0.7c-0.1-0.1-0.3-0.3-0.5-0.4c0,0-0.1,0-0.1-0.1c0,0,0,0,0,0
	c0,0,0,0,0,0.1c0.1,0.1,0.3,0.5,0.4,0.7c0.1,0.2,0.1,0.4,0.2,0.7c0.1,0.3,0.1,0.4,0,0.4c0,0-0.1-0.1-0.2-0.3
	c-0.5-0.8-0.9-1.4-1.3-1.9c-0.1-0.1-0.2-0.2-0.2-0.2c0,0,0,0,0.2,0c0.1,0,0.2,0.1,0.3,0.1c0.1,0,0.3,0.1,0.4,0.2
	c0.5,0.2,0.6,0.2,0.8,0.4c0.1,0.1,0.3,0.3,0.3,0.4c0.1,0.2,0.1,0.5,0.2,0.7c0,0.1,0,0.2,0,0.3c0,0.1,0,0.5,0,0.5c0,0,0,0.1,0,0.1
	c0,0,0,0,0-0.1c0,0,0-0.1-0.1-0.1s-0.1-0.2-0.1-0.3C60.4,16.4,60.4,16.2,60.3,16.1z"/>
<path class="st1" d="M94.1,38.7l2.2-2.5l0.5,0.4l-1.8,2l1.3,1.2l-0.4,0.4L94.1,38.7z M92.3,36.3l0.3-0.5l1.5,1l-0.3,0.5L92.3,36.3z
	 M91.3,36.6l2.8-2.1l0.7,0.5l-0.9,3.4L93.3,38l0.9-2.8l0,0L91.8,37L91.3,36.6z M90.4,36.1l-0.6-2l0.7,0.3l0.6,2L90.4,36.1z
	 M88.7,35.3l1.5-3l0.9,0.5c0.4,0.2,0.7,0.5,0.9,0.7c0.1,0.3,0.1,0.5,0,0.8c-0.2,0.3-0.4,0.5-0.6,0.5c-0.3,0.1-0.6,0-1-0.2l-0.8-0.4
	l0.2-0.5l0.7,0.3c0.2,0.1,0.4,0.2,0.6,0.2c0.1,0,0.3-0.1,0.3-0.3c0.1-0.2,0.1-0.3,0-0.4c-0.1-0.1-0.2-0.2-0.5-0.4l-0.4-0.2l-1.3,2.5
	L88.7,35.3z M86.8,34.6c-0.4-0.1-0.7-0.3-0.9-0.6c-0.2-0.3-0.2-0.6,0-1l0.7-2l0.6,0.2l-0.7,1.9c-0.1,0.3-0.1,0.5,0,0.6
	c0.1,0.1,0.2,0.3,0.5,0.3c0.2,0.1,0.4,0.1,0.6,0c0.1-0.1,0.3-0.2,0.3-0.5l0.7-1.9l0.6,0.2l-0.7,2c-0.1,0.4-0.3,0.6-0.6,0.7
	C87.6,34.8,87.2,34.8,86.8,34.6z M83.4,33.8l0.5-2.7l-1-0.2l0.1-0.5l2.7,0.5l-0.1,0.5l-1-0.2l-0.5,2.7L83.4,33.8z M80.2,32.8l0-0.6
	l1.8,0l0,0.6L80.2,32.8z M79.5,33.5l1.2-3.3l0.9,0l1.1,3.3l-0.7,0l-0.8-2.8h0l-0.9,2.8L79.5,33.5z M76.4,33.8L76,30.5l0.7-0.1
	l1.7,2.1l0,0L78,30.2l0.6-0.1l0.4,3.3l-0.7,0.1l-1.7-2.1l0,0l0.3,2.2L76.4,33.8z M73.6,34.4l-0.8-3.2l2.2-0.5l0.1,0.5l-1.6,0.4
	l0.2,0.8l1.5-0.3l0.1,0.5l-1.5,0.3l0.2,0.9l1.6-0.4l0.1,0.5L73.6,34.4z M72.4,34.9l-1.8-0.9l0.7-0.3l1.8,0.9L72.4,34.9z M70.6,35.5
	l-1.1-3.1l1-0.4c0.5-0.2,0.8-0.2,1.1-0.1c0.3,0.1,0.5,0.3,0.6,0.6c0.1,0.3,0.1,0.6,0,0.8c-0.1,0.2-0.4,0.4-0.8,0.6l-0.8,0.3
	l-0.2-0.5l0.7-0.3c0.2-0.1,0.4-0.2,0.5-0.3c0.1-0.1,0.1-0.3,0-0.4c-0.1-0.2-0.2-0.3-0.3-0.3c-0.1,0-0.3,0-0.6,0.1l-0.4,0.1l0.9,2.6
	L70.6,35.5z M68.7,36c0.2-0.1,0.4-0.3,0.5-0.4c0.1-0.1,0.1-0.3,0-0.4c-0.1-0.1-0.2-0.2-0.3-0.2c-0.1,0-0.3,0.1-0.6,0.2l-0.7,0.4
	l-0.3-0.4l0.7-0.4c0.2-0.1,0.3-0.2,0.4-0.3c0.1-0.1,0.1-0.2,0-0.3c-0.1-0.1-0.2-0.2-0.3-0.2c-0.1,0-0.3,0.1-0.5,0.2l-0.4,0.2l1.1,2
	L68.7,36z M68,37l-1.6-2.9l0.9-0.5c0.4-0.2,0.7-0.3,1-0.3c0.3,0,0.5,0.1,0.6,0.4C69,33.8,69,34,69,34.2c0,0.2-0.1,0.3-0.3,0.5l0,0
	c0.2-0.1,0.4-0.1,0.6-0.1c0.2,0.1,0.3,0.2,0.4,0.4c0.2,0.3,0.2,0.5,0,0.8c-0.1,0.3-0.4,0.5-0.8,0.7L68,37z M65.9,38
	c0.2-0.1,0.3-0.3,0.3-0.5c0.1-0.2,0.1-0.3,0-0.5c0-0.2-0.1-0.4-0.3-0.5c-0.2-0.2-0.3-0.3-0.5-0.4C65.3,36,65.1,36,64.9,36
	c-0.2,0-0.4,0.1-0.5,0.3c-0.2,0.1-0.3,0.3-0.3,0.5c-0.1,0.2-0.1,0.3,0,0.5c0,0.2,0.1,0.4,0.3,0.5c0.2,0.2,0.3,0.3,0.5,0.4
	c0.2,0.1,0.4,0.1,0.5,0.1C65.6,38.2,65.7,38.2,65.9,38z M66.3,38.4c-0.3,0.2-0.5,0.4-0.8,0.4c-0.3,0.1-0.6,0-0.8-0.1
	c-0.3-0.1-0.5-0.3-0.7-0.6c-0.2-0.3-0.4-0.5-0.4-0.8c-0.1-0.3,0-0.6,0.1-0.8c0.1-0.3,0.3-0.5,0.6-0.7c0.3-0.2,0.5-0.4,0.8-0.4
	c0.3-0.1,0.6,0,0.8,0.1c0.3,0.1,0.5,0.3,0.7,0.6c0.2,0.3,0.4,0.5,0.4,0.8c0.1,0.3,0,0.6-0.1,0.8C66.7,38,66.5,38.2,66.3,38.4z
	 M63.8,40.8c-0.1,0.2-0.3,0.3-0.5,0.4c-0.2,0.1-0.3,0.2-0.5,0.3L62.5,41c0.1,0,0.2-0.1,0.3-0.2c0.1-0.1,0.2-0.1,0.3-0.2
	c0.1-0.1,0.2-0.2,0.3-0.3c0.1-0.1,0.2-0.3,0.2-0.4c0-0.1,0-0.2-0.1-0.3c-0.1,0-0.1-0.1-0.2-0.1c-0.1,0-0.1,0-0.2,0
	c-0.1,0-0.2,0.1-0.2,0.1c-0.1,0.1-0.2,0.1-0.3,0.2c-0.1,0.1-0.3,0.2-0.4,0.2c-0.1,0.1-0.3,0.1-0.4,0.1c-0.1,0-0.2,0-0.3,0
	c-0.1,0-0.2-0.1-0.3-0.2c-0.2-0.2-0.3-0.4-0.3-0.7c0-0.3,0.2-0.6,0.5-0.9c0.1-0.2,0.3-0.3,0.5-0.4c0.2-0.1,0.3-0.2,0.5-0.3l0.3,0.5
	c-0.1,0.1-0.3,0.1-0.4,0.3c-0.1,0.1-0.3,0.2-0.4,0.3c-0.1,0.2-0.2,0.3-0.2,0.4c0,0.1,0,0.2,0.1,0.3c0.1,0,0.1,0.1,0.2,0.1
	c0.1,0,0.1,0,0.2,0c0.1,0,0.1-0.1,0.2-0.1c0.1,0,0.2-0.1,0.3-0.2c0.2-0.1,0.3-0.2,0.4-0.2c0.1-0.1,0.3-0.1,0.4-0.1
	c0.1,0,0.2,0,0.3,0c0.1,0,0.2,0.1,0.3,0.2c0.2,0.2,0.3,0.4,0.3,0.7C64.3,40.2,64.1,40.5,63.8,40.8z"/>
<path class="st5" d="M125.9,81l0.9-0.7l3.7,0.6l-1.2-1.7c-0.1-0.1-0.1-0.2-0.2-0.2s-0.1-0.1-0.2-0.1c-0.1,0-0.1,0-0.2,0
	c-0.1,0-0.1,0.1-0.2,0.1l-0.1,0.1l-0.1-0.1l1.2-0.9l0.1,0.1l-0.1,0.1c-0.1,0-0.1,0.1-0.1,0.1c0,0-0.1,0.1-0.1,0.1c0,0.1,0,0.1,0,0.2
	c0,0.1,0.1,0.1,0.1,0.2l1.7,2.4l-0.1,0.1l-3.9-0.7l1.3,1.8c0.1,0.1,0.1,0.2,0.2,0.2c0.1,0,0.1,0.1,0.2,0.1c0.1,0,0.1,0,0.1,0
	c0.1,0,0.1-0.1,0.2-0.1l0.1-0.1l0.1,0.1l-1.2,0.9l-0.1-0.1l0.1-0.1c0.1,0,0.1-0.1,0.1-0.1c0,0,0.1-0.1,0.1-0.1c0-0.1,0-0.1,0-0.2
	c0-0.1-0.1-0.1-0.1-0.2l-1.4-2c-0.1,0-0.2,0-0.2,0c-0.1,0-0.1,0-0.1,0c0,0-0.1,0-0.1,0c0,0-0.1,0-0.2,0.1C126.1,81,126,81,125.9,81
	L125.9,81z M126.4,84.6L126.4,84.6l-1.6,0.9l0-0.1l0.1-0.1c0.1,0,0.1-0.1,0.2-0.1c0,0,0.1-0.1,0.1-0.1c0,0,0-0.1,0-0.2
	c0-0.1-0.1-0.2-0.1-0.3l-1.1-2c0-0.1-0.1-0.1-0.1-0.2c0,0-0.1-0.1-0.1-0.1c0,0-0.1,0-0.1,0c0,0-0.1,0-0.1,0c-0.1,0-0.2,0-0.3,0.1
	l-0.1,0.1l0-0.1l1.6-0.9l0,0.1l-0.1,0.1c-0.1,0-0.1,0.1-0.2,0.1c0,0-0.1,0.1-0.1,0.1c0,0,0,0.1,0,0.2c0,0.1,0.1,0.2,0.1,0.3l1.1,2
	c0,0.1,0.1,0.1,0.1,0.2c0,0,0.1,0.1,0.1,0.1c0,0,0.1,0,0.1,0c0,0,0.1,0,0.1,0c0.1,0,0.2,0,0.3-0.1L126.4,84.6z M119.6,84.4l0.6,1.3
	l0.9-0.4c0.1-0.1,0.2-0.1,0.3-0.2c0.1-0.1,0.1-0.1,0.1-0.2c0-0.1,0-0.1,0-0.2c0-0.1,0-0.1-0.1-0.2l0.1,0l0.5,1.1l-0.1,0
	c-0.1-0.1-0.1-0.2-0.2-0.2c0-0.1-0.1-0.1-0.2-0.1c-0.1,0-0.1,0-0.2,0c-0.1,0-0.2,0.1-0.3,0.1l-0.9,0.4l0.5,1.1
	c0,0.1,0.1,0.1,0.1,0.2c0,0,0.1,0.1,0.1,0.1c0,0,0.1,0,0.1,0c0,0,0.1,0,0.2-0.1l0.7-0.3c0.1,0,0.2-0.1,0.3-0.1
	c0.1,0,0.1-0.1,0.2-0.1c0,0,0.1-0.1,0.1-0.1c0,0,0.1-0.1,0.1-0.2c0.1-0.1,0.1-0.3,0.2-0.6l0.1-0.1l0,1l-3,1.3l0-0.1l0.1-0.1
	c0,0,0.1,0,0.1-0.1c0,0,0.1-0.1,0.1-0.1c0,0,0.1-0.1,0.1-0.1c0,0,0-0.1,0-0.1c0-0.1,0-0.2-0.1-0.3l-0.9-2.1
	c-0.1-0.2-0.2-0.3-0.2-0.3c-0.1,0-0.2,0-0.4,0.1l-0.1,0.1l0-0.1l3-1.3l0.3,0.7l-0.1,0c-0.1-0.1-0.2-0.2-0.2-0.2
	c-0.1-0.1-0.1-0.1-0.2-0.1c-0.1,0-0.2,0-0.2,0c-0.1,0-0.2,0.1-0.3,0.1L119.6,84.4z M114.8,87.9c0,0,0.1,0,0.1,0c0,0,0.1,0,0.1,0
	c0.2-0.1,0.4-0.1,0.5-0.2c0.1-0.1,0.2-0.2,0.3-0.3c0.1-0.1,0.1-0.2,0.1-0.3c0-0.1,0-0.2,0-0.3c0-0.1-0.1-0.2-0.2-0.3
	c-0.1-0.1-0.2-0.1-0.3-0.2c-0.1,0-0.2,0-0.3,0c-0.1,0-0.2,0-0.4,0.1c-0.1,0-0.3,0.1-0.4,0.2L114.8,87.9z M118.3,88.6l-1.1,0.4
	l-1.9-1.1c0,0-0.1,0-0.1,0.1c0,0-0.1,0-0.1,0c0,0-0.1,0-0.1,0c0,0-0.1,0-0.1,0l0.4,1c0,0.1,0.1,0.2,0.1,0.3c0,0.1,0.1,0.1,0.1,0.1
	c0,0,0.1,0,0.2,0c0.1,0,0.1,0,0.2-0.1l0.2-0.1l0,0.1l-1.7,0.6l0-0.1l0.2-0.1c0.2-0.1,0.3-0.1,0.3-0.3c0-0.1,0-0.2-0.1-0.4l-0.8-2.1
	c-0.1-0.2-0.1-0.3-0.2-0.4c-0.1,0-0.2,0-0.4,0l-0.2,0.1l0-0.1l1.5-0.5c0.2-0.1,0.4-0.1,0.6-0.2c0.2,0,0.3-0.1,0.4-0.1
	c0.1,0,0.2,0,0.3,0c0.1,0,0.2,0,0.3,0.1c0.1,0,0.2,0.1,0.2,0.2c0.1,0.1,0.1,0.2,0.2,0.2c0.1,0.2,0.1,0.4,0,0.6
	c-0.1,0.2-0.3,0.4-0.6,0.6l1.2,0.7c0.1,0.1,0.3,0.1,0.4,0.2c0.1,0,0.2,0.1,0.3,0.1c0.1,0,0.2,0,0.3,0
	C118,88.6,118.1,88.5,118.3,88.6L118.3,88.6z M105.6,88.8l1.1-0.3l3.2,1.9l-0.5-2c0-0.1-0.1-0.2-0.1-0.3c0-0.1-0.1-0.1-0.1-0.1
	c0,0-0.1,0-0.2,0c-0.1,0-0.1,0-0.2,0l-0.1,0l0-0.1l1.4-0.4l0,0.1l-0.1,0c-0.1,0-0.1,0-0.2,0.1c-0.1,0-0.1,0.1-0.1,0.1
	c0,0,0,0.1,0,0.2c0,0.1,0,0.2,0,0.3l0.8,2.9l-0.1,0l-3.4-2l0.6,2.1c0,0.1,0.1,0.2,0.1,0.3c0,0.1,0.1,0.1,0.1,0.1c0,0,0.1,0,0.2,0
	c0.1,0,0.1,0,0.2,0l0.1,0l0,0.1l-1.4,0.4l0-0.1l0.1,0c0.1,0,0.1,0,0.2-0.1c0.1,0,0.1-0.1,0.1-0.1c0,0,0-0.1,0-0.2c0-0.1,0-0.2,0-0.3
	l-0.6-2.4c-0.1,0-0.1-0.1-0.2-0.1c0,0-0.1,0-0.1-0.1c0,0-0.1,0-0.1,0c0,0-0.1,0-0.2,0C105.9,88.8,105.8,88.8,105.6,88.8L105.6,88.8z
	 M102.9,89.4L102.9,89.4l1.5-0.4l0,0.1l-0.2,0c-0.2,0-0.3,0.1-0.3,0.2c0,0.1,0,0.2,0,0.4l0.3,1.4c0.1,0.3,0.1,0.6,0,0.8
	c0,0.1-0.1,0.2-0.1,0.3s-0.2,0.2-0.3,0.3c-0.1,0.1-0.2,0.2-0.4,0.2c-0.2,0.1-0.3,0.1-0.6,0.2c-0.2,0-0.4,0.1-0.6,0.1
	c-0.2,0-0.3,0-0.5-0.1c-0.1,0-0.3-0.1-0.3-0.2c-0.1-0.1-0.2-0.2-0.2-0.3c-0.1-0.1-0.2-0.4-0.3-0.8l-0.2-1.4c0-0.1,0-0.2-0.1-0.3
	c0-0.1-0.1-0.1-0.1-0.1c0,0-0.1,0-0.2-0.1c-0.1,0-0.1,0-0.2,0l-0.2,0l0-0.1l1.8-0.3l0,0.1l-0.2,0c-0.1,0-0.1,0-0.2,0.1
	c-0.1,0-0.1,0.1-0.1,0.1c0,0,0,0.1-0.1,0.2c0,0.1,0,0.2,0,0.3l0.3,1.5c0,0.2,0.1,0.3,0.1,0.4c0.1,0.1,0.1,0.3,0.2,0.4
	c0.1,0.1,0.2,0.2,0.4,0.2c0.2,0,0.4,0,0.6,0c0.1,0,0.3-0.1,0.4-0.1c0.1,0,0.2-0.1,0.3-0.2c0.1-0.1,0.2-0.1,0.2-0.2
	c0.1-0.1,0.1-0.2,0.1-0.2c0.1-0.2,0-0.4,0-0.8l-0.3-1.4c0-0.2-0.1-0.3-0.2-0.4c-0.1-0.1-0.2-0.1-0.4-0.1L102.9,89.4z M94.6,90.7
	c-0.2,0-0.4,0.1-0.6,0.2c-0.2,0.1-0.3,0.2-0.4,0.4c-0.1,0.2-0.2,0.3-0.2,0.5c0,0.2,0,0.4,0,0.7c0,0.2,0.1,0.5,0.2,0.7
	c0.1,0.2,0.2,0.4,0.3,0.5c0.1,0.1,0.3,0.2,0.5,0.3c0.2,0.1,0.4,0.1,0.6,0.1c0.2,0,0.4-0.1,0.5-0.1c0.2-0.1,0.3-0.2,0.4-0.3
	c0.1-0.1,0.2-0.3,0.2-0.5c0-0.2,0.1-0.5,0-0.7c0-0.3-0.1-0.5-0.2-0.7c-0.1-0.2-0.2-0.4-0.3-0.5c-0.1-0.1-0.3-0.2-0.5-0.3
	C95,90.7,94.8,90.7,94.6,90.7z M94.6,90.5c0.3,0,0.5,0,0.8,0.1c0.3,0.1,0.5,0.2,0.7,0.3c0.2,0.1,0.4,0.3,0.5,0.5
	c0.1,0.2,0.2,0.4,0.2,0.7c0,0.3,0,0.5-0.1,0.8c-0.1,0.2-0.2,0.5-0.4,0.6c-0.2,0.2-0.4,0.3-0.6,0.5c-0.2,0.1-0.5,0.2-0.8,0.2
	c-0.3,0-0.6,0-0.8,0c-0.3-0.1-0.5-0.2-0.7-0.3c-0.2-0.1-0.4-0.3-0.5-0.5c-0.1-0.2-0.2-0.5-0.2-0.7c0-0.3,0-0.5,0.1-0.7
	c0.1-0.2,0.2-0.4,0.4-0.6c0.2-0.2,0.4-0.3,0.6-0.5C94,90.6,94.3,90.6,94.6,90.5z M87.7,94.5c0.3,0,0.5,0,0.7,0
	c0.2,0,0.5-0.1,0.7-0.2c0.2-0.1,0.4-0.2,0.5-0.3c0.1-0.1,0.3-0.3,0.3-0.5c0.1-0.2,0.1-0.4,0.1-0.7c0-0.2-0.1-0.5-0.2-0.6
	c-0.1-0.2-0.2-0.3-0.4-0.5c-0.2-0.1-0.3-0.2-0.6-0.3c-0.2-0.1-0.4-0.1-0.7-0.1c-0.2,0-0.4,0-0.6,0.1L87.7,94.5z M86.5,94.8
	L86.5,94.8l0.2-0.1c0.1,0,0.1,0,0.2,0c0.1,0,0.1,0,0.1-0.1c0,0,0.1-0.1,0.1-0.2c0-0.1,0-0.2,0-0.3L87,91.9c0-0.2-0.1-0.4-0.1-0.4
	c-0.1-0.1-0.2-0.1-0.4-0.1l-0.2,0l0-0.1l1.7-0.1c0.6,0,1.1,0,1.5,0.1c0.3,0.1,0.6,0.3,0.8,0.6c0.2,0.3,0.3,0.6,0.4,0.9
	c0,0.3,0,0.5-0.1,0.7c-0.1,0.2-0.2,0.4-0.4,0.6c-0.2,0.2-0.4,0.3-0.7,0.4c-0.3,0.1-0.6,0.2-1,0.2L86.5,94.8z M80.1,91.5l1.2,0
	l2.6,2.6l0-2c0-0.1,0-0.2,0-0.3c0-0.1-0.1-0.1-0.1-0.2c0,0-0.1-0.1-0.1-0.1c-0.1,0-0.1,0-0.2,0l-0.2,0l0-0.1l1.5,0l0,0.1l-0.2,0
	c-0.1,0-0.1,0-0.2,0c-0.1,0-0.1,0-0.1,0.1c0,0-0.1,0.1-0.1,0.2c0,0.1,0,0.2,0,0.3l0,3L84,95l-2.8-2.8l0,2.2c0,0.1,0,0.2,0,0.3
	c0,0.1,0.1,0.1,0.1,0.2c0,0,0.1,0.1,0.1,0.1c0.1,0,0.1,0,0.2,0l0.2,0l0,0.1l-1.5,0l0-0.1l0.1,0c0.1,0,0.1,0,0.2,0
	c0.1,0,0.1,0,0.1-0.1c0,0,0.1-0.1,0.1-0.2c0-0.1,0-0.2,0-0.3l0-2.5c-0.1-0.1-0.1-0.1-0.2-0.1c0,0-0.1-0.1-0.1-0.1c0,0-0.1,0-0.1-0.1
	c0,0-0.1,0-0.2,0C80.3,91.6,80.2,91.6,80.1,91.5L80.1,91.5z M76.1,91.6l0,1.4l0.9,0c0.1,0,0.2,0,0.3,0c0.1,0,0.2,0,0.2-0.1
	c0.1,0,0.1-0.1,0.1-0.2c0-0.1,0-0.1,0-0.2l0.1,0l0,1.2l-0.1,0c0-0.1,0-0.2,0-0.3c0-0.1,0-0.1-0.1-0.2c0,0-0.1-0.1-0.2-0.1
	c-0.1,0-0.2,0-0.3,0l-0.9,0l0,1.2c0,0.1,0,0.2,0,0.2c0,0.1,0,0.1,0,0.1c0,0,0.1,0,0.1,0.1c0,0,0.1,0,0.2,0l0.7,0c0.1,0,0.2,0,0.3,0
	c0.1,0,0.2,0,0.2,0c0.1,0,0.1,0,0.2-0.1c0,0,0.1-0.1,0.2-0.1c0.1-0.1,0.3-0.3,0.4-0.5l0.1,0L78.1,95l-3.3-0.1l0-0.1l0.1,0
	c0,0,0.1,0,0.1,0c0,0,0.1,0,0.1,0c0,0,0.1,0,0.1-0.1c0,0,0.1,0,0.1-0.1c0-0.1,0-0.2,0-0.3l0.1-2.3c0-0.2,0-0.4-0.1-0.4
	c-0.1-0.1-0.2-0.1-0.4-0.1l-0.1,0l0-0.1l3.3,0.1l0,0.8l-0.1,0c0-0.1-0.1-0.2-0.1-0.3c0-0.1-0.1-0.1-0.1-0.2s-0.1-0.1-0.2-0.1
	c-0.1,0-0.2,0-0.4,0L76.1,91.6z M71.8,91.2l1.5,0.1l0,0.1l-0.1,0c-0.1,0-0.2,0-0.4,0.1c-0.1,0.1-0.3,0.2-0.5,0.4l-1.1,1.3L71.1,94
	c0,0.1,0,0.2,0,0.3c0,0.1,0,0.1,0.1,0.2c0,0,0.1,0.1,0.1,0.1c0.1,0,0.1,0,0.2,0l0.1,0l0,0.1l-1.8-0.1l0-0.1l0.2,0c0.1,0,0.1,0,0.2,0
	c0.1,0,0.1,0,0.1-0.1c0,0,0.1-0.1,0.1-0.1c0-0.1,0-0.2,0.1-0.3l0.1-0.8l-1-1.6c-0.1-0.1-0.1-0.2-0.2-0.2c0-0.1-0.1-0.1-0.1-0.1
	c0,0,0,0-0.1-0.1c0,0-0.1,0-0.1-0.1c0,0-0.1,0-0.1-0.1c-0.1,0-0.1,0-0.2,0l0-0.1l1.8,0.1l0,0.1l-0.1,0c0,0-0.1,0-0.1,0
	c0,0-0.1,0-0.1,0c0,0-0.1,0-0.1,0.1c0,0,0,0.1,0,0.1c0,0,0,0.1,0,0.1c0,0.1,0.1,0.1,0.1,0.2l0.8,1.2l0.9-1c0.1-0.1,0.2-0.3,0.2-0.3
	c0,0,0-0.1,0-0.1c0,0,0-0.1-0.1-0.1c0,0-0.1,0-0.1-0.1C71.9,91.3,71.8,91.3,71.8,91.2L71.8,91.2z M65.7,90.7L65.7,90.7l1.5,0.1
	l0,0.1l-0.2,0c-0.2,0-0.3,0-0.4,0.1c0,0-0.1,0.2-0.1,0.4l-0.2,1.4c0,0.3-0.1,0.6-0.2,0.8c-0.1,0.1-0.1,0.2-0.2,0.2
	c-0.1,0.1-0.2,0.1-0.3,0.2c-0.1,0-0.3,0.1-0.5,0.1c-0.2,0-0.4,0-0.6,0c-0.2,0-0.4-0.1-0.6-0.1c-0.2-0.1-0.3-0.1-0.4-0.2
	c-0.1-0.1-0.2-0.2-0.3-0.3c-0.1-0.1-0.1-0.2-0.2-0.3c0-0.2,0-0.5,0-0.9l0.2-1.4c0-0.1,0-0.2,0-0.3c0-0.1,0-0.1-0.1-0.2
	c0,0-0.1-0.1-0.1-0.1c-0.1,0-0.1,0-0.2,0l-0.2,0l0-0.1l1.8,0.2l0,0.1l-0.2,0c-0.1,0-0.1,0-0.2,0c-0.1,0-0.1,0-0.1,0.1
	c0,0-0.1,0.1-0.1,0.1c0,0.1-0.1,0.2-0.1,0.3l-0.2,1.5c0,0.2,0,0.3,0,0.5c0,0.1,0,0.3,0.1,0.4c0.1,0.1,0.2,0.2,0.3,0.3
	c0.1,0.1,0.3,0.1,0.6,0.2c0.1,0,0.3,0,0.4,0c0.1,0,0.2,0,0.4-0.1c0.1,0,0.2-0.1,0.3-0.1c0.1-0.1,0.2-0.1,0.2-0.2
	c0.1-0.1,0.2-0.4,0.2-0.8l0.2-1.4c0-0.2,0-0.4,0-0.4c-0.1-0.1-0.2-0.1-0.3-0.2L65.7,90.7z M58,91.1c0,0,0.1,0,0.1,0c0,0,0.1,0,0.1,0
	c0.2,0,0.4,0,0.5,0c0.2,0,0.3,0,0.4-0.1c0.1,0,0.2-0.1,0.3-0.2c0.1-0.1,0.1-0.2,0.1-0.3c0-0.1,0-0.2,0-0.3c0-0.1-0.1-0.2-0.1-0.3
	c-0.1-0.1-0.2-0.1-0.3-0.2c-0.1-0.1-0.2-0.1-0.4-0.1c-0.1,0-0.3,0-0.5,0L58,91.1z M60.7,93.5l-1.1-0.2l-1.1-1.9c-0.1,0-0.1,0-0.1,0
	c0,0-0.1,0-0.1,0c0,0-0.1,0-0.1,0c0,0-0.1,0-0.1,0l-0.2,1c0,0.1,0,0.2,0,0.3c0,0.1,0,0.1,0.1,0.2c0,0,0.1,0.1,0.1,0.1
	c0.1,0,0.1,0,0.2,0l0.2,0l0,0.1l-1.8-0.3l0-0.1l0.2,0c0.2,0,0.3,0,0.4-0.1c0.1,0,0.1-0.2,0.1-0.4l0.4-2.2c0-0.2,0-0.4,0-0.4
	c-0.1-0.1-0.2-0.2-0.3-0.2l-0.2,0l0-0.1l1.5,0.3c0.2,0,0.4,0.1,0.6,0.1c0.2,0,0.3,0.1,0.4,0.1c0.1,0,0.2,0.1,0.3,0.2
	c0.1,0.1,0.2,0.1,0.2,0.2c0.1,0.1,0.1,0.2,0.1,0.3c0,0.1,0,0.2,0,0.3c0,0.2-0.2,0.4-0.4,0.5c-0.2,0.1-0.5,0.2-0.8,0.2l0.7,1.2
	c0.1,0.1,0.2,0.2,0.2,0.3c0.1,0.1,0.1,0.2,0.2,0.2c0.1,0.1,0.1,0.1,0.2,0.1C60.5,93.3,60.6,93.3,60.7,93.5L60.7,93.5z M55.5,88.9
	l-0.2,0.8l-0.1,0c0-0.2,0-0.4-0.1-0.5c-0.1-0.1-0.3-0.2-0.5-0.3L54,88.7l-0.6,2.6c0,0.1,0,0.2,0,0.3c0,0.1,0,0.1,0.1,0.2
	c0,0,0.1,0.1,0.1,0.1c0.1,0,0.1,0,0.2,0.1l0.1,0l0,0.1l-1.8-0.4l0-0.1l0.1,0c0.1,0,0.1,0,0.2,0c0.1,0,0.1,0,0.2,0
	c0,0,0.1-0.1,0.1-0.1c0-0.1,0.1-0.1,0.1-0.3l0.6-2.6l-0.5-0.1c-0.1,0-0.2,0-0.3-0.1c-0.1,0-0.2,0-0.3,0c-0.1,0-0.1,0.1-0.2,0.1
	C52,88.7,52,88.8,52,88.9l-0.1,0L52,88L55.5,88.9z M49.9,87.4l-0.3,1.2l-0.1,0c0-0.3,0-0.6-0.2-0.8c-0.2-0.2-0.4-0.4-0.7-0.5
	c-0.1,0-0.2,0-0.3,0c-0.1,0-0.2,0-0.3,0.1c-0.1,0-0.1,0.1-0.2,0.1c-0.1,0.1-0.1,0.1-0.1,0.2c0,0.1,0,0.1,0,0.2
	c0,0.1,0.1,0.2,0.2,0.3c0.2,0.2,0.4,0.4,0.6,0.5c0.2,0.1,0.4,0.4,0.7,0.6c0.1,0.1,0.2,0.3,0.2,0.4c0,0.1,0,0.3,0,0.4
	c0,0.1-0.1,0.2-0.2,0.3c-0.1,0.1-0.2,0.2-0.4,0.2c-0.1,0.1-0.3,0.1-0.5,0.1c-0.2,0-0.4,0-0.5-0.1c-0.1,0-0.2-0.1-0.3-0.1
	c0,0-0.1,0-0.1-0.1c-0.1,0-0.1-0.1-0.2-0.1c-0.1,0-0.2-0.1-0.2-0.1c-0.1,0-0.1-0.1-0.1-0.1c0,0-0.1,0-0.1,0c0,0-0.1,0.1-0.1,0.1
	l-0.1,0l0.3-1.2l0.1,0c0,0.3,0,0.5,0,0.6c0,0.1,0.1,0.1,0.1,0.2c0.1,0.1,0.1,0.1,0.2,0.2c0.1,0.1,0.2,0.1,0.3,0.2
	c0.1,0.1,0.2,0.1,0.3,0.1c0.1,0,0.2,0.1,0.4,0.1c0.1,0,0.2,0,0.3,0c0.1,0,0.2-0.1,0.2-0.1c0.1-0.1,0.1-0.1,0.1-0.2
	c0-0.1,0-0.2,0-0.3c0-0.1-0.1-0.2-0.2-0.3c-0.1-0.1-0.2-0.2-0.4-0.4c-0.3-0.3-0.5-0.5-0.8-0.7c-0.1-0.1-0.2-0.3-0.2-0.4
	c0-0.1,0-0.3,0-0.4c0-0.1,0.1-0.2,0.2-0.3c0.1-0.1,0.2-0.2,0.3-0.2c0.1,0,0.3-0.1,0.4-0.1c0.2,0,0.3,0,0.5,0.1
	c0.2,0.1,0.4,0.2,0.7,0.3c0.1,0,0.1,0.1,0.1,0.1c0,0,0.1,0,0.1,0c0.1,0,0.1,0,0.1,0c0,0,0.1-0.1,0.1-0.1L49.9,87.4z M41.4,84.5
	l1.1,0.4l1.4,3.4l0.8-1.9c0-0.1,0.1-0.2,0.1-0.3c0-0.1,0-0.1,0-0.2c0,0-0.1-0.1-0.1-0.1c0,0-0.1-0.1-0.2-0.1l-0.1-0.1l0-0.1l1.4,0.6
	l0,0.1l-0.1-0.1c-0.1,0-0.1,0-0.2-0.1c-0.1,0-0.1,0-0.2,0c0,0-0.1,0.1-0.1,0.1c0,0.1-0.1,0.1-0.1,0.2l-1.1,2.8l-0.1,0l-1.5-3.7
	l-0.8,2c0,0.1-0.1,0.2-0.1,0.3c0,0.1,0,0.1,0,0.2c0,0,0.1,0.1,0.1,0.1c0,0,0.1,0.1,0.2,0.1l0.1,0.1l0,0.1l-1.4-0.6l0-0.1l0.1,0.1
	c0.1,0,0.1,0,0.2,0.1c0.1,0,0.1,0,0.2,0c0,0,0.1-0.1,0.1-0.1c0-0.1,0.1-0.1,0.1-0.2l0.9-2.3c0-0.1-0.1-0.1-0.1-0.2
	c0,0-0.1-0.1-0.1-0.1c0,0-0.1-0.1-0.1-0.1c0,0-0.1-0.1-0.1-0.1C41.6,84.6,41.5,84.6,41.4,84.5L41.4,84.5z M38.1,83
	c-0.2-0.1-0.4-0.1-0.6-0.1c-0.2,0-0.4,0-0.5,0.1c-0.2,0.1-0.3,0.2-0.5,0.3c-0.1,0.2-0.3,0.3-0.4,0.6c-0.1,0.2-0.2,0.4-0.2,0.7
	c0,0.2,0,0.4,0,0.6c0,0.2,0.1,0.3,0.2,0.5c0.1,0.1,0.3,0.3,0.5,0.4c0.2,0.1,0.4,0.1,0.5,0.2c0.2,0,0.4,0,0.5-0.1
	c0.2-0.1,0.3-0.2,0.5-0.3c0.2-0.2,0.3-0.4,0.4-0.6c0.1-0.2,0.2-0.5,0.2-0.7c0-0.2,0-0.4,0-0.6c0-0.2-0.1-0.3-0.2-0.5
	C38.5,83.2,38.3,83.1,38.1,83z M38.2,82.9c0.2,0.1,0.5,0.3,0.6,0.5c0.2,0.2,0.3,0.4,0.4,0.6c0.1,0.2,0.1,0.5,0.2,0.7
	c0,0.2-0.1,0.5-0.2,0.7c-0.1,0.2-0.3,0.4-0.5,0.6c-0.2,0.2-0.4,0.3-0.7,0.3c-0.2,0.1-0.5,0.1-0.8,0.1c-0.3,0-0.5-0.1-0.8-0.2
	c-0.3-0.1-0.5-0.3-0.7-0.5c-0.2-0.2-0.3-0.4-0.4-0.6c-0.1-0.2-0.1-0.5-0.1-0.7c0-0.3,0.1-0.5,0.2-0.7c0.1-0.2,0.3-0.4,0.5-0.6
	c0.2-0.2,0.4-0.3,0.7-0.3c0.2-0.1,0.5-0.1,0.8-0.1C37.7,82.7,38,82.7,38.2,82.9z M34.8,81L34.2,82L34.2,82c0.1-0.4,0.1-0.7,0-1
	c-0.1-0.3-0.3-0.5-0.6-0.7c-0.2-0.1-0.4-0.2-0.6-0.2c-0.2,0-0.4,0-0.6,0c-0.2,0-0.4,0.1-0.6,0.3c-0.2,0.1-0.4,0.3-0.5,0.6
	c-0.1,0.2-0.2,0.4-0.3,0.6c0,0.2,0,0.4,0,0.6c0,0.2,0.1,0.4,0.2,0.5c0.1,0.2,0.3,0.3,0.5,0.5c0.2,0.1,0.5,0.2,0.7,0.3
	c0.2,0,0.5,0,0.9-0.1l0.1,0.1c-0.4,0.1-0.7,0.2-1,0.2c-0.3,0-0.6-0.2-1-0.4c-0.3-0.2-0.5-0.4-0.6-0.6c-0.2-0.2-0.3-0.4-0.3-0.7
	c-0.1-0.2-0.1-0.5,0-0.7c0-0.2,0.1-0.5,0.3-0.7c0.2-0.3,0.4-0.5,0.8-0.7c0.3-0.1,0.7-0.2,1-0.1c0.4,0,0.7,0.2,1.1,0.4
	c0.3,0.2,0.5,0.4,0.7,0.7c0.1,0.1,0.1,0.1,0.1,0.1c0.1,0,0.1,0,0.2,0C34.6,81,34.7,81,34.8,81L34.8,81z"/>
<path class="st5" d="M132.1,76c-0.2,0.2-0.3,0.3-0.3,0.5c-0.1,0.2-0.1,0.3-0.1,0.5c0,0.2,0.1,0.4,0.2,0.5c0.1,0.2,0.2,0.4,0.4,0.5
	c0.2,0.2,0.4,0.3,0.5,0.4c0.2,0.1,0.4,0.2,0.6,0.2c0.2,0,0.4,0,0.5-0.1c0.2-0.1,0.3-0.2,0.5-0.3c0.1-0.1,0.2-0.3,0.3-0.5
	c0.1-0.2,0.1-0.3,0.1-0.5c0-0.2-0.1-0.4-0.2-0.6c-0.1-0.2-0.2-0.4-0.4-0.6c-0.2-0.2-0.4-0.3-0.6-0.4c-0.2-0.1-0.4-0.2-0.6-0.2
	c-0.2,0-0.4,0-0.5,0.1C132.5,75.8,132.3,75.9,132.1,76 M132,75.9c0.2-0.2,0.4-0.3,0.6-0.5c0.2-0.1,0.5-0.2,0.7-0.2
	c0.2,0,0.5,0,0.7,0.1c0.2,0.1,0.4,0.2,0.6,0.4c0.2,0.2,0.3,0.4,0.4,0.6c0.1,0.2,0.1,0.5,0.1,0.7c0,0.3-0.1,0.5-0.2,0.8
	c-0.1,0.2-0.3,0.5-0.5,0.7c-0.2,0.2-0.4,0.4-0.7,0.5c-0.2,0.1-0.5,0.2-0.7,0.2c-0.2,0-0.5,0-0.7-0.1c-0.2-0.1-0.5-0.2-0.7-0.4
	c-0.2-0.2-0.3-0.4-0.4-0.6c-0.1-0.2-0.1-0.5-0.1-0.7c0-0.2,0.1-0.5,0.2-0.8C131.7,76.3,131.8,76.1,132,75.9z"/>
</svg>
