<?xml version="1.0" encoding="utf-8"?>
<!-- Generator: Adobe Illustrator 24.0.2, SVG Export Plug-In . SVG Version: 6.00 Build 0)  -->
<svg version="1.1" id="Capa_1" xmlns="http://www.w3.org/2000/svg" xmlns:xlink="http://www.w3.org/1999/xlink" x="0px" y="0px"
	 viewBox="0 0 160 170" style="enable-background:new 0 0 160 170;" xml:space="preserve">
<style type="text/css">
	.st0{fill-rule:evenodd;clip-rule:evenodd;fill:#FF0000;}
	.st1{fill:#FFFFFF;}
</style>
<path class="st0" d="M43.9,31.9l54.1,0l0.3,13.7l8.7,0.3c-0.3-25.1,4-31.4-13.5-32l0-8.9l-9,0.2l0,8.7l-27.1,0
	c0-2.7-0.4-6.4,0.5-8.9l-9.3,0.2l0,8.5C36.9,15.3,34.9,13.5,35,31.1c0,10.2,0,20.5,0,30.7c0,11.6-1.8,19.6,11.2,19.6
	c6.3,0,26-0.8,30.7,0.4c-0.3-3.4-1.6-5.3-0.9-9.3l-32-0.2L43.9,31.9z"/>
<path class="st0" d="M118.4,65.5l-6.5-6.1c-2.3,2.4-4.5,4.5-7,6.9c-2.4,2.5-4.8,5.1-7,6.9l-7.1-6.8l-6.2,6.5l13.5,13.1L118.4,65.5z
	 M97.8,50.6c-28.7,6.7-20,49.4,9.2,43.9c12.6-2.4,20.2-14.6,17.6-26.7C122.3,56.8,111,47.6,97.8,50.6z"/>
<path class="st0" d="M59.3,47.1l-0.5,1.5c2.2,1.3,1.8,2.4,5.9,4.7l-1.9,9.6c2.6-1.1,5.9-3.5,8.2-4.7c2.5,1.4,5.5,3.4,8.1,4.6
	l-1.1-5.4c0-0.2-0.1-0.3-0.1-0.5c-1.2-5.1-0.5-2.9,5.3-8.4L83,47l-8.5-0.6c-0.8-2.2-3.1-6.6-2.8-8c-2,1-1-0.1-2.5,3.6
	c-0.8,1.9-1.3,2.5-1.8,4.4L59.3,47.1z"/>
<path class="st0" d="M58.9,48.6l0.5-1.5c-3,0-1-0.2-1.7,0.7C58,48.4,58.4,48.3,58.9,48.6"/>
<polygon class="st0" points="83.2,48.5 84.3,47.5 83,47 "/>
<path class="st0" d="M8.8,105h142.4c1.4,0,2.6,1.2,2.6,2.6v54.9c0,1.4-1.2,2.6-2.6,2.6H8.8c-1.4,0-2.6-1.2-2.6-2.6v-54.9
	C6.3,106.2,7.4,105,8.8,105"/>
<path class="st1" d="M140.7,140.8c-0.3,0-0.7,0-1.1-0.1c-0.4,0-0.8-0.1-1.1-0.2c-0.4-0.1-0.7-0.2-0.9-0.3l0.3-1.6
	c0.5,0.2,0.9,0.3,1.4,0.4c0.4,0.1,0.9,0.1,1.3,0.1c0.5,0,0.9-0.1,1.1-0.2c0.2-0.1,0.3-0.3,0.3-0.6c0-0.2,0-0.3-0.1-0.4
	c-0.1-0.1-0.2-0.2-0.4-0.3c-0.2-0.1-0.5-0.2-0.9-0.2c-0.6-0.2-1.2-0.3-1.6-0.6c-0.5-0.2-0.8-0.5-1-0.8c-0.2-0.3-0.4-0.7-0.4-1.2
	c0-0.7,0.3-1.3,0.8-1.7c0.6-0.4,1.4-0.6,2.4-0.6c0.5,0,1,0,1.5,0.1c0.5,0.1,1,0.2,1.5,0.3l-0.3,1.6c-0.4-0.1-0.9-0.3-1.3-0.3
	c-0.4-0.1-0.8-0.1-1.2-0.1c-0.5,0-0.9,0.1-1.1,0.2c-0.2,0.1-0.4,0.3-0.4,0.5c0,0.1,0,0.3,0.1,0.4c0.1,0.1,0.2,0.2,0.4,0.3
	c0.2,0.1,0.5,0.2,0.8,0.2c0.5,0.1,0.9,0.2,1.3,0.4c0.4,0.1,0.7,0.3,1,0.5c0.3,0.2,0.5,0.4,0.6,0.7c0.1,0.3,0.2,0.6,0.2,0.9
	c0,0.5-0.1,0.9-0.4,1.3c-0.3,0.4-0.7,0.6-1.1,0.8C141.9,140.7,141.3,140.8,140.7,140.8 M132.4,139.2c0.6,0,1.1-0.2,1.4-0.6
	c0.3-0.4,0.5-1,0.5-1.8c0-0.8-0.2-1.4-0.5-1.8c-0.3-0.4-0.8-0.6-1.4-0.6c-0.6,0-1.1,0.2-1.4,0.6c-0.3,0.4-0.5,1-0.5,1.8
	c0,0.8,0.2,1.4,0.5,1.8C131.3,139,131.8,139.2,132.4,139.2z M132.4,140.8c-1.3,0-2.3-0.3-3-1c-0.7-0.7-1-1.7-1-3c0-1.3,0.3-2.3,1-3
	c0.7-0.7,1.7-1,3-1c1.3,0,2.3,0.3,2.9,1c0.7,0.7,1,1.7,1,3c0,1.3-0.3,2.3-1,3C134.7,140.5,133.7,140.8,132.4,140.8z M125.4,140.8
	c-0.9,0-1.6-0.2-2-0.6c-0.4-0.4-0.6-1-0.6-1.9v-3.9h-1.7v-1.6h1.7v-2.5h2.1v2.5h2.5v1.6h-2.5v3.4c0,0.5,0.1,0.8,0.2,1
	c0.1,0.2,0.4,0.3,0.8,0.3c0.2,0,0.4,0,0.7-0.1c0.2,0,0.5-0.1,0.7-0.2l0.2,1.6c-0.3,0.1-0.7,0.2-1,0.2
	C126,140.8,125.7,140.8,125.4,140.8z M112.9,140.6v-7.8h2l0,0.9h0c0.3-0.4,0.7-0.6,1.1-0.8c0.4-0.2,0.9-0.3,1.5-0.3
	c0.9,0,1.6,0.3,2.1,0.8c0.4,0.5,0.7,1.3,0.7,2.4v4.8h-2.1v-4.4c0-0.6-0.1-1.1-0.3-1.4c-0.2-0.3-0.6-0.4-1-0.4c-0.4,0-0.7,0.1-1,0.2
	c-0.3,0.1-0.5,0.3-0.7,0.6c-0.2,0.2-0.2,0.5-0.2,0.9v4.6H112.9z M108.2,140.8c-1.4,0-2.5-0.3-3.2-1c-0.8-0.7-1.1-1.7-1.1-3
	c0-1.3,0.3-2.2,1-3c0.7-0.7,1.6-1.1,2.8-1.1c1.2,0,2.1,0.3,2.7,1c0.6,0.7,0.9,1.6,0.9,2.9c0,0.1,0,0.3,0,0.5c0,0.2,0,0.3,0,0.4h-6.3
	v-1.4h4.7l-0.3,0.4c0-0.8-0.1-1.4-0.4-1.7c-0.3-0.4-0.7-0.6-1.3-0.6c-0.6,0-1.1,0.2-1.4,0.6c-0.3,0.4-0.5,1-0.5,1.8v0.6
	c0,0.7,0.2,1.2,0.6,1.5c0.4,0.3,0.9,0.5,1.7,0.5c0.4,0,0.9,0,1.4-0.1c0.5-0.1,0.9-0.2,1.3-0.3l0.2,1.6c-0.4,0.1-0.8,0.3-1.3,0.4
	C109.1,140.8,108.7,140.8,108.2,140.8z M97.8,140.6l-2.6-7.8h2.2l1.8,6.4h0l1.8-6.4h2.2l-2.6,7.8H97.8z M87,140.6v-10.9h7.4v1.8
	h-5.3v2.6h5v1.7h-5v3h5.3v1.8H87z M78,140.8c-0.3,0-0.7,0-1.1-0.1c-0.4,0-0.8-0.1-1.1-0.2c-0.4-0.1-0.7-0.2-0.9-0.3l0.3-1.6
	c0.5,0.2,0.9,0.3,1.4,0.4c0.4,0.1,0.9,0.1,1.3,0.1c0.5,0,0.9-0.1,1.1-0.2c0.2-0.1,0.3-0.3,0.3-0.6c0-0.2,0-0.3-0.1-0.4
	c-0.1-0.1-0.2-0.2-0.4-0.3c-0.2-0.1-0.5-0.2-0.9-0.2c-0.6-0.2-1.2-0.3-1.6-0.6c-0.5-0.2-0.8-0.5-1-0.8c-0.2-0.3-0.4-0.7-0.4-1.2
	c0-0.7,0.3-1.3,0.8-1.7c0.6-0.4,1.4-0.6,2.4-0.6c0.5,0,1,0,1.5,0.1c0.5,0.1,1,0.2,1.5,0.3l-0.3,1.6c-0.4-0.1-0.9-0.3-1.3-0.3
	c-0.4-0.1-0.8-0.1-1.2-0.1c-0.5,0-0.9,0.1-1.1,0.2c-0.2,0.1-0.4,0.3-0.4,0.5c0,0.1,0,0.3,0.1,0.4c0.1,0.1,0.2,0.2,0.4,0.3
	c0.2,0.1,0.5,0.2,0.8,0.2c0.5,0.1,0.9,0.2,1.3,0.4c0.4,0.1,0.7,0.3,1,0.5c0.3,0.2,0.5,0.4,0.6,0.7c0.1,0.3,0.2,0.6,0.2,0.9
	c0,0.5-0.1,0.9-0.4,1.3c-0.3,0.4-0.7,0.6-1.1,0.8C79.2,140.7,78.6,140.8,78,140.8z M69.7,139.2c0.6,0,1.1-0.2,1.4-0.6
	c0.3-0.4,0.5-1,0.5-1.8c0-0.8-0.2-1.4-0.5-1.8c-0.3-0.4-0.8-0.6-1.4-0.6c-0.6,0-1.1,0.2-1.4,0.6c-0.3,0.4-0.5,1-0.5,1.8
	c0,0.8,0.2,1.4,0.5,1.8C68.6,139,69.1,139.2,69.7,139.2z M69.7,140.8c-1.3,0-2.3-0.3-3-1c-0.7-0.7-1-1.7-1-3c0-1.3,0.3-2.3,1-3
	c0.7-0.7,1.7-1,3-1c1.3,0,2.3,0.3,2.9,1c0.7,0.7,1,1.7,1,3c0,1.3-0.3,2.3-1,3C72,140.5,71,140.8,69.7,140.8z M53.2,140.6v-7.8h1.9
	l0,0.9h0c0.3-0.3,0.6-0.6,1-0.8c0.4-0.2,0.8-0.3,1.3-0.3c0.5,0,0.9,0.1,1.3,0.3c0.3,0.2,0.6,0.4,0.7,0.8h0c0.3-0.4,0.7-0.6,1-0.8
	c0.4-0.2,0.8-0.3,1.4-0.3c0.8,0,1.4,0.2,1.8,0.7c0.4,0.4,0.6,1.1,0.6,2.1v5.2h-2V136c0-0.5-0.1-0.9-0.3-1.2
	c-0.2-0.2-0.4-0.4-0.8-0.4c-0.4,0-0.8,0.2-1.1,0.5c-0.3,0.3-0.4,0.7-0.4,1.2v4.6h-2v-4.8c0-0.5-0.1-0.8-0.3-1.1
	c-0.2-0.2-0.5-0.4-0.8-0.4c-0.3,0-0.5,0.1-0.7,0.2c-0.2,0.1-0.4,0.3-0.5,0.6c-0.1,0.2-0.2,0.5-0.2,0.9v4.6H53.2z M48.9,140.6V133H51
	v7.7H48.9z M48.9,131.6v-1.9H51v1.9H48.9z M39.8,140.6l2.4-3.9l-2.4-3.9H42l1.5,2.8h0l1.5-2.8h2.2l-2.4,3.9l2.4,3.9h-2.2l-1.5-2.8h0
	l-1.5,2.8H39.8z M36.1,132.1h-1.9l1.2-3.3h2.5L36.1,132.1z M35.2,139.2c0.6,0,1.1-0.2,1.4-0.6c0.3-0.4,0.5-1,0.5-1.8
	c0-0.8-0.2-1.4-0.5-1.8c-0.3-0.4-0.8-0.6-1.4-0.6c-0.6,0-1.1,0.2-1.4,0.6c-0.3,0.4-0.5,1-0.5,1.8c0,0.8,0.2,1.4,0.5,1.8
	C34,139,34.5,139.2,35.2,139.2z M35.2,140.8c-1.3,0-2.3-0.3-3-1c-0.7-0.7-1-1.7-1-3c0-1.3,0.3-2.3,1-3c0.7-0.7,1.7-1,3-1
	c1.3,0,2.3,0.3,2.9,1c0.7,0.7,1,1.7,1,3c0,1.3-0.3,2.3-1,3C37.4,140.5,36.4,140.8,35.2,140.8z M25.4,140.6v-7.8h2l0,1.5h0
	c0.3-0.3,0.6-0.6,0.9-0.9c0.4-0.2,0.7-0.4,1.2-0.5c0.4-0.1,0.9-0.2,1.3-0.2v1.8c-0.6,0-1.2,0.1-1.7,0.3c-0.5,0.2-0.9,0.5-1.2,0.9
	c-0.3,0.4-0.4,0.8-0.4,1.3v3.6H25.4z M16,140.6v-10.9h3.3c1.6,0,2.9,0.3,3.7,0.9c0.8,0.6,1.2,1.6,1.2,2.8c0,1.2-0.4,2.2-1.1,2.8
	c-0.8,0.6-1.9,0.9-3.4,0.9h-2.6v-1.8h2.3c0.9,0,1.6-0.2,2.1-0.5c0.4-0.3,0.6-0.8,0.6-1.5s-0.2-1.2-0.6-1.5c-0.4-0.3-1.1-0.5-2.1-0.5
	h-1.2v9.1H16z"/>
</svg>
