<?xml version="1.0" encoding="utf-8"?>
<!-- Generator: Adobe Illustrator 24.0.2, SVG Export Plug-In . SVG Version: 6.00 Build 0)  -->
<svg version="1.1" id="Capa_1" xmlns="http://www.w3.org/2000/svg" xmlns:xlink="http://www.w3.org/1999/xlink" x="0px" y="0px"
	 viewBox="0 0 160 170" style="enable-background:new 0 0 160 170;" xml:space="preserve">
<style type="text/css">
	.st0{clip-path:url(#SVGID_2_);fill-rule:evenodd;clip-rule:evenodd;fill:#01BBB4;}
	.st1{clip-path:url(#SVGID_2_);fill:#FFFFFF;}
	.st2{clip-path:url(#SVGID_2_);fill-rule:evenodd;clip-rule:evenodd;}
	.st3{clip-path:url(#SVGID_2_);fill-rule:evenodd;clip-rule:evenodd;fill:#FFFFFF;}
	.st4{opacity:0.5;clip-path:url(#SVGID_2_);fill-rule:evenodd;clip-rule:evenodd;fill:#FFF100;}
	.st5{clip-path:url(#SVGID_2_);fill:none;stroke:#231F20;stroke-width:0.1458;stroke-miterlimit:22.9256;}
	.st6{clip-path:url(#SVGID_2_);fill:none;stroke:#000000;stroke-width:0.1458;stroke-miterlimit:22.9256;}
	.st7{clip-path:url(#SVGID_2_);fill:none;stroke:#000000;stroke-width:0.2572;stroke-miterlimit:22.9256;}
	.st8{clip-path:url(#SVGID_2_);fill-rule:evenodd;clip-rule:evenodd;fill:#E36283;}
	.st9{clip-path:url(#SVGID_2_);fill-rule:evenodd;clip-rule:evenodd;fill:#77BC1F;}
	.st10{clip-path:url(#SVGID_2_);fill-rule:evenodd;clip-rule:evenodd;fill:#576220;}
	.st11{clip-path:url(#SVGID_2_);fill:none;stroke:#231F20;stroke-width:0.2572;stroke-miterlimit:22.9256;}
	.st12{clip-path:url(#SVGID_2_);fill-rule:evenodd;clip-rule:evenodd;fill:#A9A9A9;}
	.st13{clip-path:url(#SVGID_2_);}
</style>
<g>
	<defs>
		<rect id="SVGID_1_" x="4.7" y="5" width="150.6" height="160"/>
	</defs>
	<clipPath id="SVGID_2_">
		<use xlink:href="#SVGID_1_"  style="overflow:visible;"/>
	</clipPath>
	<path class="st0" d="M13,103.8h134c1.3,0,2.4,1.1,2.4,2.4v51.7c0,1.3-1.1,2.4-2.4,2.4H13c-1.3,0-2.4-1.1-2.4-2.4v-51.7
		C10.6,104.9,11.7,103.8,13,103.8"/>
	<path class="st1" d="M114,137.4v-1.5l3.8-4.3v0H114v-1.5h6.2v1.5l-3.8,4.3v0h3.8v1.5H114z M108.8,136.1c0.3,0,0.6-0.1,0.9-0.2
		c0.3-0.1,0.5-0.3,0.6-0.5c0.2-0.2,0.2-0.4,0.2-0.7v-0.8h-0.7c-0.8,0-1.3,0.1-1.7,0.3c-0.4,0.2-0.6,0.5-0.6,0.9
		c0,0.3,0.1,0.5,0.3,0.7C108.1,136,108.4,136.1,108.8,136.1z M108.1,137.5c-0.7,0-1.3-0.2-1.7-0.6c-0.4-0.4-0.6-0.9-0.6-1.6
		c0-0.8,0.3-1.5,1-2c0.7-0.5,1.6-0.7,2.8-0.7h1c0-0.3,0-0.6-0.1-0.8c-0.1-0.2-0.2-0.3-0.4-0.4c-0.2-0.1-0.5-0.1-0.8-0.1
		c-0.5,0-1,0-1.5,0.1c-0.5,0.1-1,0.2-1.4,0.4l-0.2-1.5c0.5-0.2,1-0.3,1.6-0.4c0.6-0.1,1.2-0.1,1.8-0.1c0.8,0,1.3,0.1,1.8,0.3
		c0.4,0.2,0.7,0.5,0.9,0.9c0.2,0.4,0.3,1,0.3,1.7v4.6h-1.8l0-0.8h0c-0.3,0.3-0.6,0.5-1.1,0.7C109.1,137.4,108.6,137.5,108.1,137.5z
		 M97.8,137.4v-10.3h3.1c1.5,0,2.7,0.3,3.5,0.9c0.8,0.6,1.1,1.5,1.1,2.6c0,1.2-0.4,2.1-1.1,2.6c-0.7,0.6-1.8,0.9-3.2,0.9h-2.4v-1.7
		h2.2c0.9,0,1.5-0.1,1.9-0.4c0.4-0.3,0.6-0.8,0.6-1.4c0-0.6-0.2-1.1-0.6-1.4c-0.4-0.3-1-0.4-1.9-0.4h-1.2v8.6H97.8z M89.4,137.5
		c-1.3,0-2.3-0.3-3-1c-0.7-0.7-1.1-1.6-1.1-2.8c0-1.2,0.3-2.1,1-2.8c0.6-0.7,1.5-1,2.7-1c1.1,0,1.9,0.3,2.5,1
		c0.6,0.6,0.9,1.5,0.9,2.7c0,0.1,0,0.3,0,0.5c0,0.2,0,0.3,0,0.4h-6v-1.3h4.5l-0.3,0.4c0-0.7-0.1-1.3-0.4-1.6
		c-0.3-0.4-0.7-0.5-1.2-0.5c-0.6,0-1,0.2-1.3,0.6c-0.3,0.4-0.4,0.9-0.4,1.7v0.6c0,0.7,0.2,1.1,0.5,1.5c0.3,0.3,0.9,0.5,1.6,0.5
		c0.4,0,0.8,0,1.3-0.1c0.5-0.1,0.8-0.2,1.2-0.3l0.2,1.5c-0.3,0.1-0.8,0.3-1.2,0.3C90.3,137.5,89.8,137.5,89.4,137.5z M80.1,136
		c0.3,0,0.6-0.1,0.9-0.2c0.3-0.1,0.5-0.3,0.6-0.6c0.2-0.2,0.2-0.5,0.2-0.8v-1.3c0-0.3-0.1-0.6-0.2-0.8c-0.2-0.2-0.4-0.4-0.6-0.6
		c-0.3-0.1-0.6-0.2-0.9-0.2c-0.6,0-1,0.2-1.3,0.6c-0.3,0.4-0.5,0.9-0.5,1.7c0,0.7,0.1,1.3,0.5,1.7C79.1,135.8,79.5,136,80.1,136z
		 M79.5,137.5c-1,0-1.7-0.3-2.3-1c-0.5-0.7-0.8-1.6-0.8-2.8c0-1.2,0.3-2.1,0.8-2.8c0.5-0.7,1.3-1,2.3-1c0.5,0,0.9,0.1,1.3,0.2
		c0.4,0.2,0.7,0.4,1,0.8h0v-3.8h1.9v10.3h-1.8l0-0.9h0c-0.3,0.3-0.6,0.6-1,0.7C80.4,137.4,80,137.5,79.5,137.5z M67.6,136.1
		c0.3,0,0.6-0.1,0.9-0.2c0.3-0.1,0.5-0.3,0.6-0.5c0.2-0.2,0.2-0.4,0.2-0.7v-0.8h-0.7c-0.8,0-1.3,0.1-1.7,0.3
		c-0.4,0.2-0.6,0.5-0.6,0.9c0,0.3,0.1,0.5,0.3,0.7C67,136,67.3,136.1,67.6,136.1z M66.9,137.5c-0.7,0-1.3-0.2-1.7-0.6
		c-0.4-0.4-0.6-0.9-0.6-1.6c0-0.8,0.3-1.5,1-2c0.7-0.5,1.6-0.7,2.8-0.7h1c0-0.3,0-0.6-0.1-0.8c-0.1-0.2-0.2-0.3-0.4-0.4
		c-0.2-0.1-0.5-0.1-0.8-0.1c-0.5,0-1,0-1.5,0.1c-0.5,0.1-1,0.2-1.4,0.4l-0.2-1.5c0.5-0.2,1-0.3,1.6-0.4c0.6-0.1,1.2-0.1,1.8-0.1
		c0.8,0,1.3,0.1,1.8,0.3c0.4,0.2,0.7,0.5,0.9,0.9c0.2,0.4,0.3,1,0.3,1.7v4.6h-1.8l0-0.8h0c-0.3,0.3-0.6,0.5-1.1,0.7
		C67.9,137.4,67.4,137.5,66.9,137.5z M60.5,137.5c-0.3,0-0.7,0-1-0.1c-0.4,0-0.7-0.1-1.1-0.2c-0.3-0.1-0.6-0.2-0.9-0.3l0.2-1.5
		c0.5,0.2,0.9,0.3,1.3,0.4s0.8,0.1,1.2,0.1c0.5,0,0.8-0.1,1-0.2c0.2-0.1,0.3-0.3,0.3-0.6c0-0.1,0-0.3-0.1-0.4
		c-0.1-0.1-0.2-0.2-0.4-0.3c-0.2-0.1-0.5-0.2-0.8-0.2c-0.6-0.2-1.1-0.3-1.5-0.5c-0.4-0.2-0.8-0.5-1-0.8c-0.2-0.3-0.3-0.7-0.3-1.1
		c0-0.7,0.3-1.2,0.8-1.6c0.5-0.4,1.3-0.5,2.3-0.5c0.5,0,0.9,0,1.4,0.1c0.5,0.1,1,0.2,1.4,0.3l-0.2,1.5c-0.4-0.1-0.8-0.2-1.2-0.3
		c-0.4-0.1-0.8-0.1-1.1-0.1c-0.5,0-0.8,0.1-1,0.2c-0.2,0.1-0.3,0.3-0.3,0.5c0,0.1,0,0.2,0.1,0.3c0.1,0.1,0.2,0.2,0.4,0.3
		c0.2,0.1,0.5,0.2,0.8,0.2c0.4,0.1,0.8,0.2,1.2,0.4c0.4,0.1,0.7,0.3,0.9,0.5c0.3,0.2,0.4,0.4,0.6,0.7c0.1,0.3,0.2,0.5,0.2,0.9
		c0,0.5-0.1,0.8-0.4,1.2c-0.3,0.3-0.6,0.6-1.1,0.8C61.7,137.4,61.1,137.5,60.5,137.5z M52.5,136.1c0.3,0,0.6-0.1,0.9-0.2
		c0.3-0.1,0.5-0.3,0.6-0.5c0.2-0.2,0.2-0.4,0.2-0.7v-0.8h-0.7c-0.8,0-1.3,0.1-1.7,0.3c-0.4,0.2-0.6,0.5-0.6,0.9
		c0,0.3,0.1,0.5,0.3,0.7C51.8,136,52.1,136.1,52.5,136.1z M51.8,137.5c-0.7,0-1.3-0.2-1.7-0.6c-0.4-0.4-0.6-0.9-0.6-1.6
		c0-0.8,0.3-1.5,1-2c0.7-0.5,1.6-0.7,2.8-0.7h1c0-0.3,0-0.6-0.1-0.8c-0.1-0.2-0.2-0.3-0.4-0.4c-0.2-0.1-0.5-0.1-0.8-0.1
		c-0.5,0-1,0-1.5,0.1c-0.5,0.1-1,0.2-1.4,0.4l-0.2-1.5c0.5-0.2,1-0.3,1.6-0.4c0.6-0.1,1.2-0.1,1.8-0.1c0.8,0,1.3,0.1,1.8,0.3
		c0.4,0.2,0.7,0.5,0.9,0.9c0.2,0.4,0.3,1,0.3,1.7v4.6h-1.8l0-0.8h0c-0.3,0.3-0.6,0.5-1.1,0.7C52.7,137.4,52.3,137.5,51.8,137.5z
		 M45.1,137.5c-1.1,0-2.1-0.2-2.9-0.6c-0.8-0.4-1.4-1-1.9-1.8c-0.4-0.8-0.6-1.7-0.6-2.8c0-1.1,0.2-2.1,0.6-2.8
		c0.4-0.8,1-1.4,1.9-1.8c0.8-0.4,1.8-0.6,2.9-0.6c1.3,0,2.4,0.3,3.4,0.8l-0.5,1.7c-1-0.5-1.9-0.8-2.9-0.8c-0.7,0-1.3,0.1-1.8,0.4
		c-0.5,0.3-0.9,0.7-1.2,1.2c-0.3,0.5-0.4,1.2-0.4,1.9c0,0.7,0.1,1.4,0.4,1.9c0.3,0.5,0.7,0.9,1.2,1.2c0.5,0.3,1.1,0.4,1.8,0.4
		c0.9,0,1.9-0.3,2.9-0.8l0.5,1.7C47.5,137.2,46.4,137.5,45.1,137.5z"/>
	<path class="st2" d="M122.4,52.1c0-23.4-19-42.4-42.4-42.4s-42.4,19-42.4,42.4c0,23.4,19,42.4,42.4,42.4S122.4,75.5,122.4,52.1
		 M80,11.8c22.2,0,40.2,18,40.2,40.2s-18,40.2-40.2,40.2s-40.2-18-40.2-40.2S57.8,11.8,80,11.8z"/>
	<path class="st0" d="M80,27.4c13.6,0,24.7,11.1,24.7,24.7S93.6,76.8,80,76.8S55.3,65.7,55.3,52.1S66.4,27.4,80,27.4"/>
	<path class="st0" d="M120.2,52.1c0-22.2-18-40.2-40.2-40.2s-40.2,18-40.2,40.2s18,40.2,40.2,40.2S120.2,74.3,120.2,52.1 M80,13.6
		c21.2,0,38.5,17.2,38.5,38.5S101.2,90.5,80,90.5S41.5,73.3,41.5,52.1S58.8,13.6,80,13.6z"/>
	<path class="st2" d="M118.5,52.1c0-21.2-17.2-38.5-38.5-38.5S41.5,30.8,41.5,52.1S58.8,90.5,80,90.5S118.5,73.3,118.5,52.1
		 M80,89.4c-20.6,0-37.3-16.7-37.3-37.3S59.4,14.8,80,14.8s37.3,16.7,37.3,37.3S100.6,89.4,80,89.4z"/>
	<path class="st3" d="M53.3,52.1c0-14.7,11.9-26.7,26.7-26.7s26.7,11.9,26.7,26.7c0,14.7-11.9,26.7-26.7,26.7S53.3,66.8,53.3,52.1
		 M42.7,52.1c0,20.6,16.7,37.3,37.3,37.3s37.3-16.7,37.3-37.3S100.6,14.8,80,14.8S42.7,31.5,42.7,52.1z"/>
	<path class="st2" d="M80,76.8c-13.6,0-24.7-11.1-24.7-24.7S66.4,27.4,80,27.4s24.7,11.1,24.7,24.7S93.6,76.8,80,76.8 M53.3,52.1
		c0,14.7,11.9,26.7,26.7,26.7s26.7-11.9,26.7-26.7c0-14.7-11.9-26.7-26.7-26.7S53.3,37.3,53.3,52.1z"/>
	<path class="st4" d="M64.1,42.3c0.4-7.1,11-10.9,15.9-4.1c4.2-6.3,15.7-3.7,16,3.8c0.1,3.5-3.2,9.9-5,12.7c-2.6,4-5.9,7.6-9.9,10.7
		c-0.5,0.4-1,0.5-1.5,0c-3.4-2.6-6.3-5.4-8.7-8.4C68.4,53.9,63.8,46.5,64.1,42.3"/>
	<path class="st5" d="M80.1,65.8c3.1-10,2.7-19.1-0.2-27.6"/>
	<path class="st6" d="M72.2,38.5c2.4,0,4.3,1.9,4.3,4.3c0,2.4-1.9,4.3-4.3,4.3c-2.4,0-4.3-1.9-4.3-4.3C68,40.4,69.9,38.5,72.2,38.5z
		"/>
	<path class="st3" d="M72.2,38.5c2.4,0,4.3,1.9,4.3,4.3c0,2.4-1.9,4.3-4.3,4.3c-2.4,0-4.3-1.9-4.3-4.3C68,40.4,69.9,38.5,72.2,38.5"
		/>
	<path class="st7" d="M82.2,50.1c-0.2-4.1-1-8.1-2.3-11.9c-4.9-6.9-15.4-3-15.9,4.1c-0.2,4.1,4.3,11.6,6.7,14.8
		c2.4,3.1,5.2,5.9,8.7,8.4c0.2,0.2,0.4,0.3,0.6,0.3C81.8,60.3,82.5,55.1,82.2,50.1z M76.5,42.8c0,2.4-1.9,4.3-4.3,4.3
		c-2.4,0-4.3-1.9-4.3-4.3c0-2.4,1.9-4.3,4.3-4.3C74.6,38.5,76.5,40.4,76.5,42.8z"/>
	<path class="st8" d="M82.2,50.1c-0.2-4.1-1-8.1-2.3-11.9c-4.9-6.9-15.4-3-15.9,4.1c-0.2,4.1,4.3,11.6,6.7,14.8
		c2.4,3.1,5.2,5.9,8.7,8.4c0.2,0.2,0.4,0.3,0.6,0.3C81.8,60.3,82.5,55.1,82.2,50.1 M76.5,42.8c0,2.4-1.9,4.3-4.3,4.3
		c-2.4,0-4.3-1.9-4.3-4.3c0-2.4,1.9-4.3,4.3-4.3C74.6,38.5,76.5,40.4,76.5,42.8z"/>
	<path class="st7" d="M91.6,35.8c-3.7,2.3-6.8,6.8-9.4,14.4c0.2,5-0.4,10.2-2.1,15.7c0.3,0,0.6-0.1,0.9-0.3
		c4.1-3.1,7.4-6.7,9.9-10.7c1.8-2.9,5.1-9.2,5-12.7C95.8,39.1,94,37,91.6,35.8z"/>
	<path class="st9" d="M91.6,35.8c-3.7,2.3-6.8,6.8-9.4,14.4c0.2,5-0.4,10.2-2.1,15.7c0.3,0,0.6-0.1,0.9-0.3
		c4.1-3.1,7.4-6.7,9.9-10.7c1.8-2.9,5.1-9.2,5-12.7C95.8,39.1,94,37,91.6,35.8"/>
	<path class="st7" d="M82.2,50.1c2.5-7.5,5.7-12.1,9.4-14.4c-3.8-1.9-9.1-1.3-11.7,2.5C81.3,42.1,82.1,46,82.2,50.1z"/>
	<path class="st10" d="M82.2,50.1c2.5-7.5,5.7-12.1,9.4-14.4c-3.8-1.9-9.1-1.3-11.7,2.5C81.3,42.1,82.1,46,82.2,50.1"/>
	<path class="st11" d="M93,35c-4.2,2-7.9,6.6-10.7,15.1"/>
	<path class="st12" d="M80,68.4c1.8,0,3.2,0.2,3.2,0.5c0,0.3-1.4,0.5-3.2,0.5c-1.8,0-3.2-0.2-3.2-0.5C76.8,68.7,78.2,68.4,80,68.4"
		/>
	<path class="st13" d="M109.7,69.6l-0.6-0.3l-1.5-3.1l0,0l-0.9,1.8l-0.6-0.3l1.4-2.6l0.6,0.3l1.5,3.1l0,0l0.9-1.8l0.6,0.3
		L109.7,69.6z M103.7,75.7l-0.5-0.5l1.6-1.6l0.5,0.5L103.7,75.7z M103.8,77l-2-3.9l0.7-0.8l4,1.8l-0.6,0.6l-3.3-1.6l0,0l1.7,3.2
		L103.8,77z M97.5,81.8l-2.2-3.5l1.1-0.7c0.5-0.3,1-0.5,1.4-0.5c0.4,0,0.7,0.3,1,0.7c0.3,0.4,0.3,0.8,0.2,1.1
		c-0.1,0.4-0.4,0.7-0.9,1l-0.8,0.5l-0.4-0.6l0.7-0.5c0.3-0.2,0.5-0.4,0.6-0.6c0.1-0.2,0-0.4-0.1-0.6c-0.1-0.2-0.3-0.3-0.5-0.3
		c-0.2,0-0.4,0.1-0.7,0.3l-0.4,0.3l1.9,2.9L97.5,81.8z M88.1,85.6l-1.1-4l2.7-0.8l0.2,0.6l-1.9,0.6l0.3,0.9l1.8-0.5l0.2,0.6
		l-1.8,0.5l0.3,1.1l1.9-0.6l0.2,0.6L88.1,85.6z M80.3,85.8c0.3,0,0.6-0.1,0.7-0.2c0.2-0.1,0.3-0.2,0.4-0.5c0.1-0.2,0.1-0.5,0.1-0.8
		c0-0.3-0.1-0.6-0.1-0.8c-0.1-0.2-0.2-0.3-0.4-0.4c-0.2-0.1-0.4-0.1-0.7-0.1l-0.5,0l0.1,2.8L80.3,85.8z M79,86.6l-0.1-4.1l1.2,0
		c0.7,0,1.3,0.1,1.6,0.5c0.4,0.3,0.5,0.8,0.6,1.6c0,0.7-0.1,1.2-0.5,1.6c-0.3,0.3-0.9,0.5-1.6,0.5L79,86.6z M69.2,83.9l0.2-0.7
		l2.2,0.6l-0.2,0.7L69.2,83.9z M68.2,84.5l2.5-3.6l1,0.3l0.2,4.4l-0.8-0.2L71,81.7l0,0l-2,3L68.2,84.5z M61.9,81.4
		c-0.2-0.2-0.4-0.3-0.6-0.5c-0.2-0.2-0.3-0.4-0.4-0.6l0.5-0.5c0.1,0.1,0.2,0.2,0.3,0.4c0.1,0.1,0.2,0.2,0.3,0.4
		c0.1,0.1,0.2,0.2,0.4,0.3c0.2,0.1,0.4,0.2,0.6,0.2c0.2,0,0.3-0.1,0.4-0.2c0-0.1,0.1-0.2,0.1-0.2c0-0.1,0-0.2-0.1-0.2
		c0-0.1-0.1-0.2-0.2-0.3c-0.1-0.1-0.2-0.2-0.3-0.4c-0.1-0.2-0.3-0.3-0.3-0.5c-0.1-0.1-0.2-0.3-0.2-0.4c0-0.1,0-0.3,0-0.4
		c0-0.1,0.1-0.3,0.2-0.4c0.2-0.3,0.5-0.5,0.8-0.5c0.3,0,0.7,0.1,1.2,0.4c0.2,0.1,0.4,0.3,0.6,0.5c0.2,0.2,0.3,0.4,0.4,0.5l-0.5,0.5
		c-0.1-0.2-0.2-0.3-0.4-0.5c-0.2-0.2-0.3-0.3-0.5-0.4c-0.2-0.1-0.4-0.2-0.6-0.2c-0.2,0-0.3,0.1-0.4,0.2c0,0.1-0.1,0.2-0.1,0.2
		c0,0.1,0,0.1,0.1,0.2c0,0.1,0.1,0.2,0.2,0.3c0.1,0.1,0.2,0.2,0.3,0.3c0.1,0.2,0.3,0.3,0.4,0.5c0.1,0.2,0.2,0.3,0.2,0.4
		c0,0.1,0.1,0.3,0,0.4s-0.1,0.3-0.2,0.4c-0.2,0.3-0.5,0.5-0.8,0.5C62.7,81.9,62.3,81.7,61.9,81.4z M54.9,74.3l0.5-0.5l1.6,1.6
		L56.5,76L54.9,74.3z M53.7,74.4l4-1.8l0.7,0.8l-2,3.9l-0.6-0.6l1.8-3.2l0,0L54.3,75L53.7,74.4z M49.8,68.8
		c-0.2-0.4-0.3-0.8-0.3-1.2s0.1-0.7,0.3-1c0.2-0.3,0.5-0.6,0.9-0.8c0.4-0.2,0.8-0.3,1.1-0.3c0.4,0,0.7,0.1,1,0.3
		c0.3,0.2,0.6,0.5,0.8,0.9c0.2,0.5,0.3,0.9,0.3,1.4l-0.7,0.2c0-0.4-0.1-0.8-0.2-1.2c-0.1-0.3-0.3-0.4-0.5-0.6
		c-0.2-0.1-0.4-0.2-0.7-0.2c-0.2,0-0.5,0.1-0.8,0.2c-0.3,0.1-0.5,0.3-0.6,0.5c-0.1,0.2-0.2,0.4-0.2,0.6c0,0.2,0.1,0.5,0.2,0.7
		c0.2,0.3,0.4,0.6,0.8,0.9l-0.5,0.5C50.3,69.6,50,69.3,49.8,68.8z"/>
</g>
</svg>
