<?xml version="1.0" encoding="utf-8"?>
<!-- Generator: Adobe Illustrator 24.0.2, SVG Export Plug-In . SVG Version: 6.00 Build 0)  -->
<svg version="1.1" id="Capa_1" xmlns="http://www.w3.org/2000/svg" xmlns:xlink="http://www.w3.org/1999/xlink" x="0px" y="0px"
	 viewBox="0 0 160 170" style="enable-background:new 0 0 160 170;" xml:space="preserve">
<style type="text/css">
	.st0{fill-rule:evenodd;clip-rule:evenodd;fill:#7A2158;}
	.st1{fill:#FFFFFF;}
	.st2{fill:#518032;}
	.st3{fill:#C3590E;}
	.st4{fill:#FDBE00;}
	.st5{fill:#D40091;}
	.st6{fill:#00B0EE;}
	.st7{fill:#6D2E9E;}
	.st8{fill:#231F20;}
</style>
<path class="st0" d="M8.8,105h142.4c1.4,0,2.6,1.2,2.6,2.6v54.9c0,1.4-1.2,2.6-2.6,2.6H8.8c-1.4,0-2.6-1.2-2.6-2.6v-54.9
	C6.3,106.2,7.4,105,8.8,105"/>
<path class="st1" d="M120.8,140.5c-0.3,0-0.7,0-1.1-0.1c-0.4,0-0.8-0.1-1.1-0.2c-0.4-0.1-0.7-0.2-0.9-0.3l0.3-1.6
	c0.5,0.2,0.9,0.3,1.4,0.4c0.4,0.1,0.9,0.1,1.3,0.1c0.5,0,0.9-0.1,1.1-0.2c0.2-0.1,0.3-0.3,0.3-0.6c0-0.2,0-0.3-0.1-0.4
	c-0.1-0.1-0.2-0.2-0.4-0.3c-0.2-0.1-0.5-0.2-0.9-0.2c-0.6-0.2-1.2-0.3-1.6-0.6c-0.5-0.2-0.8-0.5-1-0.8c-0.2-0.3-0.4-0.7-0.4-1.2
	c0-0.7,0.3-1.3,0.8-1.7c0.6-0.4,1.4-0.6,2.4-0.6c0.5,0,1,0,1.5,0.1c0.5,0.1,1,0.2,1.5,0.3l-0.3,1.6c-0.4-0.1-0.9-0.3-1.3-0.3
	c-0.4-0.1-0.8-0.1-1.2-0.1c-0.5,0-0.9,0.1-1.1,0.2c-0.2,0.1-0.4,0.3-0.4,0.5c0,0.1,0,0.3,0.1,0.4c0.1,0.1,0.2,0.2,0.4,0.3
	c0.2,0.1,0.5,0.2,0.8,0.2c0.5,0.1,0.9,0.2,1.3,0.4c0.4,0.2,0.7,0.3,1,0.5c0.3,0.2,0.5,0.4,0.6,0.7c0.1,0.3,0.2,0.6,0.2,0.9
	c0,0.5-0.1,0.9-0.4,1.3c-0.3,0.4-0.7,0.6-1.1,0.8C122.1,140.4,121.5,140.5,120.8,140.5 M112.1,138.9c0.4,0,0.7-0.1,1-0.2
	c0.3-0.1,0.5-0.4,0.7-0.6c0.2-0.3,0.2-0.5,0.2-0.9v-1.4c0-0.3-0.1-0.6-0.2-0.9c-0.2-0.3-0.4-0.5-0.7-0.6c-0.3-0.2-0.6-0.2-1-0.2
	c-0.6,0-1,0.2-1.4,0.6c-0.3,0.4-0.5,1-0.5,1.8c0,0.8,0.2,1.4,0.5,1.8C111,138.7,111.5,138.9,112.1,138.9z M111.5,140.5
	c-1,0-1.8-0.4-2.4-1.1c-0.6-0.7-0.9-1.7-0.9-3c0-1.3,0.3-2.3,0.9-3c0.6-0.7,1.4-1.1,2.4-1.1c0.5,0,1,0.1,1.4,0.3
	c0.4,0.2,0.8,0.4,1.1,0.8h0v-4.1h2.1v10.9H114l0-0.9h0c-0.3,0.3-0.7,0.6-1.1,0.8C112.4,140.5,112,140.5,111.5,140.5z M104.4,140.4
	v-7.7h2.1v7.7H104.4z M104.4,131.4v-1.9h2.1v1.9H104.4z M93.7,140.4v-10.9h2.1v4.7h0l4.5-4.7h2.5l-4.9,5.2l5.1,5.7h-2.5l-4.6-5.2h0
	v5.2H93.7z M80.3,140.4v-10.9h2.1v4.1h0c0.3-0.4,0.7-0.6,1.1-0.8c0.4-0.2,0.9-0.3,1.4-0.3c1,0,1.7,0.3,2.1,0.8
	c0.4,0.5,0.7,1.3,0.6,2.4v4.8h-2.1V136c0-0.6-0.1-1.1-0.3-1.4c-0.2-0.3-0.6-0.4-1.1-0.4c-0.4,0-0.7,0.1-1,0.2
	c-0.3,0.1-0.5,0.3-0.7,0.6c-0.2,0.2-0.2,0.5-0.2,0.9v4.6H80.3z M75.5,140.5c-0.3,0-0.7,0-1.1-0.1c-0.4,0-0.8-0.1-1.1-0.2
	c-0.4-0.1-0.7-0.2-0.9-0.3l0.3-1.6c0.5,0.2,0.9,0.3,1.4,0.4c0.4,0.1,0.9,0.1,1.3,0.1c0.5,0,0.9-0.1,1.1-0.2c0.2-0.1,0.3-0.3,0.3-0.6
	c0-0.2,0-0.3-0.1-0.4c-0.1-0.1-0.2-0.2-0.4-0.3c-0.2-0.1-0.5-0.2-0.9-0.2c-0.6-0.2-1.2-0.3-1.6-0.6c-0.5-0.2-0.8-0.5-1-0.8
	c-0.2-0.3-0.4-0.7-0.4-1.2c0-0.7,0.3-1.3,0.8-1.7c0.6-0.4,1.4-0.6,2.4-0.6c0.5,0,1,0,1.5,0.1c0.5,0.1,1,0.2,1.5,0.3l-0.3,1.6
	c-0.4-0.1-0.9-0.3-1.3-0.3c-0.4-0.1-0.8-0.1-1.2-0.1c-0.5,0-0.9,0.1-1.1,0.2c-0.2,0.1-0.4,0.3-0.4,0.5c0,0.1,0,0.3,0.1,0.4
	c0.1,0.1,0.2,0.2,0.4,0.3c0.2,0.1,0.5,0.2,0.8,0.2c0.5,0.1,0.9,0.2,1.3,0.4c0.4,0.2,0.7,0.3,1,0.5c0.3,0.2,0.5,0.4,0.6,0.7
	c0.1,0.3,0.2,0.6,0.2,0.9c0,0.5-0.1,0.9-0.4,1.3c-0.3,0.4-0.7,0.6-1.1,0.8C76.7,140.4,76.1,140.5,75.5,140.5z M67.2,138.9
	c0.6,0,1.1-0.2,1.4-0.6c0.3-0.4,0.5-1,0.5-1.8c0-0.8-0.2-1.4-0.5-1.8c-0.3-0.4-0.8-0.6-1.4-0.6c-0.6,0-1.1,0.2-1.4,0.6
	c-0.3,0.4-0.5,1-0.5,1.8c0,0.8,0.2,1.4,0.5,1.8C66.1,138.7,66.6,138.9,67.2,138.9z M67.2,140.5c-1.3,0-2.3-0.3-3-1
	c-0.7-0.7-1-1.7-1-3c0-1.3,0.3-2.3,1-3c0.7-0.7,1.7-1,3-1c1.3,0,2.3,0.3,2.9,1c0.7,0.7,1,1.7,1,3c0,1.3-0.3,2.3-1,3
	C69.5,140.2,68.5,140.5,67.2,140.5z M57.7,138.9c0.4,0,0.7-0.1,1-0.2c0.3-0.1,0.5-0.4,0.7-0.6c0.2-0.3,0.2-0.5,0.2-0.9v-1.4
	c0-0.3-0.1-0.6-0.2-0.9c-0.2-0.3-0.4-0.5-0.7-0.6c-0.3-0.2-0.6-0.2-1-0.2c-0.6,0-1,0.2-1.4,0.6c-0.3,0.4-0.5,1-0.5,1.8
	c0,0.8,0.2,1.4,0.5,1.8C56.7,138.7,57.1,138.9,57.7,138.9z M57.1,140.5c-1,0-1.8-0.4-2.4-1.1c-0.6-0.7-0.9-1.7-0.9-3
	c0-1.3,0.3-2.3,0.9-3c0.6-0.7,1.4-1.1,2.4-1.1c0.5,0,1,0.1,1.4,0.3c0.4,0.2,0.8,0.4,1.1,0.8h0v-4.1h2.1v10.9h-1.9l0-0.9h0
	c-0.3,0.3-0.7,0.6-1.1,0.8C58.1,140.5,57.6,140.5,57.1,140.5z M48.6,139c0.3,0,0.7-0.1,0.9-0.2c0.3-0.1,0.5-0.3,0.7-0.5
	c0.2-0.2,0.2-0.5,0.2-0.7v-0.9h-0.7c-0.8,0-1.4,0.1-1.8,0.3c-0.4,0.2-0.6,0.5-0.6,1c0,0.3,0.1,0.6,0.3,0.7
	C47.8,138.9,48.2,139,48.6,139z M47.8,140.5c-0.8,0-1.4-0.2-1.8-0.6c-0.4-0.4-0.7-1-0.7-1.7c0-0.9,0.4-1.6,1.1-2.1
	c0.7-0.5,1.7-0.7,3-0.7h1c0-0.3,0-0.6-0.1-0.8c-0.1-0.2-0.2-0.3-0.4-0.4c-0.2-0.1-0.5-0.1-0.9-0.1c-0.5,0-1,0.1-1.6,0.2
	c-0.5,0.1-1,0.3-1.5,0.4l-0.3-1.6c0.5-0.2,1.1-0.3,1.7-0.4c0.6-0.1,1.3-0.2,1.9-0.2c0.8,0,1.4,0.1,1.9,0.3c0.5,0.2,0.8,0.5,1,1
	c0.2,0.4,0.3,1,0.3,1.8v4.9h-2l0-0.9h0c-0.3,0.3-0.7,0.6-1.2,0.8C48.8,140.4,48.3,140.5,47.8,140.5z M35.9,140.4v-10.9H38v4.7h0
	l4.5-4.7H45l-4.9,5.2l5.1,5.7h-2.5l-4.6-5.2h0v5.2H35.9z"/>
<path class="st0" d="M80,5c28.9,0,52.3,20.1,52.3,45c0,24.9-23.4,45-52.3,45c-28.9,0-52.3-20.1-52.3-45C27.7,25.1,51.1,5,80,5"/>
<path class="st1" d="M108.2,42.6v-6.7h-4.5v23.6h4.5v-9.1c0-0.9,0.2-1.6,0.5-2.1c0.5-0.7,1.2-1.1,2-1.1c0.4,0,0.8,0.1,1.1,0.2
	c0.4,0.2,0.8,0.5,1,0.9h0c0.2,0.3,0.3,0.7,0.4,1.1c0.1,0.4,0.1,0.8,0.1,1.2v8.8h4.5V48.7c0-1-0.1-1.9-0.3-2.7
	c-0.2-0.7-0.5-1.4-1-1.9c-0.4-0.5-0.9-0.9-1.4-1.1c-0.5-0.2-1.2-0.4-1.9-0.4c-0.9,0-1.9,0.4-2.8,1.1l-2.2,1.6V42.6z M111,34.5v5.8
	c0.8-0.3,1.5-0.4,2.3-0.4c1.1,0,2.1,0.2,3.1,0.6c0.9,0.4,1.7,1.1,2.4,1.9l0,0c0.7,0.8,1.1,1.8,1.5,2.8c0.3,1,0.5,2.2,0.5,3.5v13.6
	H101V33.1h10V34.5z"/>
<path class="st2" d="M109.6,34.5v8.1c1.2-0.9,2.4-1.3,3.7-1.3c1.9,0,3.3,0.7,4.4,2c1.1,1.3,1.6,3.1,1.6,5.4v12.2h-7.2V50.7
	c0-0.8-0.1-1.4-0.3-1.7c-0.2-0.3-0.5-0.4-1-0.4c-0.8,0-1.2,0.6-1.2,1.8v10.5h-7.2V34.5H109.6z"/>
<path class="st1" d="M51.4,40.9l2.5-5h-4.4l-2.6,5.4l4,11.1h4.9l-4.7-10.9L51.4,40.9z M43.7,52.4V28.8h-4.5v23.6H43.7z M46.5,27.4
	v8.4l1.3-2.7h10.6l-4.2,8.4l5.8,13.6h-11l-2.5-6.8v6.8h-10V26h10V27.4z"/>
<path class="st3" d="M56.2,34.5l-3.5,7l5.2,12.2h-8l-4.5-12.6l3.3-6.7H56.2z M45.1,27.4v26.3h-7.2V27.4H45.1z"/>
<path class="st1" d="M63.7,50.7v-0.3c0-0.4,0-0.7-0.1-1c-0.1-0.3-0.2-0.5-0.3-0.6c-0.1-0.1-0.2-0.2-0.4-0.3
	c-0.2-0.1-0.4-0.1-0.6-0.1c-0.4,0-0.7,0.1-1,0.4c-0.2,0.2-0.3,0.3-0.4,0.5c-0.1,0.2-0.1,0.3-0.1,0.6c0,0.2,0,0.5,0.1,0.6
	c0.1,0.2,0.2,0.3,0.3,0.4c0.1,0.1,0.3,0.2,0.4,0.3c0.2,0.1,0.3,0.1,0.6,0.1c0.2,0,0.4,0,0.6-0.1c0.2-0.1,0.3-0.1,0.5-0.2L63.7,50.7z
	 M65.3,61L65.3,61l-1.1,0.2c-0.3,0.1-0.6,0.1-1,0.1c-0.4,0-0.7,0-0.9,0c-1.7,0-3.2-0.3-4.6-0.8c-1.4-0.6-2.7-1.4-3.8-2.5
	c-1.1-1.1-2-2.4-2.5-3.8c-0.6-1.4-0.8-2.9-0.8-4.6c0-1.6,0.3-3.1,0.9-4.5c0.6-1.4,1.4-2.6,2.6-3.8l0,0c1.1-1.1,2.4-2,3.8-2.5
	c1.4-0.6,2.9-0.9,4.5-0.9c1.8,0,3.3,0.3,4.8,0.8c1.5,0.5,2.7,1.3,3.8,2.4c1.1,1.1,1.9,2.4,2.4,3.8c0.5,1.4,0.8,3,0.8,4.8V61H65.3z
	 M62.5,58.7v-4.6c-0.1,0-0.3,0-0.4,0c-0.6,0-1.1-0.1-1.6-0.3c-0.5-0.2-0.9-0.5-1.3-0.9l0,0c-0.4-0.4-0.7-0.9-0.9-1.4
	c-0.2-0.5-0.3-1-0.3-1.6c0-0.6,0.1-1.1,0.3-1.6c0.2-0.5,0.5-1,0.9-1.4c0.8-0.8,1.8-1.3,3-1.3c0.6,0,1.2,0.1,1.7,0.4l0,0
	c0.5,0.2,1,0.6,1.4,1.1c0.4,0.5,0.6,1,0.8,1.6c0.2,0.5,0.2,1.1,0.2,1.8v7.8h4.7v-8.3c0-1.5-0.2-2.8-0.6-3.9c-0.4-1.1-1-2-1.8-2.8
	C68,42.4,67,41.8,66,41.4c-1.1-0.4-2.4-0.6-3.8-0.6c-1.3,0-2.4,0.2-3.5,0.6c-1,0.4-2,1.1-2.9,2h0c-0.9,0.9-1.5,1.8-2,2.9
	c-0.4,1-0.6,2.2-0.6,3.5c0,1.3,0.2,2.5,0.6,3.5c0.4,1.1,1.1,2,1.9,2.8c0.9,0.8,1.8,1.5,2.9,1.9c1.1,0.4,2.3,0.6,3.6,0.6L62.5,58.7z"
	/>
<path class="st4" d="M63.9,52.2v7.7C63.3,60,62.7,60,62.2,60c-3,0-5.5-1-7.4-2.9c-2-2-3-4.4-3-7.4c0-2.9,1-5.3,3-7.3
	c2-2,4.4-3,7.3-3c3.2,0,5.7,0.9,7.6,2.8c1.8,1.9,2.8,4.4,2.8,7.7v9.7H65v-9.2c0-1-0.3-1.9-0.8-2.5c-0.5-0.6-1.2-0.9-2-0.9
	c-0.8,0-1.4,0.3-2,0.9c-0.6,0.6-0.8,1.2-0.8,2c0,0.8,0.3,1.5,0.8,2c0.5,0.5,1.2,0.8,2,0.8C62.8,52.7,63.4,52.6,63.9,52.2"/>
<path class="st1" d="M77,44.1l-0.5-0.5c-0.2-0.2-0.3-0.3-0.5-0.4C76,43.1,75.8,43,75.7,43c-0.2,0-0.3,0-0.5,0
	c-0.2,0-0.3,0.1-0.5,0.2c-0.2,0.1-0.3,0.2-0.4,0.4c-0.1,0.1-0.2,0.3-0.2,0.5c0,0.2,0,0.3,0,0.5c0,0.2,0.1,0.3,0.2,0.5
	c0.1,0.2,0.3,0.3,0.4,0.4c0.1,0.1,0.3,0.2,0.5,0.2c0.4,0.1,0.8,0,1-0.2C76.6,45.2,76.8,44.7,77,44.1 M86.6,31l-4.3-0.8L79.8,44
	c-0.3,1.5-0.8,2.7-1.6,3.4c-0.9,0.9-2,1.2-3.4,0.9c-0.5-0.1-1-0.3-1.5-0.6c-0.4-0.3-0.8-0.6-1.2-1.1l0,0c-0.3-0.5-0.5-0.9-0.7-1.4
	c-0.1-0.5-0.1-1,0-1.6c0.1-0.5,0.3-1,0.6-1.5c0.3-0.4,0.7-0.8,1.1-1.1c0.5-0.3,0.9-0.5,1.4-0.7c0.5-0.1,1-0.1,1.6,0
	c0.1,0,0.2,0.1,0.4,0.1l0.8-4.4c-0.2-0.1-0.4-0.1-0.5-0.1c-1.1-0.2-2.2-0.2-3.2,0c-1,0.2-2,0.7-3,1.4c-1,0.7-1.8,1.5-2.3,2.4
	c-0.6,0.9-1,1.9-1.2,3c-0.2,1.2-0.2,2.3,0,3.3c0.2,1,0.7,2,1.3,3c0.7,1,1.5,1.7,2.4,2.3c0.9,0.6,2,1,3.2,1.2
	c0.6,0.1,1.2,0.2,1.8,0.1c0.6,0,1.2-0.1,1.8-0.3c0.6-0.2,1.2-0.4,1.7-0.6c0.5-0.3,1-0.6,1.5-0.9c0.8-0.6,1.4-1.4,1.9-2.4
	c0.5-1,0.9-2.1,1.1-3.4L86.6,31z M81.5,27.2l8.3,1.5l-3.1,16.8c-0.3,1.6-0.8,3-1.4,4.2c-0.7,1.2-1.5,2.3-2.6,3.2
	c-0.6,0.5-1.3,0.9-2,1.3h0c-0.7,0.4-1.5,0.6-2.3,0.8c-0.8,0.2-1.6,0.3-2.4,0.4c-0.8,0-1.6,0-2.4-0.2c-1.6-0.3-2.9-0.8-4.2-1.6
	c-1.2-0.8-2.3-1.8-3.2-3c-0.9-1.3-1.5-2.6-1.8-4c-0.3-1.4-0.3-2.9,0-4.4c0.3-1.5,0.8-2.8,1.6-4c0.8-1.2,1.8-2.2,3.1-3.1
	c1.3-0.9,2.6-1.5,4-1.8c1.4-0.3,2.8-0.3,4.3-0.1c0.3,0,0.6,0.1,0.9,0.2l0.7,0.2l1.2-6.6L81.5,27.2z"/>
<path class="st5" d="M81.3,28.6l7,1.3l-2.9,15.5c-0.5,2.8-1.7,5-3.5,6.5c-1,0.9-2.3,1.5-3.7,1.9c-1.4,0.4-2.8,0.4-4.2,0.2
	c-2.8-0.5-4.9-1.9-6.5-4.1c-1.6-2.2-2.1-4.7-1.6-7.4c0.5-2.6,1.8-4.7,4.1-6.3c2.2-1.6,4.6-2.1,7.2-1.6c0.4,0.1,1,0.2,1.8,0.5
	l-1.4,7.7c-0.5-0.5-1-0.9-1.6-1c-0.7-0.1-1.4,0-2,0.4c-0.6,0.4-1,1-1.1,1.8c-0.1,0.7,0,1.4,0.5,2c0.4,0.6,1,1,1.8,1.1
	c1.8,0.3,2.9-0.7,3.4-3.2L81.3,28.6z"/>
<path class="st1" d="M86.7,47.8c0.5-0.2,1-0.3,1.6-0.3c0.6,0,1.1,0.1,1.6,0.3c0.5,0.2,0.9,0.5,1.3,0.9c0.8,0.8,1.2,1.8,1.2,2.9
	c0,0.5-0.1,1.1-0.3,1.6l0,0c-0.2,0.5-0.5,0.9-0.9,1.3l0,0c-0.8,0.8-1.8,1.2-2.9,1.2c-0.5,0-1.1-0.1-1.6-0.3
	c-0.5-0.2-0.9-0.5-1.3-0.9l0,0c-0.4-0.4-0.7-0.9-0.9-1.3l0,0c-0.2-0.5-0.3-1-0.3-1.6c0-0.6,0.1-1.1,0.3-1.6c0.2-0.5,0.5-1,0.9-1.4
	C85.8,48.4,86.2,48.1,86.7,47.8L86.7,47.8z M88.3,50.3c-0.2,0-0.4,0-0.5,0.1c-0.1,0.1-0.3,0.2-0.4,0.3c-0.1,0.1-0.2,0.3-0.3,0.5
	C87,51.3,87,51.5,87,51.7c0,0.2,0,0.4,0.1,0.6h0c0.1,0.2,0.2,0.3,0.3,0.5c0.1,0.1,0.3,0.2,0.4,0.3c0.1,0.1,0.3,0.1,0.5,0.1
	c0.4,0,0.7-0.1,0.9-0.4c0.1-0.1,0.2-0.3,0.3-0.5h0c0.1-0.2,0.1-0.3,0.1-0.6c0-0.4-0.1-0.8-0.4-1c-0.1-0.1-0.3-0.2-0.4-0.3
	C88.6,50.3,88.5,50.3,88.3,50.3z M94.3,45.8c-1.6-1.6-3.5-2.4-5.8-2.4c-1.2,0-2.4,0.2-3.4,0.6c-1,0.4-1.9,1-2.7,1.8
	c-0.8,0.8-1.4,1.7-1.8,2.7c-0.4,1-0.6,2-0.6,3.2c0,1.1,0.2,2.2,0.6,3.2c0.4,1,1,1.9,1.9,2.7c0.8,0.8,1.7,1.4,2.7,1.8
	c1,0.4,2.1,0.6,3.2,0.6c1.2,0,2.3-0.2,3.2-0.6c1-0.4,1.9-1,2.7-1.8c0.8-0.8,1.4-1.7,1.8-2.7c0.4-1,0.6-2,0.6-3.2
	c0-1.1-0.2-2.2-0.6-3.2C95.7,47.6,95.1,46.7,94.3,45.8z M88.5,40.7c3,0,5.6,1.1,7.7,3.2c1.1,1.1,1.9,2.3,2.4,3.6
	c0.5,1.3,0.8,2.7,0.8,4.2c0,1.5-0.3,2.9-0.8,4.2c-0.5,1.3-1.4,2.5-2.4,3.6l0,0c-1.1,1.1-2.3,1.9-3.6,2.4h0c-1.3,0.5-2.7,0.8-4.3,0.8
	c-1.5,0-2.9-0.3-4.3-0.8c-1.3-0.5-2.5-1.3-3.6-2.4c-1.1-1.1-1.9-2.3-2.5-3.6c-0.5-1.3-0.8-2.7-0.8-4.2c0-1.5,0.3-3,0.8-4.3
	c0.6-1.3,1.4-2.5,2.5-3.6c1.1-1.1,2.3-1.8,3.7-2.4C85.4,40.9,86.9,40.7,88.5,40.7z"/>
<path class="st6" d="M88.3,48.9c-0.8,0-1.4,0.3-1.9,0.8c-0.5,0.5-0.8,1.2-0.8,2c0,0.8,0.3,1.4,0.8,2c0.5,0.5,1.2,0.8,1.9,0.8
	c0.7,0,1.4-0.3,1.9-0.8c0.5-0.6,0.8-1.2,0.8-2c0-0.8-0.3-1.4-0.8-2C89.7,49.2,89,48.9,88.3,48.9 M88.5,42c2.6,0,4.9,0.9,6.8,2.8
	c1.9,1.9,2.8,4.2,2.8,6.8c0,2.7-1,5-2.9,6.9c-1.9,1.9-4.2,2.8-6.9,2.8c-2.7,0-5-0.9-6.9-2.8c-1.9-1.9-2.9-4.2-2.9-6.8
	c0-2.7,1-5,2.9-6.9C83.3,43,85.6,42,88.5,42z"/>
<path class="st1" d="M104.3,41.5l-0.8-5.3l-0.9,0.1c-1.1,0.2-2.1,0.5-3,0.9c-0.8,0.4-1.4,1-1.9,1.6c-0.3,0.4-0.5,0.8-0.7,1.1
	c-0.2,0.3-0.3,0.7-0.3,1c-0.1,0.4-0.1,0.9-0.1,1.5c0,0.7,0.1,1.5,0.2,2.5l0,0c0.1,0.7,0,1.4-0.1,2c-0.1,0.7-0.4,1.3-0.7,1.7l0,0
	c-0.4,0.5-0.8,0.8-1.5,1.1c-0.3,0.1-0.6,0.2-0.9,0.3l0.8,5.3c1.1-0.2,2-0.4,2.8-0.7c0.8-0.3,1.5-0.7,2-1.1c1-0.8,1.7-1.9,2.2-3.1
	c0.5-1.3,0.7-2.8,0.6-4.6v0c0-0.7,0-1.3,0.1-1.8c0.1-0.6,0.3-1.1,0.6-1.5c0.3-0.4,0.8-0.8,1.3-1C104.1,41.6,104.2,41.6,104.3,41.5
	 M106.1,34.5l1.4,9.3l-1.4,0.2c-0.4,0.1-0.7,0.1-1,0.2c-0.1,0.1-0.2,0.1-0.2,0.1c0,0-0.1,0.2-0.1,0.4c-0.1,0.3-0.1,0.7,0,1.2
	c0.1,2.1-0.1,4-0.7,5.7c-0.6,1.7-1.6,3.1-3,4.3l0,0c-0.8,0.6-1.7,1.1-2.8,1.5c-1.1,0.4-2.3,0.7-3.7,0.9l-2.4,0.4L90.5,48l1.7-0.3
	c0.5-0.1,0.9-0.2,1.1-0.3c0.2-0.1,0.4-0.2,0.4-0.3c0.1-0.1,0.2-0.3,0.2-0.5c0.1-0.3,0.1-0.8,0-1.3c-0.1-1-0.2-2-0.2-2.7
	c0-0.8,0-1.5,0.1-2c0.1-0.6,0.3-1.1,0.6-1.7c0.3-0.5,0.6-1.1,1-1.6v0c0.8-1,1.7-1.8,2.8-2.4c1.1-0.6,2.4-1,3.8-1.2l3.6-0.5
	L106.1,34.5z"/>
<path class="st7" d="M104.7,34.7l1.2,7.9c-1.1,0.2-1.8,0.5-2.1,0.9c-0.3,0.5-0.5,1.3-0.4,2.5c0.2,3.9-0.9,6.9-3.3,8.9
	c-1.3,1-3.2,1.8-5.8,2.1l-1,0.2l-1.2-7.9l0.3-0.1c1.2-0.2,2-0.6,2.5-1.1c0.4-0.6,0.6-1.5,0.5-2.8c-0.2-2.1-0.2-3.5-0.1-4.4
	c0.2-0.9,0.6-1.8,1.3-2.7c1.3-1.7,3.2-2.7,5.8-3.1L104.7,34.7z"/>
<path class="st8" d="M111.3,60.8c0.1,0,0.2,0.1,0.3,0.1c0.1,0.1,0.3,0.2,0.4,0.3l0,0c0,0.1,0.1,0.1,0.1,0.2l0.3-0.4
	c0.4-0.4,0.8-0.7,1.2-1.1l0.2-0.2c0,0,0.1-0.1,0.1-0.2c0-0.1,0.1-0.1,0.1-0.2c0,0,0-0.1,0-0.1c0,0,0-0.1,0-0.1c0-0.1,0-0.2,0-0.2
	c0-0.1,0-0.1,0-0.2l0-0.1l0,0c0,0-0.1,0-0.1,0c0,0-0.1,0-0.2,0c-0.1,0-0.2,0-0.3,0c0,0-0.1,0-0.1,0c-0.1,0-0.2,0.1-0.3,0.1
	c-0.1,0.1-0.2,0.2-0.4,0.2c-0.1,0.1-0.2,0.2-0.4,0.3c-0.1,0.1-0.2,0.2-0.4,0.4c-0.1,0.1-0.2,0.3-0.3,0.4l0,0
	c-0.1,0.1-0.2,0.3-0.3,0.4C111.4,60.6,111.3,60.7,111.3,60.8 M104.5,65.5L104.5,65.5C104.5,65.5,104.5,65.5,104.5,65.5z M103.4,59
	C103.4,58.9,103.4,59,103.4,59L103.4,59z M109.6,64.1l0.2-0.3l-0.1-0.3l0-0.1l-0.3,0.3l-0.6,0.5c-0.2,0.2-0.4,0.4-0.6,0.6
	c-0.2,0.2-0.4,0.3-0.6,0.5c-0.2,0.2-0.4,0.3-0.6,0.5c-0.2,0.2-0.5,0.3-0.6,0.4c-0.1,0.1-0.3,0.2-0.4,0.2l-0.2,0.1l-0.2,0.1l-0.2,0.1
	l-0.2,0.1c-0.1,0-0.2,0.1-0.3,0.1c-0.1,0-0.2,0-0.3,0c-0.1,0-0.2,0-0.3,0h0c-0.1,0-0.2-0.1-0.3-0.1l0,0c-0.1,0-0.1-0.1-0.2-0.1
	c-0.1-0.1-0.1-0.1-0.2-0.2c0-0.1-0.1-0.1-0.1-0.2v0c0-0.1-0.1-0.1-0.1-0.2c0-0.1-0.1-0.1-0.1-0.2c0-0.1,0-0.1,0-0.2l0-0.4
	c-0.1-0.9-0.1-1.9-0.1-2.8c0-0.3,0-0.5,0-0.8c0-0.3,0-0.6,0.1-0.8l0.1-0.8l0.1-1l0,0c0.1-0.5,0.3-1.6,0.3-2.1l0.3-1.8
	c0.1-0.3,0.4-1.8,0.4-2c0-0.1,0-0.2,0-0.3l0-0.1l-0.1-0.1l-0.1-0.1l-0.2-0.1c-0.1,0-0.1,0-0.2,0c-0.1,0-0.1,0-0.2,0
	c-0.1,0-0.2,0-0.3,0c0,0-0.1,0-0.1,0l0,0c-0.1,0-0.1,0.1-0.2,0.1c0,0.1-0.1,0.1-0.1,0.2l0,0c0,0,0,0.1-0.1,0.2
	c0,0.1-0.1,0.3-0.1,0.5c0,0.2-0.1,0.4-0.1,0.7c0,0.2,0,0.5-0.1,0.8c0,0.9-0.2,2.3-0.3,3.3l-0.1,0.6l-0.1,0.5l-0.1,0.5l-0.5,2.7
	l0.2-0.3l0.2,1.8c0,0.3,0.1,0.6,0.1,0.9l0.1,0.9c0,0.3,0.1,0.5,0.2,0.7c0.1,0.2,0.1,0.4,0.2,0.6c0.1,0.2,0.2,0.3,0.3,0.4
	c0.1,0.1,0.2,0.2,0.3,0.3c0.1,0.1,0.2,0.1,0.3,0.2c0.2,0,0.3,0.1,0.5,0.1c0.1,0,0.1,0,0.2,0c0.1,0,0.2-0.1,0.3-0.1h0
	c0.1,0,0.3-0.1,0.4-0.2c0.1-0.1,0.3-0.2,0.4-0.3c0.1-0.1,0.3-0.2,0.5-0.3c0.2-0.1,0.3-0.3,0.5-0.4c0.3-0.3,0.7-0.6,1-0.9l0.5-0.5
	l0.5-0.5l0.5-0.5C109.3,64.4,109.5,64.2,109.6,64.1z M112.1,62.6l0,0.2c0,0.1-0.1,0.2-0.1,0.3c0,0.1-0.1,0.2-0.2,0.3l-0.2,0.3
	l-0.2,0.3c0.3,0.6,0.7,1.2,1.1,1.8c0.1,0.2,0.2,0.4,0.4,0.6l0.2,0.3l0.1,0.3c0,0.1,0.1,0.2,0.1,0.2c0.1,0.1,0.1,0.2,0.1,0.4
	c0,0.2,0,0.3-0.1,0.5c0,0.2-0.1,0.3-0.2,0.4c-0.1,0.1-0.2,0.2-0.3,0.4c-0.1,0.1-0.2,0.2-0.3,0.3c-0.1,0.1-0.2,0.2-0.3,0.2
	c-0.1,0.1-0.3,0.1-0.4,0.2l-0.4,0.2l-0.4,0.2c-0.2,0.1-0.4,0.2-0.6,0.3c-0.2,0.1-0.3,0.2-0.5,0.3c-0.1,0.1-0.3,0.2-0.4,0.2
	c-0.1,0.1-0.2,0.1-0.3,0.2c-0.1,0.1-0.1,0.1-0.2,0.2c0,0.1-0.1,0.1-0.1,0.2c0,0.1,0,0.1-0.1,0.2c0,0.1,0,0.2,0,0.2l0,0l0,0l0.1,0.1
	c0.1,0,0.1,0,0.2,0.1c0.1,0,0.1,0,0.2,0c0.1,0,0.2,0,0.3,0c0.1,0,0.2,0,0.4,0c0.2,0,0.3-0.1,0.5-0.2c0.2-0.1,0.4-0.2,0.6-0.3
	c0.2-0.1,0.4-0.2,0.6-0.4l0.3-0.2l0.4-0.3c0.4-0.3,0.7-0.5,1-0.8c1.3-1,2.6-2.1,3.8-3.2l1.1-1l0.4-0.3l0.5-0.5l0.5-0.5
	c0.2-0.2,0.3-0.3,0.5-0.5c0.2-0.2,0.3-0.4,0.4-0.5c0.1-0.2,0.3-0.3,0.4-0.5c0.1-0.1,0.2-0.3,0.3-0.4c0.1-0.1,0.1-0.2,0.1-0.3
	l-0.5,0.5l-0.3,0.3l-0.4,0.4c-0.3,0.3-0.6,0.6-1,0.8l-0.5,0.4l-0.5,0.4l-0.5,0.4l-0.5,0.4c-0.5,0.4-1,0.8-1.6,1.1
	c-0.1,0.1-0.2,0.1-0.3,0.2l-0.6,0.3c-0.2-0.4-2.1-3.7-2.2-3.8C112.3,63.2,112.2,62.9,112.1,62.6L112.1,62.6z M98.8,63.6
	c0.2-0.2,0.3-0.5,0.5-0.7c-0.1-0.1-0.1-0.2-0.1-0.3l0,0c0-0.1-0.1-0.3-0.1-0.4c0-0.1,0-0.3,0-0.4c0-0.4,0.1-0.7,0.1-1.1
	c0,0,0-0.1-0.1-0.1L99,60.5l-0.1-0.1c0,0-0.1,0.1-0.2,0.1l0,0c-0.1,0.1-0.2,0.2-0.3,0.3c-0.1,0.1-0.2,0.3-0.4,0.4
	c-0.1,0.2-0.3,0.3-0.4,0.5c-0.1,0.2-0.3,0.4-0.4,0.6l-0.7,1.1l-0.3,0.5c-0.1,0.1-0.2,0.3-0.3,0.5L95.6,65l-0.2,0.4
	c-0.2,0.4-0.3,0.8-0.4,1.1c-0.1,0.2-0.1,0.4-0.1,0.6l0.3-0.1c0.1-0.1,0.3-0.2,0.4-0.3l0.5-0.3l0.4-0.3c0.1-0.1,0.3-0.2,0.4-0.3
	c0.1-0.1,0.2-0.2,0.3-0.3l0.6-0.6c0.2-0.2,0.3-0.4,0.5-0.5C98.4,64.2,98.6,63.9,98.8,63.6z M90.6,66.9l0.3-0.3l0-0.2
	c0-0.1,0.1-0.3,0.1-0.4l0.2-0.7l-0.8,0.7L90,66.5c-0.4,0.3-0.8,0.6-1.1,0.9c-0.4,0.3-0.8,0.5-1.1,0.7c-0.2,0.1-0.4,0.2-0.6,0.3
	c-0.2,0.1-0.4,0.1-0.5,0.2c-0.1,0-0.3,0-0.4,0.1c-0.1,0-0.3,0-0.4,0c-0.2,0-0.4-0.1-0.6-0.2c-0.2-0.1-0.3-0.2-0.4-0.4l0,0
	c-0.1-0.1-0.2-0.3-0.3-0.4c-0.1-0.2-0.1-0.3-0.2-0.5l0,0c0-0.1-0.1-0.3-0.1-0.5c0-0.2-0.1-0.4-0.1-0.6c0-0.2,0-0.4-0.1-0.6
	c0-0.2,0-0.4,0-0.6c0-0.2,0-0.4,0-0.6c0-0.2,0-0.5,0-0.7c0-0.2,0-0.5,0.1-0.8c0-0.3,0.1-0.6,0.1-0.8l0.1-0.5l0.1-0.5
	c0-0.1,0-0.3,0-0.4c0-0.1,0-0.3,0-0.4c0-0.1,0-0.2,0-0.3c0,0,0,0,0,0c-0.2,0-0.3,0-0.5,0.1c-0.2,0.1-0.3,0.1-0.4,0.3
	c-0.2,0.1-0.3,0.3-0.4,0.4c-0.1,0.1-0.1,0.2-0.2,0.4c0,0.1,0,0.2-0.1,0.3c0,0.1,0,0.3-0.1,0.4l-0.1,0.5l-0.1,0.5l-0.1,0.5l0,0.5
	l0,0.4l0,0.3c0,0.2,0,0.4,0,0.6c0,0.2,0,0.4,0,0.7c0,0.2,0,0.5,0.1,0.7c0,0.2,0.1,0.4,0.1,0.6v0c0,0.2,0.1,0.4,0.2,0.6
	c0.1,0.2,0.1,0.4,0.2,0.6c0.1,0.2,0.2,0.3,0.3,0.5c0.1,0.1,0.2,0.3,0.3,0.4l0,0c0.1,0.1,0.2,0.2,0.4,0.3c0.1,0.1,0.3,0.2,0.4,0.3
	l0,0c0.1,0.1,0.3,0.1,0.5,0.2c0.2,0,0.4,0.1,0.6,0.1c0.2,0,0.4,0,0.6-0.1c0.2,0,0.4-0.1,0.7-0.2l0,0c0.2-0.1,0.5-0.2,0.7-0.3
	c0.2-0.1,0.5-0.3,0.7-0.5c0.3-0.2,0.5-0.4,0.8-0.6c0.3-0.2,0.5-0.4,0.7-0.6C90.2,67.3,90.4,67.1,90.6,66.9z M95.1,62.8
	c0,0.1,0,0.2,0,0.3c0.3-0.5,0.6-1,1-1.5c0.1-0.2,0.3-0.4,0.4-0.6l0,0c0.1-0.2,0.3-0.4,0.4-0.6c0.1-0.2,0.3-0.4,0.4-0.5l0,0
	c0.1-0.1,0.3-0.3,0.4-0.4c0.4-0.3,0.8-0.5,1.1-0.5c0.1,0,0.2,0,0.4,0.1h0c0.1,0,0.2,0.1,0.3,0.1c0.1,0,0.2,0.1,0.2,0.2
	c0.1,0.1,0.1,0.1,0.2,0.2l0,0c0.1,0.1,0.1,0.1,0.2,0.2c0.1,0.1,0.1,0.1,0.1,0.2c0.1,0.1,0.1,0.2,0.1,0.3c0,0.1,0.1,0.2,0.1,0.4
	c0,0.3-0.1,0.7-0.1,1l0,0.1c0,0.1,0,0.1,0,0.1c0,0.1,0,0.1,0.1,0.2c0,0,0,0,0,0.1l0.1,0l0.5,0.3l-0.3,0.5l-0.1,0.2l-0.4,0.6
	c-0.1,0.2-0.2,0.3-0.4,0.5c-0.3,0.3-0.5,0.6-0.8,0.9c-0.1,0.2-0.3,0.4-0.5,0.5l-0.6,0.6c-0.1,0.1-0.2,0.2-0.4,0.4
	c-0.1,0.1-0.3,0.3-0.4,0.4l-0.5,0.4c-0.1,0.1-0.3,0.2-0.5,0.4l0,0c-0.2,0.1-0.4,0.2-0.5,0.3c-0.2,0.1-0.3,0.2-0.5,0.2
	c-0.2,0.1-0.3,0.1-0.4,0.2l0,0c-0.2,0-0.3,0.1-0.4,0.1c-0.4,0-0.7-0.2-0.8-0.6c-0.1-0.2-0.1-0.5-0.1-0.8c0-0.3,0.1-0.7,0.2-1.1
	c0.1-0.4,0.3-0.7,0.5-1.2l-0.3,0.4c-0.2,0.2-0.3,0.4-0.5,0.6c-0.2,0.2-0.3,0.4-0.5,0.6l-0.6,0.6l0,0.2c0,0.1,0,0.3,0,0.5
	c0,0.1,0,0.2,0,0.3c0,0.1,0,0.2,0.1,0.3l0,0c0,0.1,0.1,0.2,0.1,0.3c0,0.1,0.1,0.2,0.1,0.3l0,0c0,0.1,0.1,0.2,0.2,0.2
	c0.1,0.1,0.1,0.1,0.2,0.2c0.1,0,0.1,0.1,0.2,0.1c0.1,0,0.1,0,0.2,0c0.4,0,0.8,0,1.2-0.1c0.4-0.1,0.8-0.2,1.1-0.4
	c0.4-0.2,0.7-0.4,1.1-0.6c0.4-0.2,0.7-0.5,1.1-0.9c0.1-0.1,0.3-0.3,0.4-0.4c0.1-0.1,0.3-0.3,0.4-0.5c0.1-0.2,0.3-0.3,0.4-0.5
	l0.4-0.5c0.1-0.2,0.2-0.3,0.4-0.5c0.5-0.8,1.1-1.6,1.6-2.4l-0.6-3c-0.1-0.3-0.1-0.5-0.2-0.7c-0.1-0.2-0.2-0.4-0.3-0.5
	c-0.1-0.1-0.2-0.2-0.3-0.2c-0.1-0.1-0.3-0.1-0.4-0.1c-0.3,0-0.5,0-0.8,0c-0.2,0-0.5,0.1-0.7,0.1c-0.2,0.1-0.4,0.1-0.6,0.2
	c-0.2,0.1-0.4,0.2-0.5,0.3c-0.2,0.1-0.4,0.3-0.5,0.4c-0.2,0.2-0.4,0.3-0.5,0.5c-0.2,0.2-0.4,0.4-0.5,0.6c-0.2,0.2-0.3,0.4-0.5,0.7
	l-0.2,0.3l0.1,0.1c0,0.1,0.1,0.2,0.1,0.3c0.1,0.1,0.1,0.3,0.1,0.4C95.1,62.5,95.1,62.7,95.1,62.8z M86.4,53.4c0-0.1,0-0.2,0-0.3
	c0-0.1,0-0.1,0-0.2c0,0,0-0.1,0-0.1l0-0.1l0,0c0,0-0.1,0-0.1-0.1c-0.1,0-0.1,0-0.2,0c-0.1,0-0.2,0-0.3,0c-0.1,0-0.2,0-0.3,0
	c0,0-0.1,0-0.1,0c-0.1,0-0.1,0.1-0.2,0.1c-0.1,0.1-0.2,0.1-0.3,0.2c-0.1,0.1-0.2,0.2-0.2,0.3l0,0c-0.1,0.1-0.1,0.2-0.2,0.3
	c-0.1,0.1-0.1,0.2-0.2,0.3l0,0c0,0.1-0.1,0.2-0.1,0.3l0,0.1l0,0c0,0,0.1,0,0.1,0.1l0,0c0.1,0,0.1,0,0.2,0.1c0.1,0,0.2,0,0.3,0.1
	c0.2,0,0.4,0,0.6,0c0.2,0,0.4,0,0.5-0.1c0.1-0.1,0.2-0.1,0.3-0.2c0.1-0.1,0.1-0.2,0.1-0.2c0-0.1,0.1-0.2,0.1-0.2
	C86.4,53.5,86.4,53.5,86.4,53.4z M87.8,53.1c0,0.2,0,0.3,0,0.5c0,0.2-0.1,0.3-0.1,0.5c0,0.1-0.1,0.3-0.2,0.4
	c-0.1,0.1-0.2,0.3-0.2,0.4c-0.2,0.3-0.5,0.5-0.8,0.7c-0.3,0.1-0.7,0.2-1.1,0.2c-0.3,0-0.5,0-0.8-0.1c-0.1,0-0.2,0-0.4-0.1
	c-0.1,0-0.2-0.1-0.4-0.1c-0.1,0-0.2-0.1-0.4-0.2c-0.1-0.1-0.2-0.1-0.3-0.2c-0.1-0.1-0.2-0.2-0.3-0.4c-0.1-0.2-0.1-0.3-0.1-0.5
	c0-0.2,0-0.3,0.1-0.5c0-0.2,0.1-0.3,0.2-0.5c0.1-0.2,0.2-0.3,0.3-0.5l0,0c0.1-0.1,0.2-0.3,0.3-0.4c0.1-0.1,0.2-0.3,0.4-0.4
	c0.1-0.1,0.3-0.2,0.4-0.3l0,0c0.2-0.1,0.3-0.2,0.5-0.2c0.2-0.1,0.4-0.1,0.6-0.1c0.1,0,0.3,0,0.4,0c0.1,0,0.3,0,0.4,0
	c0.1,0,0.3,0.1,0.4,0.1c0.1,0,0.3,0.1,0.4,0.2c0.1,0.1,0.2,0.2,0.3,0.3c0.1,0.1,0.2,0.2,0.2,0.4c0.1,0.1,0.1,0.3,0.2,0.4
	C87.8,52.8,87.8,53,87.8,53.1z M81.4,66.8c-0.1,0.2-0.3,0.3-0.5,0.5l0,0c-0.2,0.2-0.4,0.4-0.6,0.6c-0.2,0.2-0.5,0.4-0.7,0.6l0,0
	c-0.2,0.2-0.5,0.4-0.8,0.6c-0.2,0.2-0.5,0.4-0.8,0.6c-0.3,0.2-0.5,0.4-0.8,0.5c-0.3,0.2-0.6,0.3-0.8,0.4c-0.3,0.1-0.6,0.2-0.9,0.3
	c-0.3,0.1-0.6,0.1-0.9,0.1c-0.2,0-0.4,0-0.6,0c-0.2,0-0.4-0.1-0.6-0.1l0,0c-0.2,0-0.3-0.1-0.5-0.2c-0.2-0.1-0.3-0.1-0.5-0.2
	c-0.2-0.1-0.3-0.2-0.5-0.3c-0.2-0.1-0.3-0.2-0.4-0.3l-0.4-0.3c-0.1-0.1-0.3-0.2-0.4-0.3l-0.4-0.3c-0.6-0.6-1.1-1.1-1.7-1.7l-0.2,0.2
	c-0.1,0.1-0.2,0.2-0.2,0.3c-0.1,0.1-0.1,0.1-0.1,0.2c0,0.1-0.1,0.1-0.1,0.2l0,0c0,0.1,0,0.1,0,0.2c0,0.1,0,0.1,0,0.2
	c0,0.1,0,0.2,0,0.3c0,0.2,0,0.4,0,0.5c0,0.2,0,0.3,0,0.5c0,0.2-0.1,0.3-0.1,0.5c-0.1,0.2-0.1,0.3-0.2,0.4l0,0
	c-0.1,0.1-0.2,0.3-0.4,0.4c-0.1,0.1-0.3,0.2-0.4,0.2c-0.1,0-0.3,0.1-0.5,0.1c-0.2,0-0.3,0-0.5,0c-0.1,0-0.3,0-0.4,0
	c-0.1,0-0.3,0-0.4-0.1c-0.1,0-0.3-0.1-0.4-0.2c-0.1-0.1-0.2-0.2-0.3-0.3c-0.1-0.1-0.1-0.2-0.2-0.3c0-0.1-0.1-0.2-0.1-0.3
	c0-0.1,0-0.2,0-0.3c0-0.1,0-0.2,0-0.3c0-0.1,0-0.2,0-0.4c0-0.1,0-0.3,0-0.4l0-0.4l0.1-0.4c0-0.2,0.1-0.4,0.1-0.6
	c0.4-2.2,0.6-4.5,0.9-6.7c0-0.3,0.1-0.5,0.1-0.7c0.1-0.9,0.2-1.7,0.3-2.6l0.2-1.5l0.1-0.7l0.1-0.7l0-0.6c0-0.1,0-0.2,0-0.4
	c0-0.1,0.1-0.2,0.1-0.4c0-0.1,0.1-0.3,0.2-0.4c0.1-0.1,0.1-0.2,0.2-0.4c0.1-0.1,0.2-0.2,0.3-0.3c0.1-0.1,0.2-0.2,0.3-0.3l0,0
	c0.1-0.1,0.3-0.1,0.5-0.2c0.2,0,0.3-0.1,0.5-0.1c0.2,0,0.4,0,0.6,0.1c0.2,0,0.4,0.1,0.5,0.2c0.1,0.1,0.3,0.2,0.4,0.3
	c0.1,0.1,0.2,0.2,0.3,0.3l0,0c0.1,0.1,0.1,0.2,0.2,0.3c0,0.1,0.1,0.2,0.1,0.4l0,0.3l0,0.2c0,0.1,0,0.2,0,0.3
	c-0.3,2.7-0.9,5.5-1.4,8.2l0.5-0.5l0.8-0.9l0.3-0.4l0.3-0.4l0.4-0.5c0.2-0.2,0.3-0.4,0.5-0.5c0.2-0.2,0.3-0.3,0.5-0.5
	c0.2-0.2,0.4-0.3,0.6-0.5c0.2-0.1,0.4-0.3,0.6-0.4l0,0c0.2-0.1,0.5-0.2,0.7-0.3c0.2-0.1,0.5-0.1,0.7-0.1c0.3,0,0.6,0.1,0.9,0.2
	c0.1,0.1,0.2,0.1,0.3,0.2c0.1,0.1,0.2,0.2,0.3,0.3l0,0c0.1,0.1,0.1,0.2,0.2,0.3l0,0c0,0.1,0.1,0.2,0.1,0.3c0,0.1,0,0.2,0.1,0.3
	c0,0.1,0,0.2,0,0.3c0,0.2,0,0.4-0.1,0.6c-0.1,0.2-0.2,0.3-0.3,0.5c-0.1,0.1-0.2,0.3-0.3,0.4c-0.1,0.1-0.3,0.3-0.4,0.4
	c-0.1,0.1-0.3,0.3-0.4,0.4L74,61.9l-0.3,0.3c-0.3,0.3-0.6,0.5-0.8,0.8c-0.3,0.3-0.5,0.5-0.7,0.7c-0.2,0.2-0.4,0.4-0.6,0.7l-0.1,0.1
	l1.3,1.2l0.4,0.3c0.1,0.1,0.2,0.2,0.4,0.3c0.1,0.1,0.2,0.2,0.4,0.3l0.4,0.2c0.2,0.1,0.3,0.2,0.5,0.3c0.1,0.1,0.2,0.1,0.3,0.1
	c0.1,0,0.2,0,0.3,0l0.2,0c0.1,0,0.1,0,0.2,0c0.1,0,0.2,0,0.3-0.1c0.1,0,0.2-0.1,0.4-0.1c0.1-0.1,0.2-0.1,0.4-0.2
	c0.1-0.1,0.3-0.2,0.4-0.2c0.1-0.1,0.3-0.2,0.4-0.3l0.4-0.3l0.4-0.3l0.4-0.3l0.3-0.3l1.1-1c0.1-0.1,0.3-0.2,0.4-0.3
	c0.2-0.1,0.3-0.1,0.5-0.1l0.2,0c0-0.8,0.2-1.6,0.3-2.5c0-0.2,0.1-0.3,0.1-0.5c0-0.1,0.1-0.3,0.1-0.4v0c0.1-0.3,0.2-0.5,0.4-0.8
	c0.2-0.2,0.4-0.5,0.6-0.7l0,0c0.3-0.2,0.5-0.4,0.8-0.5c0.3-0.1,0.6-0.2,1-0.2c0.5,0,0.8,0.2,1.1,0.5c0.2,0.3,0.4,0.7,0.4,1.1
	c0,0.2,0,0.3,0,0.5c0,0.2,0,0.3-0.1,0.5l-0.1,0.5L85.7,62c-0.1,0.3-0.1,0.6-0.1,0.8c0,0.2-0.1,0.5-0.1,0.7c0,0.2,0,0.4,0,0.6
	c0,0.2,0,0.4,0,0.6c0,0.2,0,0.4,0,0.6c0,0.2,0,0.4,0,0.5c0,0.2,0,0.3,0.1,0.5c0,0.1,0.1,0.3,0.1,0.4c0,0.1,0.1,0.2,0.1,0.3
	c0,0.1,0.1,0.1,0.1,0.2l0.2,0c0.1,0,0.2,0,0.3,0c0.1,0,0.2,0,0.3-0.1c0.1,0,0.3-0.1,0.4-0.2c0.3-0.2,0.6-0.4,1-0.6
	c0.3-0.2,0.7-0.5,1.1-0.8l0.4-0.4l0.5-0.4l1-0.9l0.5-0.5l0.5-0.5c0.1-0.1,0.3-0.3,0.4-0.4c0.1-0.1,0.2-0.2,0.3-0.3
	c0.1-0.1,0.3-0.4,0.3-0.4c0,0,0.1-0.1,0.2-0.2l0.1-0.1c0.2-0.3,0.4-0.6,0.7-1c0.2-0.3,0.4-0.5,0.6-0.8c0.2-0.3,0.4-0.5,0.6-0.7
	c0.2-0.2,0.4-0.4,0.6-0.6c0.2-0.2,0.4-0.4,0.7-0.5c0.2-0.2,0.5-0.3,0.7-0.4c0.2-0.1,0.5-0.2,0.8-0.3l0,0c0.3-0.1,0.6-0.1,0.9-0.2
	c0.3,0,0.6-0.1,0.9-0.1c0.3,0,0.7,0.1,1,0.2c0.2,0.1,0.4,0.2,0.6,0.4c0.1-0.9,0.2-1.8,0.2-2.7c0-0.3,0-0.6,0.1-0.9
	c0-0.3,0.1-0.5,0.1-0.8v0c0-0.2,0.1-0.4,0.1-0.6l0,0c0.1-0.2,0.1-0.4,0.2-0.5c0.1-0.1,0.2-0.3,0.3-0.4c0.1-0.1,0.2-0.2,0.4-0.3
	c0.2-0.1,0.3-0.2,0.6-0.3c0.2,0,0.4-0.1,0.6-0.1c0.1,0,0.3,0,0.4,0c0.1,0,0.3,0.1,0.4,0.1c0.1,0,0.2,0.1,0.3,0.1
	c0.1,0.1,0.2,0.1,0.3,0.2l0,0c0.1,0.1,0.2,0.1,0.3,0.2l0,0c0.1,0.1,0.2,0.2,0.2,0.3c0.1,0.1,0.1,0.2,0.2,0.3c0,0.1,0.1,0.3,0.1,0.4
	c0,0.1,0,0.3-0.1,0.6c-0.1,0.7-0.3,1.4-0.4,2c-0.1,0.6-0.2,1.1-0.3,1.6l0,0.1c-0.1,0.7-0.2,1.6-0.4,2.2l-0.1,0.8l-0.1,0.8
	c0,0.3-0.1,0.5-0.1,0.8c0,0.2,0,0.5,0,0.7c0,0.5,0,1,0,1.5l0,0.8l0,0.4c0,0.1,0,0.3,0.1,0.4l0.2-0.1c0.2-0.1,0.4-0.2,0.5-0.3
	c0.1-0.1,0.2-0.1,0.3-0.2l0,0c0.2-0.1,0.4-0.3,0.6-0.4c0.2-0.2,0.4-0.3,0.6-0.4l0,0c0.2-0.1,0.4-0.3,0.6-0.5
	c0.2-0.2,0.4-0.3,0.6-0.5l0.6-0.5l0.6-0.5c0.2-0.2,0.4-0.3,0.5-0.5l0,0l0-0.1c0-0.2,0.1-0.3,0.1-0.5c0-0.2,0.1-0.3,0.2-0.5
	c0.1-0.2,0.1-0.4,0.2-0.6c0.1-0.2,0.2-0.4,0.4-0.6c0.1-0.2,0.3-0.4,0.4-0.5c0.1-0.2,0.3-0.3,0.5-0.5c0.2-0.2,0.3-0.3,0.5-0.4
	c0.2-0.1,0.3-0.2,0.5-0.3c0.2-0.1,0.4-0.2,0.5-0.2c0.2-0.1,0.4-0.1,0.6-0.1c0.2,0,0.3,0,0.5,0c0.1,0,0.3,0,0.4,0.1
	c0.1,0,0.3,0.1,0.4,0.2c0.1,0.1,0.2,0.2,0.3,0.3l0,0c0.1,0.1,0.2,0.2,0.2,0.3c0.1,0.1,0.1,0.2,0.1,0.4c0,0.1,0,0.2,0.1,0.4
	c0,0.1,0,0.3,0,0.4c0,0.1,0,0.3-0.1,0.4l0,0c0,0.1-0.1,0.3-0.2,0.4c-0.1,0.1-0.1,0.2-0.2,0.3c-0.1,0.1-0.1,0.2-0.2,0.3
	c-0.1,0.1-0.2,0.2-0.2,0.3c-0.1,0.1-0.2,0.2-0.3,0.2l-1,0.9c0,0.1,0,0.2,0.1,0.3c0,0.2,0.1,0.3,0.2,0.5c0.5,0.9,1,1.7,1.5,2.6
	l0.7-0.5l0.5-0.3l1-0.8l1-0.8l0.5-0.4l0.4-0.4l0.4-0.4l0.3-0.3l0.5-0.5l0.2-0.2l0.2-0.2c0.1,0,0.1-0.1,0.2-0.1l0,0
	c0.1-0.1,0.2-0.1,0.3-0.1c0.1,0,0.2,0,0.3,0c0.1,0,0.3,0,0.4,0.1l0,0c0.1,0.1,0.2,0.1,0.3,0.3c0.1,0.1,0.1,0.1,0.2,0.2
	c0,0.1,0.1,0.1,0.1,0.2c0,0.1,0.1,0.1,0.1,0.2c0,0.1,0.1,0.3,0.1,0.5c0,0.2,0,0.4-0.1,0.6c-0.1,0.2-0.2,0.4-0.3,0.6
	c-0.1,0.2-0.2,0.4-0.4,0.5c-0.1,0.2-0.3,0.4-0.4,0.5l0,0c-0.2,0.2-0.3,0.4-0.5,0.6c-0.2,0.2-0.3,0.4-0.5,0.6l-0.5,0.5
	c-0.3,0.3-0.6,0.6-0.9,0.9l-1.1,1l-1.4,1.2c-1.2,1-2.3,1.9-3.5,2.8c-0.3,0.2-0.5,0.4-0.8,0.6c-0.3,0.2-0.5,0.3-0.7,0.5
	c-0.3,0.1-0.5,0.3-0.7,0.3c-0.3,0.1-0.5,0.2-0.7,0.2c-0.2,0.1-0.5,0.1-0.7,0.1c-0.2,0-0.3,0-0.4,0c-0.1,0-0.3,0-0.4-0.1l0,0
	c-0.1,0-0.3-0.1-0.3-0.1c-0.1-0.1-0.2-0.1-0.3-0.2l0,0c-0.1-0.1-0.2-0.1-0.3-0.2c-0.1-0.1-0.1-0.2-0.2-0.3c-0.1-0.1-0.1-0.2-0.1-0.3
	c0-0.1,0-0.2,0-0.3c0-0.2,0-0.4,0.1-0.5c0-0.2,0.1-0.3,0.2-0.5l0,0c0.1-0.1,0.2-0.3,0.3-0.4c0.1-0.1,0.2-0.3,0.4-0.4
	c0.1-0.1,0.3-0.2,0.4-0.3c0.2-0.1,0.3-0.2,0.5-0.3c0.2-0.1,0.4-0.2,0.6-0.3c0.2-0.1,0.4-0.2,0.7-0.3l0.4-0.2l0.4-0.2
	c0.1,0,0.2-0.1,0.3-0.1c0.1,0,0.2-0.1,0.2-0.1c0.1,0,0.1-0.1,0.1-0.1c0,0,0.1-0.1,0.1-0.1l0,0c0,0,0-0.1,0-0.1l0-0.1l-0.2-0.3
	l-0.2-0.3c-0.4-0.6-0.8-1.3-1.2-1.9l-1.1,1.2v-0.1l-0.3,0.3l-0.6,0.5c-0.4,0.3-0.7,0.7-1.1,1c-0.2,0.2-0.4,0.3-0.6,0.4
	c-0.2,0.1-0.4,0.3-0.6,0.4c-0.2,0.1-0.4,0.2-0.5,0.3c-0.2,0.1-0.4,0.2-0.5,0.2c-0.2,0.1-0.4,0.1-0.5,0.2c-0.2,0-0.4,0.1-0.5,0.1
	c-0.3,0-0.6,0-0.9-0.1c-0.3-0.1-0.6-0.2-0.8-0.4l0,0c-0.2-0.2-0.4-0.4-0.6-0.6c-0.2-0.2-0.3-0.5-0.4-0.7c-0.1-0.3-0.2-0.5-0.3-0.8
	c-0.1-0.3-0.2-0.6-0.2-0.9l0-0.1l-0.5,0.7c-0.1,0.2-0.3,0.4-0.4,0.6c-0.2,0.2-0.3,0.4-0.4,0.5l0,0c-0.2,0.2-0.3,0.3-0.5,0.5
	c-0.2,0.2-0.3,0.3-0.5,0.5l0,0c-0.4,0.4-0.8,0.7-1.3,1c-0.4,0.3-0.9,0.5-1.3,0.7l0,0c-0.5,0.2-0.9,0.3-1.4,0.4
	c-0.5,0.1-1,0.1-1.4,0.1c-0.2,0-0.4,0-0.6-0.1c-0.2-0.1-0.4-0.1-0.6-0.3c-0.2-0.1-0.3-0.2-0.4-0.4c-0.1-0.1-0.2-0.3-0.3-0.5
	c-0.1-0.2-0.2-0.3-0.2-0.5c-0.1-0.2-0.1-0.3-0.2-0.5c0-0.1-0.1-0.3-0.1-0.4l-0.1,0.1c-0.3,0.2-0.5,0.5-0.8,0.7
	c-0.3,0.2-0.5,0.4-0.8,0.6c-0.3,0.2-0.6,0.4-0.9,0.6c-0.3,0.2-0.6,0.3-0.9,0.4c-0.3,0.1-0.6,0.2-0.9,0.3c-0.3,0.1-0.6,0.1-0.9,0.1
	c-0.3,0-0.6,0-0.9-0.1c-0.3-0.1-0.6-0.1-0.8-0.3c-0.2-0.1-0.5-0.2-0.7-0.4c-0.2-0.2-0.4-0.3-0.6-0.5c-0.2-0.2-0.3-0.4-0.5-0.6
	c-0.1-0.2-0.3-0.4-0.4-0.7l0,0c-0.1-0.2-0.2-0.5-0.3-0.7c-0.1-0.2-0.1-0.5-0.2-0.7C81.4,67.1,81.4,67,81.4,66.8z M80.4,65.9l0.2-0.2
	c-0.4,0.3-0.7,0.6-1.1,0.9c-0.3,0.2-0.5,0.4-0.8,0.6l-0.5,0.3c-0.1,0.1-0.3,0.2-0.5,0.3c-0.2,0.1-0.3,0.2-0.5,0.3
	c-0.2,0.1-0.3,0.2-0.5,0.2c-0.2,0.1-0.3,0.1-0.5,0.2l0,0c-0.2,0.1-0.3,0.1-0.5,0.1c-0.2,0-0.3,0-0.5,0l-0.3,0l-0.2,0
	c-0.1,0-0.2,0-0.3,0c-0.1,0-0.2-0.1-0.3-0.1c-0.1,0-0.2-0.1-0.3-0.1c-0.1,0-0.2-0.1-0.3-0.2c-0.1,0-0.2-0.1-0.3-0.2
	c-0.1-0.1-0.3-0.2-0.4-0.3c-0.1-0.1-0.3-0.2-0.4-0.3c-0.1-0.1-0.3-0.2-0.4-0.4l-0.4-0.4l-1.1-1c-0.1-0.1-0.2-0.2-0.3-0.3
	c-0.1-0.1-0.2-0.1-0.3-0.2l-0.6-0.4l0.5-0.6c0.2-0.2,0.4-0.5,0.6-0.7c0.2-0.2,0.4-0.4,0.6-0.7c0.2-0.2,0.5-0.5,0.8-0.8
	c0.3-0.3,0.5-0.5,0.8-0.8l0.4-0.4l0.8-0.7c0.1-0.1,0.2-0.2,0.4-0.4l0,0c0.1-0.1,0.2-0.2,0.3-0.3c0.1-0.1,0.2-0.2,0.3-0.3
	C74.9,59.1,75,59,75,59c0,0,0,0,0-0.1l0-0.1l0-0.1l0-0.1l0-0.1l0-0.1l-0.1-0.1c0,0-0.1,0-0.2,0c-0.1,0-0.2,0-0.4,0.1
	c-0.1,0-0.3,0.1-0.4,0.2c-0.2,0.1-0.3,0.2-0.5,0.3l0,0c-0.2,0.1-0.3,0.2-0.4,0.4c-0.2,0.1-0.3,0.3-0.4,0.4c-0.1,0.2-0.3,0.3-0.4,0.5
	l-0.7,0.9c-0.1,0.2-0.2,0.3-0.3,0.4c-0.8,1-1.6,2-2.5,3l-2.3,2.9l0.7-3l0-0.2c0.5-3.3,1.2-6.7,1.7-10l0-0.3l0-0.2l0-0.1l0-0.2l0-0.1
	l-0.1-0.1l-0.1-0.1c0,0-0.1-0.1-0.1-0.1l0,0c0,0-0.1,0-0.1,0c-0.1,0-0.2,0-0.3,0c-0.1,0-0.1,0-0.2,0c0,0-0.1,0-0.1,0
	c-0.1,0-0.1,0.1-0.1,0.1c0,0-0.1,0.1-0.1,0.1l0,0c0,0-0.1,0.1-0.1,0.2c0,0.1-0.1,0.1-0.1,0.2l0,0c0,0.1,0,0.1-0.1,0.2
	c0,0.1,0,0.1,0,0.2l0,0.7l-0.1,0.7c-0.1,0.7-0.1,1.5-0.2,2.2l-0.2,1.5l-0.1,1.1c0,0.2-0.1,0.4-0.1,0.7c0,2-0.7,5.6-1,7.7l-0.1,0.7
	l0,0.3l0,0.2c0,0.1,0,0.1,0,0.2l0.1,0c0.1,0,0.1,0,0.2,0c0.1,0,0.2,0,0.3,0c0.1,0,0.2,0,0.2,0l0.1,0l0,0c0,0,0-0.1,0-0.1
	c0-0.1,0-0.1,0-0.2c0-0.1,0-0.2,0-0.4c0-0.1,0-0.3,0-0.5c0-0.1,0-0.3,0-0.4c0-0.1,0-0.3,0.1-0.4c0-0.1,0.1-0.2,0.1-0.4
	c0-0.1,0.1-0.2,0.2-0.4l0,0c0.1-0.1,0.1-0.2,0.2-0.3c0.1-0.1,0.2-0.2,0.3-0.3l0.3-0.4l0.8-0.9l0.5,0.4c0.1,0.1,0.2,0.2,0.3,0.3
	l0.3,0.3c0.5,0.6,1.1,1.1,1.6,1.6l0.3,0.3l0.3,0.3c0.1,0.1,0.3,0.2,0.3,0.3c0.1,0.1,0.2,0.2,0.3,0.2c0.1,0.1,0.2,0.1,0.4,0.2
	c0.1,0.1,0.3,0.1,0.4,0.2c0.1,0,0.3,0.1,0.4,0.1c0.1,0,0.2,0.1,0.4,0.1c0.1,0,0.3,0,0.4,0c0.2,0,0.4,0,0.5-0.1
	c0.2,0,0.4-0.1,0.6-0.2c0.2-0.1,0.5-0.2,0.7-0.4c0.2-0.1,0.5-0.3,0.7-0.5c0.2-0.2,0.5-0.3,0.7-0.5c0.2-0.2,0.5-0.4,0.7-0.6
	c0.2-0.2,0.5-0.4,0.6-0.6c0.2-0.2,0.4-0.4,0.6-0.6C80.1,66.2,80.3,66,80.4,65.9z"/>
<path class="st1" d="M122.1,61.8c0,0.2-0.1,0.5-0.3,0.8c-0.2,0.3-0.4,0.7-0.7,1c-0.3,0.4-0.6,0.7-1,1.1c-0.4,0.4-0.7,0.7-1,1
	c-0.2,0.2-0.5,0.4-0.9,0.8c-0.4,0.3-0.8,0.7-1.3,1.1c-0.5,0.4-1,0.8-1.5,1.2c-0.5,0.4-1,0.8-1.5,1.2c-0.5,0.4-0.9,0.7-1.2,1
	c-0.4,0.3-0.6,0.5-0.8,0.6c-0.5,0.3-0.9,0.6-1.4,0.7c-0.4,0.2-0.8,0.3-1.1,0.3c-0.3,0-0.5,0-0.7-0.1c-0.2-0.1-0.3-0.1-0.5-0.2
	c-0.1-0.1-0.2-0.2-0.3-0.3c-0.1-0.1-0.1-0.2-0.1-0.3c0-0.3,0.1-0.5,0.2-0.7c0.1-0.2,0.3-0.4,0.5-0.6c0.2-0.2,0.5-0.4,0.8-0.5
	c0.3-0.2,0.7-0.4,1.2-0.6c0.3-0.1,0.6-0.2,0.8-0.3c0.2-0.1,0.4-0.2,0.6-0.4c0.2-0.1,0.3-0.3,0.4-0.4c0.1-0.2,0.1-0.4,0.1-0.6
	c0-0.1,0-0.2-0.1-0.3c-0.1-0.1-0.2-0.3-0.3-0.5c-0.1-0.2-0.3-0.4-0.4-0.6c-0.1-0.2-0.3-0.5-0.4-0.7c-0.1-0.2-0.3-0.4-0.4-0.6
	c-0.1-0.2-0.2-0.4-0.3-0.5c-0.3-0.6-0.5-1.2-0.5-1.8c0-0.3,0-0.5,0.1-0.8c0-0.3,0.1-0.6,0.2-0.9c0.1-0.4,0.3-0.7,0.5-1.1
	c0.2-0.3,0.5-0.7,0.8-0.9c0.3-0.3,0.6-0.5,0.9-0.7c0.3-0.2,0.5-0.2,0.7-0.2c0.3,0,0.5,0,0.7,0.1c0.2,0,0.3,0.1,0.4,0.2
	c0.1,0.1,0.2,0.2,0.2,0.4c0,0.2,0.1,0.4,0.1,0.6c0,0.2,0,0.4-0.1,0.6c-0.1,0.2-0.2,0.4-0.3,0.5c-0.1,0.2-0.3,0.3-0.4,0.4
	c-0.1,0.1-0.3,0.2-0.4,0.4c-0.2,0.1-0.3,0.3-0.5,0.4c-0.1,0.1-0.3,0.2-0.4,0.3c0,0.5,0.1,1,0.4,1.4c0.1,0.2,0.3,0.5,0.4,0.8
	c0.2,0.3,0.4,0.6,0.5,0.9c0.2,0.3,0.4,0.6,0.5,0.9c0.2,0.3,0.3,0.5,0.4,0.7c0.1-0.1,0.3-0.2,0.5-0.3c0.2-0.2,0.5-0.3,0.8-0.5
	c0.3-0.2,0.6-0.5,1-0.7c0.3-0.3,0.7-0.5,1-0.8c0.3-0.3,0.7-0.6,1-0.8c0.3-0.3,0.6-0.5,0.9-0.8c0.2-0.2,0.4-0.4,0.5-0.5
	c0.1-0.2,0.3-0.3,0.4-0.4c0.1-0.1,0.2-0.2,0.3-0.2c0.1,0,0.2-0.1,0.3-0.1c0.1,0,0.2,0,0.3,0.1c0.1,0.1,0.1,0.2,0.2,0.2
	c0,0.1,0.1,0.2,0.1,0.3C122.1,61.8,122.1,61.8,122.1,61.8 M111.5,62.2c0,0.1,0,0.3-0.1,0.4c0,0.1-0.1,0.3-0.2,0.5
	c-0.1,0.2-0.2,0.4-0.4,0.6c-0.2,0.2-0.4,0.5-0.7,0.8v0c-0.3,0.3-0.6,0.7-0.9,1c-0.3,0.3-0.7,0.7-1.1,1c-0.4,0.3-0.7,0.7-1.1,1
	c-0.4,0.3-0.7,0.5-1,0.8c-0.3,0.2-0.7,0.4-1,0.5c-0.3,0.1-0.6,0.2-0.8,0.2c-0.5,0-1-0.1-1.3-0.4c-0.3-0.3-0.6-0.6-0.8-1
	c-0.2-0.4-0.3-0.9-0.4-1.5c-0.1-0.6-0.2-1.2-0.3-1.9c-0.2,0.3-0.4,0.7-0.7,1c-0.2,0.4-0.5,0.7-0.8,1.1c-0.3,0.4-0.5,0.7-0.8,1
	c-0.3,0.3-0.6,0.6-0.9,0.9c-0.8,0.7-1.6,1.3-2.4,1.6c-0.8,0.4-1.7,0.5-2.6,0.5c-0.3,0-0.6-0.1-0.8-0.2c-0.2-0.2-0.4-0.4-0.6-0.6
	c-0.1-0.2-0.3-0.5-0.3-0.8c-0.1-0.3-0.1-0.6-0.1-0.9c0-0.4,0-0.7,0-0.9c0-0.3,0.1-0.5,0.1-0.7c0.3-1,0.7-1.9,1.1-2.8
	c0.4-0.9,0.9-1.7,1.5-2.6c0.4-0.5,0.8-1,1.1-1.4c0.4-0.4,0.8-0.8,1.2-1c0.4-0.3,0.9-0.5,1.3-0.6c0.5-0.1,1-0.2,1.6-0.2
	c0.5,0,0.9,0.2,1.2,0.6c0.3,0.4,0.6,0.9,0.7,1.5c0.1-0.3,0.1-0.6,0.2-1c0.1-0.4,0.1-0.8,0.1-1.2c0-0.4,0.1-0.8,0.1-1.3
	c0-0.4,0.1-0.9,0.1-1.3c0-0.6,0.1-1.1,0.2-1.6c0.1-0.4,0.1-0.7,0.2-0.9c0.1-0.2,0.3-0.4,0.5-0.5c0.2-0.1,0.4-0.2,0.8-0.2
	c0.2,0,0.4,0,0.6,0.1c0.2,0.1,0.3,0.1,0.5,0.2c0.1,0.1,0.2,0.2,0.3,0.3c0.1,0.1,0.1,0.2,0.1,0.3c0,0.1,0,0.3-0.1,0.5
	c0,0.2-0.1,0.5-0.2,0.8c-0.1,0.3-0.1,0.7-0.2,1.2c-0.1,0.5-0.2,1.1-0.3,1.7c0,0,0,0.1,0,0.3c0,0.1,0,0.3-0.1,0.4
	c0,0.2-0.1,0.3-0.1,0.5c0,0.2-0.1,0.3-0.1,0.5c0,0.2,0,0.3-0.1,0.4c0,0.1,0,0.2,0,0.2c-0.1,0.6-0.2,1.2-0.2,1.7
	c-0.1,0.5-0.1,1.1-0.1,1.6c0,0.2,0,0.5,0,0.8c0,0.3,0,0.5,0,0.8c0,0.3,0,0.5,0,0.8c0,0.3,0,0.5,0.1,0.8c0,0.1,0,0.1,0.1,0.2
	c0,0.1,0.1,0.1,0.1,0.2c0.1,0.1,0.1,0.1,0.2,0.2c0.1,0,0.1,0.1,0.2,0.1c0.1,0,0.2,0,0.4-0.1c0.1,0,0.3-0.1,0.4-0.2
	c0.1-0.1,0.3-0.1,0.4-0.2c0.1-0.1,0.2-0.1,0.3-0.2c0.4-0.3,0.8-0.6,1.2-0.9c0.4-0.3,0.8-0.7,1.2-1c0.4-0.4,0.8-0.7,1.2-1.1
	c0.4-0.3,0.8-0.7,1.1-1c0.1-0.1,0.3-0.2,0.4-0.2c0.1,0,0.2,0.1,0.3,0.2C111.5,61.7,111.5,61.9,111.5,62.2z M99.3,64.1
	c0.1-0.1,0.1-0.2,0.2-0.3c0.1-0.1,0.1-0.2,0.2-0.3c0.1-0.1,0.1-0.2,0.2-0.4c0.1-0.1,0.1-0.2,0.2-0.3c-0.2-0.1-0.3-0.3-0.4-0.4
	c-0.1-0.2-0.1-0.4-0.1-0.6c0-0.1,0-0.2,0-0.3c0-0.1,0-0.2,0-0.3c0-0.1,0-0.2,0-0.3c0-0.1,0-0.2,0-0.2c0-0.1,0-0.2-0.1-0.3
	c-0.1-0.1-0.1-0.2-0.2-0.3c-0.1-0.1-0.2-0.2-0.3-0.2c-0.1-0.1-0.2-0.1-0.3-0.1c-0.2,0-0.4,0.1-0.7,0.3c-0.3,0.2-0.5,0.5-0.8,0.8
	c-0.3,0.3-0.6,0.7-0.8,1.1c-0.3,0.4-0.5,0.8-0.7,1.1c-0.2,0.4-0.5,0.8-0.6,1.1c-0.2,0.3-0.3,0.6-0.5,0.9c-0.4,0.9-0.6,1.6-0.6,2.1
	c0,0.5,0.1,0.7,0.3,0.7c0.2,0,0.4-0.1,0.6-0.2c0.3-0.1,0.5-0.3,0.9-0.5c0.4-0.2,0.7-0.5,1-0.7c0.3-0.2,0.5-0.4,0.7-0.7
	c0.4-0.4,0.8-0.8,1.1-1.1C98.9,64.5,99.2,64.3,99.3,64.1z M94.4,62.8c0,0.2-0.1,0.4-0.2,0.7c-0.1,0.3-0.3,0.6-0.6,0.9
	c-0.2,0.3-0.5,0.7-0.9,1.1c-0.3,0.4-0.7,0.8-1.1,1.2c-0.4,0.4-0.9,0.9-1.4,1.3c-0.5,0.4-1,0.8-1.6,1.2c-0.5,0.4-1.1,0.7-1.6,0.9
	c-0.5,0.2-1,0.3-1.5,0.3c-0.6,0-1-0.1-1.4-0.3c-0.4-0.2-0.8-0.4-1-0.8c-0.3-0.3-0.5-0.7-0.7-1.1c-0.2-0.4-0.3-0.8-0.4-1.3
	c-0.1-0.5-0.2-0.9-0.2-1.4c0-0.5-0.1-0.9-0.1-1.3c0-0.2,0-0.4,0-0.7c0-0.3,0.1-0.7,0.1-1c0-0.4,0.1-0.7,0.1-1.1
	c0-0.3,0.1-0.6,0.2-0.8c0.1-0.4,0.4-0.8,0.8-1.1c0.4-0.3,0.9-0.5,1.4-0.5c0.5,0,0.8,0.3,0.8,0.9c0,0.3,0,0.6-0.1,0.9
	c0,0.3-0.1,0.6-0.2,1c-0.1,0.6-0.2,1.1-0.2,1.6c0,0.5-0.1,0.9-0.1,1.2c0,0.4,0,0.8,0.1,1.2c0,0.4,0.1,0.7,0.2,1
	c0.1,0.3,0.2,0.5,0.3,0.7c0.1,0.2,0.3,0.3,0.5,0.3c0.2,0,0.5,0,0.7-0.1c0.2,0,0.6-0.2,0.9-0.3c0.7-0.4,1.4-0.9,2.2-1.5
	c0.3-0.2,0.6-0.5,0.9-0.8c0.3-0.3,0.7-0.6,1-0.9c0.3-0.3,0.7-0.6,1-0.9c0.3-0.3,0.5-0.6,0.7-0.8c0,0,0.1-0.1,0.1-0.1
	c0-0.1,0.1-0.1,0.1-0.2c0.1-0.1,0.1-0.1,0.2-0.2c0.1,0,0.1-0.1,0.2-0.1c0.1,0,0.2,0,0.3,0.1c0.1,0,0.1,0.1,0.2,0.3
	C94.4,62.5,94.4,62.7,94.4,62.8z M87.1,53.1c0,0.3,0,0.5-0.1,0.7c-0.1,0.2-0.2,0.5-0.3,0.7c-0.3,0.4-0.8,0.6-1.4,0.6
	c-0.2,0-0.4,0-0.7-0.1c-0.2,0-0.4-0.1-0.6-0.2c-0.2-0.1-0.3-0.2-0.4-0.3c-0.1-0.1-0.2-0.2-0.2-0.4c0-0.2,0.1-0.5,0.2-0.8
	c0.1-0.3,0.3-0.5,0.5-0.8c0.2-0.2,0.4-0.4,0.7-0.6c0.2-0.2,0.5-0.2,0.7-0.2c0.3,0,0.5,0,0.7,0.1c0.2,0,0.4,0.1,0.5,0.2
	c0.1,0.1,0.3,0.2,0.3,0.4C87.1,52.7,87.1,52.9,87.1,53.1z M81.6,65.3c0,0.1-0.1,0.3-0.3,0.6c-0.2,0.3-0.5,0.6-0.9,1
	c-0.4,0.4-0.8,0.8-1.3,1.2c-0.5,0.4-1,0.8-1.5,1.2c-0.5,0.4-1,0.7-1.6,0.9c-0.5,0.2-1,0.3-1.4,0.3c-0.4,0-0.7,0-1-0.1
	c-0.3-0.1-0.6-0.2-0.9-0.3c-0.3-0.1-0.5-0.3-0.8-0.5c-0.3-0.2-0.5-0.4-0.7-0.6c-0.2-0.2-0.5-0.4-0.7-0.7c-0.2-0.2-0.5-0.5-0.7-0.7
	c-0.2-0.2-0.4-0.4-0.6-0.6c-0.2-0.2-0.4-0.4-0.5-0.5c-0.3,0.3-0.5,0.5-0.7,0.7c-0.2,0.2-0.3,0.4-0.4,0.6c-0.1,0.2-0.2,0.4-0.2,0.5
	c0,0.2-0.1,0.4-0.1,0.6c0,0.4,0,0.7-0.1,0.9c0,0.2-0.1,0.4-0.2,0.6c-0.1,0.1-0.2,0.3-0.4,0.3c-0.2,0.1-0.4,0.1-0.7,0.1
	c-0.2,0-0.4,0-0.6-0.1c-0.1,0-0.2-0.1-0.3-0.2c-0.1-0.1-0.1-0.2-0.1-0.4c0-0.1,0-0.3,0-0.5c0-0.2,0-0.4,0-0.7c0-0.2,0.1-0.5,0.1-0.8
	c0-0.3,0.1-0.5,0.1-0.8c0-0.2,0.1-0.5,0.1-0.7c0,0,0-0.2,0.1-0.4c0-0.2,0.1-0.5,0.1-0.8c0-0.3,0.1-0.7,0.1-1.1
	c0.1-0.4,0.1-0.8,0.2-1.3c0.1-0.4,0.1-0.8,0.2-1.2c0.1-0.4,0.1-0.8,0.1-1.1c0-0.3,0.1-0.6,0.1-0.8c0-0.2,0-0.3,0-0.3
	c0.1-0.5,0.1-1,0.2-1.5c0.1-0.5,0.1-1,0.2-1.5c0.1-0.5,0.1-1,0.1-1.4c0-0.5,0.1-0.9,0.1-1.3c0-0.2,0-0.4,0.1-0.6
	c0.1-0.2,0.2-0.4,0.3-0.5c0.1-0.2,0.3-0.3,0.4-0.4c0.2-0.1,0.4-0.2,0.6-0.2c0.3,0,0.6,0,0.8,0.2c0.2,0.1,0.3,0.2,0.4,0.4
	c0.1,0.1,0.2,0.3,0.2,0.4c0,0.2,0,0.3,0,0.4c0,0.1,0,0.3,0,0.6c0,0.3-0.1,0.5-0.1,0.8c0,0.3-0.1,0.6-0.1,1c-0.1,0.3-0.1,0.6-0.2,0.9
	c-0.1,0.3-0.1,0.6-0.1,0.8c0,0.2-0.1,0.4-0.1,0.5c-0.2,0.9-0.3,1.6-0.4,2.2c-0.1,0.6-0.2,1-0.2,1.3c-0.1,0.4-0.1,0.8-0.2,1.1
	c0,0.3-0.1,0.5-0.1,0.7c0,0.2-0.1,0.4-0.1,0.6c0,0.2-0.1,0.3-0.1,0.5c0.3-0.3,0.5-0.7,0.8-1c0.3-0.3,0.6-0.7,0.9-1
	c0.3-0.3,0.6-0.7,0.8-1c0.3-0.3,0.5-0.6,0.7-0.9c0.2-0.3,0.4-0.6,0.7-0.9c0.3-0.3,0.6-0.7,0.9-1c0.3-0.3,0.7-0.6,1-0.8
	c0.4-0.2,0.7-0.3,1.1-0.3c0.2,0,0.4,0,0.6,0.1c0.1,0.1,0.3,0.2,0.4,0.3c0.1,0.1,0.1,0.2,0.2,0.4c0,0.1,0.1,0.3,0.1,0.4
	c0,0.2-0.1,0.4-0.3,0.7c-0.2,0.2-0.4,0.5-0.7,0.7c-0.3,0.3-0.5,0.5-0.8,0.8c-0.3,0.3-0.5,0.5-0.8,0.7c-0.6,0.6-1.1,1.1-1.5,1.5
	c-0.4,0.5-0.8,0.9-1.2,1.4c0.2,0.1,0.4,0.3,0.7,0.5c0.2,0.2,0.5,0.4,0.7,0.7c0.3,0.2,0.5,0.5,0.8,0.7c0.3,0.2,0.5,0.4,0.8,0.6
	c0.3,0.2,0.5,0.3,0.7,0.4c0.2,0.1,0.3,0.2,0.5,0.2C74.7,68,74.8,68,75,68c0.1,0,0.3,0,0.5,0c0.2,0,0.5,0,0.7-0.1
	c0.3-0.1,0.6-0.2,0.8-0.4c0.3-0.2,0.6-0.3,0.9-0.5c0.3-0.2,0.6-0.4,0.8-0.6c0.3-0.2,0.5-0.4,0.8-0.6c0.2-0.2,0.4-0.4,0.6-0.6
	c0.2-0.2,0.4-0.3,0.5-0.5c0.1-0.1,0.3-0.2,0.4-0.2c0.1,0,0.2,0,0.3,0.1c0.1,0.1,0.1,0.1,0.2,0.2c0,0.1,0.1,0.2,0.1,0.2
	C81.6,65.2,81.6,65.3,81.6,65.3z"/>
</svg>
