<?xml version="1.0" encoding="utf-8"?>
<!-- Generator: Adobe Illustrator 24.0.2, SVG Export Plug-In . SVG Version: 6.00 Build 0)  -->
<svg version="1.1" id="Capa_1" xmlns="http://www.w3.org/2000/svg" xmlns:xlink="http://www.w3.org/1999/xlink" x="0px" y="0px"
	 viewBox="0 0 160 170" style="enable-background:new 0 0 160 170;" xml:space="preserve">
<style type="text/css">
	.st0{fill-rule:evenodd;clip-rule:evenodd;}
	.st1{fill-rule:evenodd;clip-rule:evenodd;fill:#CA5D14;}
	.st2{fill-rule:evenodd;clip-rule:evenodd;fill:#1E1E1E;}
	.st3{fill:#FFFFFF;}
	.st4{fill:#CA5D14;}
	.st5{fill-rule:evenodd;clip-rule:evenodd;fill:#FFFFFF;}
	.st6{fill-rule:evenodd;clip-rule:evenodd;fill:#D9D9D9;}
	.st7{fill-rule:evenodd;clip-rule:evenodd;fill:#9C9C9D;}
	.st8{fill-rule:evenodd;clip-rule:evenodd;fill:#231F20;}
</style>
<path class="st0" d="M107.7,38.6h3h3l1.5,2.6l1.5,2.6l-1.5,2.6l-1.5,2.6h-3h-3l-1.5-2.6l-1.5-2.6l1.5-2.6L107.7,38.6z M97.6,43.3
	l-1.5-2.6L94.6,38l1.5-2.6l1.5-2.6h3h3l1.5,2.6l1.5,2.6l-1.5,2.6l-1.5,2.6h-3H97.6z M106.2,29.4l1.5-2.6h3h3l1.5,2.6l1.5,2.6
	l-1.5,2.6l-1.5,2.6h-3h-3l-1.5-2.6l-1.5-2.6L106.2,29.4z M97.6,44.6h3h3l1.5,2.6l1.5,2.6l-1.5,2.6l-1.5,2.6h-3h-3l-1.5-2.6l-1.5-2.6
	l1.5-2.6L97.6,44.6z M87.4,62.4h3h3L95,65l1.5,2.6L95,70.3l-1.5,2.6h-3h-3l-1.5-2.6l-1.5-2.6l1.5-2.6L87.4,62.4z M97.6,56.4h3h3
	l1.5,2.6l1.5,2.6l-1.5,2.6l-1.5,2.6h-3h-3l-1.5-2.6l-1.5-2.6l1.5-2.6L97.6,56.4z M87.4,49.3l-1.5-2.6L84.4,44l1.5-2.6l1.5-2.6h3h3
	l1.5,2.6l1.5,2.6L95,46.6l-1.5,2.6h-3H87.4z M85.9,53.2l1.5-2.6h3h3l1.5,2.6l1.5,2.6L95,58.5l-1.5,2.6h-3h-3l-1.5-2.6l-1.5-2.6
	L85.9,53.2z M77.3,80.2h3h3l1.5,2.6l1.5,2.6l-1.5,2.6l-1.5,2.6h-3h-3l-1.5-2.6l-1.5-2.6l1.5-2.6L77.3,80.2z M77.3,68.4h3h3l1.5,2.6
	l1.5,2.6l-1.5,2.6l-1.5,2.6h-3h-3l-1.5-2.6l-1.5-2.6l1.5-2.6L77.3,68.4z M75.8,59.2l1.5-2.6h3h3l1.5,2.6l1.5,2.6l-1.5,2.6l-1.5,2.6
	h-3h-3l-1.5-2.6l-1.5-2.6L75.8,59.2z M74.3,50l1.5-2.6l1.5-2.6h3h3l1.5,2.6l1.5,2.6l-1.5,2.6l-1.5,2.6h-3h-3l-1.5-2.6L74.3,50z
	 M67.1,62.6h3h3l1.5,2.6l1.5,2.6l-1.5,2.6l-1.5,2.6h-3h-3l-1.5-2.6l-1.5-2.6l1.5-2.6L67.1,62.6z M67.1,50.7h3h3l1.5,2.6l1.5,2.6
	l-1.5,2.6l-1.5,2.6h-3h-3l-1.5-2.6L64.1,56l1.5-2.6L67.1,50.7z M57,56.7h3h3l1.5,2.6L66,62l-1.5,2.6L63,67.3h-3h-3l-1.5-2.6L53.9,62
	l1.5-2.6L57,56.7z M57,44.9h3h3l1.5,2.6l1.5,2.6l-1.5,2.6L63,55.5h-3h-3l-1.5-2.6l-1.5-2.6l1.5-2.6L57,44.9z M52.8,39.1l1.5,2.6
	l1.5,2.6L54.4,47l-1.5,2.6h-3h-3L45.3,47l-1.5-2.6l1.5-2.6l1.5-2.6h3H52.8z M67.1,38.9h3h3l1.5,2.6l1.5,2.6l-1.5,2.6l-1.5,2.6h-3h-3
	l-1.5-2.6l-1.5-2.6l1.5-2.6L67.1,38.9z M77.3,19.8l-1.5-2.6l-1.5-2.6l1.5-2.6l1.5-2.6h3h3l1.5,2.6l1.5,2.6l-1.5,2.6l-1.5,2.6h-3
	H77.3z M106.2,17.5l1.5-2.6h3h3l1.5,2.6l1.5,2.6l-1.5,2.6l-1.5,2.6h-3h-3l-1.5-2.6l-1.5-2.6L106.2,17.5z M96.1,23.5l1.5-2.6h3h3
	l1.5,2.6l1.5,2.6l-1.5,2.6l-1.5,2.6h-3h-3l-1.5-2.6l-1.5-2.6L96.1,23.5z M93.5,25.6h-3h-3L85.9,23l-1.5-2.6l1.5-2.6l1.5-2.6h3h3
	l1.5,2.6l1.5,2.6L95,23L93.5,25.6z M84.4,32.2l1.5-2.6l1.5-2.6h3h3l1.5,2.6l1.5,2.6L95,34.8l-1.5,2.6h-3h-3l-1.5-2.6L84.4,32.2z
	 M74.3,38.2l1.5-2.6l1.5-2.6h3h3l1.5,2.6l1.5,2.6l-1.5,2.6l-1.5,2.6h-3h-3l-1.5-2.6L74.3,38.2z M77.3,31.6L75.8,29l-1.5-2.6l1.5-2.6
	l1.5-2.6h3h3l1.5,2.6l1.5,2.6L84.8,29l-1.5,2.6h-3H77.3z M55.9,32.5l-1.5,2.6l-1.5,2.6h-3h-3l-1.5-2.6l-1.5-2.6l1.5-2.6l1.5-2.6h3h3
	l1.5,2.6L55.9,32.5z M64.5,35.7l1.5,2.6L64.5,41L63,43.6h-3h-3L55.5,41l-1.5-2.6l1.5-2.6l1.5-2.6h3h3L64.5,35.7z M63,19.9h-3h-3
	l-1.5-2.6l-1.5-2.6l1.5-2.6L57,9.4h3h3l1.5,2.6l1.5,2.6l-1.5,2.6L63,19.9z M70.1,25.8h-3l-1.5-2.6l-1.5-2.6l1.5-2.6l1.5-2.6h3h3
	l1.5,2.6l1.5,2.6l-1.5,2.6l-1.5,2.6H70.1z M43.6,17.3l-1.5,2.6h-3h-1.5c0.1,0.4,0.1,0.9,0.2,1.3h1.3h3l1.5,2.6l1.5,2.6l-1.5,2.6
	l-1.5,2.6h-2.6c0.1,0.4,0.2,0.9,0.3,1.3h2.3l1.5,2.6l1.5,2.6L43.6,41l-1.2,2c0.7,2.1,1.4,4.2,2.2,6.3l0.5,0.8L45,50.3
	c0.3,0.7,0.6,1.4,0.9,2.1l0.9-1.6h3h3l1.5,2.6l1.5,2.6l-1.5,2.6l-1.5,2.6h-2.7c0.2,0.4,0.5,0.9,0.7,1.3h2l1.5,2.6l1.5,2.6L55,69.6
	c0.3,0.4,0.5,0.8,0.8,1.1l1.2-2.1h3h3l1.5,2.6l1.5,2.6l-1.5,2.6L63,79.1h-0.6c1.1,1.3,2.3,2.5,3.5,3.7l-0.3-0.5l-1.5-2.6l1.5-2.6
	l1.5-2.6h3h3l1.5,2.6l1.5,2.6l-1.5,2.6l-1.5,2.6h-3h-2c0.5,0.4,0.9,0.9,1.4,1.3h0.6h3l1.5,2.6l1.4,2.5c0.4,0.3,0.8,0.5,1.1,0.8
	l0-0.1h3h2.6c0.6-0.4,1.3-0.9,1.9-1.3l1.2-2.1l1.5-2.6h3h0.2c0.5-0.4,1-0.8,1.4-1.3h-1.6h-3l-1.5-2.6l-1.5-2.6l1.5-2.6l1.5-2.6h3h3
	l1.5,2.6l1.5,2.6l-1.2,2.2c0.9-0.9,1.8-1.9,2.7-2.9h-0.3l-1.5-2.6l-1.5-2.6l1.5-2.6l1.5-2.6h3h3l1,1.8c0.3-0.4,0.5-0.8,0.8-1.2
	l-0.8-1.3l1.5-2.6l1.5-2.6h1.7c0.2-0.4,0.5-0.9,0.7-1.3h-2.4l-1.5-2.6l-1.5-2.6l1.5-2.6l1.5-2.6h3h3l0.7,1.2c0.2-0.5,0.4-1,0.6-1.6
	l-0.2-0.4l1-1.8c0.6-1.7,1.2-3.4,1.8-5.2l-1.3-2.2l-1.5-2.6l1.5-2.6l1.5-2.6h2.4c0.1-0.4,0.2-0.9,0.3-1.3h-2.7l-1.5-2.6l-1.5-2.6
	l1.5-2.6l1.5-2.6h3h1.4c0.1-0.4,0.1-0.9,0.2-1.3h-1.6h-3l-1.5-2.6l-1.5-2.6l0.4-0.7c-0.4-0.2-0.8-0.3-1.1-0.5l-0.4,0.6h-3h-3
	l-1.5-2.6l-0.6-1.1c-0.6-0.2-1.2-0.4-1.8-0.5l1.4,2.4l1.5,2.6l-1.5,2.6l-1.5,2.6h-3h-3L96.1,17l-1.5-2.6l1.5-2.6l1.5-2.6h3h2.3
	c-1.8-0.5-3.5-0.9-5.3-1.3h0l0,0c-0.6-0.1-1.1-0.2-1.7-0.3l0.6,1.1L95,11.1l-1.5,2.6h-3h-3l-1.5-2.6l-1.5-2.6l1.4-2.4
	c-0.5,0-0.9-0.1-1.4-0.1l-1.1,1.9h-3h-3L76.2,6c-0.5,0-1,0-1.5,0.1l1.5,2.6l-1.5,2.6l-1.5,2.6h-3h-3l-1.5-2.6l-1.5-2.6l0.8-1.4
	c-0.5,0.1-1.1,0.2-1.6,0.3L63,8.1h-2.2c-1.8,0.4-3.6,0.9-5.4,1.4l-1.1,2l-1.5,2.6h-3h-3l-0.7-1.3c-0.5,0.2-1.1,0.5-1.6,0.7l0.6,1.1
	L43.6,17.3z M54.4,23.3L52.8,26h-3h-3l-1.5-2.6l-1.5-2.6l1.5-2.6l1.5-2.6h3h3l1.5,2.6l1.5,2.6L54.4,23.3z M63,31.8h-3h-3l-1.5-2.6
	l-1.5-2.6l1.5-2.6l1.5-2.6h3h3l1.5,2.6l1.5,2.6l-1.5,2.6L63,31.8z M73.2,37.6h-3h-3L65.6,35l-1.5-2.6l1.5-2.6l1.5-2.6h3h3l1.5,2.6
	l1.5,2.6L74.7,35L73.2,37.6z"/>
<path class="st1" d="M80,93.9c3.4-2.1,6.6-4.4,9.6-7c9.8-8.3,17.4-18.9,22.8-30.6c5.7-12.3,9-25.8,10.3-39.3
	c-27.6-14.8-57.9-14.8-85.5,0c1.3,13.5,4.6,27,10.3,39.3C53,68,60.6,78.6,70.4,86.9C73.4,89.5,76.6,91.8,80,93.9 M36.3,16.5
	c28.2-15.4,59.2-15.4,87.4,0C120.6,50.2,105.6,79.6,80,95C54.4,79.6,39.4,50.2,36.3,16.5z"/>
<path class="st2" d="M42.1,19.9l1.5-2.6l1.5-2.6l-0.6-1.1c-2.4,1.1-4.8,2.2-7.2,3.5c0.1,1,0.2,1.9,0.3,2.9h1.5H42.1z"/>
<path class="st2" d="M46.8,14.1h3h3l1.5-2.6l1.1-2c-3.2,0.9-6.3,2-9.4,3.3L46.8,14.1z"/>
<polygon class="st2" points="53.9,14.7 55.5,17.3 57,19.9 60,19.9 63,19.9 64.5,17.3 66,14.7 64.5,12 63,9.4 60,9.4 57,9.4 55.5,12 
	"/>
<path class="st2" d="M65.6,11.3l1.5,2.6h3h3l1.5-2.6l1.5-2.6l-1.5-2.6c-3.3,0.2-6.6,0.6-9.8,1.2l-0.8,1.4L65.6,11.3z"/>
<path class="st2" d="M76.2,6l1.1,1.9h3h3l1.1-1.9C81.7,5.9,78.9,5.9,76.2,6"/>
<path class="st2" d="M84.4,8.5l1.5,2.6l1.5,2.6h3h3l1.5-2.6l1.5-2.6l-0.6-1.1c-3.4-0.6-6.7-1.1-10.1-1.3L84.4,8.5z"/>
<path class="st2" d="M96.1,11.7l-1.5,2.6l1.5,2.6l1.5,2.6h3h3l1.5-2.6l1.5-2.6l-1.5-2.6l-1.4-2.4c-0.3-0.1-0.6-0.2-0.9-0.2h-2.3h-3
	L96.1,11.7z"/>
<path class="st2" d="M106.2,11l1.5,2.6h3h3l0.4-0.6c-2.8-1.2-5.7-2.2-8.6-3.1L106.2,11z"/>
<path class="st2" d="M114.9,14.2l1.5,2.6l1.5,2.6h3h1.6c0.1-0.8,0.2-1.6,0.3-2.4c-2.5-1.3-4.9-2.5-7.4-3.6L114.9,14.2z"/>
<path class="st2" d="M117.9,20.7l-1.5,2.6l-1.5,2.6l1.5,2.6l1.5,2.6h2.7c0.7-3.5,1.3-7,1.7-10.6h-1.4H117.9z"/>
<polygon class="st2" points="115.3,22.8 116.8,20.2 115.3,17.5 113.8,14.9 110.8,14.9 107.7,14.9 106.2,17.5 104.7,20.2 106.2,22.8 
	107.7,25.4 110.8,25.4 113.8,25.4 "/>
<polygon class="st2" points="95,23 96.5,20.3 95,17.7 93.5,15.1 90.4,15.1 87.4,15.1 85.9,17.7 84.4,20.3 85.9,23 87.4,25.6 
	90.4,25.6 93.5,25.6 "/>
<polygon class="st2" points="84.8,17.1 86.3,14.5 84.8,11.9 83.3,9.2 80.3,9.2 77.3,9.2 75.8,11.9 74.3,14.5 75.8,17.1 77.3,19.8 
	80.3,19.8 83.3,19.8 "/>
<polygon class="st2" points="76.2,20.5 74.7,17.9 73.2,15.2 70.1,15.2 67.1,15.2 65.6,17.9 64.1,20.5 65.6,23.1 67.1,25.8 
	70.1,25.8 73.2,25.8 74.7,23.1 "/>
<polygon class="st2" points="54.4,23.3 55.9,20.7 54.4,18 52.8,15.4 49.8,15.4 46.8,15.4 45.3,18 43.8,20.7 45.3,23.3 46.8,26 
	49.8,26 52.8,26 "/>
<path class="st2" d="M45.1,26.5l-1.5-2.6l-1.5-2.6h-3h-1.3c0.5,3.5,1,7.1,1.8,10.6h2.6l1.5-2.6L45.1,26.5z"/>
<polygon class="st2" points="46.8,27.2 45.3,29.9 43.8,32.5 45.3,35.1 46.8,37.8 49.8,37.8 52.8,37.8 54.4,35.1 55.9,32.5 
	54.4,29.9 52.8,27.2 49.8,27.2 "/>
<polygon class="st2" points="53.9,26.5 55.5,29.1 57,31.8 60,31.8 63,31.8 64.5,29.1 66,26.5 64.5,23.9 63,21.2 60,21.2 57,21.2 
	55.5,23.9 "/>
<polygon class="st2" points="65.6,29.7 64.1,32.3 65.6,35 67.1,37.6 70.1,37.6 73.2,37.6 74.7,35 76.2,32.3 74.7,29.7 73.2,27.1 
	70.1,27.1 67.1,27.1 "/>
<polygon class="st2" points="74.3,26.3 75.8,29 77.3,31.6 80.3,31.6 83.3,31.6 84.8,29 86.3,26.3 84.8,23.7 83.3,21.1 80.3,21.1 
	77.3,21.1 75.8,23.7 "/>
<polygon class="st2" points="87.4,26.9 85.9,29.5 84.4,32.2 85.9,34.8 87.4,37.4 90.4,37.4 93.5,37.4 95,34.8 96.5,32.2 95,29.5 
	93.5,26.9 90.4,26.9 "/>
<polygon class="st2" points="94.6,26.2 96.1,28.8 97.6,31.4 100.6,31.4 103.6,31.4 105.1,28.8 106.6,26.2 105.1,23.5 103.6,20.9 
	100.6,20.9 97.6,20.9 96.1,23.5 "/>
<polygon class="st2" points="106.2,29.4 104.7,32 106.2,34.6 107.7,37.3 110.8,37.3 113.8,37.3 115.3,34.6 116.8,32 115.3,29.4 
	113.8,26.7 110.8,26.7 107.7,26.7 "/>
<path class="st2" d="M116.4,35.2l-1.5,2.6l1.5,2.6l1.3,2.2c1-3.3,1.9-6.7,2.7-10.1h-2.4L116.4,35.2z"/>
<path class="st2" d="M45.1,38.3l-1.5-2.6l-1.5-2.6h-2.3c0.7,3.4,1.6,6.7,2.7,9.9l1.2-2L45.1,38.3z"/>
<polygon class="st2" points="46.8,39.1 45.3,41.7 43.8,44.3 45.3,47 46.8,49.6 49.8,49.6 52.8,49.6 54.4,47 55.9,44.3 54.4,41.7 
	52.8,39.1 49.8,39.1 "/>
<polygon class="st2" points="53.9,38.3 55.5,41 57,43.6 60,43.6 63,43.6 64.5,41 66,38.3 64.5,35.7 63,33.1 60,33.1 57,33.1 
	55.5,35.7 "/>
<polygon class="st2" points="65.6,41.5 64.1,44.2 65.6,46.8 67.1,49.4 70.1,49.4 73.2,49.4 74.7,46.8 76.2,44.2 74.7,41.5 
	73.2,38.9 70.1,38.9 67.1,38.9 "/>
<polygon class="st2" points="74.3,38.2 75.8,40.8 77.3,43.4 80.3,43.4 83.3,43.4 84.8,40.8 86.3,38.2 84.8,35.5 83.3,32.9 
	80.3,32.9 77.3,32.9 75.8,35.5 "/>
<polygon class="st2" points="85.9,41.4 84.4,44 85.9,46.6 87.4,49.3 90.4,49.3 93.5,49.3 95,46.6 96.5,44 95,41.4 93.5,38.7 
	90.4,38.7 87.4,38.7 "/>
<polygon class="st2" points="94.6,38 96.1,40.6 97.6,43.3 100.6,43.3 103.6,43.3 105.1,40.6 106.6,38 105.1,35.4 103.6,32.7 
	100.6,32.7 97.6,32.7 96.1,35.4 "/>
<polygon class="st2" points="106.2,41.2 104.7,43.8 106.2,46.5 107.7,49.1 110.8,49.1 113.8,49.1 115.3,46.5 116.8,43.8 115.3,41.2 
	113.8,38.6 110.8,38.6 107.7,38.6 "/>
<polygon class="st2" points="105.1,47.2 103.6,44.6 100.6,44.6 97.6,44.6 96.1,47.2 94.6,49.8 96.1,52.5 97.6,55.1 100.6,55.1 
	103.6,55.1 105.1,52.5 106.6,49.8 "/>
<polygon class="st2" points="95,53.2 93.5,50.6 90.4,50.6 87.4,50.6 85.9,53.2 84.4,55.8 85.9,58.5 87.4,61.1 90.4,61.1 93.5,61.1 
	95,58.5 96.5,55.8 "/>
<polygon class="st2" points="84.8,52.6 86.3,50 84.8,47.4 83.3,44.7 80.3,44.7 77.3,44.7 75.8,47.4 74.3,50 75.8,52.6 77.3,55.3 
	80.3,55.3 83.3,55.3 "/>
<polygon class="st2" points="74.7,53.4 73.2,50.7 70.1,50.7 67.1,50.7 65.6,53.4 64.1,56 65.6,58.6 67.1,61.3 70.1,61.3 73.2,61.3 
	74.7,58.6 76.2,56 "/>
<polygon class="st2" points="64.5,52.8 66,50.2 64.5,47.5 63,44.9 60,44.9 57,44.9 55.5,47.5 53.9,50.2 55.5,52.8 57,55.5 60,55.5 
	63,55.5 "/>
<path class="st2" d="M55.9,56.2l-1.5-2.6l-1.5-2.6h-3h-3l-0.9,1.6c0.5,1.3,1.1,2.6,1.7,3.9c0.8,1.7,1.6,3.4,2.5,5.1h2.7l1.5-2.6
	L55.9,56.2z"/>
<polygon class="st2" points="57,56.7 55.5,59.4 53.9,62 55.5,64.6 57,67.3 60,67.3 63,67.3 64.5,64.6 66,62 64.5,59.4 63,56.7 
	60,56.7 "/>
<polygon class="st2" points="67.1,62.6 65.6,65.2 64.1,67.8 65.6,70.5 67.1,73.1 70.1,73.1 73.2,73.1 74.7,70.5 76.2,67.8 
	74.7,65.2 73.2,62.6 70.1,62.6 "/>
<polygon class="st2" points="74.3,61.8 75.8,64.5 77.3,67.1 80.3,67.1 83.3,67.1 84.8,64.5 86.3,61.8 84.8,59.2 83.3,56.6 
	80.3,56.6 77.3,56.6 75.8,59.2 "/>
<polygon class="st2" points="87.4,62.4 85.9,65 84.4,67.7 85.9,70.3 87.4,72.9 90.4,72.9 93.5,72.9 95,70.3 96.5,67.7 95,65 
	93.5,62.4 90.4,62.4 "/>
<polygon class="st2" points="94.6,61.7 96.1,64.3 97.6,66.9 100.6,66.9 103.6,66.9 105.1,64.3 106.6,61.7 105.1,59 103.6,56.4 
	100.6,56.4 97.6,56.4 96.1,59 "/>
<path class="st2" d="M104.7,55.7l1.5,2.6l1.5,2.6h2.4c0.8-1.5,1.5-3,2.2-4.5c0.7-1.6,1.4-3.2,2.1-4.8l-0.7-1.2h-3h-3l-1.5,2.6
	L104.7,55.7z"/>
<path class="st2" d="M55.9,68l-1.5-2.6l-1.5-2.6h-2c1.3,2.3,2.7,4.6,4.2,6.8L55.9,68z"/>
<path class="st2" d="M57,68.6l-1.2,2.1c2,2.9,4.2,5.8,6.6,8.4H63l1.5-2.6l1.5-2.6l-1.5-2.6L63,68.6h-3H57z"/>
<path class="st2" d="M67.1,74.4L65.6,77l-1.5,2.6l1.5,2.6l0.3,0.5c0.7,0.7,1.5,1.4,2.2,2.1h2h3l1.5-2.6l1.5-2.6L74.7,77l-1.5-2.6h-3
	H67.1z"/>
<polygon class="st2" points="77.3,80.2 75.8,82.9 74.3,85.5 75.8,88.1 77.3,90.8 80.3,90.8 83.3,90.8 84.8,88.1 86.3,85.5 
	84.8,82.9 83.3,80.2 80.3,80.2 "/>
<path class="st2" d="M84.4,79.5l1.5,2.6l1.5,2.6h3h1.6c1.1-1,2.1-2,3.2-3.1l1.2-2.2L95,76.9l-1.5-2.6h-3h-3l-1.5,2.6L84.4,79.5z"/>
<polygon class="st2" points="83.3,78.9 84.8,76.3 86.3,73.7 84.8,71 83.3,68.4 80.3,68.4 77.3,68.4 75.8,71 74.3,73.7 75.8,76.3 
	77.3,78.9 80.3,78.9 "/>
<path class="st2" d="M94.6,73.5l1.5,2.6l1.5,2.6h0.3c2.4-2.8,4.7-5.7,6.7-8.7l-1-1.8h-3h-3l-1.5,2.6L94.6,73.5z"/>
<path class="st2" d="M106.2,64.9l-1.5,2.6l0.8,1.3c1.4-2.1,2.7-4.4,4-6.6h-1.7L106.2,64.9z"/>
<path class="st2" d="M90.4,86.1h-3l-1.5,2.6l-1.2,2.1c1.7-1.2,3.3-2.5,4.9-3.8c0.3-0.3,0.7-0.6,1-0.9H90.4z"/>
<path class="st2" d="M82.9,92.1h-2.6h-3l0,0.1c0.9,0.6,1.8,1.2,2.8,1.8C81,93.3,81.9,92.7,82.9,92.1"/>
<path class="st2" d="M74.7,88.9l-1.5-2.6h-3h-0.6c0.3,0.2,0.6,0.5,0.8,0.7c1.8,1.6,3.7,3,5.7,4.4L74.7,88.9z"/>
<path class="st2" d="M63,8.1l0.3-0.5c-0.8,0.2-1.6,0.3-2.4,0.5H63z"/>
<path class="st2" d="M115.9,47.9l-1,1.8l0.2,0.4C115.4,49.3,115.6,48.6,115.9,47.9"/>
<path class="st3" d="M63.7,14.9c-0.1,0-0.2,0-0.3,0c-1.1,0-2.1,0-3.2,0c-0.1,0-0.2,0-0.3,0c-0.1,0-0.2-0.1-0.1-0.2
	c0-0.1,0.1-0.1,0.1-0.2c0.1,0,0.2,0,0.3,0c2.3,0,4.7,0,7,0c0.4,0,0.8,0,1.2,0c0.2,0,0.3,0.1,0.3,0.2c0,0.1-0.1,0.2-0.3,0.2
	c-1.2,0-2.4,0-3.6,0c-0.1,0-0.2,0-0.3,0c-0.3,0-0.3,0-0.4,0.3c-0.3,0.9-0.6,1.9-1,2.8c-0.8,2.2-1.5,4.3-2.3,6.5
	c0,0.1-0.1,0.2-0.1,0.3c-0.1,0.1-0.1,0.1-0.3,0.1c-0.1,0-0.1-0.1-0.1-0.2c0-0.1,0-0.1,0.1-0.2c0.7-1.9,1.3-3.8,2-5.7
	c0.2-0.7,0.5-1.3,0.7-2c0-0.1,0-0.2,0-0.3c0,0.1-0.1,0.1-0.1,0.2c-0.9,1.3-1.7,2.6-2.7,3.9c-0.6,0.8-1.2,1.6-1.9,2.3
	c-0.3,0.3-0.6,0.6-1,0.8c-0.2,0.1-0.4,0.2-0.7,0.3c-0.5,0.1-0.9,0-1.3-0.4c-0.2-0.2-0.4-0.5-0.4-0.8c-0.2-0.7-0.1-1.4,0.1-2.2
	c0.3-1.3,0.8-2.5,1.3-3.7c0.6-1.1,1.2-2.3,1.8-3.3c0.7-1.2,1.5-2.3,2.4-3.3c0.4-0.4,0.8-0.8,1.3-1.2c0.3-0.2,0.6-0.4,0.9-0.4
	c0.8-0.2,1.4,0.2,1.6,1c0.1,0.4,0,0.8,0,1.3c0,0.2-0.1,0.2-0.2,0.2c-0.1,0-0.2-0.1-0.2-0.3c0-0.2,0.1-0.4,0.1-0.6c0-0.2,0-0.4,0-0.6
	C64,9.2,63.6,8.9,63,9.1c-0.3,0.1-0.5,0.2-0.8,0.4c-0.5,0.3-1,0.8-1.4,1.3c-1.2,1.4-2.2,2.9-3.1,4.5c-0.7,1.3-1.4,2.6-1.9,4
	c-0.2,0.7-0.4,1.4-0.6,2.1c-0.1,0.4-0.1,0.9,0.1,1.3c0.1,0.2,0.2,0.4,0.3,0.6c0.4,0.4,0.7,0.5,1.2,0.2c0.4-0.2,0.8-0.5,1.2-0.8
	c0.9-0.8,1.6-1.8,2.3-2.7c1.1-1.6,2.2-3.2,3.2-4.8C63.6,15.1,63.7,15,63.7,14.9"/>
<path class="st3" d="M88.6,18c-0.2,0-0.4,0-0.5,0c-0.1,0-0.1,0.1-0.2,0.1c-0.2,0.3-0.5,0.6-0.8,0.8c0,0-0.1,0-0.1,0.1
	c-0.4,0.2-0.7-0.1-0.7-0.5c0-0.1,0-0.2,0.1-0.4c-0.1,0-0.2,0-0.2,0.1c-0.4,0.1-0.9,0.3-1.3,0.4c-0.3,0.1-0.7,0.1-1,0.1
	c-0.4,0-0.6-0.2-0.7-0.5c0,0,0-0.1,0-0.2c-0.1,0-0.2,0-0.3,0c-0.5,0.1-1,0.2-1.5,0.3c-0.1,0-0.2,0-0.3,0c-0.3,0-0.6,0-0.8-0.3
	c-0.1,0-0.2,0.1-0.2,0.1c-0.2,0.1-0.4,0.2-0.6,0.2c-0.4,0.1-0.7,0-0.9-0.4c-0.1-0.2-0.2-0.2-0.4-0.1c-0.2,0.2-0.4,0.4-0.6,0.6
	c-0.2,0.2-0.3,0.3-0.5,0.4c-0.3,0.2-0.4,0.1-0.6-0.2c0,0,0,0-0.1,0c-0.3,0.6-0.6,1.2-0.6,1.9c0,0.2-0.1,0.3-0.2,0.3
	c-0.1,0-0.2-0.1-0.2-0.3c0-0.2,0-0.4,0.1-0.6c0.1-0.3,0.2-0.6,0.4-1c0.2-0.4,0.3-0.9,0.5-1.3c0-0.1,0-0.2,0.1-0.3
	c0-0.2,0-0.4-0.2-0.5c-0.2-0.1-0.3-0.2-0.5-0.4c-0.4-0.3-0.5-0.7-0.2-1.1c0.1-0.1,0.2-0.2,0.3-0.3c0.2-0.1,0.4-0.1,0.6,0
	c0.2,0.1,0.2,0.3,0.2,0.5c0,0.2-0.1,0.4-0.2,0.6c0,0.1-0.1,0.1-0.1,0.2c0.1,0.1,0.2,0.1,0.2,0.2c0.3,0.2,0.4,0.5,0.4,0.9
	c0,0.2-0.1,0.4-0.1,0.6c0.1-0.1,0.1-0.2,0.2-0.2c0.3-0.4,0.5-0.7,0.8-1.1c0.1-0.1,0.3-0.2,0.4-0.3c0.2-0.1,0.4,0,0.5,0.2
	c0.1,0.1,0,0.3-0.1,0.3c-0.1,0.1-0.2,0.1-0.3,0c0,0,0,0-0.1,0c-0.4,0.4-0.7,0.9-1,1.4c0,0,0,0,0.1,0.1c0.1-0.1,0.2-0.2,0.3-0.3
	c0.2-0.2,0.4-0.4,0.6-0.6c0.1-0.1,0.2-0.1,0.2-0.2c0.3-0.2,0.5-0.1,0.7,0.2c0.2,0.3,0.4,0.4,0.7,0.3c0.3-0.1,0.5-0.2,0.8-0.4
	c0.1,0,0.1-0.1,0.2-0.2c0.1-0.2,0.3-0.4,0.5-0.5c0.1-0.1,0.2-0.1,0.3-0.1c0.1,0,0.2,0.1,0.2,0.3c0,0.1-0.1,0.2-0.2,0.2
	c-0.2,0-0.5,0.3-0.5,0.5c0,0.1,0,0.2,0.1,0.2c0.1,0,0.3,0,0.4,0c0.7-0.1,1.3-0.2,2-0.4c0.1,0,0.2-0.1,0.2-0.2
	c0.1-0.2,0.2-0.4,0.2-0.5c0-0.1,0.1-0.1,0.1-0.2c0.1-0.1,0.1-0.1,0.2-0.1c0.1,0,0.1,0.1,0.1,0.2c0,0.1-0.1,0.2-0.1,0.3
	c-0.1,0.2-0.2,0.5-0.2,0.7c-0.1,0.3,0,0.4,0.3,0.4c0.1,0,0.2,0,0.4,0c0.7-0.1,1.3-0.3,1.9-0.5c0.4-0.1,0.7-0.4,0.9-0.7
	c0-0.1,0.1-0.1,0.1-0.2c0.1-0.1,0.2-0.1,0.3-0.1c0.1,0.1,0.1,0.2,0.1,0.3c0,0.1-0.1,0.1-0.1,0.2c0.1,0,0.2,0,0.3,0.1
	c0.1,0.1,0.2,0.1,0.3,0.2c0.1,0.1,0.2,0.1,0.3,0.1c0,0,0.1,0,0.1,0c0.5,0,0.5,0,0.7-0.4c0-0.1,0.1-0.2,0.1-0.3
	c0.1-0.1,0.1-0.1,0.2-0.1c0.1,0,0.1,0.1,0.1,0.3c0,0.1-0.1,0.1-0.1,0.2c-0.1,0.3-0.3,0.6-0.4,0.9c0,0.1,0,0.2-0.1,0.3
	c0.1,0,0.2-0.1,0.3-0.2c0.3-0.3,0.6-0.6,1-0.9c0.2-0.2,0.4-0.3,0.6-0.5c0.4-0.3,0.8-0.2,1,0.3c0.1,0.2,0.1,0.3,0.2,0.5
	c0.2,0.4,0.4,0.5,0.8,0.5c0.3,0,0.6-0.2,0.9-0.4c0.1,0,0.1-0.1,0.2-0.1c0.1-0.1,0.2-0.1,0.2,0c0.1,0.1,0.1,0.2,0,0.2
	c0,0-0.1,0.1-0.1,0.1c-0.3,0.2-0.6,0.3-0.9,0.4c-0.7,0.2-1.3,0-1.6-0.7c-0.1-0.1-0.1-0.3-0.2-0.4c-0.1-0.3-0.2-0.3-0.5-0.1
	c-0.2,0.1-0.3,0.2-0.4,0.4c-0.3,0.3-0.6,0.6-0.9,0.9c-0.2,0.2-0.4,0.3-0.5,0.4c-0.1,0.1-0.2,0.1-0.4,0c-0.1-0.1-0.2-0.2-0.1-0.4
	c0-0.1,0.1-0.2,0.1-0.4C88.5,18.2,88.5,18.1,88.6,18 M87,17.7c-0.2,0.3-0.3,0.7-0.2,0.9c0.3-0.1,0.6-0.3,0.8-0.7
	C87.3,17.9,87.1,17.8,87,17.7z M75.4,16.2c0.2-0.2,0.3-0.4,0.2-0.6C75.3,15.6,75.2,15.9,75.4,16.2z"/>
<path class="st3" d="M72.1,18.1c-0.1,0.1-0.2,0.1-0.3,0.1c-0.3,0.1-0.5,0.2-0.8,0.3c-0.6,0.1-1-0.2-1.3-0.7
	c-0.1-0.2-0.1-0.4-0.2-0.5c-0.1-0.2-0.2-0.2-0.4-0.1c-0.2,0.1-0.3,0.3-0.5,0.4c-0.3,0.3-0.6,0.6-1,0.9c-0.2,0.1-0.3,0.3-0.5,0.4
	c-0.1,0.1-0.2,0.1-0.4,0c-0.1-0.1-0.2-0.2-0.1-0.4c0-0.1,0-0.2,0.1-0.3c0-0.1,0-0.1,0.1-0.2c-0.1,0-0.2,0-0.3,0
	c-0.4,0.1-0.9,0.2-1.3,0.2c-0.2,0-0.4,0-0.7,0c-0.5-0.1-0.7-0.4-0.5-0.9c0.1-0.2,0.3-0.4,0.4-0.5c0.2-0.1,0.3-0.1,0.5,0
	c0.1,0.1,0.1,0.3,0,0.5c-0.1,0.1-0.2,0.2-0.3,0.4c-0.1,0.1-0.1,0.1-0.2,0.2c0.1,0.1,0.2,0.1,0.2,0.1c0.2,0,0.4,0,0.7-0.1
	c0.5-0.1,0.9-0.2,1.4-0.3c0.2,0,0.3-0.1,0.3-0.3c0-0.1,0.1-0.2,0.1-0.3c0.1-0.2,0.2-0.3,0.3-0.2c0.1,0.1,0.1,0.2,0,0.4
	c-0.1,0.3-0.3,0.6-0.4,1c0,0.1-0.1,0.2-0.1,0.3c0.1,0,0.2-0.1,0.3-0.2c0.3-0.3,0.6-0.6,1-0.9c0.1-0.1,0.3-0.3,0.5-0.4
	c0.1-0.1,0.2-0.1,0.3-0.2c0.3-0.1,0.5,0,0.7,0.2c0.1,0.1,0.1,0.2,0.2,0.3c0.1,0.1,0.1,0.3,0.2,0.4c0.1,0.3,0.4,0.5,0.7,0.4
	c0.6-0.1,1-0.3,1.4-0.7c0.1-0.2,0.3-0.3,0.4-0.5c0.2-0.2,0.4-0.2,0.5-0.1c0.1,0.1,0.1,0.3,0,0.5c-0.1,0.1-0.2,0.3-0.3,0.4
	c0,0-0.1,0.1-0.2,0.1c0.2,0.1,0.4,0.1,0.5,0.1c0.6-0.1,1.3-0.2,1.9-0.4c0.1,0,0.1,0,0.2,0c0.2,0,0.2,0,0.3,0.1c0,0.1,0,0.2-0.2,0.2
	c-0.1,0-0.1,0-0.2,0c-0.6,0.1-1.2,0.2-1.8,0.4c0,0,0,0-0.1,0C72.8,18.4,72.4,18.4,72.1,18.1"/>
<path class="st3" d="M83.9,16.1c-0.2,0-0.3-0.1-0.3-0.3c0-0.2,0.2-0.4,0.4-0.4c0.2,0,0.3,0.1,0.3,0.3C84.3,15.9,84.2,16,83.9,16.1"
	/>
<path class="st3" d="M88.4,16.4c0-0.1,0-0.1,0-0.2c0,0,0,0,0.1,0c0.2,0,0.3-0.1,0.5-0.1c0.1,0,0.1,0,0.2,0.2
	C88.9,16.2,88.7,16.3,88.4,16.4"/>
<path class="st4" d="M80.5,22.9L80,23.8h0.9L80.5,22.9z M80.5,21.9l1.2,2.4h-2.4L80.5,21.9z M78.8,25l0.3-0.6h2.6L82,25h0.2
	l-1.7-3.4h0L78.7,25H78.8z M80.4,20.7L80.4,20.7l2.6,4.8l0,0.1h-1.3L81.4,25h-1.9l-0.3,0.6h-1.3l0-0.1L80.4,20.7z M73.1,25v-3
	l1.9,1.6h0L77,22v3h0.2v-3.3l0,0l-2.1,1.8L73,21.7l0,0V25H73.1z M73.7,25.6h-1.2v-4.9h0.1l2.6,2.2l2.6-2.2h0.1v4.9h-1.2v-2.4
	l-1.4,1.2h-0.1l-1.4-1.2V25.6z M69.2,25h2v-0.2h-1.9v-1.6h1.5v-0.2h-1.5v-1.8h1.9v-0.2h-2V25z M71.7,24.4v1.2h-3.1v-4.8h3.1v1.2
	h-1.9v0.7h1.5v1.2h-1.5v0.5H71.7z M65.9,21.9h-0.5v1.2h0.4c0.5,0,0.8-0.2,0.8-0.6C66.6,22.1,66.4,21.9,65.9,21.9z M65.9,21.4
	c0.4,0,0.7,0.1,0.9,0.3c0.2,0.2,0.3,0.4,0.3,0.8c0,0.3-0.1,0.6-0.3,0.8c-0.2,0.2-0.5,0.3-0.9,0.3h-1.1v-2.2H65.9z M66,23.8
	c0.1,0,0.2,0,0.4,0l0.7,1.3h0.2l-0.8-1.4c0.3-0.1,0.5-0.2,0.6-0.5c0.1-0.2,0.2-0.5,0.2-0.8c0-0.4-0.1-0.7-0.4-0.9
	c-0.3-0.2-0.6-0.3-1-0.3h-1.2V25h0.2v-1.3H66z M65.4,25.6h-1.2v-4.8h2c0.5,0,0.9,0.1,1.2,0.4c0.3,0.3,0.5,0.7,0.5,1.3
	c0,0.7-0.2,1.1-0.7,1.5l0.9,1.6l0,0.1h-1.2l-0.7-1.3h-0.7V25.6z"/>
<path class="st3" d="M102.5,25h2v-0.2h-1.9v-1.6h1.5v-0.2h-1.5v-1.8h1.9v-0.2h-2V25z M105,24.4v1.2H102v-4.8h3.1v1.2h-1.9v0.7h1.5
	v1.2h-1.5v0.5H105z M99.4,25v-3.6h1.5v-0.2h-3.1v0.2h1.5V25H99.4z M100,25.6h-1.2V22h-1.5v-1.2h4.2V22H100V25.6z M93,25v-3l3.2,2.5
	l0,0v-3.3h-0.2v3l-3.2-2.5l0,0V25H93z M93.5,25.6h-1.2v-4.9h0.1l3.2,2.6v-2.5h1.2v4.9h-0.1L93.5,23V25.6z M89,25h2v-0.2h-1.9v-1.6
	h1.5v-0.2h-1.5v-1.8h1.9v-0.2h-2V25z M91.6,24.4v1.2h-3.1v-4.8h3.1v1.2h-1.9v0.7h1.5v1.2h-1.5v0.5H91.6z M83.9,25v-3l3.2,2.5l0,0
	v-3.3h-0.2v3l-3.2-2.5l0,0V25H83.9z M84.4,25.6h-1.2v-4.9h0.1l3.2,2.6v-2.5h1.2v4.9h-0.1L84.4,23V25.6z"/>
<path class="st5" d="M76.1,53.9c-0.1,0.3-0.2,0.5-0.3,0.8c-0.2,0.3-1.2,1.3-1.4,2l0,0.1c-0.2,0.2-0.3,0.5-0.3,0.8
	c0,0.1-0.1,0.3-0.1,0.5c0,0.3,0.1,0.2,0.1,0.4c0,0.2,0.2,0.5,0.3,0.7c0.2,0.3,0.3,0.4,0.5,0.6c0.9,0.3,1.5,0.5,2.6,0.5
	c0.4,0,2.8,0.1,2.9,0c0-0.1-0.1-0.1-0.2-0.2C80,60,79.9,60,79.8,60c-0.9-0.3-2-1.1-2.5-1.8l-0.5-0.8c-0.1-0.1,0-0.2-0.2-0.3
	c-0.2,0.2,0.1,0.7-0.2,1c-0.4-0.1-0.5-0.7-0.5-1.2c0.1-0.9,0.9-2,0.6-3.9c0-0.2,0-0.2-0.1-0.3C76.2,52.8,76.2,53.5,76.1,53.9
	L76.1,53.9z"/>
<path class="st5" d="M79.4,44.4c-0.1,0.3-0.2,0.2-0.2,0.6l0.2,2.4c0,0.4,0.2,2.9,0.3,3c0.2,0.2,0.5,0,0.5-0.2l0.2-2.3
	c0-0.5,0.1-1,0.1-1.6l0.1-1.1c0-0.2-0.1-0.3,0-0.4c0-0.3-0.1-0.1-0.3-0.5c-0.1-0.1-0.2-0.5-0.3-0.5c-0.1,0.1,0,0.4,0,0.6
	C79.7,44.3,79.6,44.3,79.4,44.4"/>
<path class="st5" d="M76,60.7c1.3,0.4,0.8,0.3,2.1,0.5c0.1,0,0.4,0.1,0.5,0.1c0.4,0.3-0.1,0.4,1.5,0.4c0.5,0,0.7,0,1-0.3
	c0.2-0.3,1.4-0.3,2.1-0.4c0.3-0.1,0.8-0.1,0.8-0.4c-0.2-0.2-0.7-0.1-0.9-0.1c-0.4,0-0.7,0.1-1,0.1c-1.7,0.1-2.6,0.1-4.3,0
	c-0.7,0-1.4-0.2-2.1-0.2c0,0.1,0,0.1,0,0.2L76,60.7z"/>
<path class="st5" d="M74.1,68.9C74.1,69,74,69,73.8,69l-1.4,0c-0.1,0-0.2,0-0.3,0c-0.6-0.1,0.2,0.6,0.3,0.8l0.8,0.3L73,70.8
	c0,0.4,0,0.6,0.2,0.8c0.1,0.1,0.3,0.5,0.5,0.5c0.1-0.2,0-0.7,0.2-0.9c0-0.1,0-0.1,0-0.3c0.6,1.9,1.6,2.4,3.5,2.8
	c1,0.3,1.8,0.4,2.5,1.3c0.1,0,0.1,0,0.1-0.1l0-0.1c-0.4-0.2-1.6-2.3-2.3-2.7c0,0.2,0.1,0.3,0,0.6c-0.5,0.1-0.9-0.6-1-1.1
	c0-0.2-0.1-0.5-0.1-0.6c-0.1,0.4,0,0.8-0.2,1c-0.3,0-0.5-0.3-0.6-0.6c-0.2-0.3-0.2-0.5-0.2-1c-0.2,0.1-0.1,0.4-0.4,0.4
	c-0.1-0.2,0.2-0.9,0.5-1.2c0.1-0.1,0.3-0.2,0.3-0.3c-0.3-0.1-0.7,0-1-0.1c0-0.2,0.4-0.4,0.6-0.7c0.2-0.2,0.5-0.5,0.7-0.6l-0.1,0
	c-0.1,0-0.6,0.3-0.9,0.4C74.9,68.8,74.4,69,74.1,68.9"/>
<path class="st5" d="M74.3,80.1c0.6,1.2,1.2,1.8,2.1,2.5c0.9,0.6,2,1.2,3.3,1.4c-0.1-0.1-0.3-0.1-0.4-0.2c-1-0.4-1.9-0.8-2.8-1.5
	c-1.1-0.8-1.5-1.7-1.3-3.5l0-0.2l-0.1-0.1c0,0,0-0.1,0-0.1l-0.3-0.6c-0.3-0.5-0.5-1.3-0.6-1.9c-0.1-0.2-0.1-0.9-0.3-1
	c-0.3,0.3-0.2,2.5-0.2,2.8C73.8,78.9,73.9,79,74.3,80.1"/>
<path class="st5" d="M73.2,81.1L73.2,81.1c-0.4-0.5-0.9-1.9-1.1-2.7c-0.2-0.8-0.1-1.8,0.2-2.6c0-0.1,0.1-0.3,0.1-0.4
	c0-0.2,0-0.2,0-0.4c0-0.3-0.5-1.6-0.6-1.9c-0.2-0.7-0.3-1.2-0.5-1.8c-0.1-0.2,0-0.1-0.1-0.2c-0.2,0.1-0.1,1.1-0.1,1.4
	c0.1,2.8-0.2,4.3,1,6.7C72.2,79.7,72.9,81,73.2,81.1"/>
<path class="st5" d="M72.1,60.9c-0.3,0.1-1.1,1-1.4,1.3c-2.1,2.9,0.3,5.6,0.7,5.7c0.1-0.1,0-0.4-0.1-0.7c0,0,0-0.1,0-0.1
	c0-0.1,0-0.1,0.1-0.1c0.5,1.2,2.4,1.5,2.8,1.3c0,0-0.8-0.3-0.9-0.4c-0.3-0.2-0.6-0.3-0.8-0.5c-0.3-0.3-1-1.1-1-1.7
	c0-0.1-0.5-1.1-0.2-1.3c0.2-0.2,0.4,0.3,0.8,0.4c0-0.7-0.2-1.3-0.2-2.1c0.1-0.4,0.2-1,0.3-1.4c0.1-0.1,0.1-0.3,0.2-0.4
	c-0.1,0-0.1,0-0.1,0L72.1,60.9z"/>
<path class="st5" d="M68.4,48.1c-0.6,2.4-0.4,4,0,6.3c-0.9-0.4-1.9-2.9-2.1-2.9c-1.5,1.2,1.5,9.3,3.2,9.2l0,0
	c-0.3-0.4-0.3-0.4-0.6-1c-0.2-0.4-0.4-0.8-0.5-1.2c-0.4-0.9-0.6-1.7-0.8-2.7c0.2,0.1,0.2,0.1,0.4,0.2c0.3,0.2,1,0.6,1.4,0.5
	c-0.1-0.3-0.2-0.8-0.3-1.2c-0.2-1.2-0.5-3.1-0.3-4.4c0.2-1.6,1.2-2.9,2.5-3.8c-0.3,0-0.9,0.5-1.2,0.2c-0.2-0.2,0.2-0.7,0.4-0.8
	l1.7-2.3c-0.3,0-0.5,0.3-0.9,0.4c0.1-0.5,1.4-1.5,1.4-1.8C71.2,43,68.8,46.6,68.4,48.1"/>
<path class="st5" d="M61.9,51.4c-0.5,0.8-3.2,6.7-2.7,7.3c0.3,0.2,1-1.2,1.4-1.4c-0.5,2.5-0.8,5.3-0.5,7.9c0.3,0.9,3.7,8.7,4.3,8.6
	c0.3-0.3-0.1-1.6-0.1-2c1.6,0.1,4.4,7.1,4.8,7.1c0.1-0.2,0.1-0.4,0.1-0.6c-0.2-0.3-0.1-0.9-0.4-1.6c-0.1-0.2-0.1-0.3-0.2-0.5
	c0-0.1-0.1-0.3-0.2-0.5c-0.2-0.6-0.5-1.2-0.8-1.7c-0.1-0.2-0.3-0.5-0.4-0.8c-0.2-0.6-2.8-3.1-3.5-4.7c-0.3-0.6-0.5-1.2-0.6-1.9
	c-0.1-0.4-0.3-1.7-0.5-2c-0.1,0.3-0.1,1.3-0.1,1.7c0,0.2,0,0.4-0.2,0.5c-0.2-0.1-0.2-0.1-0.2-0.5c-0.3-1.5-0.3-3.8-0.2-5.3
	c0.1-1,0.2-1.9,0.4-2.8c0.2-0.7,0.5-2.1,0.5-2.8c-0.3,0.1-1.6,1.4-2,1c-0.4-1.1,4.4-7.7,5.5-9.1c0.6-0.9,2.8-4.5,2.6-5
	c-0.2,0-0.5,0.5-0.6,0.6C66.5,45.5,63.6,48.5,61.9,51.4"/>
<path class="st5" d="M58.6,47.6c0.3,0.7,1.9,3.6,2.5,2.7c0.1-0.1,0.3-0.4,0.3-0.5l0-0.2c-0.2-0.1-0.4-0.4-0.5-0.5
	c-1.2-1.1-0.8-1.7-1.1-2.1c0,0.1-0.1,0.2-0.1,0.4c0,0.2,0,0.3-0.1,0.5c-0.2-0.1-0.2-1.1-0.3-1.4c0-0.5-0.1-1.1-0.1-1.6
	c0-1,0.1-2.2,0.4-3c0.1-0.4,0.3-0.8,0.4-1.3c0.1-0.4,0.2-1,0.6-1.1c0.6-0.1,1.4,0.2,2.1,0.4c0.2,0.1,0.5,0.1,0.6,0.3
	C63.4,40,63.4,40,63.2,40C62.7,40,62.5,40,62,40.2c0.4,0.2,1.1,0.3,1.6,0.4c0.5,0.1,1,0.3,1.6,0.4c1.8,0.5,2.1,0.9,2.8,1.2
	c0.1,0,0.1-0.1,0-0.2c-0.5-0.9-3.6-2.7-4.4-2.9c-0.3-0.1-3.6-1-3.7-1C59,39.3,58.1,46.5,58.6,47.6"/>
<path class="st5" d="M73.4,35.7C73.4,36,73.2,37,73,37.2c-0.3,0-3.1-1.6-4.8-1.4c0,0.5,1,3.1,0.7,3.5c-0.4,0-4-6.2-3.9-6.3
	c0.4-0.6,5.2,1.4,6.2,1.7c2.1-2.7,3.9-6,7.9-8c0.4-0.2,0.7-0.1,0.2,0.4C76.8,29.9,74.5,31.8,73.4,35.7"/>
<path class="st6" d="M76.1,68.2l0.1,0c-0.2,0.1-0.5,0.4-0.7,0.6c-0.3,0.2-0.7,0.4-0.6,0.7c0.3,0.1,0.7,0,1,0.1
	c0,0.1-0.2,0.2-0.3,0.3c-0.3,0.3-0.6,1-0.5,1.2c0.2,0,0.2-0.3,0.4-0.4c0,0.4,0.1,0.6,0.2,1c0.1,0.2,0.3,0.6,0.6,0.6
	c0.2-0.2,0.1-0.6,0.2-1c0.1,0.1,0.1,0.4,0.1,0.6c0.1,0.4,0.6,1.2,1,1.1c0.1-0.2,0-0.3,0-0.6c0.7,0.4,1.8,2.5,2.3,2.7l0,0.1
	c0.2-0.2,0.3-0.1,0.4-0.4c0.2-0.4,0-0.5,0.2-0.7c0-0.6,0.1-0.8-0.1-1.4c-0.2-0.7,0.1-1.9-0.4-1.5c0,0-0.1,0.1-0.1,0.2
	c-0.1,0.1-0.1,0.2-0.2,0.3c0-0.8,0.6-1.9,0.8-2.4c0.3-0.7,0.1-2.3-0.3-2.8C79.9,66,79.5,66,79,66.3c-0.5,0.2-1.6,0.9-2,1.3
	c-0.2,0.1-0.6,0.5-0.8,0.6L76.1,68.2C76.1,68.2,76.1,68.2,76.1,68.2 M76.3,69.7c0-0.9,0.6-1.2,1.2-1.5c1.1-0.5,1.2-1.2,1.5-1.2
	c0,0.6-0.9,1.4-1.2,1.7c-0.6,0.4-0.8,0.5-1.1,1.1c-0.1,0.2-0.1,0.4-0.3,0.4C76.3,70.1,76.3,70,76.3,69.7z M77.5,70.6
	c0-0.7,0.6-1.4,1.1-1.9c1.1-1.4,0.7-1.3,1-1.9c0.2,0,0.2,0.2,0.3,0.4c0.3,1.4-0.8,2.7-1.1,3.5c-0.1,0.4-0.1,0.8-0.2,1.2
	c-0.5,0-0.4-1-0.4-1.4c-0.2,0.2-0.3,0.8-0.5,0.9c-0.1-0.1-0.1-0.1-0.2-0.3L77.5,70.6z M79.4,73.3c0-0.3,0.1-0.9,0.5-0.9
	c0.1,0.3,0.1,0.7,0.1,1c0,0.3,0.1,0.7-0.1,1C79.5,74.4,79.4,73.7,79.4,73.3z"/>
<path class="st6" d="M75.2,78.7c-0.2,1.8,0.3,2.8,1.3,3.5c0.9,0.7,1.8,1.1,2.8,1.5c0.2,0.1,0.3,0.1,0.4,0.2l0.1-0.1
	c-0.1-0.2-0.2-0.2-0.4-0.3c-1.9-1.1-2.7-3.2-2.4-5.4c0.1-0.4,0.2-0.7,0.1-1.1c-0.3,0-0.4,0.4-0.6,0.6c-0.7,1.1-0.5,1.7-0.4,2.8
	C75.8,80.1,75.4,78.9,75.2,78.7"/>
<path class="st6" d="M73.2,81.1c0,0.1-0.1,0.1,0.1,0.1c0.2-0.3,0.2-0.2,0.1-0.7c-0.3-1.7-0.5-3.2-0.8-4.7c0-0.2-0.1-0.2-0.1-0.3
	c-0.1-0.2,0-0.3-0.1-0.4c0,0.2,0,0.3,0,0.4c0,0.1-0.1,0.3-0.1,0.4c-0.3,0.8-0.3,1.8-0.2,2.6C72.3,79.2,72.8,80.7,73.2,81.1
	L73.2,81.1z"/>
<path class="st6" d="M72.1,44.2l-1.7,2.3c-0.1,0.2-0.5,0.6-0.4,0.8c0.2,0.3,0.8-0.2,1.2-0.2C70,48,69,49.3,68.8,51
	c-0.2,1.2,0.1,3.1,0.3,4.4c0.1,0.4,0.2,0.9,0.3,1.2c-0.4,0-1-0.3-1.4-0.5c-0.2-0.1-0.2-0.2-0.4-0.2c0.2,1.1,0.4,1.8,0.8,2.7
	c0.2,0.4,0.3,0.8,0.5,1.2c0.3,0.7,0.4,0.6,0.6,1l0,0l0.3,0.1c0.1,0.1,0.1,0.1,0.3,0.1c0.7,0.1,2-0.1,2.1-0.1l0.1,0c0,0,0,0,0.1,0
	c0,0.1-0.1,0.3-0.2,0.4c-0.2,0.4-0.3,1-0.3,1.4c-0.1,0.8,0.1,1.4,0.2,2.1c-0.3-0.1-0.6-0.6-0.8-0.4c-0.3,0.3,0.2,1.2,0.2,1.3
	c0.3,0,0,0.2,1.1,0.4c0.8,0.1,1.7,0.1,2.4-0.4c0.2-0.2,0.6-0.5,0.7-0.7c-0.3,0-0.7,0.1-1,0.2c-0.3,0-0.9,0.1-1.2,0
	c0-0.3,0.8-0.1,1.7-0.8c1.2-0.9-0.3-1.3-1.1-3.3c-0.4-1-0.2-1.1-0.2-2c0,0,0-0.2,0-0.2l0.1-0.1l0-0.2l0.1,0.1c0-0.3-0.1-0.1-0.1-0.4
	c0-0.2,0-0.3,0.1-0.5c0.1-0.3,0.1-0.6,0.3-0.8c-0.1-0.1-0.1,0.1-0.1-0.1c0.1,0,0,0.1-0.2,0.1c0-0.3,0.3-1,0.3-1.3
	c0.2-1.4-0.8-1.3-1.1-1.3c-0.2,0-0.2-0.1-0.3-0.1c-0.1,0-0.3,0-0.4,0c-0.3,0-1-0.3-1-0.6l1.7,0c-0.2-0.1-0.5-0.1-0.7-0.1
	c-0.6-0.1-1.3-0.4-1.8-0.7c-0.6-0.4-1.1-1.4-0.8-1.9c0.1-0.3,0,0.1,0-0.2c0.1-0.1,0.4-0.2,0.5-0.3c-0.2,0-0.2,0-0.3-0.1
	c0.1-0.4,1.3-0.8,1.7-0.9c1.4-0.3,2.8,0.4,3.7,1.3c0.2,0.2,1,1.2,0.9,1.7c-0.3-0.1-0.5-0.5-0.8-0.5c-0.1,0,0-0.1-0.1,0.1
	c0,0.1,0,0.4,0.1,0.5c0.1,0.5,0.6,1.6,0.6,1.7l0-0.1c0.1-0.3,0.1-1,0.3-1.1c0.1,0.1,0.1,0.2,0.1,0.3c0.3,1.9-0.5,3-0.6,3.9
	c0,0.5,0.1,1.1,0.5,1.2c0.3-0.3,0-0.7,0.2-1c0.1,0,0.1,0.1,0.2,0.3l0.5,0.8c0.5,0.7,1.7,1.5,2.5,1.8c0.1,0,0.2,0.1,0.4,0.1
	c0.2,0,0.2,0,0.2,0.2c1.5-0.1,2.6-0.1,4-0.5c0.7-0.2,0.9-0.4,1.2-1c0.3-0.6,0.3-1.3,0-1.9l-0.7-1.3c-0.1-0.2-0.7-0.8-0.9-1.2
	c-0.4-0.8-0.3-1.5-0.4-1.7c-0.2,0-0.2,0.1-0.3,0.3c-0.4,2.7,0.9,3,0.6,4.3c-0.1,0.4-0.4,0.9-0.7,1l0.1-1c-0.3,0.1-0.8,1.4-1.7,1.4
	c-1,0.1-1.9-0.2-2.2-0.9c-0.3-0.8-0.1-1.9,0.3-2.6c0.5-0.9,1.3-1.6,1.2-1.9c-0.2-0.1-0.5,0.2-0.7,0.2c-0.2,0.1-0.4,0.3-0.6,0.3
	c0-0.2,0.2-0.8,0.3-0.9c0-0.1,0.3-0.9,0.3-1c0.1-0.5,0.3-1.1,0.5-1.7c0.3-1.2,0.5-2.5,0.4-3.8c0-0.2-0.3-1.7-0.4-1.8
	c0,0.1,0,0.3,0,0.4l-0.1,1.1c0,0.5-0.1,1-0.1,1.6l-0.2,2.3c0,0.2-0.3,0.4-0.5,0.2c-0.2-0.1-0.3-2.6-0.3-3L79.2,45
	c0-0.4,0.1-0.4,0.2-0.6c-0.3-0.1-0.5-0.5-1.7-0.8c-1.3-0.3-1.9-0.1-2.3-0.2l-1.7,0.3C73.4,43.8,72.2,44.1,72.1,44.2"/>
<path class="st6" d="M69.3,78.3c0-0.2,0-0.5,0.1-0.8c-0.1-0.1,0-0.4-0.1-0.7c-0.1-0.4-0.1-1.6-0.1-2.2c-0.1-0.9-0.1-1.9-0.3-2.8
	c-0.1-0.7-1-4.6-1.2-4.9c0,0.5,0.1,2.1-0.1,2.4c-0.2,0-0.2-0.1-0.3-0.3c-0.2-0.7-0.4-1.8-0.5-2.5c0-0.4,0-0.8-0.1-1.1
	c-0.1-0.1,0,0-0.1,0c-0.2,0.4-0.2,3.4-0.1,4l0,1.3l-0.1,0c-0.6-0.6-1.3-2.4-1.5-3.5c-0.1-0.7-0.2-1.5-0.2-2.3c0-1.2,0.1-1.5,0.1-2.4
	c-0.1,0.1-0.2,0.2-0.3,0.3c-0.2,0.3-0.5,0.9-0.9,0.8c-0.7-1.3,0-5.8,0.2-7.5c0.1-0.9,0.3-1.4,0.2-2.4c-0.3,0.1-0.4,0.4-0.6,0.4
	c-0.2,0,0,0-0.1,0c-0.3-0.4,1.1-2.4,1.3-2.7c0.3-0.4,1-1.4,1.3-1.8c0.3-0.4,0.2-0.3,0.6-0.4c0.1,0,0.1-0.1,0.2-0.2
	c0.1-0.1,0.2-0.1,0.1-0.3c-0.3,0-0.3,0.2-0.5,0.3l-0.1,0.2c-0.3,0.3-1,0.8-1.3,0.9c0.1-0.9,1.5-2.1,1.5-2.8L65,49.5
	c-0.5,0.7-0.9,1.4-1.5,2.2c-0.3,0.6-2.7,4.2-2.4,4.8c0.4,0.3,1.7-0.9,2-1c0,0.7-0.4,2.1-0.5,2.8c-0.2,0.9-0.3,1.9-0.4,2.8
	c-0.1,1.5-0.1,3.8,0.2,5.3c0.1,0.4,0.1,0.5,0.2,0.5c0.2-0.1,0.1-0.2,0.2-0.5c0-0.5,0-1.4,0.1-1.7c0.2,0.2,0.4,1.5,0.5,2
	c0.2,0.7,0.4,1.3,0.6,1.9c0.7,1.6,3.3,4,3.5,4.7c0.1,0.3,0.3,0.6,0.4,0.8l0.8,1.7c0,0,0,0,0,0c0.1,0.1,0.1,0.3,0.2,0.5
	c0,0.2,0.1,0.3,0.2,0.5C69.3,77.4,69.1,78,69.3,78.3"/>
<path class="st6" d="M61.5,49.7c0.2-0.2,0.5-0.5,0.5-0.7c-0.2-0.1-0.1,0-0.3-0.2c-0.5-0.6-0.8-0.3-1.5-2c-0.8-1.8-0.8-5.6,1.4-5.6
	c1,0,2.4,1,2.9,1c-0.1-0.1-0.2-0.2-0.3-0.3c-0.6-0.5-1.2-0.6-1.3-0.8c0.3-0.2,2.9,0.7,3.5,1c0.6,0.3,0.6,0.4,0.9,0.6
	c0.2,0,0.2-0.1,0.3-0.3c0.2-0.2,0.2-0.1,0.3-0.4c-0.7-0.2-1-0.7-2.8-1.2c-0.5-0.1-1-0.3-1.6-0.4c-0.5-0.1-1.1-0.2-1.6-0.4
	c0.5-0.1,0.8-0.1,1.2-0.2c0.2,0,0.2,0,0.3-0.1c-0.1-0.2-0.4-0.2-0.6-0.3c-0.7-0.2-1.5-0.5-2.1-0.4c-0.4,0.1-0.5,0.7-0.6,1.1
	c-0.1,0.5-0.3,0.8-0.4,1.3c-0.3,0.8-0.4,2.1-0.4,3c0,0.6,0,1.1,0.1,1.6c0,0.3,0.1,1.4,0.3,1.4c0.1-0.1,0.1-0.3,0.1-0.5
	c0-0.1,0.1-0.3,0.1-0.4c0.3,0.4-0.1,1,1.1,2.1c0.1,0.1,0.3,0.4,0.5,0.5L61.5,49.7z"/>
<path class="st6" d="M69.8,39.7c-0.2,0.1-0.5,0.2-0.5,0.4c0.2,0.1,1.1-0.3,1.4-0.4c3.8-1.4,5.9-1.3,9.5-1.5c0.1-0.3-0.1-0.8-0.2-1
	C76.5,37.2,72.8,38.1,69.8,39.7"/>
<path class="st6" d="M71.8,41.8c0.7,0.1,5.5-1.2,7.8-0.9c0-0.3,0.1-0.5,0.2-0.8C78.4,39.7,71.9,41,71.8,41.8"/>
<path class="st6" d="M72.3,40c0,0.3-0.2,0.4-0.5,0.4c-0.3-0.1-0.3-0.3-0.5-0.3c-0.1,0.5,0.2,1,0.7,1c0.5,0,0.9-0.3,0.9-0.8
	c0-0.3-0.2-0.5-0.3-0.6C72.1,39.3,72.3,39.8,72.3,40"/>
<path class="st6" d="M80.4,38.5c-0.1,0.4,0.1,0.6-0.3,0.7c-0.6,0.1-0.6-0.5-0.6-0.8c-0.2,0.2-0.4,0.4-0.3,0.9
	c0.2,0.6,1.1,0.8,1.5,0.1C80.8,39.1,80.7,38.5,80.4,38.5"/>
<path class="st7" d="M62,49l0.7-0.9c0.4-0.6-1.5-2.8-1.6-2.7c-0.2,0.2-0.1,0.8-0.1,1.1c-0.2-0.3-0.4-1.3-0.4-1.8
	c0-0.8,0.3-1.8,0.2-1.9c-0.2-0.1-0.5,0.4-0.6,0.5c0.1-0.7,0.9-1.3,1.8-1.2c0.5,0,1.8,0.8,1.9,1.1c-0.5,0-1.2-0.2-1.6,0
	c0,0.1,2.6,2.4,2.9,2c0.4-0.5,2.1-2.4,2.1-2.4c-0.3-0.2-0.4-0.3-0.9-0.6c-0.6-0.3-3.2-1.2-3.5-1c0.1,0.2,0.7,0.3,1.3,0.8
	c0.1,0.1,0.2,0.2,0.3,0.3c-0.4,0-1.9-1-2.9-1c-2.2-0.1-2.2,3.8-1.4,5.6c0.8,1.7,1,1.3,1.5,2C61.9,49,61.8,48.9,62,49"/>
<path class="st7" d="M66.6,65.4c0.2,0,0,0,0.1,0c0,0.4,0,0.8,0.1,1.1c0.1,0.7,0.2,1.8,0.5,2.5c0.1,0.2,0.1,0.3,0.3,0.3
	c0.2-0.3,0.1-1.9,0.1-2.4c0.3,0.3,1.1,4.2,1.2,4.9c0.1,0.9,0.2,1.9,0.3,2.8c0,0.5,0.1,1.7,0.1,2.2c0.1,0.3,0,0.6,0.1,0.7l0-0.6
	c1-0.8,0.4-6.8,0-7.9c-0.6-1.6-1.4-3.7-1.6-5.3c0-0.3,0-0.8-0.1-1c-0.3,0-0.6,0.9-0.7,1.1c-0.2,0.5-0.3,0.9-0.3,1.5L66.6,65.4
	C66.6,65.4,66.6,65.4,66.6,65.4"/>
<path class="st7" d="M66.4,70.7c0-0.3-0.2-0.7-0.3-1c-1.3-3.7,0.7-7.7,0.2-11.3c-0.6-0.4-0.9,1.9-1.3,2.4c-0.1-1.7,0.1-5.1,0.2-6.8
	c0.1-2,1-3.1,1.5-4.9c-0.4,0.1-0.3,0.1-0.6,0.4c-0.3,0.4-1,1.3-1.3,1.8c-0.2,0.3-1.6,2.3-1.3,2.7c0.1,0-0.1,0,0.1,0
	c0.3,0,0.3-0.3,0.6-0.4c0,1-0.1,1.5-0.2,2.4c-0.2,1.7-1,6.3-0.2,7.5c0.3,0,0.7-0.5,0.9-0.8c0.1-0.1,0.2-0.2,0.3-0.3
	c0,0.9-0.1,1.2-0.1,2.4c0,0.8,0,1.6,0.2,2.3C65.1,68.3,65.8,70.1,66.4,70.7"/>
<path class="st7" d="M74.3,56.7L74.3,56.7c-0.1-0.2,0.1-0.6,0.2-0.7c0.1-0.2,0.2-0.4,0.3-0.7c0.2-0.4,0.4-1,0.5-1.4
	c0.3-1.2-1.3-1.4-2-1.5c0,0-0.1,0-0.1,0c0,0,0,0,0,0c0,0,0,0,0,0c-0.5,0.1-1.7-0.2-2.2-0.4c-0.3-0.2-0.5-0.4-0.7-0.6
	c-0.1-0.2-0.4-0.6-0.4-0.8c1.9-0.3,1.9-1.2,3.2-0.7c1.2,0.4,2.3,1.5,2.5,1.7c0,0,0,0,0,0l-0.1,0.1c0.3,0.1,0.5,0.5,0.8,0.5
	c0.1-0.5-0.6-1.5-0.9-1.7c-0.9-0.9-2.3-1.6-3.7-1.3c-0.4,0.1-1.6,0.6-1.7,0.9c0.1,0.1,0.1,0,0.3,0.1c-0.1,0-0.4,0.2-0.5,0.3
	c-0.1,0.3,0.1,0,0,0.2c-0.3,0.6,0.2,1.5,0.8,1.9c0.5,0.3,1.2,0.6,1.8,0.7c0.2,0,0.5,0.1,0.7,0.1l-1.7,0c0,0.4,0.7,0.6,1,0.6
	c0.1,0,0.3,0,0.4,0c0.2,0,0.2,0.1,0.3,0.1c0.3,0.1,1.3-0.1,1.1,1.3c0,0.4-0.3,1.1-0.3,1.3c0.2,0,0.3-0.1,0.2-0.1
	C74.2,56.9,74.2,56.6,74.3,56.7"/>
<path class="st7" d="M71.4,65.5c0,0.7,0.7,1.5,1,1.7c0.2,0.2,0.5,0.4,0.8,0.5c0.1,0.1,0.9,0.3,0.9,0.4c0.1,0,0.1,0,0.2,0
	c0.1,0,0.1,0,0.1,0c0,0,0,0,0,0c0,0,0,0,0,0c0.3-0.1,0.5,0,1.2-0.5c0.3-0.2,0.7-0.5,0.9-0.7c0.6-0.6,1.3-1,1.8-1.5
	c0.4-0.4,0.6-0.4,0.4-1.2c-0.3-1.7-2.2-2.1-2.6-2.4c-0.5-0.1-1.1-0.4-1.4-0.7c-0.2-0.2-0.3-0.3-0.5-0.6c-0.1-0.1-0.3-0.5-0.4-0.7
	c-0.1-0.1-0.2-0.3-0.2-0.4c0-0.1,0-0.4,0-0.6l0-0.4l-0.1,0.1c0,0,0,0.1,0,0.2c0,0.9-0.1,1,0.2,2c0.7,2.1,2.2,2.4,1.1,3.3
	c-1,0.7-1.7,0.5-1.7,0.8c0.3,0.1,0.9,0,1.2,0c0.3,0,0.7-0.2,1-0.2c-0.1,0.2-0.5,0.5-0.7,0.7c-0.7,0.5-1.6,0.5-2.4,0.4
	C71.4,65.8,71.8,65.6,71.4,65.5"/>
<path class="st7" d="M84.9,55.6l0.7,1.3c0-0.1,0,0,0-0.1c0.2-0.3-0.1-0.4-0.2-1.2c-0.3-1.7,1-1.5,1.8-1.6c0.3,0,0.4-0.1,0.7-0.2
	c0.2-0.1,0.4-0.2,0.4-0.4c-0.2-0.1-1.4,0.1-1.7,0c0.2,0,0.5-0.1,0.7-0.1c0.5-0.1,1.3-0.3,1.7-0.6c0.5-0.3,1.3-1.1,1-2
	c-0.3,0.1-0.2,0.3-0.6,0.8c-0.2,0.3-0.4,0.5-0.8,0.6c-1.3,0.6-3.8,0.3-4.2,1.4c-0.1,0.4,0.3,1.4,0.5,1.9C85,55.6,85,55.6,84.9,55.6"
	/>
<path class="st7" d="M84.7,50.1l-0.1,0.2c-0.3,0.3-1,0.9-0.9,1.3l0.2,0c0-0.1,0.5-0.4,0.6-0.5c0.6-0.5,1.3-1,2.1-1.2
	c0.8-0.3,1.2-0.1,1.8,0.3c0.3,0.1,1.3,0.7,1.6,0.4c0-0.1-0.1-0.1-0.2-0.2c-0.1-0.1-0.2-0.1-0.3-0.1l0.3-0.1c0-0.2-0.3-0.3-0.5-0.4
	c-1.1-0.7-2.2-0.8-3.4-0.2c-0.2,0.1-0.4,0.2-0.5,0.3L84.8,50C84.7,50.1,84.8,50,84.7,50.1"/>
<path class="st7" d="M80.5,74c-0.2,0.2,0,0.3-0.2,0.7c-0.1,0.3-0.2,0.3-0.4,0.4c0,0.1,0,0.1-0.1,0.1c0.2,0.2,0.3,0,0.7-0.4
	c1.1-1.1,3.2-0.7,4.5-2c0.8-0.8,0.8-1.4,1-1.7c0.1,0.3,0.1,0.7,0.2,1.1c0.2,0,0.3-0.2,0.4-0.4c0.5-0.9,0.1-1.3,0.1-1.8
	c0.2-0.2,1.4-0.5,1.3-1.1c-0.1,0-1,0.1-1.2,0.1c-0.4,0-0.8,0-1.2-0.1c-1.1-0.2-1.6-0.8-1.9-0.7c0,0.4,1,1,1.4,1.2l-0.5,0.1
	c-0.2,0-0.3,0-0.5,0.1c0,0.3,0.8,0.4,0.9,1.3c-0.2-0.1-0.1-0.3-0.4-0.4c-0.1,0.3,0,0.7-0.2,1c-0.1,0.2-0.3,0.6-0.5,0.6
	c0-0.3,0-1-0.4-1.1c0-0.7,0.1-0.8-0.3-1.3c-0.6-0.9-1.4-1.5-1.7-2.4c-0.1-0.2-0.1-0.5-0.2-0.6c-0.3,0.1-0.4,1-0.3,1.4
	c0.2,1,0.7,1.6,1,2.4c0.2,0.4,0.2,1.2,0.3,1.4c0.5,0,0.4-1.1,0.4-1.4c0.2,0.4,0.4,0.9,0.5,1l0.1,0.1c0,0.7-0.4,1.3-0.9,1.4
	c0-0.2,0.2-0.7-0.2-0.6c-0.2,0.1-0.7,0.7-0.9,0.9c-0.3,0.4-0.6,0.7-0.9,1.1L80.5,74z"/>
<path class="st7" d="M88.3,65.6c-0.2,0.1-0.2,0.2-0.5,0.3c-0.6,0.2-1.4,0.2-1.9,0.1c-0.7-0.1-1.5-0.7-1.7-1.2
	c0.5,0.1,1.7,0.4,2.2,0.2c0-0.2,0.1-0.1-0.1-0.2l-0.7-0.2c-0.3-0.1-0.5-0.2-0.8-0.4c-1.4-0.8,0.1-1.5,0.7-2.8
	c0.1-0.3,0.6-1.5,0.5-1.8c-0.2,0-0.3,0.7-1,1.4c-1,1-3.4,1-4,2.9c-0.1,0.2-0.2,0.8-0.1,1c0.1,0.2,0.4,0.5,0.6,0.6l2.6,2.1
	c0.6,0.4,0.9,0.5,1.7,0.4c0.4,0.2,1.4-0.1,1.8-0.2c0.6-0.3,0.7-0.5,1.1-1c0,0,0,0,0,0c0,0,0,0,0,0l0,0.2c0,0.1,0,0.1-0.1,0.2
	c0,0.2-0.1,0.3-0.1,0.5c0.3,0,3-2.8,0.5-5.9c-0.2-0.2-1.1-1.3-1.5-1.3c0,0.2,0.3,0.7,0.3,0.9c0.3,0.8,0.3,1.3,0.2,2.2
	c0,0.2-0.2,0.9-0.1,1c0.2,0,0.6-0.4,0.8-0.5C88.6,64.6,88.4,65.3,88.3,65.6"/>
<path class="st7" d="M77.5,70.6l0,0.5c0,0.2,0,0.2,0.2,0.3c0.2-0.1,0.3-0.7,0.5-0.9c0,0.4-0.1,1.4,0.4,1.4c0.1-0.3,0.1-0.8,0.2-1.2
	c0.3-0.8,1.4-2.1,1.1-3.5c-0.1-0.2-0.1-0.4-0.3-0.4c-0.3,0.7,0.1,0.6-1,1.9C78.1,69.2,77.5,69.8,77.5,70.6"/>
<path class="st7" d="M76.3,69.7c0,0.2,0,0.4,0.1,0.5c0.2,0,0.2-0.2,0.3-0.4c0.3-0.6,0.5-0.8,1.1-1.1c0.3-0.2,1.3-1.1,1.2-1.7
	c-0.3,0-0.5,0.6-1.5,1.2C76.9,68.5,76.3,68.8,76.3,69.7"/>
<path class="st7" d="M79.4,73.3c0,0.4,0.1,1.1,0.5,1.1c0.2-0.2,0.1-0.6,0.1-1c0-0.4,0-0.8-0.1-1C79.5,72.4,79.4,73,79.4,73.3"/>
<path class="st1" d="M73.2,52.4c0.4-0.1,0.9,0,1.2-0.1c1-0.7,0.5-0.9,0-1.1c-0.2-0.1-0.4-0.3-0.6-0.3c-0.2,0.3-0.3,0.7-0.7,0.8
	c-0.1-0.2-0.1-1-0.2-1.1c-0.1-0.1-1-0.1-1.2,0c-0.1,0.1-0.1,0.1-0.1,0.3c0.1,0.7,0.2,1.2,0.9,1.4C72.9,52.3,73,52.3,73.2,52.4
	C73.2,52.4,73.2,52.4,73.2,52.4 M72.6,51.9c-0.4,0.1-0.9-1.1-0.6-1.3c0.1-0.1,0.3-0.1,0.4,0c0.1,0.1,0.1,0.3,0,0.4
	C72.4,51.4,72.7,51.7,72.6,51.9z M73.8,52.1c0-0.3,0.2-0.2,0.3-0.3c0.1-0.1,0.1-0.3,0.3-0.4c0.1,0,0.3,0.1,0.3,0.2
	C74.8,51.8,74.3,52.4,73.8,52.1z"/>
<path class="st1" d="M84.9,51.5c0,0.2,0,0.2,0.1,0.3c0.4,0.5,0.7,0.5,1.2,0.5c1.2,0,1.8-0.2,2-1.3c0.1-0.6,0-0.5-0.5-0.6
	c-0.4,0-0.7-0.2-0.8,0.2c-0.1,0.3,0,0.6-0.2,0.9c-0.2,0-0.3-0.2-0.4-0.3c-0.1-0.2-0.1-0.3-0.2-0.5c-0.3,0-0.5,0.2-0.6,0.3
	C85.3,51.3,85,51.4,84.9,51.5 M87.6,50.6c0.7-0.1,0.1,1.1-0.1,1.3c-0.4,0.3-0.2-0.3-0.2-0.5C87.4,50.9,87.2,50.7,87.6,50.6z
	 M86.1,52.1c-0.3,0.3-1.2-0.2-0.9-0.6c0-0.1,0.2-0.2,0.3-0.1c0.1,0,0.2,0.2,0.2,0.3C85.9,51.9,86.1,51.9,86.1,52.1z"/>
<path class="st1" d="M88.6,47.1L88.6,47.1c0.1,0.2,0.1,0.2,0.2,0.3l0.8,0.7c0.9,0.9,1.3,1.7,1.4,3.1c0.1,1,0,2-0.1,2.9
	c0,0.5-0.1,0.9-0.2,1.4c-0.1,0.2-0.3,1-0.2,1.2c0.3,0,0.8-0.2,1-0.3c0.3-0.2,0.5-0.4,0.7-0.5c0,0.5-0.6,2.2-0.8,2.6
	c-0.2,0.6-1.2,2.2-1.2,2.3c0.3,0.1,0.8-0.5,1-0.7c0.7-0.7,0.6-0.8,1.1-1.4c0.9-1.2,1.5-2.7,1.5-4.3c0.1-0.6,0.1-2.7-0.2-2.9
	c-0.2,0.1-0.5,1-0.9,1.6c-0.3,0.4-0.8,1.2-1.2,1.3c0-0.3,0.2-0.6,0.2-0.9c0.3-1.5,0.2-3.6-0.2-5.1c-0.1-0.6-0.6-1.6-0.6-1.7
	c0.9-0.2,1.4-0.5,1.5-0.5c0.2,0.2,0.3,0.5,0.4,0.7c0.7,1.1,0.5,0.8,1.3,1.8c1.3,1.8,2.6,3.7,3.7,5.7c0.3,0.5,0.8,1.7,0.9,2.2
	c-0.5-0.1-1.5-1.1-1.9-1c-0.1,0.4,0.4,2.1,0.5,2.7c0.2,0.9,0.3,1.8,0.4,2.7c0.1,1,0.2,2.1,0.1,3.1c0,0.7-0.2,2.2-0.4,2.7
	c-0.1-0.5,0.1-1.8-0.3-2c-0.2,0.1-0.2,0.2-0.3,0.5c0,0.2-0.1,0.4-0.1,0.6c-0.5,2.7-1.3,4.1-3.1,6.1c-0.8,0.9-1.5,1.8-2.1,3.2
	c-0.3,0.7-1.4,3.4-1,4.1c0.2,0,0.2,0,0.2-0.2c0.3-0.5,0.4-1.1,0.8-1.8c0.3-0.7,0.7-1.3,1.1-1.9c0.4-0.6,0.9-1.2,1.3-1.7
	c0.2-0.3,1-1.5,1.4-1.5c0,0.5-0.3,1.7-0.1,2c0.2,0,0.3-0.2,0.4-0.3c0.1-0.1,0.2-0.3,0.2-0.4c0.7-1.4,1.6-2.8,2.3-4.4
	c1.4-2.8,1.6-3.3,1.5-6.6c0-1.6-0.2-2.3-0.4-3.7c0-0.3-0.3-0.8-0.2-1c0.3,0.2,0.9,1.2,1.2,1.3c1,0.7-1.2-4.9-1.3-5
	c-0.3-0.8-0.6-1.4-1.1-2.2c-0.9-1.6-2.4-3.2-3.6-4.6c-1-1.2-2-2.4-3-3.6c-0.1-0.1-0.6-0.8-0.8-0.8c-0.3,0.5,1.6,3.2,1.7,3.6l-1.8,0
	c-0.1-0.1-0.2-0.3-0.4-0.5c-0.4-0.5-0.8-1-1.2-1.4c-0.2-0.2-1.5-1.4-1.9-1.4c0,0.3,1.3,1.3,1.4,1.8c-0.3-0.1-0.8-0.4-1-0.4
	c0,0.3,1.4,1.7,1.7,2.2c0.1,0.2,0.1,0.2,0.3,0.4c0.1,0.1,0.2,0.3,0.2,0.5C89.4,47.5,89,47.2,88.6,47.1"/>
<path class="st1" d="M95.9,56.1c-0.1-0.7-0.3-1.7-0.2-2.5c0.3,0.1,0.4,0.5,0.7,0.4c0.2-0.4-0.5-1.5-0.8-1.8
	c-0.3-0.5-0.7-1.1-1.1-1.6c-0.4-0.6-2-2.6-1.1-0.6c1.4,3,1.2,4.8,1.3,8.1c0,0.9,0.1,1.7,0.1,2.6c-0.1-0.1-0.2-0.5-0.3-0.7L94,58.7
	c-0.1-0.2-0.2-0.5-0.4-0.5c-0.3,0.2-0.1,1.2-0.1,1.6l0.3,3.2c0.2,1.5,0.4,3.3,0.3,4.8c-0.1,1.3-0.7,2.6-0.7,2.8
	c0.2,0,0.2-0.1,0.3-0.3c1.1-1.8,1.3-3.5,1.3-5.5c0-0.3-0.2-2.2-0.1-2.2c0.3,0.4,0.8,1.2,1.2,1.2C96.8,62,96.1,57.9,95.9,56.1"/>
<path class="st1" d="M92.2,69.4c0.3,0,0.3-0.4,0.4-0.7c0.2-0.8,0.4-2,0.4-2.8c0-0.8,0.1-1.2-0.2-1.9c-0.1-0.4-0.3-0.7-0.5-1.1
	c-0.1-0.2-0.1-0.3-0.3-0.2c-0.1,0.2-0.1,0.7-0.1,1c-0.1,1.3-0.7,3-1.1,4.2c-0.7,2.1-1.1,2.6-0.9,5.3c0.1,0.7,0.1,1.3,0.1,2
	c0,0.3,0.1,1.6,0.3,1.7c0.2-0.1,0.2-1,0.2-1.3c0-1.1,0.2-2.9,0.4-4c0.1-0.4,0.7-4.4,1.2-4.7C92.3,67.4,92,69,92.2,69.4"/>
<path class="st1" d="M80.1,83.8c0.2,0.1,1.3-0.3,1.5-0.4c0.5-0.2,0.9-0.4,1.3-0.6c0.9-0.5,1.5-1.1,2.1-1.8c0.6-0.8,0.9-1.7,1.1-2.8
	c0.1-0.6,0.1-1.2,0.1-1.8c0-0.3-0.1-1.6-0.3-1.7c-0.1,0.1-0.1,0-0.1,0.2c0,0,0,0.1,0,0.2c-0.1,0.8-0.4,1.8-0.8,2.5
	c-0.7,1.4-0.3,2.4-0.6,3.1c-0.2,0.6-1.3,1.5-1.9,1.8c-0.6,0.4-1.2,0.7-1.9,1C80.2,83.7,80.1,83.7,80.1,83.8"/>
<path class="st1" d="M86.5,81.1c0.2,0,0.3-0.2,0.4-0.4c0.8-1,1.4-2.4,1.7-3.7c0.2-0.8,0.2-3.5,0.2-4.5c0-0.4,0.1-1.3-0.1-1.4
	c-0.2,0.1-0.2,0.2-0.3,0.6l-0.6,1.9c-0.3,0.9-0.8,1.5-0.4,2.6c0.2,0.5,0.3,0.7,0.3,1.4C87.7,79.1,86.5,80.9,86.5,81.1"/>
<path class="st1" d="M96.4,39.7c0.4-0.2,2.2-0.7,2.7-0.5c1.1,0.5,1.6,7.3,1,8.3c-0.1-0.3,0-0.8-0.2-0.9c-0.2,0.2,0.1,0.7-0.6,1.7
	c-0.9,1.3-1.4,0.8-0.6,1.9c0.5,0.6,0.9-0.5,1.6-1.4c0.9-1.1,1.3-1.8,1.1-3.3c-0.2-1.3-0.8-7.1-1.5-7.6c-0.1,0-0.4,0.2-0.5,0.3
	c-1.2,0.6-2.7,0.4-4.2,1.2c-0.4,0.2-3.5,2.1-3.3,2.7c0.2,0,1.1-0.5,1.4-0.6c1.1-0.5,1.9-0.7,3.1-1c0.4-0.1,1.5-0.2,1.7-0.4
	c-0.1-0.2-0.6-0.2-0.9-0.2C97,39.9,96.5,39.9,96.4,39.7"/>
<path class="st1" d="M97.6,43.1c-0.3-0.2-1.2,0-1.6,0c0.1-0.3,0.9-0.7,1.2-0.9c1.9-0.9,2.2,0.4,2.5,2c0.1,0.3,0.1,0.7,0.2,0.8
	c0.4-0.1,0.1-1.8,0-2.1c-0.4-1.7-1.5-2-2.9-1.4c-0.4,0.2-1.4,0.7-1.7,0.7c0.2-0.2,0.5-0.4,0.7-0.6c0.5-0.3,0.8-0.3,0.9-0.5
	c-0.4-0.2-3.8,0.9-4.3,1.5c-0.2,0.2,0.1,0.4,0.3,0.6c1.3,1,1.5,2.6,2.4,1.7C95.9,44.4,97.6,43.4,97.6,43.1"/>
<path class="st1" d="M86.3,35.7c0.1,0.3,0.3,1.3,0.4,1.5c0.3,0,3.1-1.6,4.8-1.4c0,0.5-1,3.1-0.7,3.5c0.4,0,4-6.2,3.9-6.3
	c-0.4-0.6-5.2,1.4-6.2,1.7c-2.1-2.7-3.9-6-7.9-8c-0.4-0.2-0.7-0.1-0.2,0.4C83,29.9,85.2,31.8,86.3,35.7"/>
<path class="st1" d="M88.7,40.1c-0.3-0.1-0.3,0.4-0.8,0.3c-0.5-0.1-0.2-0.5-0.2-0.8c-0.4-0.1-1,0.9-0.1,1.4
	C88.2,41.3,88.9,40.5,88.7,40.1"/>
<path class="st1" d="M87.6,41.8c-0.7,0.1-5.5-1.2-7.8-0.9c0-0.3-0.1-0.5-0.2-0.8C81,39.7,87.5,41,87.6,41.8"/>
<path class="st1" d="M90.7,39.7c0.2,0.1,0.5,0.2,0.5,0.4c-0.2,0.1-1.1-0.3-1.4-0.4c-3.8-1.4-5.9-1.3-9.5-1.5c-0.1-0.3,0.1-0.8,0.2-1
	C83.9,37.2,87.6,38.1,90.7,39.7"/>
<path class="st8" d="M72.5,52.2c-0.6-0.2-0.8-0.7-0.9-1.4c0-0.2,0-0.2,0.1-0.3c0.1-0.1,1-0.1,1.2,0c0.1,0.1,0.2,0.9,0.2,1.1
	c0.4-0.1,0.5-0.5,0.7-0.8c0.2,0,0.5,0.2,0.6,0.3c0.4,0.3,1,0.4,0,1.1c-0.3,0.2-0.8,0.1-1.2,0.1c0,0,0,0-0.1,0
	C73,52.3,72.9,52.3,72.5,52.2 M73.2,52.4C73.2,52.4,73.2,52.4,73.2,52.4C73.3,52.4,73.3,52.4,73.2,52.4c0.1,0,0.1,0,0.2,0.1
	c0.7,0.1,2.3,0.3,2,1.5c-0.1,0.4-0.4,1-0.5,1.4c-0.1,0.2-0.2,0.4-0.3,0.7c-0.1,0.2-0.4,0.5-0.2,0.7c0.2-0.7,1.3-1.7,1.4-2
	c0.2-0.3,0.2-0.5,0.3-0.8c0-0.1-0.4-1.2-0.6-1.7c0-0.1-0.1-0.4-0.1-0.5c0-0.2,0-0.1,0.1-0.1l0.1-0.1c0,0,0,0,0,0
	c-0.3-0.1-1.3-1.2-2.5-1.7c-1.3-0.4-1.3,0.5-3.2,0.7c0,0.3,0.3,0.7,0.4,0.8c0.2,0.3,0.4,0.5,0.7,0.6C71.5,52.2,72.7,52.5,73.2,52.4z
	"/>
<path class="st5" d="M72.6,51.9c0.1-0.3-0.2-0.5-0.1-0.9c0-0.2,0.1-0.3,0-0.4c-0.1-0.1-0.3-0.1-0.4,0C71.7,50.9,72.2,52,72.6,51.9"
	/>
<path class="st5" d="M74.4,51.4c-0.1,0.1-0.2,0.3-0.3,0.4c-0.2,0.2-0.3,0.1-0.3,0.3c0.5,0.2,1.1-0.3,1-0.6
	C74.7,51.5,74.5,51.4,74.4,51.4"/>
<path class="st5" d="M85.2,51.5c-0.2,0.4,0.6,0.8,0.9,0.6c0-0.2-0.3-0.2-0.4-0.4c-0.1-0.1-0.1-0.2-0.2-0.3
	C85.4,51.4,85.2,51.5,85.2,51.5"/>
<path class="st5" d="M87.6,50.6c-0.4,0.1-0.2,0.3-0.3,0.8c0,0.2-0.2,0.8,0.2,0.5C87.8,51.7,88.4,50.5,87.6,50.6"/>
<path class="st1" d="M8.8,105h142.4c1.4,0,2.6,1.2,2.6,2.6v54.9c0,1.4-1.2,2.6-2.6,2.6H8.8c-1.4,0-2.6-1.2-2.6-2.6v-54.9
	C6.3,106.2,7.4,105,8.8,105"/>
<path class="st3" d="M117.5,150.1c-1.4,0-2.5-0.3-3.2-1c-0.8-0.7-1.1-1.7-1.1-3c0-1.3,0.3-2.2,1-3c0.7-0.7,1.6-1.1,2.8-1.1
	c1.2,0,2.1,0.3,2.7,1c0.6,0.7,1,1.6,1,2.9c0,0.1,0,0.3,0,0.5c0,0.2,0,0.3,0,0.4h-6.3v-1.4h4.7l-0.3,0.4c0-0.8-0.1-1.4-0.4-1.7
	c-0.3-0.4-0.7-0.6-1.3-0.6c-0.6,0-1.1,0.2-1.4,0.6c-0.3,0.4-0.5,1-0.5,1.8v0.6c0,0.7,0.2,1.2,0.6,1.5c0.4,0.3,0.9,0.5,1.7,0.5
	c0.4,0,0.9,0,1.4-0.1c0.5-0.1,0.9-0.2,1.3-0.3l0.2,1.6c-0.4,0.1-0.8,0.3-1.3,0.4C118.4,150.1,117.9,150.1,117.5,150.1 M110.1,150.1
	c-0.9,0-1.6-0.2-2-0.6c-0.4-0.4-0.6-1-0.6-1.9v-3.9h-1.7v-1.6h1.7v-2.5h2.1v2.5h2.5v1.6h-2.5v3.4c0,0.5,0.1,0.8,0.2,1
	c0.1,0.2,0.4,0.3,0.8,0.3c0.2,0,0.4,0,0.7-0.1c0.2,0,0.5-0.1,0.7-0.2l0.2,1.6c-0.3,0.1-0.7,0.2-1,0.2S110.4,150.1,110.1,150.1z
	 M97.6,150v-7.8h2l0,0.9h0c0.3-0.4,0.7-0.6,1.1-0.8c0.4-0.2,0.9-0.3,1.5-0.3c0.9,0,1.6,0.3,2.1,0.8c0.4,0.5,0.7,1.3,0.7,2.4v4.8
	h-2.1v-4.4c0-0.6-0.1-1.1-0.3-1.4c-0.2-0.3-0.6-0.4-1-0.4c-0.4,0-0.7,0.1-1,0.2c-0.3,0.1-0.5,0.3-0.7,0.6c-0.2,0.2-0.2,0.5-0.2,0.9
	v4.6H97.6z M92.9,150.1c-1.4,0-2.5-0.3-3.2-1c-0.8-0.7-1.1-1.7-1.1-3c0-1.3,0.3-2.2,1-3c0.7-0.7,1.6-1.1,2.8-1.1
	c1.2,0,2.1,0.3,2.7,1c0.6,0.7,0.9,1.6,0.9,2.9c0,0.1,0,0.3,0,0.5c0,0.2,0,0.3,0,0.4h-6.3v-1.4h4.7l-0.3,0.4c0-0.8-0.1-1.4-0.4-1.7
	c-0.3-0.4-0.7-0.6-1.3-0.6c-0.6,0-1.1,0.2-1.4,0.6c-0.3,0.4-0.5,1-0.5,1.8v0.6c0,0.7,0.2,1.2,0.6,1.5c0.4,0.3,0.9,0.5,1.7,0.5
	c0.4,0,0.9,0,1.4-0.1c0.5-0.1,0.9-0.2,1.3-0.3l0.2,1.6c-0.4,0.1-0.8,0.3-1.3,0.4C93.8,150.1,93.4,150.1,92.9,150.1z M79.8,150v-7.8
	h2l0,0.9h0c0.3-0.4,0.7-0.6,1.1-0.8c0.4-0.2,0.9-0.3,1.5-0.3c0.9,0,1.6,0.3,2.1,0.8c0.4,0.5,0.7,1.3,0.7,2.4v4.8h-2.1v-4.4
	c0-0.6-0.1-1.1-0.3-1.4c-0.2-0.3-0.6-0.4-1-0.4c-0.4,0-0.7,0.1-1,0.2c-0.3,0.1-0.5,0.3-0.7,0.6c-0.2,0.2-0.2,0.5-0.2,0.9v4.6H79.8z
	 M74,148.5c0.3,0,0.7-0.1,0.9-0.2c0.3-0.1,0.5-0.3,0.7-0.5c0.2-0.2,0.2-0.5,0.2-0.7v-0.9h-0.7c-0.8,0-1.4,0.1-1.8,0.3
	c-0.4,0.2-0.6,0.5-0.6,1c0,0.3,0.1,0.6,0.3,0.7C73.3,148.5,73.6,148.5,74,148.5z M73.3,150.1c-0.8,0-1.4-0.2-1.8-0.6
	c-0.4-0.4-0.7-1-0.7-1.7c0-0.9,0.4-1.6,1.1-2.1c0.7-0.5,1.7-0.7,3-0.7h1c0-0.3,0-0.6-0.1-0.8c-0.1-0.2-0.2-0.3-0.4-0.4
	c-0.2-0.1-0.5-0.1-0.9-0.1c-0.5,0-1,0.1-1.6,0.2c-0.5,0.1-1,0.3-1.5,0.4l-0.3-1.6c0.5-0.2,1.1-0.3,1.7-0.4c0.6-0.1,1.3-0.2,1.9-0.2
	c0.8,0,1.4,0.1,1.9,0.3c0.5,0.2,0.8,0.5,1,1c0.2,0.4,0.3,1,0.3,1.8v4.9h-2l0-0.9h0c-0.3,0.3-0.7,0.6-1.2,0.8
	C74.3,150,73.8,150.1,73.3,150.1z M58.4,150v-7.8h1.9l0,0.9h0c0.3-0.3,0.6-0.6,1-0.8c0.4-0.2,0.8-0.3,1.3-0.3c0.5,0,0.9,0.1,1.3,0.3
	c0.3,0.2,0.6,0.4,0.7,0.8h0c0.3-0.4,0.7-0.6,1-0.8c0.4-0.2,0.8-0.3,1.4-0.3c0.8,0,1.4,0.2,1.8,0.7c0.4,0.4,0.6,1.1,0.6,2.1v5.2h-2
	v-4.7c0-0.5-0.1-0.9-0.3-1.2c-0.2-0.2-0.4-0.4-0.8-0.4c-0.4,0-0.8,0.2-1.1,0.5c-0.3,0.3-0.4,0.7-0.4,1.2v4.6h-2v-4.8
	c0-0.5-0.1-0.8-0.3-1.1c-0.2-0.2-0.5-0.4-0.8-0.4c-0.3,0-0.5,0.1-0.7,0.2c-0.2,0.1-0.4,0.3-0.5,0.6c-0.1,0.2-0.2,0.5-0.2,0.9v4.6
	H58.4z M53.7,150.1c-1.4,0-2.5-0.3-3.2-1c-0.8-0.7-1.1-1.7-1.1-3c0-1.3,0.3-2.2,1-3c0.7-0.7,1.6-1.1,2.8-1.1c1.2,0,2.1,0.3,2.7,1
	c0.6,0.7,1,1.6,1,2.9c0,0.1,0,0.3,0,0.5c0,0.2,0,0.3,0,0.4h-6.3v-1.4h4.7l-0.3,0.4c0-0.8-0.1-1.4-0.4-1.7c-0.3-0.4-0.7-0.6-1.3-0.6
	c-0.6,0-1.1,0.2-1.4,0.6c-0.3,0.4-0.5,1-0.5,1.8v0.6c0,0.7,0.2,1.2,0.6,1.5c0.4,0.3,0.9,0.5,1.7,0.5c0.4,0,0.9,0,1.4-0.1
	c0.5-0.1,0.9-0.2,1.3-0.3l0.2,1.6c-0.4,0.1-0.8,0.3-1.3,0.4C54.7,150.1,54.2,150.1,53.7,150.1z M46.6,150l-4.6-5h2.4l4.7,5H46.6z
	 M40.3,150V139h3.4c1.6,0,2.8,0.3,3.6,0.8c0.8,0.5,1.1,1.4,1.1,2.5c0,1.1-0.4,2-1.1,2.6c-0.7,0.6-1.8,0.9-3.2,0.9h-2.8v-1.7h2.5
	c0.9,0,1.5-0.1,1.9-0.4c0.4-0.3,0.6-0.7,0.6-1.2c0-0.6-0.2-1-0.6-1.2c-0.4-0.3-1-0.4-1.9-0.4h-1.5v9.1H40.3z M113.8,131.7v-7.8h2
	l0,0.9h0c0.3-0.4,0.7-0.6,1.1-0.8c0.4-0.2,0.9-0.3,1.5-0.3c0.9,0,1.6,0.3,2.1,0.8c0.4,0.5,0.7,1.3,0.7,2.4v4.8h-2.1v-4.4
	c0-0.6-0.1-1.1-0.3-1.4c-0.2-0.3-0.6-0.4-1-0.4c-0.4,0-0.7,0.1-1,0.2c-0.3,0.1-0.5,0.3-0.7,0.6c-0.2,0.2-0.2,0.5-0.2,0.9v4.6H113.8z
	 M109.2,123.2h-1.9l1.2-3.3h2.5L109.2,123.2z M108.2,130.3c0.6,0,1.1-0.2,1.4-0.6c0.3-0.4,0.5-1,0.5-1.8c0-0.8-0.2-1.4-0.5-1.8
	c-0.3-0.4-0.8-0.6-1.4-0.6c-0.6,0-1.1,0.2-1.4,0.6c-0.3,0.4-0.5,1-0.5,1.8c0,0.8,0.2,1.4,0.5,1.8
	C107.1,130.1,107.6,130.3,108.2,130.3z M108.2,131.9c-1.3,0-2.3-0.3-3-1c-0.7-0.7-1-1.7-1-3c0-1.3,0.3-2.3,1-3c0.7-0.7,1.7-1,3-1
	s2.3,0.3,2.9,1c0.7,0.7,1,1.7,1,3c0,1.3-0.3,2.3-1,3C110.5,131.5,109.5,131.9,108.2,131.9z M100.5,131.7V124h2.1v7.7H100.5z
	 M100.5,122.7v-1.9h2.1v1.9H100.5z M96,131.9c-0.9,0-1.7-0.2-2.3-0.5c-0.6-0.3-1.1-0.8-1.5-1.4c-0.3-0.6-0.5-1.3-0.5-2.2
	c0-0.9,0.2-1.6,0.5-2.2c0.3-0.6,0.8-1.1,1.5-1.4c0.6-0.3,1.4-0.5,2.3-0.5c0.5,0,0.9,0,1.3,0.1c0.4,0.1,0.8,0.2,1.2,0.4l-0.3,1.6
	c-0.3-0.2-0.7-0.3-1-0.4c-0.3-0.1-0.6-0.1-1-0.1c-0.8,0-1.3,0.2-1.8,0.6c-0.4,0.4-0.6,1-0.6,1.8c0,0.8,0.2,1.4,0.6,1.8
	c0.4,0.4,1,0.6,1.8,0.6c0.3,0,0.6,0,1-0.1c0.3-0.1,0.7-0.2,1-0.4l0.3,1.6c-0.4,0.2-0.8,0.3-1.2,0.4C96.9,131.8,96.5,131.9,96,131.9z
	 M86.4,130.3c0.3,0,0.7-0.1,0.9-0.2c0.3-0.1,0.5-0.3,0.7-0.5c0.2-0.2,0.2-0.5,0.2-0.7V128h-0.7c-0.8,0-1.4,0.1-1.8,0.3
	c-0.4,0.2-0.6,0.5-0.6,1c0,0.3,0.1,0.6,0.3,0.7C85.7,130.2,86,130.3,86.4,130.3z M85.7,131.9c-0.8,0-1.4-0.2-1.8-0.6
	c-0.4-0.4-0.7-1-0.7-1.7c0-0.9,0.4-1.6,1.1-2.1c0.7-0.5,1.7-0.7,3-0.7h1c0-0.3,0-0.6-0.1-0.8c-0.1-0.2-0.2-0.3-0.4-0.4
	c-0.2-0.1-0.5-0.1-0.9-0.1c-0.5,0-1,0.1-1.6,0.2c-0.5,0.1-1,0.3-1.5,0.4l-0.3-1.6c0.5-0.2,1.1-0.3,1.7-0.4c0.6-0.1,1.3-0.2,1.9-0.2
	c0.8,0,1.4,0.1,1.9,0.3c0.5,0.2,0.8,0.5,1,1c0.2,0.4,0.3,1,0.3,1.8v4.9h-2l0-0.9h0c-0.3,0.3-0.7,0.6-1.2,0.8
	C86.7,131.8,86.2,131.9,85.7,131.9z M77.2,131.7v-7.8h2l0,1.5h0c0.3-0.3,0.6-0.6,0.9-0.9c0.4-0.2,0.7-0.4,1.2-0.5
	c0.4-0.1,0.9-0.2,1.3-0.2v1.8c-0.6,0-1.2,0.1-1.7,0.3c-0.5,0.2-0.9,0.5-1.2,0.9c-0.3,0.4-0.4,0.8-0.4,1.3v3.6H77.2z M72.5,131.9
	c-1.4,0-2.5-0.3-3.2-1c-0.8-0.7-1.1-1.7-1.1-3c0-1.3,0.3-2.2,1-3c0.7-0.7,1.6-1.1,2.8-1.1c1.2,0,2.1,0.3,2.7,1c0.6,0.7,1,1.6,1,2.9
	c0,0.1,0,0.3,0,0.5c0,0.2,0,0.3,0,0.4h-6.3v-1.4H74l-0.3,0.4c0-0.8-0.1-1.4-0.4-1.7c-0.3-0.4-0.7-0.6-1.3-0.6
	c-0.6,0-1.1,0.2-1.4,0.6c-0.3,0.4-0.5,1-0.5,1.8v0.6c0,0.7,0.2,1.2,0.6,1.5c0.4,0.3,0.9,0.5,1.7,0.5c0.4,0,0.9,0,1.4-0.1
	c0.5-0.1,0.9-0.2,1.3-0.3l0.2,1.6c-0.4,0.1-0.8,0.3-1.3,0.4C73.5,131.8,73,131.9,72.5,131.9z M59.4,131.7v-7.8h2l0,0.9h0
	c0.3-0.4,0.7-0.6,1.1-0.8c0.4-0.2,0.9-0.3,1.5-0.3c0.9,0,1.6,0.3,2.1,0.8c0.4,0.5,0.7,1.3,0.7,2.4v4.8h-2.1v-4.4
	c0-0.6-0.1-1.1-0.3-1.4c-0.2-0.3-0.6-0.4-1-0.4c-0.4,0-0.7,0.1-1,0.2c-0.3,0.1-0.5,0.3-0.7,0.6c-0.2,0.2-0.2,0.5-0.2,0.9v4.6H59.4z
	 M54.7,131.9c-1.4,0-2.5-0.3-3.2-1c-0.8-0.7-1.1-1.7-1.1-3c0-1.3,0.3-2.2,1-3c0.7-0.7,1.6-1.1,2.8-1.1c1.2,0,2.1,0.3,2.7,1
	c0.6,0.7,1,1.6,1,2.9c0,0.1,0,0.3,0,0.5c0,0.2,0,0.3,0,0.4h-6.3v-1.4h4.7l-0.3,0.4c0-0.8-0.1-1.4-0.4-1.7c-0.3-0.4-0.7-0.6-1.3-0.6
	c-0.6,0-1.1,0.2-1.4,0.6c-0.3,0.4-0.5,1-0.5,1.8v0.6c0,0.7,0.2,1.2,0.6,1.5c0.4,0.3,0.9,0.5,1.7,0.5c0.4,0,0.9,0,1.4-0.1
	c0.5-0.1,0.9-0.2,1.3-0.3l0.2,1.6c-0.4,0.1-0.8,0.3-1.3,0.4C55.7,131.8,55.2,131.9,54.7,131.9z M44.9,131.9c-1.2,0-2.3-0.2-3.2-0.7
	c-0.9-0.4-1.6-1.1-2.1-1.9c-0.5-0.8-0.7-1.8-0.7-3c0-1.2,0.2-2.2,0.7-3c0.5-0.8,1.1-1.5,2-1.9c0.9-0.4,1.9-0.7,3.1-0.7
	c0.7,0,1.3,0.1,1.9,0.2c0.6,0.1,1.1,0.4,1.6,0.6l-0.5,1.8c-0.4-0.3-0.9-0.4-1.4-0.6c-0.5-0.1-1.1-0.2-1.6-0.2c-0.8,0-1.4,0.1-2,0.4
	c-0.5,0.3-1,0.7-1.2,1.3c-0.3,0.6-0.4,1.2-0.4,2.1c0,0.8,0.1,1.5,0.4,2.1c0.3,0.6,0.7,1,1.3,1.3c0.6,0.3,1.2,0.4,2.1,0.4
	c0.4,0,0.8,0,1.2-0.1c0.4-0.1,0.7-0.2,1-0.4l-0.3,0.6v-3.1h-3.2v-1.8h5.3v5.7c-0.5,0.3-1.1,0.5-1.9,0.6
	C46.3,131.8,45.6,131.9,44.9,131.9z"/>
</svg>
