<?xml version="1.0" encoding="utf-8"?>
<!-- Generator: Adobe Illustrator 24.0.2, SVG Export Plug-In . SVG Version: 6.00 Build 0)  -->
<svg version="1.1" id="Capa_1" xmlns="http://www.w3.org/2000/svg" xmlns:xlink="http://www.w3.org/1999/xlink" x="0px" y="0px"
	 viewBox="0 0 512 512" style="enable-background:new 0 0 512 512;" xml:space="preserve">
<style type="text/css">
	.a1,.b2,.c3,.d4,.e5,.f6,.g7,.h8{fill:none;stroke:#f00;stroke-width:1; opacity: 0;}

		@keyframes mundoLine510{
			0%{stroke-dashoffset:510px;opacity:0.5;stroke:#f00;}
			20%{stroke-dashoffset:250px;opacity:0.5;stroke:#ff0;}
			40%{stroke-dashoffset:-510px;opacity:0.5;stroke:#000;}
			60%{stroke-dashoffset:-510px;opacity:0.5;stroke:#f00;}
			80%{stroke-dashoffset:-250px;opacity:0.5;stroke:#ff0;}
			100%{stroke-dashoffset:510px;opacity:0.5;stroke:#f00;}
		}
		@keyframes mundoLine350{
			0%{stroke-dashoffset:350px;opacity:0.5;stroke:#f00;}
			20%{stroke-dashoffset:175px;opacity:0.5;stroke:#ff0;}
			40%{stroke-dashoffset:-350px;opacity:0.5;stroke:#000;}
			60%{stroke-dashoffset:-350px;opacity:0.5;stroke:#000;}
			80%{stroke-dashoffset:-175px;opacity:0.5;stroke:#ff0;}
			100%{stroke-dashoffset:350px;opacity:0.5;stroke:#f00;}
		}
		@keyframes mundoLine540{
			0%{stroke-dashoffset:540px;opacity:0.5;stroke:#ff0;}
			50%{stroke-dashoffset:275px;opacity:0.5;stroke:#000;}
			100%{stroke-dashoffset:540px;opacity:0.5;stroke:#ff0;}
		}
	.a1{
		stroke-dasharray: 510px;
		animation: mundoLine510 2.5s infinite linear;
	}
	.b2{
		stroke-dasharray: 510px;
		animation: mundoLine510 3.5s infinite linear ;
	}
	.c3{
		stroke-dasharray: 350px;
		animation: mundoLine350 4.5s infinite ease-out ;
	}
	.d4{
		stroke-dasharray: 540px;
		animation: mundoLine540 5.5s infinite ease-in-out ;
	}
	.e5{
		stroke-dasharray: 350px;
		animation: mundoLine350 2.5s infinite ease-in ;
	}
	.f6{
		stroke-dasharray: 510px;
		animation: mundoLine510 6.5s infinite ease-in-out ;
	}
	.g7{
		stroke-dasharray: 540px;
		animation: mundoLine540 7.5s infinite ease-in-out ;
	}
	.h8{
		stroke-dasharray: 510px;
		animation: mundoLine510 8.5s infinite linear ;
	}

	.st0{fill-rule:evenodd;clip-rule:evenodd;}
	.st1{fill-rule:evenodd;clip-rule:evenodd;fill:#CA5D14;}
	.st2{fill-rule:evenodd;clip-rule:evenodd;fill:#1E1E1E;}
	.st11{fill:#FFFFFF;}
	.st12{fill:#CA5D14;}
	.st13{fill-rule:evenodd;clip-rule:evenodd;fill:#FFFFFF;}
	.st14{fill-rule:evenodd;clip-rule:evenodd;fill:#D9D9D9;}
	.st15{fill-rule:evenodd;clip-rule:evenodd;fill:#9C9C9D;}
	.st16{fill-rule:evenodd;clip-rule:evenodd;fill:#231F20;}
	.linennnn{fill:none;stroke:#f00;stroke-width:6;
		opacity: 0;
		stroke-dasharray: 1523px;
		animation: mundoLine1525 7.5s infinite linear;
	}
	@keyframes mundoLine1525{
			0%{stroke-dashoffset:1523px;opacity:0;stroke:transparent;stroke-width:0;}
			25%{stroke-dashoffset:0px;opacity:1;stroke:#ff0;stroke-width:12;}
			50%{stroke-dashoffset:-1523px;opacity:0;stroke:transparent;stroke-width:0;}
			100%{stroke-dashoffset:-1523px;opacity:1;stroke:#f00;stroke-width:12;}
		}
</style>
<path class="st0" d="M410.1,192.4h16.8h16.8l8.4,14.7l8.4,14.7l-8.4,14.7l-8.4,14.7h-16.8h-16.8l-8.4-14.7l-8.4-14.7l8.4-14.7
	L410.1,192.4z M353.7,218.6l-8.4-14.7l-8.4-14.7l8.4-14.7l8.4-14.7h16.8h16.8l8.4,14.7l8.4,14.7l-8.4,14.7l-8.4,14.7h-16.8H353.7z
	 M401.7,141.3l8.4-14.7h16.8h16.8l8.4,14.7l8.4,14.7l-8.4,14.7l-8.4,14.7h-16.8h-16.8l-8.4-14.7l-8.4-14.7L401.7,141.3z
	 M353.7,225.8h16.8h16.8l8.4,14.7l8.4,14.7l-8.4,14.7l-8.4,14.7h-16.8h-16.8l-8.4-14.7l-8.4-14.7l8.4-14.7L353.7,225.8z
	 M297.3,324.8H314h16.8l8.4,14.7l8.4,14.7l-8.4,14.7l-8.4,14.7H314h-16.8l-8.4-14.7l-8.4-14.7l8.4-14.7L297.3,324.8z M353.7,291.5
	h16.8h16.8l8.4,14.7l8.4,14.7l-8.4,14.7l-8.4,14.7h-16.8h-16.8l-8.4-14.7l-8.4-14.7l8.4-14.7L353.7,291.5z M297.3,252l-8.4-14.7
	l-8.4-14.7l8.4-14.7l8.4-14.7H314h16.8l8.4,14.7l8.4,14.7l-8.4,14.7l-8.4,14.7H314H297.3z M288.9,273.8l8.4-14.7H314h16.8l8.4,14.7
	l8.4,14.7l-8.4,14.7l-8.4,14.7H314h-16.8l-8.4-14.7l-8.4-14.7L288.9,273.8z M240.8,423.9h16.8h16.8l8.4,14.7l8.4,14.7l-8.4,14.7
	l-8.4,14.7h-16.8h-16.8l-8.4-14.7l-8.4-14.7l8.4-14.7L240.8,423.9z M240.8,358.2h16.8h16.8l8.4,14.7l8.4,14.7l-8.4,14.7l-8.4,14.7
	h-16.8h-16.8l-8.4-14.7l-8.4-14.7l8.4-14.7L240.8,358.2z M232.5,307.1l8.4-14.7h16.8h16.8l8.4,14.7l8.4,14.7l-8.4,14.7l-8.4,14.7
	h-16.8h-16.8l-8.4-14.7l-8.4-14.7L232.5,307.1z M224.1,256l8.4-14.7l8.4-14.7h16.8h16.8l8.4,14.7l8.4,14.7l-8.4,14.7l-8.4,14.7
	h-16.8h-16.8l-8.4-14.7L224.1,256z M184.4,325.8h16.8H218l8.4,14.7l8.4,14.7l-8.4,14.7l-8.4,14.7h-16.8h-16.8l-8.4-14.7l-8.4-14.7
	l8.4-14.7L184.4,325.8z M184.4,260h16.8H218l8.4,14.7l8.4,14.7l-8.4,14.7l-8.4,14.7h-16.8h-16.8L176,304l-8.4-14.7l8.4-14.7
	L184.4,260z M128,293.4h16.8h16.8L170,308l8.4,14.7l-8.4,14.7l-8.4,14.7h-16.8H128l-8.4-14.7l-8.4-14.7l8.4-14.7L128,293.4z
	 M128,227.6h16.8h16.8l8.4,14.7l8.4,14.7l-8.4,14.7l-8.4,14.7h-16.8H128l-8.4-14.7l-8.4-14.7l8.4-14.7L128,227.6z M105.2,195.2
	l8.4,14.7l8.4,14.7l-8.4,14.7l-8.4,14.7H88.4H71.6l-8.4-14.7l-8.4-14.7l8.4-14.7l8.4-14.7h16.8H105.2z M184.4,194.3h16.8H218
	l8.4,14.7l8.4,14.7l-8.4,14.7l-8.4,14.7h-16.8h-16.8l-8.4-14.7l-8.4-14.7L176,209L184.4,194.3z M240.8,88.1l-8.4-14.7l-8.4-14.7
	l8.4-14.7l8.4-14.7h16.8h16.8l8.4,14.7l8.4,14.7l-8.4,14.7l-8.4,14.7h-16.8H240.8z M401.7,75.6l8.4-14.7h16.8h16.8l8.4,14.7
	l8.4,14.7l-8.4,14.7l-8.4,14.7h-16.8h-16.8l-8.4-14.7l-8.4-14.7L401.7,75.6z M345.3,108.9l8.4-14.7h16.8h16.8l8.4,14.7l8.4,14.7
	l-8.4,14.7l-8.4,14.7h-16.8h-16.8l-8.4-14.7l-8.4-14.7L345.3,108.9z M330.8,120.5H314h-16.8l-8.4-14.7l-8.4-14.7l8.4-14.7l8.4-14.7
	H314h16.8l8.4,14.7l8.4,14.7l-8.4,14.7L330.8,120.5z M280.5,156.9l8.4-14.7l8.4-14.7H314h16.8l8.4,14.7l8.4,14.7l-8.4,14.7
	l-8.4,14.7H314h-16.8l-8.4-14.7L280.5,156.9z M224.1,190.3l8.4-14.7l8.4-14.7h16.8h16.8l8.4,14.7l8.4,14.7l-8.4,14.7l-8.4,14.7
	h-16.8h-16.8l-8.4-14.7L224.1,190.3z M240.8,153.8l-8.4-14.7l-8.4-14.7l8.4-14.7l8.4-14.7h16.8h16.8l8.4,14.7l8.4,14.7l-8.4,14.7
	l-8.4,14.7h-16.8H240.8z M121.9,158.8l-8.4,14.7l-8.4,14.7H88.4H71.6l-8.4-14.7l-8.4-14.7l8.4-14.7l8.4-14.7h16.8h16.8l8.4,14.7
	L121.9,158.8z M170,176.6l8.4,14.7l-8.4,14.7l-8.4,14.7h-16.8H128l-8.4-14.7l-8.4-14.7l8.4-14.7l8.4-14.7h16.8h16.8L170,176.6z
	 M161.6,89.1h-16.8H128l-8.4-14.7l-8.4-14.7l8.4-14.7l8.4-14.7h16.8h16.8l8.4,14.7l8.4,14.7L170,74.4L161.6,89.1z M201.2,121.4
	h-16.8l-8.4-14.7l-8.4-14.7l8.4-14.7l8.4-14.7h16.8H218l8.4,14.7l8.4,14.7l-8.4,14.7l-8.4,14.7H201.2z M53.9,74.4l-8.4,14.7H28.7
	h-8.4c0.3,2.4,0.6,4.7,0.9,7.1h7.5h16.8l8.4,14.7l8.4,14.7l-8.4,14.7l-8.4,14.7H31.1c0.5,2.4,1,4.7,1.5,7.1h12.8l8.4,14.7l8.4,14.7
	l-8.4,14.7l-6.5,11.3c3.7,11.8,7.8,23.5,12.2,35.1l2.7,4.7l-0.5,0.9c1.6,4,3.2,8,4.8,11.9l5-8.8h16.8h16.8l8.4,14.7l8.4,14.7
	l-8.4,14.7l-8.4,14.7H90.1c1.3,2.4,2.6,4.8,3.9,7.1h11.2l8.4,14.7l8.4,14.7l-4.9,8.6c1.4,2.1,2.8,4.2,4.3,6.3l6.7-11.7h16.8h16.8
	l8.4,14.7l8.4,14.7l-8.4,14.7l-8.4,14.7h-3.5c6.3,7.1,12.9,14,19.7,20.7l-1.7-3l-8.4-14.7l8.4-14.7l8.4-14.7h16.8H218l8.4,14.7
	l8.4,14.7l-8.4,14.7l-8.4,14.7h-16.8H190c2.6,2.4,5.3,4.8,8,7.1h3.3H218l8.4,14.7l7.9,13.7c2.1,1.5,4.2,2.9,6.4,4.4l0.2-0.4h16.8
	h14.3c3.5-2.4,7-4.8,10.4-7.2l6.6-11.5l8.4-14.7H314h1.1c2.7-2.3,5.3-4.7,7.9-7.1h-9h-16.8l-8.4-14.7l-8.4-14.7l8.4-14.7l8.4-14.7
	H314h16.8l8.4,14.7l8.4,14.7l-6.9,12.1c5.1-5.3,10.1-10.6,14.9-16.1h-1.9l-8.4-14.7l-8.4-14.7l8.4-14.7l8.4-14.7h16.8h16.8l5.8,10.2
	c1.5-2.2,3-4.5,4.5-6.8l-4.3-7.5l8.4-14.7l8.4-14.7h9.5c1.3-2.4,2.6-4.7,3.8-7.1h-13.3l-8.4-14.7l-8.4-14.7l8.4-14.7l8.4-14.7h16.8
	h16.8l3.8,6.7c1.2-2.9,2.3-5.8,3.4-8.6l-1.2-2.1l5.7-10c3.5-9.5,6.7-19.2,9.7-28.9l-7-12.3l-8.4-14.7l8.4-14.7l8.4-14.7H480
	c0.5-2.4,1-4.7,1.5-7.1h-15l-8.4-14.7l-8.4-14.7l8.4-14.7l8.4-14.7h16.8h7.8c0.3-2.4,0.6-4.7,0.8-7.1h-8.7h-16.8l-8.4-14.7
	l-8.4-14.7l2.3-4c-2.1-0.9-4.2-1.8-6.3-2.7l-2.1,3.6h-16.8h-16.8l-8.4-14.7l-3.6-6.2c-3.4-1-6.7-2-10.1-3l7.6,13.3l8.4,14.7
	l-8.4,14.7l-8.4,14.7h-16.8h-16.8l-8.4-14.7l-8.4-14.7l8.4-14.7l8.4-14.7h16.8h12.7c-9.7-2.7-19.5-5.1-29.3-7.1h-0.1l0,0
	c-3.2-0.7-6.3-1.3-9.5-1.9l3.4,6l-8.4,14.7l-8.4,14.7H314h-16.8l-8.4-14.7l-8.4-14.7l7.5-13.2c-2.5-0.2-5.1-0.3-7.6-0.5l-6,10.5
	h-16.8h-16.8l-6.1-10.7c-2.7,0.1-5.4,0.3-8.1,0.4l8.2,14.3l-8.4,14.7L218,55.7h-16.8h-16.8L176,41.1l-8.4-14.7l4.4-7.7
	c-2.9,0.5-5.9,1.1-8.8,1.7l-1.7,2.9h-12c-10,2.3-19.9,4.9-29.8,7.8L113.5,42l-8.4,14.7H88.4H71.6l-4-7c-3,1.2-5.9,2.5-8.9,3.8
	l3.6,6.2L53.9,74.4z M113.5,107.7l-8.4,14.7H88.4H71.6l-8.4-14.7l-8.4-14.7l8.4-14.7l8.4-14.7h16.8h16.8l8.4,14.7l8.4,14.7
	L113.5,107.7z M161.6,154.8h-16.8H128l-8.4-14.7l-8.4-14.7l8.4-14.7l8.4-14.7h16.8h16.8l8.4,14.7l8.4,14.7l-8.4,14.7L161.6,154.8z
	 M218,187.2h-16.8h-16.8l-8.4-14.7l-8.4-14.7l8.4-14.7l8.4-14.7h16.8H218l8.4,14.7l8.4,14.7l-8.4,14.7L218,187.2z"/>
<path class="st1" d="M256,499.9c18.8-11.5,36.6-24.4,53.4-38.6c54.6-46.3,96.5-105,126.5-169.7c31.8-68.6,50.2-143.3,57.5-218.5
	C340.1-9.4,171.9-9.4,18.6,73.1c7.3,75.1,25.6,149.9,57.5,218.5c30,64.7,71.9,123.5,126.5,169.7C219.4,475.5,237.2,488.4,256,499.9
	 M13.1,70.1c156.6-85.5,329.2-85.5,485.8,0C481.6,257.3,398.1,420.7,256,506C113.9,420.7,30.4,257.3,13.1,70.1z"/>
<path class="st2" d="M45.5,89.1l8.4-14.7l8.4-14.7l-3.6-6.2C45.2,59.4,31.9,65.9,18.6,73c0.5,5.3,1.1,10.7,1.7,16h8.4H45.5z"/>
<path class="st2" d="M71.6,56.7h16.8h16.8l8.4-14.7l6.2-10.9c-17.5,5.2-34.9,11.4-52.2,18.6L71.6,56.7z"/>
<polygon class="st2" points="111.2,59.7 119.6,74.4 128,89.1 144.8,89.1 161.6,89.1 170,74.4 178.4,59.7 170,45.1 161.6,30.4 
	144.8,30.4 128,30.4 119.6,45.1 "/>
<path class="st2" d="M176,41.1l8.4,14.7h16.8H218l8.4-14.7l8.4-14.7l-8.2-14.3c-18.2,1.1-36.4,3.3-54.6,6.6l-4.4,7.7L176,41.1z"/>
<path class="st2" d="M234.7,11.7l6.1,10.7h16.8h16.8l6-10.5C265.2,11,250,11,234.7,11.7"/>
<path class="st2" d="M280.5,25.5l8.4,14.7l8.4,14.7H314h16.8l8.4-14.7l8.4-14.7l-3.4-6c-18.7-3.5-37.4-5.9-56.2-7.2L280.5,25.5z"/>
<path class="st2" d="M345.3,43.2l-8.4,14.7l8.4,14.7l8.4,14.7h16.8h16.8l8.4-14.7l8.4-14.7l-8.4-14.7L388,29.9
	c-1.6-0.5-3.3-0.9-4.9-1.4h-12.7h-16.8L345.3,43.2z"/>
<path class="st2" d="M401.7,39.2l8.4,14.7h16.8h16.8l2.1-3.6c-15.7-6.6-31.6-12.4-47.6-17.3L401.7,39.2z"/>
<path class="st2" d="M449.7,56.9l8.4,14.7l8.4,14.7h16.8h8.7c0.5-4.4,1-8.8,1.4-13.2C479.7,65.7,465.9,59,452,52.9L449.7,56.9z"/>
<path class="st2" d="M466.5,93.3l-8.4,14.7l-8.4,14.7l8.4,14.7l8.4,14.7h15c4-19.4,7.2-39,9.7-58.6h-7.8H466.5z"/>
<polygon class="st2" points="452,104.9 460.4,90.2 452,75.6 443.7,60.9 426.9,60.9 410.1,60.9 401.7,75.6 393.3,90.2 401.7,104.9 
	410.1,119.6 426.9,119.6 443.7,119.6 "/>
<polygon class="st2" points="339.2,105.8 347.6,91.2 339.2,76.5 330.8,61.9 314,61.9 297.3,61.9 288.9,76.5 280.5,91.2 288.9,105.8 
	297.3,120.5 314,120.5 330.8,120.5 "/>
<polygon class="st2" points="282.8,73.5 291.2,58.8 282.8,44.1 274.4,29.5 257.6,29.5 240.8,29.5 232.5,44.1 224.1,58.8 232.5,73.5 
	240.8,88.1 257.6,88.1 274.4,88.1 "/>
<polygon class="st2" points="234.8,92.1 226.4,77.5 218,62.8 201.2,62.8 184.4,62.8 176,77.5 167.6,92.1 176,106.8 184.4,121.4 
	201.2,121.4 218,121.4 226.4,106.8 "/>
<polygon class="st2" points="113.5,107.7 121.9,93.1 113.5,78.4 105.2,63.8 88.4,63.8 71.6,63.8 63.2,78.4 54.8,93.1 63.2,107.7 
	71.6,122.4 88.4,122.4 105.2,122.4 "/>
<path class="st2" d="M62.3,125.5l-8.4-14.7l-8.4-14.7H28.7h-7.5c2.5,19.6,5.8,39.2,9.9,58.6h14.4l8.4-14.7L62.3,125.5z"/>
<polygon class="st2" points="71.6,129.5 63.2,144.2 54.8,158.8 63.2,173.5 71.6,188.1 88.4,188.1 105.2,188.1 113.5,173.5 
	121.9,158.8 113.5,144.2 105.2,129.5 88.4,129.5 "/>
<polygon class="st2" points="111.2,125.5 119.6,140.1 128,154.8 144.8,154.8 161.6,154.8 170,140.1 178.4,125.5 170,110.8 
	161.6,96.2 144.8,96.2 128,96.2 119.6,110.8 "/>
<polygon class="st2" points="176,143.2 167.6,157.9 176,172.5 184.4,187.2 201.2,187.2 218,187.2 226.4,172.5 234.8,157.9 
	226.4,143.2 218,128.6 201.2,128.6 184.4,128.6 "/>
<polygon class="st2" points="224.1,124.5 232.5,139.2 240.8,153.8 257.6,153.8 274.4,153.8 282.8,139.2 291.2,124.5 282.8,109.9 
	274.4,95.2 257.6,95.2 240.8,95.2 232.5,109.9 "/>
<polygon class="st2" points="297.3,127.6 288.9,142.3 280.5,156.9 288.9,171.6 297.3,186.2 314,186.2 330.8,186.2 339.2,171.6 
	347.6,156.9 339.2,142.3 330.8,127.6 314,127.6 "/>
<polygon class="st2" points="336.9,123.6 345.3,138.2 353.7,152.9 370.5,152.9 387.2,152.9 395.6,138.2 404,123.6 395.6,108.9 
	387.2,94.3 370.5,94.3 353.7,94.3 345.3,108.9 "/>
<polygon class="st2" points="401.7,141.3 393.3,156 401.7,170.6 410.1,185.3 426.9,185.3 443.7,185.3 452,170.6 460.4,156 
	452,141.3 443.7,126.7 426.9,126.7 410.1,126.7 "/>
<path class="st2" d="M458.1,173.7l-8.4,14.7l8.4,14.7l7,12.3c5.7-18.5,10.7-37.3,14.8-56.2h-13.4L458.1,173.7z"/>
<path class="st2" d="M62.3,191.2l-8.4-14.7l-8.4-14.7H32.7c4.1,18.6,9,37.1,14.8,55.2l6.5-11.3L62.3,191.2z"/>
<polygon class="st2" points="71.6,195.2 63.2,209.9 54.8,224.6 63.2,239.2 71.6,253.9 88.4,253.9 105.2,253.9 113.5,239.2 
	121.9,224.6 113.5,209.9 105.2,195.2 88.4,195.2 "/>
<polygon class="st2" points="111.2,191.2 119.6,205.9 128,220.5 144.8,220.5 161.6,220.5 170,205.9 178.4,191.2 170,176.6 
	161.6,161.9 144.8,161.9 128,161.9 119.6,176.6 "/>
<polygon class="st2" points="176,209 167.6,223.6 176,238.3 184.4,252.9 201.2,252.9 218,252.9 226.4,238.3 234.8,223.6 226.4,209 
	218,194.3 201.2,194.3 184.4,194.3 "/>
<polygon class="st2" points="224.1,190.3 232.5,204.9 240.8,219.6 257.6,219.6 274.4,219.6 282.8,204.9 291.2,190.3 282.8,175.6 
	274.4,161 257.6,161 240.8,161 232.5,175.6 "/>
<polygon class="st2" points="288.9,208 280.5,222.7 288.9,237.3 297.3,252 314,252 330.8,252 339.2,237.3 347.6,222.7 339.2,208 
	330.8,193.4 314,193.4 297.3,193.4 "/>
<polygon class="st2" points="336.9,189.3 345.3,204 353.7,218.6 370.5,218.6 387.2,218.6 395.6,204 404,189.3 395.6,174.7 
	387.2,160 370.5,160 353.7,160 345.3,174.7 "/>
<polygon class="st2" points="401.7,207.1 393.3,221.7 401.7,236.4 410.1,251 426.9,251 443.7,251 452,236.4 460.4,221.7 452,207.1 
	443.7,192.4 426.9,192.4 410.1,192.4 "/>
<polygon class="st2" points="395.6,240.4 387.2,225.8 370.5,225.8 353.7,225.8 345.3,240.4 336.9,255.1 345.3,269.7 353.7,284.4 
	370.5,284.4 387.2,284.4 395.6,269.7 404,255.1 "/>
<polygon class="st2" points="339.2,273.8 330.8,259.1 314,259.1 297.3,259.1 288.9,273.8 280.5,288.4 288.9,303.1 297.3,317.7 
	314,317.7 330.8,317.7 339.2,303.1 347.6,288.4 "/>
<polygon class="st2" points="282.8,270.7 291.2,256 282.8,241.4 274.4,226.7 257.6,226.7 240.8,226.7 232.5,241.4 224.1,256 
	232.5,270.7 240.8,285.3 257.6,285.3 274.4,285.3 "/>
<polygon class="st2" points="226.4,274.7 218,260 201.2,260 184.4,260 176,274.7 167.6,289.4 176,304 184.4,318.7 201.2,318.7 
	218,318.7 226.4,304 234.8,289.4 "/>
<polygon class="st2" points="170,271.6 178.4,257 170,242.3 161.6,227.6 144.8,227.6 128,227.6 119.6,242.3 111.2,257 119.6,271.6 
	128,286.3 144.8,286.3 161.6,286.3 "/>
<path class="st2" d="M121.9,290.3l-8.4-14.7l-8.4-14.7H88.4H71.6l-5,8.8c3,7.3,6.2,14.5,9.5,21.7c4.4,9.5,9.1,18.9,14,28.1h15.1
	l8.4-14.7L121.9,290.3z"/>
<polygon class="st2" points="128,293.4 119.6,308 111.2,322.7 119.6,337.4 128,352 144.8,352 161.6,352 170,337.4 178.4,322.7 
	170,308 161.6,293.4 144.8,293.4 "/>
<polygon class="st2" points="184.4,325.8 176,340.4 167.6,355.1 176,369.8 184.4,384.4 201.2,384.4 218,384.4 226.4,369.8 
	234.8,355.1 226.4,340.4 218,325.8 201.2,325.8 "/>
<polygon class="st2" points="224.1,321.8 232.5,336.4 240.8,351.1 257.6,351.1 274.4,351.1 282.8,336.4 291.2,321.8 282.8,307.1 
	274.4,292.4 257.6,292.4 240.8,292.4 232.5,307.1 "/>
<polygon class="st2" points="297.3,324.8 288.9,339.5 280.5,354.1 288.9,368.8 297.3,383.5 314,383.5 330.8,383.5 339.2,368.8 
	347.6,354.1 339.2,339.5 330.8,324.8 314,324.8 "/>
<polygon class="st2" points="336.9,320.8 345.3,335.5 353.7,350.1 370.5,350.1 387.2,350.1 395.6,335.5 404,320.8 395.6,306.2 
	387.2,291.5 370.5,291.5 353.7,291.5 345.3,306.2 "/>
<path class="st2" d="M393.3,287.5l8.4,14.7l8.4,14.7h13.3c4.4-8.3,8.5-16.7,12.5-25.3c4.1-8.8,7.9-17.7,11.6-26.7l-3.8-6.7h-16.8
	h-16.8l-8.4,14.7L393.3,287.5z"/>
<path class="st2" d="M121.9,356l-8.4-14.7l-8.4-14.7H94c7.2,13,14.9,25.6,23.1,37.9L121.9,356z"/>
<path class="st2" d="M128,359.1l-6.7,11.7c11.3,16.4,23.6,32,36.8,46.9h3.5l8.4-14.7l8.4-14.7l-8.4-14.7l-8.4-14.7h-16.8H128z"/>
<path class="st2" d="M184.4,391.5l-8.4,14.7l-8.4,14.7l8.4,14.7l1.7,3c4,4,8.1,7.9,12.3,11.7h11.2H218l8.4-14.7l8.4-14.7l-8.4-14.7
	l-8.4-14.7h-16.8H184.4z"/>
<polygon class="st2" points="240.8,423.9 232.5,438.6 224.1,453.2 232.5,467.9 240.8,482.5 257.6,482.5 274.4,482.5 282.8,467.9 
	291.2,453.2 282.8,438.6 274.4,423.9 257.6,423.9 "/>
<path class="st2" d="M280.5,419.9l8.4,14.7l8.4,14.7H314h9c6.1-5.6,11.9-11.3,17.7-17.2l6.9-12.1l-8.4-14.7l-8.4-14.7H314h-16.8
	l-8.4,14.7L280.5,419.9z"/>
<polygon class="st2" points="274.4,416.8 282.8,402.1 291.2,387.5 282.8,372.8 274.4,358.2 257.6,358.2 240.8,358.2 232.5,372.8 
	224.1,387.5 232.5,402.1 240.8,416.8 257.6,416.8 "/>
<path class="st2" d="M336.9,386.5l8.4,14.7l8.4,14.7h1.9c13.5-15.3,26-31.5,37.5-48.4l-5.8-10.2h-16.8h-16.8l-8.4,14.7L336.9,386.5z
	"/>
<path class="st2" d="M401.7,338.5l-8.4,14.7l4.3,7.5c7.8-11.9,15.2-24.2,22-36.8h-9.5L401.7,338.5z"/>
<path class="st2" d="M314,456.3h-16.8l-8.4,14.7l-6.6,11.5c9.3-6.7,18.3-13.8,27.1-21.2c1.9-1.6,3.8-3.3,5.7-4.9H314z"/>
<path class="st2" d="M271.9,489.7h-14.3h-16.8l-0.2,0.4c5.1,3.4,10.2,6.7,15.4,9.9C261.4,496.6,266.7,493.2,271.9,489.7"/>
<path class="st2" d="M226.4,471.9l-8.4-14.7h-16.8H198c1.5,1.3,3.1,2.7,4.6,4c10.2,8.6,20.7,16.8,31.7,24.4L226.4,471.9z"/>
<path class="st2" d="M161.6,23.3l1.7-2.9c-4.5,0.9-9.1,1.9-13.6,2.9H161.6z"/>
<path class="st2" d="M455.4,244.2l-5.7,10l1.2,2.1C452.5,252.2,454,248.2,455.4,244.2"/>
<polyline class="h8" points="118.9,367.4 126,355.1 163,355.1 181.8,322.2 219.9,322.2 239.1,288.7 276,288.7 294.3,256.4 
	332.6,256.5 352.5,221.7 389.2,221.7 407,190.7 444.9,190.7 464.8,156 480.6,156 "/>
<polyline class="a1" points="64.6,265.1 70.3,256.5 107.4,256.5 126.2,223.7 164.3,223.7 183.5,190.1 220.3,190.1 238.7,157.8 
	277,157.9 296.9,123.2 333.6,123.2 351.4,92.2 389.3,92.2 409.2,57.4 446.2,57.9 449.7,51.9 "/>
<polyline class="b2" points="63.2,51.5 68.6,59.3 106.9,59.3 126,92.6 163.5,92.3 182.4,125.5 220,125 238.8,157.8 276.3,157.1 
	295.5,190.7 333.2,190.7 350.9,221.7 388.8,221.7 408,255.3 445.5,255 449,261.1 "/>
<polyline class="c3" points="284.4,12.1 276.4,25.9 239.4,25.9 220.3,59.3 181.6,59.3 163.1,91.7 126,92.6 107.4,125 69,125 
	50,91.8 20.8,92.4 "/>
<polyline class="d4" points="91.7,322.2 106.8,322.2 125.2,288.7 162.2,288.7 181,255.8 219.1,255.8 238.3,222.3 275.2,222.3 
	293.5,190 331.8,190.1 351.7,155.3 388.5,155.3 406.2,124.3 444.1,124.3 464,89.6 491.6,89.9 "/>
<polyline class="e5" points="50,225.3 69.6,191.8 106.7,191.8 125.5,158.9 163.6,158.9 182.8,125.4 219.6,125.4 238,93.1 
	276.3,93.2 296.2,58.4 332.9,58.4 354,21.5 "/>
<polyline class="f6" points="136.5,26.5 163.6,26.6 182.7,60 220.1,59.7 239.1,92.8 276.7,92.4 295.5,125.2 333,124.5 352.2,158.1 
	389.8,158.1 407.6,189.1 445.5,189.1 463.5,220.6 "/>
<polyline class="g7" points="20.8,92.4 50.4,92.4 69.5,125.8 106.9,125.5 125.9,158.6 163.5,158.2 182.3,191 219.8,190.3 
	239,223.9 276.7,223.9 294.4,254.9 332.3,254.9 351.5,288.4 388.9,288.2 407.7,321 421.2,321 "/>
<path class="st11" d="M165.5,61.1c-0.8,0-1.3,0-1.9,0c-6,0-11.9-0.1-17.9-0.1c-0.5,0-1,0-1.5-0.1c-0.5-0.1-0.9-0.6-0.7-1.1
	c0.1-0.4,0.5-0.8,0.8-0.9c0.4-0.2,1-0.1,1.5-0.1c13,0,26.1,0.1,39.1,0.1c2.2,0,4.4,0,6.6,0c1.3,0,1.9,0.4,1.8,1.2
	c0,0.7-0.6,1.1-1.8,1.1c-6.7,0-13.4,0-20.1,0c-0.5,0-1,0-1.5,0c-1.7,0-1.6,0-2.2,1.6c-1.8,5.2-3.5,10.5-5.3,15.7
	c-4.2,12.1-8.5,24.1-12.8,36.2c-0.2,0.5-0.4,1-0.6,1.5c-0.3,0.5-0.8,0.7-1.4,0.5c-0.6-0.2-0.7-0.7-0.6-1.3c0.1-0.4,0.3-0.7,0.4-1.1
	c3.7-10.5,7.5-20.9,11.2-31.4c1.3-3.7,2.5-7.4,3.8-11c0.2-0.4,0.3-0.9,0.2-1.5c-0.3,0.4-0.5,0.7-0.8,1.1
	c-4.8,7.3-9.5,14.7-14.8,21.7c-3.4,4.4-6.7,8.9-10.8,12.7c-1.7,1.6-3.6,3.1-5.5,4.4c-1.1,0.8-2.4,1.3-3.8,1.6
	c-2.8,0.7-5.3-0.1-7.2-2.3c-1.2-1.3-2-2.9-2.4-4.6c-1-4-0.6-8,0.3-12c1.7-7.1,4.3-13.8,7.5-20.3c3.1-6.4,6.4-12.6,10.2-18.6
	c4.1-6.5,8.5-12.8,13.6-18.6c2.1-2.4,4.5-4.6,7.1-6.4c1.5-1.1,3.2-2,5-2.5c4.4-1.2,8,1.2,8.8,5.6c0.4,2.4,0.2,4.7-0.3,7
	c-0.2,0.9-0.6,1.2-1.3,1.1c-0.6-0.1-1-0.6-0.9-1.5c0.1-1,0.3-2,0.4-3.1c0-1.1,0.1-2.2-0.1-3.2c-0.5-3.1-3-4.7-6-3.8
	c-1.5,0.5-3,1.2-4.4,2.1c-3,1.9-5.3,4.5-7.6,7.1c-6.7,7.8-12.1,16.3-17.2,25.2c-4.1,7.1-7.6,14.6-10.4,22.3
	c-1.4,3.9-2.4,7.8-3.1,11.8c-0.4,2.5-0.4,4.9,0.4,7.3c0.4,1.1,0.9,2.3,1.7,3.2c2,2.2,4.1,2.5,6.8,1.3c2.5-1.1,4.5-2.8,6.4-4.7
	c4.7-4.6,8.8-9.8,12.7-15.1c6.3-8.7,12.1-17.7,17.7-26.8C165.1,62,165.2,61.7,165.5,61.1"/>
<path class="st11" d="M303.6,78.1c-1.1,0-2.1-0.1-3,0c-0.3,0-0.7,0.5-0.9,0.8c-1.1,1.8-2.7,3.1-4.5,4.2c-0.2,0.1-0.4,0.2-0.7,0.3
	c-2.2,0.9-3.9-0.3-3.7-2.7c0-0.7,0.2-1.3,0.3-2.2c-0.6,0.1-1,0.2-1.4,0.3c-2.5,0.8-4.9,1.7-7.5,2.3c-1.8,0.4-3.7,0.7-5.5,0.7
	c-2.2,0-3.4-1-4-2.9c-0.1-0.2-0.1-0.5-0.3-0.9c-0.5,0.1-1,0.2-1.6,0.3c-2.8,0.5-5.5,1.1-8.3,1.6c-0.6,0.1-1.3,0.2-1.9,0.2
	c-1.6,0.1-3.1-0.2-4.4-1.6c-0.4,0.2-0.9,0.4-1.3,0.6c-1.2,0.5-2.4,1-3.6,1.3c-2.3,0.6-4.1-0.3-5.2-2.3c-0.7-1.2-1-1.3-2.1-0.4
	c-1.2,1-2.3,2.2-3.5,3.2c-1,0.8-1.9,1.7-3,2.4c-1.7,1-2.4,0.7-3.4-1.1c0-0.1-0.1-0.1-0.4-0.3c-1.4,3.5-3.3,6.8-3.5,10.7
	c-0.1,1.2-0.4,1.7-1.2,1.7c-0.7-0.1-1.1-0.6-1-1.8c0.1-1.1,0.2-2.2,0.5-3.2c0.6-1.8,1.3-3.6,2-5.4c0.9-2.4,1.8-4.8,2.7-7.2
	c0.2-0.5,0.3-1.1,0.3-1.6c0.1-1.2-0.3-2.2-1.3-3c-0.9-0.7-1.9-1.3-2.7-2c-2.1-1.7-2.6-4.1-1.2-6.3c0.4-0.6,1-1.1,1.6-1.5
	c1-0.7,2.1-0.6,3.1,0c1,0.6,1.3,1.6,1.1,2.7c-0.3,1.1-0.7,2.2-1.2,3.3c-0.1,0.4-0.3,0.7-0.6,1.2c0.4,0.3,0.9,0.7,1.3,1
	c1.8,1.2,2.5,2.9,2.1,5c-0.2,1.2-0.5,2.3-0.5,3.5c0.3-0.4,0.6-0.8,0.9-1.3c1.4-2,2.8-4,4.3-6c0.6-0.7,1.4-1.4,2.3-1.8
	c1.1-0.5,2.1-0.1,2.5,0.9c0.3,0.7,0.2,1.5-0.3,1.9c-0.6,0.5-1.1,0.3-1.6-0.1c-0.1-0.1-0.3-0.1-0.6-0.3c-2.3,2.4-4.1,5.1-5.6,8
	c0.1,0.1,0.2,0.2,0.3,0.3c0.5-0.5,1.1-0.9,1.6-1.4c1.1-1,2.2-2.1,3.4-3.1c0.4-0.4,0.9-0.6,1.4-0.9c1.7-0.9,3-0.6,3.8,1.1
	c0.8,1.7,2.1,2,3.8,1.7c1.6-0.3,3-1,4.2-2c0.4-0.3,0.6-0.8,0.8-1.2c0.6-1.2,1.4-2.2,2.6-2.9c0.5-0.3,1.1-0.5,1.6-0.5
	c0.8,0,1.4,0.8,1.4,1.5c0,0.7-0.4,1-1.3,1.1c-1.2,0.1-2.5,1.4-2.6,2.6c0,0.6,0.2,1,0.8,1.1c0.7,0.1,1.4,0.2,2,0.1
	c3.7-0.6,7.3-1.4,11-2.1c0.7-0.1,1-0.5,1.2-1.1c0.4-1,0.8-2,1.3-3c0.1-0.3,0.3-0.6,0.5-0.9c0.3-0.4,0.8-0.6,1.3-0.3
	c0.5,0.3,0.7,0.7,0.5,1.3c-0.2,0.5-0.5,1-0.7,1.5c-0.5,1.3-1.1,2.7-1.4,4c-0.3,1.5,0.2,2.1,1.7,2.3c0.7,0.1,1.4,0,2.1,0
	c3.7-0.5,7.2-1.7,10.7-2.9c2.3-0.8,3.9-2,5-4.1c0.2-0.4,0.5-0.7,0.8-1.1c0.4-0.5,0.9-0.6,1.4-0.3c0.5,0.3,0.6,0.8,0.3,1.4
	c-0.2,0.3-0.3,0.6-0.6,1.1c0.6,0.1,1.2,0.2,1.6,0.4c0.7,0.3,1.4,0.6,1.9,1c0.4,0.4,0.9,0.6,1.4,0.6c0.1,0,0.3,0,0.4,0
	c2.9,0,2.9,0,4.1-2.5c0.2-0.5,0.5-1,0.7-1.4c0.3-0.5,0.7-0.8,1.4-0.5c0.5,0.2,0.8,0.8,0.5,1.5c-0.1,0.4-0.3,0.7-0.5,1.1
	c-0.7,1.7-1.4,3.3-2.1,5c-0.2,0.4-0.3,0.9-0.4,1.5c0.8,0,1.1-0.6,1.5-0.9c1.8-1.7,3.5-3.5,5.3-5.1c1-0.9,2.1-1.8,3.2-2.5
	c2.5-1.5,4.3-0.9,5.5,1.7c0.4,0.9,0.7,1.8,1.1,2.7c0.9,2.1,2.4,3,4.7,2.7c1.9-0.2,3.4-1.1,5-2.1c0.4-0.2,0.7-0.5,1.1-0.8
	c0.5-0.3,0.9-0.3,1.3,0.2c0.4,0.4,0.4,0.9,0,1.4c-0.2,0.3-0.5,0.5-0.8,0.7c-1.6,0.9-3.1,1.9-4.8,2.5c-3.9,1.4-7.2-0.2-8.7-4
	c-0.3-0.7-0.6-1.5-0.9-2.2c-0.7-1.5-1.4-1.7-2.8-0.7c-0.9,0.6-1.7,1.3-2.5,2.1c-1.7,1.7-3.4,3.4-5.2,5c-0.9,0.9-2,1.6-3,2.4
	c-0.6,0.4-1.4,0.7-2.1,0.1c-0.7-0.5-0.9-1.3-0.7-2.1c0.1-0.7,0.3-1.3,0.5-2C303.4,79.1,303.5,78.7,303.6,78.1 M294.7,76.7
	c-1.3,1.9-1.8,3.7-1.3,4.9c1.8-0.8,3.3-1.9,4.3-3.7C296.6,77.5,295.7,77.1,294.7,76.7z M230.6,68.1c1.3-1.2,1.6-2.4,1.1-3.6
	C230,65.1,229.6,66.4,230.6,68.1z"/>
<path class="st11" d="M212.2,78.7c-0.5,0.3-1,0.6-1.5,0.8c-1.5,0.6-3,1.4-4.5,1.7c-3.1,0.6-5.7-0.9-7.1-3.8c-0.4-1-0.8-2-1.3-3
	c-0.6-1.2-1.3-1.4-2.4-0.6c-1,0.7-1.9,1.4-2.8,2.2c-1.8,1.7-3.5,3.5-5.3,5.1c-0.9,0.8-1.9,1.6-2.9,2.3c-0.6,0.4-1.4,0.7-2.1,0.2
	c-0.7-0.5-0.9-1.3-0.8-2.1c0.1-0.6,0.3-1.1,0.4-1.7c0.1-0.4,0.2-0.7,0.3-1.3c-0.6,0.1-1.1,0.2-1.6,0.2c-2.4,0.4-4.7,0.9-7.1,1.3
	c-1.2,0.2-2.5,0.2-3.7,0.1c-2.9-0.3-4-2.5-2.6-5c0.6-1.1,1.5-2,2.5-2.9c0.9-0.8,1.9-0.8,2.5-0.2c0.7,0.6,0.8,1.6,0,2.7
	c-0.5,0.7-1.2,1.3-1.8,2c-0.3,0.3-0.6,0.6-1,0.9c0.4,0.5,0.9,0.5,1.4,0.5c1.2-0.1,2.5-0.2,3.7-0.4c2.6-0.5,5.1-1.1,7.6-1.6
	c1-0.2,1.6-0.7,1.9-1.6c0.2-0.6,0.5-1.2,0.8-1.7c0.6-1.3,1.1-1.6,1.8-1.3c0.8,0.3,0.8,1,0.2,2.3c-0.8,1.7-1.5,3.5-2.3,5.3
	c-0.2,0.4-0.3,0.9-0.5,1.5c0.8,0,1.1-0.6,1.5-0.9c1.8-1.7,3.5-3.4,5.3-5.1c0.8-0.8,1.7-1.5,2.6-2.1c0.6-0.4,1.2-0.7,1.8-0.9
	c1.6-0.5,2.8-0.1,3.7,1.3c0.4,0.6,0.7,1.2,1,1.8c0.3,0.7,0.6,1.5,0.9,2.2c0.8,1.6,2.1,2.6,3.9,2.4c3.1-0.3,5.7-1.5,7.6-4.2
	c0.6-0.9,1.4-1.8,2.2-2.5c1-0.9,2-1,2.7-0.4c0.8,0.7,0.8,1.7,0,2.8c-0.5,0.7-1.2,1.4-1.9,2c-0.3,0.3-0.6,0.4-1.1,0.7
	c1.2,0.7,2.1,0.6,2.9,0.4c3.5-0.6,6.9-1.3,10.4-2c0.3-0.1,0.6-0.2,0.9-0.2c0.8-0.1,1.4,0.2,1.5,0.8c0.1,0.7-0.3,1.1-0.9,1.3
	c-0.3,0.1-0.6,0.2-0.9,0.2c-3.3,0.7-6.5,1.3-9.8,2c-0.1,0-0.2,0-0.3,0C216.2,80.4,214,80.5,212.2,78.7"/>
<path class="st11" d="M277.9,67.4c-0.9,0-1.7-0.7-1.7-1.6c-0.1-1.1,1-2.3,2.1-2.3c1,0,1.8,0.8,1.9,1.7
	C280.2,66.3,279.1,67.4,277.9,67.4"/>
<path class="st11" d="M302.8,69.2c-0.1-0.4-0.2-0.7-0.2-1c0.2-0.1,0.3-0.2,0.4-0.3c0.8-0.2,1.7-0.5,2.5-0.7c0.7-0.2,0.7-0.1,1,0.9
	C305.3,68.5,304.2,68.8,302.8,69.2"/>
<path class="st12" d="M258.5,105.2l-2.5,5.2h4.8L258.5,105.2z M258.5,100.1l6.6,13.2h-13.4L258.5,100.1z M249.6,117.3l1.7-3.2h14.2
	l1.7,3.2h1l-9.6-18.8h-0.1l-9.8,18.8H249.6z M258.4,93h0.4l14.1,26.9l-0.2,0.3h-7.3l-1.6-3.3h-10.6l-1.6,3.3h-7.1l-0.2-0.3L258.4,93
	z M217.9,117.3v-16.6l10.7,9.1h0.2l10.7-9.1v16.6h0.9V99.1l-0.1-0.1l-11.5,9.8L217.2,99l-0.1,0.1v18.2H217.9z M220.9,120.2h-6.7V93
	h0.4l14.2,12.1L243,93h0.4v27.2h-6.7v-13.1l-7.7,6.5h-0.4l-7.7-6.5V120.2z M196,117.3h11.2v-0.8h-10.4v-8.6h8.6V107h-8.6v-9.7h10.4
	v-0.8H196V117.3z M210.1,113.6v6.6H193V93.5h17.1v6.6h-10.3v4h8.5v6.6h-8.5v2.9H210.1z M177.8,99.8h-2.9v6.8h2.3
	c3,0,4.5-1.2,4.5-3.5C181.8,100.9,180.5,99.8,177.8,99.8z M177.9,97.3c2.1,0,3.9,0.5,5.1,1.5c1.3,1,1.9,2.4,1.9,4.2
	c0,1.9-0.6,3.4-1.8,4.6c-1.2,1.2-2.8,1.8-4.8,1.8H172V97.3H177.9z M178.3,110.2c0.7,0,1.3-0.1,2.1-0.2l4.1,7.3h1l-4.2-7.5
	c1.4-0.5,2.6-1.4,3.4-2.6c0.8-1.2,1.2-2.6,1.2-4.2c0-2.1-0.7-3.7-2.2-4.9c-1.4-1.1-3.4-1.7-5.8-1.7h-6.7v20.9h0.9v-7.1H178.3z
	 M174.9,120.2h-6.7V93.5h11.1c2.7,0,4.9,0.8,6.8,2.4c1.9,1.6,2.9,4,2.9,7.1c0,3.6-1.3,6.3-4,8.1l5,8.8l-0.1,0.3H183l-4.1-7.3h-3.9
	V120.2z"/>
<path class="st11" d="M381,117.3h11.2v-0.8h-10.4v-8.6h8.6V107h-8.6v-9.7h10.4v-0.8H381V117.3z M395.1,113.6v6.6H378V93.5h17.1v6.6
	h-10.3v4h8.5v6.6h-8.5v2.9H395.1z M364,117.3v-20h8.3v-0.8h-17.4v0.8h8.3v20H364z M366.9,120.2h-6.7v-20H352v-6.7h23.2v6.7h-8.2
	V120.2z M328.2,117.3v-16.7l17.7,14l0.2-0.1V96.4h-0.9V113l-17.8-14l-0.1,0.1v18.3H328.2z M331.2,120.2h-6.7V93h0.4l17.5,14.2V93.5
	h6.7v27.2h-0.4l-17.5-14.4V120.2z M306.3,117.3h11.2v-0.8h-10.4v-8.6h8.6V107h-8.6v-9.7h10.4v-0.8h-11.2V117.3z M320.4,113.6v6.6
	h-17.1V93.5h17.1v6.6h-10.3v4h8.5v6.6h-8.5v2.9H320.4z M277.6,117.3v-16.7l17.7,14l0.2-0.1V96.4h-0.9V113l-17.8-14l-0.1,0.1v18.3
	H277.6z M280.5,120.2h-6.7V93h0.4l17.5,14.2V93.5h6.7v27.2H298l-17.5-14.4V120.2z"/>
<path class="st13" d="M234.3,277.4c-0.7,1.6-0.9,2.8-1.8,4.4c-0.9,1.5-6.7,7-8,11l0,0.5c-1,0.9-1.4,2.7-1.8,4.2
	c-0.2,0.8-0.3,1.8-0.3,2.7c0,1.8,0.6,1.1,0.6,2.5c-0.1,1.4,1.1,3,1.8,4.1c0.9,1.5,1.9,2.1,3,3.2c4.9,1.6,8.3,2.7,14.3,2.8
	c2.3,0,15.5,0.8,16.3,0c0-0.8-0.4-0.7-1.3-0.9c-0.8-0.2-1.3-0.3-2-0.5c-4.8-1.6-11.1-6.1-14.1-9.9l-2.6-4.4
	c-0.3-0.8-0.3-1.2-1.1-1.4c-0.8,1.4,0.6,3.8-0.9,5.4c-2.2-0.3-2.9-3.9-2.7-6.5c0.5-5,5-11.1,3.2-21.8c-0.2-1-0.2-1.3-0.8-1.8
	c-1.3,0.4-1.2,4.4-1.6,6L234.3,277.4z"/>
<path class="st13" d="M252.5,225c-0.8,1.4-1.2,1.2-1.1,3.5l1.1,13.1c0.2,2.1,0.8,16.2,1.9,16.8c1.3,0.8,2.8,0.2,3-1.2l1.1-13
	c0.2-2.9,0.5-5.8,0.7-8.6l0.5-6.4c0-0.9-0.3-1.7-0.2-2.4c-0.1-1.7-0.6-0.7-1.8-3c-0.4-0.7-1.2-2.7-1.9-3c-0.5,0.7-0.2,2.2-0.2,3.1
	C254.1,224.4,253.7,224.3,252.5,225"/>
<path class="st13" d="M233.8,315.7c7,2.1,4.5,1.6,11.9,2.6c0.8,0.1,2.3,0.4,2.9,0.7c2.3,1.4-0.8,2.1,8.3,2.2c2.7,0,4,0.2,5.4-1.6
	c1.3-1.6,7.6-1.5,11.6-2.5c1.6-0.4,4.3-0.8,4.6-2.4c-1-1.1-3.6-0.4-5.2-0.3c-2,0.2-3.8,0.4-5.7,0.5c-9.3,0.5-14.3,0.6-23.7,0
	c-3.8-0.3-7.5-0.9-11.4-0.8c-0.2,0.4-0.2,0.4-0.2,1L233.8,315.7z"/>
<path class="st13" d="M223.4,361c-0.5,0.3-0.5,0.3-1.6,0.3l-8-0.2c-0.6,0-1-0.1-1.6-0.2c-3.5-0.5,0.9,3.4,1.7,4.2l4.3,1.8l-1,4.6
	c-0.1,2,0.2,3.1,0.9,4.6c0.4,0.8,1.5,2.8,2.5,3c0.3-1,0-3.6,0.8-4.7c-0.1-0.8-0.1-0.8,0.3-1.4c3.3,10.5,9.1,13.1,19.2,15.7
	c5.7,1.4,10,2.3,13.6,7.2c0.7-0.1,0.4,0.2,0.5-0.4l0.1-0.7c-2.4-1-8.6-13-12.6-14.9c0.1,1.3,0.4,1.9,0,3.2c-2.6,0.8-5.1-3.6-5.8-6
	c-0.2-0.9-0.3-2.5-0.7-3.3c-0.7,2-0.2,4.2-1.4,5.4c-1.6,0-2.6-1.8-3.4-3.2c-1-1.8-1.1-3-1.3-5.3c-1.3,0.7-0.8,2-2.2,2.2
	c-0.7-1.4,1.1-5.1,2.9-6.7c0.6-0.6,1.4-0.9,1.7-1.7c-1.6-0.4-3.7,0.1-5.4-0.3c0-1.2,2-2.3,3.6-3.6c1.1-0.9,3-2.6,4.1-3.2l-0.6-0.1
	c-0.8,0.1-3.4,1.8-4.8,2.3C227.8,360.2,225,361.4,223.4,361"/>
<path class="st13" d="M224.2,423c3.3,6.5,6.5,10.2,11.8,14c4.8,3.4,11.3,6.4,18.4,7.5c-0.4-0.7-1.4-0.8-2.3-1.1
	c-5.8-2.1-10.6-4.6-15.7-8.3c-6-4.3-8.3-9.7-7.4-19.6l0.2-0.9l-0.4-0.7c0-0.1-0.2-0.6-0.2-0.7l-1.6-3.6c-1.5-3-2.7-7.1-3.5-10.4
	c-0.3-1.2-0.6-4.9-1.4-5.5c-1.4,1.5-1.3,14-1.2,15.4C221.5,416.6,222.3,417.1,224.2,423"/>
<path class="st13" d="M218.2,428.8l0.4,0c-2.3-2.5-5.5-10.8-6.6-15.1c-1-4.4-0.5-10,0.9-14.3c0.2-0.5,0.7-1.6,0.8-2
	c0.2-0.9-0.2-1.3,0-2.5c0-1.5-2.9-8.7-3.6-10.7c-1.3-3.8-1.9-6.9-2.9-9.7c-0.3-0.9-0.1-0.7-0.7-1.1c-1,0.7-0.6,6.4-0.6,7.7
	c0.4,15.4-1.1,23.6,5.4,37.4C212.6,421.2,216.5,428,218.2,428.8"/>
<path class="st13" d="M212.3,316.4c-1.8,0.7-6.1,5.3-7.6,7.3c-11.8,16.2,1.4,31,3.7,31.5c0.4-0.8-0.3-2.4-0.5-3.7
	c0-0.2-0.1-0.7-0.1-0.8c0.1-0.6,0-0.4,0.3-0.8c3.1,6.9,13.4,8.3,15.5,7c-0.1-0.1-4.5-1.6-5.2-2c-1.9-0.9-3.2-1.9-4.6-3
	c-1.7-1.4-5.4-6-5.5-9.7c-0.1-0.5-2.9-5.8-1.4-7.4c1-1,2.4,1.8,4.3,2.5c0-4-1.4-7.4-0.8-11.6c0.3-2.4,1-5.5,1.9-7.7
	c0.3-0.8,0.8-1.4,1-2.2c-0.4,0.1-0.3,0.1-0.5,0.2L212.3,316.4z"/>
<path class="st13" d="M191.5,245.6c-3.6,13.3-2.1,22.1,0.1,34.8c-5.2-2-10.3-15.9-11.7-16.3c-8.1,6.6,8.3,51.7,17.8,51.3l0.1,0
	c-1.6-2.4-1.9-2.1-3.5-5.7c-1-2.2-1.9-4.4-2.9-6.7c-2.2-5-3.3-9.2-4.3-15.1c1.3,0.3,1.3,0.7,2.2,1.4c1.8,1.3,5.4,3.1,7.6,3
	c-0.3-1.9-1.1-4.7-1.6-6.9c-1.4-6.9-2.5-17.3-1.7-24.2c1.1-8.9,6.9-16.4,13.7-21.4c-1.9,0.1-5.1,2.9-6.5,1.3c-1-1.2,1.3-3.7,1.9-4.7
	L212,224c-1.6,0.2-3,1.7-4.9,2.1c0.7-2.6,7.6-8.1,8-9.8C206.9,216.9,193.7,237.3,191.5,245.6"/>
<path class="st13" d="M155.4,263.5c-2.9,4.7-17.8,37.4-14.7,40.8c1.6,1.3,5.7-6.9,8-7.6c-2.7,13.7-4.3,29.7-2.6,43.7
	c1.5,5.1,20.6,48.1,24.1,47.9c1.4-1.6-0.5-8.7-0.4-11.1c8.9,0.8,24.7,39.6,26.6,39.6c0.7-1,0.4-2.2,0.4-3.5c-1.3-1.9-0.3-4.8-2-8.6
	c-0.4-1-0.6-1.6-0.9-2.6c-0.2-0.7-0.6-1.8-0.9-2.5c-1.2-3.1-2.9-6.5-4.3-9.6c-0.8-1.4-1.8-3-2.3-4.5c-1.1-3.5-15.4-17.3-19.4-25.9
	c-1.5-3.1-2.6-6.7-3.5-10.4c-0.6-2.4-1.6-9.6-2.8-11c-0.5,1.9-0.4,7-0.5,9.5c-0.1,1.2,0,2-0.9,2.6c-1-0.3-1-0.8-1.4-3
	c-1.7-8.6-1.8-21.2-1.2-29.7c0.4-5.4,1.2-10.7,2.3-15.7c0.8-3.8,2.9-11.6,2.9-15.3c-1.8,0.6-9.1,7.6-11.1,5.7
	c-2.4-6.2,24.5-42.7,30.8-50.8c3.1-5,15.7-24.9,14.7-27.9c-1,0.1-2.7,2.5-3.3,3.3C181.2,231,164.9,247.9,155.4,263.5"/>
<path class="st13" d="M137.2,242.4c1.6,3.7,10.4,19.7,14.1,14.9c0.5-0.7,1.7-2.2,1.8-2.8l0.2-1c-1-0.8-2.2-2-3-2.7
	c-6.6-6.3-4.5-9.6-5.9-11.9c-0.1,0.6-0.3,1.3-0.4,2c-0.1,1,0.1,1.9-0.6,2.5c-1.1-0.5-1.3-6.3-1.5-8c-0.3-3-0.5-6-0.5-9.2
	c0-5.4,0.6-12.3,2.1-16.9c0.8-2.4,1.7-4.5,2.3-7.1c0.5-2.3,1-5.8,3.3-6.2c3.6-0.7,8,1,11.8,2.1c1.3,0.4,2.8,0.5,3.3,1.5
	c-0.4,0.7-0.7,0.7-1.7,0.8c-2.6,0.4-4,0.3-6.9,1.1c2.5,0.9,6,1.5,8.6,2.1c3,0.7,5.8,1.5,8.7,2.3c9.9,2.7,11.6,5.2,15.5,6.6
	c0.8-0.2,0.4-0.7,0.1-1.2c-2.9-5.1-19.8-15.1-24.2-16.3c-1.5-0.4-20.3-5.5-20.4-5.6C139.3,196.6,134.6,236.3,137.2,242.4"/>
<path class="st13" d="M219.5,176.7c-0.3,1.8-1.5,7.1-2.4,8.5c-1.4,0-17.2-8.6-26.5-8c0.1,3,5.5,17.2,4.1,19.6
	c-2.4,0-22-34.3-21.9-34.8c2.5-3.5,28.6,8,34.6,9.3c11.9-14.9,21.6-33.2,44-44.6c2.2-1.1,3.6-0.6,1.1,2.1
	C237.9,144.4,225.6,154.7,219.5,176.7"/>
<path class="st14" d="M234.1,357.3l0.6,0.1c-1.1,0.7-3,2.3-4.1,3.2c-1.6,1.3-3.6,2.4-3.6,3.6c1.7,0.4,3.8-0.1,5.4,0.3
	c-0.2,0.8-1,1.1-1.7,1.7c-1.7,1.6-3.6,5.3-2.9,6.7c1.4-0.2,0.9-1.5,2.2-2.2c0.1,2.3,0.3,3.5,1.3,5.3c0.7,1.4,1.8,3.2,3.4,3.2
	c1.2-1.2,0.7-3.4,1.4-5.4c0.4,0.8,0.5,2.4,0.7,3.3c0.7,2.4,3.1,6.7,5.8,6c0.4-1.3,0.1-1.9,0-3.2c3.9,2,10.2,14,12.6,14.9l-0.1,0.7
	c1.2-0.9,1.7-0.8,2.4-2.3c0.9-2.1,0.1-2.7,1-3.8c-0.1-3.4,0.4-4.5-0.7-7.9c-1.2-4.1,0.4-10.4-2-8.2c-0.1,0.1-0.5,0.7-0.7,0.9
	c-0.5,0.8-0.8,1.3-1.3,1.8c0.1-4.5,3.6-10.4,4.7-13.4c1.5-4,0.4-12.6-1.7-15.6c-1.7-2.4-3.7-1.9-6.3-0.6c-2.7,1.3-8.7,5.3-11.2,7.1
	c-1.1,0.8-3.5,2.9-4.5,3.4l-0.7,0.3C234.2,357.1,234.1,357.3,234.1,357.3 M235.6,365.6c0-5.1,3.1-6.6,6.7-8.4c5.9-3,6.7-6.7,8.6-6.4
	c0.1,3.3-5,7.9-6.9,9.2c-3.1,2.1-4.3,3-6,6.3c-0.5,0.9-0.6,2-1.6,2.2C235.5,367.9,235.6,367,235.6,365.6z M241.9,370.2
	c0-3.9,3.6-7.7,6.2-10.8c6.2-7.5,3.9-7.2,5.7-10.8c1.2,0.2,1.3,1.1,1.6,2.3c1.9,7.9-4.4,15-5.9,19.5c-0.7,2.2-0.5,4.6-1.1,6.4
	c-2.7,0.2-2.4-5.7-2.4-7.7c-1.1,1.2-1.8,4.5-2.9,5.2c-0.7-0.3-0.7-0.6-1-1.6L241.9,370.2z M252.6,385.7c0-1.8,0.6-5.1,2.7-5
	c0.8,1.5,0.5,3.7,0.5,5.7c0,1.9,0.6,4.1-0.3,5.4C253.2,391.7,252.6,387.9,252.6,385.7z"/>
<path class="st14" d="M229.2,415.6c-0.9,9.9,1.4,15.3,7.4,19.6c5.1,3.7,9.9,6.1,15.7,8.3c0.9,0.3,1.9,0.4,2.3,1.1l0.7-0.6
	c-0.3-0.9-1.3-1-2-1.4c-10.5-6-15.1-18-13.3-30c0.3-2,0.8-3.9,0.8-6c-1.6,0.1-2.4,2-3.1,3.2c-3.8,6.4-2.5,9.5-2.4,15.4
	C232.6,423.3,230.7,416.5,229.2,415.6"/>
<path class="st14" d="M218.2,428.8c0.3,0.4-0.4,0.3,0.6,0.4c1-1.5,0.9-1.2,0.3-3.9c-1.8-9.2-2.6-18-4.2-26.4c-0.2-1.1-0.3-1-0.7-1.8
	c-0.4-0.9-0.2-1.7-0.6-2.2c-0.3,1.2,0.2,1.6,0,2.5c-0.1,0.4-0.6,1.5-0.8,2c-1.4,4.3-1.9,9.9-0.9,14.3c1,4.4,4.2,12.6,6.6,15.1
	L218.2,428.8z"/>
<path class="st14" d="M212,224l-9.3,12.5c-0.7,1-2.9,3.5-1.9,4.7c1.4,1.6,4.6-1.2,6.5-1.3c-6.8,5-12.6,12.4-13.7,21.4
	c-0.9,6.9,0.3,17.3,1.7,24.2c0.4,2.2,1.3,5,1.6,6.9c-2.2,0.1-5.8-1.7-7.6-3c-0.9-0.7-1-1.1-2.2-1.4c0.9,5.9,2.1,10,4.3,15.1
	c0.9,2.2,1.9,4.5,2.9,6.7c1.7,3.7,2,3.3,3.5,5.7l-0.1,0l1.5,0.8c0.7,0.3,0.8,0.4,1.5,0.5c3.9,0.5,11.2-0.7,11.7-0.3l0.6-0.3
	c0.2-0.1,0-0.1,0.5-0.2c-0.2,0.8-0.6,1.4-1,2.2c-0.9,2.2-1.6,5.3-1.9,7.7c-0.5,4.2,0.8,7.6,0.8,11.6c-1.9-0.7-3.3-3.5-4.3-2.5
	c-1.6,1.6,1.3,6.9,1.4,7.4c1.9,0.1,0,1.2,5.9,2.2c4.4,0.8,9.7,0.5,13.3-2.2c1.4-1,3.3-2.8,4.1-4c-1.6,0.1-3.9,0.8-5.7,1
	c-1.8,0.2-5.1,0.7-6.5,0.1c0.3-1.8,4.4-0.7,9.7-4.7c6.5-4.9-1.8-7-6-18.4c-2-5.5-1.3-5.9-1.3-11.1c0-0.1,0-0.9,0.1-0.9l0.3-0.8
	l0.2-1.3l0.6,0.5c0.1-1.4-0.6-0.7-0.6-2.5c0-0.9,0.1-1.9,0.3-2.7c0.3-1.5,0.8-3.3,1.8-4.2c-0.8-0.5-0.6,0.8-0.7-0.6
	c0.3,0.1-0.2,0.5-1.1,0.4c-0.1-1.5,1.5-5.3,1.8-7.5c1-7.9-4.6-7.1-6.4-7.4c-0.9-0.2-0.9-0.4-1.8-0.5c-0.7-0.1-1.5,0-2.3-0.1
	c-1.7-0.2-5.7-1.4-5.7-3.4l9.3,0.2c-0.8-0.3-2.8-0.5-3.7-0.7c-3.3-0.7-7.2-2-9.9-3.8c-3.5-2.4-6.2-7.7-4.5-10.8
	c0.8-1.5-0.1,0.4,0.2-1.4c0.7-0.4,2.3-1.3,2.7-1.5c-1-0.1-1,0.1-1.7-0.4c0.7-2,7.1-4.5,9.6-5.1c7.9-1.8,15.7,2.3,20.7,7.2
	c1.3,1.3,5.4,6.9,4.9,9.7c-1.9-0.5-2.7-2.7-4.5-3c-0.7,0.2-0.3-0.3-0.5,0.6c-0.2,0.7,0.2,2.3,0.3,2.9c0.7,2.5,3.2,8.7,3.1,9.4
	l0.2-0.4c0.4-1.6,0.3-5.6,1.6-6c0.6,0.5,0.6,0.9,0.8,1.8c1.8,10.7-2.7,16.8-3.2,21.8c-0.3,2.6,0.5,6.2,2.7,6.5
	c1.5-1.6,0.1-4,0.9-5.4c0.8,0.3,0.7,0.7,1.1,1.4l2.6,4.4c2.9,3.8,9.3,8.3,14.1,9.9c0.7,0.2,1.2,0.4,2,0.5c1,0.2,1.3,0.1,1.3,0.9
	c8.1-0.4,14.3-0.4,22.3-2.5c3.8-1,5.3-2.5,6.7-5.6c1.5-3.1,1.4-6.9,0.2-10.3l-4.1-7.1c-0.4-1.3-4.1-4.6-5.3-6.7
	c-2.3-4.3-1.5-8.1-2.3-9.7c-1.1,0.1-1.1,0.7-1.4,1.8c-2.4,15,5.1,16.7,3.3,24c-0.5,2.2-2.1,5.2-3.8,5.6l0.4-5.7
	c-1.9,0.4-4.3,7.5-9.6,7.9c-5.4,0.4-10.8-1.2-12.4-5c-1.9-4.5-0.5-10.8,1.4-14.5c2.5-4.8,7.3-8.8,6.8-10.6c-1.1-0.3-2.8,0.9-3.9,1.4
	c-1.3,0.6-2.4,1.6-3.3,1.9c0-1.3,0.9-4.5,1.7-5.1c0-0.6,1.5-5,1.9-5.6c0.6-3,1.9-6.1,2.7-9.4c1.7-6.9,2.6-14,2-21.1
	c-0.1-1.3-1.7-9.3-2.1-9.7c-0.1,0.7,0.2,1.5,0.2,2.4l-0.5,6.4c-0.2,2.9-0.5,5.8-0.7,8.6l-1.1,13c-0.2,1.3-1.6,2-3,1.2
	c-1.1-0.7-1.7-14.7-1.9-16.8l-1.1-13.1c-0.1-2.2,0.3-2.1,1.1-3.5c-1.5-0.6-3-2.7-9.6-4.3c-7-1.7-10.4-0.7-12.8-1.2l-9.6,1.8
	C219.4,221.5,212.9,223.1,212,224"/>
<path class="st14" d="M196.7,413.2c0-1.2,0.2-3,0.3-4.4c-0.6-0.7-0.1-2.1-0.5-3.9c-0.5-2.4-0.6-9.1-0.8-12
	c-0.3-5.1-0.7-10.8-1.5-15.6c-0.7-4-5.3-25.8-6.8-27.2c-0.2,2.9,0.5,11.8-0.5,13.4c-1.1-0.1-1.3-0.7-1.7-1.8
	c-1.3-3.8-2.1-9.8-2.5-13.9c-0.2-2-0.2-4.2-0.4-6.2c-0.5-0.4,0.1-0.2-0.7-0.1c-1.1,1.9-0.8,18.7-0.8,22.3l0.1,7.1l-0.4,0.2
	c-3.4-3.2-7.3-13.4-8.3-19.2c-0.7-4.2-0.9-8.5-0.9-12.9c0-6.5,0.6-8.3,0.8-13.1c-0.7,0.4-1,1-1.6,1.8c-1.2,1.7-3,4.7-4.9,4.6
	c-4.1-7,0-32.4,1.2-41.8c0.7-5.1,1.6-8,1.3-13.6c-1.8,0.6-2,2.4-3.5,2.4c-0.9,0-0.2,0-0.5-0.2c-1.8-2,6.2-13.4,7.3-15
	c1.5-2.3,5.5-7.7,7.4-9.7c1.8-2,1.4-1.9,3.4-2.5c0.6-0.2,0.8-0.6,1.3-1c0.5-0.5,0.9-0.7,0.8-1.6c-1.4,0.1-1.8,1.3-3,1.7l-0.8,0.9
	c-1.8,1.5-5.3,4.7-7.2,5.1c0.7-4.9,8.1-11.9,8.4-15.6l-9.1,11.6c-2.8,4-5.3,7.7-8.2,12.3c-1.9,3.1-14.9,23.3-13.5,26.8
	c2,1.9,9.3-5.1,11.1-5.7c0,3.7-2.1,11.4-2.9,15.3c-1.1,5-1.9,10.3-2.3,15.7c-0.6,8.5-0.5,21.1,1.2,29.7c0.4,2.2,0.4,2.7,1.4,3
	c0.9-0.6,0.8-1.4,0.9-2.6c0.1-2.5,0.1-7.6,0.5-9.5c1.3,1.4,2.3,8.5,2.8,11c0.9,3.7,2,7.2,3.5,10.4c4,8.6,18.3,22.5,19.4,25.9
	c0.5,1.5,1.5,3.2,2.3,4.5l4.2,9.4c0,0.1,0,0.1,0.1,0.2c0.3,0.7,0.7,1.9,0.9,2.5c0.3,0.9,0.5,1.6,0.9,2.6
	C196.4,408.4,195.4,411.4,196.7,413.2"/>
<path class="st14" d="M153.1,254.5c1.1-0.8,2.7-2.7,2.9-4c-1.2-0.6-0.8-0.2-1.7-1.1c-3-3.4-4.2-1.6-8.4-10.9
	c-4.5-9.8-4.5-31.3,7.7-30.9c5.5,0.2,13.6,5.5,16.1,5.7c-0.5-0.4-1.1-1.2-1.8-1.8c-3.5-2.9-6.9-3.4-7.2-4.5c1.8-1.1,16.1,4,19.4,5.5
	c3.1,1.4,3.2,2.1,5.1,3.3c1.1,0,1.1-0.7,1.9-1.4c1-0.8,1.1-0.5,1.5-2c-3.9-1.3-5.6-3.9-15.5-6.6c-2.9-0.8-5.7-1.5-8.7-2.3
	c-2.6-0.7-6.1-1.3-8.6-2.1c2.9-0.8,4.3-0.8,6.9-1.1c1-0.1,1.3-0.1,1.7-0.8c-0.5-1-2-1.1-3.3-1.5c-3.8-1-8.2-2.8-11.8-2.1
	c-2.4,0.5-2.8,3.9-3.3,6.2c-0.6,2.5-1.5,4.6-2.3,7.1c-1.5,4.6-2.1,11.5-2.1,16.9c0,3.2,0.2,6.1,0.5,9.2c0.2,1.8,0.3,7.5,1.5,8
	c0.7-0.6,0.4-1.5,0.6-2.5c0.1-0.7,0.3-1.4,0.4-2c1.4,2.3-0.7,5.6,5.9,11.9c0.8,0.8,1.9,2,3,2.7L153.1,254.5z"/>
<path class="st14" d="M199.2,199c-1,0.5-2.9,1.4-2.8,2.4c1.3,0.4,6.3-1.9,7.8-2.4c21-7.6,32.5-7,52.9-8.2c0.6-1.5-0.6-4.2-1.3-5.5
	C236.6,185.1,216.1,190.1,199.2,199"/>
<path class="st14" d="M210.2,210.4c4.1,0.7,30.5-6.6,43.3-5.1c-0.2-1.7,0.6-2.9,0.9-4.5C247.1,198.7,210.8,206.1,210.2,210.4"/>
<path class="st14" d="M213.2,200.4c0,1.4-1.3,2.4-2.8,2.1c-1.6-0.3-1.4-1.9-3-1.9c-0.8,2.5,1.4,5.5,3.7,5.6c2.6,0.2,5.1-1.8,5.1-4.5
	c0-1.5-1-2.8-1.7-3.4C212.4,196.7,213.2,199.4,213.2,200.4"/>
<path class="st14" d="M258.3,192.3c-0.5,2,0.3,3.3-1.9,3.8c-3.5,0.7-3.3-2.9-3.2-4.5c-0.8,1.4-2.2,2.2-1.5,4.8
	c0.9,3.5,6.3,4.6,8.1,0.4C260.5,195.2,260,192.2,258.3,192.3"/>
<path class="st15" d="M156,250.5l3.9-4.9c2.3-3.5-8.1-15.7-9.1-14.8c-1.1,1-0.3,4.4-0.4,6c-1.4-1.7-2.2-7.2-2.2-10
	c-0.1-4.5,1.9-10,1.1-10.7c-1-0.8-2.6,2.1-3.5,2.6c0.5-4.1,4.9-7.3,9.9-6.9c3,0.2,9.8,4.6,10.7,6.2c-2.6,0.2-6.8-1-8.8-0.2
	c-0.1,0.7,14.5,13.5,16.1,11.3c2-2.7,11.4-13.2,11.5-13.3c-1.9-1.3-1.9-1.9-5.1-3.3c-3.3-1.5-17.6-6.6-19.4-5.5
	c0.3,1.1,3.7,1.6,7.2,4.5c0.7,0.6,1.3,1.4,1.8,1.8c-2.5-0.2-10.6-5.5-16.1-5.7c-12.2-0.4-12.2,21.1-7.7,30.9
	c4.3,9.3,5.4,7.5,8.4,10.9C155.2,250.3,154.9,249.9,156,250.5"/>
<path class="st15" d="M181.6,341.6c0.8-0.1,0.2-0.2,0.7,0.1c0.2,2,0.2,4.2,0.4,6.2c0.4,4,1.2,10.1,2.5,13.9c0.4,1.2,0.5,1.7,1.7,1.8
	c1-1.6,0.3-10.5,0.5-13.4c1.5,1.4,6.1,23.2,6.8,27.2c0.8,4.8,1.2,10.5,1.5,15.6c0.2,2.9,0.3,9.6,0.8,12c0.4,1.8-0.1,3.2,0.5,3.9
	l-0.1-3.3c5.4-4.6,2.5-37.7,0.2-44c-3.1-8.8-7.8-20.5-8.7-29.6c-0.1-1.5-0.1-4.6-0.7-5.7c-1.4,0.1-3.4,4.7-3.9,6.1
	c-1.2,2.9-1.6,4.8-1.6,8.5l-0.5,0.6C181.8,341.4,181.7,341.5,181.6,341.6"/>
<path class="st15" d="M180.5,371.1c0.2-1.9-1-3.7-1.6-5.5c-7.4-20.6,3.9-42.8,1.3-62.8c-3.5-2.1-4.9,10.3-7.5,13.5
	c-0.5-9.5,0.3-28.4,1.3-37.5c0.8-11,5.5-17.4,8.2-27c-2,0.6-1.6,0.5-3.4,2.5c-1.9,2-5.8,7.4-7.4,9.7c-1,1.6-9.1,13-7.3,15
	c0.3,0.2-0.4,0.1,0.5,0.2c1.4,0,1.7-1.8,3.5-2.4c0.2,5.6-0.6,8.5-1.3,13.6c-1.3,9.5-5.4,34.9-1.2,41.8c1.9,0.1,3.6-2.9,4.9-4.6
	c0.6-0.8,0.9-1.4,1.6-1.8c-0.2,4.7-0.8,6.6-0.8,13.1c0,4.5,0.2,8.8,0.9,12.9C173.2,357.7,177.1,367.9,180.5,371.1"/>
<path class="st15" d="M224.5,293.3l0-0.5c-0.8-0.9,0.8-2.7,1.2-3.7c0.6-1.2,1.1-2.4,1.6-3.6c0.8-2.1,2.3-5.6,2.8-7.7
	c1.6-6.6-7.1-7.6-11-8.4c-0.3-0.1-0.3-0.1-0.5-0.1c0,0-0.1,0-0.2-0.1c0-0.1-0.1,0-0.2-0.1c-2.9,0.6-9.6-1.3-12-2.4
	c-1.8-0.9-2.8-2-3.8-3.5c-0.7-1-2.5-3.2-2.4-4.7c10.5-1.5,10.8-6.5,17.9-4c6.8,2.4,12.5,8.4,14.1,9.2c-0.1,0.1-0.1,0.1-0.2,0.2
	l-0.6,0.5c1.8,0.4,2.6,2.5,4.5,3c0.5-2.8-3.6-8.4-4.9-9.7c-5-5-12.8-9-20.7-7.2c-2.4,0.6-8.9,3.1-9.6,5.1c0.7,0.5,0.7,0.3,1.7,0.4
	c-0.4,0.2-2.1,1.2-2.7,1.5c-0.3,1.8,0.6-0.1-0.2,1.4c-1.7,3.1,1.1,8.4,4.5,10.8c2.6,1.8,6.5,3.1,9.9,3.8c1,0.2,2.9,0.4,3.7,0.7
	l-9.3-0.2c0,2,4,3.2,5.7,3.4c0.8,0.1,1.5,0,2.3,0.1c0.9,0.1,0.9,0.4,1.8,0.5c1.7,0.3,7.3-0.5,6.4,7.4c-0.3,2.2-1.9,6-1.8,7.5
	c0.9,0.1,1.4-0.4,1.1-0.4C223.9,294.1,223.7,292.8,224.5,293.3"/>
<path class="st15" d="M208.4,342.4c0.1,3.7,3.8,8.3,5.5,9.7c1.4,1.1,2.7,2.1,4.6,3c0.7,0.3,5.1,1.8,5.2,2c0.7-0.1,0.5-0.1,1.3,0
	c0.3,0,0.4,0.1,0.6,0.2c0,0,0.1,0.1,0.2,0.1c0,0,0.1,0.1,0.2,0.1c1.8-0.8,2.8,0,6.8-2.7c1.9-1.3,3.7-2.7,5.2-4.1
	c3.3-3.1,7.1-5.4,10.3-8.4c2.5-2.3,3.1-2.2,2.2-6.8c-1.9-9.4-12.4-11.7-14.4-13.2c-2.9-0.8-5.9-2.4-7.8-4c-1.1-0.9-1.9-1.8-2.8-3.2
	c-0.5-0.8-1.7-2.8-2-3.8c-0.3-0.6-1-1.5-1.1-2c-0.1-0.7,0-2.5,0-3.3l0.1-2.3l-0.3,0.8c0,0.1-0.1,0.8-0.1,0.9c0,5.2-0.7,5.6,1.3,11.1
	c4.1,11.4,12.5,13.6,6,18.4c-5.3,4-9.4,2.9-9.7,4.7c1.4,0.6,4.8,0.1,6.5-0.1c1.8-0.2,4.1-0.9,5.7-1c-0.7,1.2-2.7,3-4.1,4
	c-3.6,2.7-8.9,3-13.3,2.2C208.5,343.5,210.4,342.5,208.4,342.4"/>
<path class="st15" d="M283.4,287.2l4.1,7.1c0.1-0.7,0.1-0.1,0.2-0.5c0.8-1.6-0.6-2.5-1.3-6.9c-1.6-9.6,5.7-8.2,10-8.7
	c1.5-0.2,2.5-0.5,3.7-1.1c1.1-0.6,2.2-1,2.3-2.3c-1.4-0.4-7.8,0.8-9.6,0c0.9-0.2,2.5-0.3,3.6-0.5c3-0.6,7-1.9,9.5-3.4
	c2.9-1.7,7-6.2,5.4-11.3c-1.4,0.3-1.1,1.8-3.4,4.7c-1.2,1.5-2.2,2.6-4.3,3.5c-7.2,3.1-21.1,1.4-23.1,7.9c-0.7,2.3,1.8,7.9,2.8,10.4
	C283.8,287.3,283.6,287.1,283.4,287.2"/>
<path class="st15" d="M282.2,256.4l-0.8,1c-1.6,1.5-5.6,5.1-5.3,7.3l1,0.1c0.2-0.3,2.8-2.1,3.3-2.6c3.4-2.6,7.3-5.5,11.5-6.9
	c4.5-1.5,6.4-0.3,9.8,1.4c1.6,0.8,7,3.6,9,2.1c-0.2-0.7-0.4-0.7-1.2-1.1c-0.6-0.3-1-0.5-1.5-0.8l1.5-0.3c0-1.1-1.6-1.8-2.5-2.4
	c-6.2-3.7-12.4-4.6-19.1-1.3c-1.1,0.5-2.1,1.1-3,1.7l-2.1,1.5C282.3,256.4,282.7,256.2,282.2,256.4"/>
<path class="st15" d="M258.5,389.4c-0.9,1.1,0,1.7-1,3.8c-0.7,1.5-1.2,1.4-2.4,2.3c-0.1,0.7,0.2,0.3-0.5,0.4
	c1.1,1.3,1.5,0.2,3.9-2.2c6.3-6.3,17.9-4,25.3-11.2c4.2-4.2,4.7-8,5.4-9.2c0.8,1.7,0.8,3.8,0.9,5.9c1.1-0.1,1.6-1.1,2.2-2.1
	c2.9-5,0.5-7,0.5-10c1-0.9,7.5-2.6,7.2-6.1c-0.7-0.1-5.4,0.3-6.8,0.3c-2.4,0-4.7,0.1-6.9-0.3c-6.1-1.1-8.7-4.2-10.6-4
	c0,2.1,5.7,5.7,7.6,6.6l-2.8,0.5c-1,0-1.9,0-2.7,0.3c0.1,1.6,4.4,2.1,4.8,7.3c-1.3-0.8-0.8-1.9-2.4-2.2c-0.5,1.6-0.2,3.7-0.9,5.7
	c-0.4,1.1-1.6,3.5-2.8,3.6c-0.1-1.8-0.2-5.4-2-6.1c0.1-3.7,0.6-4.3-1.5-7.3c-3.5-5.2-7.6-8.4-9.3-13.5c-0.3-1.1-0.5-2.7-1.2-3.3
	c-1.6,0.5-2.1,5.6-1.6,7.5c1.3,5.5,3.7,8.8,5.7,13.1c1.1,2.3,1,6.5,1.7,7.7c2.7,0.1,2.1-5.9,2.1-8c1.3,2,2.3,4.8,2.9,5.3l0.8,0.5
	c-0.1,3.7-2.3,7-5,7.8c0-1,1-4.2-0.9-3.2c-1.2,0.6-4,3.9-4.8,4.8c-1.7,2.1-3.2,4.2-4.9,6.2L258.5,389.4z"/>
<path class="st15" d="M302.1,342.5c-1,0.8-0.9,1-2.5,1.6c-3.2,1.1-7.6,1.2-10.8,0.7c-3.8-0.6-8.5-4.1-9.5-6.5
	c2.7,0.3,9.5,2.4,12.2,1.3c0-0.9,0.3-0.6-0.8-1l-3.7-1c-1.6-0.6-3-1.4-4.3-2.1c-7.5-4.5,0.3-8.3,3.8-15.7c0.7-1.4,3.6-8.1,2.6-9.7
	c-1.4,0.2-1.7,3.9-5.4,7.6c-5.8,5.7-19,5.8-22.4,16.3c-0.3,1-1.1,4.7-0.6,5.8c0.3,0.8,2.5,2.6,3.2,3.2l14.3,11.7
	c3.2,2.2,4.8,3.1,9.4,2.4c2.4,1.2,7.7-0.3,9.7-1.3c3.3-1.6,3.8-2.8,5.8-5.7c0,0,0,0.1,0.1,0.1c0,0,0,0.1,0,0.1l-0.1,1
	c-0.1,0.5-0.2,0.8-0.3,1.3c-0.2,0.9-0.6,1.7-0.3,2.7c1.9,0,16.7-15.6,2.9-32.7c-1.1-1.4-6.3-7-8.4-7c-0.1,0.9,1.6,4,1.9,5
	c1.7,4.6,1.5,7.4,1,12c-0.1,1.2-1,4.9-0.7,5.6c1.2,0,3.2-2.4,4.5-3C303.9,337.1,302.8,341.1,302.1,342.5"/>
<path class="st15" d="M241.9,370.2l0.3,2.6c0.2,0.9,0.2,1.3,1,1.6c1.1-0.8,1.8-4.1,2.9-5.2c-0.1,2.1-0.4,7.9,2.4,7.7
	c0.6-1.8,0.4-4.3,1.1-6.4c1.5-4.5,7.9-11.7,5.9-19.5c-0.3-1.2-0.4-2.1-1.6-2.3c-1.8,3.6,0.4,3.3-5.7,10.8
	C245.5,362.5,241.9,366.3,241.9,370.2"/>
<path class="st15" d="M235.6,365.6c0,1.4-0.1,2.3,0.7,2.9c1-0.3,1.1-1.3,1.6-2.2c1.7-3.3,2.9-4.2,6-6.3c1.9-1.3,7.1-6,6.9-9.2
	c-1.9-0.2-2.6,3.5-8.6,6.4C238.7,359,235.6,360.5,235.6,365.6"/>
<path class="st15" d="M252.6,385.7c0,2.2,0.7,6,2.9,6.1c0.9-1.3,0.3-3.5,0.3-5.4c0-2,0.3-4.2-0.5-5.7
	C253.1,380.5,252.6,383.9,252.6,385.7"/>
<path class="st1" d="M218.3,269.3c2-0.3,5.1,0.2,6.6-0.8c5.7-3.8,2.5-4.8,0.2-6.2c-0.9-0.6-2.4-1.8-3.6-1.7
	c-1.1,1.6-1.5,3.9-3.7,4.3c-0.4-1.2-0.7-5.4-1.3-6c-0.6-0.6-5.6-0.4-6.4,0c-0.6,0.4-0.6,0.6-0.6,1.5c0.3,3.7,1.3,6.5,4.7,7.8
	c2,0.8,2.6,0.5,3.5,0.8C218.3,269.2,218.2,269.1,218.3,269.3 M214.8,266.8c-2.3,0.3-5-6-3.2-7.3c0.6-0.4,1.7-0.4,2.2,0
	c0.8,0.6,0.3,1.4,0.2,2.4C213.9,264,215.3,265.3,214.8,266.8z M221.5,267.9c0.1-1.4,0.9-0.9,1.8-1.9c0.7-0.7,0.8-1.6,1.6-2.2
	c0.7,0,1.6,0.4,1.9,1C227.3,266,224.1,269.2,221.5,267.9z"/>
<path class="st1" d="M283.1,264.4c0,1-0.1,0.9,0.7,1.9c2,2.6,3.8,2.9,6.8,2.9c6.5,0,10.1-1.4,11-7.4c0.5-3.1,0-3-2.8-3.1
	c-2-0.1-4.1-0.9-4.6,1.2c-0.4,1.7-0.3,3.3-0.8,5c-1-0.2-1.8-1.1-2.3-1.8c-0.7-0.9-0.7-1.7-1.4-2.5c-1.4-0.2-2.7,1.2-3.5,1.7
	C285.2,263,284,263.6,283.1,264.4 M298.5,259.3c3.9-0.7,0.7,6.1-0.7,7.2c-2.2,1.7-1.2-1.7-1-2.9
	C297.3,260.8,296.1,259.7,298.5,259.3z M290,267.6c-1.9,1.5-6.5-1.2-5.2-3.2c0.3-0.4,1.1-0.9,1.8-0.7c0.6,0.2,0.8,1,1.1,1.4
	C288.6,266.5,290,266.5,290,267.6z"/>
<path class="st1" d="M303.8,240.1l-0.5,0.2c0.9,0.8,1.1,0.7,1.8,1.6l4.3,3.9c4.7,4.8,7.4,9.6,7.8,17.3c0.3,5.6,0,10.9-0.5,16
	c-0.3,2.6-0.5,5-1.1,7.5c-0.3,1.4-1.5,5.7-1.4,6.8c1.9,0.3,4.2-1,5.5-1.7c1.6-0.8,2.9-2.1,4.2-2.7c0.1,2.7-3.6,12.2-4.6,14.7
	c-1.3,3.1-6.6,12.1-6.6,12.7c1.7,0.3,4.3-2.8,5.3-3.9c3.6-4,3.6-4.3,6.1-7.8c5.2-6.8,8.2-15.2,8.5-23.7c0.4-3.1,0.8-14.7-1.2-16.2
	c-1.2,0.3-3,5.8-5.1,9c-1.4,2.2-4.6,6.4-6.6,7.4c0.2-1.5,1-3.2,1.3-5c1.5-8.5,1-20-0.9-28.3c-0.7-3.2-3.1-9.1-3.1-9.3
	c5-0.8,7.9-2.5,8.5-2.7c0.8,1,1.6,2.5,2.3,3.6c3.8,6.2,2.7,4.2,7,10c7.4,9.8,14.7,20.5,20.3,31.7c1.4,2.9,4.7,9.4,5,12
	c-2.7-0.7-8.5-5.9-10.4-5.8c-0.5,2.3,2,11.9,2.6,14.9c0.9,5,1.8,10,2.3,15.2c0.5,5.4,0.9,11.5,0.5,16.9c-0.3,3.7-0.9,12.4-2.2,15.1
	c-0.3-2.6,0.5-9.8-1.4-11c-1.2,0.3-1.2,1.2-1.5,2.5c-0.2,0.9-0.3,2-0.5,3.1c-2.5,15.1-7.4,22.7-17.3,33.7
	c-4.5,5.1-8.1,10.3-11.5,17.7c-1.7,3.9-7.5,18.9-5.4,23c1-0.1,0.9-0.2,1.3-1.1c1.4-3.1,2.4-6.2,4.3-10.1c1.8-3.7,3.9-7.4,6-10.6
	c2.3-3.5,4.8-6.6,7-9.6c1.4-1.8,5.8-8.5,8-8.3c0.2,2.6-1.9,9.2-0.4,11.1c1.2,0,1.4-0.8,2-1.8c0.4-0.7,0.9-1.7,1.3-2.4
	c3.9-8,8.7-15.6,13-24.5c7.6-15.5,8.8-18.1,8.5-36.6c-0.1-8.9-0.9-12.5-2.1-20.5c-0.3-1.7-1.4-4.5-1.2-5.8c1.8,0.9,5.2,6.4,6.7,7.5
	c5.7,4.2-6.9-27.3-7.1-27.8c-1.9-4.6-3.6-8-6.1-12.3c-5.3-9.1-13.4-17.5-20.3-25.5c-5.5-6.4-11.1-13.6-16.5-20.2
	c-0.7-0.8-3.3-4.6-4.5-4.7c-1.5,2.6,9.1,17.6,9.6,20l-9.8,0c-0.8-0.8-1.3-1.8-2-2.8c-2-2.7-4.3-5.5-6.5-7.6c-1.3-1.2-8.5-7.9-10.6-8
	c0,1.6,7.1,7.2,7.8,9.8c-1.7-0.4-4.3-2.4-5.5-2.2c0,1.4,7.6,9.6,9.5,12.4c0.7,1.1,0.4,1.1,1.4,2.2c0.6,0.6,1,1.4,1,2.5
	C308,242,305.8,240.6,303.8,240.1"/>
<path class="st1" d="M344.1,289.7c-0.6-4.1-1.9-9.4-1.2-13.7c1.6,0.6,2.4,2.9,4.1,2.3c0.9-2.5-3-8.2-4.2-10.2c-1.8-2.9-4-6-6-8.8
	c-2.2-3.1-11.2-14.5-6-3.1c7.6,16.7,6.8,26.9,7,44.9c0,4.8,0.7,9.5,0.8,14.2c-0.8-0.6-1.3-2.8-1.7-3.8l-3-7.5
	c-0.5-1.1-1-2.7-2.3-2.9c-1.5,1.3-0.8,6.5-0.6,8.6l1.9,17.7c1.2,8.6,2.5,18.1,1.7,26.8c-0.6,7.4-4,14.3-4,15.5
	c0.9-0.1,0.9-0.3,1.8-1.8c6.2-10,7.3-19.2,7.3-30.7c0-1.8-0.9-12.2-0.7-12.4c1.5,2.1,4.3,6.9,6.4,6.7
	C349.5,322.9,345.6,300,344.1,289.7"/>
<path class="st1" d="M324,363.5c1.5-0.2,1.8-2.4,2.2-3.9c1.2-4.6,2-10.9,2.2-15.6c0.2-4.3,0.5-6.5-0.9-10.6c-0.7-2.2-1.8-4-3-5.9
	c-0.6-0.9-0.6-1.4-1.7-1.2c-0.3,1-0.4,4.1-0.5,5.4c-0.7,7.1-4,16.6-6.3,23.3c-4,11.9-6.3,14.5-5.1,29.6c0.3,3.7,0.5,7.4,0.8,11
	c0.2,1.8,0.4,9,1.9,9.7c1.2-0.7,1-5.3,1-7.3c0.2-6.3,1.1-16.4,2-22.2c0.3-2,4-24.6,6.5-26.1C324.1,352.9,322.8,361.5,324,363.5"/>
<path class="st1" d="M256.4,444c1.1,0.5,7.1-1.5,8.5-2c2.8-1,4.8-2,7.3-3.4c4.7-2.8,8.5-6.2,11.5-10.2c3.1-4.2,5.2-9.6,6.2-15.4
	c0.5-3.1,0.7-6.9,0.6-10.2c-0.1-1.7-0.3-8.6-1.4-9.4c-0.5,0.5-0.3,0.1-0.5,0.9c-0.1,0.2-0.1,0.8-0.2,1.1c-0.8,4.5-2.3,10.1-4.3,14
	c-4,8-1.7,13.1-3.4,17.4c-1.3,3.3-7.4,8.1-10.5,10.3c-3.1,2.1-6.8,4-10.3,5.4C257,443.5,256.6,443,256.4,444"/>
<path class="st1" d="M292.1,429c1,0.2,1.7-1.2,2.3-2c4.5-5.8,8-13.6,9.5-20.8c0.8-4.2,1.2-19.3,1.2-24.9c0-2,0.5-7-0.6-8
	c-1,0.3-0.9,1.3-1.4,3.1l-3.2,10.4c-1.7,4.9-4.2,8.5-2.3,14.5c0.9,2.9,1.6,4.1,1.6,7.7C299,417.8,291.9,427.7,292.1,429"/>
<path class="st1" d="M347.2,199c2.3-1.3,12.1-4.1,15.1-2.9c6.3,2.5,9,40.7,5.7,46.3c-0.7-1.4,0.1-4.4-1.4-4.9
	c-1.2,1.2,0.5,3.9-3.1,9.2c-5.2,7.5-7.8,4.4-3.1,10.7c2.5,3.4,5-2.7,8.9-7.9c4.8-6.4,7.1-10,5.9-18.4c-1-7.5-4.6-39.4-8.2-42.4
	c-0.8,0.1-2,1.1-2.8,1.5c-6.7,3.2-14.8,2-23.3,6.6c-2.1,1.2-19.7,11.7-18.5,15.2c1.3,0.1,6-2.6,7.8-3.4c5.9-2.7,10.8-4.1,17.3-5.5
	c2.3-0.5,8.4-1.1,9.2-2.2c-0.5-1.3-3.2-1-4.8-1.1C350.5,199.9,347.9,199.9,347.2,199"/>
<path class="st1" d="M353.9,217.7c-1.4-1.1-6.7,0.1-8.8,0.1c0.8-1.7,4.8-4,6.9-5c10.5-5.2,12.2,2.2,14.1,10.9
	c0.4,1.7,0.4,4.1,1.3,4.6c2.1-0.8,0.6-9.7,0.1-11.7c-2.1-9.2-8.2-11-16.2-7.6c-2,0.8-7.9,3.8-9.5,4c0.9-1.2,2.6-2.5,4.1-3.5
	c2.9-1.9,4.6-1.7,4.8-2.8c-2.1-1-21.1,5.2-23.9,8.4c-1.2,1.4,0.8,2.5,1.5,3.1c7.3,5.8,8.4,14.6,13.3,9.2
	C344.2,224.7,353.9,219.1,353.9,217.7"/>
<path class="st1" d="M290.8,176.7c0.3,1.8,1.5,7.1,2.4,8.5c1.4,0,17.2-8.6,26.5-8c-0.1,3-5.5,17.2-4.1,19.6c2.4,0,22-34.3,21.9-34.8
	c-2.5-3.5-28.6,8-34.6,9.3c-11.9-14.9-21.6-33.2-44-44.6c-2.2-1.1-3.6-0.6-1.1,2.1C272.4,144.4,284.8,154.7,290.8,176.7"/>
<path class="st1" d="M304.2,200.7c-1.9-0.4-1.9,2.3-4.4,1.7c-2.8-0.6-1.3-2.9-1.3-4.2c-2.4-0.7-5.6,5.2-0.8,7.7
	C301.4,207.8,305.3,203.3,304.2,200.7"/>
<path class="st1" d="M298.4,210.4c-4.1,0.7-30.5-6.6-43.3-5.1c0.2-1.7-0.6-2.9-0.9-4.5C261.5,198.7,297.8,206.1,298.4,210.4"/>
<path class="st1" d="M315.2,199c1,0.5,2.9,1.4,2.8,2.4c-1.3,0.4-6.3-1.9-7.8-2.4c-21-7.6-32.5-7-52.9-8.2c-0.6-1.5,0.6-4.2,1.3-5.5
	C277.8,185.1,298.3,190.1,315.2,199"/>
<path class="st16" d="M214.3,268.2c-3.4-1.3-4.5-4.1-4.7-7.8c-0.1-0.9,0-1,0.6-1.5c0.8-0.5,5.8-0.6,6.4,0c0.6,0.6,0.9,4.8,1.3,6
	c2.1-0.4,2.5-2.7,3.7-4.3c1.2-0.2,2.6,1.1,3.6,1.7c2.3,1.5,5.5,2.5-0.2,6.2c-1.5,1-4.6,0.4-6.6,0.8c-0.1-0.1,0-0.1-0.5-0.2
	C216.9,268.8,216.3,269,214.3,268.2 M218.3,269.3c0,0,0.1,0,0.2,0.1c0,0.1,0.1,0.1,0.2,0.1c0.2,0.1,0.3,0.1,0.5,0.1
	c3.9,0.8,12.6,1.8,11,8.4c-0.5,2.1-2,5.5-2.8,7.7c-0.5,1.2-1,2.4-1.6,3.6c-0.5,0.9-2,2.8-1.2,3.7c1.3-4,7.1-9.5,8-11
	c0.9-1.5,1.1-2.8,1.8-4.4c0-0.7-2.5-6.9-3.1-9.4c-0.2-0.6-0.5-2.2-0.3-2.9c0.3-0.9-0.1-0.4,0.5-0.6l0.6-0.5c0,0,0.1-0.1,0.2-0.2
	c-1.6-0.8-7.3-6.8-14.1-9.2c-7.1-2.5-7.4,2.5-17.9,4c-0.1,1.5,1.7,3.6,2.4,4.7c1.1,1.5,2,2.6,3.8,3.5
	C208.7,268,215.4,269.8,218.3,269.3z"/>
<path class="st13" d="M214.8,266.8c0.5-1.5-0.9-2.8-0.7-4.8c0.1-1,0.5-1.8-0.2-2.4c-0.5-0.4-1.7-0.4-2.2,0
	C209.8,260.8,212.5,267.1,214.8,266.8"/>
<path class="st13" d="M224.9,263.9c-0.8,0.6-0.9,1.5-1.6,2.2c-0.9,0.9-1.7,0.5-1.8,1.9c2.6,1.3,5.8-1.9,5.3-3.1
	C226.6,264.3,225.6,263.9,224.9,263.9"/>
<path class="st13" d="M284.8,264.5c-1.4,2,3.2,4.6,5.2,3.2c0-1.2-1.4-1.1-2.3-2.4c-0.3-0.4-0.6-1.2-1.1-1.4
	C286,263.6,285.1,264.1,284.8,264.5"/>
<path class="st13" d="M298.5,259.3c-2.4,0.4-1.2,1.4-1.7,4.3c-0.2,1.1-1.2,4.6,1,2.9C299.2,265.4,302.4,258.7,298.5,259.3"/>



<path class="linennnn" d="M256,503.3c150.3-91,224.2-262,240.2-431.6c-155-84-325.5-84-480.5,0C31.8,241.3,105.7,412.3,256,503.3z"/>
</svg>
