<?xml version="1.0" encoding="utf-8"?>
<!-- Generator: Adobe Illustrator 24.0.2, SVG Export Plug-In . SVG Version: 6.00 Build 0)  -->
<svg version="1.1" id="Capa_1" xmlns="http://www.w3.org/2000/svg" xmlns:xlink="http://www.w3.org/1999/xlink" x="0px" y="0px"
	 viewBox="0 0 512 512" style="enable-background:new 0 0 512 512;" xml:space="preserve">
<style type="text/css">
	.st0{opacity:0.5;clip-path:url(#SVGID_2_);}
	.st1{clip-path:url(#SVGID_4_);fill:none;stroke:#000000;stroke-width:0.3219;stroke-miterlimit:22.9256;}
	.st2{clip-path:url(#SVGID_4_);fill-rule:evenodd;clip-rule:evenodd;fill:#231F20;}
	.st3{opacity:0.5;clip-path:url(#SVGID_2_);fill-rule:evenodd;clip-rule:evenodd;fill:#BBBCBF;}
	.st4{opacity:0.5;clip-path:url(#SVGID_2_);fill-rule:evenodd;clip-rule:evenodd;fill:#231F20;}
	.st5{opacity:0.5;clip-path:url(#SVGID_2_);fill-rule:evenodd;clip-rule:evenodd;fill:#FFFFFF;}
</style>
<g>
	<defs>
		<rect id="SVGID_1_" x="6" y="6" width="500" height="500"/>
	</defs>
	<clipPath id="SVGID_2_">
		<use xlink:href="#SVGID_1_"  style="overflow:visible;"/>
	</clipPath>
	<g class="st0">
		<g>
			<defs>
				<rect id="SVGID_3_" x="59" y="11.2" width="394" height="485.9"/>
			</defs>
			<clipPath id="SVGID_4_">
				<use xlink:href="#SVGID_3_"  style="overflow:visible;"/>
			</clipPath>
			<path class="st1" d="M230.1,484.8c-6.3-1.2-12.6-2.7-18.7-4.7v0v4.8h18.7V484.8L230.1,484.8z M296.6,481.4
				c-5.1,1.5-10.3,2.7-15.5,3.6h0.1h15.4V481.4L296.6,481.4z M163.2,467.8c-0.7-0.5-1.4-0.9-2-1.4h2V467.8z M196.4,485.1
				c-6.1-2.4-12.1-5.2-18-8.3v-11.8v0c5.8,3.5,11.8,6.6,18,9.4v0V485.1z M265.9,496.2c-3.3,0.2-6.6,0.3-9.9,0.3
				c-4.5,0-9-0.2-13.5-0.6c1.7-2,2.8-4.7,2.8-7.6v-1.6v0c3.5,0.3,7.1,0.4,10.7,0.4c2.3,0,4.6-0.1,6.9-0.2v0v1.4
				C262.9,491.4,264,494.1,265.9,496.2z M331.3,478c-6.3,3.2-12.8,6.1-19.5,8.5V476v0c6-2.5,11.8-5.3,17.5-8.5v0v3.9
				c0,2.1,0.5,4.1,1.6,6C331.1,477.6,331.2,477.8,331.3,478z M350.9,466.4c-0.8,0.6-1.7,1.1-2.6,1.7h-3.9v-1.7H350.9z M256,11.9
				c108.4,0,196.4,108.5,196.4,242.3c0,81.5-32.6,153.6-82.6,197.5c-1-0.3-2.2-0.5-3.3-0.5h-13.2h0c51-41.3,84.9-114.1,84.9-197
				c0-128.7-81.6-233-182.2-233S73.8,125.5,73.8,254.2c0,82.9,33.9,155.7,84.9,197h0h-17c-49.7-44-82-115.8-82-197
				C59.6,120.3,147.6,11.9,256,11.9z"/>
			<path class="st2" d="M230.1,484.8c-6.3-1.2-12.6-2.7-18.7-4.7v0v4.8h18.7V484.8L230.1,484.8z M296.6,481.4
				c-5.1,1.5-10.3,2.7-15.5,3.6h0.1h15.4V481.4L296.6,481.4z M163.2,467.8c-0.7-0.5-1.4-0.9-2-1.4h2V467.8z M196.4,485.1
				c-6.1-2.4-12.1-5.2-18-8.3v-11.8v0c5.8,3.5,11.8,6.6,18,9.4v0V485.1z M265.9,496.2c-3.3,0.2-6.6,0.3-9.9,0.3
				c-4.5,0-9-0.2-13.5-0.6c1.7-2,2.8-4.7,2.8-7.6v-1.6v0c3.5,0.3,7.1,0.4,10.7,0.4c2.3,0,4.6-0.1,6.9-0.2v0v1.4
				C262.9,491.4,264,494.1,265.9,496.2z M331.3,478c-6.3,3.2-12.8,6.1-19.5,8.5V476v0c6-2.5,11.8-5.3,17.5-8.5v0v3.9
				c0,2.1,0.5,4.1,1.6,6C331.1,477.6,331.2,477.8,331.3,478z M350.9,466.4c-0.8,0.6-1.7,1.1-2.6,1.7h-3.9v-1.7H350.9z M256,11.9
				c108.4,0,196.4,108.5,196.4,242.3c0,81.5-32.6,153.6-82.6,197.5c-1-0.3-2.2-0.5-3.3-0.5h-13.2h0c51-41.3,84.9-114.1,84.9-197
				c0-128.7-81.6-233-182.2-233c-100.6,0-182.2,104.3-182.2,233c0,82.9,33.9,155.7,84.9,197h0h-17c-49.7-44-82-115.8-82-197
				C59.6,120.3,147.6,11.9,256,11.9z"/>
		</g>
	</g>
	<path class="st3" d="M256,66.2c84.1,0,152.3,84.1,152.3,187.9S340.1,442.1,256,442.1c-84.1,0-152.3-84.1-152.3-187.9
		S171.9,66.2,256,66.2 M230.1,484.8c-6.3-1.2-12.6-2.7-18.7-4.7v-13.8h18.7V484.8z M296.6,481.4c-5.1,1.5-10.3,2.7-15.5,3.6H278
		v-18.6h18.6V481.4z M256,21.2c100.6,0,182.2,104.3,182.2,233c0,82.9-33.9,155.7-84.9,197h-12.2c-6.5,0-11.8,5.3-11.8,11.8v4.5
		c-5.7,3.2-11.5,6-17.5,8.5v-13c0-6.4-5.3-11.8-11.8-11.8h-25.4c-6.5,0-11.8,5.3-11.8,11.8v24c-2.3,0.1-4.6,0.2-6.9,0.2
		c-3.6,0-7.2-0.1-10.7-0.4V463c0-6.5-5.4-11.8-11.8-11.8h-37.1v23.2c-6.1-2.7-12.1-5.9-18-9.4V463c0-6.5-5.4-11.8-11.8-11.8h-7.9
		c-51-41.3-84.9-114.1-84.9-197C73.8,125.5,155.4,21.2,256,21.2z"/>
	<path class="st4" d="M256,100.1c66.8,0,120.9,69,120.9,154.1c0,85.1-54.1,154.1-120.9,154.1c-66.8,0-120.9-69-120.9-154.1
		C135.1,169.1,189.2,100.1,256,100.1 M132.5,353.6l17.5-9.1l-1.4-2.6l-17.5,9.1L132.5,353.6z M126,340.8l18.2-7.6l-1.1-2.7l-14.6,6
		l9.5-18.3l-1.4-3.3l-18.2,7.6l1.1,2.8l14.5-6l-9.5,18.2L126,340.8z M121.6,283l4-0.7c0.4-0.1,0.7,0.2,0.8,0.5l2.3,12.2
		c0.1,0.4-0.2,0.7-0.5,0.8l-1,0.2l0.5,2.9l1.1-0.2c1.9-0.4,3.2-2.2,2.8-4.2l-2.3-12.4c-0.4-1.9-2.2-3.2-4.2-2.8L121,280
		c-1.9,0.4-3.2,2.2-2.9,4.2l2.3,12.3c0.1,0.4-0.1,0.7-0.5,0.8l-4,0.7c-0.4,0.1-0.7-0.2-0.8-0.5l-2.3-12.2c-0.1-0.4,0.2-0.7,0.6-0.8
		l1.1-0.2l-0.6-2.9l-1.1,0.2c-1.9,0.4-3.2,2.2-2.8,4.2l2.3,12.4c0.4,1.9,2.2,3.2,4.2,2.8l4.1-0.8c1.9-0.4,3.2-2.2,2.9-4.2l-2.3-12.3
		C121,283.4,121.2,283,121.6,283z M117.6,252.4l0.3,13.8l-6.2,0.1c-0.4,0-0.7-0.3-0.7-0.7l-0.3-12.4c0-0.4,0.3-0.7,0.7-0.7
		L117.6,252.4z M111.6,269.3l16.2-0.3l-0.1-3l-6.9,0.1l-0.3-13.8l6.9-0.1l-0.1-3l-16.2,0.3c-2,0-3.5,1.7-3.5,3.7l0.3,12.6
		C108,267.8,109.7,269.3,111.6,269.3z M108.2,236.6l19.5,2.8l0.4-2.9l-15.6-2.3l17.5-10.8l0.5-3.5L111,217l-0.4,3l15.6,2.3
		l-17.5,10.8L108.2,236.6z M118.3,198.8l16.2,4.4l0.8-2.9l-16.2-4.4l2.2-8.1l-2.9-0.8l-5.2,19l2.9,0.8L118.3,198.8z M122.6,176.7
		l18.2,7.6l1.1-2.7l-18.2-7.6L122.6,176.7z M128.6,162.7l17.1,9.9l8.1-14c1-1.7,0.4-3.9-1.3-4.9l-10.9-6.3c-1.7-1-3.9-0.4-4.9,1.3
		L128.6,162.7z M151.2,157.2l-6.2,10.8c-0.2,0.3-0.6,0.4-0.9,0.2l-10.8-6.2c-0.3-0.2-0.5-0.6-0.3-0.9l6.2-10.8
		c0.2-0.3,0.6-0.4,0.9-0.3l10.8,6.2C151.2,156.4,151.3,156.8,151.2,157.2z M164.4,128.2l-8.9,10.5l-4.7-4c-0.3-0.2-0.3-0.7-0.1-1
		l8-9.5c0.3-0.3,0.7-0.3,1-0.1L164.4,128.2z M157.7,140.6l8.9-10.5l5.3,4.5l1.9-2.3l-12.3-10.5c-1.5-1.3-3.8-1.1-5,0.4l-8.1,9.6
		c-1.3,1.5-1.1,3.7,0.4,5l12.3,10.5l1.9-2.3L157.7,140.6z M191.9,113.4l-9.8,7.7c-0.3,0.2-0.7,0.2-0.9-0.1l-7.7-9.8
		c-0.2-0.3-0.2-0.7,0.1-0.9l9.8-7.7c0.3-0.2,0.7-0.2,1,0.1l7.7,9.8C192.2,112.7,192.2,113.1,191.9,113.4z M168.9,110.2l12.2,15.5
		l12.7-10c1.6-1.2,1.8-3.5,0.6-5l-7.8-9.9c-1.2-1.6-3.5-1.8-5-0.6L168.9,110.2z M221.6,81l5.2,14.8l-17.7-10.5l-3.3,1.2l6.5,18.6
		l2.8-1l-5.2-14.9l17.7,10.5l3.3-1.2L224.4,80L221.6,81z M240.2,80.5l0.5,16.2l3-0.1l-0.2-6.9l13.8-0.4l0.2,6.9l3-0.1l-0.5-16.2
		c-0.1-2-1.7-3.5-3.7-3.4l-12.6,0.4C241.6,76.8,240.1,78.5,240.2,80.5z M243.8,79.7l12.4-0.4c0.4,0,0.7,0.3,0.7,0.7l0.2,6.2
		l-13.8,0.4l-0.2-6.2C243.1,80.1,243.4,79.8,243.8,79.7z M277.4,81.2l12.1,2.7c0.4,0.1,0.6,0.4,0.5,0.8l-2.7,12.2
		c-0.1,0.4-0.4,0.6-0.8,0.5l-12.2-2.7c-0.4-0.1-0.6-0.5-0.5-0.8l2.7-12.2C276.7,81.4,277,81.1,277.4,81.2z M274.5,77.5l-4.2,19.3
		l15.8,3.5c1.9,0.4,3.8-0.8,4.3-2.7l2.7-12.3c0.4-1.9-0.8-3.8-2.7-4.3L274.5,77.5z M306,86.8l-7.6,18.2l2.7,1.1l7.6-18.2L306,86.8z
		 M321.4,94.1L310,110.2l14.8,10.5l1.7-2.4l-12.3-8.7l3.1-4.4l9.9,7l1.7-2.5l-9.9-7l3.1-4.4l12.3,8.7l1.7-2.4L321.4,94.1z
		 M352.6,118.9l-7.6,21.5l1.9,2.2l22.4-4.1l-2.2-2.6l-18.6,3.5l6.4-17.8L352.6,118.9z M376.5,150l-17.5,9.1l8.3,16l2.6-1.4l-7-13.4
		l4.8-2.5l5.6,10.8l2.7-1.4l-5.6-10.8l4.8-2.5l7,13.4l2.6-1.4L376.5,150z M388.5,182.2l3.8,11.8c0.1,0.4-0.1,0.7-0.4,0.9l-5.1,1.6
		c-0.4,0.1-0.7-0.1-0.8-0.5l-3.8-11.8c-0.1-0.3,0.1-0.7,0.4-0.9l5.1-1.6C388,181.6,388.4,181.8,388.5,182.2z M390.2,177.8l-18.8,6
		l0.9,2.8l6.7-2.1l2,6.3l-4.7,8.4l1.2,3.8l5-7.7l0.6,1.7c0.6,1.9,2.6,2.9,4.5,2.3l5.3-1.7c1.9-0.6,2.9-2.6,2.3-4.5L390.2,177.8z
		 M397,212.4l2.3,12.2c0.1,0.4-0.2,0.7-0.5,0.8l-6.1,1.1l-2.5-13.6l6.1-1.1C396.6,211.7,396.9,212,397,212.4z M399.9,211.7
		c-0.4-1.9-2.2-3.2-4.2-2.8l-15.9,3l0.5,2.9l6.8-1.3l2.5,13.5l-6.8,1.3l0.5,2.9l15.9-3c2-0.4,3.2-2.2,2.8-4.2L399.9,211.7z
		 M394.4,252.2l6.2,0.1c0.4,0,0.7,0.3,0.7,0.7l-0.3,12.4c0,0.4-0.3,0.7-0.7,0.7l-6.2-0.1L394.4,252.2z M404.3,253
		c0-2-1.5-3.6-3.5-3.6l-16.2-0.3l-0.1,3l6.9,0.1l-0.3,13.8l-6.9-0.1l-0.1,3l16.2,0.3c2,0,3.6-1.5,3.6-3.5L404.3,253z M397.3,293
		c0.4,0.1,0.6,0.4,0.5,0.8l-2.8,12.1c-0.1,0.4-0.4,0.6-0.8,0.5l-12.1-2.8c-0.4-0.1-0.6-0.4-0.5-0.8l2.8-12.1
		c0.1-0.4,0.5-0.6,0.8-0.5L397.3,293z M401.5,290.9l-19.2-4.4l-3.6,15.7c-0.4,1.9,0.7,3.9,2.7,4.3l12.3,2.8c1.9,0.4,3.8-0.8,4.3-2.7
		L401.5,290.9z M393.7,320.9l-18.8-6l-0.9,2.8l18.8,6L393.7,320.9z M372.7,330.9l11.3,5.3c0.2,0.1,0.3,0.2,0.3,0.4
		c0.1,0.2,0.1,0.4,0,0.5l-5.2,11.3c-0.2,0.4-0.6,0.5-0.9,0.3l-11.3-5.3c-0.4-0.2-0.5-0.6-0.3-0.9l5.2-11.3
		C371.9,330.9,372.3,330.8,372.7,330.9z M385.3,333.6l-11.4-5.3c-1.8-0.8-3.9-0.1-4.7,1.7l-5.3,11.4c-0.8,1.8-0.1,3.9,1.7,4.7
		l11.4,5.3c1.8,0.8,3.9,0.1,4.7-1.7l5.3-11.4C387.8,336.5,387.1,334.4,385.3,333.6z M371.2,367c1.1-1.6,0.7-3.8-0.9-5l-3.5-2.4
		c-1.6-1.1-3.9-0.8-5,0.9l-7.2,10.3c-0.2,0.3-0.6,0.4-0.9,0.2l-3.3-2.3c-0.3-0.2-0.4-0.6-0.2-0.9l7.1-10.2c0.2-0.3,0.7-0.4,1-0.2
		l0.9,0.6l1.7-2.4l-0.9-0.7c-1.6-1.1-3.8-0.7-5,0.9l-7.2,10.3c-1.1,1.6-0.7,3.8,0.9,5l3.5,2.4c1.6,1.1,3.9,0.8,5-0.9l7.2-10.3
		c0.2-0.3,0.6-0.4,0.9-0.2l3.3,2.3c0.3,0.2,0.4,0.7,0.2,1l-7.1,10.2c-0.2,0.3-0.6,0.4-0.9,0.1l-0.9-0.6l-1.7,2.4l0.9,0.7
		c1.6,1.1,3.8,0.7,5-0.9L371.2,367z M156.4,375.7c1.6-1.1,2-3.4,0.9-5l-7.2-10.3c-0.2-0.3-0.2-0.7,0.2-0.9l3.3-2.3
		c0.3-0.2,0.7-0.2,0.9,0.1l7.1,10.2c0.2,0.3,0.1,0.7-0.2,1l-0.9,0.6l1.7,2.4l0.9-0.7c1.6-1.1,2-3.4,0.9-5l-7.2-10.3
		c-1.1-1.6-3.3-2-5-0.9l-3.5,2.4c-1.6,1.1-2,3.4-0.9,5l7.2,10.3c0.2,0.3,0.2,0.7-0.1,0.9l-3.3,2.3c-0.3,0.2-0.7,0.1-1-0.2l-7.1-10.2
		c-0.2-0.3-0.1-0.7,0.2-0.9l0.9-0.6l-1.7-2.4l-0.9,0.7c-1.6,1.1-2,3.4-0.9,5l7.2,10.3c1.1,1.6,3.3,2,5,0.9L156.4,375.7z M256,66.2
		c84.1,0,152.3,84.1,152.3,187.9S340.1,442.1,256,442.1c-84.1,0-152.3-84.1-152.3-187.9S171.9,66.2,256,66.2z"/>
	<path class="st3" d="M256,108.5c63.1,0,114.3,65.2,114.3,145.7S319.1,399.9,256,399.9c-63.1,0-114.3-65.2-114.3-145.7
		S192.9,108.5,256,108.5 M256,100.1c66.8,0,120.9,69,120.9,154.1c0,85.1-54.1,154.1-120.9,154.1c-66.8,0-120.9-69-120.9-154.1
		C135.1,169.1,189.2,100.1,256,100.1z"/>
	<path class="st4" d="M251.5,149.6c41.8,15.6,76.4,38.1,49.8,103.7c12.4,0.7,22.9-2.7,32.3-11.4c14.9,37.3,7,69-38.7,88.8
		c-16.4-59-88.5-42-88.4,28C168,338.1,164.3,304.8,195,259c2.2-7.6-6.9-10.5-23.5-10.3c8.2-20.2,24.4-25.4,46.1-20
		C258.9,221.3,266.5,193.3,251.5,149.6 M256,108.5c63.1,0,114.3,65.2,114.3,145.7S319.1,399.9,256,399.9
		c-63.1,0-114.3-65.2-114.3-145.7S192.9,108.5,256,108.5z"/>
	<path class="st5" d="M132.5,353.6l17.5-9.1l-1.4-2.6l-17.5,9.1L132.5,353.6z M126,340.8l18.2-7.6l-1.1-2.7l-14.6,6l9.5-18.3
		l-1.4-3.3l-18.2,7.6l1.1,2.8l14.5-6l-9.5,18.2L126,340.8z M121.6,283l4-0.7c0.4-0.1,0.7,0.2,0.8,0.5l2.3,12.2
		c0.1,0.4-0.2,0.7-0.5,0.8l-1,0.2l0.5,2.9l1.1-0.2c1.9-0.4,3.2-2.2,2.8-4.2l-2.3-12.4c-0.4-1.9-2.2-3.2-4.2-2.8L121,280
		c-1.9,0.4-3.2,2.2-2.9,4.2l2.3,12.3c0.1,0.4-0.1,0.7-0.5,0.8l-4,0.7c-0.4,0.1-0.7-0.2-0.8-0.5l-2.3-12.2c-0.1-0.4,0.2-0.7,0.6-0.8
		l1.1-0.2l-0.6-2.9l-1.1,0.2c-1.9,0.4-3.2,2.2-2.8,4.2l2.3,12.4c0.4,1.9,2.2,3.2,4.2,2.8l4.1-0.8c1.9-0.4,3.2-2.2,2.9-4.2l-2.3-12.3
		C121,283.4,121.2,283,121.6,283z M117.6,252.4l0.3,13.8l-6.2,0.1c-0.4,0-0.7-0.3-0.7-0.7l-0.3-12.4c0-0.4,0.3-0.7,0.7-0.7
		L117.6,252.4z M111.6,269.3l16.2-0.3l-0.1-3l-6.9,0.1l-0.3-13.8l6.9-0.1l-0.1-3l-16.2,0.3c-2,0-3.5,1.7-3.5,3.7l0.3,12.6
		C108,267.8,109.7,269.3,111.6,269.3z M108.2,236.6l19.5,2.8l0.4-2.9l-15.6-2.3l17.5-10.8l0.5-3.5L111,217l-0.4,3l15.6,2.3
		l-17.5,10.8L108.2,236.6z M118.3,198.8l16.2,4.4l0.8-2.9l-16.2-4.4l2.2-8.1l-2.9-0.8l-5.2,19l2.9,0.8L118.3,198.8z M122.6,176.7
		l18.2,7.6l1.1-2.7l-18.2-7.6L122.6,176.7z M128.6,162.7l17.1,9.9l8.1-14c1-1.7,0.4-3.9-1.3-4.9l-10.9-6.3c-1.7-1-3.9-0.4-4.9,1.3
		L128.6,162.7z M151.2,157.2l-6.2,10.8c-0.2,0.3-0.6,0.4-0.9,0.2l-10.8-6.2c-0.3-0.2-0.5-0.6-0.3-0.9l6.2-10.8
		c0.2-0.3,0.6-0.4,0.9-0.3l10.8,6.2C151.2,156.4,151.3,156.8,151.2,157.2z M164.4,128.2l-8.9,10.5l-4.7-4c-0.3-0.2-0.3-0.7-0.1-1
		l8-9.5c0.3-0.3,0.7-0.3,1-0.1L164.4,128.2z M157.7,140.6l8.9-10.5l5.3,4.5l1.9-2.3l-12.3-10.5c-1.5-1.3-3.8-1.1-5,0.4l-8.1,9.6
		c-1.3,1.5-1.1,3.7,0.4,5l12.3,10.5l1.9-2.3L157.7,140.6z M191.9,113.4l-9.8,7.7c-0.3,0.2-0.7,0.2-0.9-0.1l-7.7-9.8
		c-0.2-0.3-0.2-0.7,0.1-0.9l9.8-7.7c0.3-0.2,0.7-0.2,1,0.1l7.7,9.8C192.2,112.7,192.2,113.1,191.9,113.4z M168.9,110.2l12.2,15.5
		l12.7-10c1.6-1.2,1.8-3.5,0.6-5l-7.8-9.9c-1.2-1.6-3.5-1.8-5-0.6L168.9,110.2z M221.6,81l5.2,14.8l-17.7-10.5l-3.3,1.2l6.5,18.6
		l2.8-1l-5.2-14.9l17.7,10.5l3.3-1.2L224.4,80L221.6,81z M240.2,80.5l0.5,16.2l3-0.1l-0.2-6.9l13.8-0.4l0.2,6.9l3-0.1l-0.5-16.2
		c-0.1-2-1.7-3.5-3.7-3.4l-12.6,0.4C241.6,76.8,240.1,78.5,240.2,80.5z M243.8,79.7l12.4-0.4c0.4,0,0.7,0.3,0.7,0.7l0.2,6.2
		l-13.8,0.4l-0.2-6.2C243.1,80.1,243.4,79.8,243.8,79.7z M277.4,81.2l12.1,2.7c0.4,0.1,0.6,0.4,0.5,0.8l-2.7,12.2
		c-0.1,0.4-0.4,0.6-0.8,0.5l-12.2-2.7c-0.4-0.1-0.6-0.5-0.5-0.8l2.7-12.2C276.7,81.4,277,81.1,277.4,81.2z M274.5,77.5l-4.2,19.3
		l15.8,3.5c1.9,0.4,3.8-0.8,4.3-2.7l2.7-12.3c0.4-1.9-0.8-3.8-2.7-4.3L274.5,77.5z M306,86.8l-7.6,18.2l2.7,1.1l7.6-18.2L306,86.8z
		 M321.4,94.1L310,110.2l14.8,10.5l1.7-2.4l-12.3-8.7l3.1-4.4l9.9,7l1.7-2.5l-9.9-7l3.1-4.4l12.3,8.7l1.7-2.4L321.4,94.1z
		 M352.6,118.9l-7.6,21.5l1.9,2.2l22.4-4.1l-2.2-2.6l-18.6,3.5l6.4-17.8L352.6,118.9z M376.5,150l-17.5,9.1l8.3,16l2.6-1.4l-7-13.4
		l4.8-2.5l5.6,10.8l2.7-1.4l-5.6-10.8l4.8-2.5l7,13.4l2.6-1.4L376.5,150z M388.5,182.2l3.8,11.8c0.1,0.4-0.1,0.7-0.4,0.9l-5.1,1.6
		c-0.4,0.1-0.7-0.1-0.8-0.5l-3.8-11.8c-0.1-0.3,0.1-0.7,0.4-0.9l5.1-1.6C388,181.6,388.4,181.8,388.5,182.2z M390.2,177.8l-18.8,6
		l0.9,2.8l6.7-2.1l2,6.3l-4.7,8.4l1.2,3.8l5-7.7l0.6,1.7c0.6,1.9,2.6,2.9,4.5,2.3l5.3-1.7c1.9-0.6,2.9-2.6,2.3-4.5L390.2,177.8z
		 M397,212.4l2.3,12.2c0.1,0.4-0.2,0.7-0.5,0.8l-6.1,1.1l-2.5-13.6l6.1-1.1C396.6,211.7,396.9,212,397,212.4z M399.9,211.7
		c-0.4-1.9-2.2-3.2-4.2-2.8l-15.9,3l0.5,2.9l6.8-1.3l2.5,13.5l-6.8,1.3l0.5,2.9l15.9-3c2-0.4,3.2-2.2,2.8-4.2L399.9,211.7z
		 M394.4,252.2l6.2,0.1c0.4,0,0.7,0.3,0.7,0.7l-0.3,12.4c0,0.4-0.3,0.7-0.7,0.7l-6.2-0.1L394.4,252.2z M404.3,253
		c0-2-1.5-3.6-3.5-3.6l-16.2-0.3l-0.1,3l6.9,0.1l-0.3,13.8l-6.9-0.1l-0.1,3l16.2,0.3c2,0,3.6-1.5,3.6-3.5L404.3,253z M397.3,293
		c0.4,0.1,0.6,0.4,0.5,0.8l-2.8,12.1c-0.1,0.4-0.4,0.6-0.8,0.5l-12.1-2.8c-0.4-0.1-0.6-0.4-0.5-0.8l2.8-12.1
		c0.1-0.4,0.5-0.6,0.8-0.5L397.3,293z M401.5,290.9l-19.2-4.4l-3.6,15.7c-0.4,1.9,0.7,3.9,2.7,4.3l12.3,2.8c1.9,0.4,3.8-0.8,4.3-2.7
		L401.5,290.9z M393.7,320.9l-18.8-6l-0.9,2.8l18.8,6L393.7,320.9z M372.7,330.9l11.3,5.3c0.2,0.1,0.3,0.2,0.3,0.4
		c0.1,0.2,0.1,0.4,0,0.5l-5.2,11.3c-0.2,0.4-0.6,0.5-0.9,0.3l-11.3-5.3c-0.4-0.2-0.5-0.6-0.3-0.9l5.2-11.3
		C371.9,330.9,372.3,330.8,372.7,330.9z M385.3,333.6l-11.4-5.3c-1.8-0.8-3.9-0.1-4.7,1.7l-5.3,11.4c-0.8,1.8-0.1,3.9,1.7,4.7
		l11.4,5.3c1.8,0.8,3.9,0.1,4.7-1.7l5.3-11.4C387.8,336.5,387.1,334.4,385.3,333.6z M371.2,367c1.1-1.6,0.7-3.8-0.9-5l-3.5-2.4
		c-1.6-1.1-3.9-0.8-5,0.9l-7.2,10.3c-0.2,0.3-0.6,0.4-0.9,0.2l-3.3-2.3c-0.3-0.2-0.4-0.6-0.2-0.9l7.1-10.2c0.2-0.3,0.7-0.4,1-0.2
		l0.9,0.6l1.7-2.4l-0.9-0.7c-1.6-1.1-3.8-0.7-5,0.9l-7.2,10.3c-1.1,1.6-0.7,3.8,0.9,5l3.5,2.4c1.6,1.1,3.9,0.8,5-0.9l7.2-10.3
		c0.2-0.3,0.6-0.4,0.9-0.2l3.3,2.3c0.3,0.2,0.4,0.7,0.2,1l-7.1,10.2c-0.2,0.3-0.6,0.4-0.9,0.1l-0.9-0.6l-1.7,2.4l0.9,0.7
		c1.6,1.1,3.8,0.7,5-0.9L371.2,367z M156.4,375.7c1.6-1.1,2-3.4,0.9-5l-7.2-10.3c-0.2-0.3-0.2-0.7,0.2-0.9l3.3-2.3
		c0.3-0.2,0.7-0.2,0.9,0.1l7.1,10.2c0.2,0.3,0.1,0.7-0.2,1l-0.9,0.6l1.7,2.4l0.9-0.7c1.6-1.1,2-3.4,0.9-5l-7.2-10.3
		c-1.1-1.6-3.3-2-5-0.9l-3.5,2.4c-1.6,1.1-2,3.4-0.9,5l7.2,10.3c0.2,0.3,0.2,0.7-0.1,0.9l-3.3,2.3c-0.3,0.2-0.7,0.1-1-0.2l-7.1-10.2
		c-0.2-0.3-0.1-0.7,0.2-0.9l0.9-0.6l-1.7-2.4l-0.9,0.7c-1.6,1.1-2,3.4-0.9,5l7.2,10.3c1.1,1.6,3.3,2,5,0.9L156.4,375.7z"/>
	<path class="st4" d="M163.2,471.1h-18.6v-4.7h16.5h2.1v1.4V471.1z M129.5,463v37.2h15.1v-13.9h18.6v13.9h15.2v-23.3v-11.8V463
		c0-6.5-5.4-11.8-11.8-11.8h-7.9h-17h-0.4C134.8,451.2,129.5,456.5,129.5,463z M211.4,466.4h18.7v18.5v0.1h-18.7v-4.8V466.4z
		 M196.4,451.2v23.2v10.7v15h37.1c3.6,0,6.9-1.6,9-4.2c1.7-2,2.8-4.7,2.8-7.6v-1.6V463c0-6.5-5.4-11.8-11.8-11.8H196.4z M278,466.4
		h18.6v15v3.6h-15.4H278V466.4z M274.7,451.2c-6.5,0-11.8,5.3-11.8,11.8v24v1.4c0,3,1.1,5.7,3,7.8c2.2,2.4,5.3,3.9,8.8,3.9h25.4
		c6.4,0,11.8-5.3,11.8-11.8v-1.8V476v-13c0-6.4-5.3-11.8-11.8-11.8H274.7z M344.4,483.3H363v1.7h-18.6V483.3z M344.4,466.4h6.4H363
		v1.7h-14.7h-3.9V466.4z M341.1,451.2c-6.5,0-11.8,5.3-11.8,11.8v4.6v3.9c0,2.1,0.5,4.1,1.6,6c0.1,0.2,0.2,0.4,0.4,0.6
		c0.9,1.4,2.1,2.5,3.5,3.4h-5.5v6.9c0,6.5,5.3,11.8,11.8,11.8h25.4c6.4,0,11.8-5.3,11.8-11.8v-8.5c0-4.1-2.1-7.8-5.5-10h5.5V463
		c0-5.3-3.6-9.9-8.5-11.3c-1-0.3-2.2-0.5-3.3-0.5h-13.2H341.1z M395.9,451.2v48.9H411v-16.9h19.6v16.9h15.1v-48.9h-15.1v16.9H411
		v-16.9H395.9z M141.7,463.5H157h9.1v6.2v4.3h-24.4V463.5z M141.3,454.1c-4.9,0-8.9,4-8.9,8.9v34.2h9.3v-13.9h24.4v13.9h9.4v-22v-12
		V463c0-4.9-4-8.9-8.9-8.9h-4.2H145H141.3z M208.5,463.5H233v21.9v2.5h-24.5v-8.7V463.5z M199.3,454.1v21.6v10.6v11h34.2
		c1.9,0,3.7-0.6,5.2-1.7c2.3-1.6,3.8-4.2,3.8-7.2v-1.8V463c0-4.9-4-8.9-8.9-8.9H199.3z M275.1,463.5h24.4v17v7.4h-24.4v-2V463.5z
		 M274.7,454.1c-4.9,0-8.9,4-8.9,8.9v23.9v1.5c0,3.2,1.7,6,4.2,7.5c1.4,0.8,3,1.3,4.7,1.3h25.4c4.8,0,8.9-4,8.9-8.9v-0.8v-10.4V463
		c0-4.8-4-8.9-8.9-8.9H274.7z M398.8,454.1v43.1h9.3v-16.9h25.4v16.9h9.3v-43.1h-9.3V471h-25.4v-16.9H398.8z M341.1,454.1
		c-4.9,0-8.9,4-8.9,8.9v2.9v5.6c0,1.9,0.6,3.7,1.7,5.2c1.6,2.2,4.2,3.7,7.2,3.7h24.8v7.5h-24.4v-3.5h-9.3v4c0,4.9,4,8.9,8.9,8.9
		h25.4c4.8,0,8.9-4,8.9-8.9v-8.5c0-4.8-4-8.9-8.9-8.9h-22.7h-2.2v-7.5H355h10.9v3.5h9.4v-4c0-4.7-3.8-8.6-8.4-8.8l-17.4,0
		L341.1,454.1z M95.4,475.7l15.4-18.3v-3.2h-9.7L86.9,471h-8.4v-16.9h-9.3v43.1h9.3v-16.9h8.4l14.1,16.9h9.7V494L95.4,475.7z
		 M99.2,475.7l14.5-17.3v-7.2h-14l-14.1,16.9h-4.2v-16.9H66.2v48.9h15.2v-16.9h4.2l14.1,16.9h14v-7.2L99.2,475.7z"/>
	<path class="st5" d="M251.5,149.6c41.8,15.6,76.4,38.1,49.8,103.7c12.4,0.7,22.9-2.7,32.3-11.4c14.9,37.3,7,69-38.7,88.8
		c-16.4-59-88.5-42-88.4,28C168,338.1,164.3,304.8,195,259c2.2-7.6-6.9-10.5-23.5-10.3c8.2-20.2,24.4-25.4,46.1-20
		C258.9,221.3,266.5,193.3,251.5,149.6"/>
	<path class="st5" d="M141.7,463.5H157h9.1v6.2v4.3h-24.4V463.5z M141.3,454.1c-4.9,0-8.9,4-8.9,8.9v34.2h9.3v-13.9h24.4v13.9h9.4
		v-22v-12V463c0-4.9-4-8.9-8.9-8.9h-4.2H145H141.3z M208.5,463.5H233v21.9v2.5h-24.5v-8.7V463.5z M199.3,454.1v21.6v10.6v11h34.2
		c1.9,0,3.7-0.6,5.2-1.7c2.3-1.6,3.8-4.2,3.8-7.2v-1.8V463c0-4.9-4-8.9-8.9-8.9H199.3z M275.1,463.5h24.4v17v7.4h-24.4v-2V463.5z
		 M274.7,454.1c-4.9,0-8.9,4-8.9,8.9v23.9v1.5c0,3.2,1.7,6,4.2,7.5c1.4,0.8,3,1.3,4.7,1.3h25.4c4.8,0,8.9-4,8.9-8.9v-0.8v-10.4V463
		c0-4.8-4-8.9-8.9-8.9H274.7z M398.8,454.1v43.1h9.3v-16.9h25.4v16.9h9.3v-43.1h-9.3V471h-25.4v-16.9H398.8z M341.1,454.1
		c-4.9,0-8.9,4-8.9,8.9v2.9v5.6c0,1.9,0.6,3.7,1.7,5.2c1.6,2.2,4.2,3.7,7.2,3.7h24.8v7.5h-24.4v-3.5h-9.3v4c0,4.9,4,8.9,8.9,8.9
		h25.4c4.8,0,8.9-4,8.9-8.9v-8.5c0-4.8-4-8.9-8.9-8.9h-22.7h-2.2v-7.5H355h10.9v3.5h9.4v-4c0-4.7-3.8-8.6-8.4-8.8l-17.4,0
		L341.1,454.1z M95.4,475.7l15.4-18.3v-3.2h-9.7L86.9,471h-8.4v-16.9h-9.3v43.1h9.3v-16.9h8.4l14.1,16.9h9.7V494L95.4,475.7z"/>
</g>
</svg>
