<?xml version="1.0" encoding="utf-8"?>
<!-- Generator: Adobe Illustrator 24.0.2, SVG Export Plug-In . SVG Version: 6.00 Build 0)  -->
<svg version="1.1" id="Capa_1" xmlns="http://www.w3.org/2000/svg" xmlns:xlink="http://www.w3.org/1999/xlink" x="0px" y="0px"
	 viewBox="0 0 512 512" style="enable-background:new 0 0 512 512;" xml:space="preserve">
<style type="text/css">
	.st0{fill:none;stroke:#0D71B7;stroke-width:5;stroke-miterlimit:22.9256;}
	.st1{fill-rule:evenodd;clip-rule:evenodd;fill:#0D71B7;}
	.st2{fill:#0D71B7;}
	.st3{fill-rule:evenodd;clip-rule:evenodd;fill:#000;}
	.st4{fill:#000;}
	.st5{fill-rule:evenodd;clip-rule:evenodd;fill:#fff;}
</style>
<path class="st0" d="M62.7,403.4V103.8c0-14.7,12-26.6,26.6-26.6h333.4c14.7,0,26.6,12,26.6,26.6v299.5"/>
<path class="st1" d="M128.3,350.9h53.9l13.7-51.4l2.9-98.3c0.6-19-22.1-14.4-30.3,28c-0.9,4.7-0.8,11.2-6.6,9.5
	c-4.9-1.4-3.1-6.8-2.2-10.2c12.3-44.9,33-54.4,42.8-35c12.1-17.1,41.2-64.6,45-85.3c2.7-14.6-5-25.8-24.5-4.7
	c-29.3,30-54.7,59.9-74.1,89.7c-17.9,27.5-13.2,24.2-12.4,55.8C137.3,284.9,135.1,319.1,128.3,350.9"/>
<path class="st1" d="M383.7,350.9h-53.9l-13.7-51.4l-2.9-98.3c-0.6-19,22.1-14.4,30.3,28c0.9,4.7,0.8,11.2,6.6,9.5
	c4.9-1.4,3.1-6.8,2.2-10.2c-12.3-44.9-33-54.4-42.8-35c-12.1-17.1-41.2-64.6-45-85.3c-2.7-14.6,5-25.8,24.5-4.7
	c29.3,30,54.7,59.9,74,89.7c17.9,27.5,13.2,24.2,12.4,55.8C374.7,284.9,376.9,319.1,383.7,350.9"/>
<path class="st1" d="M316.7,350.9H200.3c-18-18.7,16.6-34.5,36.3-46.1l9.9-23.4c-23-8.7-31.7-24-34.2-42c0.5-21.8,7.3-29.1,13.3,3.5
	c3.8,7.6,10,13.4,18.2,17.5c10-4.6,13.6-12,12.2-21.4l0.1,0c-10.2-0.8-18.2-9.3-18.2-19.8c0-10.9,8.9-19.8,19.8-19.8
	c10.9,0,19.8,8.9,19.8,19.8c0,4.9-1.8,9.4-4.7,12.9c17.8,26.8,16.7,57.2-4.2,95c10.9,3.9,25.3,10.7,37.6,13.8
	C317.5,343.8,316.7,339.2,316.7,350.9"/>
<path class="st2" d="M479.2,450.1l-15-22.4l7.2-4.8l1.8,2.6l0.1-0.1c0.5-1.8,1.3-3.5,2.5-5c1.2-1.5,2.8-3,4.9-4.4
	c3.4-2.3,6.4-3.3,9-2.9c2.6,0.4,4.9,2.1,7,5.2l9.3,13.8l-7.5,5l-8.5-12.6c-1.3-1.9-2.6-2.9-3.9-3.3c-1.4-0.3-2.9,0.1-4.7,1.3
	c-1.3,0.9-2.3,1.9-3.1,3c-0.7,1.1-1.2,2.2-1.2,3.3c-0.1,1.1,0.2,2.1,0.8,3l8.8,13.2L479.2,450.1z M450.8,429l-8.1,2.7l1.4-12.5
	l10.6-3.5L450.8,429z M454.5,453.5c2.7-0.9,4.5-2.2,5.4-4c0.9-1.8,0.9-4,0-6.7c-0.9-2.7-2.2-4.4-4-5.3c-1.8-0.9-4-0.9-6.7,0
	c-2.6,0.9-4.4,2.2-5.4,4c-0.9,1.8-1,4-0.1,6.7s2.2,4.4,4.1,5.3C449.7,454.4,451.9,454.4,454.5,453.5z M456.3,458.8
	c-5.3,1.8-9.8,2-13.5,0.7c-3.7-1.3-6.2-4.1-7.6-8.4c-1.4-4.3-1.1-8,1.1-11.3c2.1-3.3,5.9-5.8,11.2-7.5c5.3-1.8,9.8-2,13.5-0.7
	c3.6,1.3,6.2,4.1,7.6,8.4c1.4,4.3,1.1,8-1,11.3C465.3,454.5,461.6,457,456.3,458.8z M423.2,467.5l-5.9-25.9l9-2l5.9,25.9
	L423.2,467.5z M416.3,437.1l-1.5-6.4l9-2l1.5,6.4L416.3,437.1z M404.3,472c-3.9,0.7-7.4,0.8-10.4,0.2c-3-0.6-5.4-1.8-7.3-3.6
	c-1.8-1.8-3-4.1-3.5-7c-0.5-2.9-0.2-5.5,0.9-7.8c1.1-2.3,3-4.3,5.6-5.9c2.6-1.6,5.9-2.7,9.8-3.5c2-0.4,3.9-0.5,5.7-0.5
	c1.8,0,3.6,0.2,5.3,0.6l-0.5,5.6c-1.6-0.4-3.2-0.6-4.6-0.6c-1.5,0-2.9,0.1-4.3,0.3c-3.3,0.6-5.7,1.8-7.2,3.5c-1.5,1.8-2.1,4-1.6,6.7
	c0.5,2.7,1.7,4.5,3.8,5.7c2.1,1.1,4.7,1.4,8,0.8c1.4-0.3,2.8-0.6,4.1-1.2c1.4-0.5,2.7-1.3,4.1-2.2l2.4,5.1c-1.5,1-3.1,1.8-4.8,2.4
	C408.1,471.2,406.2,471.7,404.3,472z M361.8,473c1.5-0.2,2.9-0.6,4-1.1c1.2-0.6,2.1-1.3,2.7-2.1c0.6-0.8,0.9-1.7,0.8-2.6l-0.4-3
	l-3.2,0.4c-3.5,0.4-6.1,1.1-7.8,2c-1.7,0.9-2.4,2.1-2.2,3.6c0.1,1.1,0.7,1.9,1.8,2.4C358.6,473.1,360.1,473.2,361.8,473z
	 M359.2,478.8c-3.4,0.4-6.1,0-8.2-1.3c-2.1-1.2-3.3-3.1-3.6-5.6c-0.4-3.1,0.9-5.7,3.7-7.7c2.9-2.1,7.1-3.4,12.8-4.1l4.5-0.5
	c-0.1-1.2-0.4-2.1-0.9-2.7c-0.5-0.6-1.1-1-2.1-1.1c-0.9-0.1-2.2-0.1-3.9,0.1c-2.2,0.3-4.4,0.7-6.7,1.4c-2.3,0.6-4.5,1.4-6.5,2.3
	l-1.8-5.3c2.2-0.9,4.6-1.7,7.4-2.4c2.7-0.7,5.5-1.2,8.2-1.5c3.5-0.4,6.3-0.4,8.4,0c2.1,0.4,3.7,1.3,4.8,2.7c1.1,1.4,1.8,3.4,2.1,6
	l2,16.9l-8.6,1l-0.5-3.1l-0.1,0c-1.1,1.2-2.7,2.3-4.7,3.2C363.6,477.9,361.4,478.5,359.2,478.8z M321.9,481.9l-2.2-26.9l8.7-0.7
	l0.5,5l0.2,0c1-1.3,2.3-2.4,3.8-3.4c1.5-0.9,3.1-1.7,5-2.3c1.8-0.6,3.7-1,5.7-1.1l0.5,6c-2.7,0.2-5.2,0.8-7.3,1.8
	c-2.2,1-3.8,2.2-5,3.7c-1.2,1.5-1.7,3-1.6,4.7l1,12.4L321.9,481.9z M289.8,477.9c3.2-0.1,6-0.7,8.2-1.9c2.2-1.1,3.9-2.7,5.1-4.7
	c1.1-2,1.6-4.4,1.5-7.1c-0.1-2.7-0.8-5-2.1-6.9c-1.3-1.9-3.1-3.3-5.4-4.3c-2.3-0.9-5.1-1.4-8.4-1.2c-3.2,0.1-5.9,0.7-8.2,1.9
	c-2.3,1.1-4,2.7-5.1,4.7c-1.1,2-1.6,4.4-1.5,7.1c0.1,2.7,0.8,5,2.1,6.9c1.3,1.9,3.1,3.3,5.4,4.3C283.8,477.6,286.6,478,289.8,477.9z
	 M290.1,484.3c-5,0.2-9.5-0.4-13.3-1.9c-3.8-1.4-6.7-3.6-8.8-6.4c-2.1-2.8-3.2-6.2-3.4-10.2c-0.2-4,0.7-7.5,2.6-10.5
	c1.9-3,4.7-5.3,8.3-7c3.7-1.7,8-2.7,13.1-2.9c5.1-0.2,9.6,0.4,13.4,1.8c3.8,1.4,6.7,3.6,8.8,6.4c2.1,2.8,3.2,6.2,3.4,10.2
	c0.2,4-0.7,7.5-2.6,10.4c-1.9,3-4.6,5.3-8.3,7.1S295.2,484.1,290.1,484.3z M228.5,485.3c-6.1-0.1-10.9-1.4-14.1-3.9
	c-3.3-2.5-4.9-6-4.8-10.4c0.1-4.4,1.6-7.7,4.7-10.2c3.1-2.4,7.3-3.6,12.6-3.5c5.1,0.1,9.1,1.3,11.8,3.7c2.7,2.4,4.1,5.8,4,10.1
	c0,0.5,0,1-0.1,1.7c0,0.6-0.1,1.1-0.1,1.4l-27.9-0.5l0.1-4.9l20.9,0.3l-1.3,1.5c0-2.7-0.5-4.7-1.8-6c-1.2-1.3-3.1-2-5.7-2.1
	c-2.7,0-4.8,0.6-6.2,1.9c-1.4,1.3-2.1,3.4-2.1,6.1l0,2.1c0,2.4,0.7,4.2,2.3,5.4c1.6,1.2,4.1,1.8,7.4,1.8c1.9,0,3.9-0.1,6-0.3
	c2.1-0.2,4-0.6,5.6-1l1,5.5c-1.6,0.5-3.5,0.9-5.7,1.1C232.9,485.2,230.7,485.3,228.5,485.3z M185.6,478.1c1.6,0.1,3-0.1,4.3-0.5
	c1.3-0.4,2.3-1.1,3.1-1.9c0.8-0.8,1.2-1.8,1.3-3l0.3-4.8c0.1-1.1-0.2-2.2-0.9-3.1c-0.7-0.9-1.6-1.7-2.8-2.3c-1.2-0.6-2.6-0.9-4.2-1
	c-2.6-0.2-4.6,0.4-6.1,1.8c-1.5,1.3-2.3,3.3-2.5,6c-0.2,2.7,0.4,4.7,1.7,6.3C181,477.1,183,478,185.6,478.1z M182.6,483.6
	c-4.6-0.3-8-1.7-10.4-4.3c-2.3-2.6-3.4-6.1-3.1-10.5c0.3-4.4,1.7-7.8,4.4-10.1c2.7-2.3,6.3-3.3,10.8-3c2.2,0.1,4.2,0.6,6,1.3
	c1.7,0.7,3.2,1.7,4.5,3.1l0.1,0l0.9-14l9,0.6l-2.4,37.8l-8.5-0.5l0.1-3.2l-0.1,0c-1.4,1.1-3.1,1.9-5,2.4
	C186.9,483.6,184.8,483.8,182.6,483.6z M127.8,473.6c1.5,0.2,2.9,0.1,4.2-0.2c1.3-0.3,2.3-0.8,3.1-1.4c0.8-0.7,1.2-1.4,1.3-2.3
	l0.3-3l-3.2-0.3c-3.5-0.4-6.2-0.3-8,0.2c-1.8,0.5-2.8,1.5-3,3c-0.1,1.1,0.3,2,1.2,2.7C124.7,472.9,126,473.4,127.8,473.6z
	 M124,478.6c-3.4-0.4-5.9-1.4-7.7-3.1c-1.8-1.7-2.5-3.8-2.3-6.2c0.3-3.1,2.1-5.3,5.4-6.7c3.3-1.4,7.7-1.7,13.4-1.1l4.5,0.5
	c0.1-1.2,0-2.2-0.3-2.8c-0.3-0.7-0.9-1.2-1.8-1.6c-0.9-0.4-2.1-0.6-3.8-0.8c-2.2-0.2-4.5-0.3-6.9-0.2c-2.4,0.1-4.7,0.4-6.8,0.8
	l-0.5-5.6c2.3-0.4,4.9-0.6,7.7-0.7c2.8-0.1,5.6,0.1,8.3,0.4c3.5,0.4,6.2,1,8.1,1.9c1.9,0.9,3.3,2.1,4,3.7c0.8,1.6,1,3.7,0.7,6.3
	l-1.8,16.9l-8.6-0.9l0.2-3.1l-0.1,0c-1.3,1-3.1,1.7-5.3,2.1C128.4,478.7,126.2,478.8,124,478.6z M94.2,474.2c-1.5-0.3-3.1-0.6-4.8-1
	c-1.7-0.4-3.3-0.9-4.8-1.5c-1.5-0.6-2.8-1.1-3.9-1.7l2-5.2c2,0.9,3.9,1.7,5.8,2.3c1.9,0.6,3.8,1.1,5.7,1.4c2.2,0.4,3.8,0.4,4.9,0.1
	c1.1-0.3,1.7-0.9,1.8-1.8c0.1-0.5,0-1-0.3-1.4c-0.3-0.4-0.9-0.8-1.7-1.3c-0.8-0.4-2-0.9-3.6-1.5c-2.7-1-4.9-2-6.8-3.1
	c-1.8-1.1-3.2-2.2-4.1-3.5c-0.9-1.3-1.2-2.7-0.9-4.2c0.4-2.5,2-4.2,4.6-5.1c2.6-0.9,6.3-0.9,10.9-0.2c2.1,0.4,4.3,0.9,6.5,1.5
	c2.2,0.7,4.3,1.4,6.2,2.2l-2,5.2c-1.8-0.8-3.6-1.5-5.3-2.1c-1.7-0.5-3.4-0.9-5.1-1.2c-2.2-0.4-3.8-0.4-4.9-0.2
	c-1.1,0.2-1.7,0.7-1.9,1.6c-0.1,0.5,0,0.9,0.3,1.3c0.3,0.4,0.8,0.8,1.7,1.2c0.8,0.4,2,0.9,3.5,1.4c2,0.7,3.7,1.5,5.3,2.3
	c1.6,0.8,2.9,1.6,3.9,2.5c1.1,0.9,1.8,1.9,2.3,2.9c0.5,1,0.6,2.1,0.4,3.3c-0.3,1.6-1.1,3-2.5,4c-1.4,1-3.2,1.7-5.4,2
	C99.7,474.8,97.1,474.7,94.2,474.2z M58.7,461.6c1.5,0.3,2.9,0.5,4.2,0.3c1.3-0.1,2.4-0.5,3.2-1c0.9-0.6,1.4-1.3,1.6-2.2l0.7-3
	l-3.1-0.7c-3.5-0.8-6.1-1.1-8-0.8c-1.9,0.3-3,1.2-3.3,2.6c-0.2,1.1,0,2,0.9,2.9C55.6,460.6,56.9,461.2,58.7,461.6z M54.3,466.1
	c-3.3-0.8-5.7-2.1-7.3-4c-1.6-1.9-2.1-4-1.5-6.5c0.7-3,2.8-5,6.1-6c3.4-1,7.9-0.8,13.4,0.5l4.4,1c0.3-1.2,0.3-2.1,0.1-2.9
	c-0.2-0.7-0.7-1.3-1.6-1.8c-0.8-0.5-2-0.9-3.7-1.2c-2.1-0.5-4.4-0.8-6.8-1c-2.4-0.2-4.7-0.2-6.9,0l0.2-5.6c2.4-0.1,5,0,7.8,0.2
	c2.8,0.3,5.5,0.7,8.2,1.4c3.4,0.8,6,1.7,7.9,2.8c1.8,1.1,3,2.5,3.6,4.2c0.6,1.7,0.5,3.8-0.1,6.3l-3.8,16.6l-8.4-1.9l0.6-3.1l-0.1,0
	c-1.4,0.8-3.3,1.3-5.5,1.4C58.7,466.8,56.4,466.6,54.3,466.1z M24.2,456.9c-4.9-1.8-8.9-4.1-11.9-6.9c-3-2.8-4.9-5.8-5.8-9.3
	c-0.9-3.4-0.6-7,0.8-10.9c1.4-3.8,3.6-6.8,6.4-8.8c2.9-2,6.4-3.1,10.4-3.2c4.1-0.1,8.6,0.7,13.5,2.5c5.6,2.1,10.3,4.9,13.9,8.4
	l-4.2,5.2c-3.5-3.5-7.4-6-11.6-7.5c-3.1-1.2-6-1.7-8.6-1.5c-2.6,0.1-4.9,0.9-6.7,2.3c-1.9,1.4-3.3,3.4-4.2,5.9
	c-0.9,2.5-1.1,4.9-0.6,7.2c0.5,2.3,1.7,4.3,3.6,6.1c1.9,1.8,4.4,3.3,7.6,4.5c4.1,1.5,8.7,2.1,13.7,1.9l-0.2,6.7
	C35.2,459.9,29.9,459,24.2,456.9z"/>
<polygon class="st1" points="327.5,77.2 256,26.7 184.5,77.2 "/>
<polygon class="st1" points="62.7,203.3 62.7,163.3 6,203.3 "/>
<polygon class="st1" points="449.3,163.3 449.3,203.3 506,203.3 "/>
<path class="st3" d="M363.3,360.1c15.2,0,27.5,15.7,27.5,35c0,19.3-12.3,35-27.5,35c-15.2,0-27.5-15.7-27.5-35
	C335.8,375.7,348.1,360.1,363.3,360.1 M362.2,370c10,3.8,18.4,9.1,12,24.9c3,0.2,5.5-0.6,7.8-2.7c3.6,8.9,1.7,16.6-9.3,21.3
	c-3.9-14.2-21.3-10.1-21.2,6.7c-9.2-4.9-10.1-12.9-2.7-24c0.5-1.8-1.7-2.5-5.6-2.5c2-4.9,5.9-6.1,11.1-4.8
	C364,387.2,365.8,380.4,362.2,370"/>
<path class="st3" d="M135.3,407.2l8.2-9.7v-1.7h-5.2l-7.5,9h-4.5v-9h-5v23l5,0v-9h4.5l7.5,9h5.2V417L135.3,407.2z M266.2,395.7
	c-2.6,0-4.7,2.1-4.7,4.7v1.5v3c0,1,0.3,2,0.9,2.8c0.8,1.2,2.3,1.9,3.8,1.9l13.2,0v4h-13v-1.9h-4.9v2.1c0,2.6,2.1,4.7,4.7,4.7h13.5
	c2.6,0,4.7-2.1,4.7-4.7v-4.5c0-2.6-2.1-4.7-4.7-4.7h-12.1h-1.2v-4h7.2h5.8v1.9h5v-2.1c0-2.5-2-4.6-4.5-4.7h-9.3H266.2z M297,395.7
	v23l4.9,0v-9h13.6v9h4.9v-23h-4.9v9h-13.6v-9H297z M230.8,395.7c-2.6,0-4.7,2.1-4.7,4.7v12.7v0.8c0,1.7,0.9,3.2,2.2,4
	c0.7,0.4,1.6,0.7,2.5,0.7h13.5c2.6,0,4.7-2.1,4.7-4.7v-0.4V408v-7.6c0-2.6-2.1-4.7-4.7-4.7H230.8z M231.1,400.7h13v9.1v3.9h-13v-1.1
	V400.7z M190.6,395.7v11.5v5.6v5.9l18.2,0c1,0,2-0.3,2.8-0.9c1.2-0.9,2-2.3,2-3.8v-1v-12.5c0-2.6-2.1-4.7-4.8-4.7H190.6z
	 M195.5,400.7h13.1v11.7v1.4h-13.1v-4.7V400.7z M159.7,395.7c-2.6,0-4.7,2.1-4.7,4.7v18.2l4.9,0v-7.4h13v7.4h5V407v-6.4v-0.2
	c0-2.6-2.1-4.7-4.7-4.7H171h-9.3L159.7,395.7L159.7,395.7z M159.9,400.7h8.1h4.9v3.3v2.3h-13L159.9,400.7L159.9,400.7z"/>
<g>
	<path class="st4" d="M121.3,391.2v-19.5h3.9v19.5H121.3z"/>
	<path class="st4" d="M139.1,391.4c-2.2,0-4.1-0.4-5.7-1.2c-1.6-0.8-2.8-1.9-3.7-3.4c-0.8-1.5-1.3-3.3-1.3-5.4s0.4-3.9,1.3-5.4
		c0.8-1.5,2-2.6,3.6-3.4s3.4-1.2,5.6-1.2c1.2,0,2.3,0.1,3.4,0.4c1.1,0.3,2,0.6,2.9,1.1l-0.8,3.1c-0.7-0.4-1.6-0.8-2.5-1
		s-1.9-0.4-2.9-0.4c-1.4,0-2.5,0.3-3.5,0.8s-1.7,1.3-2.2,2.3c-0.5,1-0.8,2.2-0.8,3.7c0,1.4,0.3,2.7,0.8,3.7c0.5,1,1.3,1.8,2.3,2.3
		c1,0.5,2.2,0.8,3.7,0.8c0.7,0,1.4-0.1,2.1-0.2c0.7-0.1,1.3-0.4,1.8-0.6l-0.5,1.1v-5.6h-5.8v-3.1h9.5v10.2c-0.9,0.5-2,0.9-3.3,1.1
		C141.6,391.3,140.4,391.4,139.1,391.4z"/>
	<path class="st4" d="M150,391.2v-19.5h3.8v16.2h10.1v3.3H150z"/>
	<path class="st4" d="M166.9,391.2v-19.5h13.2v3.2h-9.5v4.6h9v3.1h-9v5.4h9.5v3.2H166.9z"/>
</g>
<g>
	<path class="st4" d="M189.8,391.4c-1.3,0-2.6-0.1-3.9-0.4s-2.3-0.7-3.1-1.1l0.9-3.3c0.6,0.3,1.3,0.6,2,0.8c0.7,0.2,1.5,0.4,2.2,0.6
		c0.8,0.1,1.5,0.2,2.2,0.2c1.2,0,2.1-0.2,2.7-0.6c0.6-0.4,0.9-1,0.9-1.8c0-0.4-0.1-0.8-0.3-1.1c-0.2-0.3-0.5-0.6-0.9-0.8
		c-0.4-0.2-0.9-0.4-1.5-0.6c-0.6-0.2-1.3-0.4-2.1-0.6c-0.9-0.3-1.8-0.6-2.5-0.9c-0.7-0.3-1.4-0.7-1.9-1.2c-0.5-0.5-0.9-1-1.2-1.6
		c-0.3-0.6-0.4-1.3-0.4-2.1c0-1.7,0.7-3.1,2-4c1.3-0.9,3.2-1.4,5.7-1.4c1.2,0,2.4,0.1,3.6,0.3c1.2,0.2,2.2,0.5,3.1,0.9l-0.9,3.3
		c-0.9-0.4-1.8-0.7-2.8-0.9c-1-0.2-2.1-0.3-3.1-0.3c-1.2,0-2.1,0.2-2.7,0.5c-0.6,0.4-0.9,0.9-0.9,1.6c0,0.4,0.1,0.8,0.3,1.1
		c0.2,0.3,0.4,0.5,0.8,0.8c0.4,0.2,0.8,0.4,1.4,0.6c0.6,0.2,1.2,0.4,2,0.6c1,0.3,1.9,0.6,2.7,0.9s1.5,0.7,2,1.2c0.5,0.5,1,1,1.2,1.6
		c0.3,0.6,0.4,1.3,0.4,2.1c0,1.8-0.7,3.2-2,4.1C194.2,390.9,192.3,391.4,189.8,391.4z"/>
	<path class="st4" d="M201.2,391.2v-19.5h3.9v19.5H201.2z"/>
	<path class="st4" d="M207.6,391.2l6.7-19.5h5l6.7,19.5H222l-5.1-16.3h-0.1l-5.1,16.3H207.6z M211.5,386.7v-3.3h10.7v3.3H211.5z"/>
</g>
<path class="st5" d="M348.6,396.2c-7.4,11-6.5,19,2.7,24c0-16.8,17.3-20.9,21.2-6.7c11-4.7,12.9-12.4,9.3-21.3
	c-2.3,2.1-4.8,2.9-7.8,2.7c6.4-15.8-1.9-21.2-12-24.9c3.6,10.5,1.8,17.2-8.1,19c-5.2-1.3-9.1-0.1-11.1,4.8
	C347,393.7,349.2,394.4,348.6,396.2"/>
</svg>
