<?xml version="1.0" encoding="utf-8"?>
<!-- Generator: Adobe Illustrator 24.0.2, SVG Export Plug-In . SVG Version: 6.00 Build 0)  -->
<svg version="1.1" id="Capa_1" xmlns="http://www.w3.org/2000/svg" xmlns:xlink="http://www.w3.org/1999/xlink" x="0px" y="0px"
	 viewBox="0 0 512 512" style="enable-background:new 0 0 512 512;" xml:space="preserve">
<style type="text/css">
	.cdoiz{fill-rule:evenodd;clip-rule:evenodd;fill:#0D71B8;opacity: 0;
		transform: translateY(200px);
		animation: cdoiz 1s forwards;
	}
	.cdodr{fill-rule:evenodd;clip-rule:evenodd;fill:#0D71B8;opacity: 0;
		transform: translateY(200px);
		animation: cdoiz 0.5s forwards 0.5s;
	}
	.cdocentro{fill-rule:evenodd;clip-rule:evenodd;fill:#0D71B8;opacity: 0;
		transform-origin: 256px 360px;
		transform: scale(0.5);
		animation: cdocentro 1.5s forwards 2s;
	}
	@keyframes cdoiz{0%{opacity:0;transform: translateY(200px);}100%{opacity:1;transform: translateY(0);}}
	@keyframes cdocentro{0%{opacity:0;transform: scale(0.5);}100%{opacity:1;transform: scale(1);}}
</style>
<path class="cdoiz" d="M9.5,506h104l26.4-99.3l5.6-189.6c1.1-36.6-42.7-27.7-58.5,54c-1.8,9.1-1.6,21.5-12.8,18.3
	c-9.5-2.7-6-13.2-4.2-19.8c23.8-86.7,63.6-105.1,82.5-67.6c23.4-33,79.5-124.6,86.8-164.6c5.1-28.2-9.6-49.7-47.2-9
	c-56.6,57.9-105.6,115.7-142.9,173c-34.5,53.1-25.5,46.7-23.9,107.7C27,378.6,22.7,444.6,9.5,506"/>
<path class="cdodr" d="M502.5,506h-104l-26.4-99.3l-5.6-189.6c-1.1-36.6,42.7-27.7,58.5,54c1.8,9.1,1.6,21.5,12.8,18.3
	c9.5-2.7,6-13.2,4.2-19.8c-23.8-86.7-63.6-105.1-82.5-67.6c-23.4-33-79.5-124.6-86.8-164.6c-5.1-28.2,9.6-49.7,47.2-9
	c56.6,57.9,105.6,115.7,142.9,173c34.5,53.1,25.5,46.7,23.9,107.7C485,378.6,489.3,444.6,502.5,506"/>
<path class="cdocentro" d="M373.2,506H148.5c-34.8-36,32-66.5,70.1-88.9l19.2-45.1c-44.4-16.7-61.1-46.2-65.9-81.1
	c0.9-42.1,14-56.1,25.7,6.8c7.4,14.7,19.2,25.9,35.2,33.8c19.4-8.9,26.3-23.1,23.6-41.4l0.1-0.1c-19.7-1.5-35.2-18-35.2-38.1
	c0-21.1,17.1-38.2,38.2-38.2c21.1,0,38.2,17.1,38.2,38.2c0,9.5-3.4,18.1-9.1,24.8c34.4,51.8,32.2,110.4-8.2,183.3
	c21,7.5,48.7,20.7,72.5,26.6C374.6,492.2,373.2,483.3,373.2,506"/>
</svg>
