<?xml version="1.0" encoding="utf-8"?>
<!-- Generator: Adobe Illustrator 24.0.2, SVG Export Plug-In . SVG Version: 6.00 Build 0)  -->
<svg version="1.1" id="Capa_1" xmlns="http://www.w3.org/2000/svg" xmlns:xlink="http://www.w3.org/1999/xlink" x="0px" y="0px"
	 viewBox="0 0 512 512" style="enable-background:new 0 0 512 512;" xml:space="preserve">
<style type="text/css">
	.st0{fill-rule:evenodd;clip-rule:evenodd;fill:#fff;}
	.st1{fill:none;stroke:#888;stroke-width:2;
		stroke-dasharray: 1450px;
		animation: mundoLine2 7.5s infinite;
	}
	.st2{fill:none;stroke:#888;stroke-width:2;opacity: 0;
		stroke-dasharray: 1270px;
		animation: mundoLine 7.5s infinite;
	}
	@keyframes mundoLine{
		0%{stroke-dashoffset:1270px;opacity:1;}
		10%{stroke-dashoffset:0px;opacity:1;}
		20%{stroke-dashoffset:-1270px;opacity:1;}
		100%{stroke-dashoffset:-1270px;opacity:1;}
	}
	@keyframes mundoLine2{
		0%{stroke-dashoffset:-1450px;opacity:1;}
		10%{stroke-dashoffset:-1450px;opacity:1;}
		20%{stroke-dashoffset:-1450px;opacity:1;}
		40%{stroke-dashoffset:-1450px;opacity:1;}
		50%{stroke-dashoffset:0px;opacity:1;}
		60%{stroke-dashoffset:1450px;opacity:1;}
		100%{stroke-dashoffset:1450px;opacity:1;}
	}
</style>
<path class="st0" d="M256,6c108.3,0,196.1,111.9,196.1,250S364.3,506,256,506S59.9,394.1,59.9,256S147.7,6,256,6z M248.3,76.6
	c71.7,26.8,131.1,65.3,85.4,177.9c21.4,1.2,39.3-4.6,55.4-19.5c25.6,63.9,12,118.4-66.4,152.3C294.6,286,170.8,315.2,171,435.4
	c-66-35.3-72.5-92.5-19.6-171.1c3.7-13.1-11.9-18.1-40.2-17.7c14.1-34.7,41.8-43.5,79.1-34.2C261,199.6,274,151.5,248.3,76.6"/>
<path class="st1" d="M256,6c108.3,0,196.1,111.9,196.1,250S364.3,506,256,506S59.9,394.1,59.9,256S147.7,6,256,6z"/>
<path class="st2" d="M333.7,254.5c45.7-112.6-13.7-151.1-85.4-177.9c25.7,74.9,12.7,123-58,135.8c-37.3-9.3-65-0.5-79.1,34.2
	c28.3-0.4,43.9,4.6,40.2,17.7C98.5,342.9,105,400.1,171,435.4c-0.2-120.2,123.6-149.4,151.7-48.1c78.4-33.9,92-88.4,66.4-152.3
	C373,249.9,355.1,255.7,333.7,254.5z"/>
</svg>
