<?xml version="1.0" encoding="utf-8"?>
<!-- Generator: Adobe Illustrator 24.0.2, SVG Export Plug-In . SVG Version: 6.00 Build 0)  -->
<svg version="1.1" id="Capa_1" xmlns="http://www.w3.org/2000/svg" xmlns:xlink="http://www.w3.org/1999/xlink" x="0px" y="0px"
	 viewBox="0 0 512 150" style="enable-background:new 0 0 512 150;" xml:space="preserve">
<style type="text/css">
	.iglesia{fill-rule:evenodd;clip-rule:evenodd;fill:#fff;
		animation: color 15s infinite;
	}
	.kadTxt{fill-rule:evenodd;clip-rule:evenodd;fill:#fff;}
	.out{fill:none;stroke:#888;stroke-width:2;
		stroke-dasharray: 400px;
		animation: mundoLine 15s infinite;
	}
	.in{fill:none;stroke:#888;stroke-width:2;
		stroke-dasharray: 150px;
		animation: mundoLine2 15s infinite;
	}

	@keyframes color{
		0%{fill:#fff;}
		50%{fill:#fff;}
		60%{fill:#888;}
		90%{fill:#888;}
		100%{fill:#fff;}
	}
	@keyframes mundoLine{
		0%{stroke-dashoffset:400px;opacity:1;}
		50%{stroke-dashoffset:400px;opacity:1;}
		60%{stroke-dashoffset:0px;opacity:1;}
		90%{stroke-dashoffset:0px;opacity:1;}
		100%{stroke-dashoffset:-400px;opacity:1;}
	}
	@keyframes mundoLine2{
		0%{stroke-dashoffset:150px;opacity:1;}
		10%{stroke-dashoffset:150px;opacity:1;}
		20%{stroke-dashoffset:150px;opacity:1;}
		30%{stroke-dashoffset:150px;opacity:1;}
		40%{stroke-dashoffset:150px;opacity:1;}
		50%{stroke-dashoffset:150px;opacity:1;}
		60%{stroke-dashoffset:0px;opacity:1;}
		70%{stroke-dashoffset:0px;opacity:1;}
		80%{stroke-dashoffset:0px;opacity:1;}
		90%{stroke-dashoffset:0px;opacity:1;}
		100%{stroke-dashoffset:-150px;opacity:1;}
	}
</style>
<path class="kadTxt" d="M41.1,93l20.6-24.5v-4.4l-13,0L29.9,86.7H18.5V64.2H6v57.7l12.5,0V99.3h11.3l18.9,22.5h13v-4.4L41.1,93z
	 M369.9,64.2c-6.5,0-11.9,5.3-11.9,11.9v3.9v7.5c0,2.5,0.8,5,2.2,6.9c2.1,2.9,5.7,4.9,9.6,4.9l33.2,0v10.1h-32.7v-4.8l-12.4,0v5.4
	c0,6.5,5.4,11.9,11.9,11.9l33.9,0c6.5,0,11.9-5.4,11.9-11.9V98.6c0-6.5-5.4-11.9-11.9-11.9h-30.4h-2.9V76.7h18.1h14.6v4.8h12.6v-5.4
	c0-6.3-5.1-11.5-11.3-11.9h-23.3H369.9z M447.2,64.2v57.7l12.4,0V99.3h34v22.5H506V64.2h-12.4v22.5h-34V64.2H447.2z M281,64.2
	c-6.5,0-11.9,5.3-11.9,11.9V108v2c0,4.3,2.2,7.9,5.6,10.1c1.8,1.1,4,1.8,6.2,1.8h33.9c6.5,0,11.9-5.4,11.9-11.9v-1V95.1v-19
	c0-6.5-5.4-11.9-11.9-11.9H281z M281.6,76.7h32.7v22.8v9.9h-32.7v-2.6V76.7z M180.2,64.2V93v14.1v14.7l45.7,0c2.5,0,5-0.8,6.9-2.2
	c3-2.1,5-5.7,5-9.6v-2.4V76.1c0-6.5-5.4-11.9-12-11.9L180.2,64.2z M192.5,76.7h32.8v29.3v3.5l-32.8,0V97.7V76.7z M102.5,64.2
	c-6.5,0-11.9,5.3-11.9,11.9v45.8l12.4,0v-18.6h32.7v18.6h12.6V92.5V76.4V76c0-6.5-5.4-11.9-11.9-11.9h-5.6h-23.3h-5.1V64.2z
	 M103.1,76.7h20.4h12.2V85v5.8l-32.7,0V76.7H103.1z"/>
<path class="out" d="M41.1,93l20.6-24.5v-4.4l-13,0L29.9,86.7H18.5V64.2H6v57.7l12.5,0V99.3h11.3l18.9,22.5h13v-4.4L41.1,93z
	 M369.9,64.2c-6.5,0-11.9,5.3-11.9,11.9v3.9v7.5c0,2.5,0.8,5,2.2,6.9c2.1,2.9,5.7,4.9,9.6,4.9l33.2,0v10.1h-32.7v-4.8l-12.4,0v5.4
	c0,6.5,5.4,11.9,11.9,11.9l33.9,0c6.5,0,11.9-5.4,11.9-11.9V98.6c0-6.5-5.4-11.9-11.9-11.9h-30.4h-2.9V76.7h18.1h14.6v4.8h12.6v-5.4
	c0-6.3-5.1-11.5-11.3-11.9h-23.3H369.9z M447.2,64.2v57.7l12.4,0V99.3h34v22.5H506V64.2h-12.4v22.5h-34V64.2H447.2z M281,64.2
	c-6.5,0-11.9,5.3-11.9,11.9V108v2c0,4.3,2.2,7.9,5.6,10.1c1.8,1.1,4,1.8,6.2,1.8h33.9c6.5,0,11.9-5.4,11.9-11.9v-1V95.1v-19
	c0-6.5-5.4-11.9-11.9-11.9H281z M180.2,64.2V93v14.1v14.7l45.7,0c2.5,0,5-0.8,6.9-2.2c3-2.1,5-5.7,5-9.6v-2.4V76.1
	c0-6.5-5.4-11.9-12-11.9L180.2,64.2z M102.5,64.2c-6.5,0-11.9,5.3-11.9,11.9v45.8l12.4,0v-18.6h32.7v18.6h12.6V92.5V76.4V76
	c0-6.5-5.4-11.9-11.9-11.9h-5.6h-23.3h-5.1V64.2z"/>
<g>
	<rect x="162.5" y="17.2" class="iglesia" width="6.9" height="34.7"/>
	<path class="iglesia" d="M177.5,25c-1.5,2.7-2.2,5.9-2.2,9.6s0.8,6.9,2.3,9.6c1.5,2.7,3.7,4.7,6.5,6.1c2.8,1.4,6.2,2.1,10.2,2.1
		c2.3,0,4.6-0.2,6.8-0.7c2.3-0.5,4.2-1.2,5.9-2V31.5H190v5.6h10.3v8.4c-0.7,0.3-1.5,0.5-2.3,0.7c-1.2,0.3-2.4,0.4-3.7,0.4
		c-2.6,0-4.7-0.5-6.5-1.4c-1.8-0.9-3.1-2.3-4-4.1c-0.9-1.8-1.4-4-1.4-6.5c0-2.6,0.5-4.8,1.4-6.5c0.9-1.8,2.2-3.2,3.9-4.1
		c1.7-0.9,3.8-1.4,6.2-1.4c1.7,0,3.4,0.2,5.1,0.6c1.7,0.4,3.2,1,4.5,1.8l1.5-5.6c-1.5-0.9-3.2-1.6-5.1-2c-1.9-0.5-3.9-0.7-6-0.7
		c-3.9,0-7.2,0.7-10,2.1C181.1,20.3,179,22.4,177.5,25 M200.3,45.5c0.3-0.1,0.6-0.3,0.9-0.4l-0.9,2V45.5z"/>
	<polygon class="iglesia" points="213.7,17.2 213.7,52 238.6,52 238.6,46.1 220.5,46.1 220.5,17.2 	"/>
	<polygon class="iglesia" points="243.8,17.2 243.8,52 267.4,52 267.4,46.3 250.5,46.3 250.5,36.6 266.5,36.6 266.5,31.2 250.5,31.2 
		250.5,22.9 267.4,22.9 267.4,17.2 	"/>
	<path class="iglesia" d="M275.9,19.2c-2.4,1.7-3.6,4.1-3.6,7.2c0,1.4,0.2,2.7,0.7,3.8c0.5,1.1,1.2,2.1,2.1,2.9c0.9,0.8,2.1,1.5,3.4,2.1
		c1.3,0.6,2.8,1.1,4.5,1.6c1.5,0.4,2.7,0.7,3.8,1.1c1.1,0.3,2,0.7,2.7,1.1c0.7,0.4,1.2,0.9,1.6,1.4c0.3,0.5,0.5,1.2,0.5,1.9
		c0,1.4-0.6,2.5-1.7,3.2c-1.1,0.7-2.7,1.1-4.8,1.1c-1.2,0-2.5-0.1-3.9-0.4c-1.4-0.2-2.7-0.6-4-1c-1.3-0.4-2.5-0.9-3.6-1.5l-1.5,5.9
		c1.5,0.9,3.4,1.5,5.6,2c2.3,0.5,4.6,0.7,6.9,0.7c4.4,0,7.8-0.9,10.3-2.6c2.4-1.8,3.6-4.2,3.6-7.4c0-1.5-0.3-2.7-0.8-3.8
		c-0.5-1.1-1.2-2-2.2-2.8c-1-0.8-2.2-1.5-3.6-2.1c-1.4-0.6-3-1.2-4.8-1.7c-1.4-0.4-2.6-0.8-3.6-1.1c-1-0.3-1.8-0.7-2.5-1.1
		c-0.7-0.4-1.1-0.8-1.5-1.4c-0.3-0.5-0.5-1.2-0.5-1.9c0-1.3,0.6-2.2,1.7-2.9c1.1-0.6,2.7-1,4.9-1c1.8,0,3.6,0.2,5.5,0.6
		c1.8,0.4,3.5,1,5,1.7L298,19c-1.6-0.7-3.4-1.2-5.5-1.6c-2.1-0.4-4.3-0.6-6.4-0.6C281.7,16.7,278.3,17.6,275.9,19.2"/>
	<rect x="305.1" y="17.2" class="iglesia" width="6.9" height="34.7"/>
	<path class="iglesia" d="M328.2,38.2l4.8-15.3h0.1l4.8,15.3H328.2z M328.6,17.2l-12,34.7h7.3l2.5-7.9h13.3l2.5,7.9h7.3l-12-34.7H328.6z
		"/>
</g>
<g>
	<polygon class="in" points="281.6,76.7 314.3,76.7 314.3,99.4 314.3,109.3 281.6,109.3 281.6,106.7 	"/>
	<polygon class="in" points="192.5,76.7 225.3,76.7 225.3,105.9 225.3,109.4 192.5,109.4 192.5,97.7 	"/>
	<polygon class="in" points="103.1,76.7 123.5,76.7 135.7,76.7 135.7,85 135.7,90.8 103,90.8 103,76.7 	"/>
</g>
</svg>
