<?xml version="1.0" encoding="utf-8"?>
<!-- Generator: Adobe Illustrator 24.0.2, SVG Export Plug-In . SVG Version: 6.00 Build 0)  -->
<svg version="1.1" id="Capa_1" xmlns="http://www.w3.org/2000/svg" xmlns:xlink="http://www.w3.org/1999/xlink" x="0px" y="0px"
	 viewBox="0 0 512 100" style="enable-background:new 0 0 512 100;" xml:space="preserve">
<style type="text/css">
	.st0{fill-rule:evenodd;clip-rule:evenodd;fill:#FFFFFF;}
</style>
<path class="st0" d="M105.4,33.9h20.1h12v8.2v5.7h-32.2V33.9z M104.8,21.6c-6.4,0-11.7,5.2-11.7,11.7v45.1h12.2V60.1h32.2v18.3h12.4
	V49.5V33.6v-0.4c0-6.4-5.3-11.7-11.7-11.7h-5.5h-22.9H104.8z M193.4,33.9h32.3v28.8v3.4h-32.3V54.6V33.9z M181.3,21.6V50v13.9v14.5
	h45c2.5,0,4.9-0.8,6.8-2.2c3-2.1,4.9-5.6,4.9-9.5v-2.4v-31c0-6.4-5.3-11.7-11.8-11.7H181.3z M281.2,33.9h32.2v22.4v9.7h-32.2v-2.6
	V33.9z M280.6,21.6c-6.4,0-11.7,5.2-11.7,11.7v31.4v2c0,4.2,2.2,7.8,5.5,9.9c1.8,1.1,3.9,1.8,6.1,1.8h33.4c6.4,0,11.7-5.3,11.7-11.7
	v-1V52V33.3c0-6.4-5.3-11.7-11.7-11.7H280.6z M444.2,21.6v56.8h12.2V56.2h33.5v22.2h12.2V21.6h-12.2v22.2h-33.5V21.6H444.2z
	 M368.1,21.6c-6.4,0-11.7,5.2-11.7,11.7v3.8v7.4c0,2.5,0.8,4.9,2.2,6.8c2.1,2.9,5.6,4.8,9.5,4.8h32.7v9.9h-32.2v-4.7h-12.2v5.3
	c0,6.4,5.3,11.7,11.7,11.7h33.4c6.4,0,11.7-5.3,11.7-11.7V55.5c0-6.4-5.3-11.7-11.7-11.7h-29.9h-2.9v-9.9h17.8h14.4v4.7h12.4v-5.3
	c0-6.2-5-11.3-11.1-11.7l-22.9,0L368.1,21.6z M44.4,50l20.3-24.1v-4.3H51.9L33.3,43.8H22.1V21.6H9.8v56.8h12.3V56.2h11.1l18.6,22.2
	h12.8v-4.3L44.4,50z"/>
</svg>
