<?xml version="1.0" encoding="utf-8"?>
<!-- Generator: Adobe Illustrator 24.0.2, SVG Export Plug-In . SVG Version: 6.00 Build 0)  -->
<svg version="1.1" id="Capa_1" xmlns="http://www.w3.org/2000/svg" xmlns:xlink="http://www.w3.org/1999/xlink" x="0px" y="0px"
	 viewBox="0 0 512 512" style="enable-background:new 0 0 512 512;" xml:space="preserve">
<style type="text/css">
	.st0{fill-rule:evenodd;clip-rule:evenodd;fill:#0071BA;}
</style>
<path class="st0" d="M506,256C506,117.9,394.1,6,256,6S6,117.9,6,256s111.9,250,250,250S506,394.1,506,256 M26.8,256
	C26.8,129.4,129.4,26.8,256,26.8c126.6,0,229.2,102.6,229.2,229.2S382.6,485.2,256,485.2C129.4,485.2,26.8,382.6,26.8,256z"/>
<path class="st0" d="M314.3,152.3c-5.1,0-9.6,6.3-5.5,12.2c6.6,9.5,6.2,12.1,4.8,25.7c0,6.1,6.9,10,11.9,6.2
	C335.3,189.2,329.3,152.3,314.3,152.3 M297.1,144.6c3.4,0,6.2,2.8,6.2,6.2c0,3.4-2.8,6.2-6.2,6.2c-3.4,0-6.2-2.8-6.2-6.2
	C290.9,147.4,293.6,144.6,297.1,144.6z M254.1,154c-23.2-37.4-82.3-23.2-82.3,27c0,34.2,50.4,69.9,75.2,84.2
	c11.6,6.7,8.8,6.7,20.4,0c24.9-14.3,75.2-50,75.2-84.2c0-50.2-59.1-64.4-82.3-27C256.3,160.5,258.1,160.5,254.1,154z"/>
<path class="st0" d="M176.9,403.3h57.8c1.7,0,3.1-1.4,3-3l-1.3-73.1c0-7.8-0.6-14.3-4-20.3l-20.2-30.9c-3.7-4.4-7.8-8.2-13.6-10.7
	l-26.7-14.9L138,218.2c-9.2-7.5-26.5,2.7-15.5,17.7l55.4,70.4c3.6,4.6-1.8,9.6-5.9,4l-56-70.9c-7.9-13.2-2-25.3,9.2-29.8l-7.9-41.8
	c-1.4-20.4-28.3-17.4-28,1.3L91,228c-0.8,7.2,2.1,14.8,5.1,21.4l26,54.1c1.8,5,3.4,9.1,8.2,13.8l35.4,36.3
	c6.8,6.1,11.2,13.6,10.5,24l-2.4,22.8C173.7,401.9,175.2,403.3,176.9,403.3"/>
<path class="st0" d="M335.1,403.3h-57.8c-1.7,0-3.1-1.4-3-3l1.3-73.1c0-7.8,0.6-14.3,4-20.3l20.2-30.9c3.7-4.4,7.8-8.2,13.6-10.7
	l26.7-14.9l33.9-32.2c9.2-7.5,26.5,2.7,15.5,17.7l-55.4,70.4c-3.6,4.6,1.8,9.6,5.9,4l56-70.9c7.9-13.2,2-25.3-9.2-29.8l7.9-41.8
	c1.4-20.4,28.3-17.4,28,1.3L421,228c0.8,7.2-2.1,14.8-5.1,21.4l-26,54.1c-1.8,5-3.4,9.1-8.2,13.8l-35.4,36.3
	c-6.8,6.1-11.2,13.6-10.5,24l2.4,22.8C338.3,401.9,336.8,403.3,335.1,403.3"/>
</svg>
