<?xml version="1.0" encoding="utf-8"?>
<!-- Generator: Adobe Illustrator 24.0.2, SVG Export Plug-In . SVG Version: 6.00 Build 0)  -->
<svg version="1.1" id="Capa_1" xmlns="http://www.w3.org/2000/svg" xmlns:xlink="http://www.w3.org/1999/xlink" x="0px" y="0px"
	 viewBox="0 0 512 512" style="enable-background:new 0 0 512 512;" xml:space="preserve">
<style type="text/css">
	.st0{fill-rule:evenodd;clip-rule:evenodd;fill:#0071BA;}
</style>
<path class="st0" d="M506,256C506,117.9,394.1,6,256,6S6,117.9,6,256s111.9,250,250,250S506,394.1,506,256 M26.8,256
	C26.8,129.4,129.4,26.8,256,26.8c126.6,0,229.2,102.6,229.2,229.2S382.6,485.2,256,485.2C129.4,485.2,26.8,382.6,26.8,256z"/>
<path class="st0" d="M259.3,229.4c26.8-108.4,272.2-62.6,16.6,190.8c-18.9,0.8-59.2-20.1-68.9-22.4c17.2,18.1,54.1,41.3,77.9,51.8
	c22.8,10.1,83.4-71.6,116.5-149.9C495.5,76.6,245.6,119.2,259.3,229.4"/>
<path class="st0" d="M254.5,360c-177.3,53.1-172.7-219.2,9.6-174.4c-25.6-31.3-94.6-29.3-127.5-8c-80.9,52.4-51.5,177.2,39.1,205.4
	c90.1,28.1,176.3-70.8,189.5-147.8c-24.3,39.3-71.7,76.3-114.3,32.4c1.9,6.6,40.4,74.5,8.2,89c-42.8-18.7-46.2-50.6-19.8-88.5
	c-42.8,33.6-62.8,10.3-89.9-26.1c-4,52.2,40.1,126,102.9,116C254,357.7,256.1,358.7,254.5,360"/>
<path class="st0" d="M184.7,91.1c15.7,0,28.4,12.7,28.4,28.4s-12.7,28.4-28.4,28.4c-15.7,0-28.4-12.7-28.4-28.4
	S169.1,91.1,184.7,91.1"/>
<path class="st0" d="M319.5,61.5c19.3,0,35,15.7,35,35c0,19.3-15.7,35-35,35c-19.3,0-35-15.7-35-35
	C284.5,77.2,300.2,61.5,319.5,61.5"/>
<path class="st0" d="M195.1,242.2c8.8,0,15.9,7.1,15.9,15.9c0,8.8-7.1,15.9-15.9,15.9c-8.8,0-15.9-7.1-15.9-15.9
	C179.2,249.3,186.3,242.2,195.1,242.2"/>
<path class="st0" d="M299.9,237.4c10.4,0,18.9,8.4,18.9,18.9c0,10.4-8.4,18.9-18.9,18.9c-10.4,0-18.9-8.4-18.9-18.9
	C281,245.9,289.4,237.4,299.9,237.4"/>
</svg>
